<svg id="Layer_1" enable-background="new 0 0 60 60" height="512" viewBox="0 0 60 60" width="512" xmlns="http://www.w3.org/2000/svg"><path d="m59 60h-58c-.552 0-1-.447-1-1s.448-1 1-1h58c.552 0 1 .447 1 1s-.448 1-1 1z"/><path d="m34.8 54.531h-10.889c-.552 0-1-.447-1-1v-27.345c0-.553.448-1 1-1h10.889c.552 0 1 .447 1 1v27.346c0 .552-.448.999-1 .999zm-9.889-2h8.889v-25.345h-8.889z"/><path d="m54.133 54.531h-10.888c-.552 0-1-.447-1-1v-43.753c0-.553.448-1 1-1h10.889c.552 0 1 .447 1 1v43.753c-.001.553-.448 1-1.001 1zm-9.888-2h8.889v-41.753h-8.889z"/><path d="m15.467 54.531h-10.889c-.552 0-1-.447-1-1v-15.04c0-.553.448-1 1-1h10.889c.552 0 1 .447 1 1v15.04c0 .553-.448 1-1 1zm-9.889-2h8.889v-13.04h-8.889z"/><path d="m34.841 0h-5.787c-.552 0-1 .447-1 1s.448 1 1 1h3.209l-23.485 21.43c-.408.372-.437 1.004-.065 1.412.197.217.468.326.739.326.24 0 .482-.086.673-.262l23.073-21.053-.627 2.887c-.118.539.225 1.072.765 1.189.072.016.143.022.213.022.46 0 .875-.319.976-.788l1.293-5.951c.136-.623-.339-1.212-.977-1.212z"/></svg>