<svg height="512pt" viewBox="0 -32 512 512" width="512pt" xmlns="http://www.w3.org/2000/svg"><path d="m512 199.886719c0-110.21875-71.6875-199.886719-159.808594-199.886719-35.324218 0-68.476562 10.261719-96.195312 29.710938-27.527344-19.308594-60.777344-29.710938-96.191406-29.710938-88.117188 0-159.804688 89.667969-159.804688 199.886719 0 28.449219 4.957031 56.359375 14.734375 82.960937 8.847656 24.082032 21.453125 46.597656 37.5 67.003906-5.28125 7.074219-10.296875 14.636719-14.957031 22.792969-5.242188 9.175781-6.597656 19.84375-3.816406 30.039063 2.777343 10.195312 9.363281 18.699218 18.535156 23.9375 5.972656 3.417968 12.75 5.226562 19.601562 5.226562 14.179688 0 27.355469-7.644531 34.382813-19.945312 1.546875-2.707032 3.171875-5.324219 4.851562-7.863282 42.832031 28.691407 92.875 43.832032 145.167969 43.832032s102.335938-15.140625 145.167969-43.832032c1.679687 2.539063 3.304687 5.152344 4.851562 7.863282 7.027344 12.300781 20.203125 19.945312 34.382813 19.945312 6.851562 0 13.628906-1.808594 19.59375-5.226562 9.179687-5.238282 15.765625-13.742188 18.542968-23.9375 2.78125-10.195313 1.425782-20.863282-3.816406-30.039063-4.660156-8.15625-9.675781-15.71875-14.957031-22.792969 16.046875-20.40625 28.648437-42.921874 37.5-67.003906 9.777344-26.601562 14.734375-54.511718 14.734375-82.960937zm-419.042969 204.574219c-4.363281 7.640624-12.550781 12.386718-21.359375 12.386718-4.242187 0-8.441406-1.125-12.15625-3.25-5.699218-3.253906-9.785156-8.53125-11.511718-14.859375-1.726563-6.332031-.882813-12.953125 2.371093-18.648437 31.882813-55.792969 82.175781-83.675782 122.597657-106.085938 2.566406-1.421875 5.085937-2.8125 7.558593-4.179687 9.75-5.382813 19.035157-10.515625 27.453125-15.53125 9.777344 14.003906 21.917969 25.71875 35.089844 35.898437-12.730469 8.285156-25.972656 15.59375-38.851562 22.683594-2.503907 1.378906-4.984376 2.742188-7.429688 4.097656-38.691406 21.449219-78.699219 43.628906-103.761719 87.488282zm207.660157-78.445313c2.488281 1.371094 4.957031 2.726563 7.390624 4.078125 10.671876 5.914062 21.449219 11.894531 31.933594 18.371094-25.710937 13.285156-54.496094 20.277344-83.941406 20.277344s-58.230469-6.992188-83.941406-20.277344c10.488281-6.476563 21.261718-12.457032 31.933594-18.371094 2.433593-1.351562 4.902343-2.707031 7.390624-4.078125 14.738282-8.113281 29.933594-16.503906 44.601563-26.445313 14.746094 9.992188 30.183594 18.488282 44.632813 26.445313zm-44.617188 106.855469c-49.066406 0-96.011719-14.128906-136.242188-40.910156 11.097657-13.503907 24.128907-24.519532 38.058594-34.191407 29.648438 16.988281 63.5 25.972657 98.183594 25.972657s68.535156-8.984376 98.183594-25.972657c13.929687 9.671875 26.957031 20.6875 38.058594 34.191407-40.230469 26.78125-87.175782 40.910156-136.242188 40.910156zm208.070312-34.132813c-1.726562 6.328125-5.816406 11.605469-11.519531 14.863281-3.707031 2.125-7.90625 3.246094-12.148437 3.246094-8.808594 0-16.996094-4.746094-21.363282-12.386718-25.058593-43.859376-65.070312-66.039063-103.761718-87.484376-2.445313-1.359374-4.925782-2.722656-7.425782-4.101562-50.847656-27.992188-108.480468-59.71875-108.480468-137.035156 0-19.144532 2.742187-37.550782 8.148437-54.707032 1.246094-3.949218-.945312-8.160156-4.898437-9.40625-3.949219-1.25-8.160156.949219-9.40625 4.898438-5.871094 18.617188-8.84375 38.539062-8.84375 59.214844 0 26.160156 5.945312 47.640625 15.667968 65.683594-8.167968 4.855468-17.273437 9.890624-26.832031 15.167968-2.480469 1.371094-5.007812 2.765625-7.589843 4.195313-17.511719 9.710937-36.8125 20.421875-55.824219 33.894531-2.453125-3.433594-4.792969-6.957031-6.960938-10.53125-2.148437-3.542969-6.761719-4.671875-10.304687-2.519531-3.539063 2.148437-4.667969 6.761719-2.519532 10.300781 2.414063 3.980469 5.015626 7.894531 7.753907 11.710938-12.484375 9.785156-24.652344 20.953124-35.890625 34.042968-30.6875-40.1875-46.871094-87.683594-46.871094-137.898437 0-101.949219 64.960938-184.886719 144.808594-184.886719 41.867187 0 80.367187 15.882812 108.410156 44.730469 28.636719 29.453125 44.410156 70.691406 44.410156 116.109375 0 12.070312-1.429687 23.554687-4.25 34.136718-1.066406 4.003907 1.3125 8.113282 5.3125 9.179688 4 1.0625 8.113282-1.3125 9.179688-5.3125 3.15625-11.84375 4.757812-24.628906 4.757812-38.003906 0-30.960938-6.804687-60.1875-19.621094-85.640625 12.960938-7.253907 28.113282-11.070313 44.1875-11.070313 20.570313 0 40.398438 12.359375 55.832032 34.808594 15.789062 22.964844 24.84375 54.292969 24.84375 85.949219 0 34.160156-10.582032 66.839843-30.65625 94.902343-19.015625-13.476562-38.320313-24.191406-55.839844-33.902343-2.574219-1.425781-5.101562-2.824219-7.578125-4.191407-48.550781-26.804687-75.296875-41.574218-75.296875-80.855468 0-65.773438-42.640625-111.710938-103.691406-111.710938-25.660156 0-49.878906 14.671875-68.191406 41.308594-17.726563 25.78125-27.484376 59.324219-27.484376 94.449219 0 20.820312 3.621094 41.265625 10.765626 60.761719 1.425781 3.890624 5.734374 5.886718 9.621093 4.464843 3.890625-1.425781 5.886719-5.734375 4.460938-9.625-6.535157-17.839843-9.847657-36.546875-9.847657-55.601562 0-31.65625 9.054688-62.984375 24.84375-85.949219 15.433594-22.449219 35.261719-34.808594 55.832032-34.808594 24.816406 0 47.21875 9.125 63.078125 25.6875 16.757812 17.503906 25.617187 42.066406 25.617187 71.023438 0 22.492187 7.507813 40.105468 23.628906 55.4375 14.394532 13.691406 34.261719 24.664062 59.414063 38.550781 2.472656 1.363281 4.992187 2.753906 7.5625 4.179687 40.414063 22.40625 90.710937 50.289063 122.59375 106.082032 3.25 5.695312 4.09375 12.316406 2.367187 18.648437zm-13.941406-60.953125c-11.238281-13.085937-23.398437-24.253906-35.882812-34.039062 22.015625-30.671875 33.625-66.441406 33.625-103.859375 0-35.125-9.761719-68.667969-27.484375-94.449219-18.3125-26.636719-42.53125-41.308594-68.191407-41.308594-18.65625 0-36.324218 4.480469-51.523437 12.988282-6.230469-10.050782-13.472656-19.386719-21.695313-27.84375-3.375-3.46875-6.894531-6.761719-10.53125-9.886719 24.386719-15.980469 53.152344-24.386719 83.75-24.386719 79.84375 0 144.804688 82.9375 144.804688 184.886719 0 50.214843-16.183594 97.710937-46.871094 137.898437zm0 0"/><path d="m281.957031 149.757812c1.484375 1.667969 3.539063 2.519532 5.609375 2.519532 1.773438 0 3.550782-.625 4.980469-1.894532 3.09375-2.753906 3.375-7.492187.621094-10.589843l-4.007813-4.507813c-2.75-3.097656-7.492187-3.375-10.585937-.625-3.097657 2.753906-3.375 7.492188-.625 10.589844zm0 0"/><path d="m348.644531 34.714844-9.015625 4.007812c-3.785156 1.683594-5.492187 6.113282-3.808594 9.898438 1.242188 2.796875 3.984376 4.457031 6.859376 4.457031 1.015624 0 2.050781-.207031 3.039062-.648437l9.019531-4.007813c3.785157-1.683594 5.488281-6.113281 3.808594-9.898437-1.683594-3.785157-6.113281-5.492188-9.902344-3.808594zm0 0"/><path d="m448.09375 123.472656c1.480469 1.8125 3.636719 2.75 5.808594 2.75 1.667968 0 3.351562-.554687 4.746094-1.695312 3.203124-2.621094 3.675781-7.347656 1.054687-10.554688l-4.511719-5.507812c-2.621094-3.207032-7.347656-3.679688-10.550781-1.058594-3.207031 2.625-3.679687 7.351562-1.054687 10.554688zm0 0"/><path d="m147.121094 52.410156c1.125 0 2.269531-.253906 3.347656-.792968l8.015625-4.007813c3.707031-1.851563 5.207031-6.355469 3.355469-10.0625-1.851563-3.707031-6.355469-5.207031-10.0625-3.355469l-8.015625 4.007813c-3.707031 1.855469-5.207031 6.359375-3.355469 10.0625 1.3125 2.628906 3.960938 4.148437 6.714844 4.148437zm0 0"/><path d="m43.476562 198.96875c-1.984374-3.636719-6.539062-4.980469-10.175781-2.996094s-4.976562 6.539063-2.992187 10.175782l4.007812 7.347656c1.363282 2.496094 3.933594 3.910156 6.589844 3.910156 1.214844 0 2.445312-.292969 3.585938-.914062 3.636718-1.984376 4.976562-6.539063 2.992187-10.175782zm0 0"/><path d="m61.019531 281.9375c-4.132812-.414062-7.796875 2.59375-8.210937 6.714844l-.667969 6.683594c-.410156 4.121093 2.597656 7.796874 6.71875 8.207031.253906.023437.503906.039062.753906.039062 3.808594 0 7.066407-2.886719 7.453125-6.753906l.667969-6.679687c.414063-4.125-2.59375-7.800782-6.714844-8.210938zm0 0"/><path d="m159.8125 314.601562c1.609375 0 3.230469-.515624 4.597656-1.578124l9.019532-7.015626c3.269531-2.542968 3.859374-7.253906 1.3125-10.523437-2.542969-3.269531-7.253907-3.859375-10.523438-1.316406l-9.015625 7.015625c-3.269531 2.542968-3.859375 7.253906-1.316406 10.523437 1.476562 1.902344 3.691406 2.894531 5.925781 2.894531zm0 0"/><path d="m308.988281 269.796875c-.679687-4.085937-4.542969-6.847656-8.628906-6.164063-4.085937.679688-6.847656 4.542969-6.164063 8.628907l1.5 9.019531c.613282 3.667969 3.789063 6.269531 7.390626 6.269531.410156 0 .824218-.035156 1.242187-.105469 4.085937-.679687 6.847656-4.542968 6.164063-8.628906zm0 0"/><path d="m408.714844 344.691406-7.015625 6.515625c-3.035157 2.816407-3.210938 7.5625-.390625 10.597657 1.476562 1.59375 3.484375 2.398437 5.496094 2.398437 1.828124 0 3.660156-.664063 5.101562-2.003906l7.015625-6.515625c3.035156-2.816406 3.210937-7.5625.390625-10.597656-2.816406-3.035157-7.5625-3.210938-10.597656-.394532zm0 0"/><path d="m269.820312 399.996094c-2.929687-2.929688-7.679687-2.929688-10.605468 0-2.929688 2.929687-2.929688 7.679687 0 10.605468l6.011718 6.011719c1.464844 1.464844 3.382813 2.199219 5.300782 2.199219 1.921875 0 3.839844-.734375 5.304687-2.199219 2.929688-2.925781 2.929688-7.675781 0-10.605469zm0 0"/><path d="m467.089844 241.453125h5.34375c4.144531 0 7.5-3.355469 7.5-7.5 0-4.140625-3.355469-7.5-7.5-7.5h-5.34375c-4.140625 0-7.5 3.359375-7.5 7.5 0 4.144531 3.359375 7.5 7.5 7.5zm0 0"/><path d="m65.601562 99.714844 2.671876 1.335937c1.078124.539063 2.222656.792969 3.347656.792969 2.753906 0 5.402344-1.523438 6.714844-4.148438 1.855468-3.707031.351562-8.210937-3.351563-10.0625l-2.671875-1.335937c-3.703125-1.851563-8.210938-.351563-10.0625 3.355469-1.855469 3.703125-.351562 8.207031 3.351562 10.0625zm0 0"/><path d="m229.675781 152.640625c-2.296875-3.449219-6.953125-4.378906-10.402343-2.082031-3.445313 2.296875-4.375 6.953125-2.078126 10.402344l2.003907 3.003906c1.445312 2.167968 3.824219 3.339844 6.246093 3.339844 1.429688 0 2.875-.40625 4.152344-1.257813 3.449219-2.296875 4.378906-6.953125 2.082032-10.402344zm0 0"/></svg>