<svg id="Layer_1_1_" enable-background="new 0 0 64 64" height="512" viewBox="0 0 64 64" width="512" xmlns="http://www.w3.org/2000/svg"><path d="m46 46v-7.382l1.447-.724c.339-.169.553-.515.553-.894v-5c0-2-1.188-3.717-2.889-4.516.547-.685.889-1.541.889-2.484 0-2.206-1.794-4-4-4s-4 1.794-4 4c0 .943.342 1.799.889 2.484-.752.353-1.398.887-1.889 1.547-.492-.66-1.137-1.194-1.889-1.547.547-.685.889-1.541.889-2.484 0-2.206-1.794-4-4-4s-4 1.794-4 4c0 .943.342 1.799.889 2.484-.752.353-1.398.887-1.889 1.547-.492-.66-1.137-1.194-1.889-1.547.547-.685.889-1.541.889-2.484 0-2.206-1.794-4-4-4s-4 1.794-4 4c0 .943.342 1.799.889 2.484-1.701.799-2.889 2.516-2.889 4.516v5c0 .379.214.725.553.895l1.447.723v7.382c0 .553.448 1 1 1h6c.552 0 1-.447 1-1v-7.382l1-.5 1 .5v7.382c0 .553.448 1 1 1h6c.552 0 1-.447 1-1v-7.382l1-.5 1 .5v7.382c0 .553.448 1 1 1h6c.552 0 1-.447 1-1zm-4-23c1.103 0 2 .897 2 2s-.897 2-2 2-2-.897-2-2 .897-2 2-2zm-10 0c1.103 0 2 .897 2 2s-.897 2-2 2-2-.897-2-2 .897-2 2-2zm-10 0c1.103 0 2 .897 2 2s-.897 2-2 2-2-.897-2-2 .897-2 2-2zm2.553 14.105c-.339.17-.553.516-.553.895v7h-4v-7c0-.379-.214-.725-.553-.895l-1.447-.723v-4.382c0-1.654 1.346-3 3-3h2c1.654 0 3 1.346 3 3v4.382zm10 0c-.339.17-.553.516-.553.895v7h-4v-7c0-.379-.214-.725-.553-.895l-1.447-.723v-4.382c0-1.654 1.346-3 3-3h2c1.654 0 3 1.346 3 3v4.382zm9.447.895v7h-4v-7c0-.379-.214-.725-.553-.895l-1.447-.723v-4.382c0-1.654 1.346-3 3-3h2c1.654 0 3 1.346 3 3v4.382l-1.447.724c-.339.169-.553.515-.553.894z"/><path d="m52 2c-5.514 0-10 4.486-10 10s4.486 10 10 10 10-4.486 10-10-4.486-10-10-10zm0 18c-4.411 0-8-3.589-8-8s3.589-8 8-8 8 3.589 8 8-3.589 8-8 8z"/><path d="m52.17 8.949-.17.161-.169-.161c-1.326-1.258-3.483-1.258-4.808 0-.66.625-1.023 1.46-1.023 2.353 0 .892.363 1.729 1.022 2.354l4.29 4.069c.193.183.44.275.688.275s.495-.092.688-.274l4.29-4.069c.659-.627 1.022-1.464 1.022-2.355 0-.893-.363-1.728-1.022-2.353-1.326-1.258-3.483-1.258-4.808 0zm3.431 3.256-3.601 3.417-3.601-3.417c-.257-.244-.399-.564-.399-.903 0-.338.142-.657.399-.901.283-.269.655-.403 1.027-.403s.744.135 1.028.403l.858.813c.386.365.99.365 1.376 0l.858-.813c.566-.539 1.488-.537 2.055 0 .257.244.399.563.399.901 0 .339-.142.659-.399.903z"/><path d="m54 54c.564 0 1.058-.361 1.226-.899.77-2.453 1.421-3.105 3.875-3.874.537-.169.899-.662.899-1.227s-.362-1.058-.899-1.227c-2.453-.769-3.104-1.421-3.874-3.874-.169-.538-.663-.899-1.227-.899s-1.058.361-1.226.899c-.77 2.453-1.421 3.105-3.875 3.874-.538.169-.899.663-.899 1.227s.361 1.058.899 1.227c2.453.769 3.105 1.421 3.875 3.874.168.538.662.899 1.226.899zm-2.737-6c1.291-.633 2.104-1.446 2.737-2.737.633 1.291 1.447 2.104 2.737 2.737-1.291.633-2.104 1.446-2.737 2.737-.633-1.291-1.447-2.104-2.737-2.737z"/><path d="m13 19v-3h3v-2h-3v-3h-2v3h-3v2h3v3z"/><path d="m6 12h2v-4h4v-2h-4v-4h-2v4h-4v2h4z"/><path d="m32.03 58.001.003 2c.698-.001 1.4-.027 2.085-.079l-.149-1.994c-.637.048-1.289.072-1.939.073z"/><path d="m27.864 59.696c.688.102 1.387.179 2.075.229l.145-1.994c-.639-.047-1.287-.118-1.927-.213z"/><path d="m35.905 57.708.298 1.979c.686-.104 1.376-.234 2.051-.389l-.444-1.949c-.628.142-1.268.263-1.905.359z"/><path d="m23.782 58.774c.663.203 1.343.385 2.02.537l.44-1.951c-.628-.142-1.258-.309-1.872-.498z"/><path d="m39.689 56.845.592 1.91c.663-.205 1.326-.438 1.97-.691l-.732-1.861c-.599.235-1.214.451-1.83.642z"/><path d="m19.883 57.249c.626.301 1.271.581 1.917.834l.729-1.861c-.599-.235-1.198-.496-1.78-.775z"/><path d="m43.3 55.423.87 1.801c.627-.303 1.248-.632 1.845-.979l-1.004-1.73c-.553.321-1.129.627-1.711.908z"/><path d="m16.256 55.158c.573.391 1.168.765 1.771 1.111l.998-1.732c-.558-.322-1.111-.669-1.642-1.031z"/><path d="m46.659 53.476 1.127 1.652c.571-.39 1.136-.808 1.68-1.242l-1.249-1.562c-.505.403-1.029.79-1.558 1.152z"/><path d="m12.984 52.552c.505.468 1.038.926 1.583 1.361l1.247-1.564c-.507-.404-1.002-.83-1.472-1.264z"/><path d="m10.135 49.493c.433.539.892 1.07 1.365 1.579l1.464-1.363c-.439-.472-.866-.966-1.268-1.467z"/><path d="m9.5 45.039-1.729 1.004c.347.598.722 1.191 1.115 1.765l1.649-1.131c-.364-.532-.713-1.084-1.035-1.638z"/><path d="m7.809 41.548-1.86.734c.253.643.536 1.285.839 1.911l1.8-.873c-.282-.58-.544-1.176-.779-1.772z"/><path d="m58.075 42.222c.253-.646.485-1.311.689-1.973l-1.911-.59c-.19.615-.405 1.231-.641 1.832z"/><path d="m6.659 37.838-1.949.447c.155.676.338 1.354.543 2.017l1.91-.592c-.191-.615-.36-1.245-.504-1.872z"/><path d="m57.356 37.778 1.95.443c.153-.673.283-1.363.386-2.053l-1.979-.295c-.095.641-.215 1.281-.357 1.905z"/><path d="m6.075 34-1.994.152c.052.689.132 1.387.235 2.073l1.978-.299c-.096-.637-.17-1.285-.219-1.926z"/><path d="m60 31.986v-.095h-2v.109c0 .646-.024 1.297-.071 1.938l1.994.146c.051-.688.077-1.39.077-2.098z"/><path d="m6 32c0-.629.022-1.264.067-1.886l-1.995-.143c-.048.67-.072 1.352-.072 2.057l.487.013z"/><path d="m57.698 28.021c.097.634.172 1.282.222 1.927l1.994-.156c-.054-.693-.135-1.392-.24-2.073z"/><path d="m4.3 27.886 1.979.293c.094-.636.213-1.277.354-1.907l-1.951-.438c-.153.678-.281 1.368-.382 2.052z"/><path d="m56.822 24.239c.191.612.362 1.242.508 1.871l1.948-.453c-.157-.677-.341-1.354-.547-2.014z"/><path d="m7.768 22.557-1.863-.727c-.252.646-.483 1.311-.687 1.976l1.913.584c.188-.617.403-1.234.637-1.833z"/><path d="m18.943 9.511c.553-.322 1.128-.629 1.709-.911l-.874-1.799c-.626.305-1.246.635-1.842.981z"/><path d="m22.432 7.816c.599-.236 1.214-.453 1.828-.645l-.594-1.91c-.662.206-1.325.44-1.97.695z"/><path d="m39.581 7.123.582-1.914c-.667-.202-1.346-.382-2.019-.532l-.438 1.951c.626.141 1.256.307 1.875.495z"/><path d="m26.14 6.663c.623-.143 1.264-.266 1.905-.364l-.304-1.977c-.69.105-1.379.237-2.05.392z"/><path d="m35.791 6.274.29-1.979c-.681-.1-1.379-.176-2.076-.225l-.142 1.994c.648.047 1.296.118 1.928.21z"/><path d="m29.979 6.077c.646-.05 1.298-.075 1.938-.077l-.006-2c-.689.002-1.391.03-2.085.083z"/><path d="m61.159 56.365c-1.603-.503-2.001-.901-2.505-2.506-.158-.502-.617-.839-1.144-.839s-.986.337-1.144.84c-.503 1.604-.901 2.003-2.504 2.505-.503.157-.841.617-.841 1.146 0 .527.338.987.839 1.144 1.605.504 2.003.901 2.507 2.507.157.501.617.838 1.143.838s.986-.337 1.144-.84c.503-1.604.901-2.002 2.504-2.505.504-.157.842-.617.842-1.144 0-.529-.338-.989-.841-1.146zm-3.649 2.437c-.339-.539-.752-.952-1.292-1.291.54-.34.953-.753 1.292-1.292.339.539.752.952 1.292 1.291-.54.34-.952.753-1.292 1.292z"/></svg>