<svg height="511pt" viewBox="0 -34 511.9903 511" width="511pt" xmlns="http://www.w3.org/2000/svg"><path d="m78.496094 406.347656c12.054687 23.316406 36.132812 37.9375 62.378906 37.878906h81.324219c51.816406-.058593 93.804687-42.050781 93.867187-93.863281v-42.667969c-.054687-.578124-.167968-1.152343-.34375-1.707031v-58.027343c-.003906-12.617188-6.972656-24.203126-18.117187-30.125-11.140625-5.921876-24.644531-5.210938-35.105469 1.847656-3.441406-10.003906-11.347656-17.835938-21.382812-21.179688-10.039063-3.34375-21.058594-1.824218-29.816407 4.113282-3.257812-9.644532-10.699219-17.300782-20.25-20.832032-9.546875-3.527344-20.179687-2.554687-28.925781 2.65625v-22.667968c21.175781-12.019532 34.222656-34.527344 34.132812-58.878907 0-37.703125-30.566406-68.265625-68.265624-68.265625-37.703126 0-68.269532 30.5625-68.269532 68.265625-.089844 24.351563 12.957032 46.859375 34.132813 58.878907v136.832031l-34.464844-26.597657c-14.992187-11.515624-36.261719-9.84375-49.269531 3.878907-13.003906 13.71875-13.539063 35.046875-1.238282 49.402343zm-1.707032-303.453125c0-28.277343 22.925782-51.199219 51.203126-51.199219 28.273437 0 51.199218 22.921876 51.199218 51.199219.082032 14.601563-6.140625 28.527344-17.066406 38.210938v-29.675781c0-18.851563-15.285156-34.132813-34.132812-34.132813-18.851563 0-34.136719 15.28125-34.136719 34.132813v29.675781c-10.925781-9.683594-17.148438-23.609375-17.066407-38.210938zm-53.953124 184.320313c7.046874-7.042969 18.222656-7.773438 26.128906-1.707032l44.890625 34.65625v13.132813c0 4.710937 3.820312 8.53125 8.535156 8.53125 4.710937 0 8.53125-3.820313 8.53125-8.53125v-221.867187c0-9.425782 7.644531-17.066407 17.070313-17.066407 9.421874 0 17.066406 7.640625 17.066406 17.066407v145.066406c0 4.710937 3.820312 8.53125 8.53125 8.53125 4.714844 0 8.535156-3.820313 8.535156-8.53125v-42.667969c0-9.425781 7.640625-17.066406 17.066406-17.066406 9.425782 0 17.066406 7.640625 17.066406 17.066406v42.667969c0 4.710937 3.820313 8.53125 8.53125 8.53125 4.714844 0 8.535157-3.820313 8.535157-8.53125v-25.601563c0-9.425781 7.640625-17.066406 17.066406-17.066406s17.066406 7.640625 17.066406 17.066406v25.601563c0 4.710937 3.820313 8.53125 8.535157 8.53125 4.710937 0 8.53125-3.820313 8.53125-8.53125v-8.535156c0-9.425782 7.640624-17.066407 17.066406-17.066407 9.425781 0 17.066406 7.640625 17.066406 17.066407v93.867187c.050781.578125.167969 1.152344.34375 1.707031v6.828125c-.054688 42.390625-34.40625 76.746094-76.800781 76.796875h-81.324219c-20.164062.050782-38.605469-11.351562-47.574219-29.414062-.316406-.613282-.710937-1.1875-1.167969-1.707032l-70.304687-81.859374c-6.710937-7.886719-6.273437-19.597657 1.007813-26.964844zm0 0"/><path d="m230.390625 94.363281c0 4.710938-3.820313 8.53125-8.535156 8.53125-4.710938 0-8.53125-3.820312-8.53125-8.53125 0-4.714843 3.820312-8.535156 8.53125-8.535156 4.714843 0 8.535156 3.820313 8.535156 8.535156zm0 0"/><path d="m264.523438 94.363281c0 4.710938-3.820313 8.53125-8.53125 8.53125-4.714844 0-8.535157-3.820312-8.535157-8.53125 0-4.714843 3.820313-8.535156 8.535157-8.535156 4.710937 0 8.53125 3.820313 8.53125 8.535156zm0 0"/><path d="m298.65625 94.363281c0 4.710938-3.820312 8.53125-8.53125 8.53125-4.714844 0-8.535156-3.820312-8.535156-8.53125 0-4.714843 3.820312-8.535156 8.535156-8.535156 4.710938 0 8.53125 3.820313 8.53125 8.535156zm0 0"/><path d="m418.125.496094c-51.84375 0-93.867188 42.023437-93.867188 93.867187 0 51.839844 42.023438 93.863281 93.867188 93.863281 51.839844 0 93.867188-42.023437 93.867188-93.863281-.0625-51.816406-42.054688-93.808593-93.867188-93.867187zm0 170.664062c-42.417969 0-76.800781-34.382812-76.800781-76.796875 0-42.417969 34.382812-76.800781 76.800781-76.800781 42.414062 0 76.796875 34.382812 76.796875 76.800781-.050781 42.390625-34.402344 76.746094-76.796875 76.796875zm0 0"/><path d="m454.289062 54.699219-52.863281 62.097656-19.9375-19.933594c-3.347656-3.234375-8.667969-3.1875-11.960937.101563-3.292969 3.292968-3.335938 8.613281-.101563 11.964844l20.007813 20.007812c6.320312 6.273438 16.390625 6.664062 23.175781.898438.34375-.292969.660156-.613282.949219-.957032l53.757812-63.144531c3.066406-3.59375 2.636719-8.988281-.953125-12.050781-3.59375-3.0625-8.988281-2.636719-12.050781.957031zm0 0"/></svg>