<svg xmlns="http://www.w3.org/2000/svg" viewBox="0 0 480 480"><path d="M207.808 400a118.792 118.792 0 0 0-58.704-96.488l-55.264-61.4A29.88 29.88 0 0 0 64 232.944V128c0-17.673-14.327-32-32-32S0 110.327 0 128v151.416A72.228 72.228 0 0 0 9.064 314.4L80 442.072V472a8 8 0 0 0 8 8h112a8 8 0 0 0 8-8v-72h-.192zM192 464H96v-24a8.001 8.001 0 0 0-1.008-3.888L23.048 306.616a56.215 56.215 0 0 1-7.048-27.2V128c0-8.837 7.163-16 16-16s16 7.163 16 16v114.824c-10.01 11.633-9.78 28.902.536 40.264L114.08 355.2l11.84-10.768-65.544-72.104c-5.224-5.746-5.013-14.583.48-20.072 5.674-5.679 14.878-5.683 20.557-.008.185.185.364.374.539.568l56.104 62.336a11.3 11.3 0 0 0 2.4 1.84A102.503 102.503 0 0 1 192 405.8V464zM448 96c-17.673 0-32 14.327-32 32v104.944a30.99 30.99 0 0 0-7.936-.944 30.265 30.265 0 0 0-21.904 10.104l-55.248 61.384A118.537 118.537 0 0 0 272.192 400H272v72a8 8 0 0 0 8 8h112a8 8 0 0 0 8-8v-29.944l70.056-126.976A72.055 72.055 0 0 0 480 278.576V128c0-17.673-14.327-32-32-32zm16 182.576a56.27 56.27 0 0 1-7.84 28.584l-71.2 128.976A7.994 7.994 0 0 0 384 440v24h-96v-58.2a102.678 102.678 0 0 1 51.952-89 7.995 7.995 0 0 0 1.992-1.6l56.104-62.4c5.388-5.965 14.591-6.432 20.556-1.044 5.965 5.388 6.432 14.591 1.044 20.556l-65.568 72.104 11.84 10.784 65.544-72.096c10.326-11.365 10.555-28.645.536-40.28V128c0-8.837 7.163-16 16-16s16 7.163 16 16v150.576z"/><path d="M336 200h-16a87.92 87.92 0 0 0-72 37.6V184h8c48.577-.057 87.943-39.423 88-88a8 8 0 0 0-8-8h-16a87.92 87.92 0 0 0-72 37.6V72h8c35.33-.04 63.96-28.67 64-64a8 8 0 0 0-8-8h-16a63.999 63.999 0 0 0-56 33.088A63.999 63.999 0 0 0 184 0h-16a8 8 0 0 0-8 8c.04 35.33 28.67 63.96 64 64h8v53.6A87.92 87.92 0 0 0 160 88h-16a8 8 0 0 0-8 8c.057 48.577 39.423 87.943 88 88h8v53.6a87.92 87.92 0 0 0-72-37.6h-16a8 8 0 0 0-8 8c.057 48.577 39.423 87.943 88 88h8v64h16v-64h8c48.577-.057 87.943-39.423 88-88a8 8 0 0 0-8-8zm-16-96h7.56c-4.12 36.421-34.907 63.956-71.56 64h-7.56c4.12-36.421 34.907-63.956 71.56-64zm-24-88h7.336C299.401 39.08 279.413 55.971 256 56h-7.336c3.935-23.08 23.923-39.971 47.336-40zm-72 40c-23.413-.029-43.401-16.92-47.336-40H184c23.413.029 43.401 16.92 47.336 40H224zm0 112c-36.653-.044-67.44-27.579-71.56-64H160c36.653.044 67.44 27.579 71.56 64H224zm0 112c-36.653-.044-67.44-27.579-71.56-64H160c36.653.044 67.44 27.579 71.56 64H224zm32 0h-7.56c4.12-36.421 34.907-63.956 71.56-64h7.56c-4.12 36.421-34.907 63.956-71.56 64z"/></svg>