<svg xmlns="http://www.w3.org/2000/svg" viewBox="0 0 436.842 436.842"><path d="M343.746 154.841c-12.696 0-24.804 2.558-35.842 7.18L281.51 110.81h36.89c4.002 0 7.258 3.256 7.258 7.258s-3.256 7.258-7.258 7.258h-7.871c-4.143 0-7.5 3.358-7.5 7.5s3.357 7.5 7.5 7.5h7.871c12.273 0 22.258-9.985 22.258-22.258S330.674 95.81 318.4 95.81h-49.192a7.502 7.502 0 0 0-6.667 10.936l13.125 25.467H167.423l-10.92-21.403h17.269c4.143 0 7.5-3.358 7.5-7.5s-3.357-7.5-7.5-7.5h-49.193c-4.143 0-7.5 3.358-7.5 7.5s3.357 7.5 7.5 7.5h15.084l14.576 28.568-17.132 26.543c-13.113-7.065-28.101-11.08-44.011-11.08C41.763 154.841 0 196.603 0 247.936s41.763 93.096 93.096 93.096c48.808 0 88.961-37.757 92.793-85.596h22.007l-8.549 27.818h-4.922c-4.143 0-7.5 3.358-7.5 7.5s3.357 7.5 7.5 7.5h27c4.143 0 7.5-3.358 7.5-7.5s-3.357-7.5-7.5-7.5h-6.386l9.869-32.114 62.406-96.327 7.269 14.103c-26.357 16.458-43.933 45.723-43.933 79.02 0 51.333 41.763 93.096 93.097 93.096 51.333 0 93.096-41.763 93.096-93.096-.001-51.333-41.764-93.095-93.097-93.095zm-181.625-.015l43.678 85.61h-19.911c-2.162-26.985-15.882-50.758-36.193-66.359l12.426-19.251zm8.703 85.61h-63.96l34.661-53.699c16.209 12.855 27.22 31.987 29.299 53.699zm-77.728 85.596C50.033 326.032 15 290.999 15 247.936c0-43.062 35.033-78.096 78.096-78.096a77.594 77.594 0 0 1 35.837 8.743l-42.139 65.285a7.5 7.5 0 0 0 6.302 11.567h77.728c-3.788 39.557-37.196 70.597-77.728 70.597zm125.723-93.083l-43.743-85.737h99.289l-55.546 85.737zm124.927 93.083c-43.063 0-78.097-35.034-78.097-78.096 0-27.498 14.298-51.704 35.838-65.623l35.592 69.059a7.5 7.5 0 0 0 10.103 3.23 7.499 7.499 0 0 0 3.231-10.103L314.81 175.42a77.661 77.661 0 0 1 28.936-5.581c43.063 0 78.096 35.034 78.096 78.096 0 43.064-35.033 78.097-78.096 78.097z"/></svg>