<svg xmlns="http://www.w3.org/2000/svg" viewBox="0 0 64 64"><g data-name="20-Education"><path d="M36 47h2v2h-2z"/><path d="M38 52H16a7 7 0 0 1 0-14h42a1 1 0 0 1 1 1v3a1 1 0 0 1-1 1H17a2 2 0 0 0 0 4h17v2H17a4 4 0 0 1 0-8h40v-1H16a5 5 0 0 0 0 10h22zM58 52h-8v-2h7v-1h-7v-2h8a1 1 0 0 1 1 1v3a1 1 0 0 1-1 1z"/><path d="M55 42h2v6h-2zM54 40H12a7 7 0 0 1 0-14v2a5 5 0 0 0 0 10h41v-1H13a4 4 0 0 1 0-8h9v2h-9a2 2 0 0 0 0 4h41a1 1 0 0 1 1 1v3a1 1 0 0 1-1 1zM54 31H42v-2h11v-1h-1v-2h2a1 1 0 0 1 1 1v3a1 1 0 0 1-1 1z"/><path d="M51 30h2v6h-2zM54 64H12a7 7 0 0 1 0-14h26v2H12a5 5 0 0 0 0 10h41v-1H13a4 4 0 0 1 0-8h40v-1h-3v-2h4a1 1 0 0 1 1 1v3a1 1 0 0 1-1 1H13a2 2 0 0 0 0 4h41a1 1 0 0 1 1 1v3a1 1 0 0 1-1 1z"/><path d="M51 54h2v6h-2zM32 22a1.014 1.014 0 0 1-.326-.055l-29-10a1 1 0 0 1 0-1.89l29-10a1 1 0 0 1 .652 0l29 10a1 1 0 0 1 0 1.89l-29 10A1.014 1.014 0 0 1 32 22zM6.067 11L32 19.942 57.933 11 32 2.058z"/><path d="M32 32c-15.094 0-18.691-5.229-18.837-5.452A1.007 1.007 0 0 1 13 26V15h2v10.643C15.808 26.5 19.837 30 32 30c12.135 0 16.173-3.479 17-4.36V15h2v11a1.007 1.007 0 0 1-.163.548C50.691 26.771 47.094 32 32 32zM59 11h2v8h-2z"/><path d="M61.255 30h-2.51a2.751 2.751 0 0 1-2.2-1.066 2.6 2.6 0 0 1-.465-2.258l.03-.1 2.947-7.929a1 1 0 0 1 1.875 0l2.948 7.929c.011.031.021.064.03.1a2.6 2.6 0 0 1-.465 2.258A2.751 2.751 0 0 1 61.255 30zm-3.243-2.781a.608.608 0 0 0 .121.493.763.763 0 0 0 .612.288h2.51a.763.763 0 0 0 .612-.288.608.608 0 0 0 .121-.493L60 21.87zM48 52a1 1 0 0 1-.6-.2L44 49.25l-3.4 2.55A1 1 0 0 1 39 51v-6a1 1 0 0 1 1-1h8a1 1 0 0 1 1 1v6a1 1 0 0 1-1 1zm-4-5a1 1 0 0 1 .6.2L47 49v-3h-6v3l2.4-1.8a1 1 0 0 1 .6-.2z"/></g></svg>