<svg xmlns="http://www.w3.org/2000/svg" viewBox="0 -57 575.958 575"><path d="M278.398 336.484c-21.207 0-38.398 17.192-38.398 38.399s17.191 38.398 38.398 38.398c21.207 0 38.403-17.191 38.403-38.398 0-21.207-17.196-38.399-38.403-38.399zm0 57.598c-10.601 0-19.199-8.598-19.199-19.2 0-10.605 8.598-19.198 19.2-19.198 10.605 0 19.203 8.593 19.203 19.199 0 10.605-8.598 19.199-19.204 19.199zm0 0"/><path d="M528 .484H378.875a67.392 67.392 0 0 0-58.234 33.664L222.184 206.73l-10.985 18.297V10.082c0-5.3-4.297-9.598-9.597-9.598h-38.403a9.597 9.597 0 0 0-9.597 9.598v355.203h-144c-5.305 0-9.602 4.297-9.602 9.598v38.398a9.6 9.6 0 0 0 9.602 9.602h143.996v28.8c0 5.301 4.3 9.598 9.601 9.598h38.399c5.304 0 9.601-4.297 9.601-9.597V428.91c29.547 37.098 83.57 43.219 120.668 13.672a85.775 85.775 0 0 0 18.059-19.7h118.762c15.835 27.516 50.98 36.99 78.496 21.153a57.48 57.48 0 0 0 28.812-49.953 56.59 56.59 0 0 0-1.027-10.168c.64-2.969.984-5.992 1.027-9.031V48.484c-.027-26.496-21.5-47.968-47.996-48zm-374.402 403.2H19.199V384.48h134.403v19.204zm38.402-144v182.398h-19.2V19.684H192zm19.2 2.656l21.12-35.184 62.977 62.989c-1.547-.31-3.14-.48-4.715-.704-1.16-.164-2.305-.402-3.484-.52a83.613 83.613 0 0 0-18.145.11c-1.027.106-2.015.317-3.023.461-2.075.305-4.137.621-6.164 1.074-1.164.258-2.293.586-3.438.883-1.824.488-3.637.961-5.414 1.602a75.49 75.49 0 0 0-3.445 1.258 85.722 85.722 0 0 0-5.051 2.132 100.72 100.72 0 0 0-3.273 1.575 85.59 85.59 0 0 0-4.801 2.695c-.957.598-2.004 1.184-2.977 1.816-1.64 1.067-3.215 2.227-4.8 3.407-.813.613-1.66 1.191-2.465 1.843a90.287 90.287 0 0 0-5.57 4.965c-.345.336-.727.633-1.075.961a87.442 87.442 0 0 0-5.96 6.594c-.087.113-.192.203-.278.316zm125.335 146.144c-18.598 32.059-59.668 42.97-91.73 24.371-32.059-18.601-42.97-59.671-24.371-91.73 18.601-32.063 59.671-42.973 91.73-24.371a67.095 67.095 0 0 1 33.434 58.129 67.406 67.406 0 0 1-9.063 33.601zm181.863 24a38.406 38.406 0 0 1-35.156-23.039A37.904 37.904 0 0 1 480 394.082c0-21.207 17.191-38.398 38.398-38.398 21.207 0 38.399 17.191 38.399 38.398 0 21.211-17.188 38.402-38.399 38.402zm38.403-81.187c-.375-.336-.817-.578-1.2-.895a56.4 56.4 0 0 0-4.562-3.359c-1.191-.828-2.332-1.691-3.582-2.418a58.538 58.538 0 0 0-5.309-2.66c-1.246-.578-2.437-1.219-3.722-1.711a57.963 57.963 0 0 0-6.406-1.852c-1.122-.277-2.196-.683-3.348-.894-3.387-.656-6.824-1-10.274-1.028-31.796.036-57.566 25.805-57.597 57.602.023 2.895.27 5.781.738 8.64.047.305 0 .622.078.958H359.81c.671-1.918 1.226-3.84 1.765-5.711.094-.324.211-.645.297-.961a84.363 84.363 0 0 0 1.922-9.742c.113-.77.21-1.547.297-2.325.437-3.336.676-6.695.71-10.058a88.155 88.155 0 0 0-.538-9.418c-.106-.961-.297-1.922-.434-2.883-.305-2.121-.633-4.23-1.082-6.297-.07-.297-.086-.613-.156-.902.723.183 1.465.281 2.207.3h57.601c5.301 0 9.602-4.3 9.602-9.601v-76.8h124.797v82.015zm-144-101.215c-5.305 0-9.602-4.297-9.602-9.598 0-5.304 4.301-9.601 9.602-9.601h76.8c5.301 0 9.598-4.297 9.598-9.598v-86.402c0-5.301 4.301-9.598 9.602-9.598 5.3 0 9.597 4.297 9.597 9.598v86.402c0 15.906-12.894 28.797-28.8 28.797zm144 0H527.75a47.504 47.504 0 0 0 9.848-28.8v-86.4c0-15.905-12.891-28.8-28.797-28.8S480 118.977 480 134.882v76.802h-67.2c-15.905 0-28.8 12.894-28.8 28.8 0 15.907 12.895 28.797 28.8 28.797v67.203h-44.027l-86.746-86.746 68.996-76.656 16.59 16.59 13.575-13.574-48-48-13.575 13.574 17.809 17.816-68.988 76.657-26.063-26.063 94.926-166.398a48.12 48.12 0 0 1 41.578-24H528c15.906 0 28.8 12.894 28.8 28.8zm0 0"/><path d="M508.8 384.484H528v19.2h-19.2zm0 0"/></svg>