<svg xmlns="http://www.w3.org/2000/svg" viewBox="0 0 512 512"><path d="M512 59.733v-51.2c0-.109-.058-.2-.062-.308a8.425 8.425 0 0 0-.588-2.959l-.013-.022c-.032-.078-.093-.135-.127-.211a8.388 8.388 0 0 0-1.524-2.262 8.41 8.41 0 0 0-.651-.587 8.362 8.362 0 0 0-1.776-1.197 8.154 8.154 0 0 0-.813-.385 8.412 8.412 0 0 0-2.98-.602H230.4a8.537 8.537 0 0 0-6.033 2.5L2.503 224.364l-.013.016a8.444 8.444 0 0 0-1.643 2.437 11.025 11.025 0 0 0-.741 3.056c-.012.184-.106.34-.106.527v51.2a8.533 8.533 0 0 0 8.533 8.533h64c21.198.023 38.377 17.202 38.4 38.4v9.267L2.503 446.231A8.657 8.657 0 0 0 0 452.267v51.2A8.533 8.533 0 0 0 8.533 512H281.6a8.485 8.485 0 0 0 3.347-.688c.115-.049.197-.155.31-.209a8.527 8.527 0 0 0 2.44-1.696l.082-.057L458.3 330.3l51.2-51.2c1.6-1.6 2.5-3.77 2.5-6.033v-51.2c0-.109-.058-.2-.062-.308a8.425 8.425 0 0 0-.588-2.959l-.013-.022c-.032-.078-.093-.135-.127-.211a8.84 8.84 0 0 0-3.95-4.046 8.162 8.162 0 0 0-.813-.386 8.412 8.412 0 0 0-2.98-.602h-64a8.183 8.183 0 0 0-2.133.431 8.266 8.266 0 0 0-2.133-.431c-19.906-.061-36.451-15.352-38.076-35.192l112.37-112.369A8.647 8.647 0 0 0 512 59.733zM233.933 17.067h248.933l-204.8 204.8H29.133l204.8-204.8zm-123 344.866v43.4c-.023 21.198-17.202 38.377-38.4 38.4h-43.4l81.8-81.8zm162.134 133h-256V460.8h55.467c30.619-.035 55.431-24.848 55.467-55.467v-76.8c-.035-30.619-24.848-55.431-55.467-55.467H17.067v-34.133h256v34.133H217.6c-30.619.035-55.431 24.848-55.467 55.467v76.8c.035 30.619 24.848 55.431 55.467 55.467h55.467v34.133zm221.866-225.4l-48.85 48.85-155.95 163.748v-26.453L458.3 279.1l36.634-36.633v27.066zM435.2 230.4a8.183 8.183 0 0 0 2.133-.431 8.266 8.266 0 0 0 2.133.431h43.4l-36.783 36.783-168.142 176.55H217.6c-21.198-.023-38.377-17.202-38.4-38.4v-76.8c.023-21.198 17.202-38.377 38.4-38.4h64a8.592 8.592 0 0 0 6.036-2.503l95.032-95.032c7.599 22.558 28.729 37.763 52.532 37.802zm59.733-174.2L382.236 168.897l-.005.005L290.133 261v-27.067l204.8-204.8V56.2z"/><path d="M216.606 401.241a8.533 8.533 0 0 0-9.331 1.872 8.97 8.97 0 0 0-2.475 6.059 8.533 8.533 0 0 0 17.066 0 8.53 8.53 0 0 0-5.26-7.931zM249.481 365.14a8.535 8.535 0 0 0-8.19 2.402l-8.533 8.942a8.535 8.535 0 0 0 12.35 11.783l8.533-8.942a8.536 8.536 0 0 0-4.16-14.185zM275.425 331.783l-8.533 8.942a8.535 8.535 0 0 0 12.35 11.784l8.533-8.942a8.535 8.535 0 0 0-12.35-11.784zM309.558 296.025l-8.533 8.942a8.534 8.534 0 1 0 12.35 11.783l8.533-8.942a8.535 8.535 0 0 0-12.35-11.783zM351.889 257.848a8.535 8.535 0 0 0-8.198 2.419l-8.533 8.942a8.534 8.534 0 1 0 12.35 11.783l8.533-8.942a8.535 8.535 0 0 0-4.152-14.202zM372.194 231.428a8.533 8.533 0 0 0-5.261 7.931 8.101 8.101 0 0 0 2.475 5.975 8.523 8.523 0 0 0 6.059 2.558 8.529 8.529 0 0 0 6.059-2.558 8.12 8.12 0 0 0 2.475-5.975 8.827 8.827 0 0 0-2.475-6.059 8.533 8.533 0 0 0-9.332-1.872z"/></svg>