<svg xmlns="http://www.w3.org/2000/svg" viewBox="0 0 472.01 472.01"><path d="M357.398 55.734a159.737 159.737 0 0 0-14.751-15.028C276.762-18.18 175.614-12.506 116.728 53.379a159.998 159.998 0 0 0-39.889 90.495 158.528 158.528 0 0 0 53.96 136.52 121.637 121.637 0 0 1 33.512 47.616h-.272a8 8 0 0 0 0 16h5.296a109.437 109.437 0 0 1 2.704 24v48c0 13.255 10.745 24 24 24h8c0 17.673 14.327 32 32 32 17.673 0 32-14.327 32-32h8c13.255 0 24-10.745 24-24v-48c.008-8.071.888-16.118 2.624-24h5.376a8 8 0 0 0 0-16h-.48a116.327 116.327 0 0 1 32.848-46.856c66.94-57.557 74.547-158.48 16.991-225.42zM236.04 456.009c-8.837 0-16-7.163-16-16h32c0 8.837-7.164 16-16 16zm48-40a8 8 0 0 1-8 8h-80a8 8 0 0 1-8-8v-8h96v8zm0-24h-96v-16h96v16zm.248-32h-96.504a125.335 125.335 0 0 0-2.208-16H286.44a127.336 127.336 0 0 0-2.152 16zm60.198-105.406a143.946 143.946 0 0 1-14.527 14.422h.008a132.056 132.056 0 0 0-39.36 58.984H244.04v-56h8c57.41-.066 103.934-46.59 104-104a8 8 0 0 0-8-8h-16a103.944 103.944 0 0 0-88 48.8v-41.272c36.414-4.108 63.95-34.883 64-71.528a8 8 0 0 0-8-8 72.002 72.002 0 0 0-64 39.2 72.002 72.002 0 0 0-64-39.2 8 8 0 0 0-8 8c.05 36.645 27.586 67.42 64 71.528v41.272a103.944 103.944 0 0 0-88-48.8h-16a8 8 0 0 0-8 8c.066 57.41 46.59 103.934 104 104h8v56h-46.736a136.99 136.99 0 0 0-40-59.664c-59.902-52.312-66.055-143.28-13.742-203.183S270.842-.893 330.745 51.42c59.901 52.313 66.054 143.281 13.741 203.183zM244.4 256.009c4.191-45.288 42.159-79.946 87.64-80h7.64c-4.191 45.288-42.159 79.946-87.64 80h-7.64zm.312-104.671c3.802-24.018 22.638-42.854 46.656-46.656-3.802 24.017-22.639 42.854-46.656 46.656zm-17.344 0c-24.018-3.802-42.854-22.638-46.656-46.656 24.017 3.801 42.854 22.638 46.656 46.656zm.312 104.671h-7.64c-45.481-.054-83.449-34.713-87.64-80h7.64c45.481.055 83.449 34.713 87.64 80z"/></svg>