<svg xmlns="http://www.w3.org/2000/svg" viewBox="1 -134 575.961 575"><path d="M9.602 269.29h48.957c5.21 25.901 30.43 42.675 56.332 37.464A47.824 47.824 0 0 0 144 288.19c15.648 21.286 45.59 25.856 66.875 10.207a47.847 47.847 0 0 0 18.566-29.109H423.36c5.278 25.98 30.614 42.766 56.594 37.488a48.003 48.003 0 0 0 37.488-37.488h48.961c5.301 0 9.598-4.297 9.598-9.598v-72.894a124.503 124.503 0 0 0-3.387-28.867l-20.968-88.157c-3.622-17.933-19.36-30.84-37.653-30.882H226.734L210.238 5.797a9.6 9.6 0 0 0-8.636-5.309H67.199a9.602 9.602 0 0 0-8.59 5.309L42.066 38.89H9.602C4.297 38.89 0 43.188 0 48.488v211.2a9.6 9.6 0 0 0 9.602 9.601zm96 19.198c-15.907 0-28.801-12.894-28.801-28.8 0-15.907 12.894-28.797 28.8-28.797 15.907 0 28.797 12.89 28.797 28.797 0 15.906-12.894 28.8-28.796 28.8zm76.796 0c-15.906 0-28.796-12.894-28.796-28.8 0-15.907 12.89-28.797 28.796-28.797 15.907 0 28.801 12.89 28.801 28.797 0 15.906-12.894 28.8-28.8 28.8zm288.004 0c-15.906 0-28.8-12.894-28.8-28.8 0-15.907 12.894-28.797 28.8-28.797 15.907 0 28.797 12.89 28.797 28.797 0 15.906-12.894 28.8-28.797 28.8zm83.52-126.125c.105.442.133.883.23 1.325H480v-67.2h58.273zM73.132 19.688h122.536l9.598 19.203H63.53zM19.2 58.09h494.797a19.36 19.36 0 0 1 18.902 15.773l.864 3.426H19.199zm441.602 38.398v67.2h-57.602v-67.2zm-76.801 0v67.2h-57.598v-67.2zm-76.8 0v67.2h-57.598v-67.2zm-76.802 0v67.2h-57.597v-67.2zm-76.796 0v67.2H96v-67.2zm-134.403 0h57.602v67.2H19.199zm0 124.801h19.203v-19.2H19.2v-19.198H556.57c.047 1.304.23 2.601.23 3.906v15.293h-19.198v19.2H556.8v28.8h-39.36c0-.172-.117-.324-.156-.5a47.487 47.487 0 0 0-2.484-7.996c-.375-.961-.883-1.766-1.317-2.66a49.671 49.671 0 0 0-2.773-5.086c-.613-.961-1.316-1.832-1.988-2.739a49.493 49.493 0 0 0-3.399-4.117 49.37 49.37 0 0 0-2.504-2.449 45.396 45.396 0 0 0-4.05-3.34c-.961-.7-1.922-1.371-2.88-2.008a51.111 51.111 0 0 0-4.8-2.582c-1.02-.488-2.008-.957-3.063-1.43a47.656 47.656 0 0 0-5.761-1.773c-.961-.25-1.86-.578-2.832-.77a45.517 45.517 0 0 0-18.239 0c-.96.192-1.922.52-2.832.77a47.872 47.872 0 0 0-5.761 1.774c-1.055.421-2.047.96-3.063 1.43a50.63 50.63 0 0 0-4.8 2.581 80.11 80.11 0 0 0-2.88 2.008 44.847 44.847 0 0 0-4.05 3.34c-.868.797-1.7 1.594-2.508 2.45a51.094 51.094 0 0 0-3.399 4.116c-.672.903-1.37 1.778-1.984 2.739a48.928 48.928 0 0 0-2.773 5.086c-.434.894-.961 1.738-1.317 2.66a47.86 47.86 0 0 0-2.488 7.996c0 .176-.113.328-.152.5H229.44c0-.172-.117-.324-.156-.5a48.213 48.213 0 0 0-2.484-7.996c-.375-.961-.883-1.766-1.317-2.66a49.671 49.671 0 0 0-2.773-5.086c-.613-.961-1.316-1.832-1.988-2.739a50.281 50.281 0 0 0-3.399-4.117 49.37 49.37 0 0 0-2.504-2.449 45.396 45.396 0 0 0-4.05-3.34 80.22 80.22 0 0 0-2.883-2.008 50.565 50.565 0 0 0-4.797-2.582c-1.02-.488-2.008-.957-3.063-1.43a47.164 47.164 0 0 0-5.714-1.773c-.961-.25-1.86-.578-2.88-.77a44.674 44.674 0 0 0-17.867 0c-.496.098-.957.165-1.488.27a47.856 47.856 0 0 0-7.8 2.43l-1.423.625a48.282 48.282 0 0 0-7.257 3.945l-.387.297a48.247 48.247 0 0 0-6.18 5.098c-.308.297-.625.574-.96.882a48.056 48.056 0 0 0-4.071 4.704 48.901 48.901 0 0 0-4.184-4.801 23.406 23.406 0 0 0-.96-.883 48.612 48.612 0 0 0-6.184-5.098l-.383-.297a48.473 48.473 0 0 0-7.258-3.945l-1.422-.625a48.285 48.285 0 0 0-7.804-2.43c-.489-.105-.961-.171-1.489-.269a44.655 44.655 0 0 0-17.863 0c-.96.195-1.922.52-2.832.77a46.986 46.986 0 0 0-5.762 1.777c-1.054.422-2.046.96-3.062 1.43a50.344 50.344 0 0 0-4.754 2.582 78.466 78.466 0 0 0-2.879 2.003 45.44 45.44 0 0 0-4.05 3.344 49.37 49.37 0 0 0-2.505 2.45 48.994 48.994 0 0 0-3.398 4.117c-.672.902-1.375 1.777-1.988 2.734a48.59 48.59 0 0 0-2.774 5.09c-.433.894-.96 1.738-1.316 2.66a47.265 47.265 0 0 0-2.485 7.996c0 .172-.117.324-.156.5H19.2zm0 0"/><path d="M230.398 202.09h192v19.2h-192zm0 0"/></svg>