<svg id="Layer_1" enable-background="new 0 0 512 512" height="512" viewBox="0 0 512 512" width="512" xmlns="http://www.w3.org/2000/svg"><g><g><path d="m34.5 287.09c4.142 0 7.5-3.358 7.5-7.5v-169.763c0-12.863 10.464-23.327 23.327-23.327h297.98c4.142 0 7.5-3.358 7.5-7.5s-3.358-7.5-7.5-7.5h-297.98c-21.134 0-38.327 17.193-38.327 38.327v169.763c0 4.142 3.358 7.5 7.5 7.5z"/><path d="m57 120.904v222.192c0 10.699 8.705 19.404 19.404 19.404h359.192c10.699 0 19.404-8.705 19.404-19.404v-222.192c0-10.699-8.705-19.404-19.404-19.404h-359.192c-10.699 0-19.404 8.705-19.404 19.404zm383 0v222.192c0 2.428-1.976 4.404-4.404 4.404h-359.192c-2.428 0-4.404-1.976-4.404-4.404v-222.192c0-2.428 1.976-4.404 4.404-4.404h359.192c2.428 0 4.404 1.976 4.404 4.404z"/><path d="m498.5 377.5h-21.447c4.977-6.467 7.947-14.555 7.947-23.327v-244.346c0-21.134-17.193-38.327-38.327-38.327h-48.288c-4.142 0-7.5 3.358-7.5 7.5s3.358 7.5 7.5 7.5h48.288c12.863 0 23.327 10.464 23.327 23.327v244.346c0 12.863-10.464 23.327-23.327 23.327h-381.346c-12.863 0-23.327-10.464-23.327-23.327v-39.301c-.288-9.912-14.692-9.92-15 0v39.301c0 8.773 2.969 16.86 7.946 23.327h-21.446c-7.444 0-13.5 6.056-13.5 13.5v17.819c0 17.469 14.212 31.681 31.681 31.681h448.638c17.469 0 31.681-14.212 31.681-31.681v-17.819c0-7.444-6.056-13.5-13.5-13.5zm-198.033 15-3.116 9h-82.703l-3.116-9zm196.533 16.319c0 9.198-7.483 16.681-16.681 16.681h-448.638c-9.198 0-16.681-7.483-16.681-16.681v-16.319h180.66l5.443 15.723c1.713 4.951 6.384 8.277 11.623 8.277h86.55c5.239 0 9.91-3.326 11.623-8.276l5.443-15.724h180.658z"/><path d="m232.208 293.052c13.1 0 26.193-3.228 37.998-9.645l32.722 32.722c4.25 4.25 9.9 6.59 15.91 6.59s11.66-2.34 15.91-6.59c8.773-8.773 8.773-23.047 0-31.82l-32.723-32.723c42.082-80.602-59.612-157.857-126.033-94.212-50.041 49.82-13.611 136.151 56.216 135.678zm91.934 1.864c4.721 4.539 1.238 12.942-5.303 12.804-2.003 0-3.887-.78-5.303-2.197l-30.673-30.673c3.823-3.143 7.464-6.784 10.607-10.607zm-137.542-126.936c25.148-25.148 66.068-25.148 91.217 0 40.599 40.419 11.044 110.465-45.609 110.078-56.656.375-86.21-69.657-45.608-110.078z"/><path d="m232.208 263.07c43.626.379 66.051-53.836 35.001-84.483-30.651-31.043-84.861-8.628-84.481 35.003-.545 26.635 22.843 50.026 49.48 49.48zm-24.395-73.876c13.452-13.451 35.339-13.451 48.791 0 13.451 13.452 13.451 35.339 0 48.791-12.811 13.357-35.98 13.359-48.791 0-13.357-12.811-13.359-35.981 0-48.791z"/></g></g></svg>