<svg id="Layer_1" enable-background="new 0 0 511.705 511.705" height="512" viewBox="0 0 511.705 511.705" width="512" xmlns="http://www.w3.org/2000/svg"><g><path d="m505.187 207.35c-5.669-5.666-13.675-7.81-21.424-5.739l-57.13 15.308c-16.315 4.084-22.036 25.41-9.943 37.108 0 0 5.438 5.439 5.438 5.439l-15.59 15.59-26.512-26.512c-4.249-4.25-9.899-6.591-15.91-6.591s-11.661 2.34-15.91 6.59l-25.506 25.507v-62.448l41.416-41.417 26.512 26.512c8.375 8.73 23.443 8.729 31.82 0 0 0 31.5-31.5 31.5-31.5l4.564 4.564c11.715 12.082 33.03 6.371 37.107-9.944 0 0 15.308-57.13 15.308-57.13 2.076-7.745-.069-15.754-5.739-21.425 0 0-.001-.001-.002-.002-5.669-5.666-13.675-7.811-21.424-5.739l-57.13 15.308c-16.315 4.084-22.036 25.41-9.943 37.108 0 0 5.438 5.439 5.438 5.439l-15.59 15.59-26.512-26.512c-4.249-4.25-9.899-6.591-15.91-6.591s-11.661 2.34-15.91 6.59l-25.505 25.508v-54.486c0-12.407-10.094-22.5-22.5-22.5s-22.5 10.093-22.5 22.5v6.241c-3.706 4.215-13.711 14.941-30.169 27.921-3.252 2.565-3.81 7.281-1.245 10.534 2.566 3.252 7.281 3.81 10.534 1.245 8.614-6.794 15.556-12.996 20.88-18.107v243.839c-21.43-19.905-69.227-57.328-146.998-82.267v-79.658c35.147-10.289 67.857-24.905 97.31-43.487 3.503-2.21 4.551-6.842 2.341-10.345-2.209-3.502-6.841-4.551-10.345-2.341-27.593 17.409-58.204 31.195-91.089 41.049-3.413-8.001-11.357-13.624-20.591-13.624h-40.124c-71.974.632-94.267 96.803-31.249 129.425v99.574c1.883 49.676 73.12 49.671 74.999 0v-61.062c22.4 7.519 47.169-9.194 48.725-32.534 70.532 29.389 108.689 67.517 117.022 76.475v6.121c1.116 29.774 43.86 29.832 44.999 0v-7.269c0-4.142-3.357-7.5-7.5-7.5s-7.5 3.358-7.5 7.5v7.269c-.296 9.871-14.678 9.945-15 0v-299c0-4.136 3.364-7.5 7.5-7.5s7.5 3.364 7.5 7.5v255.886c0 4.142 3.357 7.5 7.5 7.5s7.5-3.358 7.5-7.5v-11.669l41.416-41.417 26.512 26.512c8.375 8.73 23.443 8.729 31.82 0 0 0 31.5-31.5 31.5-31.5s4.564 4.564 4.564 4.564c11.715 12.082 33.03 6.371 37.107-9.944 0 0 15.308-57.13 15.308-57.13 2.076-7.745-.069-15.754-5.739-21.425.001.001 0 0-.001-.001zm-490.482 35.625c0-29.5 24-53.5 53.499-53.5h40.125c4.066 0 7.374 3.308 7.374 7.375v92.25c0 4.066-3.308 7.375-7.374 7.375h-40.125c-29.5 0-53.499-24-53.499-53.5zm59.75 183c-12.407 0-22.5-10.093-22.5-22.5v-93.964c10.339 3.107 34.042 1.663 44.999 1.964v92c0 12.407-10.093 22.5-22.499 22.5zm71.371-119.308c.313 17.051-19.37 28.307-33.872 19.402v-14.893c7.576-1.24 13.881-6.296 16.875-13.125 5.781 1.897 11.396 3.865 16.834 5.896.108.9.163 1.808.163 2.72zm279.613-196.27c.683-2.545 2.533-4.396 5.077-5.078l57.128-15.307c2.483-.676 5.07-.022 6.937 1.857 1.862 1.863 2.54 4.392 1.858 6.936l-15.309 57.131c-.681 2.544-2.531 4.395-5.075 5.076-2.512.672-5.106-.028-6.936-1.858l-41.821-41.821c-1.863-1.864-2.54-4.392-1.859-6.936zm-66.625 22.664c2.792-2.908 7.814-2.91 10.605.001 0 0 31.816 31.816 31.816 31.816 2.93 2.929 7.678 2.929 10.607 0 0 0 20.893-20.893 20.893-20.893l10.606 10.606-31.499 31.5c-1.417 1.417-3.301 2.197-5.305 2.197-2.003 0-3.886-.78-5.302-2.197l-31.816-31.816c-2.93-2.929-7.678-2.929-10.607 0l-36.112 36.113v-21.213zm53.029 179.118c-2.793 2.909-7.814 2.912-10.606 0 0 0-31.816-31.816-31.816-31.816-2.93-2.929-7.678-2.929-10.607 0 0 0-36.113 36.113-36.113 36.113v-21.213l36.114-36.114c2.792-2.908 7.814-2.91 10.605.001 0 0 31.816 31.816 31.816 31.816 2.93 2.929 7.678 2.93 10.607 0 0 0 20.893-20.893 20.893-20.893l10.606 10.606zm84.597-87.285-15.309 57.131c-1.186 5.242-8.361 7.125-12.012 3.218 0 0-41.821-41.821-41.821-41.821-3.933-3.651-2.019-10.822 3.218-12.014 0 0 57.128-15.307 57.128-15.307 5.075-1.592 10.404 3.66 8.796 8.793z"/></g></svg>