<svg id="Layer_1" enable-background="new 0 0 512 512" height="512" viewBox="0 0 512 512" width="512" xmlns="http://www.w3.org/2000/svg"><g><g><path d="m478.5 53.5h-54.27c-4.143 0-7.5 3.358-7.5 7.5s3.357 7.5 7.5 7.5h54.27c10.201 0 18.5 8.299 18.5 18.5v46.5h-482v-46.5c0-10.201 8.299-18.5 18.5-18.5h355.654c9.657-.194 10.151-14.616 0-15h-355.654c-18.472 0-33.5 15.028-33.5 33.5v262.385c.296 9.802 14.642 10.023 15 0v-200.885h482v276.5c0 10.201-8.299 18.5-18.5 18.5h-445c-10.201 0-18.5-8.299-18.5-18.5v-40.231c0-4.142-3.357-7.5-7.5-7.5s-7.5 3.358-7.5 7.5v40.231c0 18.472 15.028 33.5 33.5 33.5h445c18.472 0 33.5-15.028 33.5-33.5v-338c0-18.472-15.028-33.5-33.5-33.5z"/><path d="m50.73 100.672c0 12.958 10.542 23.5 23.5 23.5 31.133-1.181 31.125-45.823 0-47-12.958 0-23.5 10.542-23.5 23.5zm32 0c0 4.687-3.813 8.5-8.5 8.5-11.25-.399-11.247-16.602 0-17 4.687 0 8.5 3.813 8.5 8.5z"/><path d="m109.397 100.672c0 12.958 10.542 23.5 23.5 23.5 31.133-1.181 31.125-45.823 0-47-12.958 0-23.5 10.542-23.5 23.5zm32 0c0 4.687-3.813 8.5-8.5 8.5-11.25-.399-11.247-16.602 0-17 4.687 0 8.5 3.813 8.5 8.5z"/><path d="m168.064 100.672c0 12.958 10.542 23.5 23.5 23.5 31.133-1.181 31.125-45.823 0-47-12.958 0-23.5 10.542-23.5 23.5zm32 0c0 4.687-3.813 8.5-8.5 8.5-11.25-.399-11.247-16.602 0-17 4.687 0 8.5 3.813 8.5 8.5z"/><path d="m247.172 257.18c-8.376-8.727-23.445-8.732-31.82 0 0 0-75.605 75.607-75.605 75.607-4.25 4.25-6.591 9.9-6.591 15.91-.249 12.092 10.405 22.752 22.5 22.5 6.009 0 11.658-2.34 15.91-6.59 0 0 59.696-59.697 59.696-59.697l26.513 26.512c8.375 8.73 23.444 8.729 31.82 0 0 0 31.5-31.5 31.5-31.5s4.564 4.564 4.564 4.564c11.715 12.082 33.03 6.371 37.107-9.944 0 0 15.309-57.13 15.309-57.13 2.076-7.745-.069-15.754-5.739-21.425 0 0-.001-.001-.002-.002-5.669-5.666-13.673-7.812-21.424-5.739l-57.131 15.308c-16.315 4.083-22.036 25.41-9.943 37.108 0 0 5.439 5.439 5.439 5.439l-15.591 15.589zm45.413-12.059c.683-2.545 2.533-4.396 5.077-5.078l57.129-15.307c2.483-.676 5.07-.022 6.938 1.857 1.862 1.863 2.54 4.392 1.858 6.936l-15.31 57.131c-.681 2.544-2.531 4.395-5.075 5.076-2.513.673-5.105-.028-6.937-1.858l-41.821-41.821c-1.863-1.864-2.541-4.392-1.859-6.936zm-13.598 54.481 20.894-20.893 10.606 10.606-31.5 31.5c-1.417 1.417-3.301 2.197-5.305 2.197-2.003 0-3.886-.78-5.302-2.197l-31.816-31.816c-2.93-2.929-7.678-2.929-10.607 0l-64.999 65c-1.417 1.417-3.301 2.198-5.304 2.198-6.506.153-10.052-8.291-5.302-12.803 0 0 75.606-75.608 75.606-75.608 1.416-1.417 3.3-2.197 5.303-2.197s3.887.78 5.303 2.197l31.816 31.816c2.931 2.929 7.68 2.929 10.607 0z"/><path d="m74 202.5h56c9.898-.299 9.925-14.692 0-15h-56c-4.143 0-7.5 3.358-7.5 7.5s3.357 7.5 7.5 7.5z"/><path d="m74 232.5h56c9.898-.299 9.925-14.692 0-15h-56c-4.143 0-7.5 3.358-7.5 7.5s3.357 7.5 7.5 7.5z"/><path d="m438 355.5h-56c-9.898.299-9.925 14.692 0 15h56c4.143 0 7.5-3.358 7.5-7.5s-3.357-7.5-7.5-7.5z"/><path d="m438 385.5h-56c-9.898.299-9.925 14.692 0 15h56c4.143 0 7.5-3.358 7.5-7.5s-3.357-7.5-7.5-7.5z"/></g></g></svg>