<svg id="Layer_1" enable-background="new 0 0 512.114 512.114" height="512" viewBox="0 0 512.114 512.114" width="512" xmlns="http://www.w3.org/2000/svg"><g><g><path d="m505.498 473.749-8.892-8.892c.317-3.243-.761-6.599-3.24-9.078l-58.975-58.974c-2.48-2.479-5.836-3.558-9.079-3.241l-24.066-24.066c3.881-7.659 2.637-17.269-3.756-23.662l-9.362-9.363c60.32-82.346 49.116-206.836-26.976-277.107-2.991-2.863-7.739-2.76-10.602.235-2.864 2.993-2.759 7.741.234 10.604 128.969 121.264 39.869 343.085-137.202 341.953-262.95-9.975-262.925-387.044.006-396.999 39.803 0 78.201 11.737 111.039 33.94 8.355 5.323 16.452-6.64 8.402-12.426-138.155-96.107-335.157 8.471-332.94 176.989-1.623 171.328 198.539 274.2 336.312 174.537l9.362 9.362c6.017 6.209 16.052 7.761 23.666 3.76l24.062 24.062c-.318 3.243.761 6.599 3.24 9.078l10.487 10.487c7.224 6.792 17.402-3.38 10.607-10.607 0 0-7.851-7.85-7.851-7.85l16.445-16.445 53.702 53.701-16.445 16.445-21.004-21.004c-7.218-6.789-17.404 3.374-10.607 10.607 0 0 23.641 23.64 23.641 23.64 2.379 2.397 5.728 3.584 9.086 3.248 0 0 8.885 8.885 8.885 8.885 8.376 8.728 23.445 8.729 31.819 0 8.729-8.374 8.73-23.444.002-31.819zm-145.305-85.211c-1.443 0-2.801-.562-3.822-1.583l-7.917-7.917c11.165-9.122 21.392-19.349 30.514-30.513l7.916 7.916c2.107 2.107 2.107 5.536 0 7.644l-22.869 22.87c-1.021 1.021-2.379 1.583-3.822 1.583zm42.096 24.428-21.536-21.536 10.606-10.606 21.536 21.536zm92.601 81.996c-2.792 2.91-7.814 2.909-10.606 0 0 0-7.081-7.081-7.081-7.081l10.607-10.607 7.082 7.082c2.908 2.792 2.908 7.814-.002 10.606z"/><path d="m199.75 190.186c-8.376-8.727-23.445-8.732-31.82 0 0 0-64.889 64.889-64.889 64.889-8.771 8.772-8.771 23.047 0 31.819 8.376 8.727 23.444 8.731 31.821 0 0 0 48.978-48.979 48.978-48.979l26.513 26.512c4.249 4.25 9.899 6.591 15.909 6.591s11.66-2.34 15.911-6.59l43.411-43.41 4.565 4.565c11.783 12.156 33.117 6.236 37.134-10.048l-.033-.008c.226-.708.435-1.485.664-2.342l14.651-54.675c2.076-7.745-.069-15.754-5.739-21.425 0 0-.001-.001-.002-.002-5.669-5.666-13.674-7.812-21.424-5.739l-57.131 15.308c-16.315 4.084-22.036 25.41-9.943 37.108 0 0 5.439 5.439 5.439 5.439l-27.501 27.5zm57.324-23.969c.683-2.545 2.533-4.396 5.077-5.078l57.129-15.307c2.483-.676 5.07-.022 6.938 1.857 1.862 1.863 2.54 4.392 1.858 6.936 0 0-15.022 56.062-15.303 57.104-.711 3.055-3.693 5.362-6.964 5.362-1.882.012-3.68-.741-5.055-2.116 0 0-41.821-41.821-41.821-41.821-1.863-1.865-2.541-4.393-1.859-6.937zm7.296 33.587 10.606 10.606-43.41 43.41c-2.794 2.908-7.814 2.912-10.606 0 0 0-31.816-31.816-31.816-31.816-1.407-1.407-3.314-2.197-5.304-2.197s-3.896.79-5.304 2.197l-54.28 54.282c-2.788 2.908-7.818 2.912-10.607 0-2.924-2.924-2.924-7.682 0-10.606l64.889-64.89c2.791-2.908 7.815-2.911 10.605.001 0 0 31.816 31.816 31.816 31.816 2.929 2.929 7.678 2.929 10.606 0z"/><path d="m30.087 213.658c0 101.182 82.317 183.5 183.5 183.5 243.103-9.225 243.037-357.812-.002-367-101.18 0-183.498 82.318-183.498 183.5zm352 0c0 92.911-75.589 168.5-168.5 168.5-223.231-8.471-223.17-328.563.002-337 92.91 0 168.498 75.589 168.498 168.5z"/></g></g></svg>