<svg id="Layer_1" enable-background="new 0 0 512 512" height="512" viewBox="0 0 512 512" width="512" xmlns="http://www.w3.org/2000/svg"><g><g><path d="m478.5 53.5h-57.295c-4.142 0-7.5 3.358-7.5 7.5s3.358 7.5 7.5 7.5h57.295c10.201 0 18.5 8.299 18.5 18.5v46.5h-482v-46.5c0-10.201 8.299-18.5 18.5-18.5h352.013c4.142 0 7.5-3.358 7.5-7.5s-3.358-7.5-7.5-7.5h-352.013c-18.472 0-33.5 15.028-33.5 33.5v275.513c.293 9.793 14.639 10.032 15 0v-214.012h482v276.499c0 10.201-8.299 18.5-18.5 18.5h-445c-10.201 0-18.5-8.299-18.5-18.5v-26.59c0-4.142-3.358-7.5-7.5-7.5s-7.5 3.358-7.5 7.5v26.59c0 18.472 15.028 33.5 33.5 33.5h445c18.472 0 33.5-15.028 33.5-33.5v-338c0-18.472-15.028-33.5-33.5-33.5z"/><path d="m50.731 100.672c0 12.958 10.542 23.5 23.5 23.5 31.133-1.181 31.125-45.823 0-47-12.958 0-23.5 10.542-23.5 23.5zm32 0c0 4.687-3.813 8.5-8.5 8.5-11.25-.399-11.247-16.603 0-17 4.687 0 8.5 3.813 8.5 8.5z"/><path d="m109.397 100.672c0 12.958 10.542 23.5 23.5 23.5 31.133-1.181 31.125-45.823 0-47-12.958 0-23.5 10.542-23.5 23.5zm32 0c0 4.687-3.813 8.5-8.5 8.5-11.25-.399-11.247-16.603 0-17 4.687 0 8.5 3.813 8.5 8.5z"/><path d="m168.064 100.672c0 12.958 10.542 23.5 23.5 23.5 31.133-1.181 31.125-45.823 0-47-12.958 0-23.5 10.542-23.5 23.5zm32 0c0 4.687-3.813 8.5-8.5 8.5-11.25-.399-11.247-16.603 0-17 4.687 0 8.5 3.813 8.5 8.5z"/><path d="m256 173.397c-12.407 0-22.5 10.093-22.5 22.5v6.21c-34.095 8.353-60.937 35.194-69.29 69.29h-6.21c-12.407 0-22.5 10.093-22.5 22.5s10.093 22.5 22.5 22.5h6.21c8.353 34.095 35.194 60.937 69.29 69.29v6.21c0 12.407 10.093 22.5 22.5 22.5s22.5-10.093 22.5-22.5v-6.21c34.095-8.353 60.937-35.194 69.29-69.29h6.21c12.407 0 22.5-10.093 22.5-22.5s-10.093-22.5-22.5-22.5h-6.21c-8.353-34.095-35.194-60.937-69.29-69.29v-6.21c0-12.406-10.093-22.5-22.5-22.5zm78.314 106.79c.626 3.59 3.744 6.21 7.388 6.21h12.298c4.136 0 7.5 3.364 7.5 7.5s-3.364 7.5-7.5 7.5h-12.298c-3.645 0-6.762 2.62-7.388 6.21-5.742 32.899-31.704 58.862-64.604 64.604-3.59.626-6.21 3.744-6.21 7.388v12.298c0 4.136-3.364 7.5-7.5 7.5s-7.5-3.364-7.5-7.5v-12.297c0-3.645-2.62-6.762-6.21-7.388-32.899-5.742-58.862-31.704-64.604-64.604-.626-3.59-3.744-6.21-7.388-6.21h-12.298c-4.136 0-7.5-3.364-7.5-7.5s3.364-7.5 7.5-7.5h12.298c3.645 0 6.762-2.62 7.388-6.21 5.742-32.899 31.704-58.862 64.604-64.604 3.59-.626 6.21-3.744 6.21-7.388v-12.298c0-4.136 3.364-7.5 7.5-7.5s7.5 3.364 7.5 7.5v12.298c0 3.645 2.62 6.762 6.21 7.388 32.9 5.741 58.862 31.704 64.604 64.603z"/><path d="m191.5 293.897c0 35.565 28.935 64.5 64.5 64.5 85.451-3.243 85.427-125.77-.001-129-35.564 0-64.499 28.935-64.499 64.5zm114 0c0 27.294-22.206 49.5-49.5 49.5-65.578-2.488-65.56-96.521.001-99 27.293 0 49.499 22.206 49.499 49.5z"/></g></g></svg>