<svg id="Layer_1" enable-background="new 0 0 512 512" height="512" viewBox="0 0 512 512" width="512" xmlns="http://www.w3.org/2000/svg"><g><g><path d="m445.322 248.5c4.824.096 8.992-4.404 8.476-9.215-3.913-46.701-24.47-90.724-57.883-123.958-33.426-33.248-77.581-53.568-124.332-57.217-2.082-.167-4.141.552-5.676 1.971s-2.407 3.415-2.407 5.506v24.413h-15v-23.322c0-2.373-1.002-4.656-2.751-6.263-1.748-1.606-4.104-2.415-6.464-2.214-46.507 3.897-90.395 24.319-123.58 57.503s-53.606 77.074-57.503 123.576c-.199 2.364.607 4.722 2.214 6.469 1.607 1.749 3.89 2.751 6.263 2.751h23.321v15h-23.322c-2.373 0-4.656 1.002-6.263 2.751-1.606 1.747-2.413 4.105-2.214 6.464 3.897 46.507 24.319 90.395 57.503 123.58s77.073 53.606 123.575 57.503c2.358.2 4.721-.607 6.469-2.214 1.749-1.607 2.751-3.89 2.751-6.263v-23.321h15v23.322c0 2.373 1.002 4.656 2.751 6.263 1.573 1.446 3.64 2.244 5.757 2.244 46.757-3.661 90.94-24.213 124.287-57.533 33.185-33.185 53.606-77.073 57.503-123.575.199-2.364-.607-4.722-2.214-6.469-1.607-1.749-3.89-2.751-6.263-2.751h-23.32v-15h23.322zm-24.822 30h17.627c-10.217 83.791-75.833 149.41-159.627 159.627v-17.627c0-7.444-6.056-13.5-13.5-13.5h-18c-7.444 0-13.5 6.056-13.5 13.5v17.627c-83.791-10.216-149.41-75.833-159.627-159.627h17.627c7.444 0 13.5-6.056 13.5-13.5v-18c0-7.444-6.056-13.5-13.5-13.5h-17.627c10.216-83.791 75.833-149.41 159.627-159.627v17.627c0 7.444 6.056 13.5 13.5 13.5h18c7.444 0 13.5-6.056 13.5-13.5v-17.62c82.559 10.23 149.396 76.985 159.621 159.62h-17.621c-7.444 0-13.5 6.056-13.5 13.5v18c0 7.444 6.056 13.5 13.5 13.5z"/><path d="m498.5 233.5h-15.101c-4.216-43.4-20.598-84.265-47.575-118.531-2.562-3.256-7.279-3.815-10.532-1.254-3.255 2.562-3.816 7.278-1.254 10.533 26.361 33.483 41.889 73.718 44.906 116.358.315 4.426 4.036 7.894 8.472 7.894h19.584v15h-19.583c-4.436 0-8.157 3.467-8.473 7.896-5.59 103.043-94.507 191.958-197.552 197.546-4.425.316-7.892 4.038-7.892 8.474v19.584h-15v-19.583c0-4.436-3.467-8.157-7.896-8.473-103.043-5.59-191.958-94.507-197.546-197.552-.316-4.425-4.038-7.892-8.473-7.892h-19.584v-15h19.584c4.436 0 8.157-3.467 8.472-7.896 5.59-103.043 94.507-191.958 197.552-197.546 4.425-.316 7.892-4.038 7.892-8.473v-19.584h15v19.584c0 4.436 3.467 8.157 7.896 8.472 48.936 3.462 93.826 22.975 129.818 56.429 3.034 2.821 7.779 2.647 10.599-.387s2.647-7.779-.387-10.599c-37.041-34.43-82.89-55.066-132.926-59.9v-15.1c-.001-7.444-6.057-13.5-13.501-13.5h-18c-7.444 0-13.5 6.056-13.5 13.5v15.103c-105.669 8.648-196.248 99.233-204.898 204.897h-15.102c-7.444 0-13.5 6.056-13.5 13.5v18c0 7.444 6.056 13.5 13.5 13.5h15.103c8.648 105.669 99.234 196.248 204.897 204.898v15.102c0 7.444 6.056 13.5 13.5 13.5h18c7.444 0 13.5-6.056 13.5-13.5v-15.103c105.669-8.648 196.248-99.234 204.898-204.897h15.102c7.444 0 13.5-6.056 13.5-13.5v-18c0-7.444-6.056-13.5-13.5-13.5z"/><path d="m283.728 228.479c26.505-24.622 8.862-70.029-27.728-69.979-36.573-.051-54.226 45.333-27.75 69.958-22.618 6.613-42.343 21.244-55.432 41.834-2.223 3.496-1.19 8.13 2.306 10.353 3.495 2.223 8.13 1.189 10.353-2.306 44.688-70.152 153.685-38.456 154.024 44.662 0 4.134-3.364 7.499-7.5 7.499s-7.5-3.364-7.5-7.5c-3.455-90.766-133.573-90.711-137 .001-.29 9.886-14.691 9.925-15-.001 0-4.99.445-9.99 1.324-14.861 1.475-9.803-12.716-12.362-14.762-2.662-1.037 5.747-1.562 11.643-1.562 17.523 0 12.407 10.093 22.5 22.5 22.5s22.5-10.093 22.5-22.5c0-29.5 24-53.5 53.5-53.5s53.5 24 53.5 53.5c0 12.407 10.093 22.5 22.5 22.5s22.5-10.093 22.5-22.5c-.001-44.688-29.918-82.515-70.773-94.521zm-53.228-29.479c0-14.061 11.439-25.5 25.5-25.5 33.783 1.282 33.773 49.723 0 51-14.061 0-25.5-11.439-25.5-25.5z"/><path d="m278.708 302.685-32.872 32.731-12.544-12.49c-2.936-2.923-7.684-2.913-10.607.023-2.922 2.936-2.912 7.684.023 10.607l17.836 17.759c2.927 2.913 7.657 2.913 10.584 0 0 0 38.164-38 38.164-38 2.935-2.923 2.945-7.671.023-10.607-2.924-2.936-7.672-2.946-10.607-.023z"/></g></g></svg>