<svg id="Layer_1" enable-background="new 0 0 512 512" height="512" viewBox="0 0 512 512" width="512" xmlns="http://www.w3.org/2000/svg"><g><g><path d="m478.5 53.5h-53.757c-4.143 0-7.5 3.358-7.5 7.5s3.357 7.5 7.5 7.5h53.757c10.201 0 18.5 8.299 18.5 18.5v46.5h-482v-46.5c0-10.201 8.299-18.5 18.5-18.5h355.346c9.659-.196 10.15-14.615 0-15h-355.345c-18.473 0-33.501 15.028-33.501 33.5v253.308c.298 9.808 14.643 10.018 15 0v-191.807h482v276.499c0 10.201-8.299 18.5-18.5 18.5h-445c-10.201 0-18.5-8.299-18.5-18.5v-49.205c0-4.142-3.357-7.5-7.5-7.5s-7.5 3.358-7.5 7.5v49.205c0 18.472 15.028 33.5 33.5 33.5h445c18.472 0 33.5-15.028 33.5-33.5v-338c0-18.472-15.028-33.5-33.5-33.5z"/><path d="m50.73 100.672c0 12.958 10.542 23.5 23.5 23.5 31.133-1.181 31.125-45.823 0-47-12.958 0-23.5 10.542-23.5 23.5zm32 0c0 4.687-3.813 8.5-8.5 8.5-11.25-.399-11.247-16.602 0-17 4.687 0 8.5 3.813 8.5 8.5z"/><path d="m109.397 100.672c0 12.958 10.542 23.5 23.5 23.5 31.133-1.181 31.125-45.823 0-47-12.958 0-23.5 10.542-23.5 23.5zm32 0c0 4.687-3.813 8.5-8.5 8.5-11.25-.399-11.247-16.602 0-17 4.687 0 8.5 3.813 8.5 8.5z"/><path d="m168.064 100.672c0 12.958 10.542 23.5 23.5 23.5 31.133-1.181 31.125-45.823 0-47-12.958 0-23.5 10.542-23.5 23.5zm32 0c0 4.687-3.813 8.5-8.5 8.5-11.25-.399-11.247-16.602 0-17 4.687 0 8.5 3.813 8.5 8.5z"/><path d="m188.897 371.962c4.143 0 7.5-3.358 7.5-7.5v-68.462c0-4.142-3.357-7.5-7.5-7.5h-68.462c-4.143 0-7.5 3.358-7.5 7.5v68.462c0 4.142 3.357 7.5 7.5 7.5zm-60.961-68.462h53.462v53.462h-53.462z"/><path d="m290.231 371.962c4.143 0 7.5-3.358 7.5-7.5v-136.196c0-4.142-3.357-7.5-7.5-7.5h-68.463c-4.143 0-7.5 3.358-7.5 7.5v136.196c0 4.142 3.357 7.5 7.5 7.5zm-60.962-136.196h53.463v121.196h-53.463z"/><path d="m391.564 371.962c4.143 0 7.5-3.358 7.5-7.5v-45.575c0-4.142-3.357-7.5-7.5-7.5h-68.462c-4.143 0-7.5 3.358-7.5 7.5v45.575c0 4.142 3.357 7.5 7.5 7.5zm-60.961-45.575h53.462v30.575h-53.462z"/></g></g></svg>