<svg id="Layer_1" enable-background="new 0 0 512 512" height="512" viewBox="0 0 512 512" width="512" xmlns="http://www.w3.org/2000/svg"><g><g><path d="m490.5 138.522h-359.5c-4.142 0-7.5 3.358-7.5 7.5s3.358 7.5 7.5 7.5h256v32.291c-40.825-7.061-82.564 22.117-90.051 62.709h-275.449c-3.584 0-6.5-2.916-6.5-6.5v-82c0-3.584 2.916-6.5 6.5-6.5h74.577c4.142 0 7.5-3.358 7.5-7.5s-3.358-7.5-7.5-7.5h-74.577c-11.855 0-21.5 9.645-21.5 21.5v82c0 11.855 9.645 21.5 21.5 21.5h273.89c-1.176 60.232 64.977 99.79 117.503 70.713l32.697 32.696c8.375 8.728 23.445 8.729 31.819 0 8.729-8.375 8.73-23.444.001-31.82 0 0-32.696-32.697-32.696-32.697 6.418-11.764 9.836-25.126 9.635-38.893h36.151c11.855 0 21.5-9.645 21.5-21.5v-82c0-11.854-9.645-21.499-21.5-21.499zm-161.238 171.478c-40.471-40.33-11.524-110.21 45.608-110.108 34.667-.715 65.218 29.83 64.5 64.5.098 57.132-69.783 86.079-110.108 45.608zm137.542 35.719c4.729 4.503 1.226 12.964-5.304 12.803-2.003 0-3.886-.78-5.302-2.197l-30.667-30.667c3.832-3.165 7.441-6.775 10.607-10.606zm30.196-103.697c0 3.584-2.916 6.5-6.5 6.5h-37.71c-4.992-26.414-25.386-49.986-50.79-58.895v-36.105h88.5c3.584 0 6.5 2.916 6.5 6.5z"/><path d="m424.02 270.126c5.453-46.306-51.167-73.67-84.153-40.735-19.299 19.299-19.299 50.702.001 70.003 16.937 16.939 43.494 19.269 63.058 5.785 7.994-5.887-.172-17.72-8.506-12.355-13.695 9.43-32.178 7.731-43.945-4.036-31.089-33.539 15.253-79.882 48.79-48.79 7.486 7.486 11.078 17.839 9.854 28.404-.845 9.875 13.465 11.54 14.901 1.724z"/></g></g></svg>