<svg id="Layer_1" enable-background="new 0 0 511.887 511.887" height="512" viewBox="0 0 511.887 511.887" width="512" xmlns="http://www.w3.org/2000/svg"><g><g><path d="m347.509 464.2-83.208-38.503c-5.311-2.456-11.402-2.455-16.717.001l-151.29 70.007v-330.001c0-4.142-3.358-7.5-7.5-7.5s-7.5 3.358-7.5 7.5v333.171c-.217 9.227 10.128 15.876 18.42 11.776 0 0 154.168-71.338 154.168-71.338 1.311-.606 2.814-.605 4.123-.001 0 0 83.206 38.502 83.206 38.502 3.76 1.739 8.217.103 9.956-3.657 1.738-3.76.101-8.217-3.658-9.957z"/><path d="m437.944 20.359h-38.687c-3.107-27.155-41.715-27.135-44.812 0h-76.188c-3.107-27.155-41.715-27.135-44.813 0h-76.188c-3.107-27.155-41.715-27.135-44.812 0h-38.5c-4.142 0-7.5 3.358-7.5 7.5s3.358 7.5 7.5 7.5h38.407v26.229h-14.587c-9.082 0-16.47 7.393-16.47 16.48v51.944c.299 9.895 14.69 9.928 15 0v-51.944c0-.816.659-1.48 1.47-1.48h14.587v15.77c0 12.407 10.094 22.5 22.5 22.5s22.5-10.093 22.5-22.5v-15.77h76v15.77c0 12.407 10.094 22.5 22.5 22.5s22.5-10.093 22.5-22.5v-15.77h76v15.77c0 12.407 10.094 22.5 22.5 22.5s22.5-10.093 22.5-22.5v-15.77h14.773c4.293-.291-.005 417.624 1.47 419.117 0 0-36.321-16.807-36.321-16.807-3.759-1.739-8.216-.102-9.956 3.657-1.739 3.759-.102 8.216 3.657 9.956 0 0 39.199 18.139 39.199 18.139 4.024 1.865 8.677 1.561 12.433-.84 3.749-2.396 5.987-6.484 5.987-10.936v-420.806c0-9.087-7.388-16.48-16.47-16.48h-14.773v-26.229h38.593c4.142 0 7.5-3.358 7.5-7.5s-3.357-7.5-7.499-7.5zm-295.594 71.999c-.306 9.89-14.681 9.929-15 0v-64.431c.004-.045.004-.09 0-.135v-5.432c.307-9.893 14.683-9.926 15 0 0-.001 0 69.998 0 69.998zm15-30.77v-26.229h76v26.229zm106 30.77c-.308 9.895-14.683 9.924-15 0v-69.999c.305-9.887 14.681-9.931 15 0zm15-30.77v-26.229h76v26.229zm106 30.77c-.308 9.895-14.683 9.924-15 0v-69.999c.305-9.887 14.681-9.931 15 0z"/><path d="m332.973 251.584c14.45-13.703 6.268-38.94-13.501-41.534 0 0-23.994-3.484-23.994-3.484-3.051-.443-5.687-2.356-7.05-5.117 0 0-10.731-21.727-10.731-21.727-4.135-8.371-12.505-13.571-21.846-13.571-9.34 0-17.711 5.2-21.846 13.571 0 0-10.731 21.727-10.731 21.727-1.363 2.761-3.999 4.673-7.049 5.116 0 0-23.995 3.484-23.995 3.484-19.742 2.596-27.975 27.815-13.501 41.534 0 0 17.362 16.911 17.362 16.911 2.206 2.148 3.211 5.241 2.691 8.272 0 0-4.099 23.88-4.099 23.88-1.578 9.197 2.132 18.32 9.683 23.809 7.578 5.509 17.425 6.193 25.664 1.861 0 0 21.462-11.274 21.462-11.274 2.729-1.433 5.988-1.434 8.718 0l21.461 11.274c17.495 9.495 38.986-6.069 35.347-25.671 0 0-4.099-23.879-4.099-23.879-.521-3.032.485-6.125 2.69-8.273.001.002 17.364-16.909 17.364-16.909zm-27.83 6.166c-5.744 5.596-8.364 13.653-7.008 21.556l4.099 23.879c1.504 7.42-6.985 13.592-13.587 9.853 0 0-21.462-11.274-21.462-11.274-7.098-3.729-15.572-3.728-22.669 0l-21.462 11.274c-3.229 1.697-6.919 1.43-9.869-.715-2.943-2.139-4.333-5.555-3.718-9.138l4.099-23.88c1.356-7.902-1.264-15.959-7.009-21.555l-17.363-16.912c-5.58-5.117-2.352-15.09 5.191-15.944 0 0 23.995-3.484 23.995-3.484 7.936-1.153 14.793-6.131 18.343-13.318 0 0 10.731-21.726 10.731-21.726 1.612-3.265 4.751-5.213 8.396-5.213 3.646 0 6.785 1.949 8.397 5.213 0 0 10.731 21.726 10.731 21.726 3.55 7.187 10.407 12.165 18.343 13.318 0 0 23.995 3.484 23.995 3.484 7.519.859 10.791 10.818 5.19 15.944.001.001-17.363 16.912-17.363 16.912z"/></g></g></svg>