<svg id="Layer_1" enable-background="new 0 0 511.657 511.657" height="512" viewBox="0 0 511.657 511.657" width="512" xmlns="http://www.w3.org/2000/svg"><g><g><path d="m300.205 83.36c-12.407 0-22.5 10.093-22.5 22.5v6.235c-7.385 8.369-39.748 42.453-98.863 69.608-3.764 1.729-5.414 6.182-3.685 9.946s6.181 5.412 9.946 3.685c46.313-21.274 76.683-46.28 92.602-61.596v243.792c-21.431-19.905-69.228-57.327-147-82.266v-79.658c6.964-2.04 13.884-4.265 20.637-6.637 3.908-1.373 5.963-5.654 4.589-9.562-1.373-3.908-5.652-5.962-9.562-4.59-5.717 2.009-11.561 3.899-17.448 5.664-3.413-8-11.357-13.622-20.59-13.622h-40.126c-71.974.632-94.269 96.802-31.249 129.425v66.46c1.885 49.68 73.122 49.667 75 0v-27.947c22.402 7.519 47.168-9.193 48.725-32.534 70.533 29.389 108.691 67.516 117.024 76.474v6.121c1.109 29.76 43.857 29.844 45 0v-298.997c0-12.408-10.093-22.501-22.5-22.501zm-285.5 171.998c0-29.5 24-53.5 53.5-53.5h40.126c4.066 0 7.375 3.308 7.375 7.374v92.251c0 4.066-3.308 7.374-7.375 7.374h-40.126c-29.5.001-53.5-23.999-53.5-53.499zm59.751 149.885c-12.407 0-22.5-10.093-22.5-22.5v-60.849c10.339 3.107 34.042 1.663 45 1.964v58.885c0 12.407-10.093 22.5-22.5 22.5zm71.372-86.193c.312 17.052-19.367 28.304-33.872 19.404v-14.894c7.576-1.24 13.881-6.296 16.875-13.125 5.781 1.897 11.396 3.865 16.834 5.896.108.898.163 1.807.163 2.719zm161.877 85.807c-.272 9.808-14.663 10-15 0v-298.997c.272-9.808 14.663-10 15 0z"/><path d="m504.327 259.291c14.451-13.702 6.269-38.941-13.501-41.534 0 0-23.995-3.484-23.995-3.484-3.051-.443-5.686-2.355-7.05-5.116 0 0-10.731-21.726-10.731-21.726-4.134-8.371-12.505-13.571-21.846-13.571-9.34 0-17.711 5.2-21.846 13.571l-10.73 21.726c-1.364 2.761-4 4.674-7.05 5.117l-23.995 3.484c-19.743 2.596-27.974 27.815-13.5 41.534 0 0 17.362 16.912 17.362 16.912 2.206 2.147 3.211 5.24 2.69 8.272 0 0-4.099 23.879-4.099 23.879-2.911 14.409 9.463 28.829 23.989 28.493 3.87 0 7.761-.933 11.357-2.822 1.232-.548 23.457-12.702 24.036-12.178 9.688-2.209 6.922-16.307-2.856-14.725-5.169.575-23.285 11.402-28.156 13.624-6.587 3.72-15.103-2.413-13.586-9.854 0 0 4.098-23.879 4.098-23.879 1.357-7.902-1.263-15.96-7.008-21.555 0 0-17.363-16.911-17.363-16.911-2.606-2.539-3.492-6.119-2.369-9.577 1.125-3.463 3.95-5.844 7.559-6.368l23.995-3.484c7.936-1.152 14.793-6.131 18.344-13.318 0 0 10.731-21.726 10.731-21.726 3.143-6.882 13.647-6.907 16.793 0 0 0 10.731 21.727 10.731 21.727 3.55 7.187 10.408 12.165 18.343 13.318l23.995 3.484c7.519.861 10.791 10.817 5.19 15.945 0 0-17.363 16.911-17.363 16.911-5.745 5.596-8.365 13.654-7.009 21.555l4.099 23.88c1.504 7.421-6.985 13.591-13.587 9.853-8.935-4.346-15.596 8.42-6.975 13.279 8.272 4.346 18.107 3.632 25.664-1.862 7.551-5.489 11.261-14.612 9.682-23.808l-4.099-23.88c-.521-3.032.485-6.124 2.691-8.272.002-.003 17.365-16.914 17.365-16.914z"/><path d="m361.403 141.812c1.108 0 2.234-.247 3.297-.768l107-52.47c8.736-4.605 2.466-17.565-6.605-13.468 0 0-107 52.47-107 52.47-7.095 3.496-4.523 14.258 3.308 14.236z"/><path d="m471.7 423.104-107-52.47c-8.992-4.086-15.397 8.805-6.604 13.468 0 0 107 52.47 107 52.47 1.062.521 2.188.768 3.297.768 7.79.017 10.439-10.711 3.307-14.236z"/></g></g></svg>