<svg id="Layer_1" enable-background="new 0 0 512 512" height="512" viewBox="0 0 512 512" width="512" xmlns="http://www.w3.org/2000/svg"><g><g><path d="m86.958 122h154.042c4.143 0 7.5-3.358 7.5-7.5s-3.357-7.5-7.5-7.5h-154.042c-9.867.286-9.953 14.685 0 15z"/><path d="m86.958 150.963h97c4.143 0 7.5-3.358 7.5-7.5s-3.357-7.5-7.5-7.5h-97c-9.885.294-9.936 14.689 0 15z"/><path d="m275.493 320.001c9.877-.29 9.944-14.687 0-15h-123.986c-4.143 0-7.5 3.358-7.5 7.5s3.357 7.5 7.5 7.5z"/><path d="m335.908 267.001h68c7.444 0 13.5-6.056 13.5-13.5v-80c0-7.444-6.056-13.5-13.5-13.5h-68c-7.444 0-13.5 6.056-13.5 13.5v80c0 7.444 6.056 13.5 13.5 13.5zm1.5-92h65v77h-65z"/><path d="m102.906 269.001h47c4.143 0 7.5-3.358 7.5-7.5v-22.5h100.503c1.606 8.077 8.745 14.186 17.287 14.186h17.212c-1.188 23.66 17.723 43.888 41.5 43.814h72c22.883 0 41.5-18.617 41.5-41.5v-84c0-22.883-18.617-41.5-41.5-41.5h-72c-23.774-.071-42.691 20.151-41.5 43.814h-17.212c-8.542 0-15.681 6.109-17.287 14.186h-167.817c-14.061 0-25.5 11.439-25.5 25.5s11.439 25.5 25.5 25.5h5.314v22.5c0 4.142 3.358 7.5 7.5 7.5zm39.5-15h-32v-15h32zm165.002-82.5c0-14.612 11.888-26.5 26.5-26.5h72c14.612 0 26.5 11.888 26.5 26.5v84c0 14.612-11.888 26.5-26.5 26.5h-72c-14.612 0-26.5-11.888-26.5-26.5zm-34.842 19.943c0-1.45 1.18-2.629 2.63-2.629h17.212v49.372h-17.212c-1.45 0-2.63-1.18-2.63-2.629zm-192.974 22.057c0-5.79 4.71-10.5 10.5-10.5h167.475v21h-167.475c-5.79 0-10.5-4.711-10.5-10.5z"/><path d="m504.5 160.001c-4.143 0-7.5 3.358-7.5 7.5v149.257c0 43.997-35.789 79.79-79.779 79.79h-25.815c-5.95 0-10.849 4.847-10.92 10.802-.407 33.415 6.352 55.504 12.646 68.741-42.495-12.585-55.077-44.416-57.946-69.843-.626-5.53-5.289-9.7-10.848-9.7h-167.646c-4.143 0-7.5 3.358-7.5 7.5s3.357 7.5 7.5 7.5h164.053c3.305 26.776 21.771 72.023 81.571 81.952 3.391 0 6.611-1.666 8.571-4.553 2.36-3.476 2.402-7.995.106-11.512-5.791-8.874-15.304-29.041-15.522-65.887h21.75c52.262 0 94.779-42.523 94.779-94.79v-149.257c0-4.142-3.357-7.5-7.5-7.5z"/><path d="m417.221 18.5h-322.441c-52.262 0-94.78 42.523-94.78 94.79v203.468c0 52.268 42.518 94.79 94.779 94.79h27.144c9.981-.336 9.833-14.731 0-15h-27.143c-43.99 0-79.779-35.794-79.779-79.79v-203.468c-.001-43.996 35.788-79.79 79.778-79.79h322.441c43.99 0 79.779 35.794 79.779 79.79v19.749c0 4.142 3.357 7.5 7.5 7.5s7.5-3.358 7.5-7.5v-19.749c.001-52.267-42.517-94.79-94.778-94.79z"/></g></g></svg>