<svg id="Layer_1" enable-background="new 0 0 512.198 512.198" height="512" viewBox="0 0 512.198 512.198" width="512" xmlns="http://www.w3.org/2000/svg"><g><path d="m476.745 126.142c-5.286-8.384-17.692-1.098-12.928 7.607 20.41 34.693 31.755 74.137 33.008 114.523h-61.754c-1.053-52.744-13.197-102.804-34.829-144.586 11.897-3.064 23.17-6.527 33.697-10.375 3.747 4.112 7.386 8.351 10.879 12.752 2.575 3.245 7.293 3.786 10.537 1.212 3.244-2.575 3.786-7.293 1.211-10.538-89.738-118.737-278.923-129.586-381.641-21.982-160.61 160.046-45.752 437.425 181.023 437.015 196.399 1.331 321.079-217.046 220.797-385.628zm-43.06 292.208c-10.483-3.821-21.703-7.261-33.542-10.306 21.694-41.82 33.874-91.95 34.928-144.773h61.746c-1.833 59.649-25.441 113.908-63.132 155.079zm-355.44.044c-37.715-41.177-61.339-95.453-63.173-155.123h61.746c1.055 52.839 13.242 102.982 34.947 144.81-11.831 3.047-23.044 6.49-33.52 10.313zm-.148-325.086c10.489 3.835 21.72 7.286 33.569 10.342-21.644 41.789-33.794 91.862-34.848 144.621h-61.745c1.831-59.592 25.395-113.806 63.024-154.963zm226.171-31.996c-5.849-18.366-12.358-32.647-19.482-42.816 36.373 9.497 68.642 36.628 92.543 75.135-19.567 4.097-40.583 7.162-62.572 9.123-3.056-15.198-6.57-29.135-10.489-41.442zm-14.292 4.552c3.607 11.328 6.861 24.119 9.719 38.056-28.434 1.868-59.069 1.865-87.498-.01 12.66-62.053 43.853-142.922 77.779-38.046zm21.514 130.241c-3.965-1.695-7.255-4.744-9.208-8.683l-16.444-33.178c-11.745-24.518-48.042-24.52-59.785.001 0-.001-16.444 33.176-16.444 33.176-1.953 3.94-5.243 6.989-9.208 8.684 1.8-27.647 4.857-53.847 8.979-77.36 30.256 2.092 62.872 2.095 93.133.01 4.12 23.512 7.177 49.706 8.977 77.35zm-103.828-134.919c-3.934 12.333-7.462 26.309-10.528 41.554-21.986-1.966-42.995-5.036-62.556-9.138 23.899-38.492 56.161-65.612 92.525-75.107-7.108 10.148-13.603 24.386-19.441 42.691zm-13.289 56.361c-4.287 24.803-7.421 52.382-9.182 81.393l-26.167 3.786c-21.146 2.591-34.479 26.218-26.058 45.546h-41.143c1.112-53.086 13.971-101.907 34.892-141.029 21.075 4.647 43.817 8.113 67.658 10.304zm-102.55 145.724h52.702s22.636 21.97 22.636 21.97c3.98 3.863 5.966 9.235 5.448 14.737-.389 4.124 2.64 7.782 6.764 8.17 4.126.396 7.782-2.64 8.17-6.764.947-10.053-2.674-19.861-9.935-26.907 0 0-26.608-25.825-26.608-25.825-5.088-4.938-6.824-11.903-4.645-18.63 2.194-6.772 7.733-11.427 14.816-12.452 0 0 36.772-5.32 36.772-5.32 10.857-1.571 20.242-8.362 25.103-18.167 0 0 16.444-33.177 16.444-33.177 3.158-6.37 9.309-10.173 16.453-10.173 7.145 0 13.295 3.803 16.453 10.173 0 0 16.444 33.178 16.444 33.178 4.86 9.804 14.245 16.595 25.103 18.167l36.772 5.32c7.083 1.024 12.622 5.679 14.816 12.452 2.18 6.727.443 13.691-4.645 18.63 0 0-26.608 25.824-26.608 25.824-7.869 7.637-11.458 18.639-9.6 29.429 0 0 6.281 36.465 6.281 36.465 1.199 6.959-1.505 13.605-7.233 17.778-5.793 4.219-13.04 4.75-19.391 1.427 0 0-32.891-17.217-32.891-17.217-9.707-5.081-21.298-5.082-31.007 0l-32.89 17.216c-6.351 3.323-13.599 2.792-19.391-1.427-5.729-4.173-8.433-10.819-7.234-17.777l.674-3.91c.704-4.082-2.035-7.961-6.117-8.665-4.08-.704-7.961 2.035-8.664 6.117l-.675 3.911c-3.281 16.987 8.558 34.389 25.348 38.017.782 5.457 1.749 11.669 2.917 18.363-23.811 2.188-46.533 5.648-67.594 10.287-20.977-39.154-33.874-88.048-34.988-141.22zm114.819 112.522c5.475-.615 35.255-17.646 40.755-20.143 5.353-2.802 11.743-2.802 17.094-.001 5.634 2.566 35.092 19.427 40.754 20.157-.869 5.959-1.787 11.693-2.75 17.19-30.256-2.085-62.846-2.081-93.099.011-.963-5.505-1.883-11.246-2.754-17.214zm-9.448 33.215c5.942 29.35 15.463 63.435 29.909 84.038-36.304-9.479-68.518-36.527-92.405-74.918 19.547-4.093 40.538-7.157 62.496-9.12zm15.019-1.164c28.427-1.876 59.037-1.88 87.467-.011-26.32 118.523-61.128 118.559-87.467.011zm102.486 1.15c21.963 1.957 42.958 5.016 62.511 9.104-23.886 38.402-56.103 65.46-92.411 74.944 14.433-20.583 23.949-54.635 29.9-84.048zm2.785-14.804c1.164-6.669 2.129-12.874 2.914-18.343 16.791-3.643 28.628-21.028 25.348-38.023 0 0-6.281-36.465-6.281-36.465-1.018-5.907.95-11.933 5.264-16.119l22.636-21.97h52.702c-1.113 53.158-14.004 102.041-34.975 141.189-21.067-4.632-43.793-8.087-67.608-10.269zm102.583-145.919h-41.143c8.419-19.336-4.911-42.951-26.058-45.546 0 0-26.166-3.786-26.166-3.786-1.761-29.007-4.894-56.58-9.18-81.379 23.842-2.185 46.59-5.645 67.671-10.288 20.912 39.117 33.764 87.927 34.876 140.999zm2.341-166.799c-9.356 3.187-19.282 6.074-29.693 8.651-13.451-22.929-32.285-45.218-51.714-59.955 30.131 11.331 57.8 28.687 81.407 51.304zm-294.05-5.681c-3.195 4.623-6.249 9.395-9.165 14.297-10.351-2.566-20.22-5.439-29.528-8.609 23.095-22.044 50.557-39.542 80.93-51.082-15.38 11.899-29.605 27.113-42.237 45.394zm-38.532 354.425c9.292-3.157 19.145-6.019 29.475-8.577 13.377 22.739 32.042 44.834 51.294 59.505-30.302-11.514-57.707-28.957-80.769-50.928zm293.706 5.534c3.162-4.576 6.187-9.295 9.076-14.145 10.337 2.555 20.197 5.416 29.496 8.573-23.07 21.989-50.49 39.446-80.81 50.966 15.381-11.898 29.605-27.112 42.238-45.394z"/></g></svg>