<svg id="Layer_1" enable-background="new 0 0 512.038 512.038" height="512" viewBox="0 0 512.038 512.038" width="512" xmlns="http://www.w3.org/2000/svg"><g><g><path d="m506.547 72.584c6.659-31.705 6.09-58.383 4.33-64.995-.839-3.15-3.316-5.628-6.466-6.466-8.046-2.141-57.043-3.332-106.666 17.016-3.832 1.572-5.665 5.953-4.094 9.785s5.949 5.666 9.785 4.094c11.306-4.637 22.622-8.075 33.339-10.602l53.813 53.818c-17.814 86.178-86.293 123.663-147.111 160.435l-67.121-67.128c13.921-23.639 57.052-97.76 97.155-121.027 3.482-2.243 4.487-6.884 2.245-10.367s-6.884-4.487-10.366-2.245c-13.902 8.946-25.632 19.149-36.397 31.266-178.642-68.438-345.044 128.067-248.26 292.921-37.616 54.983-68.244 114.107-79.509 136.654-4.825 9.538 5.55 19.9 15.069 15.069 19.091-9.54 57.289-29.349 98.621-54.832 3.525-2.174 4.621-6.795 2.447-10.321-2.174-3.527-6.794-4.622-10.319-2.448-34.418 21.221-66.642 38.462-87.219 49.002 21.37-41.688 74.778-139.957 129.511-194.695 52.69-52.695 90.633-48.909 104.495-44.833 2.661.782 4.717 2.838 5.499 5.498 4.074 13.867 7.862 51.81-44.83 104.506-19.153 19.156-45.473 39.947-78.227 61.797-8.053 5.703-.126 17.744 8.324 12.479 2.837-1.893 5.611-3.776 8.356-5.655 164.943 96.813 361.299-69.731 292.89-248.282 35.518-29.872 54.925-79.478 60.706-110.444zm-9.746-57.439c.461 7.119.37 22.818-2.728 42.359l-39.581-39.584c19.33-3.099 34.987-3.304 42.309-2.775zm-52.62 248.359c-1.795 45.592-19.861 87.072-48.553 118.771-7.448-2.678-15.357-5.115-23.659-7.305 16.428-32.4 25.733-70.909 26.756-111.466zm-233.869 123.681c4.432 19.287 10.68 39.144 19.309 53.133-16.832-5.219-32.754-15.458-47.068-30.368 10.149-7.756 19.414-15.354 27.759-22.765zm13.197-9.834c21.32-1.352 43.802-1.354 65.038-.035-5.761 30.622-20.558 67.687-32.527 67.029-9.271 0-22.766-20.763-32.511-66.994zm58.949 62.932c8.875-13.74 17.153-41.219 21.164-61.815 15.898 1.465 31.134 3.667 45.416 6.561-17.554 27.463-40.626 47.177-66.58 55.254zm23.933-76.614c4.748-27.992 7.573-60.11 8.181-93.826 3.794-.234 9.172-4.466 12.383-6.339h17.932l11.771 29.183c2.996 8.003 14.336 9.771 19.62 2.998 0 0 5.604-6.837 5.604-6.837-3.679 30.703-12.425 58.859-24.911 82.53-15.826-3.428-32.813-6.018-50.58-7.709zm-117.144-115.116c-.276-.031-.556-.05-.84-.05h-60.087c1.082-40.488 10.874-77.73 26.692-107.762 15.772 3.419 32.767 6.013 50.616 7.723-4.85 28.649-7.691 61.628-8.202 96.208-2.721 1.185-5.447 2.47-8.179 3.881zm-121.388-.05c1.793-45.551 19.83-86.998 48.478-118.686 7.436 2.681 15.349 5.128 23.681 7.327-16.394 32.378-25.681 70.846-26.703 111.359zm161.723-176.778c-8.944 13.879-17.172 41.325-21.19 61.933-15.975-1.484-31.221-3.69-45.454-6.576 17.561-27.517 40.658-47.271 66.644-55.357zm-4.793 57.093c6.448-31.332 21.053-62.134 31.232-61.155 7.568-.001 18.715 14.9 27.876 47.851-19.04-.522-36.485-5.489-52.685 8.04-.001 0-6.423 5.264-6.423 5.264zm72.376-21.463c-3.809-12.911-8.689-25.666-14.829-35.613 10.274 3.2 20.273 8.251 29.703 15.063-5.136 6.733-10.135 13.685-14.874 20.55zm-56.446 27.802c5.164-4.233 11.685-6.369 18.344-5.991l22.839 1.263c-7.07 11.123-12.844 20.803-16.623 27.288l-34.904-14.081zm140.869 94.966 1.263 22.842c.369 6.666-1.759 13.181-5.991 18.345l-8.477 10.344-14.081-34.907c6.485-3.779 16.164-9.554 27.286-16.624zm-113.244-48.379 61.932 61.938-17.48 11.012-55.464-55.469zm-114.173-68.485c-2.312 3.347-4.528 6.795-6.657 10.326-6.787-1.705-13.307-3.567-19.491-5.598 15.171-14.082 32.655-25.7 51.818-34.211-9.22 8.289-17.834 18.141-25.67 29.483zm-86.311 150.245h45.45c.396 15.572 2.036 30.963 4.869 45.89-9.52 11.264-18.872 23.455-27.901 36.057-13.601-25.177-21.279-53.206-22.418-81.947zm70.867 23.407c-2.591 2.591-5.178 5.283-7.758 8.05-1.481-10.325-2.366-20.845-2.651-31.458h37.255c-8.929 6.653-17.888 14.45-26.846 23.408zm119.331-48.618c-9.442-2.779-25.055-4.871-45.531.926.669-29.974 3.124-58.513 7.14-83.729l37.864 15.276-13.303 21.12c-3.514 5.581-2.711 12.736 1.951 17.4l39.213 39.217h-14.071c-2.945-4.887-7.625-8.552-13.263-10.21zm14.744 61.167c4.139-14.657 4.238-26.776 2.948-35.956h23.911c-.355 35.755-3.23 69.781-8.272 98.961-18.03-1.184-37.051-1.452-55.356-.762 18.643-20.952 31.006-41.838 36.769-62.243zm-106.217 122.302c1.298-.931 2.584-1.86 3.858-2.786 3.108 3.315 6.289 6.436 9.54 9.355-4.546-2.006-9.013-4.2-13.398-6.569zm191.284-23.014c2.291-3.317 4.487-6.733 6.598-10.231 6.763 1.698 13.259 3.564 19.451 5.594-15.148 14.041-32.599 25.627-51.72 34.119 9.22-8.287 17.834-18.139 25.671-29.482zm86.317-150.245h-45.463c-.242-9.476-.936-18.918-2.083-28.195 12.266-8.21 25.229-17.443 37.026-26.955 6.259 17.731 9.784 36.22 10.52 55.15z"/><path d="m362.85 149.167c7.506 7.506 17.365 11.259 27.224 11.259 33.817.227 51.455-41.584 27.221-65.709-37.434-34.698-89.136 17.028-54.445 54.45zm10.606-43.843c4.582-4.582 10.599-6.872 16.618-6.872 20.642-.138 31.407 25.383 16.616 40.108-22.849 21.182-54.407-10.394-33.234-33.236z"/></g></g></svg>