<svg id="Layer_1" enable-background="new 0 0 511.859 511.859" height="512" viewBox="0 0 511.859 511.859" width="512" xmlns="http://www.w3.org/2000/svg"><g><g><path d="m475.929 206.666c-4.142 0-7.5 3.358-7.5 7.5v242.192c0 22.332-18.168 40.5-40.5 40.5h-253c-4.142 0-7.5 3.358-7.5 7.5s3.358 7.5 7.5 7.5h253c30.603 0 55.5-24.897 55.5-55.5v-242.192c0-4.142-3.358-7.5-7.5-7.5z"/><path d="m427.929 56.859h-28.593v-21.5h38.593c4.142 0 7.5-3.358 7.5-7.5s-3.358-7.5-7.5-7.5h-38.687c-3.107-27.155-41.715-27.135-44.812 0h-76.188c-3.107-27.155-41.715-27.135-44.812 0h-76.188c-3.107-27.155-41.715-27.135-44.813 0h-38.5c-4.142 0-7.5 3.358-7.5 7.5s3.358 7.5 7.5 7.5h38.407v21.5h-28.407c-30.603 0-55.5 24.897-55.5 55.5v344c0 30.603 24.897 55.5 55.5 55.5h55.974c4.142 0 7.5-3.358 7.5-7.5s-3.358-7.5-7.5-7.5h-55.974c-22.332 0-40.5-18.168-40.5-40.5v-306.5h425v29c.298 9.897 14.692 9.926 15 0v-66.5c0-30.603-24.897-55.5-55.5-55.5zm-58.593-34.5c.305-9.887 14.681-9.931 15 0v70c-.308 9.895-14.683 9.924-15 0zm-91 13h76v21.5h-76zm-30-13c.305-9.887 14.681-9.931 15 0v70c-.308 9.895-14.683 9.924-15 0zm-91 13h76v21.5h-76zm-30-13c.305-9.887 14.681-9.931 15 0v70c-.308 9.895-14.683 9.924-15 0zm-83.907 112.5v-22.5c0-22.332 18.168-40.5 40.5-40.5h28.407v20.5c0 12.407 10.094 22.5 22.5 22.5s22.5-10.093 22.5-22.5v-20.5h76v20.5c0 12.407 10.094 22.5 22.5 22.5s22.499-10.093 22.499-22.5v-20.5h76v20.5c0 12.407 10.094 22.5 22.5 22.5s22.5-10.093 22.5-22.5v-20.5h28.593c22.332 0 40.5 18.168 40.5 40.5v22.5z"/><path d="m123.929 246.359h42c9.098 0 16.5-7.402 16.5-16.5v-42c0-9.098-7.402-16.5-16.5-16.5h-42c-9.098 0-16.5 7.402-16.5 16.5v42c0 9.098 7.402 16.5 16.5 16.5zm-1.5-58.5c0-.827.673-1.5 1.5-1.5h42c.827 0 1.5.673 1.5 1.5v42c0 .827-.673 1.5-1.5 1.5h-42c-.827 0-1.5-.673-1.5-1.5z"/><path d="m234.836 246.359h42c9.098 0 16.5-7.402 16.5-16.5v-42c0-9.098-7.402-16.5-16.5-16.5h-42c-9.098 0-16.5 7.402-16.5 16.5v42c0 9.098 7.402 16.5 16.5 16.5zm-1.5-58.5c0-.827.673-1.5 1.5-1.5h42c.827 0 1.5.673 1.5 1.5v42c0 .827-.673 1.5-1.5 1.5h-42c-.827 0-1.5-.673-1.5-1.5z"/><path d="m345.743 246.359h42c9.098 0 16.5-7.402 16.5-16.5v-42c0-9.098-7.402-16.5-16.5-16.5h-42c-9.098 0-16.5 7.402-16.5 16.5v42c0 9.098 7.402 16.5 16.5 16.5zm-1.5-58.5c0-.827.673-1.5 1.5-1.5h42c.827 0 1.5.673 1.5 1.5v42c0 .827-.673 1.5-1.5 1.5h-42c-.827 0-1.5-.673-1.5-1.5z"/><path d="m107.429 329.609c0 9.098 7.402 16.5 16.5 16.5h42c9.098 0 16.5-7.402 16.5-16.5v-42c0-9.098-7.402-16.5-16.5-16.5h-42c-9.098 0-16.5 7.402-16.5 16.5zm15-42c0-.827.673-1.5 1.5-1.5h42c.827 0 1.5.673 1.5 1.5v42c0 .827-.673 1.5-1.5 1.5h-42c-.827 0-1.5-.673-1.5-1.5z"/><path d="m218.336 329.609c0 9.098 7.402 16.5 16.5 16.5h42c9.098 0 16.5-7.402 16.5-16.5v-42c0-9.098-7.402-16.5-16.5-16.5h-42c-9.098 0-16.5 7.402-16.5 16.5zm15-42c0-.827.673-1.5 1.5-1.5h42c.827 0 1.5.673 1.5 1.5v42c0 .827-.673 1.5-1.5 1.5h-42c-.827 0-1.5-.673-1.5-1.5z"/><path d="m329.243 329.609c0 9.098 7.402 16.5 16.5 16.5h42c9.098 0 16.5-7.402 16.5-16.5v-42c0-9.098-7.402-16.5-16.5-16.5h-42c-9.098 0-16.5 7.402-16.5 16.5zm15-42c0-.827.673-1.5 1.5-1.5h42c.827 0 1.5.673 1.5 1.5v42c0 .827-.673 1.5-1.5 1.5h-42c-.827 0-1.5-.673-1.5-1.5z"/><path d="m107.429 429.359c0 9.098 7.402 16.5 16.5 16.5h42c9.098 0 16.5-7.402 16.5-16.5v-42c0-9.098-7.402-16.5-16.5-16.5h-42c-9.098 0-16.5 7.402-16.5 16.5zm15-42c0-.827.673-1.5 1.5-1.5h42c.827 0 1.5.673 1.5 1.5v42c0 .827-.673 1.5-1.5 1.5h-42c-.827 0-1.5-.673-1.5-1.5z"/><path d="m218.336 429.359c0 9.098 7.402 16.5 16.5 16.5h42c9.098 0 16.5-7.402 16.5-16.5v-42c0-9.098-7.402-16.5-16.5-16.5h-42c-9.098 0-16.5 7.402-16.5 16.5zm15-42c0-.827.673-1.5 1.5-1.5h42c.827 0 1.5.673 1.5 1.5v42c0 .827-.673 1.5-1.5 1.5h-42c-.827 0-1.5-.673-1.5-1.5z"/><path d="m329.243 429.359c0 9.098 7.402 16.5 16.5 16.5h42c9.098 0 16.5-7.402 16.5-16.5v-42c0-9.098-7.402-16.5-16.5-16.5h-42c-9.098 0-16.5 7.402-16.5 16.5zm15-42c0-.827.673-1.5 1.5-1.5h42c.827 0 1.5.673 1.5 1.5v42c0 .827-.673 1.5-1.5 1.5h-42c-.827 0-1.5-.673-1.5-1.5z"/></g></g></svg>