<svg id="Layer_1" enable-background="new 0 0 512 512" height="512" viewBox="0 0 512 512" width="512" xmlns="http://www.w3.org/2000/svg"><g><path d="m479.5 210.5h-11.062v-104c0-12.369-10.033-22.437-22.388-22.497l-18.219-18.219c-12.671-12.671-33.29-12.671-45.962 0l-21.401 21.401c-18.264-11.336-38.076-19.549-58.968-24.445v-30.24c0-17.92-14.58-32.5-32.5-32.5h-26c-17.92 0-32.5 14.58-32.5 32.5v30.24c-7.002 1.643-13.962 3.683-20.725 6.075-9.202 3.563-4.493 17.159 5.002 14.142 7.057-2.497 14.344-4.577 21.66-6.183 5.336-1.172 9.063-5.792 9.063-11.234v-33.04c0-9.649 7.851-17.5 17.5-17.5h26c9.649 0 17.5 7.851 17.5 17.5v33.04c0 5.443 3.727 10.062 9.063 11.234 21.065 4.626 40.975 12.88 59.177 24.532 1.937 1.24 4.102 1.846 6.249 1.846 2.957 0 5.876-1.15 8.106-3.38 0 0 23.38-23.38 23.38-23.38 6.823-6.822 17.926-6.823 24.749 0 0 0 13.525 13.525 13.525 13.525-4.491 4.116-7.312 10.026-7.312 16.584v6.231c-4.992 5.646-21.447 23.065-49.973 42.203-92.818-108.305-272.473-41.729-272.422 101.068-.061 142.227 178.414 209.106 271.658 101.947 28.855 19.015 45.557 35.858 50.738 41.428v6.122c0 6.558 2.821 12.468 7.312 16.584 0 0-13.525 13.525-13.525 13.525-3.305 3.305-7.7 5.125-12.375 5.125s-9.069-1.82-12.375-5.125c0 0-23.38-23.379-23.38-23.379-3.85-3.85-9.752-4.481-14.355-1.535-18.203 11.652-38.113 19.906-59.177 24.532-5.336 1.172-9.063 5.792-9.063 11.234v33.04c0 9.649-7.851 17.5-17.5 17.5h-26c-9.649 0-17.5-7.851-17.5-17.5v-33.04c0-5.443-3.727-10.062-9.063-11.234-21.065-4.626-40.975-12.88-59.178-24.532-4.602-2.947-10.505-2.315-14.355 1.535l-23.38 23.379c-6.823 6.823-17.926 6.823-24.749 0 0 0-18.384-18.384-18.384-18.384-6.823-6.823-6.823-17.926 0-24.749l23.379-23.38c3.85-3.85 4.481-9.753 1.535-14.355-11.652-18.203-19.906-38.113-24.532-59.177-1.172-5.336-5.792-9.063-11.234-9.063h-33.04c-9.649 0-17.5-7.851-17.5-17.5v-26c0-9.649 7.851-17.5 17.5-17.5h33.04c5.443 0 10.062-3.727 11.234-9.063 4.626-21.065 12.88-40.975 24.532-59.177 2.946-4.603 2.315-10.506-1.535-14.355 0 0-23.38-23.38-23.38-23.38-6.823-6.823-6.823-17.926 0-24.749 0 0 18.384-18.385 18.384-18.385 6.824-6.822 17.926-6.823 24.749 0 0 0 23.38 23.38 23.38 23.38 3.851 3.851 9.753 4.48 14.355 1.535 2.371-1.518 4.808-3 7.243-4.404 8.377-5.111 1.347-17.705-7.493-12.994-1.833 1.057-3.667 2.154-5.477 3.277l-21.401-21.401c-12.671-12.671-33.29-12.671-45.962 0l-18.383 18.384c-12.672 12.671-12.672 33.29 0 45.962l21.401 21.401c-11.336 18.264-19.55 38.076-24.446 58.968h-30.24c-17.92 0-32.5 14.58-32.5 32.5v26c0 17.92 14.58 32.5 32.5 32.5h30.24c4.896 20.891 13.109 40.704 24.445 58.968l-21.4 21.401c-12.672 12.672-12.672 33.29 0 45.962l18.384 18.384c12.671 12.672 33.29 12.672 45.962 0l21.401-21.4c18.264 11.335 38.077 19.549 58.968 24.445v30.24c0 17.92 14.58 32.5 32.5 32.5h26c17.92 0 32.5-14.58 32.5-32.5v-30.24c20.891-4.896 40.704-13.109 58.968-24.445l21.401 21.4c12.672 12.672 33.29 12.672 45.962 0l18.218-18.218c12.356-.06 22.389-10.128 22.389-22.497v-16.218c-.322-9.948-14.703-9.882-15 0v16.218c0 4.136-3.364 7.5-7.5 7.5s-7.5-3.364-7.5-7.5v-299c0-4.136 3.364-7.5 7.5-7.5s7.5 3.364 7.5 7.5v247.09c0 4.142 3.358 7.5 7.5 7.5s7.5-3.358 7.5-7.5v-52.09h11.062c17.92 0 32.5-14.58 32.5-32.5v-26c0-17.92-14.58-32.5-32.5-32.5zm-363.458 45.5c-.656-127.543 160.814-188.699 244.633-92.891-22.545 13.707-51.154 27.554-86.021 38.014-3.413-8.001-11.357-13.623-20.59-13.623h-40.126c-71.975.632-94.269 96.804-31.248 129.426v58.246c-39.959-24.671-66.648-68.86-66.648-119.172zm175.354 60.971c2.454 18.187-18.033 31.619-33.706 22.133v-14.902c7.575-1.24 13.88-6.296 16.874-13.125 5.78 1.896 11.394 3.864 16.832 5.894zm-29.958-14.846c0 4.066-3.308 7.375-7.374 7.375h-40.126c-29.5 0-53.5-24-53.5-53.5s24-53.5 53.5-53.5h40.126c4.066 0 7.374 3.308 7.374 7.375zm-47.5 22.375h28.752v70.821c-15.921-1.509-31.072-5.695-45-12.104v-60.681c5.212 1.274 10.65 1.964 16.248 1.964zm43.752 71.435v-40.497c22.404 7.518 47.166-9.194 48.724-32.535 20.522 8.551 38.306 17.84 53.41 26.938-26.176 28.965-62.973 45.627-102.134 46.094zm18.748-100.029v-79.659c73.056-23.295 107.125-46.199 147-81.911v243.836c-21.43-19.904-69.228-57.327-147-82.266zm220.562-26.906c0 9.649-7.851 17.5-17.5 17.5h-11.062v-61h11.062c9.649 0 17.5 7.851 17.5 17.5z"/></g></svg>