<svg id="Layer_1" enable-background="new 0 0 512 512" height="512" viewBox="0 0 512 512" width="512" xmlns="http://www.w3.org/2000/svg"><g><g><path d="m478.5 32h-445c-18.472 0-33.5 15.028-33.5 33.5v287.885c0 4.142 3.358 7.5 7.5 7.5s7.5-3.358 7.5-7.5v-226.385h482v276.5c0 10.201-8.299 18.5-18.5 18.5h-17v-233.5c0-15.164-12.337-27.5-27.5-27.5h-22.333c-9.958.342-9.879 14.694 0 15h22.333c6.893 0 12.5 5.607 12.5 12.5v264c0 6.893-5.607 12.5-12.5 12.5h-196c-6.893 0-12.5-5.607-12.5-12.5v-264c0-6.893 5.607-12.5 12.5-12.5h138.795c9.883-.273 9.93-14.704 0-15h-138.795c-15.164 0-27.5 12.336-27.5 27.5v233.5h-177c-10.201 0-18.5-8.299-18.5-18.5v-14.423c-.291-9.896-14.697-9.924-15 0v14.423c0 18.472 15.028 33.5 33.5 33.5h177v15.5c0 15.164 12.336 27.5 27.5 27.5h196c15.163 0 27.5-12.336 27.5-27.5v-15.5h17c18.472 0 33.5-15.028 33.5-33.5v-338c0-18.472-15.028-33.5-33.5-33.5zm-463.5 80v-46.5c0-10.201 8.299-18.5 18.5-18.5h445c10.201 0 18.5 8.299 18.5 18.5v46.5z"/><path d="m74.231 55.672c-12.958 0-23.5 10.542-23.5 23.5 1.181 31.133 45.823 31.125 47 0 0-12.958-10.542-23.5-23.5-23.5zm0 32c-4.687 0-8.5-3.813-8.5-8.5.399-11.25 16.603-11.247 17 0 0 4.687-3.813 8.5-8.5 8.5z"/><path d="m132.897 55.672c-12.958 0-23.5 10.542-23.5 23.5 1.181 31.133 45.823 31.125 47 0 0-12.958-10.542-23.5-23.5-23.5zm0 32c-4.687 0-8.5-3.813-8.5-8.5.399-11.25 16.603-11.247 17 0 0 4.687-3.813 8.5-8.5 8.5z"/><path d="m191.564 55.672c-12.958 0-23.5 10.542-23.5 23.5 1.181 31.133 45.823 31.125 47 0 0-12.958-10.542-23.5-23.5-23.5zm0 32c-4.687 0-8.5-3.813-8.5-8.5.399-11.25 16.603-11.247 17 0 0 4.687-3.813 8.5-8.5 8.5z"/><path d="m55 204h49.717c9.9-.3 9.924-14.692 0-15h-49.717c-4.142 0-7.5 3.358-7.5 7.5s3.358 7.5 7.5 7.5z"/><path d="m55 242h106c9.882-.293 9.939-14.688 0-15h-106c-9.882.293-9.939 14.688 0 15z"/><path d="m55 280h106c9.882-.293 9.939-14.688 0-15h-106c-9.882.293-9.939 14.688 0 15z"/><path d="m55 318h106c9.882-.293 9.939-14.688 0-15h-106c-9.882.293-9.939 14.688 0 15z"/><path d="m265 225h66.602c9.895-.298 9.928-14.691 0-15h-66.601c-9.896.298-9.929 14.691-.001 15z"/><path d="m407 248h-142c-4.143 0-7.5 3.358-7.5 7.5s3.357 7.5 7.5 7.5h142c9.871-.287 9.949-14.685 0-15z"/><path d="m414.5 293.5c0-4.142-3.357-7.5-7.5-7.5h-142c-4.143 0-7.5 3.358-7.5 7.5s3.357 7.5 7.5 7.5h142c4.143 0 7.5-3.358 7.5-7.5z"/><path d="m332.519 331.5c0-4.142-3.357-7.5-7.5-7.5h-60.019c-4.143 0-7.5 3.358-7.5 7.5s3.357 7.5 7.5 7.5h60.019c4.142 0 7.5-3.358 7.5-7.5z"/><path d="m302 437.36h68c32.44-1.223 32.466-47.767 0-49h-68c-32.44 1.223-32.466 47.767 0 49zm0-34h68c12.554.438 12.587 18.55 0 19h-68c-5.238 0-9.5-4.262-9.5-9.5s4.262-9.5 9.5-9.5z"/></g></g></svg>