<svg id="Layer_1" enable-background="new 0 0 512.334 512.334" height="512" viewBox="0 0 512.334 512.334" width="512" xmlns="http://www.w3.org/2000/svg"><g><g><path d="m374.111 251.736h41.185c22.883 0 41.5-18.617 41.5-41.5v-84c0-22.883-18.617-41.5-41.5-41.5h-41.185c-23.774-.071-42.691 20.152-41.5 43.814h-17.213c-8.542 0-15.68 6.109-17.286 14.186h-102.648c-14.061 0-25.5 11.439-25.5 25.5s11.439 25.5 25.5 25.5h5.315v22.5c0 4.142 3.357 7.5 7.5 7.5h47c4.143 0 7.5-3.358 7.5-7.5v-22.5h35.332c1.606 8.077 8.744 14.186 17.286 14.186h17.213c-1.19 23.662 17.726 43.886 41.501 43.814zm-26.5-125.5c0-14.612 11.888-26.5 26.5-26.5h41.185c14.612 0 26.5 11.888 26.5 26.5v84c0 14.612-11.888 26.5-26.5 26.5h-41.185c-14.612 0-26.5-11.888-26.5-26.5zm-162.647 42c0-5.79 4.71-10.5 10.5-10.5h102.305v21h-102.305c-5.79 0-10.5-4.71-10.5-10.5zm62.816 40.5h-32v-15h32zm67.618-15.814c-1.449 0-2.629-1.18-2.629-2.629v-44.113c0-1.45 1.18-2.629 2.629-2.629h17.213v49.372h-17.213z"/><path d="m376.11 221.736h37.185c7.444 0 13.5-6.056 13.5-13.5v-80c0-7.444-6.056-13.5-13.5-13.5h-37.185c-7.444 0-13.5 6.056-13.5 13.5v80c0 7.444 6.055 13.5 13.5 13.5zm1.5-92h34.185v77h-34.185z"/><path d="m435.413 314.736c42.33 0 76.768-34.438 76.768-76.768v-139.464c0-42.33-34.438-76.768-76.768-76.768h-10.848c-4.143 0-7.5 3.358-7.5 7.5s3.357 7.5 7.5 7.5h10.848c34.059 0 61.768 27.709 61.768 61.768v139.465c0 34.059-27.709 61.768-61.768 61.768h-141.769c-4.308 0-8.264 2.5-10.077 6.368-8.981 19.136-25.89 30.361-40.996 36.855 4.896-10.346 6.531-22.05 6.868-31.673.34-6.145-5.016-11.664-11.155-11.55h-30.336c-34.059 0-61.768-27.709-61.768-61.768v-139.465c0-34.059 27.709-61.768 61.768-61.768h181.078c4.143 0 7.5-3.358 7.5-7.5s-3.357-7.5-7.5-7.5h-82.243c-137.794-69.758-309.177 37.492-306.601 192.145-1.464 171.016 197.645 274.305 336.364 174.591l9.312 9.312c6.347 6.333 15.881 7.691 23.662 3.755l24.064 24.064c-.318 3.244.761 6.599 3.24 9.078l58.975 58.973c2.38 2.397 5.727 3.583 9.086 3.249 0 0 8.885 8.885 8.885 8.885 8.376 8.728 23.445 8.729 31.819 0 8.729-8.375 8.729-23.444.001-31.82 0 0-8.892-8.892-8.892-8.892.318-3.243-.761-6.599-3.24-9.079l-58.975-58.974c-2.479-2.479-5.835-3.559-9.079-3.241l-24.063-24.063c3.881-7.659 2.637-17.27-3.756-23.663l-9.299-9.299c4.958-7.037 9.481-14.397 13.574-22.021zm-43.959 66.309 21.534 21.534-10.607 10.606-21.534-21.534zm103.529 114.136c-2.792 2.91-7.814 2.909-10.606 0 0 0-7.081-7.081-7.081-7.081l10.607-10.607 7.082 7.081c2.908 2.793 2.908 7.815-.002 10.607zm-14.768-31.214-16.445 16.445-53.702-53.701 16.445-16.445zm-93.236-107.305c2.107 2.107 2.107 5.536 0 7.644l-22.87 22.871c-2.107 2.107-5.538 2.107-7.644 0l-7.854-7.854c11.185-9.13 21.408-19.354 30.516-30.513zm-173.299 55.716c-109.453 0-198.5-89.047-198.5-198.5-1.816-127.909 125.567-225.808 248.612-192.142h-55.844c-17.988 0-34.537 6.235-47.637 16.635-155.869 47.997-176.726 260.47-32.628 337.581 3.582 1.929 8.187.597 10.144-3.094 1.947-3.656.562-8.198-3.093-10.146-121.551-63.389-117.564-242.762 5.629-300.582-5.854 10.833-9.183 23.221-9.183 36.374v139.465c0 42.33 34.438 76.768 76.768 76.768h26.281c-.895 11.741-4.215 25.765-14.165 33.214-3.441 2.577-4.559 7.087-2.717 10.968 1.832 3.914 6.157 5.871 10.215 4.833 18.802-4.666 52.294-17.196 68.479-49.016h52.517c-40.832 55.971-116.377 81.035-182.847 60.689-3.966-1.177-8.145 1.081-9.326 5.051s1.08 8.146 5.051 9.327c76.173 23.285 162.251-7.968 205.442-75.067h17.804c-35.663 60.508-100.181 97.642-171.002 97.642z"/></g></g></svg>