<svg id="Layer_1" enable-background="new 0 0 512 512" height="512" viewBox="0 0 512 512" width="512" xmlns="http://www.w3.org/2000/svg"><g><g><path d="m498.5 413.429h-21.448c4.978-6.468 7.948-14.556 7.948-23.33v-35.555c-.318-9.942-14.724-9.866-15 0v35.555c0 12.864-10.466 23.33-23.33 23.33h-381.34c-12.864 0-23.33-10.466-23.33-23.33v-244.34c0-12.864 10.466-23.33 23.33-23.33h44.466c-1.484 4.911-2.65 9.919-3.505 15h-29.891c-10.697 0-19.4 8.703-19.4 19.4v222.2c0 10.697 8.703 19.4 19.4 19.4h359.2c10.697 0 19.4-8.703 19.4-19.4v-222.2c0-10.697-8.703-19.4-19.4-19.4h-87.76c-.865-5.114-2.047-10.121-3.527-15h102.357c12.864 0 23.33 10.466 23.33 23.33v172.478c0 4.142 3.357 7.5 7.5 7.5s7.5-3.358 7.5-7.5v-172.478c0-21.135-17.194-38.33-38.33-38.33h-108.006c-30.236-70.232-125.766-95.597-186.912-46.119-3.265 2.547-3.846 7.26-1.297 10.525 2.549 3.266 7.263 3.846 10.526 1.298 69.167-55.063 174.339-3.679 173.583 84.797-5.4 142.396-209.605 142.398-214.999-.003 0-21.939 6.564-43.038 18.982-61.015 5.393-8.325-6.469-16.508-12.342-8.525-4.184 6.057-7.769 12.431-10.766 19.042h-50.109c-21.136 0-38.33 17.195-38.33 38.33v244.34c0 8.774 2.97 16.863 7.948 23.33h-21.448c-7.444 0-13.5 6.056-13.5 13.5v17.819c0 17.469 14.212 31.681 31.681 31.681h448.639c17.469 0 31.681-14.212 31.681-31.681v-17.819c-.001-7.444-6.057-13.5-13.501-13.5zm-115.342-110.013 7.081 7.081c2.925 2.924 2.925 7.683.001 10.606-2.925 2.923-7.683 2.925-10.607 0l-7.081-7.081zm-24.133 2.919-26.573-26.573 16.445-16.445 26.573 26.573zm-34.259-40.099-16.592-16.591c3.747-3.317 7.289-6.86 10.606-10.606l16.591 16.591zm-97.702 14.193c25.661 0 49.5-7.937 69.203-21.477l19.702 19.702c-.318 3.244.761 6.599 3.24 9.078l31.847 31.846c2.484 2.472 5.789 3.557 9.078 3.24 7.662 7.389 13.112 15.581 24.802 15.471 19.764.134 30.073-24.299 15.91-38.399 0 0-8.891-8.891-8.891-8.891.318-3.244-.761-6.6-3.24-9.079l-31.848-31.848c-2.479-2.477-5.833-3.555-9.076-3.238l-19.702-19.702c14.522-20.976 22.66-47.571 21.347-74.703h86.164c2.427 0 4.4 1.974 4.4 4.4v222.2c0 2.426-1.974 4.4-4.4 4.4h-359.2c-2.427 0-4.4-1.974-4.4-4.4v-222.2c0-2.426 1.974-4.4 4.4-4.4h28.298c-3.318 69.377 52.907 128.185 122.366 128zm73.404 148-3.115 9h-82.705l-3.115-9zm196.532 16.319c0 9.198-7.483 16.681-16.681 16.681h-448.638c-9.197 0-16.681-7.483-16.681-16.681v-16.319h180.659l5.444 15.727c1.716 4.949 6.386 8.273 11.623 8.273h86.549c5.237 0 9.907-3.325 11.624-8.276l5.443-15.724h180.658z"/><path d="m227.064 250.429c51.005 0 92.5-41.495 92.5-92.5-4.65-122.545-180.369-122.512-185 .001 0 51.004 41.496 92.499 92.5 92.499zm0-170c42.733 0 77.5 34.767 77.5 77.5-3.897 102.673-151.119 102.645-155-.001 0-42.732 34.767-77.499 77.5-77.499z"/></g></g></svg>