<svg id="Layer_1" enable-background="new 0 0 512 512" height="512" viewBox="0 0 512 512" width="512" xmlns="http://www.w3.org/2000/svg"><g><g><path d="m34.5 304.115c4.142 0 7.5-3.358 7.5-7.5v-186.788c0-12.863 10.464-23.327 23.327-23.327h319.365c4.142 0 7.5-3.358 7.5-7.5s-3.358-7.5-7.5-7.5h-319.365c-21.134 0-38.327 17.193-38.327 38.327v186.788c0 4.142 3.358 7.5 7.5 7.5z"/><path d="m57 120.904v222.192c0 10.699 8.705 19.404 19.404 19.404h359.192c10.699 0 19.404-8.705 19.404-19.404v-222.192c0-10.699-8.705-19.404-19.404-19.404h-359.192c-10.699 0-19.404 8.705-19.404 19.404zm383 0v222.192c0 2.428-1.976 4.404-4.404 4.404h-359.192c-2.428 0-4.404-1.976-4.404-4.404v-222.192c0-2.428 1.976-4.404 4.404-4.404h359.192c2.428 0 4.404 1.976 4.404 4.404z"/><path d="m498.5 377.5h-21.446c4.977-6.467 7.946-14.555 7.946-23.327v-244.346c0-21.134-17.193-38.327-38.327-38.327h-26.288c-9.981.327-9.829 14.738 0 15h26.288c12.863 0 23.327 10.464 23.327 23.327v244.346c0 12.863-10.464 23.327-23.327 23.327h-381.346c-12.863 0-23.327-10.464-23.327-23.327v-22.583c0-4.142-3.358-7.5-7.5-7.5s-7.5 3.358-7.5 7.5v22.583c0 8.772 2.969 16.86 7.946 23.327h-21.446c-7.444 0-13.5 6.056-13.5 13.5v17.819c0 17.469 14.212 31.681 31.681 31.681h448.638c17.469 0 31.681-14.212 31.681-31.681v-17.819c0-7.444-6.056-13.5-13.5-13.5zm-198.033 15-3.116 9h-82.703l-3.116-9zm196.533 16.319c0 9.198-7.483 16.681-16.681 16.681h-448.638c-9.198 0-16.681-7.483-16.681-16.681v-16.319h180.66l5.443 15.723c1.713 4.951 6.384 8.277 11.623 8.277h86.55c5.239 0 9.91-3.326 11.623-8.276l5.443-15.724h180.658z"/><path d="m119.385 313.885c12.407 0 22.5-10.093 22.5-22.5 5.746-151.201 222.523-151.123 228.231.001 0 12.405 10.093 22.499 22.5 22.499s22.5-10.093 22.5-22.5c-8.008-210.818-310.27-210.723-318.231.002 0 12.405 10.093 22.498 22.5 22.498zm136.615-166.616c79.465 0 144.115 64.65 144.115 144.116 0 4.135-3.365 7.5-7.5 7.5-4.136 0-7.5-3.365-7.5-7.5 0-71.195-57.921-129.116-129.115-129.116s-129.115 57.921-129.115 129.116c0 4.135-3.364 7.5-7.5 7.5-4.135 0-7.5-3.365-7.5-7.5 0-79.466 64.65-144.116 144.115-144.116z"/><path d="m273.256 285.609c8.028-26.319-2.221-64.021-7.993-83.26-1.267-4.081-4.989-6.823-9.263-6.823s-7.996 2.742-9.263 6.823c-5.776 19.249-16.014 56.934-7.998 83.264-19.969 15.987-8.644 48.862 17.261 48.887 25.908-.026 37.231-32.911 17.256-48.891zm-21.889-12.078c-1.866-14.943 1.204-33.563 4.633-48.141 3.719 16.89 7.672 37.227 3.347 54.321-2.188-.278-4.508-.278-6.696 0-.622-2.27-1.054-4.34-1.284-6.18zm4.633 45.969c-6.893 0-12.5-5.607-12.5-12.5.628-16.56 24.374-16.556 25 0 0 6.893-5.607 12.5-12.5 12.5z"/></g></g></svg>