<svg id="Layer_1" enable-background="new 0 0 511.849 511.849" height="512" viewBox="0 0 511.849 511.849" width="512" xmlns="http://www.w3.org/2000/svg"><g><path d="m489.349 422.924h-48v-233.5h3.167c11.948.254 19.894-13.503 13.7-23.723 0 0 0 0 0-.001 0 0-40.668-70.373-40.668-70.373-2.86-4.949-7.981-7.903-13.699-7.903s-10.839 2.954-13.7 7.903l-40.667 70.374c-6.19 10.211 1.749 23.981 13.7 23.722h3.167v53.247l-73-27.135v-69.611h3.167c11.948.254 19.894-13.503 13.7-23.723 0 0 0 0 0-.001l-40.668-70.373c-2.86-4.949-7.981-7.903-13.7-7.903-5.718 0-10.839 2.955-13.699 7.903l-40.667 70.373c-6.193 10.212 1.748 23.981 13.699 23.723h3.167v82.208l-73.308 54.5v-40.708h3.475c11.939.251 19.902-13.499 13.699-23.724 0 0-40.667-70.373-40.667-70.373-2.86-4.949-7.981-7.903-13.699-7.903s-10.839 2.954-13.699 7.903c0 0-40.667 70.373-40.667 70.373-6.19 10.216 1.745 23.979 13.699 23.723h2.859v104.773c0 4.143 3.358 7.5 7.5 7.5s7.5-3.357 7.5-7.5v-104.771h45v181h-45v-41.063c0-4.143-3.358-7.5-7.5-7.5s-7.5 3.357-7.5 7.5v41.063h-47.692c-29.656 1.06-29.941 43.822 0 45h318.39c9.879-.293 9.943-14.685 0-15h-318.39c-9.712-.257-10.113-14.594 0-15h467c4.136 0 7.5 3.364 7.5 7.5s-3.364 7.5-7.5 7.5h-113.447c-9.959.324-9.87 14.709 0 15h113.447c12.406 0 22.5-10.094 22.5-22.5s-10.093-22.5-22.499-22.5zm-422.167-196c-.143 0-.476 0-.712-.409-.233-.404-.069-.688 0-.809l40.667-70.373c.071-.123.236-.409.712-.409s.641.286.712.409l40.667 70.373c.07.121.233.404 0 .809-.236.409-.57.409-.712.409zm295.288-52.909c-.233-.405-.07-.688 0-.809l40.666-70.373c.071-.122.237-.409.713-.409s.642.287.712.409l40.667 70.372c.07.121.233.404 0 .81-.236.409-.569.409-.712.409h-81.334c-.143 0-.476 0-.712-.409zm3.879 84.66v164.25h-73v-191.386zm-151.88-128.16c-.233-.404-.069-.688 0-.809l40.667-70.373c.071-.123.236-.409.712-.409s.642.287.712.409l40.667 70.372c.07.121.233.404 0 .81-.236.409-.569.409-.712.409h-81.334c-.142 0-.475 0-.712-.409zm-69.428 170.808 73.308-54.5v176.102h-73.308zm88.308 121.601v-277h45v277zm148 0v-233.5h45v233.5z"/></g></svg>