<svg id="Layer_1" enable-background="new 0 0 512 512" height="512" viewBox="0 0 512 512" width="512" xmlns="http://www.w3.org/2000/svg"><g><g><path d="m124.888 47.172c0 12.958 10.542 23.5 23.5 23.5 31.133-1.181 31.125-45.823 0-47-12.958 0-23.5 10.542-23.5 23.5zm32 0c0 4.687-3.813 8.5-8.5 8.5-11.25-.399-11.247-16.602 0-17 4.687 0 8.5 3.813 8.5 8.5z"/><path d="m190.721 119.5h-40c-9.902.301-9.921 14.693 0 15h40c4.142 0 7.5-3.357 7.5-7.5s-3.358-7.5-7.5-7.5z"/><path d="m190.721 147.5h-40c-9.902.301-9.921 14.693 0 15h40c4.142 0 7.5-3.357 7.5-7.5s-3.358-7.5-7.5-7.5z"/><path d="m270.721 119.5h-40c-9.902.301-9.921 14.693 0 15h40c4.142 0 7.5-3.357 7.5-7.5s-3.358-7.5-7.5-7.5z"/><path d="m463.439 222.5c0-12.406-10.093-22.5-22.5-22.5h-18.781v-29.645c0-4.143-3.358-7.5-7.5-7.5s-7.5 3.357-7.5 7.5v29.645h-77.937v-83.827h77.937v18.183c0 4.143 3.358 7.5 7.5 7.5s7.5-3.357 7.5-7.5v-79.683c0-18.472-15.028-33.5-33.5-33.5h-61.797c-4.922-12.388-17.02-21.173-31.14-21.173h-72.611c-4.142 0-7.5 3.357-7.5 7.5s3.358 7.5 7.5 7.5h72.611c10.201 0 18.5 8.299 18.5 18.5v46.5h-206.218v-46.5c0-10.201 8.299-18.5 18.5-18.5h61.63c9.88-.286 9.938-14.692 0-15h-61.63c-18.472 0-33.5 15.028-33.5 33.5v166.5h-22.064c-26.461.607-30.847 37.234-5.65 44.281-.478 20.227-.147 36.029 13.131 52.674 0 0 69.732 87.143 69.732 87.143 2.588 3.235 7.308 3.761 10.542 1.17 3.234-2.588 3.758-7.308 1.17-10.541l-69.732-87.143c-10.849-13.506-10.018-26.394-9.843-42.584h351.77c.18 16.194.993 29.104-9.845 42.583 0 0-106.77 133.417-106.77 133.417h-118.551l-15.182-18.973c-2.588-3.234-7.306-3.76-10.542-1.17-3.234 2.588-3.758 7.308-1.17 10.541l15.79 19.732v73.37c0 4.143 3.358 7.5 7.5 7.5h125.76c4.142 0 7.5-3.357 7.5-7.5v-73.368l107.378-134.176c13.327-16.704 13.603-32.555 13.132-52.809 9.441-2.673 16.38-11.362 16.38-21.647zm-151.89 274.5h-110.76v-61h110.76zm95.609-442.327v46.5h-77.937v-65h59.437c10.201 0 18.5 8.299 18.5 18.5zm-299.155 40.327h206.218v105h-206.218zm332.936 135h-370c-4.136 0-7.5-3.364-7.5-7.5s3.364-7.5 7.5-7.5h370c9.776.259 10.028 14.656 0 15z"/></g></g></svg>