<svg id="Layer_1" enable-background="new 0 0 512 512" height="512" viewBox="0 0 512 512" width="512" xmlns="http://www.w3.org/2000/svg"><g><g><path d="m219.154 19.5h-185.654c-18.472 0-33.5 15.028-33.5 33.5v256.797c0 4.143 3.358 7.5 7.5 7.5s7.5-3.357 7.5-7.5v-195.297h222.654v344.5c0 10.201-8.299 18.5-18.5 18.5h-185.654c-10.201 0-18.5-8.299-18.5-18.5v-115.343c0-4.143-3.358-7.5-7.5-7.5s-7.5 3.357-7.5 7.5v115.343c0 18.472 15.028 33.5 33.5 33.5h185.654c18.472 0 33.5-15.028 33.5-33.5v-406c0-18.472-15.028-33.5-33.5-33.5zm-204.154 80v-46.5c0-10.201 8.299-18.5 18.5-18.5h185.654c10.201 0 18.5 8.299 18.5 18.5v46.5z"/><path d="m55.385 43.172c-12.958 0-23.5 10.542-23.5 23.5 1.181 31.133 45.823 31.125 47 0 0-12.958-10.542-23.5-23.5-23.5zm0 32c-4.687 0-8.5-3.813-8.5-8.5.399-11.25 16.602-11.247 17 0 0 4.686-3.813 8.5-8.5 8.5z"/><path d="m114.051 43.172c-12.958 0-23.5 10.542-23.5 23.5 1.181 31.133 45.823 31.125 47 0 0-12.958-10.542-23.5-23.5-23.5zm0 32c-4.687 0-8.5-3.813-8.5-8.5.399-11.25 16.602-11.247 17 0 0 4.686-3.813 8.5-8.5 8.5z"/><path d="m172.718 43.172c-12.958 0-23.5 10.542-23.5 23.5 1.181 31.133 45.823 31.125 47 0 0-12.958-10.542-23.5-23.5-23.5zm0 32c-4.687 0-8.5-3.813-8.5-8.5.399-11.25 16.602-11.247 17 0 0 4.686-3.813 8.5-8.5 8.5z"/><path d="m478.5 19.5h-23.468c-9.908.306-9.918 14.692 0 15h23.468c10.201 0 18.5 8.299 18.5 18.5v46.5h-206.218v-46.5c0-10.201 8.299-18.5 18.5-18.5h110.401c4.142 0 7.5-3.357 7.5-7.5s-3.358-7.5-7.5-7.5h-110.401c-18.472 0-33.5 15.028-33.5 33.5v183c0 18.472 15.028 33.5 33.5 33.5h169.218c18.472 0 33.5-15.028 33.5-33.5v-183c0-18.472-15.028-33.5-33.5-33.5zm18.5 216.5c0 10.201-8.299 18.5-18.5 18.5h-169.218c-10.201 0-18.5-8.299-18.5-18.5v-121.5h206.218z"/><path d="m307.667 66.672c0 12.958 10.542 23.5 23.5 23.5 31.133-1.181 31.125-45.823 0-47-12.959 0-23.5 10.542-23.5 23.5zm32 0c0 4.687-3.813 8.5-8.5 8.5-11.25-.399-11.247-16.602 0-17 4.687 0 8.5 3.813 8.5 8.5z"/><path d="m478.5 286.5h-169.218c-18.472 0-33.5 15.028-33.5 33.5v139c0 18.472 15.028 33.5 33.5 33.5h169.218c18.472 0 33.5-15.028 33.5-33.5v-139c0-18.472-15.028-33.5-33.5-33.5zm-187.718 33.5c0-10.201 8.299-18.5 18.5-18.5h169.218c10.201 0 18.5 8.299 18.5 18.5v46.5h-206.218zm206.218 139c0 10.201-8.299 18.5-18.5 18.5h-169.218c-10.201 0-18.5-8.299-18.5-18.5v-77.5h206.218z"/><path d="m331.167 310.172c-12.958 0-23.5 10.542-23.5 23.5 1.181 31.133 45.823 31.125 47 0 0-12.958-10.542-23.5-23.5-23.5zm0 32c-4.687 0-8.5-3.813-8.5-8.5.399-11.25 16.602-11.247 17 0 0 4.686-3.813 8.5-8.5 8.5z"/><path d="m59 183h62.85c9.896-.298 9.927-14.691 0-15h-62.849c-9.897.298-9.928 14.691-.001 15z"/><path d="m59 221h134c4.142 0 7.5-3.357 7.5-7.5s-3.358-7.5-7.5-7.5h-134c-9.873.289-9.947 14.686 0 15z"/><path d="m59 259h134c4.142 0 7.5-3.357 7.5-7.5s-3.358-7.5-7.5-7.5h-134c-9.873.289-9.947 14.686 0 15z"/><path d="m59 297h134c4.142 0 7.5-3.357 7.5-7.5s-3.358-7.5-7.5-7.5h-134c-9.873.289-9.947 14.686 0 15z"/><path d="m327 164h62.85c9.896-.298 9.927-14.691 0-15h-62.849c-9.897.298-9.928 14.691-.001 15z"/><path d="m327 202h134c4.142 0 7.5-3.357 7.5-7.5s-3.358-7.5-7.5-7.5h-134c-9.873.289-9.947 14.686 0 15z"/><path d="m92.308 382.423c-32.44 1.223-32.466 47.767 0 49h68c32.44-1.223 32.466-47.767 0-49zm77.5 24.5c0 5.238-4.262 9.5-9.5 9.5h-68c-5.238 0-9.5-4.262-9.5-9.5s4.262-9.5 9.5-9.5h68c5.238 0 9.5 4.262 9.5 9.5z"/><path d="m333.5 421h40c9.902-.301 9.921-14.693 0-15h-40c-4.142 0-7.5 3.357-7.5 7.5s3.358 7.5 7.5 7.5z"/><path d="m333.5 449h40c9.902-.301 9.921-14.693 0-15h-40c-4.142 0-7.5 3.357-7.5 7.5s3.358 7.5 7.5 7.5z"/><path d="m413.5 421h40c9.902-.301 9.921-14.693 0-15h-40c-4.142 0-7.5 3.357-7.5 7.5s3.358 7.5 7.5 7.5z"/></g></g></svg>