<svg id="Layer_1" enable-background="new 0 0 512 512" height="512" viewBox="0 0 512 512" width="512" xmlns="http://www.w3.org/2000/svg"><g><g><path d="m478.5 0h-52.73c-4.143 0-7.5 3.358-7.5 7.5s3.357 7.5 7.5 7.5h52.73c10.201 0 18.5 8.299 18.5 18.5v46.5h-482v-46.5c0-10.201 8.299-18.5 18.5-18.5h357.808c9.676-.198 10.134-14.623 0-15h-357.807c-18.473 0-33.501 15.028-33.501 33.5v338c0 18.472 15.028 33.5 33.5 33.5h110.632l-1.224 12.352c-.847 6.583 4.897 12.824 11.454 12.688 1.048 1.487 40.326-16.49 42.435-17.044l5.526 24.337c1.46 6.433 7.087 10.926 13.684 10.926h6.648c-.964 13.17-11.001 17.585-26.39 18.398-11.889.501-20.772-.147-27.956-2.041-4.006-1.057-8.107 1.335-9.163 5.341s1.335 8.108 5.341 9.164c6.897 1.818 14.818 2.697 24.524 2.697 24.957.854 47.665-7.964 48.645-33.559h36.693c1.262 22.052 17.176 32.357 40.765 33.384 26.138 1.102 36.327-3.303 46.177-7.562 37.012-17.197 64.986-3.641 90.438 22.919h-391.458c15.781-16.747 42.179-36.622 71.079-29.147 9.858 1.477 12.363-12.683 2.711-14.754-41.249-10.537-77.927 24.009-92.773 42.672-2.466 2.994-2.97 7.034-1.315 10.542s5.095 5.688 8.976 5.688h414.102c3.881 0 7.32-2.179 8.976-5.688 1.655-3.508 1.151-7.547-1.314-10.542-11.811-14.347-43.287-47.381-80.428-44.274-18.056 1.513-27.029 5.393-34.946 8.816-9.06 3.917-16.88 7.301-39.594 6.343-15.363-.807-25.448-5.233-26.395-18.397h6.644c6.597 0 12.224-4.493 13.683-10.925l5.526-24.339c2.232.601 41.296 18.499 42.436 17.044 6.556.135 12.301-6.104 11.455-12.687 0 0-1.224-12.353-1.224-12.353h110.63c18.472 0 33.5-15.028 33.5-33.5v-338c0-18.471-15.028-33.499-33.5-33.499zm-320.089 413.015 1.319-13.31c.658-6.644 3.76-12.755 8.734-17.208l17.044-15.257c2.865 12.864 5.627 23.791 7.54 31.049zm59.533-232.368h76.109c48.336 73.533 26.415 148.462 9.409 217.465h-94.927c-17.079-69.278-38.867-143.977 9.409-217.465zm10.078-15c11.601-15.973 22.613-27.133 27.973-31.849 5.371 4.724 16.382 15.882 27.98 31.849zm67.198 267.612h-78.44l-4.575-20.147h87.589zm23.73-34.969c1.913-7.258 4.675-18.185 7.541-31.049l17.044 15.257c4.975 4.453 8.076 10.564 8.734 17.208l1.319 13.31zm178.05-26.79c0 10.201-8.299 18.5-18.5 18.5h-112.974c-2.213-7.148-6.317-13.604-11.987-18.679l-23.473-21.011c16.367-73.451 10.232-127.28-26.605-182.822-17.707-27.128-36.973-45.588-42.898-49.02-2.816-1.629-6.318-1.629-9.139.003-34.782 27.065-79.223 93.903-78.385 158.493-.001 22.306 4.151 49.525 8.894 73.347l-23.473 21.012c-5.67 5.075-9.774 11.53-11.986 18.678h-112.974c-10.201 0-18.5-8.299-18.5-18.5v-276.501h482z"/><path d="m50.73 47.172c0 12.958 10.542 23.5 23.5 23.5 31.133-1.181 31.125-45.823 0-47-12.958 0-23.5 10.542-23.5 23.5zm32 0c0 4.687-3.813 8.5-8.5 8.5-11.25-.399-11.247-16.602 0-17 4.687 0 8.5 3.813 8.5 8.5z"/><path d="m109.397 47.172c0 12.958 10.542 23.5 23.5 23.5 31.133-1.181 31.125-45.823 0-47-12.958 0-23.5 10.542-23.5 23.5zm32 0c0 4.687-3.813 8.5-8.5 8.5-11.25-.399-11.247-16.602 0-17 4.687 0 8.5 3.813 8.5 8.5z"/><path d="m168.064 47.172c0 12.958 10.542 23.5 23.5 23.5 31.133-1.181 31.125-45.823 0-47-12.958 0-23.5 10.542-23.5 23.5zm32 0c0 4.687-3.813 8.5-8.5 8.5-11.25-.399-11.247-16.602 0-17 4.687 0 8.5 3.813 8.5 8.5z"/><path d="m256 323.25c21.229 0 38.5-17.271 38.5-38.5-1.936-51.005-75.072-50.991-77 0 0 21.229 17.271 38.5 38.5 38.5zm0-62c12.958 0 23.5 10.542 23.5 23.5-1.181 31.133-45.823 31.125-47 0 0-12.958 10.542-23.5 23.5-23.5z"/><path d="m51.23 156.444h93.539c4.143 0 7.5-3.358 7.5-7.5s-3.357-7.5-7.5-7.5h-93.539c-9.886.294-9.935 14.689 0 15z"/><path d="m51.23 188.731h67.077c9.894-.298 9.928-14.691 0-15h-67.077c-9.894.298-9.928 14.691 0 15z"/><path d="m51.23 255.5h42.154c9.902-.301 9.922-14.693 0-15h-42.154c-4.143 0-7.5 3.358-7.5 7.5s3.358 7.5 7.5 7.5z"/><path d="m412.77 199.192h48c9.9-.3 9.923-14.692 0-15h-48c-4.143 0-7.5 3.358-7.5 7.5s3.357 7.5 7.5 7.5z"/><path d="m412.77 231.808h48c9.9-.3 9.923-14.692 0-15h-48c-4.143 0-7.5 3.358-7.5 7.5s3.357 7.5 7.5 7.5z"/><path d="m412.77 264.423h48c9.9-.3 9.923-14.692 0-15h-48c-4.143 0-7.5 3.358-7.5 7.5s3.357 7.5 7.5 7.5z"/></g></g></svg>