<svg id="Layer_1" enable-background="new 0 0 512 512" height="512" viewBox="0 0 512 512" width="512" xmlns="http://www.w3.org/2000/svg"><g><g><path d="m479.5 210.5h-30.24c-4.896-20.893-13.109-40.705-24.445-58.968 0 0 21.4-21.401 21.4-21.401 12.608-12.097 12.609-33.865.001-45.962 0 0-18.384-18.385-18.384-18.385-12.673-12.671-33.29-12.67-45.963 0 0 0-21.4 21.401-21.4 21.401-5.039-3.126-10.251-6.044-15.527-8.693-9.014-4.171-15.434 8.721-6.73 13.405 5.64 2.832 11.203 5.997 16.53 9.407 4.603 2.946 10.505 2.316 14.356-1.535 0 0 23.378-23.379 23.378-23.379 6.826-6.824 17.929-6.823 24.749 0l18.386 18.385c3.305 3.306 5.125 7.7 5.125 12.375s-1.82 9.069-5.126 12.375c0 0-23.381 23.381-23.381 23.381-3.848 3.849-4.479 9.751-1.533 14.354 11.652 18.202 19.905 38.112 24.532 59.177 1.172 5.336 5.791 9.063 11.234 9.063h33.038c9.649 0 17.5 7.851 17.5 17.5v26c0 9.649-7.851 17.5-17.5 17.5h-33.039c-5.443 0-10.062 3.727-11.234 9.063-4.627 21.065-12.88 40.976-24.533 59.179-2.944 4.602-2.313 10.504 1.535 14.354l23.381 23.38c3.305 3.305 5.125 7.7 5.125 12.374s-1.82 9.069-5.125 12.375c0 0-18.386 18.384-18.386 18.384-6.52 6.779-18.229 6.796-24.747 0 0 0-23.381-23.38-23.381-23.38-3.852-3.849-9.754-4.48-14.354-1.534-18.203 11.651-38.113 19.905-59.178 24.531-5.337 1.172-9.063 5.792-9.063 11.234v33.04c0 9.649-7.851 17.5-17.5 17.5h-26c-9.649 0-17.5-7.851-17.5-17.5v-33.04c0-5.443-3.727-10.062-9.063-11.234-21.064-4.626-40.975-12.88-59.177-24.532-4.602-2.945-10.504-2.316-14.356 1.535 0 0-23.378 23.379-23.378 23.379-3.306 3.305-7.701 5.125-12.375 5.125-4.675 0-9.069-1.82-12.374-5.125 0 0-18.386-18.384-18.386-18.384-6.778-6.523-6.795-18.229.001-24.749 0 0 23.381-23.381 23.381-23.381 3.848-3.849 4.479-9.751 1.533-14.354-11.652-18.202-19.905-38.112-24.532-59.177-1.172-5.336-5.791-9.063-11.234-9.063h-33.041c-9.649 0-17.5-7.851-17.5-17.5v-26c0-9.649 7.851-17.5 17.5-17.5h33.039c5.443 0 10.062-3.727 11.234-9.063 4.627-21.065 12.88-40.976 24.533-59.179 2.944-4.602 2.313-10.504-1.535-14.354 0 0-23.381-23.38-23.381-23.38-6.778-6.507-6.795-18.24.001-24.749 0 0 18.385-18.385 18.385-18.385 6.822-6.823 17.926-6.822 24.748 0l23.38 23.381c3.852 3.849 9.754 4.479 14.354 1.534 18.203-11.651 38.113-19.905 59.178-24.531 5.337-1.172 9.063-5.792 9.063-11.234v-33.04c0-9.649 7.851-17.5 17.5-17.5h26c9.649 0 17.5 7.851 17.5 17.5v33.04c0 5.443 3.727 10.062 9.063 11.234 3.709.814 7.446 1.759 11.106 2.808 3.98 1.142 8.134-1.162 9.275-5.145 1.141-3.982-1.162-8.135-5.145-9.275-3.067-.879-6.186-1.69-9.301-2.421v-30.241c.003-17.92-14.576-32.5-32.497-32.5h-26c-17.921 0-32.5 14.58-32.5 32.5v30.24c-20.892 4.896-40.704 13.109-58.969 24.445 0 0-21.4-21.401-21.4-21.401-12.672-12.671-33.29-12.67-45.962 0 0 0-18.384 18.385-18.384 18.385-12.608 12.096-12.609 33.866-.001 45.962 0 0 21.401 21.401 21.401 21.401-11.335 18.263-19.549 38.076-24.445 58.968h-30.24c-17.921 0-32.5 14.58-32.5 32.5v26c0 17.92 14.579 32.5 32.5 32.5h30.24c4.896 20.893 13.109 40.705 24.445 58.968l-21.4 21.401c-6.14 6.138-9.52 14.3-9.52 22.981s3.38 16.843 9.519 22.981l18.385 18.384c12.097 12.607 33.865 12.609 45.963 0 0 0 21.399-21.4 21.399-21.4 18.265 11.335 38.077 19.549 58.969 24.445v30.24c0 17.92 14.579 32.5 32.5 32.5h26c17.921 0 32.5-14.58 32.5-32.5v-30.24c20.892-4.896 40.704-13.109 58.969-24.445l21.4 21.4c6.139 6.139 14.3 9.519 22.98 9.519 8.682 0 16.843-3.38 22.981-9.519l18.384-18.384c12.608-12.096 12.609-33.866.001-45.962 0 0-21.401-21.401-21.401-21.401 11.336-18.264 19.55-38.077 24.445-58.968h30.24c17.921 0 32.5-14.58 32.5-32.5v-26c.001-17.92-14.578-32.5-32.499-32.5z"/><path d="m215.92 398.146c-.916 4.04 1.615 8.057 5.655 8.973 11.228 2.547 22.811 3.839 34.425 3.839 85.444 0 154.958-69.514 154.958-154.958-7.782-205.266-302.145-205.26-309.916.002-.529 57.572 33.686 112.884 85.159 138.381 9.016 4.185 15.46-8.642 6.765-13.388-47.448-23.978-76.924-71.873-76.924-124.996 7.015-185.381 272.898-185.401 279.916.002 1.098 88.537-85.116 157.033-171.066 136.488-4.039-.915-8.055 1.617-8.972 5.657z"/><path d="m263.176 227.545c9.898-.289 9.922-14.699 0-15h-30.3c-4.143 0-7.5 3.358-7.5 7.5v71.909c0 4.142 3.357 7.5 7.5 7.5h30.3c4.143 0 7.5-3.358 7.5-7.5s-3.357-7.5-7.5-7.5h-22.8v-20.954h20.565c4.143 0 7.5-3.358 7.5-7.5s-3.357-7.5-7.5-7.5h-20.565v-20.955z"/><path d="m179.924 284.786c-7.648 0-15.025-3.101-19.733-8.294-2.781-3.07-7.524-3.301-10.594-.521-3.068 2.782-3.302 7.525-.52 10.594 7.503 8.278 19.034 13.221 30.847 13.221 14.297 0 26.761-9.419 28.99-21.91 1.695-9.492-2.693-21.922-20.093-28.34-9.167-3.382-17.684-7.07-20.022-8.096-4.421-3.522-3.466-10.949 4.348-13.404 11.091-3.339 21.208 4.734 21.421 4.907 3.171 2.635 7.879 2.219 10.535-.942 2.665-3.17 2.256-7.901-.915-10.567-.659-.554-16.351-13.49-35.367-7.76-9.427 2.839-16.092 10.245-17.396 19.326-1.273 8.804 2.833 17.584 10.633 21.861.418.186 10.365 4.614 21.572 8.748 7.51 2.77 11.343 7.009 10.519 11.63-.838 4.693-6.388 9.547-14.225 9.547z"/><path d="m364.866 256c0-24.144-19.643-43.786-43.786-43.786-58.007 2.201-57.991 85.379.001 87.571 24.143.001 43.785-19.641 43.785-43.785zm-72.571 0c0-15.873 12.913-28.786 28.785-28.786 38.136 1.447 38.126 56.13 0 57.571-15.872.001-28.785-12.912-28.785-28.785z"/></g></g></svg>