<svg id="Layer_1" enable-background="new 0 0 512 512" height="512" viewBox="0 0 512 512" width="512" xmlns="http://www.w3.org/2000/svg"><g><g><path d="m479.5 210.5h-30.242c-4.895-20.902-13.109-40.716-24.444-58.966l21.4-21.4c12.672-12.673 12.672-33.293 0-45.966l-18.381-18.38c-12.673-12.673-33.294-12.672-45.967 0l-21.399 21.4c-18.266-11.344-38.084-19.558-58.967-24.446v-30.242c0-17.92-14.579-32.5-32.5-32.5h-26c-17.92 0-32.5 14.58-32.5 32.5v30.242c-7.322 1.717-14.594 3.867-21.655 6.404-3.898 1.401-5.923 5.696-4.522 9.594s5.698 5.923 9.594 4.522c7.331-2.634 14.908-4.817 22.544-6.492 5.321-1.187 9.038-5.804 9.038-11.23v-33.04c0-9.649 7.851-17.5 17.5-17.5h26c9.649 0 17.5 7.851 17.5 17.5v33.04c0 5.426 3.717 10.044 9.062 11.236 21.068 4.623 40.978 12.876 59.187 24.539 4.604 2.935 10.503 2.301 14.345-1.542l23.379-23.38c6.824-6.824 17.93-6.825 24.754 0l18.38 18.38c6.824 6.825 6.824 17.929 0 24.753l-23.38 23.38c-3.841 3.841-4.476 9.74-1.532 14.359 11.654 18.195 19.907 38.103 24.535 59.196 1.187 5.322 5.805 9.038 11.23 9.038h33.04c9.649 0 17.5 7.851 17.5 17.5v26c0 9.649-7.851 17.5-17.5 17.5h-33.04c-5.426 0-10.044 3.716-11.236 9.062-4.622 21.069-12.875 40.977-24.539 59.187-2.934 4.604-2.299 10.502 1.542 14.344l23.38 23.38c6.824 6.825 6.824 17.929 0 24.753l-18.379 18.38c-6.825 6.823-17.931 6.824-24.754 0l-10.973-10.972v-7.556c0-4.142-3.357-7.5-7.5-7.5s-7.5 3.358-7.5 7.5v67.423c0 6.893-5.607 12.5-12.5 12.5h-196c-6.893 0-12.5-5.607-12.5-12.5v-264c0-6.893 5.607-12.5 12.5-12.5h196c6.893 0 12.5 5.607 12.5 12.5v160.885c.282 9.895 14.703 9.921 15 0v-34.479c74.318-100.454-.425-246.939-125.502-245.865-125.064-1.077-199.828 145.431-125.498 245.865v77.728l-10.973 10.973c-6.824 6.825-17.929 6.824-24.753 0l-18.38-18.38c-6.824-6.825-6.824-17.929 0-24.753l23.381-23.381c3.84-3.841 4.474-9.74 1.531-14.358-11.654-18.195-19.907-38.103-24.535-59.196-1.187-5.322-5.804-9.038-11.23-9.038h-33.041c-9.649 0-17.5-7.851-17.5-17.5v-26c0-9.649 7.851-17.5 17.5-17.5h33.04c5.426 0 10.044-3.716 11.236-9.062 4.623-21.069 12.876-40.977 24.54-59.187 2.933-4.603 2.299-10.501-1.542-14.344l-23.38-23.38c-6.824-6.825-6.824-17.929 0-24.753l18.38-18.38c6.824-6.824 17.928-6.824 24.753 0l23.381 23.381c3.841 3.84 9.74 4.473 14.358 1.531 2.189-1.402 4.446-2.781 6.709-4.097 3.581-2.083 4.795-6.673 2.713-10.254-2.083-3.581-6.675-4.795-10.254-2.713-1.645.957-3.287 1.944-4.901 2.946 0 0-21.4-21.401-21.4-21.401-12.106-12.614-33.861-12.616-45.966 0 0 0-18.38 18.38-18.38 18.38-12.673 12.673-12.673 33.293 0 45.966l21.4 21.4c-11.342 18.265-19.557 38.083-24.445 58.966h-30.242c-17.92 0-32.5 14.58-32.5 32.5v26c0 17.92 14.58 32.5 32.5 32.5h30.242c4.895 20.902 13.11 40.716 24.445 58.967l-21.4 21.4c-12.673 12.673-12.673 33.293 0 45.966l18.38 18.38c12.236 12.763 34.295 12.577 46.333-.367v38.654c0 15.164 12.336 27.5 27.5 27.5h196c15.163 0 27.5-12.336 27.5-27.5v-38.654c12.592 13.005 33.541 13.183 46.334.367 0 0 18.38-18.38 18.38-18.38 12.672-12.673 12.672-33.293 0-45.966l-21.4-21.4c11.342-18.266 19.557-38.083 24.445-58.966h30.241c17.921 0 32.5-14.58 32.5-32.5v-26c0-17.921-14.579-32.501-32.5-32.501zm-363.46 45.5c0-77.174 62.786-139.96 139.96-139.96 102.267-1.278 171.921 111.095 125.5 201.974v-97.514c0-15.164-12.337-27.5-27.5-27.5h-196c-15.164 0-27.5 12.336-27.5 27.5v97.513c-9.495-19.141-14.46-40.201-14.46-62.013z"/><path d="m222 471.056h68c32.44-1.223 32.466-47.767 0-49h-68c-32.44 1.223-32.466 47.767 0 49zm0-34h68c12.554.438 12.587 18.55 0 19h-68c-5.238 0-9.5-4.262-9.5-9.5s4.262-9.5 9.5-9.5z"/><path d="m219.646 265.227c-2.771-3.079-7.514-3.329-10.592-.558l-39.566 35.61c-3.278 2.823-3.282 8.327 0 11.149 0 0 39.566 35.61 39.566 35.61 1.433 1.29 3.227 1.925 5.015 1.925 6.71.107 10.147-8.578 5.019-13.075 0 0-33.372-30.035-33.372-30.035l33.372-30.035c3.079-2.77 3.329-7.512.558-10.591z"/><path d="m346.038 305.854c0-2.126-.902-4.152-2.482-5.575l-39.566-35.61c-3.078-2.77-7.82-2.522-10.592.558-2.771 3.079-2.521 7.821.557 10.592l33.373 30.035-33.373 30.035c-5.118 4.484-1.697 13.191 5.02 13.075 1.788 0 3.582-.635 5.015-1.925l39.566-35.61c1.58-1.423 2.482-3.449 2.482-5.575z"/><path d="m232.776 363.21c2.803 0 5.492-1.579 6.777-4.277l47.48-99.708c1.781-3.74.192-8.215-3.547-9.996-3.74-1.781-8.216-.193-9.996 3.547l-47.48 99.708c-2.438 4.811 1.414 10.843 6.766 10.726z"/></g></g></svg>