<svg id="Layer_1" enable-background="new 0 0 512 512" height="512" viewBox="0 0 512 512" width="512" xmlns="http://www.w3.org/2000/svg"><g><g><path d="m179.261 77.172c-12.958 0-23.5 10.542-23.5 23.5 1.181 31.133 45.823 31.125 47 0 0-12.958-10.542-23.5-23.5-23.5zm0 32c-4.687 0-8.5-3.813-8.5-8.5.399-11.25 16.603-11.247 17 0 0 4.687-3.813 8.5-8.5 8.5z"/><path d="m237.927 77.172c-12.958 0-23.5 10.542-23.5 23.5 1.181 31.133 45.823 31.125 47 0 0-12.958-10.542-23.5-23.5-23.5zm0 32c-4.687 0-8.5-3.813-8.5-8.5.399-11.25 16.603-11.247 17 0 0 4.687-3.813 8.5-8.5 8.5z"/><path d="m296.594 77.172c-12.958 0-23.5 10.542-23.5 23.5 1.181 31.133 45.823 31.125 47 0 0-12.958-10.542-23.5-23.5-23.5zm0 32c-4.687 0-8.5-3.813-8.5-8.5.399-11.25 16.603-11.247 17 0 0 4.687-3.813 8.5-8.5 8.5z"/><path d="m440.81 175.5h-35.28c.003-20.477-.002-67.6 0-88.5 0-18.472-15.028-33.5-33.5-33.5h-233.5c-18.472 0-33.5 15.028-33.5 33.5.01 21.031-.007 67.88 0 88.5h-33.85c-39.249 0-71.18 31.931-71.18 71.18v82.64c0 39.249 31.931 71.18 71.18 71.18h33.85v24.5c0 18.472 15.028 33.5 33.5 33.5h154.009c4.142 0 7.5-3.358 7.5-7.5s-3.358-7.5-7.5-7.5h-154.009c-10.201 0-18.5-8.299-18.5-18.5v-24.5h33.79c39.249 0 71.18-31.931 71.18-71.18v-18.82h62v18.82c0 39.249 31.931 71.18 71.18 71.18h32.35v24.5c0 10.201-8.299 18.5-18.5 18.5h-43.799c-4.142 0-7.5 3.358-7.5 7.5s3.358 7.5 7.5 7.5h43.799c18.472 0 33.5-15.028 33.5-33.5v-24.5h35.28c39.254 0 71.19-31.931 71.19-71.18v-82.64c0-39.249-31.936-71.18-71.19-71.18zm-320.78-88.5c0-10.201 8.299-18.5 18.5-18.5h233.5c10.201 0 18.5 8.299 18.5 18.5v46.5h-270.5zm0 61.5h270.5v27h-32.35c-39.249 0-71.18 31.931-71.18 71.18v18.82h-62v-18.82c0-39.249-31.931-71.18-71.18-71.18h-33.79zm320.78 72c14.441 0 26.19 11.744 26.19 26.18v82.64c0 14.436-11.749 26.18-26.19 26.18h-35.28v-135zm-50.28 135h-32.35c-14.436 0-26.18-11.744-26.18-26.18v-18.82h14c12.407 0 22.5-10.093 22.5-22.5s-10.093-22.5-22.5-22.5h-14v-18.82c0-14.436 11.744-26.18 26.18-26.18h32.35zm-44.53-75c9.855.291 9.959 14.673 0 15h-180c-9.855-.291-9.959-14.673 0-15zm-233.47-7.897c-4.142 0-7.5 3.358-7.5 7.5v75.397h-33.85c-14.436 0-26.18-11.744-26.18-26.18v-82.64c0-14.436 11.744-26.18 26.18-26.18h33.85v23.91c0 4.142 3.358 7.5 7.5 7.5s7.5-3.358 7.5-7.5v-23.91h33.79c14.436 0 26.18 11.744 26.18 26.18v18.82h-14c-12.407 0-22.5 10.093-22.5 22.5s10.093 22.5 22.5 22.5h14v18.82c0 14.436-11.744 26.18-26.18 26.18h-33.79v-75.397c0-4.143-3.358-7.5-7.5-7.5zm97.47 56.717c0 30.978-25.202 56.18-56.18 56.18h-82.64c-30.978 0-56.18-25.202-56.18-56.18v-82.64c0-30.978 25.202-56.18 56.18-56.18h82.64c30.978 0 56.18 25.202 56.18 56.18v18.82h-15v-18.82c0-22.707-18.473-41.18-41.18-41.18h-82.64c-22.707 0-41.18 18.473-41.18 41.18v82.64c0 22.707 18.473 41.18 41.18 41.18h82.64c22.707 0 41.18-18.473 41.18-41.18v-18.82h15zm287 0c0 30.978-25.207 56.18-56.19 56.18h-82.63c-30.978 0-56.18-25.202-56.18-56.18v-18.82h15v18.82c0 22.707 18.473 41.18 41.18 41.18h82.63c22.712 0 41.19-18.473 41.19-41.18v-82.64c0-22.707-18.478-41.18-41.19-41.18h-82.63c-22.707 0-41.18 18.473-41.18 41.18v18.82h-15v-18.82c0-30.978 25.202-56.18 56.18-56.18h82.63c30.983 0 56.19 25.202 56.19 56.18z"/></g></g></svg>