<svg id="Layer_1" enable-background="new 0 0 512.334 512.334" height="512" viewBox="0 0 512.334 512.334" width="512" xmlns="http://www.w3.org/2000/svg"><g><g><path d="m435.413 314.736c42.33 0 76.768-34.438 76.768-76.768v-139.464c0-42.33-34.438-76.768-76.768-76.768h-46.297c-4.143 0-7.5 3.357-7.5 7.5s3.357 7.5 7.5 7.5h46.297c34.059 0 61.768 27.709 61.768 61.768v139.465c0 34.059-27.709 61.768-61.768 61.768h-141.769c-4.309 0-8.265 2.501-10.077 6.368-8.981 19.136-25.89 30.361-40.996 36.854 4.896-10.346 6.531-22.05 6.868-31.673.106-3.008-1.031-5.975-3.121-8.14-2.092-2.167-5.021-3.41-8.034-3.41h-30.336c-34.059 0-61.768-27.709-61.768-61.768v-139.464c0-34.059 27.709-61.768 61.768-61.768h146.284c4.143 0 7.5-3.357 7.5-7.5s-3.357-7.5-7.5-7.5h-47.45c-137.792-69.758-309.177 37.492-306.6 192.145-1.464 171.017 197.646 274.305 336.365 174.591l9.312 9.312c6.347 6.334 15.88 7.691 23.661 3.755l24.064 24.064c-.318 3.244.761 6.599 3.24 9.078l58.975 58.975c2.485 2.471 5.789 3.557 9.079 3.239 0 0 8.892 8.892 8.892 8.892 8.373 8.729 23.447 8.73 31.819.001 8.729-8.373 8.729-23.447.001-31.82 0 0-8.892-8.892-8.892-8.892.318-3.244-.761-6.6-3.24-9.078l-58.975-58.975c-2.479-2.479-5.836-3.558-9.079-3.24l-24.063-24.063c3.881-7.658 2.637-17.27-3.755-23.664l-9.299-9.299c4.958-7.037 9.481-14.396 13.574-22.02h33.552zm-43.959 66.309 21.534 21.533-10.607 10.607-21.533-21.533zm103.529 114.136c-2.791 2.909-7.815 2.909-10.605-.001 0 0-7.081-7.08-7.081-7.08l10.606-10.606 7.081 7.081c2.909 2.792 2.909 7.815-.001 10.606zm-14.768-31.213-16.445 16.445-53.701-53.701 16.445-16.445zm-93.236-107.306c2.107 2.107 2.107 5.537 0 7.644l-22.87 22.871c-2.107 2.107-5.538 2.106-7.644.001l-7.854-7.855c11.185-9.13 21.407-19.354 30.515-30.512zm-173.299 55.716c-109.453 0-198.5-89.047-198.5-198.5-1.816-127.908 125.567-225.807 248.611-192.142h-55.844c-17.988 0-34.537 6.235-47.638 16.635-151.66 46.876-176.892 250.208-41.212 332.706 3.486 2.123 8.142 1.033 10.296-2.543 2.142-3.546 1.003-8.156-2.543-10.297-114.159-67.896-106.114-240.064 13.513-296.107-5.853 10.833-9.182 23.221-9.182 36.374v139.465c0 42.33 34.438 76.768 76.768 76.768h26.281c-.895 11.741-4.215 25.765-14.164 33.213-3.441 2.576-4.56 7.086-2.719 10.968 1.832 3.916 6.158 5.871 10.216 4.835 18.802-4.666 52.294-17.195 68.479-49.016h52.517c-42.549 58.549-123.338 82.963-191.449 57.873-3.898-1.393-8.192.638-9.587 4.539-1.395 3.9.638 8.192 4.538 9.587 77.929 28.674 169.921-1.959 214.816-72h17.804c-35.661 60.508-100.179 97.642-171.001 97.642z"/><path d="m355.861 127.932-14.107 78.16c-.735 4.076 1.973 7.977 6.049 8.713 4.073.733 7.978-1.972 8.713-6.049l9.841-54.525 16.141 54.706c1.186 3.945 4.843 6.641 8.959 6.613 4.117-.015 7.738-2.743 8.89-6.696 0 0 15.585-54.671 15.585-54.671l10.444 54.649c.777 4.069 4.713 6.744 8.774 5.958 4.068-.777 6.736-4.705 5.958-8.774l-14.959-78.272c-1.887-9.285-15.065-10.044-17.983-1.016-.129.063-16.736 58.952-16.85 59.09-.129-.386-17.347-58.853-17.465-59.176-3.041-9.024-16.206-8.12-17.99 1.29z"/><path d="m326.178 136.022c9.896-.287 9.923-14.7 0-15h-33.511c-4.143 0-7.5 3.357-7.5 7.5v79.528c0 4.143 3.357 7.5 7.5 7.5h33.511c4.143 0 7.5-3.357 7.5-7.5s-3.357-7.5-7.5-7.5h-26.011v-24.764h23.54c4.143 0 7.5-3.357 7.5-7.5s-3.357-7.5-7.5-7.5h-23.54v-24.765h26.011z"/><path d="m237.588 200.551c-8.681 0-17.059-3.526-22.411-9.434-2.781-3.069-7.524-3.303-10.594-.521s-3.303 7.524-.521 10.594c8.148 8.992 20.682 14.361 33.526 14.361 15.433 0 28.881-10.136 31.28-23.576 1.818-10.182-2.932-23.529-21.715-30.458-10.271-3.789-19.803-7.924-22.273-9.009-6.374-4.865-2.719-14.397 4.985-16.275 12.728-3.836 24.249 5.428 24.427 5.574 3.171 2.638 7.88 2.221 10.537-.94 2.665-3.171 2.255-7.902-.915-10.567-.715-.601-17.742-14.642-38.375-8.43-10.126 3.051-17.284 10.992-18.682 20.727-1.303 9.073 2.627 17.799 10.256 22.771 1.96 1.092 11.212 5.098 24.85 10.222 8.702 3.21 13.127 8.222 12.14 13.749-.984 5.51-7.431 11.212-16.515 11.212z"/></g></g></svg>