<svg id="Layer_1" enable-background="new 0 0 511.999 511.999" height="512" viewBox="0 0 511.999 511.999" width="512" xmlns="http://www.w3.org/2000/svg"><g><g><path d="m406.029 130.072 10.114-13.489c25.164 10.332 44.276-22.252 22.97-39.176 0 0-31.934-23.944-31.934-23.944-10.082-7.559-24.434-5.506-31.996 4.576-6.385 8.207-5.978 20.66.833 28.444l-10.339 13.781c-21.968-12.648-46.313-21.608-72.18-26.059v-29.205h12.5c12.406 0 22.5-10.094 22.5-22.5s-10.093-22.5-22.499-22.5h-43.902c-4.143 0-7.5 3.357-7.5 7.5s3.357 7.5 7.5 7.5h43.902c9.879.3 9.938 14.679 0 15h-100c-9.885-.304-9.933-14.679 0-15h21.306c4.143 0 7.5-3.357 7.5-7.5s-3.357-7.5-7.5-7.5h-21.307c-29.782 1.119-29.824 43.865 0 45h12.5v29.204c-25.867 4.451-50.212 13.41-72.18 26.059l-10.339-13.781c6.809-7.783 7.221-20.237.833-28.444-7.559-10.083-21.912-12.135-31.995-4.576l-31.933 23.944c-21.303 16.92-2.198 49.509 22.97 39.176l10.114 13.49c-145.498 133.656-49.851 382.17 150.034 381.927 199.88.243 295.532-248.309 150.028-381.927zm-18.844-63.036c2.614-3.485 7.562-4.156 10.997-1.572 0 0 31.934 23.944 31.934 23.944 3.465 2.598 4.17 7.53 1.571 10.995-2.598 3.465-7.528 4.172-10.996 1.573l-31.933-23.944c0-.001 0-.001 0-.001-3.431-2.462-4.174-7.669-1.573-10.995zm.475 28.921 16.13 12.095-9.114 12.155c-5.217-4.232-10.626-8.234-16.219-11.984zm-154.162-50.957h45v27.139c-14.754-1.516-30.246-1.516-45 0zm-153.188 55.403c-2.599-3.465-1.894-8.397 1.571-10.995l31.934-23.944c8.479-5.964 17.55 6.078 9.424 12.567v.001l-31.933 23.943c-3.466 2.601-8.399 1.894-10.996-1.572zm27.895 7.649 16.13-12.095 9.203 12.266c-5.594 3.75-11.002 7.752-16.219 11.984zm147.793 388.948c-113.313 0-205.5-92.187-205.5-205.5 10.331-272.249 400.711-272.175 411 .003 0 113.31-92.187 205.497-205.5 205.497z"/><path d="m255.998 101c-252.357 9.576-252.33 371.448.002 381 51.811.203 102.3-21.488 137.885-59.058 6.632-7.375-3.841-17.317-10.856-10.351-33.454 35.086-78.568 54.409-127.031 54.409-232.461-8.793-232.479-342.205.002-351 136.746-1.754 223.052 156.414 147.706 270.314-5.121 8.471 7.01 16.296 12.618 8.114 81.795-123.619-11.896-295.362-160.326-293.428z"/><path d="m321.297 177.777c3.592 2.066 8.177.832 10.241-2.759 2.066-3.591.831-8.176-2.759-10.241-92.294-53.857-212.007 9.958-218.549 116.625-.313 4.312 3.167 8.029 7.49 8.009 3.909 0 7.204-3.03 7.475-6.988 5.292-94.989 114.287-153.207 196.102-104.646z"/><path d="m255.998 190.388c15.986 0 31.285 3.639 45.473 10.814 8.906 4.22 15.518-8.626 6.769-13.385-83.215-42.918-182.44 29.678-166.906 122.022.631 4.11 4.586 6.892 8.585 6.225 4.091-.651 6.879-4.496 6.227-8.586-10.176-60.578 38.354-117.642 99.852-117.09z"/><path d="m177.386 299c4.143 0 7.5-3.357 7.5-7.5-.746-49.765 52.594-85.413 98.244-65.734 3.824 1.584 8.214-.231 9.799-4.058 1.586-3.826-.23-8.214-4.058-9.8-55.293-23.845-119.886 19.323-118.985 79.593 0 4.142 3.357 7.499 7.5 7.499z"/><path d="m368.775 178.723c-2.93-2.928-7.678-2.928-10.607 0l-81.506 81.506c-24.299-16.521-58.453 1.681-58.164 31.272 0 20.677 16.822 37.5 37.5 37.5 29.59.285 47.794-33.865 31.272-58.164l81.506-81.506c2.928-2.931 2.928-7.679-.001-10.608zm-112.777 135.277c-12.406 0-22.5-10.094-22.5-22.5 1.132-29.808 43.873-29.8 45 0 0 12.406-10.094 22.5-22.5 22.5z"/><path d="m212.998 407.5h86c12.958 0 23.5-10.542 23.5-23.5s-10.542-23.5-23.5-23.5h-86c-31.11 1.17-31.146 45.815 0 47zm0-32h86c11.225.389 11.269 16.595 0 17h-86c-11.225-.389-11.269-16.595 0-17z"/></g></g></svg>