<svg id="Layer_1" enable-background="new 0 0 512 512" height="512" viewBox="0 0 512 512" width="512" xmlns="http://www.w3.org/2000/svg"><g><g><path d="m466.5 215.5h-145.5v-146.5c0-9.649-7.851-17.5-17.5-17.5h-199.013c-9.923.334-9.914 14.679 0 15h199.013c1.378 0 2.5 1.121 2.5 2.5v296c0 1.379-1.122 2.5-2.5 2.5h-286c-1.378 0-2.5-1.121-2.5-2.5v-296c0-1.379 1.122-2.5 2.5-2.5h53.346c9.923-.287 9.894-14.716 0-15h-53.346c-9.649 0-17.5 7.851-17.5 17.5v296c0 9.649 7.851 17.5 17.5 17.5h191.5v32.5c0 25.089 20.411 45.5 45.5 45.5h212c25.089 0 45.5-20.411 45.5-45.5v-154c0-25.089-20.411-45.5-45.5-45.5zm30.5 199.5c0 16.817-13.682 30.5-30.5 30.5h-212c-16.818 0-30.5-13.683-30.5-30.5v-32.5h15v30.5c0 9.649 7.851 17.5 17.5 17.5h208c9.649 0 17.5-7.851 17.5-17.5v-20.846c0-4.143-3.358-7.5-7.5-7.5s-7.5 3.357-7.5 7.5v20.846c0 1.379-1.122 2.5-2.5 2.5h-208c-1.378 0-2.5-1.121-2.5-2.5v-30.5h49.5c9.649 0 17.5-7.851 17.5-17.5v-104.5h143.5c1.378 0 2.5 1.121 2.5 2.5v94.692c0 4.143 3.358 7.5 7.5 7.5s7.5-3.357 7.5-7.5v-94.692c0-9.649-7.851-17.5-17.5-17.5h-143.5v-15h145.5c16.818 0 30.5 13.683 30.5 30.5z"/><path d="m392.933 327.335-40.445-23.654c-3.83-2.238-8.413-2.258-12.261-.051-3.819 2.191-6.192 6.298-6.192 10.717v47.307c-.209 9.237 10.548 15.578 18.453 10.666 0 0 0 0 0-.001l40.445-23.653c8.064-4.432 8.065-16.901 0-21.331zm-43.897 29.627v-37.924l32.422 18.962z"/><path d="m30 95v244c0 7.444 6.056 13.5 13.5 13.5h234c7.444 0 13.5-6.056 13.5-13.5v-244c0-7.444-6.056-13.5-13.5-13.5h-234c-7.444 0-13.5 6.056-13.5 13.5zm15 242.5v-66.837l55.919-43.594c.576-.573 115.162 110.425 115.59 110.431zm193.186 0-23.318-22.352 61.132-43.954v66.306zm37.814-241v156.218l-72.146 51.873-92.148-88.329c-5.452-5.227-14.054-5.665-20.009-1.022l-46.697 36.403v-155.143z"/><path d="m186 213.5c20.678 0 37.5-16.822 37.5-37.5-1.885-49.681-73.123-49.667-75 0 0 20.678 16.822 37.5 37.5 37.5zm0-60c12.407 0 22.5 10.094 22.5 22.5-1.131 29.808-43.873 29.8-45 0 0-12.406 10.093-22.5 22.5-22.5z"/></g></g></svg>