<svg id="Layer_1" enable-background="new 0 0 511.849 511.849" height="512" viewBox="0 0 511.849 511.849" width="512" xmlns="http://www.w3.org/2000/svg"><g><g><path d="m489.5 424.425h-34v-77.5c0-6.341-5.159-11.5-11.5-11.5h-116.5v-77.5c0-6.341-5.159-11.5-11.5-11.5h-120c-6.341 0-11.5 5.159-11.5 11.5v40.5h-116.5c-6.341 0-11.5 5.159-11.5 11.5v114.5h-34c-12.407 0-22.5 10.094-22.5 22.5s10.093 22.5 22.5 22.5h339.415c9.869-.29 9.951-14.683 0-15h-339.414c-4.136 0-7.5-3.364-7.5-7.5s3.364-7.5 7.5-7.5h467c4.136 0 7.5 3.364 7.5 7.5s-3.364 7.5-7.5 7.5h-92.039c-4.142 0-7.5 3.357-7.5 7.5s3.358 7.5 7.5 7.5h92.038c29.687-1.074 29.911-43.834 0-45zm-418-111h113v111h-113zm128-52h113v163h-113zm128 163v-74h113v74z"/><path d="m138.084 151.425h5.315v22.5c0 4.143 3.358 7.5 7.5 7.5h47c4.142 0 7.5-3.357 7.5-7.5v-22.5h35.332c1.606 8.077 8.745 14.186 17.287 14.186h17.212c-1.188 23.659 17.723 43.888 41.5 43.814h41.184c22.883 0 41.5-18.617 41.5-41.5v-84c0-22.883-18.617-41.5-41.5-41.5h-41.185c-23.775-.071-42.691 20.152-41.5 43.814h-17.212c-8.542 0-15.68 6.108-17.287 14.186h-52.962c-4.142 0-7.5 3.357-7.5 7.5s3.358 7.5 7.5 7.5h52.619v21h-102.303c-5.79 0-10.5-4.71-10.5-10.5s4.71-10.5 10.5-10.5h14.916c9.907-.3 9.917-14.696 0-15h-14.916c-33.778 1.279-33.778 49.722 0 51zm152.146-67.5c0-14.612 11.888-26.5 26.5-26.5h41.185c14.612 0 26.5 11.888 26.5 26.5v84c0 14.612-11.888 26.5-26.5 26.5h-41.185c-14.612 0-26.5-11.888-26.5-26.5zm-34.842 19.943c0-1.449 1.18-2.629 2.629-2.629h17.212v49.371h-17.212c-1.45 0-2.629-1.18-2.629-2.629zm-64.989 47.557v15h-32v-15z"/><path d="m318.73 179.425h37.185c7.444 0 13.5-6.056 13.5-13.5v-80c0-7.444-6.056-13.5-13.5-13.5h-37.185c-7.444 0-13.5 6.056-13.5 13.5v80c0 7.444 6.056 13.5 13.5 13.5zm1.5-92h34.185v77h-34.185z"/></g></g></svg>