<svg id="Layer_1" enable-background="new 0 0 512 512" height="512" viewBox="0 0 512 512" width="512" xmlns="http://www.w3.org/2000/svg"><g><g><path d="m478.5 69.5h-35.723c-3.528-3.268-7.267-6.34-11.208-9.19-8.205-5.554-16.649 6.082-8.791 12.153 108.235 87.86-10.609 210.67-61.778 245.81-18.917-13.879-105.5-81.736-105.5-160.31 0-58.152 47.327-105.463 105.5-105.463 11.18 0 22.182 1.737 32.702 5.163 9.487 2.788 13.995-10.897 4.644-14.264-40.568-13.89-89.26-2.482-119.044 26.101h-245.802c-18.472 0-33.5 15.029-33.5 33.5v269.749c0 4.143 3.358 7.5 7.5 7.5s7.5-3.357 7.5-7.5v-208.249h225.677c1.825 34.818 18.187 70.857 48.713 107.234 22.135 26.133 62.56 63.223 71.61 61.775 9.029 1.469 49.437-35.607 71.611-61.774 30.526-36.378 46.887-72.417 48.713-107.235h15.676v276.5c0 10.201-8.299 18.5-18.5 18.5h-445c-10.201 0-18.5-8.299-18.5-18.5v-33.088c0-4.143-3.358-7.5-7.5-7.5s-7.5 3.357-7.5 7.5v33.088c0 18.472 15.028 33.5 33.5 33.5h445c18.472 0 33.5-15.028 33.5-33.5v-338c0-18.471-15.028-33.5-33.5-33.5zm-463.5 33.5c0-10.201 8.299-18.5 18.5-18.5h232.071c-14.092 18.252-23.069 40.638-24.769 65h-225.802zm466.187 46.5c-1.688-23.74-10.419-46.356-24.744-65h22.057c10.201 0 18.5 8.299 18.5 18.5v46.5z"/><path d="m74.231 93.172c-12.958 0-23.5 10.542-23.5 23.5 1.181 31.133 45.823 31.125 47 0 0-12.958-10.542-23.5-23.5-23.5zm0 32c-4.687 0-8.5-3.813-8.5-8.5.399-11.25 16.602-11.247 17 0 0 4.687-3.813 8.5-8.5 8.5z"/><path d="m132.897 93.172c-12.958 0-23.5 10.542-23.5 23.5 1.181 31.133 45.823 31.125 47 0 0-12.958-10.542-23.5-23.5-23.5zm0 32c-4.687 0-8.5-3.813-8.5-8.5.399-11.25 16.602-11.247 17 0 0 4.687-3.813 8.5-8.5 8.5z"/><path d="m191.564 93.172c-12.958 0-23.5 10.542-23.5 23.5 1.181 31.133 45.823 31.125 47 0 0-12.958-10.542-23.5-23.5-23.5zm0 32c-4.687 0-8.5-3.813-8.5-8.5.399-11.25 16.602-11.247 17 0 0 4.687-3.813 8.5-8.5 8.5z"/><path d="m55 241.5h49.717c9.9-.3 9.924-14.692 0-15h-49.717c-4.142 0-7.5 3.357-7.5 7.5s3.358 7.5 7.5 7.5z"/><path d="m55 279.5h106c9.882-.292 9.939-14.688 0-15h-106c-9.882.293-9.939 14.689 0 15z"/><path d="m55 317.5h106c9.882-.292 9.939-14.688 0-15h-106c-9.882.293-9.939 14.689 0 15z"/><path d="m55 355.5h106c9.882-.292 9.939-14.688 0-15h-106c-9.882.293-9.939 14.689 0 15z"/><path d="m295.5 157.907c0 36.117 29.383 65.5 65.5 65.5 86.775-3.292 86.752-127.721-.001-131-36.116 0-65.499 29.383-65.499 65.5zm116 0c0 27.846-22.654 50.5-50.5 50.5-66.903-2.539-66.885-98.471.001-101 27.845 0 50.499 22.654 50.499 50.5z"/><path d="m413 422.668c48.327-1.822 48.369-71.163 0-73h-104c-20.126 0-36.5 16.374-36.5 36.5s16.374 36.5 36.5 36.5zm-125.5-36.501c0-11.854 9.645-21.499 21.5-21.499h104c11.855 0 21.5 9.645 21.5 21.5s-9.645 21.5-21.5 21.5h-104c-11.855 0-21.5-9.645-21.5-21.501z"/></g></g></svg>