<svg id="Layer_1" enable-background="new 0 0 512 512" height="512" viewBox="0 0 512 512" width="512" xmlns="http://www.w3.org/2000/svg"><g><g><path d="m74.23 35.172c-12.958 0-23.5 10.542-23.5 23.5 1.181 31.133 45.823 31.125 47 0 0-12.958-10.542-23.5-23.5-23.5zm0 32c-4.687 0-8.5-3.813-8.5-8.5.4-11.25 16.602-11.247 17 0 0 4.686-3.813 8.5-8.5 8.5z"/><path d="m132.897 35.172c-12.958 0-23.5 10.542-23.5 23.5 1.181 31.133 45.823 31.125 47 0 0-12.958-10.542-23.5-23.5-23.5zm0 32c-4.687 0-8.5-3.813-8.5-8.5.4-11.25 16.602-11.247 17 0 0 4.686-3.813 8.5-8.5 8.5z"/><path d="m191.564 35.172c-12.958 0-23.5 10.542-23.5 23.5 1.181 31.133 45.823 31.125 47 0 0-12.958-10.542-23.5-23.5-23.5zm0 32c-4.687 0-8.5-3.813-8.5-8.5.4-11.25 16.602-11.247 17 0 0 4.686-3.813 8.5-8.5 8.5z"/><path d="m478.5 136.5h-178v-91.5c0-18.472-15.028-33.5-33.5-33.5h-233.5c-18.472 0-33.5 15.028-33.5 33.5v78.077c0 4.143 3.357 7.5 7.5 7.5s7.5-3.357 7.5-7.5v-16.577h270.5v30.023c-18.056.48-32.601 15.307-32.601 33.477v231.5h-219.399c-10.201 0-18.5-8.299-18.5-18.5v-224.846c0-4.143-3.357-7.5-7.5-7.5s-7.5 3.357-7.5 7.5v224.846c0 18.472 15.028 33.5 33.5 33.5h219.399v50.5c0 18.472 15.028 33.5 33.5 33.5h192.101c18.472 0 33.5-15.028 33.5-33.5v-38.385c0-4.143-3.357-7.5-7.5-7.5s-7.5 3.357-7.5 7.5v38.385c0 10.201-8.299 18.5-18.5 18.5h-192.101c-10.201 0-18.5-8.299-18.5-18.5v-235.5h229.101v161.73c0 4.143 3.357 7.5 7.5 7.5s7.5-3.357 7.5-7.5v-223.23c0-18.472-15.028-33.5-33.5-33.5zm-463.5-45v-46.5c0-10.201 8.299-18.5 18.5-18.5h233.5c10.201 0 18.5 8.299 18.5 18.5v46.5zm252.899 125v-46.5c0-10.201 8.299-18.5 18.5-18.5h192.101c10.201 0 18.5 8.299 18.5 18.5v46.5z"/><path d="m327.131 160.172c-12.958 0-23.5 10.542-23.5 23.5 1.181 31.133 45.823 31.125 47 0 0-12.958-10.542-23.5-23.5-23.5zm0 32c-4.687 0-8.5-3.813-8.5-8.5.4-11.25 16.602-11.247 17 0 0 4.686-3.814 8.5-8.5 8.5z"/><path d="m385.797 160.172c-12.958 0-23.5 10.542-23.5 23.5 1.181 31.133 45.823 31.125 47 0 0-12.958-10.542-23.5-23.5-23.5zm0 32c-4.687 0-8.5-3.813-8.5-8.5.4-11.25 16.602-11.247 17 0 0 4.686-3.814 8.5-8.5 8.5z"/><path d="m444.464 160.172c-12.958 0-23.5 10.542-23.5 23.5 1.181 31.133 45.823 31.125 47 0 0-12.958-10.542-23.5-23.5-23.5zm0 32c-4.687 0-8.5-3.813-8.5-8.5.4-11.25 16.602-11.247 17 0 0 4.686-3.814 8.5-8.5 8.5z"/><path d="m332.797 303.668h49.717c9.9-.299 9.924-14.692 0-15h-49.717c-4.143 0-7.5 3.357-7.5 7.5s3.357 7.5 7.5 7.5z"/><path d="m438.797 326.668h-106c-9.882.292-9.939 14.688 0 15h106c9.882-.292 9.939-14.688 0-15z"/><path d="m438.797 364.668h-106c-9.882.292-9.939 14.688 0 15h106c9.882-.292 9.939-14.688 0-15z"/><path d="m438.797 402.668h-106c-9.882.292-9.939 14.688 0 15h106c9.882-.292 9.939-14.688 0-15z"/><path d="m122.846 284.18h-11.146c-1.133 0-3.233-1.479-5.368-4.776-3.273-5.071-9.583-7.267-15.326-5.341l-11.078 3.68c-6.521 2.164-10.363 9.084-8.747 15.755 10.275 42.054 74.792 44.198 77.72 44.303 2.928-.079 67.447-2.267 77.709-44.304 1.616-6.67-2.226-13.59-8.743-15.753 0 0-11.056-3.676-11.056-3.676-5.759-1.926-12.068.263-15.337 5.326-2.141 3.307-4.241 4.786-5.374 4.786h-11.155l-2.544-44.514v-2.847c27.81-2.63 27.789-42.269 0-44.889.134-9.78.578-17.341-6.877-24.864-14.499-14.785-40.263-4.113-40.123 16.604v8.26c-27.818 2.624-27.797 42.276 0 44.889v2.845zm51.524 15c12.488-.126 20.026 2.039 28.916-10.477l8.335 2.771c-8.587 28.424-59.007 31.159-62.72 31.319-3.747-.162-54.139-2.903-62.731-31.319l8.343-2.771c8.893 12.517 16.425 10.349 28.907 10.476 7.618 0 13.929-5.955 14.367-13.559-.011-.566 2.639-45.182 2.613-45.739 0-.001 0-3.006 0-3.006h17v3.005c0 .143.004.285.013.428l2.59 45.314c.438 7.603 6.749 13.558 14.367 13.558zm-25.47-124.01c4.563-.098 8.592 3.942 8.5 8.5v8.205h-17v-8.205c0-4.687 3.814-8.5 8.5-8.5zm-29.503 39.205c0-4.136 3.364-7.5 7.5-7.5h44c4.136 0 7.5 3.364 7.5 7.5s-3.364 7.5-7.5 7.5h-44c-4.135 0-7.5-3.364-7.5-7.5z"/></g></g></svg>