<svg id="Layer_1" enable-background="new 0 0 512 512" height="512" viewBox="0 0 512 512" width="512" xmlns="http://www.w3.org/2000/svg"><g><g><path d="m498.5 403h-21.448c4.978-6.467 7.948-14.556 7.948-23.33v-244.34c0-21.136-17.194-38.33-38.33-38.33h-89.395l1.258-15.355c.44-4.237-3.215-8.205-7.475-8.112h-18.328c-9.908.303-9.917 14.694 0 15h10.188l-7.983 97.425c-.278 3.389-3.159 6.043-6.559 6.043h-143.49c-3.399 0-6.28-2.654-6.559-6.043l-7.983-97.425h126.348c4.143 0 7.5-3.357 7.5-7.5s-3.357-7.5-7.5-7.5h-127.603l-1.016-11.85c-.756-8.815-8.023-15.489-16.888-15.524l-25.637-.159c-4.136-.027-7.522 3.311-7.546 7.454-.025 4.142 3.312 7.521 7.454 7.546l25.654.158c1.062.004 1.93.78 2.018 1.806.002.007 1.603 18.709 1.605 18.716l1.256 15.32h-90.659c-21.136 0-38.33 17.194-38.33 38.33v187.337c0 4.143 3.357 7.5 7.5 7.5s7.5-3.357 7.5-7.5v-187.337c0-12.864 10.466-23.33 23.33-23.33h91.888l1.229 15h-82.047c-10.697 0-19.4 8.703-19.4 19.4v222.2c0 10.697 8.703 19.4 19.4 19.4h359.2c10.697 0 19.4-8.703 19.4-19.4v-222.2c0-10.697-8.703-19.4-19.4-19.4h-80.783l1.229-15h90.624c12.864 0 23.33 10.466 23.33 23.33v244.34c0 12.864-10.466 23.33-23.33 23.33h-381.34c-12.864 0-23.33-10.466-23.33-23.33v-20.9c0-4.143-3.357-7.5-7.5-7.5s-7.5 3.357-7.5 7.5v20.9c0 8.774 2.97 16.863 7.948 23.33h-21.448c-7.444 0-13.5 6.056-13.5 13.5v17.819c0 17.469 14.212 31.681 31.681 31.681h448.639c17.468 0 31.68-14.212 31.68-31.681v-17.819c0-7.444-6.056-13.5-13.5-13.5zm-156.695-174c7.444 0 13.5 6.056 13.5 13.5-.678 17.885-26.325 17.88-27 0 0-7.444 6.055-13.5 13.5-13.5zm-156.445 13.5c0 7.444-6.056 13.5-13.5 13.5-17.885-.678-17.88-26.325 0-27 7.445 0 13.5 6.056 13.5 13.5zm250.24-100.5c2.427 0 4.4 1.974 4.4 4.4v222.2c0 2.427-1.974 4.4-4.4 4.4h-359.2c-2.427 0-4.4-1.974-4.4-4.4v-222.2c0-2.427 1.974-4.4 4.4-4.4h83.276l3.703 45.182c.8 9.769 8.198 17.671 17.549 19.442l-3.944 7.847c-17.215-3.331-33.808 10.472-33.624 28.03 0 15.715 12.785 28.5 28.5 28.5 26.342.001 38.404-33.094 18.644-50.028l7.023-13.973h120.279l5.912 13.492c-20.449 16.665-8.63 50.492 18.088 50.508 15.714 0 28.5-12.785 28.5-28.5.156-17.294-15.864-30.967-32.906-28.158l-3.54-8.08c8.619-2.3 15.271-9.85 16.026-19.081l3.701-45.181zm-135.132 276-3.115 9h-82.705l-3.115-9zm196.532 16.319c0 9.197-7.483 16.681-16.681 16.681h-448.638c-9.198 0-16.681-7.483-16.681-16.681v-16.319h180.659l5.444 15.727c1.715 4.949 6.386 8.273 11.622 8.273h86.549c5.236 0 9.907-3.324 11.624-8.276l5.443-15.724h180.659z"/><path d="m199.67 125.266v30c1.128 29.8 43.87 29.808 45 0v-30c-1.128-29.801-43.87-29.808-45 0zm30 0v30c-.311 9.903-14.685 9.917-15 0v-30c.311-9.904 14.684-9.917 15 0z"/><path d="m268.593 125.266v30c1.128 29.8 43.87 29.808 45 0v-30c-1.128-29.801-43.87-29.808-45 0zm30 0v30c-.311 9.903-14.685 9.917-15 0v-30c.311-9.904 14.684-9.917 15 0z"/><path d="m292 291.938h-72c-16.267 0-29.5 13.233-29.5 29.5s13.233 29.5 29.5 29.5h72c39.063-1.474 39.089-57.517 0-59zm0 44h-72c-19.19-.72-19.223-28.267 0-29h72c7.995 0 14.5 6.505 14.5 14.5s-6.505 14.5-14.5 14.5z"/></g></g></svg>