<svg id="Layer_1" enable-background="new 0 0 511.963 511.963" height="512" viewBox="0 0 511.963 511.963" width="512" xmlns="http://www.w3.org/2000/svg"><g><g><path d="m466.392 225.468 11.157 6.441c3.524 2.052 8.162.875 10.245-2.745 2.071-3.587.842-8.174-2.745-10.245l-11.157-6.441c-8.734-4.692-15.933 7.768-7.5 12.99z"/><path d="m475.239 171.961c0 4.143 3.358 7.5 7.5 7.5h12.883c9.91-.304 9.915-14.695 0-15h-12.883c-4.142 0-7.5 3.357-7.5 7.5z"/><path d="m470.149 132.449c1.272 0 2.562-.324 3.743-1.006l11.157-6.441c8.429-5.219 1.24-17.681-7.5-12.99 0 0-11.157 6.441-11.157 6.441-6.633 3.831-3.785 14.035 3.757 13.996z"/><path d="m505.417 473.55-8.885-8.885c.334-3.359-.851-6.706-3.247-9.086 0 0-58.974-58.975-58.974-58.975-2.479-2.479-5.835-3.558-9.079-3.24l-24.063-24.063c3.881-7.658 2.637-17.27-3.755-23.663l-9.296-9.296c5.533-7.854 10.554-16.088 15.005-24.667 1.499 1.505 2.677 2.739 3.537 3.664v6.122c1.084 29.707 43.839 29.893 45 0v-217.807c0-4.143-3.358-7.5-7.5-7.5s-7.5 3.357-7.5 7.5v217.808c-.26 9.783-14.659 10.021-15 0v-299c.282-9.832 14.667-9.98 15 0v46.115c0 4.143 3.358 7.5 7.5 7.5s7.5-3.357 7.5-7.5v-46.116c-1.098-29.739-43.85-29.864-45 0v6.239c-4.393 4.989-17.699 19.16-40.416 35.597-132.982-136.227-365.972-41.395-366.236 149.166-1.462 171.017 197.647 274.307 336.37 174.595l9.308 9.309c6.348 6.334 15.881 7.691 23.663 3.755l24.064 24.064c-.318 3.243.762 6.599 3.24 9.078l58.975 58.975c2.484 2.472 5.788 3.557 9.078 3.239 0 0 8.892 8.892 8.892 8.892 8.376 8.729 23.444 8.729 31.82.001 8.727-8.376 8.728-23.445-.001-31.821zm-103.209-60.782-21.534-21.534 10.606-10.606 21.534 21.534zm4.451-362.471v243.836c-21.431-19.905-69.228-57.327-147-82.267v-79.658c73.055-23.294 107.125-46.198 147-81.911zm-131.877 185.356c.311 17.052-19.362 28.3-33.872 19.409v-14.9c7.576-1.24 13.882-6.296 16.875-13.125 5.78 1.896 11.394 3.864 16.831 5.894.107.9.166 1.809.166 2.722zm-30.123-17.567c0 4.066-3.308 7.374-7.375 7.374h-40.125c-29.5 0-53.5-24-53.5-53.5s24-53.5 53.5-53.5h40.125c4.066 0 7.375 3.308 7.375 7.374zm-63.75 20.411c10.339 3.107 34.042 1.663 45 1.964v58.886c0 12.406-10.093 22.5-22.5 22.5s-22.5-10.094-22.5-22.5zm32.598 173.464c-109.453 0-198.5-89.047-198.5-198.5-1.217-174.842 216.24-265.058 338.684-140.524-4.151 2.719-8.542 5.464-13.179 8.209-114.394-111.791-311.579-27.612-310.504 132.317-.001 50.533 20.183 97.645 56.833 132.654 2.991 2.86 7.739 2.755 10.604-.242 2.861-2.995 2.752-7.743-.243-10.604-33.659-32.152-52.195-75.413-52.195-121.812-1.07-144.68 175.77-222.953 281.79-124.607-19.376 10.329-42.317 20.254-68.922 28.232-3.413-8.001-11.357-13.625-20.591-13.625h-40.125c-71.974.632-94.269 96.804-31.249 129.426v66.46c1.885 49.68 73.122 49.667 75 0v-27.946c22.405 7.516 47.168-9.194 48.725-32.536 32.915 13.715 58.781 29.33 77.854 43.001-38.465 91.998-159.609 129.067-243.047 74.579-3.511-2.196-8.139-1.126-10.335 2.385-2.196 3.513-1.129 8.14 2.383 10.336 91.328 58.556 218.533 20.513 263.265-78.081 4.523 3.567 8.505 6.904 11.947 9.922-33.229 67.488-102.885 110.956-178.195 110.956zm142.785-25.201-7.854-7.855c11.201-9.137 21.43-19.349 30.53-30.499l7.838 7.838c2.107 2.107 2.107 5.537 0 7.644l-22.871 22.871c-2.107 2.109-5.535 2.108-7.643.001zm53.604 39.534 16.445-16.445 53.701 53.702-16.445 16.445zm84.914 68.47c-2.792 2.909-7.814 2.909-10.606-.001 0 0-7.081-7.081-7.081-7.081l10.606-10.605 7.081 7.081c2.91 2.791 2.91 7.814 0 10.606z"/></g></g></svg>