<svg id="Layer_1" enable-background="new 0 0 512 512" height="512" viewBox="0 0 512 512" width="512" xmlns="http://www.w3.org/2000/svg"><g><g><path d="m114.949 143.504h33.194l-15 15h-56.743c-10.697 0-19.4 8.703-19.4 19.4v222.197c0 10.697 8.703 19.4 19.4 19.4h359.2c10.697 0 19.4-8.703 19.4-19.4v-222.197c0-10.697-8.703-19.4-19.4-19.4h-24.613l4.019-15h31.663c12.864 0 23.33 10.466 23.33 23.33v181.168c.265 9.827 14.679 9.985 15 0v-181.168c0-21.136-17.195-38.33-38.33-38.33h-27.644l3.429-12.796c4.62-16.179-10.983-31.785-27.165-27.165 0 0-57.132 15.307-57.132 15.307-10.751 2.643-17.927 13.819-16.227 24.653h-95.148l23.556-23.556 4.564 4.564c11.781 12.141 33.061 6.255 37.121-9.991 0 0 15.295-57.081 15.295-57.081 2.076-7.746-.07-15.757-5.741-21.427-5.668-5.667-13.677-7.81-21.423-5.738l-57.132 15.307c-16.312 4.084-22.038 25.408-9.942 37.108 0 0 5.438 5.438 5.438 5.438l-55.376 55.375h-48.194c-4.142 0-7.5 3.357-7.5 7.5s3.359 7.502 7.501 7.502zm325.051 34.4v222.197c0 2.427-1.974 4.4-4.4 4.4h-359.2c-2.426 0-4.4-1.974-4.4-4.4v-222.197c0-2.427 1.974-4.4 4.4-4.4h41.743l-21.676 21.676c-4.25 4.25-6.59 9.899-6.59 15.909-.316 12.128 10.637 22.815 22.501 22.49 5.761-.001 11.523-2.193 15.909-6.579l53.496-53.496h124.764l-40.652 40.652-26.513-26.512c-4.25-4.25-9.9-6.591-15.91-6.591s-11.661 2.341-15.91 6.59c0 0-114.298 114.298-114.298 114.298-14.104 14.041-4.035 38.45 15.91 38.409 6.01 0 11.66-2.341 15.91-6.59l98.388-98.387 26.512 26.511c4.249 4.25 9.899 6.591 15.91 6.591s11.661-2.34 15.911-6.59l83.669-83.668 4.564 4.564c11.55 11.94 32.393 6.478 36.905-9.277h28.657c2.426-.001 4.4 1.973 4.4 4.4zm-85.133-10.294-83.668 83.667c-1.417 1.417-3.3 2.197-5.304 2.197-2.003 0-3.886-.779-5.302-2.197l-31.816-31.815c-2.929-2.928-7.678-2.928-10.606 0l-103.692 103.689c-2.787 2.906-7.819 2.913-10.607 0-2.904-2.794-2.913-7.812 0-10.605 0 0 114.298-114.298 114.298-114.298 2.791-2.906 7.815-2.911 10.606.001 0 0 31.816 31.816 31.816 31.816 2.929 2.928 7.678 2.928 10.606 0l73.062-73.061zm-17.903-44.194c.682-2.544 2.533-4.394 5.077-5.077 0 0 57.129-15.306 57.129-15.306 2.484-.677 5.07-.023 6.938 1.856 1.863 1.863 2.541 4.392 1.858 6.936l-15.309 57.129c-.718 3.043-3.698 5.336-6.958 5.336-1.882.012-3.679-.741-5.055-2.117 0 0-41.821-41.821-41.821-41.821-1.863-1.863-2.54-4.391-1.859-6.936zm-6.203 20.088 2.894 2.894-12.106 12.106h-124.766l15-15zm-108.931-93.357c.682-2.544 2.533-4.394 5.077-5.077l57.129-15.306c2.484-.677 5.07-.023 6.938 1.856 1.863 1.863 2.541 4.392 1.858 6.936l-15.309 57.129c-.718 3.043-3.698 5.336-6.958 5.336-1.864-.015-3.679-.741-5.055-2.117l-41.821-41.821c-1.864-1.863-2.541-4.391-1.859-6.936zm17.902 44.194-122.051 122.05c-2.924 2.925-7.682 2.925-10.607-.001-2.908-2.791-2.911-7.814 0-10.605 0 0 122.052-122.05 122.052-122.05z"/><path d="m498.5 434.501h-21.448c4.978-6.467 7.948-14.556 7.948-23.33v-27.477c0-4.143-3.358-7.5-7.5-7.5s-7.5 3.357-7.5 7.5v27.477c0 12.864-10.466 23.33-23.33 23.33h-381.34c-12.864 0-23.33-10.466-23.33-23.33v-244.337c0-12.864 10.466-23.33 23.33-23.33h14.952c9.947-.287 9.868-14.73 0-15h-14.952c-21.135 0-38.33 17.194-38.33 38.33v244.337c0 8.774 2.97 16.863 7.948 23.33h-21.448c-7.444 0-13.5 6.056-13.5 13.5v17.819c0 17.469 14.212 31.68 31.681 31.68h448.638c17.469 0 31.681-14.212 31.681-31.68v-17.819c0-7.445-6.056-13.5-13.5-13.5zm-198.033 14.999-3.116 9h-82.703l-3.116-9zm196.533 16.32c0 9.197-7.483 16.68-16.681 16.68h-448.638c-9.198 0-16.681-7.483-16.681-16.68v-16.32h180.66l5.443 15.723c1.713 4.95 6.384 8.276 11.623 8.276h86.55c5.238 0 9.909-3.326 11.623-8.276l5.443-15.723h180.658z"/><path d="m397.562 241.078h-35.683c-9.904.302-9.92 14.693 0 15h35.682c9.905-.302 9.921-14.693.001-15z"/><path d="m397.562 270.001h-71.727c-9.893.297-9.93 14.69 0 15h71.727c9.893-.297 9.93-14.69 0-15z"/><path d="m397.562 298.924h-71.727c-9.893.297-9.93 14.69 0 15h71.727c9.893-.297 9.93-14.691 0-15z"/><path d="m287 332.502h-62c-13.509 0-24.5 10.99-24.5 24.5s10.991 24.5 24.5 24.5h62c32.441-1.224 32.465-47.768 0-49zm0 33.999h-62c-12.556-.438-12.586-18.55 0-19h62c5.238 0 9.5 4.262 9.5 9.5s-4.262 9.5-9.5 9.5z"/></g></g></svg>