<svg id="Layer_1" enable-background="new 0 0 512 512" height="512" viewBox="0 0 512 512" width="512" xmlns="http://www.w3.org/2000/svg"><g><g><path d="m478.5 72h-89.824c-.582-.23-11.28-22.443-11.83-23.429-4.135-8.371-12.506-13.571-21.846-13.571s-17.711 5.2-21.846 13.571l-10.731 21.727c-.303.614-.678 1.179-1.098 1.702h-287.825c-18.472 0-33.5 15.028-33.5 33.5v338c0 18.472 15.028 33.5 33.5 33.5h445c18.472 0 33.5-15.028 33.5-33.5v-36.27c0-4.143-3.357-7.5-7.5-7.5s-7.5 3.357-7.5 7.5v36.27c0 10.201-8.299 18.5-18.5 18.5h-445c-10.201 0-18.5-8.299-18.5-18.5v-276.5h279.261c-5.343 20.634 15.902 38.06 34.918 28.167 0 0 21.462-11.274 21.462-11.274 2.729-1.436 5.988-1.434 8.717 0l21.463 11.274c3.596 1.889 7.486 2.822 11.357 2.822 16.095.005 27.626-15.407 23.56-30.989h81.262v203.615c.278 9.848 14.681 9.969 15 0v-265.115c0-18.472-15.028-33.5-33.5-33.5zm-463.5 80v-46.5c0-10.201 8.299-18.5 18.5-18.5h242.995c-8.388 9.388-7.877 24.763 1.382 33.433 0 0 17.364 16.912 17.364 16.912 4.4 4.135 2.391 9.569 1.595 14.655zm382.666 29.172c-2.951 2.145-6.641 2.41-9.869.716 0 0-21.462-11.274-21.462-11.274-7.097-3.729-15.572-3.729-22.67 0 0 0-21.461 11.274-21.461 11.274-3.23 1.695-6.919 1.429-9.87-.716-2.942-2.14-4.332-5.556-3.718-9.139l4.099-23.878c1.357-7.902-1.263-15.961-7.008-21.557l-17.363-16.912c-5.581-5.117-2.352-15.09 5.191-15.944 0 0 23.994-3.484 23.994-3.484 7.936-1.151 14.794-6.13 18.344-13.317 0 0 10.731-21.727 10.731-21.727 1.612-3.265 4.75-5.214 8.396-5.214s6.784 1.949 8.396 5.214c0 0 10.731 21.727 10.731 21.727 3.55 7.188 10.408 12.166 18.343 13.317 0 0 23.996 3.484 23.996 3.484 7.518.861 10.792 10.817 5.189 15.944 0 0-17.362 16.912-17.362 16.912-5.746 5.596-8.366 13.654-7.009 21.556 0 0 4.099 23.879 4.099 23.879.615 3.583-.775 6.999-3.717 9.139zm15.498-29.172c-.799-5.104-2.802-10.522 1.596-14.655 0 0 17.363-16.912 17.363-16.912 9.258-8.666 9.771-24.05 1.382-33.433h44.995c10.201 0 18.5 8.299 18.5 18.5v46.5z"/><path d="m74.23 95.672c-12.958 0-23.5 10.542-23.5 23.5 1.181 31.133 45.823 31.125 47 0 0-12.958-10.542-23.5-23.5-23.5zm0 32c-4.687 0-8.5-3.813-8.5-8.5.4-11.25 16.602-11.247 17 0 0 4.686-3.813 8.5-8.5 8.5z"/><path d="m132.897 95.672c-12.958 0-23.5 10.542-23.5 23.5 1.181 31.133 45.823 31.125 47 0 0-12.958-10.542-23.5-23.5-23.5zm0 32c-4.687 0-8.5-3.813-8.5-8.5.4-11.25 16.602-11.247 17 0 0 4.686-3.813 8.5-8.5 8.5z"/><path d="m191.564 95.672c-12.958 0-23.5 10.542-23.5 23.5 1.181 31.133 45.823 31.125 47 0 0-12.958-10.542-23.5-23.5-23.5zm0 32c-4.687 0-8.5-3.813-8.5-8.5.4-11.25 16.602-11.247 17 0 0 4.686-3.813 8.5-8.5 8.5z"/><path d="m220.911 331.748c41.915-26.753 48.531-67.292 49.475-103.419.435-9.174-7.607-17.413-16.789-17.214h-131.366c-4.143 0-7.5 3.357-7.5 7.5s3.357 7.5 7.5 7.5h131.366c.627 0 1.048.297 1.291.546.872 33.906-6.315 69.393-42.045 92.442-29.181 18.617-35.459 37.831-36.288 48.973h-37.067c-9.584-60.405-78.484-37.238-78.845-140.137.078-1.165.641-1.704 1.793-1.823h24.41c4.143 0 7.5-3.357 7.5-7.5s-3.357-7.5-7.5-7.5h-24.41c-9.18-.197-17.228 8.038-16.789 17.215 2.591 110.438 66.96 90.345 78.849 139.745-20.126-1.857-37.924 12.662-37.98 33.275-.931 9.322 5.717 17.716 15.317 17.725h112.368c9.581-.007 16.258-8.403 15.315-17.726-.067-20.612-17.833-35.126-37.969-33.274.861-7.437 5.959-21.396 29.364-36.328zm-6.395 69.602v2.41c0 .174-.142.315-.315.315-.318-.314-112.751.602-112.684-.315-1.045-10.862 7.162-20.754 18.274-20.685h76.452c10.075 0 18.273 8.198 18.273 18.275z"/><path d="m321.642 276.441h49.717c9.9-.299 9.924-14.692 0-15h-49.717c-4.143 0-7.5 3.357-7.5 7.5s3.357 7.5 7.5 7.5z"/><path d="m427.642 299.441h-106c-9.882.292-9.939 14.688 0 15h106c9.882-.292 9.939-14.688 0-15z"/><path d="m427.642 337.441h-106c-9.882.292-9.939 14.688 0 15h106c9.882-.292 9.939-14.688 0-15z"/><path d="m427.642 375.441h-106c-9.882.292-9.939 14.688 0 15h106c9.882-.292 9.939-14.688 0-15z"/></g></g></svg>