<svg id="Layer_1" enable-background="new 0 0 512 512" height="512" viewBox="0 0 512 512" width="512" xmlns="http://www.w3.org/2000/svg"><g><g><path d="m391 435.525c-4.143 0-7.5 3.357-7.5 7.5v41.475c0 6.893-5.607 12.5-12.5 12.5h-230c-6.893 0-12.5-5.607-12.5-12.5v-323.73c0-4.143-3.357-7.5-7.5-7.5s-7.5 3.357-7.5 7.5v323.73c0 15.164 12.337 27.5 27.5 27.5h230c15.163 0 27.5-12.336 27.5-27.5v-41.475c0-4.142-3.357-7.5-7.5-7.5z"/><path d="m371 0h-230c-15.163 0-27.5 12.337-27.5 27.5v98.192c0 4.143 3.357 7.5 7.5 7.5s7.5-3.357 7.5-7.5v-30.692h255v311.513c.263 9.814 14.673 9.999 15 0v-379.012c0-15.164-12.337-27.501-27.5-27.501zm-242.5 80v-52.5c0-6.893 5.607-12.5 12.5-12.5h230c6.893 0 12.5 5.607 12.5 12.5v52.5z"/><path d="m174.407 23.672c-12.958 0-23.5 10.542-23.5 23.5 1.181 31.133 45.823 31.125 47 0 0-12.958-10.542-23.5-23.5-23.5zm0 32c-4.687 0-8.5-3.813-8.5-8.5.4-11.25 16.602-11.247 17 0 0 4.686-3.813 8.5-8.5 8.5z"/><path d="m233.074 23.672c-12.958 0-23.5 10.542-23.5 23.5 1.181 31.133 45.823 31.125 47 0 0-12.958-10.542-23.5-23.5-23.5zm0 32c-4.687 0-8.5-3.813-8.5-8.5.4-11.25 16.602-11.247 17 0 0 4.686-3.813 8.5-8.5 8.5z"/><path d="m291.741 23.672c-12.958 0-23.5 10.542-23.5 23.5 1.181 31.133 45.823 31.125 47 0 0-12.958-10.542-23.5-23.5-23.5zm0 32c-4.687 0-8.5-3.813-8.5-8.5.4-11.25 16.602-11.247 17 0 0 4.686-3.813 8.5-8.5 8.5z"/><path d="m267.575 145.437c9.898-.289 9.922-14.7 0-15h-30.3c-4.143 0-7.5 3.357-7.5 7.5v71.909c0 4.143 3.357 7.5 7.5 7.5h30.3c4.143 0 7.5-3.357 7.5-7.5s-3.357-7.5-7.5-7.5h-22.8v-20.955h20.565c4.143 0 7.5-3.357 7.5-7.5s-3.357-7.5-7.5-7.5h-20.565v-20.954z"/><path d="m184.323 202.677c-7.648 0-15.025-3.101-19.731-8.294-2.782-3.07-7.526-3.302-10.594-.521-3.069 2.781-3.303 7.524-.521 10.594 7.503 8.279 19.034 13.222 30.847 13.222 14.297 0 26.761-9.419 28.99-21.91 1.695-9.492-2.693-21.922-20.094-28.341-9.167-3.381-17.683-7.068-20.021-8.095-4.419-3.523-3.467-10.948 4.348-13.404 11.078-3.339 21.178 4.709 21.421 4.906 3.171 2.636 7.879 2.219 10.536-.941 2.665-3.171 2.256-7.902-.915-10.567-.659-.553-16.347-13.488-35.368-7.761-9.427 2.84-16.093 10.246-17.396 19.327-1.273 8.804 2.833 17.584 10.633 21.861.418.186 10.365 4.614 21.572 8.747 7.51 2.771 11.344 7.01 10.519 11.631-.839 4.692-6.389 9.546-14.226 9.546z"/><path d="m369.266 173.891c0-24.144-19.643-43.785-43.786-43.785-58.008 2.201-57.991 85.379.001 87.571 24.142 0 43.785-19.643 43.785-43.786zm-72.572 0c0-15.872 12.913-28.785 28.785-28.785 38.137 1.447 38.125 56.13 0 57.571-15.872 0-28.785-12.913-28.785-28.786z"/><path d="m156.182 270.476c0 4.143 3.357 7.5 7.5 7.5h86.6c4.143 0 7.5-3.357 7.5-7.5s-3.357-7.5-7.5-7.5h-86.6c-4.143 0-7.5 3.357-7.5 7.5z"/><path d="m156.182 308.476c0 4.143 3.357 7.5 7.5 7.5h184.637c4.143 0 7.5-3.357 7.5-7.5s-3.357-7.5-7.5-7.5h-184.637c-4.143 0-7.5 3.357-7.5 7.5z"/><path d="m348.318 338.976h-184.636c-9.856.281-9.962 14.682 0 15h184.637c9.855-.281 9.962-14.683-.001-15z"/><path d="m355.818 384.476c0-4.143-3.357-7.5-7.5-7.5h-184.636c-4.143 0-7.5 3.357-7.5 7.5s3.357 7.5 7.5 7.5h184.637c4.142 0 7.499-3.358 7.499-7.5z"/><path d="m276.191 426.289c-4.143 0-7.5 3.357-7.5 7.5s3.357 7.5 7.5 7.5h48.085c9.9-.3 9.923-14.693 0-15z"/></g></g></svg>