<svg id="Layer_1" enable-background="new 0 0 512 512" height="512" viewBox="0 0 512 512" width="512" xmlns="http://www.w3.org/2000/svg"><g><g><path d="m478.5 32h-32.372c-9.905.304-9.92 14.692 0 15h32.372c10.201 0 18.5 8.299 18.5 18.5v46.5h-482v-46.5c0-10.201 8.299-18.5 18.5-18.5h377.757c4.143 0 7.5-3.357 7.5-7.5s-3.357-7.5-7.5-7.5h-377.757c-18.472 0-33.5 15.028-33.5 33.5v338c0 18.472 15.028 33.5 33.5 33.5h18.612v15.5c0 15.163 12.336 27.5 27.5 27.5h196c15.163 0 27.5-12.337 27.5-27.5v-15.5h175.388c18.472 0 33.5-15.028 33.5-33.5v-338c0-18.472-15.028-33.5-33.5-33.5zm18.5 371.5c0 10.201-8.299 18.5-18.5 18.5h-175.388v-233.5c0-15.163-12.337-27.5-27.5-27.5h-196c-15.164 0-27.5 12.337-27.5 27.5v181.785c.321 9.901 14.676 9.931 15 0v-181.785c0-6.893 5.607-12.5 12.5-12.5h196c6.893 0 12.5 5.607 12.5 12.5v264c0 6.893-5.607 12.5-12.5 12.5h-196c-6.893 0-12.5-5.607-12.5-12.5v-46.808c-.301-9.942-14.716-9.879-15 0v16.307h-18.612c-10.201 0-18.5-8.299-18.5-18.5v-276.499h482z"/><path d="m50.731 79.172c0 12.958 10.542 23.5 23.5 23.5 31.133-1.181 31.125-45.823 0-47-12.958 0-23.5 10.542-23.5 23.5zm32 0c0 4.687-3.813 8.5-8.5 8.5-11.25-.399-11.247-16.602 0-17 4.687 0 8.5 3.813 8.5 8.5z"/><path d="m109.397 79.172c0 12.958 10.542 23.5 23.5 23.5 31.133-1.181 31.125-45.823 0-47-12.958 0-23.5 10.542-23.5 23.5zm32 0c0 4.687-3.813 8.5-8.5 8.5-11.25-.399-11.247-16.602 0-17 4.687 0 8.5 3.813 8.5 8.5z"/><path d="m168.064 79.172c0 12.958 10.542 23.5 23.5 23.5 31.133-1.181 31.125-45.823 0-47-12.958 0-23.5 10.542-23.5 23.5zm32 0c0 4.687-3.813 8.5-8.5 8.5-11.25-.399-11.247-16.602 0-17 4.687 0 8.5 3.813 8.5 8.5z"/><path d="m347.445 330.868h49.717c9.9-.299 9.924-14.692 0-15h-49.717c-4.143 0-7.5 3.357-7.5 7.5s3.358 7.5 7.5 7.5z"/><path d="m453.445 342.289h-106c-9.882.292-9.939 14.688 0 15h106c9.883-.292 9.939-14.688 0-15z"/><path d="m211.612 395.437h-68c-32.44 1.223-32.466 47.767 0 49h68c32.44-1.223 32.466-47.768 0-49zm0 34h-68c-12.554-.438-12.587-18.55 0-19h68c5.238 0 9.5 4.262 9.5 9.5s-4.261 9.5-9.5 9.5z"/><path d="m177.612 377.785c50.453 0 91.5-41.047 91.5-91.5-4.6-121.22-178.418-121.187-183 .001 0 50.452 41.047 91.499 91.5 91.499zm76.128-98.999h-68.95v-68.653c36.357 3.4 65.4 32.34 68.95 68.653zm-83.949-68.604v76.104c0 4.143 3.358 7.5 7.5 7.5h76.45c-3.782 38.675-36.477 68.999-76.128 68.999-96.648-2.93-103.116-140.113-7.822-152.603z"/><path d="m342.767 293.563h61.045c4.143 0 7.5-3.357 7.5-7.5v-31.67h53.545c4.143 0 7.5-3.357 7.5-7.5v-39.17c0-4.143-3.357-7.5-7.5-7.5h-28.167v-31.67c0-4.143-3.357-7.5-7.5-7.5h-86.423c-4.143 0-7.5 3.357-7.5 7.5v117.51c0 4.143 3.357 7.5 7.5 7.5zm53.545-15h-46.045v-24.17h46.045zm61.044-39.169h-107.09v-24.17h107.09zm-107.089-63.34h71.423v24.17h-71.423z"/></g></g></svg>