<svg id="Layer_1" enable-background="new 0 0 511.954 511.954" height="512" viewBox="0 0 511.954 511.954" width="512" xmlns="http://www.w3.org/2000/svg"><g><g><path d="m463.491 68.381c-7.883-6.072-16.979 5.035-9.548 11.568 84.505 69.517 34.77 208.145-74.74 208.171-64.788.001-117.498-52.709-117.498-117.499-1.27-82.984 88.407-141.877 163.997-107.943 9.19 3.662 14.936-9.572 5.939-13.775-91.972-40.992-197.416 37.874-183.962 137.764-24.002 18.952-63.333 43.958-118.758 60.577-3.413-8-11.357-13.623-20.59-13.623h-40.126c-71.974.632-94.269 96.804-31.249 129.426v66.46c1.885 49.68 73.122 49.667 75 0v-27.945c22.407 7.514 47.168-9.195 48.725-32.539 9.441 3.923 18.672 8.128 27.618 12.635 3.621 1.847 8.201.412 10.072-3.324 1.863-3.699.375-8.209-3.324-10.072-20.288-10.219-41.907-19.032-64.342-26.233v-79.659c54.427-15.941 94.252-39.791 120.062-59.153 4.976 19.597 14.332 37.463 26.959 52.497-.06.199 0 168.355-.021 168.636-10.443-9.665-27.171-23.512-50.612-38.112-3.516-2.189-8.142-1.114-10.332 2.401s-1.115 8.141 2.401 10.331c33.61 20.935 52.908 40.443 58.543 46.523v6.128c0 12.406 10.093 22.5 22.5 22.5s22.5-10.094 22.5-22.5v-161.169c142.06 63.113 258.596-120.355 140.786-222.071zm-448.786 233.74c0-29.5 24-53.5 53.5-53.5h40.125c4.066 0 7.375 3.308 7.375 7.374v92.252c0 4.066-3.308 7.374-7.375 7.374h-40.125c-29.5 0-53.5-24-53.5-53.5zm59.751 149.886c-12.407 0-22.5-10.094-22.5-22.5v-60.85c10.339 3.107 34.042 1.663 45 1.964v58.886c0 12.406-10.093 22.5-22.5 22.5zm71.206-88.912c2.457 18.185-18.035 31.612-33.706 22.132v-14.905c7.576-1.24 13.881-6.296 16.874-13.124 5.671 1.86 11.283 3.829 16.832 5.897zm162.043 88.526c-.309 9.897-14.682 9.923-15 0v-180.711c4.722 4.079 9.734 7.83 15 11.219z"/><path d="m276.705 170.621c0 56.519 45.981 102.5 102.5 102.5 135.793-5.153 135.756-199.867-.001-205-56.518 0-102.499 45.981-102.499 102.5zm190 0c0 48.248-39.252 87.5-87.5 87.5-115.921-4.399-115.89-170.619.001-175 48.246 0 87.499 39.252 87.499 87.5z"/><path d="m379.205 147.121c-31.133 1.181-31.125 45.823 0 47 17.118.309 28.921-18.834 21.046-33.939l34.123-34.123c2.929-2.93 2.929-7.678 0-10.607-2.929-2.928-7.678-2.928-10.606 0l-34.123 34.123c-3.148-1.567-6.692-2.454-10.44-2.454zm0 32c-4.687 0-8.5-3.813-8.5-8.5.399-11.25 16.602-11.247 17 0 0 4.686-3.813 8.5-8.5 8.5z"/></g></g></svg>