<svg id="Layer_1" enable-background="new 0 0 512 512" height="512" viewBox="0 0 512 512" width="512" xmlns="http://www.w3.org/2000/svg"><g><g><path d="m133.408 23.672c-12.958 0-23.5 10.542-23.5 23.5 1.181 31.133 45.823 31.125 47 0 0-12.958-10.542-23.5-23.5-23.5zm0 32c-4.687 0-8.5-3.813-8.5-8.5.399-11.25 16.602-11.247 17 0 0 4.686-3.813 8.5-8.5 8.5z"/><path d="m192.074 23.672c-12.958 0-23.5 10.542-23.5 23.5 1.181 31.133 45.823 31.125 47 0 0-12.958-10.542-23.5-23.5-23.5zm0 32c-4.687 0-8.5-3.813-8.5-8.5.399-11.25 16.602-11.247 17 0 0 4.686-3.813 8.5-8.5 8.5z"/><path d="m250.741 23.672c-12.958 0-23.5 10.542-23.5 23.5 1.181 31.133 45.823 31.125 47 0 0-12.958-10.542-23.5-23.5-23.5zm0 32c-4.687 0-8.5-3.813-8.5-8.5.399-11.25 16.602-11.247 17 0 0 4.686-3.813 8.5-8.5 8.5z"/><path d="m215 249.123c3.227 0 6.437-.791 9.258-2.275 53.286-27.79 61.242-60.293 61.242-77.194.184-39.424-38.275-62.118-70.5-42.988-32.23-19.124-70.682 3.557-70.5 42.989 0 16.901 7.956 49.404 61.217 77.18 2.846 1.497 6.056 2.288 9.283 2.288zm-55.5-79.47c0-19.536 13.309-34.839 30.3-34.839 9.343 0 16.473 3.733 20.809 6.865 2.622 1.893 6.161 1.893 8.783 0 4.336-3.132 11.466-6.865 20.809-6.865 16.991 0 30.3 15.303 30.3 34.839 0 13.505-6.909 39.764-53.203 63.907-1.399.736-3.17.75-4.618-.014-46.271-24.129-53.18-50.388-53.18-63.893z"/><path d="m393.014 268.464h-35.514v-240.964c0-15.163-12.336-27.5-27.5-27.5h-230c-15.164 0-27.5 12.337-27.5 27.5v98.397c0 4.143 3.358 7.5 7.5 7.5s7.5-3.357 7.5-7.5v-30.897h255v173.464h-93.509c-25.635 0-46.491 20.815-46.491 46.4v90.676c0 25.586 20.855 46.401 46.491 46.401h19.394c4.142 0 7.5-3.357 7.5-7.5s-3.358-7.5-7.5-7.5h-19.394c-17.364 0-31.491-14.087-31.491-31.401v-90.676c0-17.314 14.126-31.4 31.491-31.4h144.023c17.361 0 31.486 14.084 31.486 31.396v90.681c0 17.314-14.126 31.401-31.491 31.401h-23.038c-6.277-.135-11.775 5.455-11.557 11.724.119 8.582 1.29 15.507 2.826 20.954-14.015-6.413-21.626-17.251-23.314-23.938-1.298-5.146-5.873-8.739-11.126-8.739h-21.943c-4.142 0-7.5 3.357-7.5 7.5s3.358 7.5 7.5 7.5h19.298c2.787 8.119 9.148 16.781 18.345 23.764v8.794c0 6.893-5.607 12.5-12.5 12.5h-230c-6.893 0-12.5-5.607-12.5-12.5v-323.32c0-4.143-3.358-7.5-7.5-7.5s-7.5 3.357-7.5 7.5v323.32c0 15.163 12.336 27.5 27.5 27.5h230c15.233.006 27.613-12.466 27.5-27.697 4.546 1.78 9.645 3.651 14.816 4.161 6.763.176 11.232-7.987 7.346-13.594-1.667-2.548-5.392-9.641-6.13-22.929h19.477c25.635 0 46.491-20.815 46.491-46.401v-90.681c0-25.584-20.854-46.396-46.486-46.396zm-305.514-188.464v-52.5c0-6.893 5.607-12.5 12.5-12.5h230c6.893 0 12.5 5.607 12.5 12.5v52.5z"/><path d="m257.312 332.281h52.36c9.899-.299 9.924-14.692 0-15h-52.36c-4.142 0-7.5 3.357-7.5 7.5s3.358 7.5 7.5 7.5z"/><path d="m257.312 363.552h95.089c4.142 0 7.5-3.357 7.5-7.5s-3.358-7.5-7.5-7.5h-95.089c-9.886.294-9.936 14.689 0 15z"/><path d="m257.312 394.823h95.089c4.142 0 7.5-3.357 7.5-7.5s-3.358-7.5-7.5-7.5h-95.089c-9.886.294-9.936 14.689 0 15z"/></g></g></svg>