<svg id="Layer_1" enable-background="new 0 0 512 512" height="512" viewBox="0 0 512 512" width="512" xmlns="http://www.w3.org/2000/svg"><g><g><path d="m80.174 106.425h-44.315c-9.901.3-9.922 14.693 0 15h44.315c4.142 0 7.5-3.357 7.5-7.5s-3.358-7.5-7.5-7.5z"/><path d="m28.359 141.925c0 4.143 3.358 7.5 7.5 7.5h81.641c4.142 0 7.5-3.357 7.5-7.5s-3.358-7.5-7.5-7.5h-81.641c-4.142 0-7.5 3.358-7.5 7.5z"/><path d="m214.359 84.439h44.314c9.901-.3 9.922-14.693 0-15h-44.314c-4.142 0-7.5 3.357-7.5 7.5s3.358 7.5 7.5 7.5z"/><path d="m303.5 104.939c0-4.143-3.357-7.5-7.5-7.5h-81.641c-4.142 0-7.5 3.357-7.5 7.5s3.358 7.5 7.5 7.5h81.641c4.143 0 7.5-3.357 7.5-7.5z"/><path d="m483.731 66.425h-98.463c-15.586 0-28.268 12.682-28.268 28.269v66.464c0 15.587 12.682 28.268 28.269 28.268h40.911v87.55l-37.377 37.376c-13.794-57.996-64.691-101.772-126.123-104.747v-57.165h42.552c15.587 0 28.269-12.682 28.269-28.269v-66.463c0-15.587-12.682-28.269-28.269-28.269h-98.463c-15.587 0-28.269 12.682-28.269 28.269v66.463c0 15.587 12.681 28.269 28.269 28.269h40.911v57.26c-61.163 3.696-111.586 47.844-124.794 105.98l-38.706-38.705v-87.55h42.552c15.587 0 28.269-12.681 28.269-28.268v-66.463c0-15.587-12.681-28.269-28.269-28.269h-50.052c-4.142 0-7.5 3.357-7.5 7.5s3.358 7.5 7.5 7.5h50.052c7.316 0 13.269 5.952 13.269 13.269v66.464c0 7.315-5.952 13.268-13.269 13.268h-98.463c-7.316 0-13.269-5.952-13.269-13.268v-66.464c0-7.316 5.952-13.269 13.269-13.269h12.424c4.142 0 7.5-3.357 7.5-7.5s-3.358-7.5-7.5-7.5h-12.424c-15.588 0-28.269 12.682-28.269 28.269v66.464c0 15.587 12.681 28.268 28.269 28.268h40.911v90.656c0 1.989.79 3.896 2.197 5.304l48.649 48.648c-11.05 116.333 125.264 191.98 217.977 121.036 3.309-2.489 3.973-7.191 1.482-10.501s-7.193-3.972-10.503-1.483c-78.488 60.229-195.334 1.874-194.482-97.148 0-66.994 54.505-121.499 121.5-121.499 99.478-.826 157.688 116.888 96.559 195.258-5.79 8.041 5.663 16.808 11.916 9.112 21.073-27.369 30.784-61.891 27.364-96.304.135-.029 46.973-46.997 47.145-47.12 1.406-1.407 2.196-3.314 2.196-5.304v-90.656h42.552c15.587 0 28.269-12.681 28.269-28.268v-66.463c-.001-15.587-12.683-28.269-28.27-28.269zm-290.231 57.745v-66.462c0-7.316 5.952-13.269 13.269-13.269h98.463c7.316 0 13.269 5.952 13.269 13.269v66.463c0 7.316-5.952 13.269-13.269 13.269h-98.463c-7.317-.001-13.269-5.953-13.269-13.27zm303.5 36.988c0 7.315-5.952 13.268-13.269 13.268h-98.463c-7.316 0-13.269-5.952-13.269-13.268v-66.464c0-7.316 5.952-13.269 13.269-13.269h98.463c7.316 0 13.269 5.952 13.269 13.269z"/><path d="m392.859 121.425h44.314c9.901-.3 9.922-14.693 0-15h-44.314c-4.143 0-7.5 3.357-7.5 7.5s3.358 7.5 7.5 7.5z"/><path d="m474.5 134.425h-81.641c-9.89.295-9.932 14.69 0 15h81.64c9.891-.295 9.933-14.69.001-15z"/><path d="m256 239.439c-58.725 0-106.5 47.775-106.5 106.5 5.354 141.092 207.668 141.055 213-.001 0-58.724-47.775-106.499-106.5-106.499zm0 198c-50.454 0-91.5-41.047-91.5-91.5 4.6-121.22 178.418-121.188 183 .001 0 50.452-41.047 91.499-91.5 91.499z"/><path d="m269.455 335.787c-2.177-.77-4.405-1.577-6.627-2.417v-35.465c5.596 1.34 8.927 4.173 9.208 4.419 7.516 6.396 17.169-4.164 10.117-11.074-.427-.394-7.594-6.849-19.325-8.609v-7.245c0-4.143-3.357-7.5-7.5-7.5s-7.5 3.357-7.5 7.5v7.819c-23.169 3.63-34.039 36.346-15.515 51.336 3.929 3.082 8.819 5.905 15.515 8.885v44.977c-5.792-.426-9.808-1.85-16.383-6.151-8.463-5.171-16.34 6.871-8.212 12.553 9.588 6.272 16.137 8.142 24.595 8.618v8.112c0 4.143 3.358 7.5 7.5 7.5s7.5-3.357 7.5-7.5v-8.708c34.831-7.205 40.295-56.079 6.627-67.05zm-27.885-13.041c-6.955-6.083-3.504-20.325 6.258-23.971v27.972c-2.354-1.279-4.485-2.611-6.258-4.001zm35.3 47.464c-1.154 6.866-5.936 14.145-14.042 17.044v-37.909c14.39 3.957 15.065 16.602 14.042 20.865z"/></g></g></svg>