<svg id="Layer_1" enable-background="new 0 0 512 512" height="512" viewBox="0 0 512 512" width="512" xmlns="http://www.w3.org/2000/svg"><g><g><path d="m387.475 67.04h40c9.902-.301 9.921-14.693 0-15h-40c-4.143 0-7.5 3.357-7.5 7.5s3.357 7.5 7.5 7.5z"/><path d="m461.166 80.04h-73.691c-9.893.296-9.93 14.691 0 15h73.691c9.893-.296 9.93-14.691 0-15z"/><path d="m387.475 427.12c-4.143 0-7.5 3.357-7.5 7.5s3.357 7.5 7.5 7.5h40c9.902-.301 9.921-14.693 0-15z"/><path d="m379.975 462.62c0 4.143 3.357 7.5 7.5 7.5h73.691c4.143 0 7.5-3.357 7.5-7.5s-3.357-7.5-7.5-7.5h-73.691c-4.143 0-7.5 3.358-7.5 7.5z"/><path d="m44.763 81.038h52.359c9.899-.299 9.925-14.692 0-15h-52.359c-4.143 0-7.5 3.357-7.5 7.5s3.357 7.5 7.5 7.5z"/><path d="m139.852 97.309h-95.089c-9.886.294-9.936 14.689 0 15h95.089c9.885-.294 9.936-14.69 0-15z"/><path d="m139.852 128.58h-95.089c-9.886.294-9.936 14.689 0 15h95.089c9.885-.294 9.936-14.689 0-15z"/><path d="m427.5 247.773c4.143 0 7.5-3.357 7.5-7.5v-97.273h57.5c10.752 0 19.5-8.748 19.5-19.5v-104c0-10.752-8.748-19.5-19.5-19.5h-130c-10.752 0-19.5 8.748-19.5 19.5v104c0 10.752 8.748 19.5 19.5 19.5h57.5v89.773h-124.09v-42.143c-1.132-29.809-43.873-29.8-45 0v5.741c-8.147 9.108-46.727 48.733-118.63 70.601-3.229-6.381-9.834-10.776-17.461-10.776h-32.576c-59.446.483-78.427 79.649-26.78 107.345v53.093c1.601 42.203 62.115 42.191 63.71 0v-18.006c19.438 8.418 42.729-6.143 43.799-27.14 52.107 22.924 80.839 51.142 87.938 58.687-1.466 31.451 43.389 33.845 45 2.455v-13.861c-.319-9.939-14.701-9.89-15 0v13.861c-.298 9.875-14.679 9.941-15 0v-242c.262-9.779 14.655-10.026 15 0v193.266c0 4.143 3.357 7.5 7.5 7.5s7.5-3.357 7.5-7.5v-53.936h124.09v57.769h-57.5c-10.752 0-19.5 8.748-19.5 19.5v85.27c0 10.752 8.748 19.5 19.5 19.5h130c10.752 0 19.5-8.748 19.5-19.5v-85.27c0-10.752-8.748-19.5-19.5-19.5h-57.5v-65.269c0-4.143-3.357-7.5-7.5-7.5h-131.59v-67.188h131.59zm-69.5-124.273v-104c0-2.481 2.019-4.5 4.5-4.5h130c2.481 0 4.5 2.019 4.5 4.5v104c0 2.481-2.019 4.5-4.5 4.5h-130c-2.481 0-4.5-2.019-4.5-4.5zm-317.778 189.72c0-23.171 18.851-42.022 42.021-42.022h32.575c2.522 0 4.575 2.053 4.575 4.576v74.893c0 2.522-2.053 4.575-4.575 4.575h-32.575c-23.171-.001-42.021-18.851-42.021-42.022zm47.095 120.27c-9.294 0-16.854-7.562-16.854-16.855v-47.624c7.611 1.982 25.683 1.024 33.71 1.23v46.394c0 9.294-7.562 16.855-16.856 16.855zm60.75-64.344c.084 14.966-18.539 22.546-28.895 11.761v-11.17c5.668-1.294 10.4-5.047 13.016-10.081 5.312 1.763 10.443 3.601 15.393 5.5.316 1.298.486 2.633.486 3.99zm-13.673-24.558v-62.584c60.011-17.76 98.02-46.954 116.517-64.216v191.419c-18.441-16.609-56.454-45.181-116.517-64.619zm362.606 62.642v85.27c0 2.481-2.019 4.5-4.5 4.5h-130c-2.481 0-4.5-2.019-4.5-4.5v-85.27c0-2.481 2.019-4.5 4.5-4.5h130c2.481 0 4.5 2.019 4.5 4.5z"/><path d="m100.76 227.898c0 4.143 3.357 7.5 7.5 7.5s7.5-3.357 7.5-7.5v-44.073h81.326c10.752 0 19.5-8.748 19.5-19.5v-119.033c0-10.752-8.748-19.5-19.5-19.5h-18.291c-4.143 0-7.5 3.357-7.5 7.5s3.357 7.5 7.5 7.5h18.291c2.481 0 4.5 2.019 4.5 4.5v119.033c0 2.481-2.019 4.5-4.5 4.5h-177.586c-2.481 0-4.5-2.019-4.5-4.5v-119.033c0-2.481 2.019-4.5 4.5-4.5h125.243c4.143 0 7.5-3.357 7.5-7.5s-3.357-7.5-7.5-7.5h-125.243c-10.752 0-19.5 8.748-19.5 19.5v119.033c0 10.752 8.748 19.5 19.5 19.5h81.26z"/></g></g></svg>