<svg id="Layer_1" enable-background="new 0 0 512.553 512.553" height="512" viewBox="0 0 512.553 512.553" width="512" xmlns="http://www.w3.org/2000/svg"><g><g><path d="m489.643 110.973c-4.798-8.676-17.6-2.109-13.344 6.852 12.598 24.536 19.482 50.903 20.54 78.474h-45.511c-1.022-40.534-10.311-79.022-26.71-111.42 8.365-2.208 16.331-4.667 23.829-7.371 3.458 3.842 6.787 7.837 9.964 11.998 2.514 3.291 7.22 3.922 10.513 1.409 3.292-2.514 3.923-7.221 1.409-10.513-37.933-49.999-98.925-80.552-161.833-80.104-177.012-.582-269.251 214.472-149.026 341.918l-17.201 17.201c-2.929 2.93-2.929 7.678 0 10.607 2.93 2.928 7.677 2.928 10.607 0 0 0 17.201-17.201 17.201-17.201 167.747 151.771 419.976-37.669 319.562-241.85zm-41.407 219.206c-7.458-2.682-15.378-5.122-23.692-7.314 16.445-32.428 25.76-70.972 26.784-111.567h45.51c-1.796 45.635-19.88 87.153-48.602 118.881zm-279.444.033c-28.739-31.732-46.835-73.263-48.631-118.913h45.51c.928 36.813 8.676 71.936 22.376 102.345l-15.125 15.125c-1.39.473-2.769.953-4.13 1.443zm-.109-252.704c7.464 2.691 15.391 5.141 23.714 7.341-16.408 32.404-25.702 70.902-26.724 111.448h-45.51c1.792-45.59 19.845-87.073 48.52-118.789zm233.023-2.686c-14.311 2.904-29.583 5.113-45.521 6.582-5.137-25.166-12.185-47.311-21.334-62.076 26.074 8.076 49.247 27.886 66.855 55.494zm-69.181-24.286c3.178 9.314 6.05 20.103 8.554 32.023-21.207 1.32-43.953 1.316-65.157-.007 3.906-21.925 18.388-67.42 32.578-67.254 5.801 0 15.161 9.257 24.025 35.238zm-103.161 160.762c1.533 16.299 7.996 31.184 17.894 43.135l-47.813 47.813c-11.132-26.673-17.88-57.719-18.767-90.948zm79.136 57c-15.085 0-28.966-5.22-39.964-13.929l19.299-19.3c24.298 16.521 58.453-1.681 58.164-31.272 0-20.677-16.822-37.5-37.5-37.5-29.59-.285-47.794 33.865-31.272 58.164l-19.299 19.3c-33.396-41.13-2.869-104.945 50.572-104.464 85.447 3.241 85.43 125.771 0 129.001zm40.488 3.88c-1.327 13.413-3.048 26.228-5.11 38.173-23.027-1.517-47.73-1.514-70.755.009-2.063-11.947-3.784-24.766-5.112-38.182 23.367 14.67 57.61 14.67 80.977 0zm-62.988-68.38c1.132-29.808 43.873-29.801 45 0 .392 16.183-17.859 27.566-32.194 20.301l13.967-13.967c2.929-2.93 2.929-7.678 0-10.607-2.93-2.928-7.678-2.928-10.607 0l-13.967 13.967c-1.409-2.937-2.199-6.225-2.199-9.694zm22.5-79.5c-14.779 0-28.621 4.066-40.488 11.12 1.322-13.354 3.033-26.116 5.083-38.016 23.038 1.523 47.772 1.526 70.813.008 2.05 11.898 3.76 24.657 5.081 38.008-11.869-7.054-25.71-11.12-40.489-11.12zm-26.351-104.97c-9.149 14.763-16.196 36.904-21.332 62.065-15.935-1.473-31.203-3.685-45.51-6.592 17.606-27.597 40.774-47.399 66.842-55.473zm-24.083 76.866c-2.83 16.791-4.887 34.477-6.222 51.906-12.467 12.68-20.722 29.506-22.48 48.199h-48.687c1.082-40.519 10.881-77.791 26.711-107.847 15.851 3.441 32.872 6.042 50.678 7.742zm-51.92 220.565 46.603-46.603c1.305 13.986 3.077 27.986 5.345 41.412-17.784 1.697-34.788 4.294-50.626 7.73-.445-.842-.887-1.686-1.322-2.539zm54.704 9.608c5.133 25.094 12.17 47.171 21.298 61.902-26.02-8.06-49.152-27.804-66.746-55.322 14.291-2.9 29.538-5.11 45.448-6.58zm23.624 30.693c-3.163-9.27-6.021-20-8.517-31.851 21.187-1.322 43.897-1.324 65.087-.007-3.909 21.906-18.393 67.278-32.545 67.096-5.801.001-15.16-9.256-24.025-35.238zm50.377 31.209c9.129-14.733 16.167-36.814 21.301-61.913 15.913 1.466 31.165 3.671 45.46 6.567-17.596 27.531-40.734 47.284-66.761 55.346zm24.057-76.713c2.844-16.837 4.908-34.577 6.248-52.059 12.467-12.68 20.722-29.506 22.48-48.199h48.687c-1.083 40.576-10.908 77.896-26.777 107.974-15.844-3.43-32.851-6.023-50.638-7.716zm77.414-115.258h-48.687c-1.758-18.693-10.012-35.519-22.48-48.199-1.335-17.425-3.391-35.107-6.22-51.894 17.808-1.695 34.832-4.293 50.688-7.73 15.823 30.053 25.618 67.314 26.699 107.823zm.493-130.645c-6.262 2.061-12.837 3.954-19.684 5.675-8.869-14.877-20.623-29.495-32.78-40.24 19.19 8.415 36.91 20.045 52.464 34.565zm-230.251-4.712c-2.32 3.358-4.544 6.817-6.679 10.361-6.785-1.709-13.304-3.585-19.514-5.626 15.198-14.108 32.716-25.745 51.916-34.267-9.239 8.3-17.871 18.169-25.723 29.532zm-25.875 281.275.346-.346c6.038-1.966 12.362-3.779 18.938-5.433 8.767 14.675 20.345 29.095 32.314 39.749-19.066-8.461-36.474-19.994-51.598-33.97zm229.746 4.439c2.294-3.32 4.493-6.741 6.607-10.243 6.774 1.701 13.282 3.57 19.485 5.603-15.174 14.066-32.658 25.67-51.815 34.172 9.239-8.3 17.871-18.168 25.723-29.532z"/><path d="m117.542 384.148-19.538 19.538h-29.823c-10.058 0-19.679 3.744-27.09 10.542l-37.552 34.442c-2.963 2.718-4.19 6.828-3.204 10.726.987 3.898 4.023 6.929 7.924 7.909l25.042 6.289c2.664.669 4.734 2.739 5.403 5.404l6.289 25.041s0 0 .001.001c1.881 8.265 13.012 11.124 18.634 4.719 0 0 34.441-37.552 34.441-37.552 6.798-7.411 10.542-17.032 10.542-27.09v-29.823l19.538-19.538c6.794-7.227-3.38-17.399-10.607-10.608zm-23.93 59.969c0 6.294-2.343 12.313-6.597 16.951l-29.319 31.967-4.442-17.69c-2.018-8.036-8.263-14.281-16.299-16.3l-17.691-4.442 31.967-29.319c4.638-4.254 10.657-6.597 16.951-6.597h14.823l-26.263 26.263c-2.929 2.93-2.929 7.678 0 10.607 2.93 2.928 7.677 2.928 10.607 0 0 0 26.263-26.263 26.263-26.263z"/></g></g></svg>