<svg id="Layer_1" enable-background="new 0 0 512 512" height="512" viewBox="0 0 512 512" width="512" xmlns="http://www.w3.org/2000/svg"><g><g><path d="m478.5 0h-233.5c-18.472 0-33.5 15.028-33.5 33.5v113.773c-4.468-3.902-10.304-6.273-16.688-6.273h-18.624c-14.01 0-25.407 11.397-25.407 25.407v19.984c-14.042 3.465-27.397 9.002-39.793 16.496l-14.143-14.144c-9.907-9.906-26.025-9.906-35.931 0l-13.169 13.169c-9.856 9.457-9.857 26.474 0 35.932 0 0 14.143 14.144 14.143 14.144-7.496 12.396-13.031 25.75-16.496 39.792h-19.985c-14.01 0-25.407 11.399-25.407 25.408v18.623c0 14.01 11.397 25.408 25.407 25.408h19.985c3.464 14.042 9 27.396 16.496 39.792l-14.144 14.144c-9.856 9.458-9.857 26.474.001 35.932 0 0 13.169 13.169 13.169 13.169 9.906 9.906 26.024 9.906 35.931 0 0 0 14.143-14.144 14.143-14.144 12.396 7.495 25.749 13.03 39.793 16.496v19.984c0 14.01 11.397 25.407 25.407 25.407h18.624c14.01 0 25.407-11.397 25.407-25.407v-19.984c14.042-3.465 27.397-9.002 39.793-16.496l14.143 14.144c9.907 9.906 26.025 9.906 35.931 0l13.169-13.169c4.799-4.799 7.442-11.18 7.442-17.966.096-13.407-9.318-19.458-17.597-28.121h165.4c18.472 0 33.5-15.028 33.5-33.5v-219.654c0-4.143-3.358-7.5-7.5-7.5s-7.5 3.357-7.5 7.5v219.654c0 10.201-8.299 18.5-18.5 18.5h-163.392c4.512-9.185 8.039-18.804 10.5-28.78h19.985c14.01 0 25.407-11.398 25.407-25.408v-18.623c0-14.01-11.397-25.408-25.407-25.408h-19.985c-3.464-14.042-9-27.396-16.496-39.792l14.143-14.144c9.856-9.458 9.857-26.474 0-35.932 0 0-13.169-13.169-13.169-13.169-9.906-9.906-26.024-9.906-35.931 0l-14.143 14.144c-10.532-6.368-21.761-11.306-33.512-14.777v-93.111h270.5v21.154c.298 9.897 14.692 9.926 15 0v-82.654c0-18.472-15.028-33.5-33.5-33.5zm-152.048 357.601c-.001.006-.002.012-.004.018.001-.007.003-.013.004-.018zm-58.437-141.502 16.747-16.747c4.059-4.059 10.662-4.058 14.718 0l13.169 13.169c4.038 3.878 4.037 10.84 0 14.718 0 0-16.748 16.748-16.748 16.748-3.468 3.47-4.038 8.788-1.386 12.934 8.21 12.825 14.026 26.854 17.286 41.698 1.056 4.806 5.22 8.162 10.125 8.162h23.666c5.739 0 10.407 4.669 10.407 10.408v18.623c0 5.739-4.668 10.408-10.407 10.408h-23.666c-4.906 0-9.07 3.356-10.125 8.162v.001c-3.259 14.843-9.075 28.872-17.286 41.698-2.652 4.145-2.083 9.463 1.387 12.935l16.747 16.745c1.966 1.967 3.048 4.58 3.048 7.36 0 2.779-1.083 5.393-3.048 7.358 0 0-13.169 13.169-13.169 13.169-4.057 4.06-10.66 4.06-14.718 0l-16.747-16.747c-3.471-3.47-8.79-4.04-12.934-1.386-12.825 8.209-26.854 14.025-41.697 17.285-4.807 1.056-8.165 5.219-8.165 10.126v23.666c0 5.738-4.668 10.407-10.407 10.407h-18.624c-5.739 0-10.407-4.669-10.407-10.407v-23.666c0-4.907-3.357-9.07-8.163-10.125-14.845-3.261-28.874-9.077-41.697-17.285-4.109-2.638-9.445-2.107-12.936 1.385 0 0-16.747 16.747-16.747 16.747-4.058 4.06-10.661 4.06-14.718 0l-13.169-13.169c-4.033-3.879-4.041-10.841 0-14.718 0 0 16.748-16.748 16.748-16.748 3.468-3.47 4.038-8.788 1.386-12.934-8.21-12.825-14.026-26.854-17.286-41.698-1.056-4.806-5.22-8.162-10.125-8.162h-23.666c-5.739 0-10.407-4.669-10.407-10.408v-18.623c0-5.739 4.668-10.408 10.407-10.408h23.666c4.906 0 9.07-3.356 10.126-8.163 3.259-14.843 9.075-28.872 17.286-41.698 2.652-4.145 2.083-9.463-1.387-12.934 0 0-16.747-16.748-16.747-16.748-4.033-3.868-4.041-10.847 0-14.717 0 0 13.169-13.169 13.169-13.169 4.058-4.058 10.661-4.059 14.718 0 0 0 16.747 16.747 16.747 16.747 3.471 3.47 8.79 4.041 12.934 1.386 12.825-8.209 26.854-14.025 41.697-17.285 4.807-1.056 8.165-5.219 8.165-10.126v-23.666c0-5.738 4.668-10.407 10.407-10.407h18.624c5.739 0 10.407 4.669 10.407 10.407v23.666c0 4.907 3.357 9.07 8.163 10.125 14.845 3.261 28.874 9.077 41.697 17.285 4.145 2.657 9.463 2.084 12.935-1.384zm-41.515-136.099v-46.5c0-10.201 8.299-18.5 18.5-18.5h233.5c10.201 0 18.5 8.299 18.5 18.5v46.5z"/><path d="m285.731 23.672c-12.958 0-23.5 10.542-23.5 23.5 1.181 31.133 45.823 31.125 47 0 0-12.958-10.542-23.5-23.5-23.5zm0 32c-4.687 0-8.5-3.813-8.5-8.5.399-11.25 16.602-11.247 17 0 0 4.686-3.813 8.5-8.5 8.5z"/><path d="m344.397 23.672c-12.958 0-23.5 10.542-23.5 23.5 1.181 31.133 45.823 31.125 47 0 0-12.958-10.542-23.5-23.5-23.5zm0 32c-4.687 0-8.5-3.813-8.5-8.5.399-11.25 16.602-11.247 17 0 0 4.686-3.813 8.5-8.5 8.5z"/><path d="m403.064 23.672c-12.958 0-23.5 10.542-23.5 23.5 1.181 31.133 45.823 31.125 47 0 0-12.958-10.542-23.5-23.5-23.5zm0 32c-4.687 0-8.5-3.813-8.5-8.5.399-11.25 16.602-11.247 17 0 0 4.686-3.813 8.5-8.5 8.5z"/><path d="m86.65 326.5c0 24.498 9.098 47.94 25.617 66.009 2.795 3.057 7.54 3.269 10.596.475 3.057-2.795 3.27-7.539.475-10.596-57.164-63.721 7.055-161.356 88.162-134.196v123.308c0 10.986 5.304 20.93 13.76 27.086-22.319 13.104-52.88 14.404-76.505 2.679-9.046-4.017-15.3 8.971-6.479 13.528 63.165 31.503 141.232-17.608 140.074-88.294-4.91-129.609-190.792-129.617-195.7.001zm180.7 0c0 24.899-11.057 47.251-28.5 62.452-7.35-2.576-12.35-9.521-12.35-17.452v-116.373c24.423 14.428 40.85 41.011 40.85 71.373z"/><path d="m462.706 127.617h-52.36c-9.899.299-9.924 14.692 0 15h52.36c4.142 0 7.5-3.357 7.5-7.5s-3.358-7.5-7.5-7.5z"/><path d="m462.706 237.776h-33.349c-9.904.302-9.92 14.693 0 15h33.348c9.905-.301 9.921-14.693.001-15z"/><path d="m462.706 158.889h-95.09c-4.142 0-7.5 3.357-7.5 7.5s3.358 7.5 7.5 7.5h95.09c9.886-.294 9.936-14.689 0-15z"/><path d="m462.706 190.159h-95.09c-4.142 0-7.5 3.357-7.5 7.5s3.358 7.5 7.5 7.5h95.09c9.886-.294 9.936-14.689 0-15z"/></g></g></svg>