<svg id="Layer_1" enable-background="new 0 0 512 512" height="512" viewBox="0 0 512 512" width="512" xmlns="http://www.w3.org/2000/svg"><g><g><path d="m478.5 21.486h-445c-18.472 0-33.5 15.028-33.5 33.5v167.205c0 4.143 3.358 7.5 7.5 7.5s7.5-3.357 7.5-7.5v-105.705h230.909v76.965c0 25.586 20.855 46.401 46.491 46.401h75.164c5.08 14.798 22.005 31.41 46.412 36.347 7.455 1.644 13.407-7.059 9.096-13.418-1.667-2.548-5.392-9.641-6.13-22.929h19.477c25.635 0 46.491-20.815 46.491-46.401v-76.965h14.09v276.5c0 10.201-8.299 18.5-18.5 18.5h-203.382c.109-1.294.178-2.601.178-3.923v-90.676c0-25.586-20.855-46.401-46.491-46.401h-144.023c-25.632 0-46.486 20.813-46.486 46.396v90.681c0 1.322.069 2.628.178 3.923h-4.974c-10.201 0-18.5-8.299-18.5-18.5v-136.128c0-4.143-3.358-7.5-7.5-7.5s-7.5 3.357-7.5 7.5v136.128c0 18.472 15.028 33.5 33.5 33.5h8.854c7.271 16.176 23.549 27.478 42.432 27.478h19.477c-.737 13.288-4.463 20.381-6.129 22.928-4.31 6.362 1.638 15.064 9.098 13.42 24.407-4.937 41.331-21.55 46.409-36.348h75.165c18.884 0 35.162-11.301 42.433-27.478h207.261c18.472 0 33.5-15.028 33.5-33.5v-338c0-18.472-15.028-33.5-33.5-33.5zm-249.694 417.478h-77.809c-5.251 0-9.827 3.593-11.126 8.737-1.688 6.689-9.302 17.529-23.315 23.942 1.537-5.448 2.708-12.373 2.827-20.956.221-6.273-5.285-11.854-11.557-11.724h-23.038c-17.364 0-31.49-14.086-31.49-31.4v-90.681c0-17.312 14.125-31.396 31.486-31.396h144.023c17.364 0 31.491 14.087 31.491 31.401v90.676c-.002 17.315-14.128 31.401-31.492 31.401zm254.07-337.478c-.686-24.99-21.252-45.111-46.453-45.111h-37.73c-4.142 0-7.5 3.357-7.5 7.5s3.358 7.5 7.5 7.5h37.73c17.361 0 31.486 14.084 31.486 31.396v90.681c0 17.314-14.126 31.401-31.491 31.401h-23.038c-6.273-.137-11.778 5.456-11.557 11.724.119 8.582 1.29 15.507 2.826 20.954-14.015-6.413-21.626-17.251-23.315-23.94-1.299-5.145-5.874-8.737-11.126-8.737h-77.809c-17.364 0-31.491-14.087-31.491-31.401v-90.676c0-17.314 14.126-31.4 31.491-31.4h70.703c9.874-.271 9.939-14.7 0-15h-70.703c-25.202 0-45.77 20.122-46.458 45.111h-230.941v-46.5c0-10.201 8.299-18.5 18.5-18.5h445c10.201 0 18.5 8.299 18.5 18.5v46.5h-14.124z"/><path d="m74.231 45.158c-12.958 0-23.5 10.542-23.5 23.5 1.181 31.133 45.823 31.125 47 0 0-12.958-10.542-23.5-23.5-23.5zm0 32c-4.687 0-8.5-3.813-8.5-8.5.399-11.25 16.602-11.247 17 0 0 4.686-3.813 8.5-8.5 8.5z"/><path d="m132.897 45.158c-12.958 0-23.5 10.542-23.5 23.5 1.181 31.133 45.823 31.125 47 0 0-12.958-10.542-23.5-23.5-23.5zm0 32c-4.687 0-8.5-3.813-8.5-8.5.399-11.25 16.602-11.247 17 0 0 4.686-3.813 8.5-8.5 8.5z"/><path d="m191.564 45.158c-12.958 0-23.5 10.542-23.5 23.5 1.181 31.133 45.823 31.125 47 0 0-12.958-10.542-23.5-23.5-23.5zm0 32c-4.687 0-8.5-3.813-8.5-8.5.399-11.25 16.602-11.247 17 0 0 4.686-3.813 8.5-8.5 8.5z"/><path d="m301.721 120.192h52.36c9.899-.299 9.924-14.692 0-15h-52.36c-4.142 0-7.5 3.357-7.5 7.5s3.358 7.5 7.5 7.5z"/><path d="m294.221 143.963c0 4.143 3.358 7.5 7.5 7.5h95.089c4.142 0 7.5-3.357 7.5-7.5s-3.358-7.5-7.5-7.5h-95.089c-4.142 0-7.5 3.357-7.5 7.5z"/><path d="m396.81 167.733h-95.089c-4.142 0-7.5 3.357-7.5 7.5s3.358 7.5 7.5 7.5h95.089c9.886-.294 9.936-14.689 0-15z"/><path d="m99.589 336.263h52.36c9.899-.299 9.924-14.692 0-15h-52.36c-4.142 0-7.5 3.357-7.5 7.5s3.358 7.5 7.5 7.5z"/><path d="m194.678 352.534h-95.089c-4.142 0-7.5 3.357-7.5 7.5s3.358 7.5 7.5 7.5h95.089c9.886-.294 9.936-14.689 0-15z"/><path d="m194.678 383.804h-95.089c-4.142 0-7.5 3.357-7.5 7.5s3.358 7.5 7.5 7.5h95.089c9.886-.294 9.936-14.688 0-15z"/><path d="m412.422 369.763c32.44-1.223 32.466-47.767 0-49h-68c-32.44 1.223-32.466 47.767 0 49zm-77.5-24.5c0-5.238 4.262-9.5 9.5-9.5h68c5.238 0 9.5 4.262 9.5 9.5s-4.262 9.5-9.5 9.5h-68c-5.238 0-9.5-4.261-9.5-9.5z"/></g></g></svg>