<svg id="Layer_1" enable-background="new 0 0 512 512" height="512" viewBox="0 0 512 512" width="512" xmlns="http://www.w3.org/2000/svg"><g><g><path d="m498.5 449h-21.448c4.978-6.467 7.948-14.556 7.948-23.33v-244.34c0-21.136-17.194-38.33-38.33-38.33h-48.17v-115.5c0-15.163-12.337-27.5-27.5-27.5h-230c-15.164 0-27.5 12.337-27.5 27.5v115.5h-48.17c-21.135 0-38.33 17.194-38.33 38.33v180.157c.278 9.837 14.674 9.981 15 0v-180.157c0-12.864 10.466-23.33 23.33-23.33h48.17v15h-37.1c-10.697 0-19.4 8.703-19.4 19.4v222.2c0 10.697 8.703 19.4 19.4 19.4h359.2c10.697 0 19.4-8.703 19.4-19.4v-222.2c0-10.697-8.703-19.4-19.4-19.4h-37.1v-15h48.17c12.864 0 23.33 10.466 23.33 23.33v244.34c0 12.864-10.466 23.33-23.33 23.33h-381.34c-12.864 0-23.33-10.466-23.33-23.33v-28.695c0-4.143-3.358-7.5-7.5-7.5s-7.5 3.357-7.5 7.5v28.695c0 8.774 2.97 16.863 7.948 23.33h-21.448c-7.444 0-13.5 6.056-13.5 13.5v17.819c0 17.469 14.212 31.681 31.681 31.681h448.638c17.469 0 31.681-14.212 31.681-31.681v-17.819c0-7.444-6.056-13.5-13.5-13.5zm-370-421.5c0-6.893 5.607-12.5 12.5-12.5h230c6.893 0 12.5 5.607 12.5 12.5v52.5h-255zm-56.5 387.1v-222.2c0-2.427 1.974-4.4 4.4-4.4h37.1v231h-37.1c-2.426 0-4.4-1.974-4.4-4.4zm56.5 4.4v-324h255v324zm307.1-231c2.427 0 4.4 1.974 4.4 4.4v222.2c0 2.427-1.974 4.4-4.4 4.4h-37.1v-231zm-135.132 276-3.115 9h-82.704l-3.116-9zm196.532 16.319c0 9.197-7.483 16.681-16.681 16.681h-448.638c-9.198 0-16.681-7.483-16.681-16.681v-16.319h180.66l5.443 15.724c1.713 4.95 6.384 8.276 11.623 8.276h86.549c5.236 0 9.907-3.324 11.624-8.276l5.442-15.724h180.659z"/><path d="m174.408 23.672c-12.958 0-23.5 10.542-23.5 23.5 1.181 31.133 45.823 31.125 47 0 0-12.958-10.542-23.5-23.5-23.5zm0 32c-4.687 0-8.5-3.813-8.5-8.5.399-11.25 16.602-11.247 17 0 0 4.686-3.813 8.5-8.5 8.5z"/><path d="m233.074 23.672c-12.958 0-23.5 10.542-23.5 23.5 1.181 31.133 45.823 31.125 47 0 0-12.958-10.542-23.5-23.5-23.5zm0 32c-4.687 0-8.5-3.813-8.5-8.5.399-11.25 16.602-11.247 17 0 0 4.686-3.813 8.5-8.5 8.5z"/><path d="m291.741 23.672c-12.958 0-23.5 10.542-23.5 23.5 1.181 31.133 45.823 31.125 47 0 0-12.958-10.542-23.5-23.5-23.5zm0 32c-4.687 0-8.5-3.813-8.5-8.5.4-11.25 16.602-11.247 17 0 0 4.686-3.813 8.5-8.5 8.5z"/><path d="m163.682 273.353h86.6c4.142 0 7.5-3.357 7.5-7.5s-3.358-7.5-7.5-7.5h-86.6c-9.889.295-9.934 14.689 0 15z"/><path d="m348.318 296.353h-184.636c-9.856.281-9.962 14.682 0 15h184.637c9.855-.281 9.962-14.683-.001-15z"/><path d="m348.318 334.353h-184.636c-9.856.281-9.962 14.682 0 15h184.637c9.855-.281 9.962-14.683-.001-15z"/><path d="m348.318 372.353h-184.636c-9.856.281-9.962 14.682 0 15h184.637c9.855-.281 9.962-14.683-.001-15z"/><path d="m172.09 218.628h167.82c8.597 0 15.59-6.993 15.59-15.59v-67.82c0-8.597-6.993-15.59-15.59-15.59h-33.372c-9.942.324-9.89 14.698 0 15h33.372c.325 0 .59.265.59.59v67.82c0 .325-.265.59-.59.59-.692-.642-168.459 1.165-168.409-.588-.001-.001-.001-67.822-.001-67.822 0-.325.265-.59.59-.59h98.756c4.143 0 7.5-3.357 7.5-7.5s-3.357-7.5-7.5-7.5h-98.756c-8.596 0-15.59 6.993-15.59 15.59v67.82c0 8.597 6.994 15.59 15.59 15.59z"/></g></g></svg>