<svg id="Layer_1" enable-background="new 0 0 512 512" height="512" viewBox="0 0 512 512" width="512" xmlns="http://www.w3.org/2000/svg"><g><g><path d="m489.576 467h-34v-77.5c0-6.341-5.159-11.5-11.5-11.5h-116.5v-77.5c0-6.341-5.159-11.5-11.5-11.5h-120c-6.341 0-11.5 5.159-11.5 11.5v40.5h-116.5c-6.341 0-11.5 5.159-11.5 11.5v114.5h-34c-12.406 0-22.5 10.094-22.5 22.5s10.094 22.5 22.5 22.5h51.423c4.143 0 7.5-3.357 7.5-7.5s-3.357-7.5-7.5-7.5h-51.423c-9.791-.263-10.014-14.661 0-15h467c9.655.238 10.164 14.578 0 15h-380.192c-9.862.281-9.956 14.686 0 15h380.192c29.622-1.043 29.971-43.812 0-45zm-418-111h113v111h-113zm128-52h113v163h-113zm128 163v-74h113v74z"/><path d="m171.467 250h169.219c18.472 0 33.5-15.028 33.5-33.5v-183c0-18.472-15.028-33.5-33.5-33.5h-21.302c-4.143 0-7.5 3.357-7.5 7.5s3.357 7.5 7.5 7.5h21.302c10.201 0 18.5 8.299 18.5 18.5v46.5h-206.219v-46.5c0-10.201 8.299-18.5 18.5-18.5h112.43c4.143 0 7.5-3.357 7.5-7.5s-3.357-7.5-7.5-7.5h-112.43c-18.472 0-33.5 15.028-33.5 33.5v183c0 18.472 15.028 33.5 33.5 33.5zm187.719-155v121.5c0 10.201-8.299 18.5-18.5 18.5h-169.219c-10.201 0-18.5-8.299-18.5-18.5v-121.5z"/><path d="m169.852 47.172c0 12.958 10.542 23.5 23.5 23.5 31.133-1.181 31.125-45.823 0-47-12.958 0-23.5 10.542-23.5 23.5zm32 0c0 4.687-3.813 8.5-8.5 8.5-11.25-.4-11.247-16.602 0-17 4.686 0 8.5 3.813 8.5 8.5z"/><path d="m208.531 136.291h52.36c9.899-.299 9.925-14.692 0-15h-52.36c-4.143 0-7.5 3.357-7.5 7.5s3.358 7.5 7.5 7.5z"/><path d="m208.531 167.562h95.09c9.886-.294 9.936-14.689 0-15h-95.09c-9.886.293-9.936 14.689 0 15z"/><path d="m208.531 198.833h95.09c9.886-.294 9.936-14.689 0-15h-95.09c-9.886.294-9.936 14.689 0 15z"/></g></g></svg>