<svg id="Layer_1" enable-background="new 0 0 512 512" height="512" viewBox="0 0 512 512" width="512" xmlns="http://www.w3.org/2000/svg"><g><g><path d="m391 0h-270c-18.472 0-33.5 15.028-33.5 33.5v363.167c0 4.143 3.357 7.5 7.5 7.5s7.5-3.357 7.5-7.5v-301.667h307v383.5c0 10.201-8.299 18.5-18.5 18.5h-270c-10.201 0-18.5-8.299-18.5-18.5v-46.962c0-4.143-3.357-7.5-7.5-7.5s-7.5 3.357-7.5 7.5v46.962c0 18.472 15.028 33.5 33.5 33.5h270c18.472 0 33.5-15.028 33.5-33.5v-445c0-18.472-15.028-33.5-33.5-33.5zm-288.5 80v-46.5c0-10.201 8.299-18.5 18.5-18.5h270c10.201 0 18.5 8.299 18.5 18.5v46.5z"/><path d="m174.407 23.672c-12.958 0-23.5 10.542-23.5 23.5 1.181 31.133 45.823 31.125 47 0 0-12.958-10.542-23.5-23.5-23.5zm0 32c-4.687 0-8.5-3.813-8.5-8.5.4-11.25 16.602-11.247 17 0 0 4.686-3.813 8.5-8.5 8.5z"/><path d="m233.074 23.672c-12.958 0-23.5 10.542-23.5 23.5 1.181 31.133 45.823 31.125 47 0 0-12.958-10.542-23.5-23.5-23.5zm0 32c-4.687 0-8.5-3.813-8.5-8.5.4-11.25 16.602-11.247 17 0 0 4.686-3.813 8.5-8.5 8.5z"/><path d="m291.741 23.672c-12.958 0-23.5 10.542-23.5 23.5 1.181 31.133 45.823 31.125 47 0 0-12.958-10.542-23.5-23.5-23.5zm0 32c-4.687 0-8.5-3.813-8.5-8.5.4-11.25 16.602-11.247 17 0 0 4.686-3.813 8.5-8.5 8.5z"/><path d="m297.143 157.532h-122.004l-1.016-11.85c-.756-8.815-8.023-15.489-16.888-15.524l-25.637-.158c-4.136-.027-7.522 3.311-7.546 7.454-.025 4.142 3.312 7.521 7.454 7.546l25.654.158c1.062.004 1.93.78 2.018 1.806.002.007 1.603 18.709 1.605 18.716l8.646 105.502c.8 9.769 8.198 17.671 17.549 19.441l-3.944 7.847c-17.215-3.331-33.808 10.471-33.624 28.03 0 15.715 12.785 28.5 28.5 28.5 26.342.001 38.404-33.094 18.644-50.028l7.023-13.972h120.279l5.912 13.492c-20.449 16.665-8.63 50.492 18.088 50.508 15.714 0 28.5-12.785 28.5-28.5.156-17.294-15.864-30.967-32.906-28.158l-3.54-8.08c8.619-2.3 15.271-9.85 16.027-19.081l8.648-105.537c.172-2.088-.539-4.153-1.959-5.694s-3.42-2.418-5.516-2.418h-24.826c-9.91.309-9.917 14.691 0 15h16.686l-7.983 97.425c-.278 3.389-3.159 6.043-6.559 6.043h-143.49c-3.399 0-6.28-2.654-6.559-6.043l-7.983-97.425h120.748c9.902-.3 9.919-14.694-.001-15zm-119.233 182.468c-7.444 0-13.5-6.056-13.5-13.5.678-17.885 26.325-17.88 27 0 0 7.444-6.056 13.5-13.5 13.5zm183.444-13.5c0 7.444-6.056 13.5-13.5 13.5-17.885-.678-17.88-26.325 0-27 7.445 0 13.5 6.056 13.5 13.5z"/><path d="m205.72 209.266v30c1.128 29.8 43.87 29.807 45 0v-30c-1.128-29.801-43.87-29.808-45 0zm30 0v30c-.311 9.903-14.685 9.917-15 0v-30c.311-9.904 14.684-9.917 15 0z"/><path d="m274.643 209.266v30c1.128 29.8 43.87 29.807 45 0v-30c-1.128-29.801-43.871-29.808-45 0zm30 0v30c-.311 9.903-14.685 9.917-15 0v-30c.311-9.904 14.684-9.917 15 0z"/><path d="m313 394.891h-114c-19.575 0-35.5 15.925-35.5 35.5s15.925 35.5 35.5 35.5h114c47-1.77 47.047-69.213 0-71zm0 56h-114c-27.128-1.016-27.18-39.963 0-41h114c11.304 0 20.5 9.196 20.5 20.5s-9.196 20.5-20.5 20.5z"/></g></g></svg>