<svg clip-rule="evenodd" fill-rule="evenodd" height="512" stroke-linejoin="round" stroke-miterlimit="2" viewBox="0 0 64 64" width="512" xmlns="http://www.w3.org/2000/svg"><g transform="translate(-320 -64)"><g id="Icon"><path d="m365 90c0-.796-.316-1.559-.879-2.121-.562-.563-1.325-.879-2.121-.879-4.52 0-15.48 0-20 0-.796 0-1.559.316-2.121.879-.563.562-.879 1.325-.879 2.121v12c0 .796.316 1.559.879 2.121.562.563 1.325.879 2.121.879h20c.796 0 1.559-.316 2.121-.879.563-.562.879-1.325.879-2.121zm-2 0v12c0 .265-.105.52-.293.707-.187.188-.442.293-.707.293h-20c-.265 0-.52-.105-.707-.293-.188-.187-.293-.442-.293-.707v-12c0-.265.105-.52.293-.707.187-.188.442-.293.707-.293h20c.265 0 .52.105.707.293.188.187.293.442.293.707z"/><path d="m345 100v-4c0-.552-.448-1-1-1s-1 .448-1 1v4c0 .552.448 1 1 1s1-.448 1-1z"/><g transform="translate(4)"><path d="m345 100v-8c0-.552-.448-1-1-1s-1 .448-1 1v8c0 .552.448 1 1 1s1-.448 1-1z"/></g><g transform="translate(8)"><path d="m345 100v-6c0-.552-.448-1-1-1s-1 .448-1 1v6c0 .552.448 1 1 1s1-.448 1-1z"/></g><g transform="translate(12)"><path d="m345 100v-4c0-.552-.448-1-1-1s-1 .448-1 1v4c0 .552.448 1 1 1s1-.448 1-1z"/></g><g transform="translate(16)"><path d="m345 100v-6c0-.552-.448-1-1-1s-1 .448-1 1v6c0 .552.448 1 1 1s1-.448 1-1z"/></g><g transform="translate(-1 -1)"><circle cx="341" cy="73" r="1"/></g><g transform="translate(3 -1)"><circle cx="341" cy="73" r="1"/></g><g transform="translate(7 -1)"><circle cx="341" cy="73" r="1"/></g><path d="m348 121h8c.552 0 1-.448 1-1s-.448-1-1-1h-8c-.552 0-1 .448-1 1s.448 1 1 1z"/><path d="m369 72c0-2.761-2.239-5-5-5h-24c-2.761 0-5 2.239-5 5v48c0 2.761 2.239 5 5 5h24c2.761 0 5-2.239 5-5zm-25 43c.552 0 1 .448 1 1s-.448 1-1 1h-7v3c0 1.657 1.343 3 3 3h24c1.657 0 3-1.343 3-3v-3h-19c-.552 0-1-.448-1-1s.448-1 1-1h19v-38h-30v38zm23-40h-30v-3c0-1.657 1.343-3 3-3h24c1.657 0 3 1.343 3 3z"/></g></g></svg>