<svg clip-rule="evenodd" fill-rule="evenodd" height="512" stroke-linejoin="round" stroke-miterlimit="2" viewBox="0 0 64 64" width="512" xmlns="http://www.w3.org/2000/svg"><g transform="translate(-448 -64)"><g id="Icon"><g transform="translate(2)"><path d="m476.894 96.447 4-8c.247-.493.047-1.095-.447-1.341-.493-.247-1.095-.047-1.341.447l-4 8c-.247.493-.047 1.095.447 1.341.493.247 1.095.047 1.341-.447z"/></g><g transform="translate(123 -1)"><circle cx="341" cy="73" r="1"/></g><g transform="translate(127 -1)"><circle cx="341" cy="73" r="1"/></g><g transform="translate(131 -1)"><circle cx="341" cy="73" r="1"/></g><path d="m496 71h-16c-.552 0-1 .448-1 1s.448 1 1 1h16c.552 0 1-.448 1-1s-.448-1-1-1z"/><path d="m476 113h8c.552 0 1-.448 1-1s-.448-1-1-1h-8c-.552 0-1 .448-1 1s.448 1 1 1z"/><path d="m471.382 119h-1.382c-.796 0-1.559.316-2.121.879-.563.562-.879 1.325-.879 2.121s.316 1.559.879 2.121c.562.563 1.325.879 2.121.879h20c.796 0 1.559-.316 2.121-.879.563-.562.879-1.325.879-2.121 0-.796-.316-1.559-.879-2.121-.562-.563-1.325-.879-2.121-.879h-1.382l-1-2h16.382c2.761 0 5-2.239 5-5v-32c0-2.761-2.239-5-5-5h-3v-3c0-2.761-2.239-5-5-5h-32c-2.761 0-5 2.239-5 5v3h-3c-2.761 0-5 2.239-5 5v32c0 2.761 2.239 5 5 5h16.382zm19.618 3c0-.265-.105-.52-.293-.707-.187-.188-.442-.293-.707-.293h-20c-.265 0-.52.105-.707.293-.188.187-.293.442-.293.707s.105.52.293.707c.187.188.442.293.707.293h20c.265 0 .52-.105.707-.293.188-.187.293-.442.293-.707zm-5.618-5 1 2h-12.764s1-2 1-2zm21.618-8h-54v3c0 1.657 1.343 3 3 3h48c1.657 0 3-1.343 3-3zm-48-32h-3c-1.657 0-3 1.343-3 3v27h7c-.628-.836-1-1.874-1-3zm40-2v-3c0-1.657-1.343-3-3-3h-32c-1.657 0-3 1.343-3 3v3h27c.552 0 1 .448 1 1s-.448 1-1 1h-27v27c0 1.657 1.343 3 3 3h32c1.657 0 3-1.343 3-3v-27h-7c-.552 0-1-.448-1-1s.448-1 1-1zm2 2v27c0 1.126-.372 2.164-1 3h7v-27c0-1.657-1.343-3-3-3z"/><path d="m471.293 87.293-4 4c-.391.39-.391 1.024 0 1.414l4 4c.39.39 1.024.39 1.414 0s.39-1.024 0-1.414l-3.293-3.293s3.293-3.293 3.293-3.293c.39-.39.39-1.024 0-1.414s-1.024-.39-1.414 0z"/><g transform="matrix(-1 0 0 1 960 0)"><path d="m472.707 88.707-3.293 3.293s3.293 3.293 3.293 3.293c.39.39.39 1.024 0 1.414s-1.024.39-1.414 0l-4-4c-.391-.39-.391-1.024 0-1.414l4-4c.39-.39 1.024-.39 1.414 0s.39 1.024 0 1.414z"/></g></g></g></svg>