<svg clip-rule="evenodd" fill-rule="evenodd" height="512" stroke-linejoin="round" stroke-miterlimit="2" viewBox="0 0 64 64" width="512" xmlns="http://www.w3.org/2000/svg"><g transform="translate(-576 -64)"><g id="Icon"><path d="m587 79h-3c-1.326 0-2.598.527-3.536 1.464-.937.938-1.464 2.21-1.464 3.536v4c0 1.326.527 2.598 1.464 3.536.938.937 2.21 1.464 3.536 1.464h3v2h-3c-1.326 0-2.598.527-3.536 1.464-.937.938-1.464 2.21-1.464 3.536v4c0 1.326.527 2.598 1.464 3.536.938.937 2.21 1.464 3.536 1.464h4.065c1.4 3.264 4.047 6.149 6.981 8.529 4.569 3.705 9.808 6.189 11.77 7.054.004.001.008.003.012.005.749.318 1.595.318 2.344.001.004-.002.008-.004.013-.006 1.962-.865 7.201-3.349 11.769-7.054 2.934-2.38 5.581-5.265 6.981-8.529h4.065c1.326 0 2.598-.527 3.536-1.464.937-.938 1.464-2.21 1.464-3.536v-4c0-1.326-.527-2.598-1.464-3.536-.938-.937-2.21-1.464-3.536-1.464h-3v-2h3c1.326 0 2.598-.527 3.536-1.464.937-.938 1.464-2.21 1.464-3.536 0-1.287 0-2.713 0-4 0-1.326-.527-2.598-1.464-3.536-.938-.937-2.21-1.464-3.536-1.464h-3v-5c0-1.657-1.343-3-3-3h-5.279c-2.949 0-5.858-.687-8.497-2.006l-2.882-1.441c-.845-.423-1.839-.423-2.684 0l-2.882 1.441c-2.639 1.319-5.548 2.006-8.497 2.006h-5.279c-1.657 0-3 1.343-3 3zm3.271 30h2.259c.853 1.388 2 2.67 3.239 3.848 4.012 3.816 9.249 6.504 11.81 7.69.267.124.574.124.841 0 2.58-1.195 7.806-3.88 11.811-7.689 1.239-1.179 2.386-2.461 3.239-3.849h2.259c-1.345 2.654-3.595 4.996-6.035 6.975-4.385 3.557-9.416 5.94-11.308 6.775-.244.102-.519.102-.764.002-1.899-.837-6.93-3.219-11.316-6.777-2.44-1.979-4.69-4.321-6.035-6.975zm30.775 0h-26.092c.646.847 1.401 1.645 2.194 2.399 3.618 3.442 8.288 5.912 10.852 7.127 2.577-1.221 7.239-3.689 10.852-7.127.793-.754 1.548-1.552 2.194-2.399zm10.954-12h-48c-.796 0-1.559.316-2.121.879-.563.562-.879 1.325-.879 2.121v4c0 .796.316 1.559.879 2.121.562.563 1.325.879 2.121.879h48c.796 0 1.559-.316 2.121-.879.563-.562.879-1.325.879-2.121v-4c0-.796-.316-1.559-.879-2.121-.562-.563-1.325-.879-2.121-.879zm-41-4v2h-2v-2zm41-12h-48c-.796 0-1.559.316-2.121.879-.563.562-.879 1.325-.879 2.121v4c0 .796.316 1.559.879 2.121.562.563 1.325.879 2.121.879h32c.552 0 1 .448 1 1s-.448 1-1 1h-23v2h30v-2h-3c-.552 0-1-.448-1-1s.448-1 1-1h12c.796 0 1.559-.316 2.121-.879.563-.562.879-1.325.879-2.121v-4c0-.796-.316-1.559-.879-2.121-.562-.563-1.325-.879-2.121-.879zm-5 12v2h-2v-2zm-36-14h-.843-1.157v-5c0-.552.448-1 1-1h5.279c3.26 0 6.475-.759 9.391-2.217 0 0 2.883-1.441 2.883-1.441.281-.141.613-.141.894 0 0 0 2.883 1.441 2.883 1.441 2.916 1.458 6.131 2.217 9.391 2.217h5.279c.552 0 1 .448 1 1v5h-2v-3c0-.552-.448-1-1-1h-3.279c-3.57 0-7.092-.831-10.286-2.428 0 0-1.988-.994-1.988-.994-.281-.141-.613-.141-.894 0l-1.988.994c-3.194 1.597-6.716 2.428-10.286 2.428h-3.279c-.552 0-1 .448-1 1zm32 0v-2h-2.279c-3.881 0-7.709-.904-11.18-2.639 0 0-1.541-.771-1.541-.771s-1.541.771-1.541.771c-3.471 1.735-7.299 2.639-11.18 2.639h-2.279v2z"/><g transform="translate(382 10)"><path d="m204 73c-1.656 0-3 1.344-3 3s1.344 3 3 3 3-1.344 3-3-1.344-3-3-3zm0 2c.552 0 1 .448 1 1s-.448 1-1 1-1-.448-1-1 .448-1 1-1z"/></g><g transform="translate(382 26)"><path d="m204 73c-1.656 0-3 1.344-3 3s1.344 3 3 3 3-1.344 3-3-1.344-3-3-3zm0 2c.552 0 1 .448 1 1s-.448 1-1 1-1-.448-1-1 .448-1 1-1z"/></g><g transform="translate(390 10)"><path d="m204 73c-1.656 0-3 1.344-3 3s1.344 3 3 3 3-1.344 3-3-1.344-3-3-3zm0 2c.552 0 1 .448 1 1s-.448 1-1 1-1-.448-1-1 .448-1 1-1z"/></g><g transform="translate(390 26)"><path d="m204 73c-1.656 0-3 1.344-3 3s1.344 3 3 3 3-1.344 3-3-1.344-3-3-3zm0 2c.552 0 1 .448 1 1s-.448 1-1 1-1-.448-1-1 .448-1 1-1z"/></g><g transform="translate(398 10)"><path d="m204 73c-1.656 0-3 1.344-3 3s1.344 3 3 3 3-1.344 3-3-1.344-3-3-3zm0 2c.552 0 1 .448 1 1s-.448 1-1 1-1-.448-1-1 .448-1 1-1z"/></g><g transform="translate(398 26)"><path d="m204 73c-1.656 0-3 1.344-3 3s1.344 3 3 3 3-1.344 3-3-1.344-3-3-3zm0 2c.552 0 1 .448 1 1s-.448 1-1 1-1-.448-1-1 .448-1 1-1z"/></g><path d="m607 86c0 .796.316 1.559.879 2.121.562.563 1.325.879 2.121.879h20c.796 0 1.559-.316 2.121-.879.563-.562.879-1.325.879-2.121 0-.796-.316-1.559-.879-2.121-.562-.563-1.325-.879-2.121-.879-4.52 0-15.48 0-20 0-.796 0-1.559.316-2.121.879-.563.562-.879 1.325-.879 2.121zm24 0c0-.265-.105-.52-.293-.707-.187-.188-.442-.293-.707-.293h-20c-.265 0-.52.105-.707.293-.188.187-.293.442-.293.707s.105.52.293.707c.187.188.442.293.707.293h20c.265 0 .52-.105.707-.293.188-.187.293-.442.293-.707z"/><g transform="translate(0 16)"><path d="m607 86c0 .796.316 1.559.879 2.121.562.563 1.325.879 2.121.879h20c.796 0 1.559-.316 2.121-.879.563-.562.879-1.325.879-2.121 0-.796-.316-1.559-.879-2.121-.562-.563-1.325-.879-2.121-.879-4.52 0-15.48 0-20 0-.796 0-1.559.316-2.121.879-.563.562-.879 1.325-.879 2.121zm24 0c0-.265-.105-.52-.293-.707-.187-.188-.442-.293-.707-.293h-20c-.265 0-.52.105-.707.293-.188.187-.293.442-.293.707s.105.52.293.707c.187.188.442.293.707.293h20c.265 0 .52-.105.707-.293.188-.187.293-.442.293-.707z"/></g></g></g></svg>