<svg clip-rule="evenodd" fill-rule="evenodd" height="512" stroke-linejoin="round" stroke-miterlimit="2" viewBox="0 0 64 64" width="512" xmlns="http://www.w3.org/2000/svg"><g transform="translate(-64 -192)"><g id="Icon"><g transform="translate(-256 128)"><path d="m348 121h8c.552 0 1-.448 1-1s-.448-1-1-1h-8c-.552 0-1 .448-1 1s.448 1 1 1z"/></g><g transform="translate(-257 127)"><circle cx="341" cy="73" r="1"/></g><g transform="translate(-253 127)"><circle cx="341" cy="73" r="1"/></g><g transform="translate(-249 127)"><circle cx="341" cy="73" r="1"/></g><path d="m88.414 219h13.586c.796 0 1.559.316 2.121.879.563.562.879 1.325.879 2.121 0 .552.448 1 1 1s1-.448 1-1c0-1.326-.527-2.598-1.464-3.536-.938-.937-2.21-1.464-3.536-1.464h-13.586l2.293-2.293c.39-.39.39-1.024 0-1.414s-1.024-.39-1.414 0l-4 4c-.391.39-.391 1.024 0 1.414l4 4c.39.39 1.024.39 1.414 0s.39-1.024 0-1.414z"/><g transform="matrix(-1 0 0 -1 192 448)"><path d="m88.414 219h13.586c.796 0 1.559.316 2.121.879.563.562.879 1.325.879 2.121 0 .552.448 1 1 1s1-.448 1-1c0-1.326-.527-2.598-1.464-3.536-.938-.937-2.21-1.464-3.536-1.464h-13.586l2.293-2.293c.39-.39.39-1.024 0-1.414s-1.024-.39-1.414 0l-4 4c-.391.39-.391 1.024 0 1.414l4 4c.39.39 1.024.39 1.414 0s.39-1.024 0-1.414z"/></g><g transform="translate(-256 128)"><path d="m369 72c0-2.761-2.239-5-5-5h-24c-2.761 0-5 2.239-5 5v48c0 2.761 2.239 5 5 5h24c2.761 0 5-2.239 5-5zm-25 43c.552 0 1 .448 1 1s-.448 1-1 1h-7v3c0 1.657 1.343 3 3 3h24c1.657 0 3-1.343 3-3v-3h-19c-.552 0-1-.448-1-1s.448-1 1-1h19v-38h-30v38zm23-40h-30v-3c0-1.657 1.343-3 3-3h24c1.657 0 3 1.343 3 3z"/></g></g></g></svg>