<svg clip-rule="evenodd" fill-rule="evenodd" height="512" stroke-linejoin="round" stroke-miterlimit="2" viewBox="0 0 64 64" width="512" xmlns="http://www.w3.org/2000/svg"><g transform="translate(-448 -576)"><g id="Icon"><path d="m451 584v32c0 2.761 2.239 5 5 5h23v6.1c-1.958.398-3.502 1.942-3.9 3.9h-14.2c-.464-2.281-2.483-4-4.9-4-2.76 0-5 2.24-5 5s2.24 5 5 5c2.417 0 4.436-1.719 4.9-4h14.2c.464 2.281 2.483 4 4.9 4s4.436-1.719 4.9-4h14.2c.464 2.281 2.483 4 4.9 4 2.76 0 5-2.24 5-5s-2.24-5-5-5c-2.417 0-4.436 1.719-4.9 4h-14.2c-.398-1.958-1.942-3.502-3.9-3.9v-6.1h23c2.761 0 5-2.239 5-5v-24c0-2.761-2.239-5-5-5h-8c-.552 0-1 .448-1 1s.448 1 1 1h8c1.657 0 3 1.343 3 3v24c0 1.657-1.343 3-3 3h-48c-1.657 0-3-1.343-3-3v-27h39c.552 0 1-.448 1-1s-.448-1-1-1h-11.586l-6.535-6.536c-.938-.937-2.21-1.464-3.536-1.464-3.122 0-9.955 0-14.343 0-1.326 0-2.598.527-3.536 1.464-.937.938-1.464 2.21-1.464 3.536zm5 45c1.656 0 3 1.344 3 3s-1.344 3-3 3-3-1.344-3-3 1.344-3 3-3zm24 0c1.656 0 3 1.344 3 3s-1.344 3-3 3-3-1.344-3-3 1.344-3 3-3zm24 0c1.656 0 3 1.344 3 3s-1.344 3-3 3-3-1.344-3-3 1.344-3 3-3zm-31.536-47.121 5.122 5.121h-24.586v-3c0-.796.316-1.559.879-2.121.562-.563 1.325-.879 2.121-.879h14.343c.796 0 1.559.316 2.121.879z"/><path d="m505 613.2c0-.583-.232-1.143-.644-1.556-.413-.412-.973-.644-1.556-.644h-1.6c-.583 0-1.143.232-1.556.644-.412.413-.644.973-.644 1.556v1.6c0 .583.232 1.143.644 1.556.413.412.973.644 1.556.644h1.6c.583 0 1.143-.232 1.556-.644.412-.413.644-.973.644-1.556zm-2 0v1.6c0 .053-.021.104-.059.141-.037.038-.088.059-.141.059h-1.6c-.053 0-.104-.021-.141-.059-.038-.037-.059-.088-.059-.141v-1.6c0-.053.021-.104.059-.141.037-.038.088-.059.141-.059h1.6c.053 0 .104.021.141.059.038.037.059.088.059.141z"/><path d="m497 613.2c0-.583-.232-1.143-.644-1.556-.413-.412-.973-.644-1.556-.644h-1.6c-.583 0-1.143.232-1.556.644-.412.413-.644.973-.644 1.556v1.6c0 .583.232 1.143.644 1.556.413.412.973.644 1.556.644h1.6c.583 0 1.143-.232 1.556-.644.412-.413.644-.973.644-1.556zm-2 0v1.6c0 .053-.021.104-.059.141-.037.038-.088.059-.141.059h-1.6c-.053 0-.104-.021-.141-.059-.038-.037-.059-.088-.059-.141v-1.6c0-.053.021-.104.059-.141.037-.038.088-.059.141-.059h1.6c.053 0 .104.021.141.059.038.037.059.088.059.141z"/></g></g></svg>