<svg clip-rule="evenodd" fill-rule="evenodd" height="512" stroke-linejoin="round" stroke-miterlimit="2" viewBox="0 0 64 64" width="512" xmlns="http://www.w3.org/2000/svg"><g transform="translate(-320 -192)"><g id="Icon"><path d="m345 218c0-1.657-1.343-3-3-3h-12c-1.657 0-3 1.343-3 3v12c0 1.657 1.343 3 3 3h12c1.657 0 3-1.343 3-3zm-2 0v12c0 .552-.448 1-1 1h-12c-.552 0-1-.448-1-1v-12c0-.552.448-1 1-1h12c.552 0 1 .448 1 1z"/><path d="m377 218c0-1.657-1.343-3-3-3h-24c-1.657 0-3 1.343-3 3v12c0 1.657 1.343 3 3 3h24c1.657 0 3-1.343 3-3zm-2 0v12c0 .552-.448 1-1 1h-24c-.552 0-1-.448-1-1v-12c0-.552.448-1 1-1h24c.552 0 1 .448 1 1z"/><path d="m365 246v-8c0-1.657-1.343-3-3-3h-32c-1.657 0-3 1.343-3 3v8c0 1.657 1.343 3 3 3h32c1.657 0 3-1.343 3-3zm-2-8v8c0 .552-.448 1-1 1h-32c-.552 0-1-.448-1-1v-8c0-.552.448-1 1-1h32c.552 0 1 .448 1 1z"/><path d="m377 246v-8c0-1.657-1.343-3-3-3h-4c-1.657 0-3 1.343-3 3v8c0 1.657 1.343 3 3 3h4c1.657 0 3-1.343 3-3zm-2-8v8c0 .552-.448 1-1 1h-4c-.552 0-1-.448-1-1v-8c0-.552.448-1 1-1h4c.552 0 1 .448 1 1z"/><g transform="translate(128 128)"><path d="m195 72v48c0 2.761 2.239 5 5 5h48c2.761 0 5-2.239 5-5v-48c0-2.761-2.239-5-5-5h-48c-2.761 0-5 2.239-5 5zm56 11v-11c0-1.657-1.343-3-3-3h-48c-1.657 0-3 1.343-3 3v11h43c.552 0 1 .448 1 1s-.448 1-1 1h-43v35c0 1.657 1.343 3 3 3h48c1.657 0 3-1.343 3-3v-35h-7c-.552 0-1-.448-1-1s.448-1 1-1z"/></g><g transform="translate(126 128)"><path d="m204 73c-1.656 0-3 1.344-3 3s1.344 3 3 3 3-1.344 3-3-1.344-3-3-3zm0 2c.552 0 1 .448 1 1s-.448 1-1 1-1-.448-1-1 .448-1 1-1z"/></g><g transform="translate(134 128)"><path d="m204 73c-1.656 0-3 1.344-3 3s1.344 3 3 3 3-1.344 3-3-1.344-3-3-3zm0 2c.552 0 1 .448 1 1s-.448 1-1 1-1-.448-1-1 .448-1 1-1z"/></g><g transform="translate(142 128)"><path d="m204 73c-1.656 0-3 1.344-3 3s1.344 3 3 3 3-1.344 3-3-1.344-3-3-3zm0 2c.552 0 1 .448 1 1s-.448 1-1 1-1-.448-1-1 .448-1 1-1z"/></g><g transform="translate(128 128)"><path d="m223 76c0 .796.316 1.559.879 2.121.562.563 1.325.879 2.121.879h20c.796 0 1.559-.316 2.121-.879.563-.562.879-1.325.879-2.121 0-.796-.316-1.559-.879-2.121-.562-.563-1.325-.879-2.121-.879-4.52 0-15.48 0-20 0-.796 0-1.559.316-2.121.879-.563.562-.879 1.325-.879 2.121zm24 0c0-.265-.105-.52-.293-.707-.187-.188-.442-.293-.707-.293h-20c-.265 0-.52.105-.707.293-.188.187-.293.442-.293.707s.105.52.293.707c.187.188.442.293.707.293h20c.265 0 .52-.105.707-.293.188-.187.293-.442.293-.707z"/></g></g></g></svg>