<svg clip-rule="evenodd" fill-rule="evenodd" height="512" stroke-linejoin="round" stroke-miterlimit="2" viewBox="0 0 64 64" width="512" xmlns="http://www.w3.org/2000/svg"><g transform="translate(-64 -448)"><g id="Icon"><g transform="translate(-256 384)"><path d="m348 121h8c.552 0 1-.448 1-1s-.448-1-1-1h-8c-.552 0-1 .448-1 1s.448 1 1 1z"/></g><g transform="translate(-257 383)"><circle cx="341" cy="73" r="1"/></g><g transform="translate(-253 383)"><circle cx="341" cy="73" r="1"/></g><g transform="translate(-249 383)"><circle cx="341" cy="73" r="1"/></g><path d="m96 467c-7.175 0-13 5.825-13 13s5.825 13 13 13 13-5.825 13-13-5.825-13-13-13zm1 23.761c.629-.305 1.202-.887 1.716-1.641.603-.883 1.109-2.001 1.491-3.285-1.003-.417-2.081-.688-3.207-.79zm-2 0v-5.716c-1.126.102-2.204.374-3.207.79.382 1.284.888 2.402 1.491 3.285.514.754 1.087 1.336 1.716 1.641zm6.999-3.98c-.401 1.248-.907 2.35-1.49 3.254 1.126-.507 2.151-1.198 3.038-2.035-.478-.45-.996-.859-1.548-1.219zm-11.998 0c-.552.36-1.07.769-1.548 1.219.887.837 1.912 1.528 3.038 2.035-.583-.904-1.09-2.006-1.49-3.254zm12.979-5.781c-.053 1.32-.209 2.583-.452 3.758.847.493 1.633 1.078 2.344 1.743 1.152-1.569 1.898-3.455 2.083-5.501zm-13.96 0h-3.975c.185 2.046.931 3.932 2.083 5.501.712-.665 1.497-1.25 2.344-1.743-.243-1.176-.399-2.438-.452-3.758zm2.001 0c.043.997.148 1.958.31 2.865 1.153-.444 2.385-.729 3.669-.827v-2.038zm9.958 0h-3.979v2.038c1.284.098 2.516.383 3.669.827.162-.907.267-1.868.31-2.865zm2.001-2h3.975c-.185-2.046-.931-3.932-2.083-5.501-.712.665-1.497 1.25-2.344 1.743.243 1.176.399 2.438.452 3.758zm-2.311-2.865c-1.153.444-2.385.729-3.669.827v2.038h3.979c-.043-.997-.148-1.958-.31-2.865zm-9.338 0c-.162.907-.267 1.868-.31 2.865h3.979v-2.038c-1.284-.098-2.516-.383-3.669-.827zm-1.859-.893c-.847-.493-1.633-1.078-2.344-1.743-1.152 1.569-1.898 3.455-2.083 5.501h3.975c.053-1.32.209-2.583.452-3.758zm5.528-6.003c-.629.305-1.202.887-1.716 1.641-.603.883-1.109 2.001-1.491 3.285 1.003.417 2.081.688 3.207.79zm2 0v5.716c1.126-.102 2.204-.374 3.207-.79-.382-1.284-.888-2.402-1.491-3.285-.514-.754-1.087-1.336-1.716-1.641zm-5.509.726c-1.126.507-2.151 1.198-3.038 2.035.478.45.996.859 1.548 1.219.401-1.248.907-2.35 1.49-3.254zm9.018 0c.583.904 1.09 2.006 1.49 3.254.552-.36 1.07-.769 1.548-1.219-.887-.837-1.912-1.528-3.038-2.035z"/><g transform="translate(-256 384)"><path d="m369 72c0-2.761-2.239-5-5-5h-24c-2.761 0-5 2.239-5 5v48c0 2.761 2.239 5 5 5h24c2.761 0 5-2.239 5-5zm-25 43c.552 0 1 .448 1 1s-.448 1-1 1h-7v3c0 1.657 1.343 3 3 3h24c1.657 0 3-1.343 3-3v-3h-19c-.552 0-1-.448-1-1s.448-1 1-1h19v-38h-30v38zm23-40h-30v-3c0-1.657 1.343-3 3-3h24c1.657 0 3 1.343 3 3z"/></g></g></g></svg>