<svg clip-rule="evenodd" fill-rule="evenodd" height="512" stroke-linejoin="round" stroke-miterlimit="2" viewBox="0 0 64 64" width="512" xmlns="http://www.w3.org/2000/svg"><g transform="translate(-64 -320)"><g id="Icon"><path d="m75 346c0 .796.316 1.559.879 2.121.562.563 1.325.879 2.121.879h24c.796 0 1.559-.316 2.121-.879.563-.562.879-1.325.879-2.121 0-.796-.316-1.559-.879-2.121-.562-.563-1.325-.879-2.121-.879-5.154 0-18.846 0-24 0-.796 0-1.559.316-2.121.879-.563.562-.879 1.325-.879 2.121zm28 0c0-.265-.105-.52-.293-.707-.187-.188-.442-.293-.707-.293h-24c-.265 0-.52.105-.707.293-.188.187-.293.442-.293.707s.105.52.293.707c.187.188.442.293.707.293h24c.265 0 .52-.105.707-.293.188-.187.293-.442.293-.707z"/><g transform="translate(0 8)"><path d="m75 346c0 .796.316 1.559.879 2.121.562.563 1.325.879 2.121.879h16c.796 0 1.559-.316 2.121-.879.563-.562.879-1.325.879-2.121 0-.796-.316-1.559-.879-2.121-.562-.563-1.325-.879-2.121-.879-5.154 0-10.846 0-16 0-.796 0-1.559.316-2.121.879-.563.562-.879 1.325-.879 2.121zm20 0c0-.265-.105-.52-.293-.707-.187-.188-.442-.293-.707-.293h-16c-.265 0-.52.105-.707.293-.188.187-.293.442-.293.707s.105.52.293.707c.187.188.442.293.707.293h16c.265 0 .52-.105.707-.293.188-.187.293-.442.293-.707z"/></g><g transform="translate(0 16)"><path d="m75 346c0 .796.316 1.559.879 2.121.562.563 1.325.879 2.121.879h8c.796 0 1.559-.316 2.121-.879.563-.562.879-1.325.879-2.121 0-.796-.316-1.559-.879-2.121-.562-.563-1.325-.879-2.121-.879h-8c-.796 0-1.559.316-2.121.879-.563.562-.879 1.325-.879 2.121zm12 0c0-.265-.105-.52-.293-.707-.187-.188-.442-.293-.707-.293h-8c-.265 0-.52.105-.707.293-.188.187-.293.442-.293.707s.105.52.293.707c.187.188.442.293.707.293h8c.265 0 .52-.105.707-.293.188-.187.293-.442.293-.707z"/></g><path d="m117 354.414 7.293-7.293c.562-.562.879-1.325.879-2.121s-.316-1.559-.879-2.121l-3.172-3.172c-.562-.563-1.325-.879-2.121-.879-.74 0-1.452.274-2 .765v-7.593c0-2.761-2.239-5-5-5h-3v-1c0-1.657-1.343-3-3-3h-4c-1.657 0-3 1.343-3 3v1h-2v-1c0-1.657-1.343-3-3-3h-4c-1.657 0-3 1.343-3 3v1h-2v-1c0-1.657-1.343-3-3-3h-4c-1.657 0-3 1.343-3 3v1h-3c-2.761 0-5 2.239-5 5v44c0 2.761 2.239 5 5 5h40c2.761 0 5-2.239 5-5zm-2-12.828v-4.586h-7c-.552 0-1-.448-1-1s.448-1 1-1h7v-3c0-1.657-1.343-3-3-3h-11v1c0 .552.448 1 1 1h2c.552 0 1 .448 1 1s-.448 1-1 1h-2c-1.657 0-3-1.343-3-3v-1h-10v1c0 .552.448 1 1 1h2c.552 0 1 .448 1 1s-.448 1-1 1h-2c-1.657 0-3-1.343-3-3v-1h-10v1c0 .552.448 1 1 1h2c.552 0 1 .448 1 1s-.448 1-1 1h-2c-1.657 0-3-1.343-3-3v-1h-3c-1.657 0-3 1.343-3 3v3h35c.552 0 1 .448 1 1s-.448 1-1 1h-35v39c0 1.657 1.343 3 3 3h40c1.657 0 3-1.343 3-3v-19.586l-15.707 15.707c-.563.563-1.326.879-2.121.879-1.03 0-2.794 0-3.972 0-.583 0-1.143-.232-1.556-.644-.412-.413-.644-.973-.644-1.556v-3.972c0-.795.316-1.558.879-2.121zm-22 26.828 2.586 2.586h-2.386c-.053 0-.104-.021-.141-.059-.038-.037-.059-.088-.059-.141zm.414-2.414 4.586 4.586 19.586-19.586-4.586-4.586zm25.586-16.414-4.586-4.586 3.879-3.879c.187-.187.442-.293.707-.293s.52.106.707.293c0 0 3.172 3.172 3.172 3.172.187.187.293.442.293.707s-.106.52-.293.707zm-12-22.586v-1c0-.552-.448-1-1-1h-4c-.552 0-1 .448-1 1v1zm-12 0v-1c0-.552-.448-1-1-1h-4c-.552 0-1 .448-1 1v1zm-12 0v-1c0-.552-.448-1-1-1h-4c-.552 0-1 .448-1 1v1z"/></g></g></svg>