<svg clip-rule="evenodd" fill-rule="evenodd" height="512" stroke-linejoin="round" stroke-miterlimit="2" viewBox="0 0 64 64" width="512" xmlns="http://www.w3.org/2000/svg"><g transform="translate(-448 -192)"><g id="Icon"><g transform="translate(128 128)"><path d="m348 121h8c.552 0 1-.448 1-1s-.448-1-1-1h-8c-.552 0-1 .448-1 1s.448 1 1 1z"/></g><g transform="translate(127 127)"><circle cx="341" cy="73" r="1"/></g><g transform="translate(131 127)"><circle cx="341" cy="73" r="1"/></g><g transform="translate(135 127)"><circle cx="341" cy="73" r="1"/></g><g transform="translate(0 -4)"><path d="m480 219c-2.76 0-5 2.24-5 5s2.24 5 5 5 5-2.24 5-5-2.24-5-5-5zm0 2c1.656 0 3 1.344 3 3s-1.344 3-3 3-3-1.344-3-3 1.344-3 3-3z"/></g><path d="m480 211c-7.175 0-13 5.825-13 13s5.825 13 13 13 13-5.825 13-13-5.825-13-13-13zm6.326 21.998c-1.124-2.364-3.534-3.998-6.326-3.998-2.792 0-5.202 1.634-6.326 3.998 1.79 1.261 3.972 2.002 6.326 2.002s4.536-.741 6.326-2.002zm1.562-1.334c1.926-1.982 3.112-4.686 3.112-7.664 0-6.071-4.929-11-11-11s-11 4.929-11 11c0 2.978 1.186 5.682 3.112 7.664 1.532-2.78 4.49-4.664 7.888-4.664 3.398 0 6.356 1.884 7.888 4.664z"/><g transform="translate(128 128)"><path d="m369 72c0-2.761-2.239-5-5-5h-24c-2.761 0-5 2.239-5 5v48c0 2.761 2.239 5 5 5h24c2.761 0 5-2.239 5-5zm-25 43c.552 0 1 .448 1 1s-.448 1-1 1h-7v3c0 1.657 1.343 3 3 3h24c1.657 0 3-1.343 3-3v-3h-19c-.552 0-1-.448-1-1s.448-1 1-1h19v-38h-30v38zm23-40h-30v-3c0-1.657 1.343-3 3-3h24c1.657 0 3 1.343 3 3z"/></g></g></g></svg>