<svg clip-rule="evenodd" fill-rule="evenodd" height="512" stroke-linejoin="round" stroke-miterlimit="2" viewBox="0 0 64 64" width="512" xmlns="http://www.w3.org/2000/svg"><g transform="translate(-576 -320)"><g id="Icon"><g transform="translate(248 256)"><path d="m348 121h8c.552 0 1-.448 1-1s-.448-1-1-1h-8c-.552 0-1 .448-1 1s.448 1 1 1z"/></g><g transform="translate(247 255)"><circle cx="341" cy="73" r="1"/></g><g transform="translate(251 255)"><circle cx="341" cy="73" r="1"/></g><g transform="translate(255 255)"><circle cx="341" cy="73" r="1"/></g><g transform="translate(1 1)"><circle cx="615" cy="347" r="1"/></g><path d="m615 340v4c0 .552.448 1 1 1s1-.448 1-1v-3.1c2.281-.464 4-2.483 4-4.9 0-2.76-2.24-5-5-5s-5 2.24-5 5c0 .552.448 1 1 1s1-.448 1-1c0-1.656 1.344-3 3-3s3 1.344 3 3-1.344 3-3 3c-.552 0-1 .448-1 1z"/><path d="m616 323c9.383 0 17 7.617 17 17 0 9.047-7.082 16.452-16 16.971v19.029c0 2.761-2.239 5-5 5h-24c-2.761 0-5-2.239-5-5v-48c0-2.761 2.239-5 5-5zm-15.494 10h-15.506v38h7c.552 0 1 .448 1 1s-.448 1-1 1h-7v3c0 1.657 1.343 3 3 3h24c1.657 0 3-1.343 3-3v-3h-19c-.552 0-1-.448-1-1s.448-1 1-1h19v-14h-10.172c-1.213 0-2.307-.731-2.771-1.852-.465-1.121-.208-2.411.65-3.269l.588-.588c-2.671-3.004-4.295-6.959-4.295-11.291 0-2.495.539-4.865 1.506-7zm4.89 19.019c.39-.391.39-1.024 0-1.415-2.716-2.715-4.396-6.465-4.396-10.604 0-8.279 6.721-15 15-15s15 6.721 15 15-6.721 15-15 15h-11.172c-.404 0-.769-.244-.923-.617-.155-.374-.07-.804.216-1.09 0 0 1.275-1.274 1.275-1.274zm2.602-27.019h-19.998c-1.657 0-3 1.343-3 3v3h16.578c1.576-2.518 3.793-4.594 6.42-6z"/></g></g></svg>