<svg clip-rule="evenodd" fill-rule="evenodd" height="512" stroke-linejoin="round" stroke-miterlimit="2" viewBox="0 0 64 64" width="512" xmlns="http://www.w3.org/2000/svg"><g transform="translate(-576 -448)"><g id="Icon"><g transform="translate(248 384)"><path d="m348 121h8c.552 0 1-.448 1-1s-.448-1-1-1h-8c-.552 0-1 .448-1 1s.448 1 1 1z"/></g><g transform="translate(247 383)"><circle cx="341" cy="73" r="1"/></g><g transform="translate(251 383)"><circle cx="341" cy="73" r="1"/></g><g transform="translate(255 383)"><circle cx="341" cy="73" r="1"/></g><path d="m617 494.243v9.757c0 2.761-2.239 5-5 5h-24c-2.761 0-5-2.239-5-5v-48c0-2.761 2.239-5 5-5h24c2.761 0 5 2.239 5 5v10.255c4.241 3.091 7 8.099 7 13.745 0 3.609-1.127 6.956-3.048 9.71l10.755 10.754c1.171 1.171 1.171 3.072 0 4.243s-3.072 1.171-4.243 0zm-2-29.244v-3.999h-30v38h7c.552 0 1 .448 1 1s-.448 1-1 1h-7v3c0 1.657 1.343 3 3 3h24c1.657 0 3-1.343 3-3v-3h-19c-.552 0-1-.448-1-1s.448-1 1-1h19v-3.999c-2.384 1.275-5.108 1.999-8 1.999-9.383 0-17-7.617-17-17s7.617-17 17-17c2.892 0 5.616.724 8 1.999zm4.705 26.292c-.443.498-.916.97-1.414 1.414l10.588 10.588c.39.39 1.024.39 1.414 0s.39-1.024 0-1.414zm-12.705-26.291c8.279 0 15 6.721 15 15s-6.721 15-15 15-15-6.721-15-15 6.721-15 15-15zm8-6h-30v-3c0-1.657 1.343-3 3-3h24c1.657 0 3 1.343 3 3z"/></g></g></svg>