<svg clip-rule="evenodd" fill-rule="evenodd" height="512" stroke-linejoin="round" stroke-miterlimit="2" viewBox="0 0 64 64" width="512" xmlns="http://www.w3.org/2000/svg"><g transform="translate(-192 -320)"><g id="Icon"><g transform="translate(-141 255)"><circle cx="341" cy="73" r="1"/></g><g transform="translate(-137 255)"><circle cx="341" cy="73" r="1"/></g><g transform="translate(-133 255)"><circle cx="341" cy="73" r="1"/></g><g transform="translate(-256 256)"><path d="m496 71h-16c-.552 0-1 .448-1 1s.448 1 1 1h16c.552 0 1-.448 1-1s-.448-1-1-1z"/></g><path d="m200 381h32c1.326 0 2.598-.527 3.536-1.464.168-.169.323-.348.464-.536.141.188.296.367.464.536.938.937 2.21 1.464 3.536 1.464h8c1.326 0 2.598-.527 3.536-1.464.937-.938 1.464-2.21 1.464-3.536v-16c0-1.326-.527-2.598-1.464-3.536-.938-.937-2.21-1.464-3.536-1.464h-3v-27c0-2.761-2.239-5-5-5-9.04 0-30.96 0-40 0-2.761 0-5 2.239-5 5v48c0 2.761 2.239 5 5 5zm50.828-4c-.147.418-.387.802-.707 1.121-.562.563-1.325.879-2.121.879h-8c-.796 0-1.559-.316-2.121-.879-.32-.319-.56-.703-.707-1.121zm-16 0c-.147.418-.387.802-.707 1.121-.562.563-1.325.879-2.121.879h-16c-.796 0-1.559-.316-2.121-.879-.32-.319-.56-.703-.707-1.121zm8.172-22v-22h-7c-.552 0-1-.448-1-1s.448-1 1-1h7v-3c0-1.657-1.343-3-3-3h-40c-1.657 0-3 1.343-3 3v3h35c.552 0 1 .448 1 1s-.448 1-1 1h-35v43c0 1.657 1.343 3 3 3h12c-.645-.86-1-1.912-1-3 0-6.148 0-17.852 0-24 0-1.326.527-2.598 1.464-3.536.938-.937 2.21-1.464 3.536-1.464h16c1.326 0 2.598.527 3.536 1.464.937.938 1.464 2.21 1.464 3.536v4c.86-.645 1.912-1 3-1zm-8 12v-14h-22v22h22v-6h-4.586l2.293 2.293c.39.39.39 1.024 0 1.414s-1.024.39-1.414 0l-4-4c-.391-.39-.391-1.024 0-1.414l4-4c.39-.39 1.024-.39 1.414 0s.39 1.024 0 1.414l-2.293 2.293zm2 2v6h14v-14h-14v6h4.586l-2.293-2.293c-.39-.39-.39-1.024 0-1.414s1.024-.39 1.414 0l4 4c.391.39.391 1.024 0 1.414l-4 4c-.39.39-1.024.39-1.414 0s-.39-1.024 0-1.414l2.293-2.293zm13.828-10h-13.656c.147-.418.387-.802.707-1.121.562-.563 1.325-.879 2.121-.879h8c.796 0 1.559.316 2.121.879.32.319.56.703.707 1.121zm-16-8h-21.656c.147-.418.387-.802.707-1.121.562-.563 1.325-.879 2.121-.879h16c.796 0 1.559.316 2.121.879.32.319.56.703.707 1.121z"/></g></g></svg>