<svg clip-rule="evenodd" fill-rule="evenodd" height="512" stroke-linejoin="round" stroke-miterlimit="2" viewBox="0 0 64 64" width="512" xmlns="http://www.w3.org/2000/svg"><g transform="translate(-576 -576)"><g id="Icon"><g transform="translate(256 512)"><path d="m348 121h8c.552 0 1-.448 1-1s-.448-1-1-1h-8c-.552 0-1 .448-1 1s.448 1 1 1z"/></g><g transform="translate(255 511)"><circle cx="341" cy="73" r="1"/></g><g transform="translate(259 511)"><circle cx="341" cy="73" r="1"/></g><g transform="translate(263 511)"><circle cx="341" cy="73" r="1"/></g><g transform="translate(2)"><path d="m597 622s0-16.262 0-24c0-.796.316-1.559.879-2.121.562-.563 1.325-.879 2.121-.879h5.586s-2.293 2.293-2.293 2.293c-.39.39-.39 1.024 0 1.414s1.024.39 1.414 0l4-4c.286-.286.372-.716.217-1.09-.155-.373-.52-.617-.924-.617 0 0-4.51 0-8 0-1.326 0-2.598.527-3.536 1.464-.937.938-1.464 2.21-1.464 3.536v24c0 .552.448 1 1 1s1-.448 1-1z"/></g><g transform="translate(-2)"><path d="m619 594v24c0 .796-.316 1.559-.879 2.121-.562.563-1.325.879-2.121.879h-5.586s2.293-2.293 2.293-2.293c.39-.39.39-1.024 0-1.414s-1.024-.39-1.414 0l-4 4c-.286.286-.372.716-.217 1.09.155.373.52.617.924.617h8c1.326 0 2.598-.527 3.536-1.464.937-.938 1.464-2.21 1.464-3.536 0-7.738 0-24 0-24 0-.552-.448-1-1-1s-1 .448-1 1z"/></g><g transform="translate(256 512)"><path d="m369 72c0-2.761-2.239-5-5-5h-24c-2.761 0-5 2.239-5 5v48c0 2.761 2.239 5 5 5h24c2.761 0 5-2.239 5-5zm-25 43c.552 0 1 .448 1 1s-.448 1-1 1h-7v3c0 1.657 1.343 3 3 3h24c1.657 0 3-1.343 3-3v-3h-19c-.552 0-1-.448-1-1s.448-1 1-1h19v-38h-30v38zm23-40h-30v-3c0-1.657 1.343-3 3-3h24c1.657 0 3 1.343 3 3z"/></g></g></g></svg>