<svg clip-rule="evenodd" fill-rule="evenodd" height="512" stroke-linejoin="round" stroke-miterlimit="2" viewBox="0 0 64 64" width="512" xmlns="http://www.w3.org/2000/svg"><g transform="translate(-320 -576)"><g id="Icon"><path d="m355.938 581.562c-.216-1.418-1.407-2.485-2.84-2.545-.003 0-.006 0-.01 0-.727-.024-1.454-.024-2.181.004-.002 0-.003 0-.004 0-1.432.06-2.622 1.125-2.838 2.542-.149.954-.334 2.163-.474 3.083-.062.406-.367.733-.768.824-.539.121-1.073.264-1.602.426-.001 0-.002.001-.003.001-.392.122-.818-.009-1.074-.329-.001-.001-.001-.002-.002-.002-.583-.723-1.346-1.676-1.95-2.431-.897-1.12-2.461-1.449-3.733-.784-.003.002-.005.003-.008.005-.642.343-1.272.707-1.888 1.094-.001.001-.002.001-.003.002-1.21.768-1.708 2.285-1.187 3.62.349.901.793 2.04 1.131 2.907.15.383.049.819-.253 1.098-.406.374-.797.765-1.173 1.17-.001.001-.002.002-.003.002-.278.302-.712.402-1.094.253-.001-.001-.003-.001-.004-.002-.866-.334-2.003-.778-2.904-1.129-1.336-.522-2.855-.025-3.624 1.187-.002.003-.003.005-.005.008-.384.618-.748 1.248-1.088 1.891 0 .001-.001.003-.001.004-.665 1.27-.337 2.832.782 3.728.752.606 1.707 1.371 2.433 1.952.321.257.452.685.33 1.077-.165.527-.308 1.062-.432 1.6 0 .002 0 .003-.001.004-.09.4-.416.704-.821.766-.002 0-.003 0-.004 0-.917.144-2.124.328-3.08.474-1.418.216-2.485 1.407-2.545 2.84v.01c-.024.727-.024 1.454.004 2.181v.004c.06 1.432 1.125 2.622 2.542 2.838.954.149 2.163.334 3.083.474.406.062.733.367.824.768.121.539.264 1.073.426 1.602 0 .001.001.002.001.003.122.392-.009.818-.329 1.074-.001.001-.002.001-.002.002-.723.583-1.676 1.346-2.431 1.95-1.12.897-1.449 2.461-.784 3.733.002.003.003.005.005.008.343.642.707 1.272 1.094 1.888.001.001.001.002.002.003.768 1.21 2.285 1.708 3.62 1.187.901-.349 2.04-.793 2.907-1.131.383-.15.819-.049 1.098.253.374.406.765.797 1.17 1.173.001.001.002.002.002.003.302.278.402.712.253 1.094-.001.001-.001.003-.002.004-.334.866-.778 2.003-1.129 2.904-.522 1.336-.025 2.855 1.187 3.624.003.002.005.003.008.005.618.384 1.248.748 1.891 1.088.001 0 .003.001.004.001 1.27.665 2.832.337 3.728-.782.606-.752 1.371-1.707 1.952-2.433.257-.321.685-.452 1.077-.33.527.165 1.062.308 1.6.432.002 0 .003 0 .004.001.4.09.704.416.766.821v.004c.144.917.328 2.124.474 3.08.216 1.418 1.407 2.485 2.84 2.545h.01c.727.024 1.454.024 2.181-.004h.004c1.432-.06 2.622-1.125 2.838-2.542.149-.954.334-2.163.474-3.083.062-.406.367-.733.768-.824.539-.121 1.073-.264 1.602-.426.001 0 .002-.001.003-.001.392-.122.818.009 1.074.329.001.001.001.002.002.002.583.723 1.346 1.676 1.95 2.431.897 1.12 2.461 1.449 3.733.784.003-.002.005-.003.008-.005.642-.343 1.272-.707 1.888-1.094.001-.001.002-.001.003-.002 1.21-.768 1.708-2.285 1.187-3.62-.349-.901-.793-2.04-1.131-2.907-.15-.383-.049-.819.253-1.098.406-.374.797-.765 1.173-1.17.001-.001.002-.002.003-.002.278-.302.712-.402 1.094-.253.001.001.003.001.004.002.866.334 2.003.778 2.904 1.129 1.336.522 2.855.025 3.624-1.187.002-.003.003-.005.005-.008.384-.618.748-1.248 1.088-1.891 0-.001.001-.003.001-.004.665-1.27.337-2.832-.782-3.728-.752-.606-1.707-1.371-2.433-1.952-.321-.257-.452-.685-.33-1.077.165-.527.308-1.062.432-1.6 0-.002 0-.003.001-.004.09-.4.416-.704.821-.766h.004c.917-.144 2.124-.328 3.08-.474 1.418-.216 2.485-1.407 2.545-2.84 0-.003 0-.006 0-.01.024-.727.024-1.454-.004-2.181 0-.002 0-.003 0-.004-.06-1.432-1.125-2.622-2.542-2.838-.954-.149-2.163-.334-3.083-.474-.406-.062-.733-.367-.824-.768-.121-.539-.264-1.073-.426-1.602 0-.001-.001-.002-.001-.003-.122-.392.009-.818.329-1.074.001-.001.002-.001.002-.002.723-.583 1.676-1.346 2.431-1.95 1.12-.897 1.449-2.461.784-3.733-.002-.003-.003-.005-.005-.008-.343-.642-.707-1.272-1.094-1.888-.001-.001-.001-.002-.002-.003-.768-1.21-2.285-1.708-3.62-1.187-.901.349-2.04.793-2.907 1.131-.383.15-.819.049-1.098-.253-.374-.406-.765-.797-1.17-1.173-.001-.001-.002-.002-.002-.003-.302-.278-.402-.712-.253-1.094.001-.001.001-.003.002-.004.334-.866.778-2.003 1.129-2.904.522-1.336.025-2.855-1.187-3.624-.003-.002-.005-.003-.008-.005-.618-.384-1.248-.748-1.891-1.088-.001 0-.003-.001-.004-.001-1.27-.665-2.832-.337-3.728.782-.606.752-1.371 1.707-1.952 2.433-.257.321-.685.452-1.077.33-.527-.165-1.062-.308-1.6-.432-.002 0-.003 0-.004-.001-.4-.09-.704-.416-.766-.821 0-.002 0-.003 0-.004-.144-.917-.328-2.124-.474-3.08zm-1.977.302c.146.958.331 2.168.475 3.087.185 1.215 1.099 2.195 2.301 2.467.486.112.971.242 1.45.391h.001c1.178.367 2.46-.026 3.232-.988v-.001c.58-.724 1.343-1.678 1.95-2.43.001-.001.001-.002.002-.003.298-.372.817-.481 1.24-.261.599.317 1.185.656 1.761 1.013.402.257.567.762.393 1.207-.352.903-.797 2.043-1.132 2.911-.447 1.145-.146 2.451.759 3.287.365.34.72.695 1.06 1.064h.001c.837.907 2.144 1.208 3.293.76h.001c.864-.338 2.002-.782 2.904-1.13.001-.001.002-.001.003-.001.444-.174.948-.008 1.204.394.36.573.699 1.16 1.019 1.757.22.424.11.944-.263 1.242-.757.606-1.712 1.371-2.436 1.955-.96.768-1.352 2.049-.986 3.226.146.477.276.962.386 1.452.272 1.204 1.253 2.118 2.473 2.305.918.14 2.125.324 3.08.474h.003c.471.072.826.467.846.943.025.677.025 1.355.003 2.032-.021.477-.376.872-.848.944-.958.146-2.168.331-3.087.475-1.215.185-2.195 1.099-2.467 2.301-.112.486-.242.971-.391 1.45v.001c-.367 1.178.026 2.46.988 3.232h.001c.724.58 1.678 1.343 2.43 1.95.001.001.002.001.003.002.372.298.481.817.261 1.24-.317.599-.656 1.185-1.013 1.761-.257.402-.762.567-1.207.393-.903-.352-2.043-.797-2.911-1.132-1.145-.447-2.451-.146-3.287.759-.34.365-.695.72-1.064 1.06v.001c-.907.837-1.208 2.144-.76 3.293v.001c.338.864.782 2.002 1.13 2.904.001.001.001.002.001.003.174.444.008.948-.394 1.204-.573.36-1.16.699-1.757 1.019-.424.22-.944.11-1.242-.263-.606-.757-1.371-1.712-1.955-2.436-.768-.96-2.049-1.352-3.226-.986-.477.146-.962.276-1.452.386-1.204.272-2.118 1.253-2.305 2.473-.14.918-.324 2.125-.474 3.08v.003c-.072.471-.467.826-.943.846-.677.025-1.355.025-2.032.003-.477-.021-.872-.376-.944-.848-.146-.958-.331-2.168-.475-3.087-.185-1.215-1.099-2.195-2.301-2.467-.486-.112-.971-.242-1.45-.391 0 0 0 0-.001 0-1.178-.367-2.46.026-3.232.988v.001c-.58.724-1.343 1.678-1.95 2.43-.001.001-.001.002-.002.003-.298.372-.817.481-1.24.261-.599-.317-1.185-.656-1.761-1.013-.402-.257-.567-.762-.393-1.207.352-.903.797-2.043 1.132-2.911.447-1.145.146-2.451-.759-3.287-.365-.34-.72-.695-1.06-1.064-.001 0-.001 0-.001 0-.837-.907-2.144-1.208-3.293-.76 0 0 0 0-.001 0-.864.338-2.002.782-2.904 1.13-.001.001-.002.001-.003.001-.444.174-.948.008-1.204-.394-.36-.573-.699-1.16-1.019-1.757-.22-.424-.11-.944.263-1.242.757-.606 1.712-1.371 2.436-1.955.96-.768 1.352-2.049.986-3.226-.146-.477-.276-.962-.386-1.452-.272-1.204-1.253-2.118-2.473-2.305-.918-.14-2.125-.324-3.08-.474-.001 0-.002 0-.003 0-.471-.072-.826-.467-.846-.943-.025-.677-.025-1.355-.003-2.032.021-.477.376-.872.848-.944.958-.146 2.168-.331 3.087-.475 1.215-.185 2.195-1.099 2.467-2.301.112-.486.242-.971.391-1.45 0 0 0 0 0-.001.367-1.178-.026-2.46-.988-3.232h-.001c-.724-.58-1.678-1.343-2.43-1.95-.001-.001-.002-.001-.003-.002-.372-.298-.481-.817-.261-1.24.317-.599.656-1.185 1.013-1.761.257-.402.762-.567 1.207-.393.903.352 2.043.797 2.911 1.132 1.145.447 2.451.146 3.287-.759.34-.365.695-.72 1.064-1.06 0-.001 0-.001 0-.001.907-.837 1.208-2.144.76-3.293 0 0 0 0 0-.001-.338-.864-.782-2.002-1.13-2.904-.001-.001-.001-.002-.001-.003-.174-.444-.008-.948.394-1.204.573-.36 1.16-.699 1.757-1.019.424-.22.944-.11 1.242.263.606.757 1.371 1.712 1.955 2.436.768.96 2.049 1.352 3.226.986.477-.146.962-.276 1.452-.386 1.204-.272 2.118-1.253 2.305-2.473.14-.918.324-2.125.474-3.08 0-.001 0-.002 0-.003.072-.471.467-.826.943-.846.677-.025 1.355-.025 2.032-.003.477.021.872.376.944.848z"/><path d="m352 591c-9.383 0-17 7.617-17 17s7.617 17 17 17 17-7.617 17-17-7.617-17-17-17zm0 2c8.279 0 15 6.721 15 15s-6.721 15-15 15-15-6.721-15-15 6.721-15 15-15z"/><path d="m352 603c-2.76 0-5 2.24-5 5s2.24 5 5 5 5-2.24 5-5-2.24-5-5-5zm0 2c1.656 0 3 1.344 3 3s-1.344 3-3 3-3-1.344-3-3 1.344-3 3-3z"/><path d="m347.039 600.492c1.422-.943 3.128-1.492 4.961-1.492 4.967 0 9 4.033 9 9s-4.033 9-9 9-9-4.033-9-9c0-1.833.549-3.539 1.492-4.961.305-.46.179-1.081-.282-1.386-.46-.305-1.081-.179-1.386.281-1.152 1.739-1.824 3.825-1.824 6.066 0 6.071 4.929 11 11 11s11-4.929 11-11-4.929-11-11-11c-2.241 0-4.327.672-6.066 1.824-.46.305-.586.926-.281 1.386.305.461.926.587 1.386.282z"/></g></g></svg>