<svg clip-rule="evenodd" fill-rule="evenodd" height="512" stroke-linejoin="round" stroke-miterlimit="2" viewBox="0 0 64 64" width="512" xmlns="http://www.w3.org/2000/svg"><g transform="translate(-320 -320)"><g id="Icon"><g transform="translate(-128 252)"><path d="m476 113h8c.552 0 1-.448 1-1s-.448-1-1-1h-8c-.552 0-1 .448-1 1s.448 1 1 1z"/></g><path d="m343.382 371h-1.382c-.796 0-1.559.316-2.121.879-.563.562-.879 1.325-.879 2.121s.316 1.559.879 2.121c.562.563 1.325.879 2.121.879h20c.796 0 1.559-.316 2.121-.879.563-.562.879-1.325.879-2.121 0-.796-.316-1.559-.879-2.121-.562-.563-1.325-.879-2.121-.879h-1.382l-1-2h16.382c2.761 0 5-2.239 5-5v-32c0-2.761-2.239-5-5-5h-48c-2.761 0-5 2.239-5 5v32c0 2.761 2.239 5 5 5h16.382zm19.618 3c0-.265-.105-.52-.293-.707-.187-.188-.442-.293-.707-.293h-20c-.265 0-.52.105-.707.293-.188.187-.293.442-.293.707s.105.52.293.707c.187.188.442.293.707.293h20c.265 0 .52-.105.707-.293.188-.187.293-.442.293-.707zm-5.618-5 1 2h-12.764s1-2 1-2zm21.618-10v-27c0-1.657-1.343-3-3-3h-48c-1.657 0-3 1.343-3 3v27h39c.552 0 1 .448 1 1s-.448 1-1 1h-39v3c0 1.657 1.343 3 3 3h48c1.657 0 3-1.343 3-3v-3h-11c-.552 0-1-.448-1-1s.448-1 1-1z"/><path d="m365 336c0-1.326-.527-2.598-1.464-3.536-.938-.937-2.21-1.464-3.536-1.464-4.439 0-11.561 0-16 0-1.326 0-2.598.527-3.536 1.464-.937.938-1.464 2.21-1.464 3.536v16c0 1.326.527 2.598 1.464 3.536.938.937 2.21 1.464 3.536 1.464h16c1.326 0 2.598-.527 3.536-1.464.937-.938 1.464-2.21 1.464-3.536zm-2 0v16c0 .796-.316 1.559-.879 2.121-.562.563-1.325.879-2.121.879h-16c-.796 0-1.559-.316-2.121-.879-.563-.562-.879-1.325-.879-2.121v-16c0-.796.316-1.559.879-2.121.562-.563 1.325-.879 2.121-.879h16c.796 0 1.559.316 2.121.879.563.562.879 1.325.879 2.121z"/><path d="m345 338.414 4.293 4.293c.39.39 1.024.39 1.414 0s.39-1.024 0-1.414l-4.293-4.293h1.586c.552 0 1-.448 1-1s-.448-1-1-1h-4c-.552 0-1 .448-1 1v4c0 .552.448 1 1 1s1-.448 1-1z"/><g transform="matrix(1 0 0 -1 0 688)"><path d="m345 338.414 4.293 4.293c.39.39 1.024.39 1.414 0s.39-1.024 0-1.414l-4.293-4.293h1.586c.552 0 1-.448 1-1s-.448-1-1-1h-4c-.552 0-1 .448-1 1v4c0 .552.448 1 1 1s1-.448 1-1z"/></g><g transform="matrix(-1 0 0 1 704 0)"><path d="m345 338.414 4.293 4.293c.39.39 1.024.39 1.414 0s.39-1.024 0-1.414l-4.293-4.293h1.586c.552 0 1-.448 1-1s-.448-1-1-1h-4c-.552 0-1 .448-1 1v4c0 .552.448 1 1 1s1-.448 1-1z"/></g><g transform="matrix(-1 0 0 -1 704 688)"><path d="m345 338.414 4.293 4.293c.39.39 1.024.39 1.414 0s.39-1.024 0-1.414l-4.293-4.293h1.586c.552 0 1-.448 1-1s-.448-1-1-1h-4c-.552 0-1 .448-1 1v4c0 .552.448 1 1 1s1-.448 1-1z"/></g></g></g></svg>