<svg clip-rule="evenodd" fill-rule="evenodd" height="512" stroke-linejoin="round" stroke-miterlimit="2" viewBox="0 0 64 64" width="512" xmlns="http://www.w3.org/2000/svg"><g transform="translate(-192 -576)"><g id="Icon"><path d="m209 590c0-1.657-1.343-3-3-3h-4c-1.657 0-3 1.343-3 3v4c0 1.657 1.343 3 3 3h4c1.657 0 3-1.343 3-3zm-2 0v4c0 .552-.448 1-1 1h-4c-.552 0-1-.448-1-1v-4c0-.552.448-1 1-1h4c.552 0 1 .448 1 1z"/><path d="m233 590c0-.796-.316-1.559-.879-2.121-.562-.563-1.325-.879-2.121-.879-3.832 0-12.168 0-16 0-.796 0-1.559.316-2.121.879-.563.562-.879 1.325-.879 2.121v4c0 .796.316 1.559.879 2.121.562.563 1.325.879 2.121.879h16c.796 0 1.559-.316 2.121-.879.563-.562.879-1.325.879-2.121zm-2 0v4c0 .265-.105.52-.293.707-.187.188-.442.293-.707.293h-16c-.265 0-.52-.105-.707-.293-.188-.187-.293-.442-.293-.707v-4c0-.265.105-.52.293-.707.187-.188.442-.293.707-.293h16c.265 0 .52.105.707.293.188.187.293.442.293.707z"/><path d="m233 602c0-1.657-1.343-3-3-3-5.746 0-22.254 0-28 0-1.657 0-3 1.343-3 3v4c0 1.657 1.343 3 3 3h28c1.657 0 3-1.343 3-3zm-2 0v4c0 .552-.448 1-1 1-5.746 0-22.254 0-28 0-.552 0-1-.448-1-1v-4c0-.552.448-1 1-1h28c.552 0 1 .448 1 1z"/><path d="m217 614c0-1.657-1.343-3-3-3h-12c-1.657 0-3 1.343-3 3v12c0 1.657 1.343 3 3 3h12c1.657 0 3-1.343 3-3zm-2 0v12c0 .552-.448 1-1 1h-12c-.552 0-1-.448-1-1v-12c0-.552.448-1 1-1h12c.552 0 1 .448 1 1z"/><path d="m235 605.586-15.121 15.121c-.563.563-.879 1.326-.879 2.121v3.972c0 .583.232 1.143.644 1.556.413.412.973.644 1.556.644h3.972c.795 0 1.558-.316 2.121-.879l7.707-7.707v11.586c0 1.657-1.343 3-3 3h-4c-.552 0-1 .448-1 1s.448 1 1 1h4c2.761 0 5-2.239 5-5v-13.586l15.293-15.293c.562-.562.879-1.325.879-2.121s-.316-1.559-.879-2.121l-3.172-3.172c-.562-.563-1.325-.879-2.121-.879s-1.559.317-2.121.879l-7.879 7.879v-19.586c0-2.761-2.239-5-5-5h-32c-2.761 0-5 2.239-5 5v48c0 2.761 2.239 5 5 5h24c.552 0 1-.448 1-1s-.448-1-1-1h-24c-1.657 0-3-1.343-3-3v-48c0-1.657 1.343-3 3-3h32c1.657 0 3 1.343 3 3zm-14 18.828 2.586 2.586h-2.386c-.053 0-.104-.021-.141-.059-.038-.037-.059-.088-.059-.141zm.414-2.414 4.586 4.586 19.586-19.586-4.586-4.586zm25.586-16.414-4.586-4.586 3.879-3.879c.187-.187.442-.293.707-.293s.52.106.707.293c0 0 3.172 3.172 3.172 3.172.187.187.293.442.293.707s-.106.52-.293.707z"/></g></g></svg>