<svg clip-rule="evenodd" fill-rule="evenodd" height="512" stroke-linejoin="round" stroke-miterlimit="2" viewBox="0 0 64 64" width="512" xmlns="http://www.w3.org/2000/svg"><g transform="translate(-576 -192)"><g id="Icon"><g transform="translate(256 128)"><path d="m348 121h8c.552 0 1-.448 1-1s-.448-1-1-1h-8c-.552 0-1 .448-1 1s.448 1 1 1z"/></g><g transform="translate(255 127)"><circle cx="341" cy="73" r="1"/></g><g transform="translate(259 127)"><circle cx="341" cy="73" r="1"/></g><g transform="translate(263 127)"><circle cx="341" cy="73" r="1"/></g><g transform="matrix(2 0 0 2 -598 -212)"><path d="m602.5 211c0-.828-.672-1.5-1.5-1.5h-2c-.828 0-1.5.672-1.5 1.5v2c0 .828.672 1.5 1.5 1.5h2c.828 0 1.5-.672 1.5-1.5zm-1 0v2c0 .276-.224.5-.5.5h-2c-.276 0-.5-.224-.5-.5v-2c0-.276.224-.5.5-.5h2c.276 0 .5.224.5.5z"/></g><g transform="matrix(2 0 0 2 -598 -200)"><path d="m602.5 211c0-.828-.672-1.5-1.5-1.5h-2c-.828 0-1.5.672-1.5 1.5v2c0 .828.672 1.5 1.5 1.5h2c.828 0 1.5-.672 1.5-1.5zm-1 0v2c0 .276-.224.5-.5.5h-2c-.276 0-.5-.224-.5-.5v-2c0-.276.224-.5.5-.5h2c.276 0 .5.224.5.5z"/></g><g transform="matrix(2 0 0 2 -598 -188)"><path d="m602.5 211c0-.828-.672-1.5-1.5-1.5h-2c-.828 0-1.5.672-1.5 1.5v2c0 .828.672 1.5 1.5 1.5h2c.828 0 1.5-.672 1.5-1.5zm-1 0v2c0 .276-.224.5-.5.5h-2c-.276 0-.5-.224-.5-.5v-2c0-.276.224-.5.5-.5h2c.276 0 .5.224.5.5z"/></g><g transform="matrix(2 0 0 2 -586 -212)"><path d="m602.5 211c0-.828-.672-1.5-1.5-1.5h-2c-.828 0-1.5.672-1.5 1.5v2c0 .828.672 1.5 1.5 1.5h2c.828 0 1.5-.672 1.5-1.5zm-1 0v2c0 .276-.224.5-.5.5h-2c-.276 0-.5-.224-.5-.5v-2c0-.276.224-.5.5-.5h2c.276 0 .5.224.5.5z"/></g><g transform="matrix(2 0 0 2 -586 -200)"><path d="m602.5 211c0-.828-.672-1.5-1.5-1.5h-2c-.828 0-1.5.672-1.5 1.5v2c0 .828.672 1.5 1.5 1.5h2c.828 0 1.5-.672 1.5-1.5zm-1 0v2c0 .276-.224.5-.5.5h-2c-.276 0-.5-.224-.5-.5v-2c0-.276.224-.5.5-.5h2c.276 0 .5.224.5.5z"/></g><g transform="matrix(2 0 0 2 -586 -188)"><path d="m602.5 211c0-.828-.672-1.5-1.5-1.5h-2c-.828 0-1.5.672-1.5 1.5v2c0 .828.672 1.5 1.5 1.5h2c.828 0 1.5-.672 1.5-1.5zm-1 0v2c0 .276-.224.5-.5.5h-2c-.276 0-.5-.224-.5-.5v-2c0-.276.224-.5.5-.5h2c.276 0 .5.224.5.5z"/></g><g transform="translate(256 128)"><path d="m369 72c0-2.761-2.239-5-5-5h-24c-2.761 0-5 2.239-5 5v48c0 2.761 2.239 5 5 5h24c2.761 0 5-2.239 5-5zm-25 43c.552 0 1 .448 1 1s-.448 1-1 1h-7v3c0 1.657 1.343 3 3 3h24c1.657 0 3-1.343 3-3v-3h-19c-.552 0-1-.448-1-1s.448-1 1-1h19v-38h-30v38zm23-40h-30v-3c0-1.657 1.343-3 3-3h24c1.657 0 3 1.343 3 3z"/></g></g></g></svg>