<svg clip-rule="evenodd" fill-rule="evenodd" height="512" stroke-linejoin="round" stroke-miterlimit="2" viewBox="0 0 64 64" width="512" xmlns="http://www.w3.org/2000/svg"><g transform="translate(-320 -448)"><g id="Icon"><g transform="translate(-128 380)"><path d="m476 113h8c.552 0 1-.448 1-1s-.448-1-1-1h-8c-.552 0-1 .448-1 1s.448 1 1 1z"/></g><g transform="translate(0 128)"><path d="m343.382 371h-1.382c-.796 0-1.559.316-2.121.879-.563.562-.879 1.325-.879 2.121s.316 1.559.879 2.121c.562.563 1.325.879 2.121.879h20c.796 0 1.559-.316 2.121-.879.563-.562.879-1.325.879-2.121 0-.796-.316-1.559-.879-2.121-.562-.563-1.325-.879-2.121-.879h-1.382l-1-2h16.382c2.761 0 5-2.239 5-5v-32c0-2.761-2.239-5-5-5h-48c-2.761 0-5 2.239-5 5v32c0 2.761 2.239 5 5 5h16.382zm19.618 3c0-.265-.105-.52-.293-.707-.187-.188-.442-.293-.707-.293h-20c-.265 0-.52.105-.707.293-.188.187-.293.442-.293.707s.105.52.293.707c.187.188.442.293.707.293h20c.265 0 .52-.105.707-.293.188-.187.293-.442.293-.707zm-5.618-5 1 2h-12.764s1-2 1-2zm21.618-10v-27c0-1.657-1.343-3-3-3h-48c-1.657 0-3 1.343-3 3v27h39c.552 0 1 .448 1 1s-.448 1-1 1h-39v3c0 1.657 1.343 3 3 3h48c1.657 0 3-1.343 3-3v-3h-11c-.552 0-1-.448-1-1s.448-1 1-1z"/></g><g transform="translate(-6)"><g><path d="m357 470c0-1.657-1.343-3-3-3h-4c-1.657 0-3 1.343-3 3v12c0 1.657 1.343 3 3 3h4c1.657 0 3-1.343 3-3zm-2 0v12c0 .552-.448 1-1 1h-4c-.552 0-1-.448-1-1v-12c0-.552.448-1 1-1h4c.552 0 1 .448 1 1z"/></g><g><path d="m345 478c0-1.657-1.343-3-3-3h-4c-1.657 0-3 1.343-3 3v4c0 1.657 1.343 3 3 3h4c1.657 0 3-1.343 3-3zm-2 0v4c0 .552-.448 1-1 1h-4c-.552 0-1-.448-1-1v-4c0-.552.448-1 1-1h4c.552 0 1 .448 1 1z"/></g><g><path d="m369 462c0-.796-.316-1.559-.879-2.121-.562-.563-1.325-.879-2.121-.879h-4c-.796 0-1.559.316-2.121.879-.563.562-.879 1.325-.879 2.121v20c0 .796.316 1.559.879 2.121.562.563 1.325.879 2.121.879h4c.796 0 1.559-.316 2.121-.879.563-.562.879-1.325.879-2.121zm-2 0v20c0 .265-.105.52-.293.707-.187.188-.442.293-.707.293h-4c-.265 0-.52-.105-.707-.293-.188-.187-.293-.442-.293-.707v-20c0-.265.105-.52.293-.707.187-.188.442-.293.707-.293h4c.265 0 .52.105.707.293.188.187.293.442.293.707z"/></g><g><path d="m381 482v-8c0-1.657-1.343-3-3-3h-4c-1.657 0-3 1.343-3 3v8c0 1.657 1.343 3 3 3h4c1.657 0 3-1.343 3-3zm-2-8v8c0 .552-.448 1-1 1h-4c-.552 0-1-.448-1-1v-8c0-.552.448-1 1-1h4c.552 0 1 .448 1 1z"/></g></g></g></g></svg>