<svg clip-rule="evenodd" fill-rule="evenodd" height="512" stroke-linejoin="round" stroke-miterlimit="2" viewBox="0 0 64 64" width="512" xmlns="http://www.w3.org/2000/svg"><g transform="translate(-448 -448)"><g id="Icon"><g transform="translate(0 380)"><path d="m476 113h8c.552 0 1-.448 1-1s-.448-1-1-1h-8c-.552 0-1 .448-1 1s.448 1 1 1z"/></g><g transform="translate(128 128)"><path d="m343.382 371h-1.382c-.796 0-1.559.316-2.121.879-.563.562-.879 1.325-.879 2.121s.316 1.559.879 2.121c.562.563 1.325.879 2.121.879h20c.796 0 1.559-.316 2.121-.879.563-.562.879-1.325.879-2.121 0-.796-.316-1.559-.879-2.121-.562-.563-1.325-.879-2.121-.879h-1.382l-1-2h16.382c2.761 0 5-2.239 5-5v-32c0-2.761-2.239-5-5-5h-48c-2.761 0-5 2.239-5 5v32c0 2.761 2.239 5 5 5h16.382zm19.618 3c0-.265-.105-.52-.293-.707-.187-.188-.442-.293-.707-.293h-20c-.265 0-.52.105-.707.293-.188.187-.293.442-.293.707s.105.52.293.707c.187.188.442.293.707.293h20c.265 0 .52-.105.707-.293.188-.187.293-.442.293-.707zm-5.618-5 1 2h-12.764s1-2 1-2zm21.618-10v-27c0-1.657-1.343-3-3-3h-48c-1.657 0-3 1.343-3 3v27h39c.552 0 1 .448 1 1s-.448 1-1 1h-39v3c0 1.657 1.343 3 3 3h48c1.657 0 3-1.343 3-3v-3h-11c-.552 0-1-.448-1-1s.448-1 1-1z"/></g><g transform="translate(-12)"><path d="m496 459c-2.76 0-5 2.24-5 5s2.24 5 5 5 5-2.24 5-5-2.24-5-5-5zm0 2c1.656 0 3 1.344 3 3s-1.344 3-3 3-3-1.344-3-3 1.344-3 3-3z"/></g><path d="m495 468.9v1.1c0 .265-.105.52-.293.707-.187.188-.442.293-.707.293h-28c-.796 0-1.559.316-2.121.879-.563.562-.879 1.325-.879 2.121v1.1c-2.281.464-4 2.483-4 4.9 0 2.76 2.24 5 5 5s5-2.24 5-5c0-2.417-1.719-4.436-4-4.9v-1.1c0-.265.105-.52.293-.707.187-.188.442-.293.707-.293h28c.796 0 1.559-.316 2.121-.879.563-.562.879-1.325.879-2.121v-1.1c2.281-.464 4-2.483 4-4.9 0-2.76-2.24-5-5-5s-5 2.24-5 5c0 2.417 1.719 4.436 4 4.9zm-31 8.1c1.656 0 3 1.344 3 3s-1.344 3-3 3-3-1.344-3-3 1.344-3 3-3zm32-16c1.656 0 3 1.344 3 3s-1.344 3-3 3-3-1.344-3-3 1.344-3 3-3z"/><g transform="translate(4)"><path d="m468 462.586-3.293-3.293c-.39-.39-1.024-.39-1.414 0s-.39 1.024 0 1.414l3.293 3.293-3.293 3.293c-.39.39-.39 1.024 0 1.414s1.024.39 1.414 0l3.293-3.293 3.293 3.293c.39.39 1.024.39 1.414 0s.39-1.024 0-1.414l-3.293-3.293 3.293-3.293c.39-.39.39-1.024 0-1.414s-1.024-.39-1.414 0z"/></g><g transform="translate(24 16)"><path d="m468 462.586-3.293-3.293c-.39-.39-1.024-.39-1.414 0s-.39 1.024 0 1.414l3.293 3.293-3.293 3.293c-.39.39-.39 1.024 0 1.414s1.024.39 1.414 0l3.293-3.293 3.293 3.293c.39.39 1.024.39 1.414 0s.39-1.024 0-1.414l-3.293-3.293 3.293-3.293c.39-.39.39-1.024 0-1.414s-1.024-.39-1.414 0z"/></g><g transform="translate(12 16)"><path d="m468 462.586-3.293-3.293c-.39-.39-1.024-.39-1.414 0s-.39 1.024 0 1.414l3.293 3.293-3.293 3.293c-.39.39-.39 1.024 0 1.414s1.024.39 1.414 0l3.293-3.293 3.293 3.293c.39.39 1.024.39 1.414 0s.39-1.024 0-1.414l-3.293-3.293 3.293-3.293c.39-.39.39-1.024 0-1.414s-1.024-.39-1.414 0z"/></g></g></g></svg>