<svg clip-rule="evenodd" fill-rule="evenodd" height="512" stroke-linejoin="round" stroke-miterlimit="2" viewBox="0 0 64 64" width="512" xmlns="http://www.w3.org/2000/svg"><g transform="translate(-448 -320)"><g id="Icon"><g transform="translate(0 256)"><path d="m476 113h8c.552 0 1-.448 1-1s-.448-1-1-1h-8c-.552 0-1 .448-1 1s.448 1 1 1z"/></g><path d="m479 341v2h-5c-1.657 0-3 1.343-3 3v1h-1c-1.657 0-3 1.343-3 3v4c0 1.657 1.343 3 3 3h4c1.657 0 3-1.343 3-3v-4c0-1.657-1.343-3-3-3h-1v-1c0-.552.448-1 1-1h12c.552 0 1 .448 1 1v1h-1c-1.657 0-3 1.343-3 3v4c0 1.657 1.343 3 3 3h4c1.657 0 3-1.343 3-3v-4c0-1.657-1.343-3-3-3h-1v-1c0-1.657-1.343-3-3-3h-5v-2h1c1.657 0 3-1.343 3-3v-4c0-1.657-1.343-3-3-3h-4c-1.657 0-3 1.343-3 3v4c0 1.657 1.343 3 3 3zm12 9v4c0 .552-.448 1-1 1h-4c-.552 0-1-.448-1-1v-4c0-.552.448-1 1-1h4c.552 0 1 .448 1 1zm-16 0v4c0 .552-.448 1-1 1h-4c-.552 0-1-.448-1-1v-4c0-.552.448-1 1-1h4c.552 0 1 .448 1 1zm8-16v4c0 .552-.448 1-1 1h-4c-.552 0-1-.448-1-1v-4c0-.552.448-1 1-1h4c.552 0 1 .448 1 1z"/><path d="m464 325c-1.657 0-3 1.343-3 3v32c0 1.657 1.343 3 3 3h32c1.657 0 3-1.343 3-3v-32c0-1.657-1.343-3-3-3h-8c-.552 0-1-.448-1-1s.448-1 1-1h8c2.761 0 5 2.239 5 5v3h3c2.761 0 5 2.239 5 5v32c0 2.761-2.239 5-5 5h-16.382l1 2h1.382c.796 0 1.559.316 2.121.879.563.562.879 1.325.879 2.121 0 .796-.316 1.559-.879 2.121-.562.563-1.325.879-2.121.879-4.52 0-15.48 0-20 0-.796 0-1.559-.316-2.121-.879-.563-.562-.879-1.325-.879-2.121s.316-1.559.879-2.121c.562-.563 1.325-.879 2.121-.879h1.382l1-2h-16.382c-2.761 0-5-2.239-5-5v-32c0-2.761 2.239-5 5-5h3v-3c0-2.761 2.239-5 5-5h20c.552 0 1 .448 1 1s-.448 1-1 1zm27 53c0-.265-.105-.52-.293-.707-.187-.188-.442-.293-.707-.293h-20c-.265 0-.52.105-.707.293-.188.187-.293.442-.293.707s.105.52.293.707c.187.188.442.293.707.293h20c.265 0 .52-.105.707-.293.188-.187.293-.442.293-.707zm-5.618-5 1 2h-12.764s1-2 1-2zm21.618-8h-54v3c0 1.657 1.343 3 3 3h48c1.657 0 3-1.343 3-3zm-6-32v27c0 1.126-.372 2.164-1 3h7v-27c0-1.657-1.343-3-3-3zm-42 0h-3c-1.657 0-3 1.343-3 3v27h7c-.628-.836-1-1.874-1-3z"/></g></g></svg>