<svg clip-rule="evenodd" fill-rule="evenodd" height="512" stroke-linejoin="round" stroke-miterlimit="2" viewBox="0 0 64 64" width="512" xmlns="http://www.w3.org/2000/svg"><g transform="translate(-64 -576)"><g id="Icon"><path d="m85 592c0-3.863 3.137-7 7-7s7 3.137 7 7c0 .552.448 1 1 1s1-.448 1-1c0-4.967-4.033-9-9-9s-9 4.033-9 9c0 .552.448 1 1 1s1-.448 1-1z"/><path d="m87 604.002v3.004c-1.237-1.239-2.948-2.006-4.838-2.006-.001 0-.001 0-.002 0-.838 0-1.642.333-2.234.926-.593.592-.926 1.396-.926 2.234v13.355c0 1.856.737 3.637 2.05 4.949l1.95 1.95v5.586c0 .796.316 1.559.879 2.121.562.563 1.325.879 2.121.879h20c.796 0 1.559-.316 2.121-.879.563-.562.879-1.325.879-2.121v-7.343c0-.796.316-1.559.879-2.121.522-.522 1.135-1.135 1.657-1.657.937-.938 1.464-2.21 1.464-3.536v-7.464c0-2.738-1.864-5.126-4.521-5.79l-10.397-2.599c4.114-2.184 6.918-6.512 6.918-11.49 0-7.175-5.825-13-13-13s-13 5.825-13 13c0 5.403 3.304 10.041 8 12.002zm0 11.998v-4.162c0-2.672-2.166-4.838-4.838-4.838h-.002c-.308 0-.603.122-.82.34-.218.217-.34.512-.34.82v13.355c0 1.326.527 2.598 1.464 3.535 0 0 1.95 1.95 1.95 1.95h15.586c.552 0 1 .448 1 1s-.448 1-1 1h-15v5c0 .265.105.52.293.707.187.188.442.293.707.293h20c.265 0 .52-.105.707-.293.188-.187.293-.442.293-.707v-5h-3c-.552 0-1-.448-1-1s.448-1 1-1h3v-.343c0-1.326.527-2.598 1.464-3.536.522-.522 1.135-1.135 1.657-1.657.563-.562.879-1.325.879-2.121v-7.464c0-1.821-1.239-3.408-3.006-3.85-4.73-1.182-12.237-3.059-12.237-3.059-.445-.111-.757-.511-.757-.97v-12c0-1.657-1.343-3-3-3-.796 0-1.559.316-2.121.879-.563.562-.879 1.325-.879 2.121v24c0 .552-.448 1-1 1s-1-.448-1-1zm10-14.201c3.56-1.822 6-5.528 6-9.799 0-6.071-4.929-11-11-11s-11 4.929-11 11c0 4.271 2.44 7.977 6 9.799v-9.799c0-1.326.527-2.598 1.464-3.536.938-.937 2.21-1.464 3.536-1.464 2.761 0 5 2.239 5 5z"/></g></g></svg>