<svg clip-rule="evenodd" fill-rule="evenodd" height="512" stroke-linejoin="round" stroke-miterlimit="2" viewBox="0 0 64 64" width="512" xmlns="http://www.w3.org/2000/svg"><g transform="translate(-192 -64)"><g id="Icon"><path d="m195 72v48c0 2.761 2.239 5 5 5h48c2.761 0 5-2.239 5-5v-48c0-2.761-2.239-5-5-5h-48c-2.761 0-5 2.239-5 5zm56 11v-11c0-1.657-1.343-3-3-3h-48c-1.657 0-3 1.343-3 3v11h43c.552 0 1 .448 1 1s-.448 1-1 1h-43v35c0 1.657 1.343 3 3 3h48c1.657 0 3-1.343 3-3v-35h-7c-.552 0-1-.448-1-1s.448-1 1-1z"/><g transform="translate(-2)"><path d="m204 73c-1.656 0-3 1.344-3 3s1.344 3 3 3 3-1.344 3-3-1.344-3-3-3zm0 2c.552 0 1 .448 1 1s-.448 1-1 1-1-.448-1-1 .448-1 1-1z"/></g><g transform="translate(6)"><path d="m204 73c-1.656 0-3 1.344-3 3s1.344 3 3 3 3-1.344 3-3-1.344-3-3-3zm0 2c.552 0 1 .448 1 1s-.448 1-1 1-1-.448-1-1 .448-1 1-1z"/></g><g transform="translate(14)"><path d="m204 73c-1.656 0-3 1.344-3 3s1.344 3 3 3 3-1.344 3-3-1.344-3-3-3zm0 2c.552 0 1 .448 1 1s-.448 1-1 1-1-.448-1-1 .448-1 1-1z"/></g><path d="m223 76c0 .796.316 1.559.879 2.121.562.563 1.325.879 2.121.879h20c.796 0 1.559-.316 2.121-.879.563-.562.879-1.325.879-2.121 0-.796-.316-1.559-.879-2.121-.562-.563-1.325-.879-2.121-.879-4.52 0-15.48 0-20 0-.796 0-1.559.316-2.121.879-.563.562-.879 1.325-.879 2.121zm24 0c0-.265-.105-.52-.293-.707-.187-.188-.442-.293-.707-.293h-20c-.265 0-.52.105-.707.293-.188.187-.293.442-.293.707s.105.52.293.707c.187.188.442.293.707.293h20c.265 0 .52-.105.707-.293.188-.187.293-.442.293-.707z"/><path d="m239.497 106.078c.002-.003.004-.005.006-.007 1.109-1.158 1.109-2.984.001-4.142-.002-.003-.004-.005-.006-.007-2.338-2.398-7.787-6.922-15.498-6.922-7.712 0-13.16 4.524-15.497 6.922-.002.003-.004.005-.006.007-1.109 1.158-1.109 2.984-.001 4.142.002.003.004.005.006.007 2.338 2.398 7.787 6.922 15.498 6.922 7.712 0 13.16-4.524 15.497-6.922zm-1.436-1.392c-2.125 2.18-7.06 6.314-14.061 6.314s-11.935-4.134-14.061-6.313c-.365-.384-.365-.986-.002-1.37 2.127-2.183 7.062-6.317 14.063-6.317s11.935 4.134 14.061 6.313c.365.384.365.986.002 1.37z"/><path d="m224 99c-2.76 0-5 2.24-5 5s2.24 5 5 5 5-2.24 5-5-2.24-5-5-5zm0 2c1.656 0 3 1.344 3 3s-1.344 3-3 3-3-1.344-3-3 1.344-3 3-3z"/><path d="m211.49 113.467c3.245 1.924 7.474 3.533 12.51 3.533s9.265-1.609 12.51-3.533c.475-.282.632-.896.35-1.37-.281-.475-.895-.632-1.37-.351-2.981 1.768-6.864 3.254-11.49 3.254s-8.509-1.486-11.49-3.253c-.475-.282-1.089-.125-1.37.35-.282.474-.125 1.088.35 1.37z"/><path d="m236.51 94.533c-3.245-1.924-7.474-3.533-12.51-3.533s-9.265 1.609-12.51 3.533c-.475.282-.632.896-.35 1.37.281.475.895.632 1.37.351 2.981-1.768 6.864-3.254 11.49-3.254s8.509 1.486 11.49 3.253c.475.282 1.089.125 1.37-.35.282-.474.125-1.088-.35-1.37z"/></g></g></svg>