<svg clip-rule="evenodd" fill-rule="evenodd" height="512" stroke-linejoin="round" stroke-miterlimit="2" viewBox="0 0 64 64" width="512" xmlns="http://www.w3.org/2000/svg"><g transform="translate(-192 -192)"><g id="Icon"><g transform="matrix(1.333 0 0 1.333 -74.667 -77.333)"><path d="m226.233 220.856c-.098-.88-.822-1.558-1.707-1.598-.003-.001-.007-.001-.01-.001-.347-.011-.693-.01-1.039.004-.001 0-.002 0-.003 0-.883.04-1.606.717-1.705 1.595-.042.355-.089.769-.127 1.115-.014.124-.103.226-.223.257-.363.093-.721.209-1.071.345-.002 0-.003.001-.004.001-.115.046-.246.015-.329-.076-.001-.001-.003-.003-.004-.004-.235-.253-.513-.558-.755-.822-.596-.655-1.58-.778-2.32-.29-.003.002-.006.004-.009.006-.286.195-.566.398-.838.613-.001.001-.002.001-.003.002-.691.552-.878 1.524-.441 2.293.174.311.38.674.552.977.061.108.05.243-.029.338-.239.289-.46.593-.664.909-.001.001-.002.002-.002.004-.067.104-.19.156-.311.131-.002 0-.004-.001-.006-.001-.338-.067-.742-.15-1.094-.222-.867-.178-1.735.301-2.047 1.13-.001.003-.003.006-.004.01-.117.326-.224.655-.317.989-.001.001-.001.002-.001.003-.235.852.185 1.749.99 2.114.324.15.704.322 1.021.466.113.051.183.167.175.291-.023.374-.023.75-.002 1.125v.005c.007.123-.062.238-.174.288-.002.001-.004.002-.006.003-.313.145-.688.316-1.015.464-.806.365-1.227 1.263-.992 2.117.001.003.002.007.003.01.096.333.203.662.324.987 0 .001.001.002.001.003.311.828 1.178 1.306 2.044 1.128.35-.069.758-.153 1.1-.223.121-.025.246.028.313.133.2.316.421.62.659.912.001.001.002.002.003.003.078.095.089.229.029.336-.001.002-.002.004-.003.005-.168.302-.372.66-.549.972-.438.769-.251 1.744.441 2.296.003.003.006.005.009.007.274.212.554.416.842.608.001 0 .002.001.003.001.738.487 1.72.365 2.317-.288.242-.262.523-.57.758-.827.084-.092.216-.122.331-.077.349.138.706.254 1.07.351.001 0 .002 0 .004.001.119.031.207.132.221.254v.007c.042.342.088.752.128 1.108.098.88.822 1.558 1.707 1.598.003.001.007.001.01.001.347.011.693.01 1.039-.004h.003c.883-.04 1.606-.717 1.705-1.595.042-.355.089-.769.127-1.115.014-.124.103-.226.223-.257.363-.093.721-.209 1.071-.345.002 0 .003-.001.004-.001.115-.046.246-.015.329.076l.004.004c.235.253.513.558.755.822.596.655 1.58.778 2.32.29.003-.002.006-.004.009-.006.286-.195.566-.398.838-.613.001-.001.002-.001.003-.002.691-.552.878-1.524.441-2.293-.174-.311-.38-.674-.552-.977-.061-.108-.05-.243.029-.338.239-.289.46-.593.664-.909.001-.001.002-.002.002-.004.067-.104.19-.156.311-.131.002 0 .004.001.006.001.338.067.742.15 1.094.222.867.178 1.735-.301 2.047-1.13.001-.003.003-.006.004-.01.117-.326.224-.655.317-.989.001-.001.001-.002.001-.003.235-.852-.185-1.749-.99-2.114-.324-.15-.704-.322-1.021-.466-.113-.051-.183-.167-.175-.291.023-.374.023-.75.002-1.125 0-.002 0-.003 0-.005-.007-.123.062-.238.174-.288.002-.001.004-.002.006-.003.313-.145.688-.316 1.015-.464.806-.365 1.227-1.263.992-2.117-.001-.003-.002-.007-.003-.01-.096-.333-.203-.662-.324-.987 0-.001-.001-.002-.001-.003-.311-.828-1.178-1.306-2.044-1.128-.35.069-.758.153-1.1.223-.121.025-.246-.028-.313-.133-.2-.316-.421-.62-.659-.912-.001-.001-.002-.002-.003-.003-.078-.095-.089-.229-.029-.336.001-.002.002-.004.003-.005.168-.302.372-.66.549-.972.438-.769.251-1.744-.441-2.296-.003-.003-.006-.005-.009-.007-.274-.212-.554-.416-.842-.608-.001 0-.002-.001-.003-.001-.738-.487-1.72-.365-2.317.288-.242.262-.523.57-.758.827-.084.092-.216.122-.331.077-.349-.138-.706-.254-1.07-.351-.001 0-.002 0-.004-.001-.119-.031-.207-.132-.221-.254 0-.002 0-.004 0-.007-.042-.342-.088-.752-.128-1.108zm-1.49.167c.04.36.087.775.128 1.121.083.735.614 1.347 1.336 1.534.302.079.603.177.897.294h.001c.695.274 1.486.091 1.989-.46l.759-.827c.099-.108.261-.129.383-.049.255.171.504.351.746.539.114.092.144.253.071.381-.179.315-.385.678-.555.983-.365.642-.295 1.45.179 2.025.197.242.384.498.553.766 0 0 .001 0 .001.001.401.629 1.148.946 1.88.796l1.1-.223c.143-.029.286.05.338.186.106.288.201.58.287.875.037.141-.033.289-.166.349h-.001c-.33.15-.71.322-1.026.469-.673.305-1.092 1-1.046 1.744.017.312.017.629-.003.945v.001c-.045.745.373 1.441 1.053 1.749l1.021.466c.133.06.203.208.164.349-.083.296-.177.588-.281.877-.053.136-.197.214-.34.184h-.001c-.355-.073-.764-.156-1.106-.224-.724-.148-1.47.168-1.871.796-.169.263-.355.519-.557.763 0 .001-.001.001-.001.001-.475.576-.545 1.385-.177 2.034l.553.977c.072.127.041.288-.073.379-.24.191-.489.371-.743.544-.123.079-.285.058-.383-.051-.001 0-.001 0-.001 0-.244-.268-.526-.576-.763-.831-.498-.546-1.288-.729-1.981-.456-.292.113-.593.211-.9.29 0 0 0 0-.001 0-.722.187-1.255.8-1.338 1.541l-.128 1.116c-.016.145-.135.257-.281.264-.307.012-.614.012-.921.003-.146-.009-.264-.121-.281-.267-.04-.36-.087-.775-.128-1.121-.083-.735-.614-1.347-1.336-1.534-.302-.079-.603-.177-.897-.294-.001 0-.001 0-.001 0-.695-.274-1.486-.091-1.989.46l-.759.827c-.099.108-.261.129-.383.049-.255-.171-.504-.351-.746-.539-.114-.092-.144-.253-.071-.381.179-.315.385-.678.555-.983.365-.642.295-1.45-.179-2.025-.197-.242-.384-.498-.553-.766 0 0-.001 0-.001-.001-.401-.629-1.148-.946-1.88-.796l-1.1.223c-.143.029-.286-.05-.338-.186-.106-.288-.201-.58-.287-.875-.037-.141.033-.289.166-.349h.001c.33-.15.71-.322 1.026-.469.673-.305 1.092-1 1.046-1.744-.017-.312-.017-.629.003-.945 0 0 0 0 0-.001.045-.745-.373-1.441-1.053-1.749l-1.021-.466c-.133-.06-.203-.208-.164-.349.083-.296.177-.588.281-.877.053-.136.197-.214.34-.184h.001c.355.073.764.156 1.106.224.724.148 1.47-.168 1.871-.796.169-.263.355-.519.557-.763 0-.001.001-.001.001-.001.475-.576.545-1.385.177-2.034l-.553-.977c-.072-.127-.041-.288.073-.379.24-.191.489-.371.743-.544.123-.079.285-.058.383.051h.001c.244.268.526.576.763.831.498.546 1.288.729 1.981.456.292-.113.593-.211.9-.29h.001c.722-.187 1.255-.8 1.338-1.541l.128-1.116c.016-.145.135-.257.281-.264.307-.012.614-.012.921-.003.146.009.264.121.281.267z"/></g><path d="m224 223c-4.967 0-9 4.033-9 9s4.033 9 9 9 9-4.033 9-9-4.033-9-9-9zm0 2c3.863 0 7 3.137 7 7s-3.137 7-7 7-7-3.137-7-7 3.137-7 7-7z"/><g transform="translate(-121 159)"><circle cx="341" cy="73" r="1"/></g><g transform="translate(-117 159)"><circle cx="341" cy="73" r="1"/></g><g transform="translate(-113 159)"><circle cx="341" cy="73" r="1"/></g><g transform="translate(0 128)"><path d="m195 72v48c0 2.761 2.239 5 5 5h48c2.761 0 5-2.239 5-5v-48c0-2.761-2.239-5-5-5h-48c-2.761 0-5 2.239-5 5zm56 11v-11c0-1.657-1.343-3-3-3h-48c-1.657 0-3 1.343-3 3v11h43c.552 0 1 .448 1 1s-.448 1-1 1h-43v35c0 1.657 1.343 3 3 3h48c1.657 0 3-1.343 3-3v-35h-7c-.552 0-1-.448-1-1s.448-1 1-1z"/></g><g transform="translate(-2 128)"><path d="m204 73c-1.656 0-3 1.344-3 3s1.344 3 3 3 3-1.344 3-3-1.344-3-3-3zm0 2c.552 0 1 .448 1 1s-.448 1-1 1-1-.448-1-1 .448-1 1-1z"/></g><g transform="translate(6 128)"><path d="m204 73c-1.656 0-3 1.344-3 3s1.344 3 3 3 3-1.344 3-3-1.344-3-3-3zm0 2c.552 0 1 .448 1 1s-.448 1-1 1-1-.448-1-1 .448-1 1-1z"/></g><g transform="translate(14 128)"><path d="m204 73c-1.656 0-3 1.344-3 3s1.344 3 3 3 3-1.344 3-3-1.344-3-3-3zm0 2c.552 0 1 .448 1 1s-.448 1-1 1-1-.448-1-1 .448-1 1-1z"/></g><g transform="translate(0 128)"><path d="m223 76c0 .796.316 1.559.879 2.121.562.563 1.325.879 2.121.879h20c.796 0 1.559-.316 2.121-.879.563-.562.879-1.325.879-2.121 0-.796-.316-1.559-.879-2.121-.562-.563-1.325-.879-2.121-.879-4.52 0-15.48 0-20 0-.796 0-1.559.316-2.121.879-.563.562-.879 1.325-.879 2.121zm24 0c0-.265-.105-.52-.293-.707-.187-.188-.442-.293-.707-.293h-20c-.265 0-.52.105-.707.293-.188.187-.293.442-.293.707s.105.52.293.707c.187.188.442.293.707.293h20c.265 0 .52-.105.707-.293.188-.187.293-.442.293-.707z"/></g></g></g></svg>