<svg clip-rule="evenodd" fill-rule="evenodd" height="512" stroke-linejoin="round" stroke-miterlimit="2" viewBox="0 0 64 64" width="512" xmlns="http://www.w3.org/2000/svg"><g transform="translate(-64 -64)"><g id="Icon"><g transform="translate(-1 -4)"><path d="m80 75c-2.76 0-5 2.24-5 5s2.24 5 5 5 5-2.24 5-5-2.24-5-5-5zm0 2c1.656 0 3 1.344 3 3s-1.344 3-3 3-3-1.344-3-3 1.344-3 3-3z"/></g><path d="m114.848 114.501c-1.734-1.768-3.729-3.281-5.922-4.474.625-2.777.999-5.823 1.064-9.027h9.989c-.07 1.633-.311 3.223-.705 4.75-.138.535.184 1.081.719 1.218.534.138 1.08-.184 1.218-.718.515-1.998.789-4.092.789-6.25 0-13.798-11.202-25-25-25-3.183 0-6.228.596-9.03 1.683.02-.231.03-.459.03-.683 0-4.967-4.033-9-9-9s-9 4.033-9 9c0 1.85.684 3.97 1.692 6.047 1 2.059 2.311 4.08 3.498 5.733-2.031 3.614-3.19 7.783-3.19 12.22 0 13.798 11.202 25 25 25 10.08 0 18.775-5.979 22.729-14.582.231-.502.011-1.096-.491-1.327-.501-.23-1.096-.01-1.326.491-.814 1.773-1.848 3.424-3.064 4.919zm-18.848-5.48c-3.062.132-5.971.863-8.609 2.08.818 3.039 1.964 5.67 3.35 7.702 1.514 2.221 3.297 3.717 5.259 4.1zm2 0v13.882c1.962-.383 3.745-1.879 5.259-4.1 1.386-2.032 2.532-4.663 3.35-7.702-2.639-1.217-5.547-1.948-8.609-2.08zm-12.419 3.014c-1.882 1.079-3.597 2.417-5.097 3.965 2.829 2.92 6.427 5.094 10.465 6.194-.655-.651-1.277-1.409-1.86-2.264-1.429-2.095-2.631-4.789-3.508-7.895zm22.838 0c-.877 3.106-2.079 5.8-3.508 7.895-.583.855-1.205 1.613-1.86 2.264 4.038-1.1 7.635-3.273 10.465-6.194-1.5-1.548-3.216-2.886-5.097-3.965zm-23.345-2.008c-.625-2.777-.999-5.823-1.064-9.027h-9.989c.219 5.106 2.106 9.784 5.131 13.501 1.735-1.769 3.729-3.281 5.922-4.474zm22.01-.907c.53-2.512.846-5.25.906-8.12h-9.99v6.02c3.221.127 6.287.864 9.084 2.1zm-11.084-2.1v-6.02h-9.99c.06 2.87.376 5.608.906 8.12 2.798-1.236 5.863-1.973 9.084-2.1zm-13.575-18.711c-.378.512-.737.982-1.063 1.398-.562.736-1.435 1.169-2.362 1.169s-1.801-.432-2.363-1.169l-.126-.161c-1.462 2.858-2.344 6.061-2.49 9.454h9.989c.065-3.204.439-6.25 1.064-9.027-.92-.5-1.804-1.057-2.649-1.664zm4.491 2.571c-.529 2.512-.846 5.249-.906 8.12h9.99v-6.02c-3.221-.127-6.287-.864-9.084-2.1zm27.932-5.381c-1.735 1.769-3.729 3.281-5.922 4.474.625 2.777.999 5.824 1.064 9.027h9.989c-.219-5.106-2.106-9.784-5.131-13.501zm-7.764 5.381c-2.798 1.236-5.863 1.973-9.084 2.1v6.02h9.99c-.06-2.87-.376-5.608-.906-8.12zm-11.084-13.783c-1.962.383-3.745 1.879-5.259 4.1-1.386 2.032-2.532 4.664-3.35 7.702 2.639 1.217 5.547 1.948 8.609 2.08zm2 0v13.882c3.062-.132 5.971-.863 8.609-2.08-.818-3.038-1.964-5.67-3.35-7.702-1.514-2.221-3.297-3.717-5.259-4.1zm-19-8.097c3.863 0 7 3.137 7 7 0 1.586-.627 3.393-1.491 5.173-1.371 2.823-3.36 5.566-4.724 7.304-.004.005-.007.009-.011.014-.184.242-.47.385-.774.385-.305 0-.591-.142-.775-.385-.003-.004-.007-.009-.01-.013-1.364-1.739-3.353-4.482-4.724-7.305-.864-1.78-1.491-3.587-1.491-5.173 0-3.863 3.137-7 7-7zm6.581 18.966c.877-3.108 2.079-5.801 3.508-7.896.583-.855 1.205-1.613 1.86-2.264-1.191.324-2.344.742-3.45 1.245-.296.986-.706 1.996-1.191 2.996-.787 1.62-1.767 3.217-2.727 4.629.643.463 1.31.894 2 1.29zm27.935-3.966c-2.83-2.92-6.427-5.094-10.465-6.194.655.651 1.277 1.409 1.86 2.264 1.429 2.095 2.631 4.788 3.508 7.895 1.882-1.079 3.597-2.417 5.097-3.965z"/></g></g></svg>