<svg xmlns="http://www.w3.org/2000/svg" viewBox="0 0 60 60"><path d="M46.983 41.329a26.036 26.036 0 1 0-5.654 5.654l12.138 12.138a3 3 0 0 0 4.242 0l1.412-1.411a3 3 0 0 0 0-4.243zM2 26a24 24 0 1 1 24 24A24.028 24.028 0 0 1 2 26zm55.707 30.3l-1.413 1.412a1.022 1.022 0 0 1-1.413 0L42.9 45.73a26 26 0 0 0 2.83-2.83l11.977 11.981a1 1 0 0 1 0 1.414z"/><path d="M31.237 4.627a1 1 0 1 0-.474 1.943A20.02 20.02 0 1 1 26 6a1 1 0 0 0 0-2 21.975 21.975 0 1 0 5.237.627z"/><path d="M14 19a3 3 0 0 1 3 3 1 1 0 0 0 2 0 5 5 0 1 0-5 5 3 3 0 1 1-3 3 1 1 0 0 0-2 0 5 5 0 1 0 5-5 3 3 0 0 1 0-6zM30 19a1 1 0 0 0 0-2h-7a2 2 0 0 0-2 2v14a2 2 0 0 0 2 2h7a1 1 0 0 0 0-2h-7v-6h5a1 1 0 0 0 0-2h-5v-6zM43 30v-8a5 5 0 0 0-10 0v8a5 5 0 0 0 10 0zm-8 0v-8a3 3 0 0 1 6 0v8a3 3 0 0 1-6 0z"/></svg>