<svg xmlns="http://www.w3.org/2000/svg" viewBox="0 0 60 60"><path d="M4 60h52a4 4 0 0 0 4-4V4a4 4 0 0 0-4-4H4a4 4 0 0 0-4 4v52a4 4 0 0 0 4 4zm13-2H7v-9a1 1 0 0 1 1-1h8a1 1 0 0 1 1 1zm16 0H23V45a1 1 0 0 1 1-1h8a1 1 0 0 1 1 1zm16 0H39V41a1 1 0 0 1 1-1h8a1 1 0 0 1 1 1zm7 0h-5V41a3 3 0 0 0-3-3h-8a3 3 0 0 0-3 3v17h-2V45a3 3 0 0 0-3-3h-8a3 3 0 0 0-3 3v13h-2v-9a3 3 0 0 0-3-3H8a3 3 0 0 0-3 3v9H4a2 2 0 0 1-2-2V10h56v46a2 2 0 0 1-2 2zM4 2h52a2 2 0 0 1 2 2v4H2V4a2 2 0 0 1 2-2z"/><path d="M44 12a12 12 0 1 0 12 12 12.013 12.013 0 0 0-12-12zm0 22a10 10 0 1 1 10-10 10.011 10.011 0 0 1-10 10zM5 6h1a1 1 0 0 0 0-2H5a1 1 0 0 0 0 2zM10 6h1a1 1 0 0 0 0-2h-1a1 1 0 0 0 0 2zM15 6h1a1 1 0 0 0 0-2h-1a1 1 0 0 0 0 2zM49 6h6a1 1 0 0 0 0-2h-6a1 1 0 0 0 0 2z"/><path d="M44 19a2 2 0 0 1 2 2 1 1 0 0 0 2 0 4 4 0 0 0-3-3.858V17a1 1 0 0 0-2 0v.142A3.992 3.992 0 0 0 44 25a2 2 0 1 1-2 2 1 1 0 0 0-2 0 4 4 0 0 0 3 3.858V31a1 1 0 0 0 2 0v-.142A3.992 3.992 0 0 0 44 23a2 2 0 0 1 0-4zM29.333 29.058l-2.828-1a1 1 0 1 0-.666 1.884l.433.154L5.6 39.083A1 1 0 0 0 6 41a.979.979 0 0 0 .4-.083l20.894-9.084-.234.662a1 1 0 1 0 1.884.666l1-2.828a1 1 0 0 0-.611-1.275z"/></svg>