<svg xmlns="http://www.w3.org/2000/svg" viewBox="0 0 90 90"><path d="M75.656 69.969l.844 1.5c.875 1.552.891 2.309.559 2.995-.334.688-1.313 1.511-2.965 2.459l-7.406 4.246c-1.65.942-2.863 1.369-3.609 1.307-.744-.063-1.375-.463-2.25-2.015l-.885-1.417zM54.693 45.985l2.5 4.338c.775 1.345.51 3.042-1.494 4.391l-6.449-6.469a5.71 5.71 0 0 0 1.162-.369zm-16.964-3.749l2.73.399 23.5 23.579c.459.459.594.85.537 1.24-.137.952-.922 1.656-1.662 1.656-.391 0-.775-.073-1.24-.538L47.209 54.13c-.99-3.276-2.178-5.26-3.6-6.379-1.223-.968-2.598-1.167-3.775-1.011l-1.709-1.724zm20.943-3.625l6.512 11.281c.754 1.307 2.723.172 1.963-1.141l-2.635-4.568c1.879.986 4.119 2.209 5.594 3.178 1.488.975 2.182 2.209 2.4 4.204l.891 8.162c.26 2.353.109 5.552 1.209 8.234l-15.887 9.17c-.938-1.379-1.926-2.312-3.275-3.353L42.172 63.516c-.941-.728-1.203-2.228-1.113-4.056l.229-4.63-.553-5.584c.475.016.938-.14 1.475.282.869.688 2 2.218 2.844 5.271.125.469.338.715.635 1.016L59.99 70.183c1.76 1.767 3.99 1.475 5.578 0 1.672-1.556 1.547-4.009-.01-5.572l-8.24-8.266c2.459-1.922 3.146-4.891 1.838-7.157l-3.01-5.219a1.136 1.136 0 0 0-1.438-.473l-5.213 2.301c-1.781.792-2.449.297-2.818-.343-.469-.808-.188-1.5.666-2.125l7.49-5.47c1.61-1.18 2.933-.816 3.839.752zm-5.176-2.584l-8.156 5.958c-.49.355-.809.823-1 1.333l-2.543-2.552a1.122 1.122 0 0 0-.641-.322l-4.604-.667a1.113 1.113 0 0 0-1.281 1.276l.666 4.661c.031.24.141.464.313.64l2.125 2.131.641 6.312-.219 4.557c-.1 2.084.104 4.5 1.99 5.959l13.275 10.26c1.568 1.209 2.277 1.917 3.309 3.647.473.787.988 1.563 1.479 2.344 1.057 1.88 2.416 3.031 4.037 3.172 1.619.135 3.15-.584 4.926-1.6l7.406-4.249c1.771-1.017 3.172-1.97 3.881-3.433.709-1.464.438-3.224-.625-5.1l-1.416-2.494c-1.188-2.063-1.137-5.864-1.402-8.38l-.891-8.167c-.27-2.479-1.395-4.531-3.41-5.85-3.125-2.046-8.512-4.67-8.912-4.869l-1.807-3.12c-1.694-2.92-4.438-3.42-7.141-1.447z"/><path fill-rule="evenodd" d="M15.338 7.512h35.725a2.551 2.551 0 0 1 2.584 2.578v3.401H12.766V10.09c0-1.448 1.119-2.578 2.572-2.578zm0-2.267c-2.666 0-4.848 2.178-4.848 4.845v62.426c0 2.667 2.182 4.85 4.848 4.85H48.98a1.135 1.135 0 1 0 0-2.271H15.338c-1.453 0-2.572-1.131-2.572-2.579v-3.733h24.771a1.138 1.138 0 1 0 0-2.276H12.766v-50.74h40.881v16.678a1.129 1.129 0 0 0 1.131 1.183c.645 0 1.16-.537 1.135-1.183V10.09c0-2.667-2.182-4.845-4.85-4.845z" clip-rule="evenodd"/><path d="M26.553 27.412c-1.23.735-2.453 2.068-3.715 3.604-2.516 3.068-4.947 6.996-5.4 10.115-.334 2.262.822 3.854 2.006 4.511 1.182.652 2.379.641 2.379.641 1.563.078 1.6-2.297.037-2.267 0 0-.719-.031-1.318-.364-.594-.328-1.082-.671-.859-2.192.309-2.13 2.559-6.163 4.906-9.005 2.496-3.017 4.516-4.824 3.922-.115-.203 1.604-.66 3.468-1.141 5.254-.473 1.787-.973 3.484-1.275 4.865-.396 1.525-.604 2.823.525 3.651 1.391 1.02 2.762.077 3.918-.787 1.156-.994 2.313-2.494 3.613-4.421.844-1.256-1.035-2.527-1.885-1.272-1.25 1.854-2.365 3.24-3.209 3.969-1.104.959-.91.197-.738-.662.244-1.25.754-2.942 1.238-4.76s.959-3.756 1.199-5.548c.234-1.791.447-3.541-.387-4.843-1.035-1.618-2.494-1.159-3.816-.374z"/></svg>