<svg xmlns="http://www.w3.org/2000/svg" viewBox="0 0 512 512"><path d="M128 320h21.332v192H128zm0 0M42.668 320H64v192H42.668zm0 0M85.332 362.668h21.336V512H85.332zm0 0"/><path d="M181.332 362.668h-42.664v-21.336h32V234.668C170.668 211.137 151.531 192 128 192H64c-23.531 0-42.668 19.137-42.668 42.668v106.664h32v21.336H10.668C4.778 362.668 0 357.898 0 352V234.668c0-35.297 28.703-64 64-64h64c35.297 0 64 28.703 64 64V352c0 5.898-4.777 10.668-10.668 10.668zm0 0M96 149.332c-29.406 0-53.332-23.926-53.332-53.332S66.594 42.668 96 42.668 149.332 66.594 149.332 96 125.406 149.332 96 149.332zM96 64c-17.645 0-32 14.355-32 32s14.355 32 32 32 32-14.355 32-32-14.355-32-32-32zm0 0"/><path d="M85.332 213.332h21.336v21.336H85.332zm0 0M448 320h21.332v192H448zm0 0M362.668 320H384v192h-21.332zm0 0M405.332 362.668h21.336V512h-21.336zm0 0"/><path d="M501.332 362.668h-42.664v-21.336h32V234.668C490.668 211.137 471.531 192 448 192h-64c-23.531 0-42.668 19.137-42.668 42.668v106.664h32v21.336h-42.664A10.66 10.66 0 0 1 320 352V234.668c0-35.297 28.703-64 64-64h64c35.297 0 64 28.703 64 64V352a10.66 10.66 0 0 1-10.668 10.668zm0 0M416 149.332c-29.406 0-53.332-23.926-53.332-53.332S386.594 42.668 416 42.668 469.332 66.594 469.332 96 445.406 149.332 416 149.332zM416 64c-17.645 0-32 14.355-32 32s14.355 32 32 32 32-14.355 32-32-14.355-32-32-32zm0 0"/><path d="M405.332 213.332h21.336v21.336h-21.336zm0 0M298.668 192h-85.336c-5.887 0-10.664-4.777-10.664-10.668 0-5.887 4.777-10.664 10.664-10.664h85.336c5.898 0 10.664 4.777 10.664 10.664 0 5.89-4.766 10.668-10.664 10.668zm0 0"/><path d="M288 234.668h-64c-5.887 0-10.668-4.781-10.668-10.668v-42.668c0-12.242-5.555-23.027-18.035-34.953-16.117-15.426-24.629-36.535-24.629-61.047C170.668 38.282 208.949 0 256 0s85.332 38.281 85.332 85.332c0 24.512-8.512 45.621-24.629 61.047-4.234 4.062-11.008 3.937-15.082-.332-4.074-4.254-3.926-11.008.332-15.082C313.762 119.668 320 103.883 320 85.332c0-35.293-28.703-64-64-64s-64 28.707-64 64c0 18.55 6.238 34.336 18.04 45.621 10.57 10.125 24.628 26.336 24.628 50.379v32h42.664v-32c0-5.887 4.77-10.664 10.668-10.664s10.668 4.777 10.668 10.664V224c0 5.887-4.77 10.668-10.668 10.668zm0 0"/><path d="M256 192c-5.887 0-10.668-4.777-10.668-10.668v-96c0-5.887 4.781-10.664 10.668-10.664s10.668 4.777 10.668 10.664v96c0 5.89-4.781 10.668-10.668 10.668zm0 0"/><path d="M277.332 96h-42.664C228.778 96 224 91.223 224 85.332c0-5.887 4.777-10.664 10.668-10.664h42.664c5.898 0 10.668 4.777 10.668 10.664C288 91.222 283.23 96 277.332 96zm0 0M245.332 256h21.336v21.332h-21.336zm0 0M245.332 298.668h21.336V320h-21.336zm0 0M245.332 341.332h21.336v21.336h-21.336zm0 0"/></svg>