<svg xmlns="http://www.w3.org/2000/svg" viewBox="0 -11 512 512"><path d="M245.332 341.332h21.336v149.336h-21.336zm0 0M96 298.668h320V320H96zm0 0M458.668 160c-29.41 0-53.336-23.926-53.336-53.332 0-29.41 23.926-53.336 53.336-53.336 29.406 0 53.332 23.926 53.332 53.336C512 136.074 488.074 160 458.668 160zm0-85.332c-17.645 0-32 14.355-32 32 0 17.64 14.355 32 32 32 17.64 0 32-14.36 32-32 0-17.645-14.36-32-32-32zm0 0"/><path d="M352 490.668c-1.406 0-2.836-.27-4.203-.867-5.418-2.324-7.926-8.594-5.598-14.004l32-74.668a10.65 10.65 0 0 1 9.801-6.461h74.668c17.64 0 32-14.36 32-32V224c0-11.766-9.57-21.332-21.336-21.332h-10.664c-7.488 0-14.305 4.95-23.488 17.11-10.305 13.609-41.578 52.007-42.903 53.628a10.687 10.687 0 0 1-8.277 3.926h-53.332c-5.89 0-10.668 4.781-10.668 10.668v21.332A10.66 10.66 0 0 1 309.332 320a10.656 10.656 0 0 1-10.664-10.668V288c0-17.645 14.355-32 32-32h48.254c8.406-10.348 31.062-38.293 39.234-49.098 9.012-11.906 21.746-25.57 40.512-25.57h10.664C492.863 181.332 512 200.469 512 224v138.668C512 392.074 488.074 416 458.668 416h-67.637l-29.23 68.203c-1.727 4.043-5.664 6.465-9.801 6.465zm0 0"/><path d="M309.332 490.668c-1.11 0-2.25-.184-3.371-.555-5.578-1.855-8.606-7.894-6.738-13.496l35.37-106.12c5.79-17.43 22.067-29.165 40.47-29.165h30.269v-32c0-5.898 4.77-10.664 10.668-10.664s10.668 4.766 10.668 10.664V352A10.66 10.66 0 0 1 416 362.668h-40.938c-9.195 0-17.335 5.855-20.226 14.57l-35.379 106.133a10.685 10.685 0 0 1-10.125 7.297zm0 0"/><path d="M415.988 320c-2.226 0-4.468-.691-6.386-2.133-4.715-3.531-5.676-10.219-2.137-14.922l32-42.668c3.531-4.715 10.219-5.664 14.926-2.132 4.714 3.53 5.671 10.218 2.132 14.921l-32 42.668c-2.082 2.793-5.28 4.266-8.535 4.266zm0 0M53.332 160C23.926 160 0 136.074 0 106.668c0-29.41 23.926-53.336 53.332-53.336 29.41 0 53.336 23.926 53.336 53.336 0 29.406-23.926 53.332-53.336 53.332zm0-85.332c-17.64 0-32 14.355-32 32 0 17.64 14.36 32 32 32 17.645 0 32-14.36 32-32 0-17.645-14.355-32-32-32zm0 0M160 490.668c-4.137 0-8.074-2.422-9.8-6.465L120.968 416H53.332C23.926 416 0 392.074 0 362.668V224c0-23.531 19.137-42.668 42.668-42.668h10.664c18.766 0 31.512 13.664 40.504 25.57 8.18 10.805 30.824 38.75 39.23 49.098h48.266c17.645 0 32 14.355 32 32v21.332c0 5.898-4.777 10.668-10.664 10.668-5.89 0-10.668-4.77-10.668-10.668V288c0-5.887-4.79-10.668-10.668-10.668H128c-3.21 0-6.238-1.437-8.266-3.926-1.324-1.62-32.609-40.02-42.902-53.64-9.195-12.149-16-17.098-23.5-17.098H42.668c-11.766 0-21.336 9.566-21.336 21.332v138.668c0 17.64 14.36 32 32 32H128a10.65 10.65 0 0 1 9.8 6.46l32 74.669c2.329 5.41-.19 11.68-5.597 14.004a10.458 10.458 0 0 1-4.203.867zm0 0"/><path d="M202.668 490.668a10.685 10.685 0 0 1-10.125-7.297l-35.371-106.125a21.303 21.303 0 0 0-20.234-14.578H96c-5.887 0-10.668-4.77-10.668-10.668v-42.668c0-5.898 4.781-10.664 10.668-10.664s10.668 4.766 10.668 10.664v32h30.27a42.607 42.607 0 0 1 40.48 29.164l35.371 106.121c1.867 5.59-1.152 11.64-6.742 13.496a10.83 10.83 0 0 1-3.379.555zm0 0"/><path d="M96.012 320a10.671 10.671 0 0 1-8.547-4.266l-32-42.668c-3.54-4.703-2.578-11.39 2.137-14.921 4.734-3.532 11.41-2.582 14.933 2.132l32 42.668c3.54 4.703 2.578 11.39-2.137 14.922A10.605 10.605 0 0 1 96.012 320zm0 0M341.332 277.332a10.653 10.653 0 0 1-10.664-10.664V192c0-23.531-19.137-42.668-42.668-42.668h-64c-23.531 0-42.668 19.137-42.668 42.668v32c0 5.887-4.777 10.668-10.664 10.668-5.89 0-10.668-4.781-10.668-10.668v-32c0-35.297 28.703-64 64-64h64c35.297 0 64 28.703 64 64v74.668c0 5.898-4.77 10.664-10.668 10.664zm0 0M256 106.668c-29.406 0-53.332-23.926-53.332-53.336C202.668 23.926 226.594 0 256 0s53.332 23.926 53.332 53.332c0 29.41-23.926 53.336-53.332 53.336zm0-85.336c-17.645 0-32 14.36-32 32 0 17.645 14.355 32 32 32s32-14.355 32-32c0-17.64-14.355-32-32-32zm0 0"/><path d="M245.332 170.668h21.336V192h-21.336zm0 0"/></svg>