<svg xmlns="http://www.w3.org/2000/svg" viewBox="0 -11 512 512"><path d="M501.332 448a10.656 10.656 0 0 1-10.664-10.668v-160h-21.336v160A10.656 10.656 0 0 1 458.668 448H416a10.66 10.66 0 0 1-10.668-10.668V224H384v213.332A10.66 10.66 0 0 1 373.332 448h-42.664A10.66 10.66 0 0 1 320 437.332v-42.664h-21.332v42.664A10.66 10.66 0 0 1 288 448h-42.668c-5.887 0-10.664-4.77-10.664-10.668v-96h-21.336v96c0 5.898-4.777 10.668-10.664 10.668-5.89 0-10.668-4.77-10.668-10.668V330.668c0-5.898 4.777-10.668 10.668-10.668h42.664c5.89 0 10.668 4.77 10.668 10.668v96h21.332V384A10.66 10.66 0 0 1 288 373.332h42.668c5.898 0 10.664 4.77 10.664 10.668v42.668h21.336V213.332c0-5.887 4.766-10.664 10.664-10.664H416c5.898 0 10.668 4.777 10.668 10.664v213.336H448v-160A10.66 10.66 0 0 1 458.668 256h42.664A10.66 10.66 0 0 1 512 266.668v170.664A10.66 10.66 0 0 1 501.332 448zm0 0M85.332 341.332c-23.531 0-42.664-19.133-42.664-42.664v-21.336c0-23.531 19.133-42.664 42.664-42.664S128 253.801 128 277.332v21.336c0 23.531-19.137 42.664-42.668 42.664zm0-85.332C73.566 256 64 265.566 64 277.332v21.336C64 310.434 73.566 320 85.332 320s21.336-9.566 21.336-21.332v-21.336c0-11.766-9.57-21.332-21.336-21.332zm0 0M160 448c-5.887 0-10.668-4.77-10.668-10.668V416c0-8.543-3.328-16.574-9.375-22.625-6.035-6.047-14.07-9.375-22.625-9.375h-64c-8.543 0-16.574 3.34-22.621 9.375-6.05 6.05-9.379 14.082-9.379 22.625v10.668h96c5.89 0 10.668 4.766 10.668 10.664S123.223 448 117.332 448H10.668C4.778 448 0 443.23 0 437.332V416c0-14.238 5.547-27.625 15.617-37.707 10.078-10.07 23.477-15.625 37.715-15.625h64c14.254 0 27.648 5.555 37.719 15.625 10.07 10.082 15.617 23.469 15.617 37.707v21.332c0 5.898-4.781 10.668-10.668 10.668zm0 0M85.332 149.332c-17.64 0-32-14.355-32-32 0-17.64 14.36-32 32-32 17.645 0 32 14.36 32 32 0 17.645-14.355 32-32 32zm0-42.664c-5.875 0-10.664 4.789-10.664 10.664 0 5.879 4.789 10.668 10.664 10.668C91.211 128 96 123.21 96 117.332c0-5.875-4.79-10.664-10.668-10.664zm0 0M224 288c-17.645 0-32-14.355-32-32s14.355-32 32-32 32 14.355 32 32-14.355 32-32 32zm0-42.668c-5.879 0-10.668 4.79-10.668 10.668 0 5.887 4.79 10.668 10.668 10.668s10.668-4.781 10.668-10.668c0-5.879-4.79-10.668-10.668-10.668zm0 0M394.668 117.332c-17.645 0-32-14.355-32-32 0-17.64 14.355-32 32-32 17.64 0 32 14.36 32 32 0 17.645-14.36 32-32 32zm0-42.664c-5.89 0-10.668 4.789-10.668 10.664C384 91.211 388.777 96 394.668 96c5.887 0 10.664-4.79 10.664-10.668 0-5.875-4.777-10.664-10.664-10.664zm0 0M309.332 202.668c-17.64 0-32-14.36-32-32 0-17.645 14.36-32 32-32 17.645 0 32 14.355 32 32 0 17.64-14.355 32-32 32zm0-42.668c-5.887 0-10.664 4.79-10.664 10.668 0 5.875 4.777 10.664 10.664 10.664 5.89 0 10.668-4.789 10.668-10.664 0-5.879-4.777-10.668-10.668-10.668zm0 0M480 202.668c-17.645 0-32-14.36-32-32 0-17.645 14.355-32 32-32s32 14.355 32 32c0 17.64-14.355 32-32 32zM480 160c-5.887 0-10.668 4.79-10.668 10.668 0 5.875 4.781 10.664 10.668 10.664s10.668-4.789 10.668-10.664c0-5.879-4.781-10.668-10.668-10.668zm0 0"/><path d="M397.785 103.543l15.082-15.086 64 63.996-15.086 15.086zm0 0M99.125 146.21l15.082-15.085 106.664 106.664-15.082 15.086zm0 0M312.453 152.46l63.996-63.995 15.086 15.082-64 64zm0 0M227.117 237.793l64-63.996 15.082 15.086-63.996 63.996zm0 0M0 469.332h512v21.336H0zm0 0M426.668 0H448v21.332h-21.332zm0 0M384 0h21.332v21.332H384zm0 0M341.332 0h21.336v21.332h-21.336zm0 0M42.668 0H224v21.332H42.668zm0 0M42.668 42.668h74.664V64H42.668zm0 0M0 0h21.332v21.332H0zm0 0M0 42.668h21.332V64H0zm0 0"/></svg>