<svg xmlns="http://www.w3.org/2000/svg" viewBox="0 0 60 60"><path d="M56 0H4a4 4 0 0 0-4 4v52a4 4 0 0 0 4 4h52a4 4 0 0 0 4-4V4a4 4 0 0 0-4-4zM4 2h52a2 2 0 0 1 2 2v4H2V4a2 2 0 0 1 2-2zm52 56H4a2 2 0 0 1-2-2V10h56v46a2 2 0 0 1-2 2z"/><path d="M18.8 32.995a2.7 2.7 0 0 0 1.9-.78l.527-.529a2.728 2.728 0 0 0 0-3.792l-.006-.006L16.361 23l4.867-4.894a2.729 2.729 0 0 0-.006-3.8l-.527-.53a2.7 2.7 0 0 0-3.793.006l-7.01 7.051a3.075 3.075 0 0 0 0 4.328l7.016 7.057a2.686 2.686 0 0 0 1.892.777zm-7.49-10.749l7-7.045a.7.7 0 0 1 .49-.2.68.68 0 0 1 .479.194l.515.518a.715.715 0 0 1 .006.989L14.242 22.3a1 1 0 0 0 0 1.41L19.8 29.3a.714.714 0 0 1 0 .986l-.515.518a.7.7 0 0 1-.969.006l-7.01-7.051a1.071 1.071 0 0 1 .004-1.513zM43.092 13.779a2.7 2.7 0 0 0-3.793.006l-.527.529a2.73 2.73 0 0 0 .006 3.8L43.639 23l-4.861 4.888-.006.006a2.729 2.729 0 0 0 .006 3.8l.527.53a2.7 2.7 0 0 0 3.793-.006l7.01-7.051a3.075 3.075 0 0 0 0-4.328zm5.6 9.975l-7 7.045a.7.7 0 0 1-.969.006l-.515-.518a.715.715 0 0 1 0-.992l5.558-5.59a1 1 0 0 0 0-1.41L40.2 16.708a.715.715 0 0 1-.006-.989l.515-.518a.7.7 0 0 1 .969-.006l7.01 7.051a1.071 1.071 0 0 1 .002 1.508zM26.921 33.67l1.352.279a2.418 2.418 0 0 0 2.855-1.849l3.628-16.937a2.419 2.419 0 0 0-1.867-2.837l-1.353-.279a2.419 2.419 0 0 0-2.855 1.853l-3.629 16.935a2.42 2.42 0 0 0 1.869 2.835zm3.715-19.356a.419.419 0 0 1 .5-.3l1.352.279a.4.4 0 0 1 .317.459l-3.629 16.94a.409.409 0 0 1-.494.3l-1.353-.279a.4.4 0 0 1-.317-.459zM5 6h1a1 1 0 0 0 0-2H5a1 1 0 0 0 0 2zM10 6h1a1 1 0 0 0 0-2h-1a1 1 0 0 0 0 2zM15 6h1a1 1 0 0 0 0-2h-1a1 1 0 0 0 0 2zM49 6h6a1 1 0 0 0 0-2h-6a1 1 0 0 0 0 2zM13 37h-2a1 1 0 0 0 0 2h2a1 1 0 0 0 0-2zM13 42h-2a1 1 0 0 0 0 2h2a1 1 0 0 0 0-2zM29 43a1 1 0 0 0-1-1H17a1 1 0 0 0 0 2h11a1 1 0 0 0 1-1zM34 52H17a1 1 0 0 0 0 2h17a1 1 0 0 0 0-2zM13 47h-2a1 1 0 0 0 0 2h2a1 1 0 0 0 0-2zM13 52h-2a1 1 0 0 0 0 2h2a1 1 0 0 0 0-2zM46 37H17a1 1 0 0 0 0 2h29a1 1 0 0 0 0-2zM43 44a1 1 0 0 0 0-2H32a1 1 0 0 0 0 2zM17 47a1 1 0 0 0 0 2h5a1 1 0 0 0 0-2zM46 47H26a1 1 0 0 0 0 2h20a1 1 0 0 0 0-2z"/></svg>