<svg xmlns="http://www.w3.org/2000/svg" viewBox="0 0 60 60"><path d="M46.983 41.329a26.036 26.036 0 1 0-5.654 5.654l12.138 12.138a3 3 0 0 0 4.242 0l1.412-1.411a3 3 0 0 0 0-4.243zM2 26a24 24 0 1 1 24 24A24.028 24.028 0 0 1 2 26zm43.73 16.9l1.977 1.976-2.827 2.831-1.98-1.977a26 26 0 0 0 2.83-2.83zm11.977 13.4l-1.413 1.412a1.022 1.022 0 0 1-1.413 0l-8.587-8.586 2.827-2.827 8.586 8.587a1 1 0 0 1 0 1.414z"/><path d="M29 22a3.947 3.947 0 0 0-2.019.567l-2.548-2.548A3.947 3.947 0 0 0 25 18a4 4 0 1 0-7.319 2.229l-2.868 3.225A3.961 3.961 0 0 0 13 23a4.005 4.005 0 1 0 3.319 1.771l2.868-3.225a3.863 3.863 0 0 0 3.832-.113l2.548 2.548A3.947 3.947 0 0 0 25 26a4 4 0 0 0 8 0 3.947 3.947 0 0 0-.567-2.019l2.548-2.548A3.947 3.947 0 0 0 37 22a4 4 0 1 0-4-4 3.947 3.947 0 0 0 .567 2.019l-2.548 2.548A3.947 3.947 0 0 0 29 22zm-16 7a2 2 0 1 1 2-2 2 2 0 0 1-2 2zm6-11a2 2 0 1 1 2 2 2 2 0 0 1-2-2zm10 10a2 2 0 1 1 2-2 2 2 0 0 1-2 2zm8-12a2 2 0 1 1-2 2 2 2 0 0 1 2-2z"/><path d="M31.237 4.627a1 1 0 1 0-.474 1.943A19.985 19.985 0 0 1 40 40.259V35a2 2 0 0 0-2-2h-2a2 2 0 0 0-2 2v9.319a20.027 20.027 0 0 1-2 .759V35a2 2 0 0 0-2-2h-2a2 2 0 0 0-2 2v11c-.675 0-1.342-.036-2-.1V35a2 2 0 0 0-2-2h-2a2 2 0 0 0-2 2v9.319a20.024 20.024 0 0 1-2-1.025V35a2 2 0 0 0-2-2h-2a2 2 0 0 0-2 2v2.949A19.962 19.962 0 0 1 26 6a1 1 0 0 0 0-2 21.975 21.975 0 1 0 5.237.627zM20 35h2v10.6a19.88 19.88 0 0 1-2-.519zm-6 0v6.962a20.066 20.066 0 0 1-2-1.7V35zm22 0h2v6.962a20.075 20.075 0 0 1-2 1.332zm-8 0h2v10.6q-.984.2-2 .3z"/></svg>