<svg xmlns="http://www.w3.org/2000/svg" viewBox="0 0 60 60"><path d="M56 0H4a4 4 0 0 0-4 4v52a4 4 0 0 0 4 4h52a4 4 0 0 0 4-4V4a4 4 0 0 0-4-4zM4 2h52a2 2 0 0 1 2 2v4H2V4a2 2 0 0 1 2-2zm52 56H4a2 2 0 0 1-2-2V10h56v46a2 2 0 0 1-2 2z"/><path d="M53 39h-4v-3a3 3 0 0 0-3-3H31v-4h4a3 3 0 0 0 3-3v-8a3 3 0 0 0-3-3H25a3 3 0 0 0-3 3v8a3 3 0 0 0 3 3h4v4H14a3 3 0 0 0-3 3v3H7a3 3 0 0 0-3 3v8a3 3 0 0 0 3 3h10a3 3 0 0 0 3-3v-8a3 3 0 0 0-3-3h-4v-3a1 1 0 0 1 1-1h15v4h-4a3 3 0 0 0-3 3v8a3 3 0 0 0 3 3h10a3 3 0 0 0 3-3v-8a3 3 0 0 0-3-3h-4v-4h15a1 1 0 0 1 1 1v3h-4a3 3 0 0 0-3 3v8a3 3 0 0 0 3 3h10a3 3 0 0 0 3-3v-8a3 3 0 0 0-3-3zM24 26v-8a1 1 0 0 1 1-1h10a1 1 0 0 1 1 1v8a1 1 0 0 1-1 1H25a1 1 0 0 1-1-1zm-6 16v8a1 1 0 0 1-1 1H7a1 1 0 0 1-1-1v-8a1 1 0 0 1 1-1h10a1 1 0 0 1 1 1zm18 0v8a1 1 0 0 1-1 1H25a1 1 0 0 1-1-1v-8a1 1 0 0 1 1-1h10a1 1 0 0 1 1 1zm18 8a1 1 0 0 1-1 1H43a1 1 0 0 1-1-1v-8a1 1 0 0 1 1-1h10a1 1 0 0 1 1 1zM5 6h1a1 1 0 0 0 0-2H5a1 1 0 0 0 0 2zM10 6h1a1 1 0 0 0 0-2h-1a1 1 0 0 0 0 2zM15 6h1a1 1 0 0 0 0-2h-1a1 1 0 0 0 0 2zM49 6h6a1 1 0 0 0 0-2h-6a1 1 0 0 0 0 2z"/></svg>