<svg xmlns="http://www.w3.org/2000/svg" viewBox="0 0 60 60"><path d="M25 29.5a3.5 3.5 0 1 0-3.5 3.5 3.5 3.5 0 0 0 3.5-3.5zM21.5 31a1.5 1.5 0 1 1 1.5-1.5 1.5 1.5 0 0 1-1.5 1.5zM35.5 33a3.5 3.5 0 1 0 3.5 3.5 3.5 3.5 0 0 0-3.5-3.5zm0 5a1.5 1.5 0 1 1 1.5-1.5 1.5 1.5 0 0 1-1.5 1.5zM26 25a3 3 0 1 0-3-3 3 3 0 0 0 3 3zm0-4a1 1 0 1 1-1 1 1 1 0 0 1 1-1zM33 30a3 3 0 1 0-3 3 3 3 0 0 0 3-3zm-3 1a1 1 0 1 1 1-1 1 1 0 0 1-1 1zM26 35a3 3 0 1 0 3 3 3 3 0 0 0-3-3zm0 4a1 1 0 1 1 1-1 1 1 0 0 1-1 1z"/><path d="M58 27h-1.169A27.166 27.166 0 0 0 33 3.169V2a2 2 0 0 0-2-2h-2a2 2 0 0 0-2 2v1.169A27.166 27.166 0 0 0 3.169 27H2a2 2 0 0 0-2 2v2a2 2 0 0 0 2 2h1.169A27.166 27.166 0 0 0 27 56.831V58a2 2 0 0 0 2 2h2a2 2 0 0 0 2-2v-1.169A27.166 27.166 0 0 0 56.831 33H58a2 2 0 0 0 2-2v-2a2 2 0 0 0-2-2zm0 4h-2.08a1 1 0 0 0-1 .924 25.131 25.131 0 0 1-23 23 1 1 0 0 0-.924 1V58H29v-2.08a1 1 0 0 0-.924-1 25.131 25.131 0 0 1-23-23 1 1 0 0 0-1-.924H2V29h2.08a1 1 0 0 0 1-.924 25.131 25.131 0 0 1 23-23 1 1 0 0 0 .924-1V2h2v2.08a1 1 0 0 0 .924 1 25.131 25.131 0 0 1 23 23 1 1 0 0 0 1 .924H58z"/><path d="M51.91 29a1 1 0 0 0 1-1.091A22.991 22.991 0 0 0 32.091 7.094 1 1 0 0 0 31 8.09V10h-2V8.09a1 1 0 0 0-1.091-1A22.991 22.991 0 0 0 7.094 27.909 1 1 0 0 0 8.09 29H10v2H8.09a1 1 0 0 0-1 1.091 22.991 22.991 0 0 0 20.819 20.815 1 1 0 0 0 1.091-1V50h2v1.91a1 1 0 0 0 1 1h.091a22.991 22.991 0 0 0 20.815-20.819 1 1 0 0 0-1-1.091H50v-2zM50 33h.786A20.993 20.993 0 0 1 33 50.786V50a2 2 0 0 0-2-2h-2a2 2 0 0 0-2 2v.786A20.993 20.993 0 0 1 9.214 33H10a2 2 0 0 0 2-2v-2a2 2 0 0 0-2-2h-.786A20.993 20.993 0 0 1 27 9.214V10a2 2 0 0 0 2 2h2a2 2 0 0 0 2-2v-.786A20.993 20.993 0 0 1 50.786 27H50a2 2 0 0 0-2 2v2a2 2 0 0 0 2 2z"/><path d="M45.435 27.811a.993.993 0 0 0-.925-.034A2.325 2.325 0 0 1 43.5 28a2.513 2.513 0 0 1-2.45-2 1 1 0 0 0-1.544-.623A3.54 3.54 0 0 1 37.5 26a3.5 3.5 0 0 1-3.5-3.5 3.643 3.643 0 0 1 .26-1.342 1 1 0 0 0-.6-1.313A2.475 2.475 0 0 1 32 17.5a2.427 2.427 0 0 1 .664-1.681 1 1 0 0 0-.583-1.679A14.8 14.8 0 0 0 30 14a16 16 0 1 0 16 16q0-.722-.063-1.413a1 1 0 0 0-.502-.776zM44 30a14 14 0 1 1-14-14h.256a4.5 4.5 0 0 0 1.871 5.318 5.5 5.5 0 0 0 7.4 6.293A4.521 4.521 0 0 0 43.5 30a4.584 4.584 0 0 0 .5-.027z"/></svg>