<svg xmlns="http://www.w3.org/2000/svg" viewBox="0 0 60 60"><path d="M4 50h12v7a3 3 0 0 0 3 3h6a3 3 0 0 0 2.816-2H30a18.847 18.847 0 0 1 7.167 1.094 12.548 12.548 0 0 0 4.82.906h12.37a3.608 3.608 0 0 0 3.625-3.142 3.523 3.523 0 0 0-.654-2.42 3.471 3.471 0 0 0 1.654-2.58 3.523 3.523 0 0 0-.654-2.42 3.471 3.471 0 0 0 1.654-2.58 3.519 3.519 0 0 0-.886-2.707c-.047-.051-.1-.1-.146-.151.05-.049.1-.1.146-.151a3.52 3.52 0 0 0 .886-2.708A3.608 3.608 0 0 0 56.357 38H54V4a4 4 0 0 0-4-4H4a4 4 0 0 0-4 4v42a4 4 0 0 0 4 4zm22 7a1 1 0 0 1-1 1h-6a1 1 0 0 1-1-1V41a1 1 0 0 1 1-1h6a1 1 0 0 1 1 1zm31.992-15.661A1.5 1.5 0 0 1 56.5 43a1 1 0 0 0 0 2 1.5 1.5 0 0 1 1.495 1.66A1.594 1.594 0 0 1 56.357 48H55.5a1 1 0 0 0 0 2 1.5 1.5 0 0 1 1.495 1.66A1.594 1.594 0 0 1 55.357 53H54.5a1 1 0 0 0 0 2 1.5 1.5 0 0 1 1.495 1.66A1.594 1.594 0 0 1 54.357 58h-12.37a10.564 10.564 0 0 1-4.055-.753A20.786 20.786 0 0 0 30 56h-2V42h1.43a10.792 10.792 0 0 0 8.416-4.016 101.49 101.49 0 0 0 6.554-9.332 1.41 1.41 0 0 1 2.482 1.322c-.316.719-.667 1.552-1.041 2.435-.86 2.035-1.835 4.342-2.735 6.144A1 1 0 0 0 44 40h12.357a1.594 1.594 0 0 1 1.635 1.339zM38 34a1 1 0 0 1-1-1v-4a1 1 0 0 1 1-1h4.441c-1.524 2.374-2.831 4.307-4.066 6zm7.588 4c.714-1.545 1.437-3.257 2.095-4.812.369-.875.717-1.7 1.03-2.412a3.406 3.406 0 0 0-3.965-4.668A2.926 2.926 0 0 0 44 26h-6a3 3 0 0 0-3 3v4a2.994 2.994 0 0 0 2.009 2.818q-.36.465-.721.912A8.8 8.8 0 0 1 29.427 40h-1.611A3 3 0 0 0 25 38h-6a3 3 0 0 0-3 3v7H4a2 2 0 0 1-2-2V10h50v28zM4 2h46a2 2 0 0 1 2 2v4H2V4a2 2 0 0 1 2-2z"/><path d="M46 12H8a3 3 0 0 0-3 3v6a3 3 0 0 0 3 3h38a3 3 0 0 0 3-3v-6a3 3 0 0 0-3-3zm1 3v6a.976.976 0 0 1-.144.486L13.911 14H46a1 1 0 0 1 1 1zM7 21v-6a.976.976 0 0 1 .144-.486L40.089 22H8a1 1 0 0 1-1-1zM16 26h-6a3 3 0 0 0-3 3v4a3 3 0 0 0 3 3h6a3 3 0 0 0 3-3v-4a3 3 0 0 0-3-3zm1 7a1 1 0 0 1-1 1h-6a1 1 0 0 1-1-1v-4a1 1 0 0 1 1-1h6a1 1 0 0 1 1 1zM30 26h-6a3 3 0 0 0-3 3v4a3 3 0 0 0 3 3h6a3 3 0 0 0 3-3v-4a3 3 0 0 0-3-3zm1 7a1 1 0 0 1-1 1h-6a1 1 0 0 1-1-1v-4a1 1 0 0 1 1-1h6a1 1 0 0 1 1 1zM5 6h1a1 1 0 0 0 0-2H5a1 1 0 0 0 0 2zM10 6h1a1 1 0 0 0 0-2h-1a1 1 0 0 0 0 2zM15 6h1a1 1 0 0 0 0-2h-1a1 1 0 0 0 0 2zM43 6h6a1 1 0 0 0 0-2h-6a1 1 0 0 0 0 2zM13 38H9a1 1 0 0 0 0 2h4a1 1 0 0 0 0-2zM13 42H9a1 1 0 0 0 0 2h4a1 1 0 0 0 0-2z"/></svg>