<svg xmlns="http://www.w3.org/2000/svg" viewBox="0 0 60 60"><path d="M50 20a20 20 0 0 0-40 0 19.8 19.8 0 0 0 6.062 14.337A16.854 16.854 0 0 1 20.956 45.2 2.974 2.974 0 0 0 19.78 50 2.987 2.987 0 0 0 22 55h.329a8.384 8.384 0 0 0 15.342 0H38a2.987 2.987 0 0 0 2.22-5 2.974 2.974 0 0 0-1.176-4.8 16.853 16.853 0 0 1 4.893-10.86A19.8 19.8 0 0 0 50 20zm-17 4v17h-2V24zm-5.38-2l2.223-3.912a.178.178 0 0 1 .312 0L32.38 22zM27 24h2v17h-2zm0 19h6v2h-6zm11 4a1 1 0 0 1 0 2H22a1 1 0 0 1 0-2zm-8 11a6.4 6.4 0 0 1-5.434-3h10.868A6.4 6.4 0 0 1 30 58zm8-5H22a1 1 0 0 1 0-2h16a1 1 0 0 1 0 2zm-.947-8H35V23.609a4.088 4.088 0 0 0-.529-1.976l-2.579-4.541a2.178 2.178 0 0 0-3.786 0l-2.579 4.539A3.983 3.983 0 0 0 25 23.609V45h-2.053a18.647 18.647 0 0 0-5.491-12.1A17.82 17.82 0 0 1 12 20a18 18 0 0 1 36 0 17.821 17.821 0 0 1-5.457 12.9 18.646 18.646 0 0 0-5.49 12.1z"/><path d="M30 4a16.019 16.019 0 0 0-16 16 1 1 0 0 0 2 0A14.016 14.016 0 0 1 30 6a1 1 0 1 0 0-2z"/></svg>