<svg xmlns="http://www.w3.org/2000/svg" viewBox="0 0 60 60"><path d="M56 0H4a4 4 0 0 0-4 4v52a4 4 0 0 0 4 4h52a4 4 0 0 0 4-4V4a4 4 0 0 0-4-4zM4 2h52a2 2 0 0 1 2 2v4H2V4a2 2 0 0 1 2-2zm11.875 32H13a4 4 0 0 1-4-4V19a1 1 0 0 1 1-1h5v11a14.912 14.912 0 0 0 .875 5zM17 29V15a1 1 0 0 1 1-1h24a1 1 0 0 1 1 1v14a13 13 0 0 1-26 0zm28 0V18h5a1 1 0 0 1 1 1v11a4 4 0 0 1-4 4h-2.875A14.912 14.912 0 0 0 45 29zM30 44a14.99 14.99 0 0 0 2-.149V48h-4v-4.149A14.99 14.99 0 0 0 30 44zm6 6a1 1 0 0 1 1 1v2H23v-2a1 1 0 0 1 1-1zm5 5a1 1 0 0 1 1 1v2H18v-2a1 1 0 0 1 1-1zm15 3H44v-2a3 3 0 0 0-3-3h-2v-2a3 3 0 0 0-3-3h-2v-4.558A15.052 15.052 0 0 0 43.257 36H47a6.006 6.006 0 0 0 6-6V19a3 3 0 0 0-3-3h-5v-1a3 3 0 0 0-3-3H18a3 3 0 0 0-3 3v1h-5a3 3 0 0 0-3 3v11a6.006 6.006 0 0 0 6 6h3.744A15.05 15.05 0 0 0 26 43.442V48h-2a3 3 0 0 0-3 3v2h-2a3 3 0 0 0-3 3v2H4a2 2 0 0 1-2-2V10h56v46a2 2 0 0 1-2 2z"/><path d="M24.32 29l-.634 3.622a2.007 2.007 0 0 0 .8 1.974 2.053 2.053 0 0 0 2.17.172L30 33.045l3.349 1.724a2.057 2.057 0 0 0 2.17-.172 2.007 2.007 0 0 0 .8-1.974L35.68 29l2.692-2.57a2 2 0 0 0 .53-2.074 2.027 2.027 0 0 0-1.662-1.393l-3.74-.53-1.669-3.31a2.059 2.059 0 0 0-3.668 0l-1.663 3.31-3.739.531a2.028 2.028 0 0 0-1.661 1.393 2 2 0 0 0 .531 2.074zm2.98-4.661a1 1 0 0 0 .752-.54L30 20c.037 0 .043.014.048.023l1.9 3.776a1 1 0 0 0 .752.54l4.287.644-3.079 2.94a1 1 0 0 0-.3.9l.648 4.172-3.807-1.96a1 1 0 0 0-.916 0l-3.887 1.938.727-4.15a1 1 0 0 0-.294-.9l-3.047-2.979zM5 6h1a1 1 0 0 0 0-2H5a1 1 0 0 0 0 2zM10 6h1a1 1 0 0 0 0-2h-1a1 1 0 0 0 0 2zM15 6h1a1 1 0 0 0 0-2h-1a1 1 0 0 0 0 2zM49 6h6a1 1 0 0 0 0-2h-6a1 1 0 0 0 0 2z"/></svg>