<svg xmlns="http://www.w3.org/2000/svg" viewBox="0 0 60 60"><path d="M58 27h-1.169A27.166 27.166 0 0 0 33 3.169V2a2 2 0 0 0-2-2h-2a2 2 0 0 0-2 2v1.169A27.166 27.166 0 0 0 3.169 27H2a2 2 0 0 0-2 2v2a2 2 0 0 0 2 2h1.169A27.166 27.166 0 0 0 27 56.831V58a2 2 0 0 0 2 2h2a2 2 0 0 0 2-2v-1.169A27.166 27.166 0 0 0 56.831 33H58a2 2 0 0 0 2-2v-2a2 2 0 0 0-2-2zm0 4h-2.08a1 1 0 0 0-1 .924 25.131 25.131 0 0 1-23 23 1 1 0 0 0-.924 1V58H29v-2.08a1 1 0 0 0-.924-1 25.131 25.131 0 0 1-23-23 1 1 0 0 0-1-.924H2V29h2.08a1 1 0 0 0 1-.924 25.13 25.13 0 0 1 23-23 1 1 0 0 0 .924-1V2h2v2.08a1 1 0 0 0 .924 1 25.13 25.13 0 0 1 23 23 1 1 0 0 0 1 .924H58z"/><path d="M51.91 29a1 1 0 0 0 1-1.091A22.992 22.992 0 0 0 32.091 7.094a1.024 1.024 0 0 0-.765.258A1 1 0 0 0 31 8.09V10h-2V8.09a1 1 0 0 0-.326-.738 1.018 1.018 0 0 0-.765-.258A22.992 22.992 0 0 0 7.094 27.909 1 1 0 0 0 8.09 29H10v2H8.09a1 1 0 0 0-1 1.091 22.991 22.991 0 0 0 20.819 20.815 1 1 0 0 0 1.091-1V50h2v1.91a1 1 0 0 0 1 1h.091a22.991 22.991 0 0 0 20.815-20.819 1 1 0 0 0-1-1.091H50v-2zM50 33h.786A20.993 20.993 0 0 1 33 50.786V50a2 2 0 0 0-2-2h-2a2 2 0 0 0-2 2v.786A20.993 20.993 0 0 1 9.214 33H10a2 2 0 0 0 2-2v-2a2 2 0 0 0-2-2h-.786A21 21 0 0 1 27 9.213V10a2 2 0 0 0 2 2h2a2 2 0 0 0 2-2v-.787A21 21 0 0 1 50.786 27H50a2 2 0 0 0-2 2v2a2 2 0 0 0 2 2z"/><path d="M30 14a16 16 0 1 0 16 16 16.019 16.019 0 0 0-16-16zm-7.844 27.589a8.1 8.1 0 0 1 3.049-2.5 6.966 6.966 0 0 0 9.59 0 8.1 8.1 0 0 1 3.049 2.5 13.965 13.965 0 0 1-15.688 0zM22 26.21a7.211 7.211 0 0 1 .123-1.3 2.415 2.415 0 0 1 2.337-1.84.939.939 0 0 0 .932-.637c0-.015.7-1.433 4.608-1.433a7.284 7.284 0 0 1 4.03.865 1.89 1.89 0 0 1 .56.519 1 1 0 0 0 .95.688 2.357 2.357 0 0 1 2.337 1.839A7.211 7.211 0 0 1 38 26.21c0 .333-.012.653-.029.965a2.9 2.9 0 0 0-2.018.013 2.453 2.453 0 0 0-3.424-1.75 6 6 0 0 1-5.058 0 2.453 2.453 0 0 0-3.424 1.75 2.9 2.9 0 0 0-2.018-.013A17.628 17.628 0 0 1 22 26.21zM22 30a1 1 0 0 1 2 0 1 1 0 0 0 2 0v-2.332a.458.458 0 0 1 .648-.407 8 8 0 0 0 6.7 0 .456.456 0 0 1 .648.408V30a1 1 0 0 0 2 0 1 1 0 0 1 2 0v1a2 2 0 0 1-2 2 1 1 0 0 0-1 1 5 5 0 0 1-10 0 1 1 0 0 0-1-1 2 2 0 0 1-2-2zm17.405 10.34a10.032 10.032 0 0 0-3.348-2.847 6.916 6.916 0 0 0 .887-2.605A4.008 4.008 0 0 0 40 31v-1a2.949 2.949 0 0 0-.188-1.01A22.037 22.037 0 0 0 40 26.21a9.2 9.2 0 0 0-.159-1.675 4.352 4.352 0 0 0-3.712-3.427 3.966 3.966 0 0 0-1-.912A9.312 9.312 0 0 0 30 19c-3.906 0-5.5 1.287-6.127 2.109a4.356 4.356 0 0 0-3.717 3.442A9.155 9.155 0 0 0 20 26.21a22.024 22.024 0 0 0 .188 2.78A2.949 2.949 0 0 0 20 30v1a4.008 4.008 0 0 0 3.056 3.888 6.916 6.916 0 0 0 .887 2.605A10.032 10.032 0 0 0 20.6 40.34a14 14 0 1 1 18.81 0z"/></svg>