<svg xmlns="http://www.w3.org/2000/svg" viewBox="0 0 60 60"><path d="M60 11.731a3.019 3.019 0 0 0-.893-2.154L56.8 7.266a3 3 0 0 0 .318-1.323A3.082 3.082 0 0 0 55.589 3.3a3.036 3.036 0 0 0-2.841-.081L50.423.893a3.119 3.119 0 0 0-4.309 0L43.69 3.317A30.029 30.029 0 1 0 56.683 16.31l2.424-2.424A3.023 3.023 0 0 0 60 11.731zm-5.421-6.706a1.06 1.06 0 0 1 .221 1.654L31.789 29.693a1.073 1.073 0 0 1-1.482 0 1.048 1.048 0 0 1 0-1.482L53.239 5.278a1.144 1.144 0 0 1 1.34-.253zM28.893 31.106a3.046 3.046 0 0 0 4.31 0l1.752-1.752A5.1 5.1 0 0 1 35 30a5 5 0 1 1-5-5 5.113 5.113 0 0 1 .645.045L28.893 26.8a3.049 3.049 0 0 0 0 4.306zm3.407-7.718a7 7 0 1 0 4.31 4.31l3.741-3.741A11.847 11.847 0 0 1 42 30a12 12 0 1 1-12-12 11.847 11.847 0 0 1 6.043 1.647zm5.2-5.195A13.836 13.836 0 0 0 30 16a14 14 0 1 0 14 14 13.829 13.829 0 0 0-2.194-7.5l4.305-4.3a20.067 20.067 0 1 1-4.31-4.311zM44.805 5.03l2.723-2.723a1.071 1.071 0 0 1 1.481 0L51.2 4.493l-5.39 5.386L44.552 6.1a1.041 1.041 0 0 1 .253-1.07zM30 58A28 28 0 1 1 42.6 5a3.041 3.041 0 0 0 .057 1.73l1.575 4.725-1 1a22.088 22.088 0 1 0 4.31 4.311l1-1 4.726 1.575a3.072 3.072 0 0 0 .969.158 3.03 3.03 0 0 0 .758-.109A27.985 27.985 0 0 1 30 58zm27.693-45.528L54.97 15.2a1.044 1.044 0 0 1-1.072.253l-3.777-1.259L55.507 8.8l2.186 2.187a1.047 1.047 0 0 1 0 1.481z"/></svg>