<svg xmlns="http://www.w3.org/2000/svg" viewBox="0 0 479 480"><path d="M368.5 368h-16v32h-144v16h144v24c0 13.254-10.746 24-24 24h-176a24.088 24.088 0 0 1-20.8-12l-13.856 8a40.165 40.165 0 0 0 34.656 20h176c22.082-.027 39.973-17.918 40-40zm0 0"/><path d="M232.5 432h16v16h-16zm0 0M280.5 216v-16h-24.406c-3.989-51.05-44.543-91.605-95.594-95.594V80h-16v24.406c-5.39.414-10.738 1.25-16 2.496V64h128V48h-128v-8c0-13.254 10.746-24 24-24h176a23.989 23.989 0 0 1 15.871 6l10.586-12A39.95 39.95 0 0 0 328.5 0h-176c-22.082.027-39.973 17.918-40 40v72c-36.023 15.09-60.574 49.063-63.594 88H24.5v16h24.426c3.773 51.148 44.426 91.828 95.574 95.633V336h16v-24.367c51.148-3.805 91.8-44.485 95.574-95.633zm-136 64v15.633a87.665 87.665 0 0 1-32-9.235V272c0-22.09 17.91-40 40-40s40 17.91 40 40v14.398a87.753 87.753 0 0 1-32 9.258V280zm-16-88c0-13.254 10.746-24 24-24s24 10.746 24 24-10.746 24-24 24-24-10.746-24-24zm82.664 81.602c-.863.796-1.785 1.437-2.664 2.175V272a55.999 55.999 0 0 0-30.23-49.664 39.998 39.998 0 0 0 11.804-44.309 40 40 0 0 0-75.148 0 39.998 39.998 0 0 0 11.804 44.309A55.999 55.999 0 0 0 96.5 272v3.816c-.887-.726-1.809-1.41-2.664-2.175A88.045 88.045 0 0 1 64.926 216H80.5v-16H64.906c3.91-42.234 37.36-75.684 79.594-79.594V136h16v-15.594c42.234 3.91 75.684 37.36 79.594 79.594H224.5v16h15.574a88.045 88.045 0 0 1-28.91 57.64zm0 0"/><path d="M456.5 144a8 8 0 0 0 8-8V40a8 8 0 0 0-8-8h-176a8 8 0 0 0-8 8v96a8 8 0 0 0 8 8zm-168-96h160v80h-160zm0 0"/><path d="M304.5 64h32v16h-32zm0 0M352.5 64h80v16h-80zm0 0M304.5 96h128v16h-128zm0 0M455.086 160a25.362 25.362 0 0 0-16.8 6.398L368.5 227.922V160h-16v80h2.313L309.3 280.16c-29.61 1.695-52.766 26.18-52.801 55.84v14.113a20.8 20.8 0 0 1-11.574 18.727A8 8 0 0 0 248.5 384h56c29.66-.035 54.145-23.191 55.84-52.8l113.808-128.977a25.41 25.41 0 0 0 4.098-27.266A25.41 25.41 0 0 0 455.086 160zM304.5 368h-36.586a36.906 36.906 0 0 0 4.586-17.887V336c.027-20.84 16.027-38.18 36.8-39.871l35.071 35.07C342.684 351.973 325.34 367.977 304.5 368zm157.648-176.36L352.141 316.32l-27.961-27.953 124.68-110.015a9.42 9.42 0 0 1 12.87.418 9.42 9.42 0 0 1 .418 12.87zm0 0M8.5 440h176a8 8 0 0 0 8-8v-64a8 8 0 0 0-8-8h-56v-40h-16v40H8.5a8 8 0 0 0-8 8v64a8 8 0 0 0 8 8zm8-64h160v48h-160zm0 0"/><path d="M32.5 392h40v16h-40zm0 0M88.5 392h72v16h-72zm0 0M8.5 112h80a8 8 0 0 0 8-8V40a8 8 0 0 0-8-8h-80a8 8 0 0 0-8 8v64a8 8 0 0 0 8 8zm8-64h64v48h-64zm0 0"/><path d="M32.5 64h32v16h-32zm0 0"/></svg>