<svg xmlns="http://www.w3.org/2000/svg" viewBox="0 0 480 480"><path d="M375.52 440.48V368h-16v32H120.129l-.137-16.07-16 .14.473 56.41c.027 21.817 17.71 39.497 39.527 39.52h192c21.82-.023 39.504-17.703 39.528-39.52zM335.992 464h-192c-13.008-.023-23.539-10.582-23.527-23.594l-.2-24.406H359.52v24.48c-.016 12.985-10.54 23.508-23.528 23.52zm0 0M287.992 80v16h71.528v16h16V71.52c-.024-21.817-17.707-39.497-39.528-39.52h-48v16h48c12.988.012 23.512 10.535 23.528 23.52V80zm0 0"/><path d="M231.992 432h16v16h-16zm0 0M47.992 32v96c0 17.672 14.328 32 32 32h53.602l45.984 30.656A7.998 7.998 0 0 0 191.992 184v-24h48c17.676 0 32-14.328 32-32V32c0-17.672-14.324-32-32-32h-160c-17.672 0-32 14.328-32 32zm208 0v96c0 8.836-7.164 16-16 16h-56a8 8 0 0 0-8 8v17.055l-35.558-23.711a8.052 8.052 0 0 0-4.442-1.344h-56c-8.836 0-16-7.164-16-16V32c0-8.836 7.164-16 16-16h160c8.836 0 16 7.164 16 16zm0 0"/><path d="M95.992 128h80a8 8 0 0 0 8-8v-11.055l36.426 18.254A8 8 0 0 0 231.992 120V40a8.002 8.002 0 0 0-3.789-6.809 8.01 8.01 0 0 0-7.785-.351l-36.426 18.215V40a8 8 0 0 0-8-8h-80a8 8 0 0 0-8 8v80a8 8 0 0 0 8 8zm8-80h64v16a8.006 8.006 0 0 0 3.793 6.809 8.01 8.01 0 0 0 7.785.351l36.422-18.215v54.11L179.57 88.84a8.01 8.01 0 0 0-7.785.351A8.006 8.006 0 0 0 167.992 96v16h-64zm0 0M367.992 128c-39.765-.05-76.566 21.016-96.656 55.332a111.841 111.841 0 0 0-.941 111.371L249.05 332a7.998 7.998 0 0 0 8.887 11.727l46.542-11.637A110.882 110.882 0 0 0 367.992 352c61.856 0 112-50.145 112-112s-50.144-112-112-112zm0 208a95.087 95.087 0 0 1-57.086-18.96 8.002 8.002 0 0 0-4.8-1.599 7.603 7.603 0 0 0-1.946.239l-31.95 8 14.33-25.078a8.014 8.014 0 0 0-.145-8.204c-22.915-37.18-17.813-85.148 12.402-116.683 30.219-31.531 77.922-38.672 116.05-17.367 38.126 21.304 57.044 65.675 46.024 107.937-11.023 42.262-49.203 71.742-92.879 71.715zm0 0"/><path d="M412.793 216h-12.8v-16c0-17.672-14.325-32-32-32-8.837 0-16 7.164-16 16v20.688L340.68 216h-28.688a8 8 0 0 0-8 8v64a8 8 0 0 0 8 8h100.801c10.605 0 19.2-8.598 19.2-19.2v-41.6c0-10.602-8.595-19.2-19.2-19.2zm-92.8 16h16v48h-16zm96 44.8a3.2 3.2 0 0 1-3.2 3.2h-60.8v-52.687l13.655-13.657a8.001 8.001 0 0 0 2.344-5.656v-24c8.836 0 16 7.164 16 16v16a8 8 0 0 0 0 16h28.801a3.2 3.2 0 0 1 3.2 3.2zm0 0M95.992 368a96.226 96.226 0 0 0 57.031-18.816l36.801 10.511a8 8 0 1 0 9.36-11.27l-17.055-34.027c18.93-38.453 10.078-84.793-21.695-113.562-31.77-28.766-78.762-32.988-115.153-10.344-36.39 22.645-53.363 66.668-41.59 107.88C15.47 339.581 53.133 367.995 95.992 368zm0-176a79.998 79.998 0 0 1 68.836 39.242 79.997 79.997 0 0 1 1.309 79.223 8.003 8.003 0 0 0-.145 7.422l10.715 21.425-23.203-6.625a8 8 0 0 0-7.2 1.481A79.095 79.095 0 0 1 95.993 352c-44.183 0-80-35.816-80-80s35.817-80 80-80zm0 0"/><path d="M45.25 288.8l45.672 37.407a8 8 0 0 0 10.144 0l45.672-37.406a35.746 35.746 0 0 0 13.102-24.387 35.195 35.195 0 0 0-8.192-26.062 38.477 38.477 0 0 0-55.656-3.016 38.703 38.703 0 0 0-28.59-10.399 38.146 38.146 0 0 0-27.066 13.415 35.195 35.195 0 0 0-8.191 26.062 35.736 35.736 0 0 0 13.105 24.387zm7.36-40.183a22.046 22.046 0 0 1 15.687-7.707h1.273a22.306 22.306 0 0 1 15.383 6.067l5.512 5.261a7.997 7.997 0 0 0 11.055 0l5.515-5.261a22.487 22.487 0 0 1 16.528-6.032 22.503 22.503 0 0 1 15.816 7.711 19.388 19.388 0 0 1 4.535 14.305 19.809 19.809 0 0 1-7.32 13.504l-40.602 33.191-40.597-33.258a19.785 19.785 0 0 1-7.32-13.503 19.362 19.362 0 0 1 4.534-14.301zm0 0"/></svg>