<svg xmlns="http://www.w3.org/2000/svg" viewBox="0 -32 480.001 480"><path d="M448 0H32C14.328 0 0 14.328 0 32v272c0 17.672 14.328 32 32 32h157.246l-19.2 64H152v16h176v-16h-18.047l-7.89-26.305-15.329 4.61L293.246 400H186.754l20.91-69.703a8.008 8.008 0 0 0-1.246-7.074A8.007 8.007 0 0 0 200 320H32c-8.836 0-16-7.164-16-16v-16h160v-16H16V32c0-8.836 7.164-16 16-16h416c8.836 0 16 7.164 16 16v240h-40v16h40v16c0 4.555-1.941 8.895-5.336 11.93l10.672 11.918A32.046 32.046 0 0 0 480 304V32c0-17.672-14.328-32-32-32zm0 0"/><path d="M432 240h16v16h-16zm0 0M32 256h136a8 8 0 0 0 8-8v-80a8 8 0 0 0-8-8h-32a8 8 0 0 0-8 8v72h-16v-56a8 8 0 0 0-8-8H72a8 8 0 0 0-8 8v56H32zm112-80h16v64h-16zm-64 16h16v48H80zm0 0M240 144v-24a8 8 0 0 0-8-8h-32a8 8 0 0 0-8 8v56h16v-48h16v16zm0 0M304 120V72a8 8 0 0 0-8-8h-32a8 8 0 0 0-8 8v56h16V80h16v40zm0 0M368 136v-32a8 8 0 0 0-8-8h-32a8 8 0 0 0-8 8v24h16v-16h16v24zm0 0M424 48h-32a8 8 0 0 0-8 8v96h16V64h16v136h16V56a8 8 0 0 0-8-8zm0 0M40 32h16v16H40zm0 0M72 32h16v16H72zm0 0M104 32h16v16h-16zm0 0"/><path d="M401.777 302.465c27.922-49.93 13.891-112.871-32.601-146.207-46.492-33.34-110.61-26.438-148.938 16.031-38.332 42.469-38.652 106.953-.738 149.797 37.91 42.844 101.953 50.375 148.773 17.5l69.102 69.102c9.754 9.753 25.563 9.753 35.313 0 9.75-9.75 9.75-25.56 0-35.313zM208 248c0-53.02 42.98-96 96-96s96 42.98 96 96-42.98 96-96 96c-52.996-.059-95.941-43.004-96-96zm247.031 152a8.927 8.927 0 0 1-6.344-2.625l-68-68a112.951 112.951 0 0 0 12.04-13.336l68.632 68.633A8.968 8.968 0 0 1 455.031 400zm0 0"/><path d="M304 168c-44.184 0-80 35.816-80 80s35.816 80 80 80 80-35.816 80-80c-.047-44.16-35.836-79.95-80-80zm0 144c-35.348 0-64-28.652-64-64 0-35.344 28.652-64 64-64s64 28.656 64 64c-.04 35.332-28.672 63.96-64 64zm0 0"/><path d="M256 248h16c0-17.672 14.328-32 32-32v-16c-26.5.027-47.973 21.504-48 48zm0 0"/></svg>