<svg xmlns="http://www.w3.org/2000/svg" viewBox="0 0 480 480"><path d="M80 32h16v16H80zm0 0M112 32h16v16h-16zm0 0M144 32h16v16h-16zm0 0M80 64h160v16H80zm0 0"/><path d="M416 32h16c0-17.672-14.328-32-32-32H80C62.328 0 48 14.328 48 32v80h16V32c0-8.836 7.164-16 16-16h320c8.836 0 16 7.164 16 16zm0 0M416 224h16v64h-16zm0 0M32 480h368c17.672 0 32-14.328 32-32v-48h-16v48c0 8.836-7.164 16-16 16s-16-7.164-16-16v-24a8 8 0 0 0-8-8H64V288H48v128H8a8 8 0 0 0-8 8v24c0 17.672 14.328 32 32 32zm-16-48h352v16a31.746 31.746 0 0 0 4.297 16H32c-8.836 0-16-7.164-16-16zm0 0"/><path d="M440 304H184a8.061 8.061 0 0 0-4.441 1.344l-48 32a8.003 8.003 0 0 0 0 13.312l48 32A8.061 8.061 0 0 0 184 384h256c22.09 0 40-17.91 40-40s-17.91-40-40-40zm-56 32H192v-16h192zm-192 16h192v16H192zm208-32h16v48h-16zm-224 6.945v34.11L150.398 344zM440 368h-8v-48h8c13.254 0 24 10.746 24 24s-10.746 24-24 24zm0 0M472 48H264a8 8 0 0 0-8 8v144a8 8 0 0 0 8 8h208a8 8 0 0 0 8-8V56a8 8 0 0 0-8-8zm-8 16v97.055l-35.559-23.711a8.009 8.009 0 0 0-8.562-.2l-36 21.598L332 129.055a8.003 8.003 0 0 0-8.207.16L272 161.602V64zm0 128H272v-11.559l56.184-35.12 51.847 29.6a8.005 8.005 0 0 0 8.09-.089l35.656-21.39L464 180.281zm0 0"/><path d="M388 136c15.465 0 28-12.535 28-28s-12.535-28-28-28-28 12.535-28 28 12.535 28 28 28zm0-40c6.629 0 12 5.371 12 12s-5.371 12-12 12-12-5.371-12-12 5.371-12 12-12zm0 0M8 272h224a8 8 0 0 0 8-8V136a8 8 0 0 0-8-8H8a8 8 0 0 0-8 8v128a8 8 0 0 0 8 8zm8-128h208v112H16zm0 0"/><path d="M32 160h32v16H32zm0 0M80 160h128v16H80zm0 0M32 192h104v16H32zm0 0M152 192h56v16h-56zm0 0M32 224h136v16H32zm0 0M256 232h96v16h-96zm0 0M368 232h32v16h-32zm0 0M256 264h72v16h-72zm0 0M344 264h56v16h-56zm0 0M80 96h96v16H80zm0 0M192 96h48v16h-48zm0 0M80 288h72v16H80zm0 0M80 320h32v16H80zm0 0M80 352h32v16H80zm0 0M80 384h64v16H80zm0 0"/></svg>