<svg xmlns="http://www.w3.org/2000/svg" viewBox="0 0 480 480"><path d="M280 320h-80c-13.254 0-24-10.746-24-24s10.746-24 24-24h64v-16h-64c-22.09 0-40 17.91-40 40s17.91 40 40 40h80c20.152.008 37.16-14.973 39.7-34.965 2.534-19.988-10.196-38.746-29.708-43.77l-4 15.489c11.719 3.004 19.371 14.262 17.848 26.266-1.52 12.003-11.742 20.996-23.84 20.98zm0 0"/><path d="M232 288h16v16h-16zm0 0M264 288h16v16h-16zm0 0M200 288h16v16h-16zm0 0M96 192h189.754l-13.516 54.055a8.002 8.002 0 0 0 3.82 8.902 7.995 7.995 0 0 0 9.598-1.3L347.312 192H384c53.02 0 96-42.98 96-96S437.02 0 384 0H96C42.98 0 0 42.98 0 96s42.98 96 96 96zm0-176h288c44.184 0 80 35.816 80 80s-35.816 80-80 80h-40a8.001 8.001 0 0 0-5.656 2.344l-43.574 43.578 8.992-36A7.998 7.998 0 0 0 296 176H96c-44.184 0-80-35.816-80-80s35.816-80 80-80zm0 0"/><path d="M240 160c35.348 0 64-28.652 64-64s-28.652-64-64-64-64 28.652-64 64c.04 35.328 28.672 63.96 64 64zm0-112c26.508 0 48 21.492 48 48s-21.492 48-48 48-48-21.492-48-48c.027-26.5 21.5-47.973 48-48zm0 0M96 160c35.348 0 64-28.652 64-64s-28.652-64-64-64-64 28.652-64 64c.04 35.328 28.672 63.96 64 64zm0-112c26.508 0 48 21.492 48 48s-21.492 48-48 48-48-21.492-48-48c.027-26.5 21.5-47.973 48-48zm0 0M384 160c35.348 0 64-28.652 64-64s-28.652-64-64-64-64 28.652-64 64c.04 35.328 28.672 63.96 64 64zm0-112c26.508 0 48 21.492 48 48s-21.492 48-48 48-48-21.492-48-48c.027-26.5 21.5-47.973 48-48zm0 0"/><path d="M208 80h16v16h-16zm0 0M256 80h16v16h-16zm0 0M224 112h32v16h-32zm0 0M64 80h16v16H64zm0 0M112 80h16v16h-16zm0 0M85.656 124.29c5.785-5.54 14.903-5.54 20.688 0l11.312-11.313c-12.117-11.575-31.195-11.575-43.312 0zm0 0M352 80h16v16h-16zm0 0M400 80h16v16h-16zm0 0M384 126.617a30.512 30.512 0 0 0 21.656-8.96l-11.312-11.313c-5.719 5.703-14.969 5.703-20.688 0l-11.312 11.312A30.512 30.512 0 0 0 384 126.617zm0 0M392 392c4.418 0 8-3.582 8-8a8 8 0 0 1 16 0 8 8 0 0 0 16 0 8 8 0 0 1 9.398-7.887 8.677 8.677 0 0 1 6.602 8.742V480h16v-95.145c.152-11.94-8.273-22.273-20-24.527a24.1 24.1 0 0 0-19.512 5.383l-.488.41c-9.102-8.172-22.898-8.172-32 0a21.545 21.545 0 0 0-2.488-1.922A31.84 31.84 0 0 0 392 352V240c0-17.672-14.328-32-32-32h-24v89.504A23.458 23.458 0 0 0 320 320v48H144v-36.559l1.121-.707c14.234-9.007 18.727-27.707 10.137-42.199A30.648 30.648 0 0 0 144 277.703V224h120v-16H120c-17.672 0-32 14.328-32 32v11.39l-37.68 21.825A55.676 55.676 0 0 0 24 320.703V480h16v-40h64v40h16v-48a8 8 0 0 0-8-8h-8v-4.8a52.916 52.916 0 0 0 13.063-35.407c.976.086 1.945.246 2.937.246h200v33.871l-21.23-12.742a22.032 22.032 0 0 0-21.282-.8l-1.258.624a22.122 22.122 0 0 0-12.164 18.063 22.126 22.126 0 0 0 9.2 19.738L320 476.121V480h16v-8a8.001 8.001 0 0 0-3.352-6.512l-50.09-35.77a6.172 6.172 0 0 1-2.558-4.991 6.094 6.094 0 0 1 3.39-5.48l1.25-.622a6.041 6.041 0 0 1 5.887.223l33.352 20a8.006 8.006 0 0 0 8.055.109A7.997 7.997 0 0 0 336 432V320a8 8 0 0 1 9.398-7.887 8.677 8.677 0 0 1 6.602 8.742V384a8 8 0 0 0 16 0 8 8 0 0 1 16 0 8 8 0 0 0 8 8zM120 224h8v49.602a30.707 30.707 0 0 0-16.488 5.101L104 283.72V240c0-8.836 7.164-16 16-16zM90.344 357.656c14.539 14.555 14.539 38.133 0 52.688A8.001 8.001 0 0 0 88 416v8H40V320.703a39.687 39.687 0 0 1 18.566-33.781L88 269.879v24.52l-28.441 18.96 8.882 13.313 51.95-34.64a14.997 14.997 0 0 1 11.59-2.145 14.99 14.99 0 0 1 9.554 6.898c4.156 7.004 1.985 16.047-4.902 20.399l-44.871 28.03a8.001 8.001 0 0 0-3.711 5.88 8.013 8.013 0 0 0 2.293 6.562zm24.328 9.442l-.168.476a53.008 53.008 0 0 0-6.527-13.597L128 341.434V368h-8a16.07 16.07 0 0 1-5.328-.902zM368 361.368v-40.513a24.986 24.986 0 0 0-16-23.472V224h8c8.836 0 16 7.164 16 16v112c0 2.89-.785 5.727-2.273 8.207-1.95.137-3.875.523-5.727 1.16zm0 0"/><path d="M72 464h16v16H72zm0 0"/></svg>