<svg xmlns="http://www.w3.org/2000/svg" viewBox="0 0 480 480.099"><path d="M352.055 240.098h-64v16h64c17.672 0 32-14.325 32-32v-48c0-17.672-14.328-32-32-32h-224c-17.676 0-32 14.328-32 32v48c0 17.675 14.324 32 32 32h64v-16h-64c-8.836 0-16-7.16-16-16v-48c0-8.836 7.164-16 16-16h224c8.836 0 16 7.164 16 16v48c0 8.84-7.164 16-16 16zm0 0"/><path d="M384.055 288.098a31.916 31.916 0 0 0-24 10.859 31.959 31.959 0 0 0-48.41.469 30.181 30.181 0 0 0-23.59-11.328 31.785 31.785 0 0 0-16 4.297v-68.297c0-17.672-14.328-32-32-32-17.676 0-32 14.328-32 32v164.691l-43.723-43.723a30.398 30.398 0 0 0-21.644-8.968 31.038 31.038 0 0 0-28.051 18.652 31.037 31.037 0 0 0 5.465 33.238l82.054 89.52a7.988 7.988 0 0 0 5.899 2.59h200c4.418 0 8-3.578 8-8v-152c0-17.672-14.328-32-32-32zm16 176h-188.48l-79.68-86.918a15 15 0 0 1-3.84-10.457 14.631 14.631 0 0 1 24.977-10.344l57.366 57.375a7.993 7.993 0 0 0 8.715 1.734 7.995 7.995 0 0 0 4.942-7.39v-184c0-8.836 7.164-16 16-16s16 7.164 16 16v96c0 4.422 3.582 8 8 8s8-3.578 8-8c0-8.836 7.164-16 16-16a14.186 14.186 0 0 1 13.472 9.714l2.934 8.801a8.002 8.002 0 0 0 15.594-2.515c0-8.836 7.164-16 16-16s16 7.164 16 16c0 4.422 3.582 8 8 8s8-3.578 8-8c0-8.836 7.164-16 16-16s16 7.164 16 16zm0 0M272.055 108.629l36.117-21.672a8.003 8.003 0 0 0 3.883-6.86V46.63c11.02-3.899 17.629-15.168 15.652-26.688C325.73 8.421 315.742 0 304.055 0c-11.692 0-21.68 8.422-23.657 19.941-1.976 11.52 4.637 22.79 15.657 26.688V75.57l-36.121 21.672a8.006 8.006 0 0 0-3.88 6.856v24h16zm32-92.531a8 8 0 1 1-.001 16 8 8 0 0 1 0-16zm0 0M224.055 128.098v-24a8.001 8.001 0 0 0-3.883-6.856L184.055 75.57V46.63c11.02-3.899 17.629-15.168 15.652-26.688C197.73 8.421 187.742 0 176.055 0c-11.692 0-21.68 8.422-23.657 19.941-1.976 11.52 4.637 22.79 15.657 26.688v33.469a8.008 8.008 0 0 0 3.879 6.859l36.12 21.672v19.469zm-48-112a8 8 0 1 1-.001 16 8 8 0 0 1 0-16zm0 0M392.055.098C380.379.078 370.39 8.48 368.41 19.984c-1.976 11.508 4.633 22.766 15.645 26.645v28.277l-67.25 29.883a7.992 7.992 0 0 0-4.75 7.309v16h16v-10.805L395.3 87.41a7.997 7.997 0 0 0 4.754-7.312v-33.47c11.011-3.878 17.62-15.136 15.64-26.644C413.72 8.48 403.73.078 392.055.098zm0 32a8 8 0 1 1 0-16 8 8 0 0 1 0 16zm0 0M112.055 24.098c.05-12.215-9.086-22.524-21.223-23.938-12.137-1.414-23.394 6.516-26.156 18.418-2.762 11.899 3.86 23.977 15.379 28.05v33.47a7.993 7.993 0 0 0 4.422 7.16l59.578 29.785v11.055h16v-16a8.001 8.001 0 0 0-4.426-7.16L96.055 75.156V46.63a24.004 24.004 0 0 0 16-22.531zm-24-8a8 8 0 1 1-.001 16 8 8 0 0 1 0-16zm0 0M24.055 160.098a23.76 23.76 0 0 0 3.718-.375l21.88 29.175a8 8 0 0 0 6.402 3.2h24v-16h-20l-18.121-24.149c7.421-8.476 7.921-20.98 1.199-30.02-6.723-9.038-18.844-12.156-29.094-7.484C3.785 119.117-1.809 130.316.605 141.316c2.415 11.004 12.184 18.832 23.45 18.782zm0-32a8 8 0 1 1-.001 16 8 8 0 0 1 0-16zm0 0M48.055 264.098a23.76 23.76 0 0 0-3.2-11.743l15.2-20.257h20v-16h-24a8.003 8.003 0 0 0-6.403 3.203l-16.87 22.504a23.614 23.614 0 0 0-8.727-1.707c-13.254 0-24 10.746-24 24 0 13.257 10.746 24 24 24s24-10.743 24-24zm-32 0a8 8 0 1 1 16 0 8 8 0 0 1-16 0zm0 0"/><path d="M72.055 377.57v-36.527l75.574-37.742a8.007 8.007 0 0 0 4.426-7.203v-24h-16v19.058l-75.578 37.781a7.998 7.998 0 0 0-4.422 7.16v41.473c-11.02 3.899-17.633 15.168-15.657 26.688 1.977 11.52 11.965 19.941 23.657 19.941 11.687 0 21.675-8.422 23.652-19.941 1.977-11.52-4.633-22.79-15.652-26.688zm-8 30.528a8 8 0 1 1 0-16 8 8 0 0 1 0 16zm0 0M456.055 112.098a23.91 23.91 0 0 0-21.97 14.261 23.899 23.899 0 0 0 4.29 25.836l-10.602 15.903h-27.718v16h32a7.989 7.989 0 0 0 6.656-3.559l13.863-20.8c1.149.206 2.313.327 3.48.359 13.255 0 24-10.743 24-24 0-13.254-10.745-24-24-24zm0 32a8 8 0 1 1 0-16 8 8 0 0 1 0 16zm0 0M456.055 232.098a23.628 23.628 0 0 0-10.282 2.402l-24.062-24.066a8.017 8.017 0 0 0-5.656-2.336h-16v16h12.687l21.711 21.722a23.553 23.553 0 0 0-2.398 10.278c0 13.257 10.746 24 24 24s24-10.743 24-24c0-13.254-10.746-24-24-24zm0 32a8 8 0 1 1 0-16 8 8 0 0 1 0 16zm0 0M256.055 80.098v-24a7.99 7.99 0 0 0-3.563-6.653L232.055 35.82V.098h-16v40a8.003 8.003 0 0 0 3.558 6.656l20.442 13.625v19.719zm0 0M24.055 88.098a7.993 7.993 0 0 0 4.422 7.16l59.578 29.785v11.055h16v-16a8.001 8.001 0 0 0-4.426-7.16L40.055 83.156V64.098h-16zm0 0M120.055 40.098h16v32h-16zm0 0M24.055 32.098h16v16h-16zm0 0M424.055 91.156l-43.578 21.781a7.998 7.998 0 0 0-4.422 7.16v24h16v-19.054l43.574-21.742a8.007 8.007 0 0 0 4.426-7.203v-24h-16zm0 0M424.055 40.098h16v16h-16zm0 0M336.055 40.098h16v16h-16zm0 0M24.055 312.098v24h16v-19.055l59.574-29.742a8.007 8.007 0 0 0 4.426-7.203v-16h-16v11.058l-59.578 29.742a8.01 8.01 0 0 0-4.422 7.2zm0 0M24.055 344.098h16v16h-16zm0 0M168.055 272.098h16v32h-16zm0 0M376.055 256.098h16v16h-16zm0 0"/></svg>