<svg xmlns="http://www.w3.org/2000/svg" viewBox="0 0 512 512"><path d="M197.952 416H216v-16H48a16.019 16.019 0 0 1-16-16v-16h176v-16H32V112a16.019 16.019 0 0 1 16-16h16v240h16V48a16.019 16.019 0 0 1 16-16h208v40a40.045 40.045 0 0 0 40 40h40v96h16V104a8 8 0 0 0-2.343-5.657L395.314 96H416a16.019 16.019 0 0 1 16 16v120h16V112a32.036 32.036 0 0 0-32-32h-36.686l-61.657-61.657A8 8 0 0 0 312 16H96a32.036 32.036 0 0 0-32 32v32H48a32.036 32.036 0 0 0-32 32v272a32.036 32.036 0 0 0 32 32h133.247l-19.2 64H152v16h112v-16h-85.248zM320 72V43.313L372.687 96H344a24.028 24.028 0 0 1-24-24z"/><path d="M96 48h16v16H96zM128 48h16v16h-16zM160 48h16v16h-16zM96 216h48v16H96zM96 256h136v16H96zM96 296h88v16H96zM240 176h32v16h-32zM368 136H240v16h128zM200 296h24v16h-24zM168 216h144v16H168zM288 176h80v16h-80zM98.343 165.657l24 24 11.314-11.314L115.313 160l18.344-18.343-11.314-11.314-24 24a8 8 0 0 0 0 11.314zM197.657 189.657l24-24a8 8 0 0 0 0-11.314l-24-24-11.314 11.314L204.687 160l-18.344 18.343zM144.276 190.148l16.03-63.99 15.52 3.887-16.031 63.991zM96 80h192v16H96zM360 336a24 24 0 1 0 24 24 24.028 24.028 0 0 0-24-24zm0 32a8 8 0 1 1 8-8 8.009 8.009 0 0 1-8 8z"/><path d="M488 328h-29.142a103.209 103.209 0 0 0-6.322-15.28l20.6-20.6a8 8 0 0 0 0-11.314L439.2 246.862a8 8 0 0 0-11.314 0l-20.6 20.6a103.209 103.209 0 0 0-15.286-6.32V232a8 8 0 0 0-8-8h-48a8 8 0 0 0-8 8v29.142a103.209 103.209 0 0 0-15.28 6.322l-20.6-20.6a8 8 0 0 0-11.314 0L246.862 280.8a8 8 0 0 0 0 11.314l20.6 20.6a103.209 103.209 0 0 0-6.32 15.286H232a8 8 0 0 0-8 8v48a8 8 0 0 0 8 8h29.142a103.209 103.209 0 0 0 6.322 15.28l-20.6 20.6a8 8 0 0 0 0 11.314l33.936 33.944a8 8 0 0 0 11.314 0l20.6-20.6a103.3 103.3 0 0 0 15.286 6.32V488a8 8 0 0 0 8 8h48a8 8 0 0 0 8-8v-29.142a103.3 103.3 0 0 0 15.28-6.323l20.6 20.6a8 8 0 0 0 11.314 0l33.944-33.935a8 8 0 0 0 0-11.314l-20.6-20.6a103.209 103.209 0 0 0 6.32-15.286H488a8 8 0 0 0 8-8v-48a8 8 0 0 0-8-8zm-8 48h-27.146a8 8 0 0 0-7.747 6 87.369 87.369 0 0 1-9.363 22.622 8 8 0 0 0 1.232 9.725l19.191 19.19-22.628 22.628-19.19-19.191a8 8 0 0 0-9.725-1.233A87.4 87.4 0 0 1 382 445.107a8 8 0 0 0-6 7.747V480h-32v-27.146a8 8 0 0 0-6-7.747 87.4 87.4 0 0 1-22.622-9.364 8 8 0 0 0-9.725 1.233l-19.19 19.191-22.628-22.628 19.191-19.19a8 8 0 0 0 1.232-9.725A87.369 87.369 0 0 1 274.893 382a8 8 0 0 0-7.747-6H240v-32h27.146a8 8 0 0 0 7.747-6 87.369 87.369 0 0 1 9.363-22.622 8 8 0 0 0-1.232-9.725l-19.191-19.19 22.628-22.628 19.19 19.191a8 8 0 0 0 9.725 1.232A87.369 87.369 0 0 1 338 274.893a8 8 0 0 0 6-7.747V240h32v27.146a8 8 0 0 0 6 7.747 87.369 87.369 0 0 1 22.622 9.363 8 8 0 0 0 9.725-1.232l19.19-19.191 22.628 22.628-19.191 19.19a8 8 0 0 0-1.232 9.725A87.369 87.369 0 0 1 445.107 338a8 8 0 0 0 7.747 6H480z"/><path d="M360 296a64 64 0 1 0 64 64 64.072 64.072 0 0 0-64-64zm0 112a48 48 0 1 1 48-48 48.053 48.053 0 0 1-48 48z"/></svg>