<svg xmlns="http://www.w3.org/2000/svg" viewBox="0 0 512.02 512.02"><path d="M112.01 44c-2.63 0-5.21 1.069-7.07 2.93s-2.93 4.439-2.93 7.07c0 2.63 1.069 5.21 2.93 7.069 1.86 1.86 4.44 2.931 7.07 2.931s5.21-1.07 7.069-2.931A10.073 10.073 0 0 0 122.01 54c0-2.631-1.07-5.21-2.931-7.07A10.067 10.067 0 0 0 112.01 44zM64.01 44c-2.63 0-5.21 1.069-7.07 2.93s-2.93 4.439-2.93 7.07c0 2.63 1.069 5.21 2.93 7.069C58.8 62.93 61.38 64 64.01 64s5.21-1.07 7.069-2.931A10.073 10.073 0 0 0 74.01 54c0-2.631-1.07-5.21-2.931-7.07A10.067 10.067 0 0 0 64.01 44zM160.01 44c-2.63 0-5.21 1.069-7.07 2.93s-2.93 4.439-2.93 7.07c0 2.63 1.069 5.21 2.93 7.069 1.86 1.86 4.44 2.931 7.07 2.931s5.21-1.07 7.069-2.931A10.073 10.073 0 0 0 170.01 54c0-2.631-1.07-5.21-2.931-7.07A10.067 10.067 0 0 0 160.01 44zM245.592 360.02h-83.665c-5.522 0-10 4.478-10 10s4.478 10 10 10h83.665c5.522 0 10-4.478 10-10s-4.478-10-10-10zM297.71 360.02c-2.641 0-5.21 1.07-7.07 2.93s-2.93 4.44-2.93 7.07 1.069 5.21 2.93 7.07a10.078 10.078 0 0 0 7.07 2.93c2.63 0 5.199-1.07 7.069-2.93 1.86-1.86 2.931-4.44 2.931-7.07s-1.07-5.21-2.931-7.07a10.072 10.072 0 0 0-7.069-2.93zM350.09 360.02c-2.63 0-5.21 1.07-7.07 2.93s-2.93 4.44-2.93 7.07 1.069 5.21 2.93 7.07c1.87 1.859 4.44 2.93 7.07 2.93s5.21-1.07 7.069-2.93c1.86-1.86 2.931-4.44 2.931-7.07s-1.07-5.21-2.931-7.07a10.056 10.056 0 0 0-7.069-2.93zM245.592 184.02h-83.665c-5.522 0-10 4.478-10 10s4.478 10 10 10h83.665c5.522 0 10-4.478 10-10s-4.478-10-10-10zM297.71 184.02c-2.631 0-5.21 1.07-7.07 2.93s-2.93 4.44-2.93 7.07 1.069 5.21 2.93 7.07a10.078 10.078 0 0 0 7.07 2.93c2.63 0 5.21-1.07 7.069-2.93 1.86-1.86 2.931-4.44 2.931-7.07s-1.07-5.21-2.931-7.07a10.072 10.072 0 0 0-7.069-2.93zM350.09 184.02c-2.63 0-5.21 1.07-7.07 2.93s-2.93 4.44-2.93 7.07 1.069 5.21 2.93 7.07c1.86 1.859 4.44 2.93 7.07 2.93s5.21-1.07 7.069-2.93c1.86-1.86 2.931-4.44 2.931-7.07s-1.07-5.21-2.931-7.07a10.056 10.056 0 0 0-7.069-2.93zM245.592 272.02h-83.665c-5.522 0-10 4.478-10 10s4.478 10 10 10h83.665c5.522 0 10-4.478 10-10s-4.478-10-10-10zM297.71 272.02c-2.641 0-5.21 1.07-7.07 2.93s-2.93 4.44-2.93 7.07 1.069 5.21 2.93 7.07a10.078 10.078 0 0 0 7.07 2.93c2.63 0 5.199-1.07 7.069-2.93 1.86-1.86 2.931-4.44 2.931-7.07s-1.07-5.21-2.931-7.07a10.072 10.072 0 0 0-7.069-2.93zM350.09 272.02c-2.63 0-5.21 1.07-7.07 2.93s-2.93 4.44-2.93 7.07 1.069 5.21 2.93 7.07c1.86 1.859 4.44 2.93 7.07 2.93s5.21-1.07 7.069-2.93c1.86-1.86 2.931-4.44 2.931-7.07s-1.07-5.21-2.931-7.07a10.056 10.056 0 0 0-7.069-2.93z"/><path d="M470.01 0h-428c-23.159 0-42 18.841-42 42v299.95c0 23.159 18.841 42 42 42h64v10.069c0 16.542 13.458 30 30 30h110v21.503c-10.719 3.305-19.192 11.778-22.497 22.497H116.01c-5.522 0-10 4.478-10 10s4.478 10 10 10h107.503c4.28 13.883 17.228 24 32.497 24s28.217-10.117 32.497-24H396.01c5.522 0 10-4.478 10-10s-4.478-10-10-10H288.507c-3.305-10.719-11.778-19.192-22.497-22.497V424.02h110c16.542 0 30-13.458 30-30v-10.07h64c23.159 0 42-18.841 42-42V42c0-23.159-18.841-42-42-42zm-214 492.02c-7.72 0-14-6.28-14-14s6.28-14 14-14 14 6.28 14 14-6.281 14-14 14zm-130-274v-48c0-5.514 4.486-10 10-10h240c5.514 0 10 4.486 10 10v48c0 5.514-4.486 10-10 10h-240c-5.514 0-10-4.487-10-10zm0 88v-48c0-5.514 4.486-10 10-10h240c5.514 0 10 4.486 10 10v48c0 5.514-4.486 10-10 10h-240c-5.514 0-10-4.487-10-10zm250 98h-240c-5.514 0-10-4.486-10-10v-48c0-5.514 4.486-10 10-10h240c5.514 0 10 4.486 10 10v48c0 5.513-4.487 10-10 10zm94-40.07h-64v-17.93c0-7.678-2.902-14.688-7.664-20 4.761-5.312 7.664-12.322 7.664-20v-48c0-7.678-2.902-14.688-7.664-20 4.761-5.312 7.664-12.322 7.664-20v-48c0-16.542-13.458-30-30-30h-240c-16.542 0-30 13.458-30 30v48c0 7.678 2.902 14.688 7.664 20-4.761 5.312-7.664 12.322-7.664 20v48c0 7.678 2.902 14.688 7.664 20-4.761 5.312-7.664 12.322-7.664 20v17.931h-64c-12.131 0-22-9.869-22-22V108h191.001c5.522 0 10-4.478 10-10s-4.478-10-10-10H20.01V42c0-12.131 9.869-22 22-22h428c12.131 0 22 9.869 22 22v46H301.011c-5.522 0-10 4.478-10 10s4.478 10 10 10H492.01v233.95c0 12.131-9.869 22-22 22z"/><path d="M256.01 88c-2.63 0-5.21 1.069-7.07 2.93s-2.93 4.439-2.93 7.07c0 2.63 1.069 5.21 2.93 7.069 1.86 1.86 4.44 2.931 7.07 2.931s5.21-1.07 7.069-2.931A10.073 10.073 0 0 0 266.01 98c0-2.631-1.07-5.21-2.931-7.07A10.067 10.067 0 0 0 256.01 88z"/></svg>