<svg xmlns="http://www.w3.org/2000/svg" viewBox="0 0 512 512"><path d="M446 296c-13.036 0-24.151 8.361-28.28 20H396v-50h20c38.599 0 70-31.402 70-70 0-33.411-23.43-61.423-54.887-68.346-2.909-37.423-34.291-66.987-72.446-66.987-10.949 0-21.63 2.438-31.373 7.113C308.63 41.79 278.311 26 246 26c-32.507 0-63.13 16.067-81.752 42.415A69.69 69.69 0 0 0 146 66c-36.167 0-66.016 27.571-69.632 62.798C46.745 137.366 26 164.443 26 196c0 38.598 31.402 70 70 70h30v50h-21.72c-4.128-11.639-15.244-20-28.28-20-16.542 0-30 13.458-30 30s13.458 30 30 30c13.036 0 24.152-8.361 28.28-20H136c5.523 0 10-4.478 10-10v-60h40v130h-31.72c-4.128-11.639-15.244-20-28.28-20-16.542 0-30 13.458-30 30s13.458 30 30 30c13.036 0 24.152-8.361 28.28-20H196c5.523 0 10-4.478 10-10V266h40v161.72c-11.639 4.129-20 15.244-20 28.28 0 16.542 13.458 30 30 30s30-13.458 30-30c0-13.036-8.361-24.151-20-28.28V266h40v140c0 5.522 4.477 10 10 10h51.72c4.129 11.639 15.244 20 28.28 20 16.542 0 30-13.458 30-30s-13.458-30-30-30c-13.036 0-24.151 8.361-28.28 20H326V266h50v60c0 5.522 4.477 10 10 10h31.72c4.129 11.639 15.244 20 28.28 20 16.542 0 30-13.458 30-30s-13.458-30-30-30zM76 336c-5.514 0-10-4.486-10-10s4.486-10 10-10 10 4.486 10 10-4.486 10-10 10zm50 80c-5.514 0-10-4.486-10-10s4.486-10 10-10 10 4.486 10 10-4.486 10-10 10zm130 50c-5.514 0-10-4.486-10-10s4.486-10 10-10 10 4.486 10 10-4.486 10-10 10zm140-70c5.514 0 10 4.486 10 10s-4.486 10-10 10-10-4.486-10-10 4.486-10 10-10zM46 196c0-24.52 17.526-45.251 41.673-49.295a10 10 0 0 0 8.347-10.002C95.666 108.511 118.432 86 146 86a49.723 49.723 0 0 1 18.686 3.623 10 10 0 0 0 12.355-4.194C191.385 61.108 217.809 46 246 46c28.513 0 55.086 15.372 69.352 40.117 2.89 5.012 9.408 6.521 14.201 3.332 8.639-5.745 18.706-8.782 29.114-8.782 29.682 0 53.986 24.788 52.603 55.121a9.999 9.999 0 0 0 9.123 10.418C445.968 148.428 466 170.301 466 196c0 27.57-22.43 50-50 50H96c-27.57 0-50-22.43-50-50zm400 140c-5.514 0-10-4.486-10-10s4.486-10 10-10 10 4.486 10 10-4.486 10-10 10z"/><path d="M406.505 175.645c12.864 3.522 23.819 11.673 30.849 22.95 2.916 4.68 9.081 6.123 13.775 3.197 4.688-2.921 6.119-9.089 3.197-13.776-9.698-15.561-24.807-26.806-42.54-31.661-5.327-1.461-10.827 1.677-12.286 7.004-1.458 5.327 1.678 10.827 7.005 12.286z"/></svg>