<svg xmlns="http://www.w3.org/2000/svg" viewBox="0 0 512 512"><path d="M476.055 64.806H307.146c8.542-20.514.734-44.744-19.013-56.146-21.452-12.387-48.984-5.011-61.37 16.444l-22.921 39.701H45.32C20.331 64.806 0 85.136 0 110.126v282.423c0 24.989 20.331 45.32 45.32 45.32h140.435c1.713 15.305.649 33.613-2.955 51.495h-56.338c-5.522 0-10 4.478-10 10s4.478 10 10 10h259.082c5.522 0 10-4.478 10-10s-4.478-10-10-10h-56.892c-3.926-18.05-5.192-36.366-3.519-51.495h141.546c24.99 0 45.321-20.331 45.321-45.32V100.757c0-19.823-16.125-35.951-35.945-35.951zM141.406 227.59l30.493 17.605-30.493 17.605zm46.833 3.945l-43.173-24.926 81.936-141.917 43.173 24.926zM278.134 25.98c11.902 6.872 15.995 22.146 9.124 34.05l-7.083 12.268-43.173-24.926 7.083-12.267c6.872-11.904 22.145-15.994 34.049-9.125zM45.32 84.806h146.975l-69.549 120.463a10 10 0 0 0-1.34 5v69.852c0 5.522 4.478 10 10 10h249.188c5.522 0 10-4.478 10-10s-4.478-10-10-10H168.727l28.173-16.266a9.999 9.999 0 0 0 3.66-3.66l95.488-165.389h180.007c8.792 0 15.945 7.155 15.945 15.951v246.855H20V110.126c0-13.962 11.358-25.32 25.32-25.32zm262.918 404.558H203.155c3.226-17.77 4.197-35.841 2.713-51.495h99.156c-1.435 15.526-.288 33.596 3.214 51.495zm158.441-71.495H45.32c-13.962 0-25.32-11.358-25.32-25.32v-24.937h472v24.937c0 13.962-11.359 25.32-25.321 25.32zm-76.085-198.257c0 5.522-4.478 10-10 10H276.998c-5.522 0-10-4.478-10-10s4.478-10 10-10h103.596c5.522 0 10 4.478 10 10z"/></svg>