<svg xmlns="http://www.w3.org/2000/svg" viewBox="0 0 64 64"><g data-name="16-Tools"><path d="M12 30h2v2h-2z"/><path d="M43 64H17a5.006 5.006 0 0 1-5-5V34h2v25a3 3 0 0 0 3 3h26a3 3 0 0 0 3-3V24H14v4h-2v-5a1 1 0 0 1 1-1h34a1 1 0 0 1 1 1v36a5.006 5.006 0 0 1-5 5z"/><path d="M51 55h-4v-2h4a5.006 5.006 0 0 0 5-5V33a5.006 5.006 0 0 0-5-5h-4v-2h4a7.008 7.008 0 0 1 7 7v15a7.009 7.009 0 0 1-7 7z"/><path d="M51 51h-4v-2h4a1 1 0 0 0 1-1v-2h2v2a3 3 0 0 1-3 3zM54 44h-2V33a1 1 0 0 0-1-1h-4v-2h4a3 3 0 0 1 3 3zM46.4 23.172l-1.97-.344L48 2.389 46.119 2 42.47 23.171l-1.97-.344 3.7-21.169a2 2 0 0 1 .835-1.314A1.916 1.916 0 0 1 46.5.035L48.4.4a2.018 2.018 0 0 1 1.57 2.332z"/><path d="M44.484 5.803l.378-1.964 3.8.732-.379 1.964zM43.955 8.79l.378-1.964 3.8.731-.378 1.964zM19.015 23.223L15.83 5l-1.849.361 3.069 17.466-1.971.345L12.03 5.733A2.018 2.018 0 0 1 13.6 3.4l1.9-.365a1.913 1.913 0 0 1 1.463.309 2 2 0 0 1 .837 1.315l3.184 18.219z"/><path d="M13.345 7.574l3.8-.727.375 1.964-3.8.727zM13.866 10.563l3.8-.727.376 1.964-3.8.727zM39.62 23.172l-1.971-.344L40 9.389 38.119 9l-2.426 14.172-1.97-.344L36.2 8.658a2 2 0 0 1 .836-1.314 1.916 1.916 0 0 1 1.464-.309l1.9.365a2.018 2.018 0 0 1 1.57 2.332z"/><path d="M36.482 12.804l.378-1.964 3.8.732-.379 1.964zM35.954 15.79l.378-1.963 3.8.731-.378 1.964zM27 23h-2V2h-2v21h-2V2a2 2 0 0 1 2-2h2a2 2 0 0 1 2 2z"/><path d="M22 4h4v2h-4zM22 7h4v2h-4zM32.6 23.173l-1.971-.345 2.217-12.688-1.836-.353-2.339 13.385-1.971-.344L29.215 8.44a1 1 0 0 1 .418-.651.986.986 0 0 1 .756-.159l3.8.731a1 1 0 0 1 .8 1.155z"/><path d="M33.009 9.477l-.436-3.235-1.487 2.835-1.772-.93 2.946-5.612a1 1 0 0 1 1.877.332l.854 6.343zM42 26h2v2h-2zM42 30h2v8h-2z"/></g></svg>