<svg xmlns="http://www.w3.org/2000/svg" viewBox="0 0 64 64"><g data-name="05-E-learning"><path d="M60 48H4a1 1 0 0 1-1-1V9a3 3 0 0 1 3-3h17v2H6a1 1 0 0 0-1 1v37h54V21h2v26a1 1 0 0 1-1 1z"/><path d="M5 54H1a1 1 0 0 1-.895-1.447l3-6A1 1 0 0 1 4 46h6v2H4.618l-2 4H5zM7 52h2v2H7zM63 54H11v-2h50.382l-2-4H57v-2h3a1 1 0 0 1 .9.553l3 6A1 1 0 0 1 63 54z"/><path d="M59 58H5a5.006 5.006 0 0 1-5-5h2a3 3 0 0 0 3 3h54a3 3 0 0 0 3-3h2a5.006 5.006 0 0 1-5 5z"/><path d="M40 54H24a1 1 0 0 1-.948-1.316l1-3A1 1 0 0 1 25 49h14a1 1 0 0 1 .948.684l1 3A1 1 0 0 1 40 54zm-14.612-2h13.224l-.333-1H25.721zM43 14a1 1 0 0 1-.316-.051l-18-6a1 1 0 0 1 0-1.9l18-6a1 1 0 0 1 .632 0l18 6a1 1 0 0 1 0 1.9l-18 6A1 1 0 0 1 43 14zM28.162 7L43 11.946 57.838 7 43 2.054z"/><path d="M43 20c-9.268 0-11.6-3.093-11.832-3.445A1.006 1.006 0 0 1 31 16V9h2v6.618c.622.574 3.124 2.382 10 2.382 6.851 0 9.374-1.809 10-2.382V9h2v7a1.006 1.006 0 0 1-.168.555C54.6 16.907 52.268 20 43 20zM60 7h2v6h-2z"/><path d="M61.837 20h-1.674a2.22 2.22 0 0 1-1.777-.858 1.873 1.873 0 0 1-.311-1.664.967.967 0 0 1 .036-.1l1.965-4.757a1 1 0 0 1 1.848 0l1.965 4.757a.967.967 0 0 1 .036.1 1.873 1.873 0 0 1-.311 1.664 2.22 2.22 0 0 1-1.777.858zm-1.805-2.013c.029 0 .072.013.131.013h1.674a.317.317 0 0 0 .135-.028L61 15.62l-.979 2.368zM31 20h2v27h-2zM15 35a1 1 0 0 1-1-1V24a1 1 0 0 1 1.53-.848l8 5a1 1 0 0 1 0 1.7l-8 5A1 1 0 0 1 15 35zm1-9.2v6.4l5.113-3.2zM36 34h20v2H36zM36 38h20v2H36zM43 32h-6a1 1 0 0 1-1-1v-6a1 1 0 0 1 1-1h6a1 1 0 0 1 1 1v6a1 1 0 0 1-1 1zm-5-2h4v-4h-4zM46 24h10v2H46zM46 28h10v2H46zM36 42h20v2H36z"/></g></svg>