<svg xmlns="http://www.w3.org/2000/svg" viewBox="0 0 335.2 335.2"><path d="M327.6 61.8H194.4C191.2 47 177.6 35.4 162 35.4c-16 0-29.2 11.2-32.4 26.4H7.2C3.2 61.8 0 65 0 69s3.2 7.2 7.2 7.2h122c3.2 14.8 16.8 26.4 32.4 26.4 16 0 29.2-11.2 32.4-26.4h133.6c4 0 7.2-3.2 7.2-7.2s-3.2-7.2-7.2-7.2zM162 88.6c-10.4 0-19.2-8.4-19.2-19.2s8.4-19.2 19.2-19.2c10.4 0 19.2 8.4 19.2 19.2 0 10.4-8.4 19.2-19.2 19.2zM328 160.6H126c-3.2-14.8-16.8-26.4-32.4-26.4-16 0-29.2 11.2-32.4 26.4h-54c-4 0-7.2 3.2-7.2 7.2s3.2 7.2 7.2 7.2h54c3.2 14.8 16.8 26.4 32.4 26.4 16 0 29.2-11.2 32.4-26.4h202c4 0 7.2-3.2 7.2-7.2s-3.2-7.2-7.2-7.2zM93.6 187c-10.4 0-19.2-8.4-19.2-19.2 0-10.4 8.8-19.2 19.2-19.2 10.4 0 19.2 8.4 19.2 19.2 0 10.4-8.4 19.2-19.2 19.2zM327.6 259h-62.8c-3.2-14.8-16.8-26.4-32.4-26.4-16 0-29.2 11.2-32.4 26.4H7.2c-4 0-7.2 3.2-7.2 7.2s3.2 7.2 7.2 7.2h192.4c3.2 14.8 16.8 26.4 32.4 26.4 16 0 29.2-11.2 32.4-26.4h63.2c4 0 7.2-3.2 7.2-7.2s-3.2-7.2-7.2-7.2zM232 285.8c-10.4 0-19.2-8.4-19.2-19.2 0-10.8 8.8-19.2 19.2-19.2 10.4 0 19.2 8.4 19.2 19.2 0 10.8-8.4 19.2-19.2 19.2z"/></svg>