<svg id="Layer_1" height="512" viewBox="0 0 64 64" width="512" xmlns="http://www.w3.org/2000/svg" data-name="Layer 1"><path d="m34 39.541v-12.77049a3 3 0 0 0 -6 0v5.77049h-1a3.00618 3.00618 0 0 0 -2.8291 2h-1.1709a3.00618 3.00618 0 0 0 -2.8291 2h-.1709a4.004 4.004 0 0 0 -4 4v9.73535a1.9941 1.9941 0 0 0 .33594 1.10937l1.49511 2.24317a1.0019 1.0019 0 0 1 .16895.55568v6.81543h2v-6.81543a2.99434 2.99434 0 0 0 -.50391-1.66406l-1.49609-2.24414v-9.73537a2.0026 2.0026 0 0 1 2-2v3.459h2v-4.459a1.00067 1.00067 0 0 1 1-1h1v4h2v-5a1.00067 1.00067 0 0 1 1-1h1v4h2v-11.77049a1 1 0 0 1 2 0v21.22949h2v-6.459a1.00067 1.00067 0 0 1 1 1v7.459l-2.707 2.707a.99928.99928 0 0 0 -.293.707v7.586h2v-7.17188l2.41406-2.41406a1.98633 1.98633 0 0 0 .58594-1.41406v-7.459a3.00328 3.00328 0 0 0 -3-3z"/><path d="m33.999 22.19824 1.002 1.73145a8 8 0 1 0 -8.002 0l1.002-1.73145a6 6 0 1 1 5.998 0z"/><path d="m44.72754 14.25879a.99977.99977 0 0 0 -.98047-.80469h-.63379a.28616.28616 0 0 1 -.249-.22168 12.36169 12.36169 0 0 0 -.8125-1.95508.28838.28838 0 0 1 .01855-.334l.44922-.44824a1.00013 1.00013 0 0 0 .125-1.26367 14.00134 14.00134 0 0 0 -3.876-3.876.999.999 0 0 0 -1.26367.125l-.44726.44824a.28887.28887 0 0 1 -.334.02051 12.29517 12.29517 0 0 0 -1.957-.81348.28635.28635 0 0 1 -.2207-.249v-.63377a.99977.99977 0 0 0 -.80469-.98047 13.99952 13.99952 0 0 0 -5.48242 0 .99977.99977 0 0 0 -.80469.98047v.63379a.28616.28616 0 0 1 -.22168.249 12.36169 12.36169 0 0 0 -1.95508.8125.28823.28823 0 0 1 -.334-.01855l-.44824-.44922a.99789.99789 0 0 0 -1.26367-.125 14.00134 14.00134 0 0 0 -3.876 3.876 1.00013 1.00013 0 0 0 .125 1.26367l.44824.44726a.28878.28878 0 0 1 .02051.334 12.29517 12.29517 0 0 0 -.81348 1.957.28635.28635 0 0 1 -.249.2207h-.63379a.99977.99977 0 0 0 -.98047.80469 13.92091 13.92091 0 0 0 0 5.48144.99976.99976 0 0 0 .98047.80469h.63379a.286.286 0 0 1 .249.22266 12.36169 12.36169 0 0 0 .8125 1.95508.28838.28838 0 0 1 -.01855.334l-.44922.44824a1.00013 1.00013 0 0 0 -.125 1.26367 14.00134 14.00134 0 0 0 3.876 3.876 1.00025 1.00025 0 0 0 1.26367-.125l.44726-.44824a.29232.29232 0 0 1 .334-.02051 12.40088 12.40088 0 0 0 1.373.61133l.70118-1.873a10.27773 10.27773 0 0 1 -1.15137-.51269 2.28254 2.28254 0 0 0 -2.51074.23633 12.00867 12.00867 0 0 1 -2.20118-2.2002 2.284 2.284 0 0 0 .23536-2.5127 10.33917 10.33917 0 0 1 -.68067-1.63671 2.28142 2.28142 0 0 0 -1.93945-1.60743 11.85936 11.85936 0 0 1 0-3.1123 2.28071 2.28071 0 0 0 1.93949-1.60554 10.2743 10.2743 0 0 1 .68164-1.63867 2.28271 2.28271 0 0 0 -.23633-2.51074 12.00867 12.00867 0 0 1 2.20019-2.20118 2.28239 2.28239 0 0 0 2.5127.23536 10.33917 10.33917 0 0 1 1.63671-.68066 2.28177 2.28177 0 0 0 1.60645-1.93945 11.8668 11.8668 0 0 1 3.11328 0 2.28071 2.28071 0 0 0 1.60547 1.93945 10.2743 10.2743 0 0 1 1.63867.68164 2.28071 2.28071 0 0 0 2.51074-.23633 12.00867 12.00867 0 0 1 2.20118 2.20019 2.284 2.284 0 0 0 -.23536 2.5127 10.33917 10.33917 0 0 1 .68067 1.63671 2.28177 2.28177 0 0 0 1.93945 1.60645 11.85936 11.85936 0 0 1 0 3.1123 2.28179 2.28179 0 0 0 -1.93946 1.60645 10.2743 10.2743 0 0 1 -.68164 1.63867 2.28271 2.28271 0 0 0 .23633 2.51074 12.00867 12.00867 0 0 1 -2.2002 2.20118 2.28351 2.28351 0 0 0 -2.51367-.23438l-.23633.11816q-.44532.21681-.91309.39258l.70118 1.873q.55664-.208 1.08886-.46777l.28321-.14258a.28822.28822 0 0 1 .334.01855l.44824.44922a.999.999 0 0 0 1.26367.125 14.00134 14.00134 0 0 0 3.876-3.876 1.00013 1.00013 0 0 0 -.125-1.26367l-.44824-.44726a.28878.28878 0 0 1 -.02051-.334 12.29517 12.29517 0 0 0 .81348-1.957.28616.28616 0 0 1 .249-.22168h.63379a.99976.99976 0 0 0 .98047-.80469 13.92091 13.92091 0 0 0 0-5.48144z"/><path d="m51.7373 4.32422a1.00034 1.00034 0 0 0 -1.7373.67578v5h-5v2h6a.99943.99943 0 0 0 1-1v-3.42969l8.64355 9.42969-8.64355 9.42969v-3.42969a.99943.99943 0 0 0 -1-1h-6v2h5v5a1.00014 1.00014 0 0 0 1.7373.67578l11-12a.99987.99987 0 0 0 0-1.35156z"/><path d="m1 9h2v2h-2z"/><path d="m5 9h12v2h-12z"/><path d="m1 16h2v2h-2z"/><path d="m5 16h10v2h-10z"/><path d="m1 23h2v2h-2z"/><path d="m5 23h12v2h-12z"/></svg>