<svg id="Layer_1" enable-background="new 0 0 512 512" height="512" viewBox="0 0 512 512" width="512" xmlns="http://www.w3.org/2000/svg"><path d="m16.828 415.703c2.287 8.531 11.057 13.593 19.588 11.306.002-.001.004-.001.006-.002l7.733-2.071 2.071 7.728c1.141 4.266 5.524 6.799 9.789 5.658.002-.001.005-.001.007-.002l7.727-2.07 16.562 61.82c1.141 4.266 5.524 6.799 9.789 5.658.002-.001.005-.001.007-.002l30.914-8.281c4.265-1.138 6.799-5.518 5.661-9.783-.17-.637-.418-1.251-.739-1.827l-15.141-27.273-2.088-32.399 61.029 3.681c3.301 6.761 10.938 10.226 18.2 8.257l23.18-6.211c8.527-2.297 13.587-11.061 11.313-19.594l-33.133-123.641c-2.296-8.528-11.061-13.588-19.594-11.312l-23.18 6.211c-7.329 1.971-12.269 8.815-11.831 16.391l-64.133 42.369c-1.935-2.658-5.306-3.851-8.482-3.002l-30.914 8.281c-4.265 1.14-6.799 5.522-5.659 9.787.001.003.002.007.003.01l2.071 7.726-7.735 2.071c-8.52 2.305-13.574 11.064-11.305 19.594zm76.867 70.5-14.492-54.094 7.727-2.07c2.956-.808 5.184-3.243 5.727-6.259l2.296 35.61c.076 1.182.415 2.332.992 3.367l11.039 19.883zm113.289-71.765.008-.008zm-33.133-123.641 33.125 123.641-23.18 6.211-33.125-123.64zm-35.077 23.623 26.012 97.098-75.762-4.57-13.581-50.689zm-80.274 40.416 16.562 61.82-15.453 4.141-16.57-61.82zm-26.772 23.734 8.286 30.914-7.732 2.071-8.282-30.914z"/><path d="m488 8h-256c-8.832.011-15.989 7.168-16 16v248c.011 8.832 7.168 15.989 16 16h27.688l-27 60.75c-1.795 4.037.023 8.765 4.06 10.56 2.464 1.095 5.313.876 7.58-.583l110.024-70.727h133.648c8.832-.011 15.989-7.168 16-16v-248c-.011-8.832-7.168-15.989-16-16zm0 264h-136c-1.535-.002-3.038.44-4.328 1.273l-89.5 57.531 21.141-47.555c1.795-4.037-.022-8.764-4.058-10.56-1.025-.454-2.134-.689-3.255-.689h-40v-248h256z"/><path d="m360 122.82c-6.299-.004-11.406-5.107-11.414-11.406h-16c.044 12.012 7.919 22.589 19.414 26.076v14.51h16v-14.51c14.447-4.372 22.615-19.629 18.243-34.076-3.498-11.558-14.167-19.451-26.243-19.414-6.302-.002-11.408-5.112-11.406-11.414s5.112-11.408 11.414-11.406c6.299.002 11.404 5.108 11.406 11.406h16c-.044-12.012-7.919-22.59-19.414-26.077v-14.509h-16v14.509c-14.447 4.373-22.615 19.629-18.242 34.077 3.498 11.558 14.166 19.451 26.242 19.414 6.302-.001 11.411 5.106 11.412 11.408s-5.106 11.411-11.408 11.412c-.001 0-.003 0-.004 0z"/><path d="m441.602 228.797c2.645 3.534 7.653 4.254 11.187 1.61.611-.457 1.153-.999 1.61-1.61l24-32c2.651-3.532 1.937-8.544-1.595-11.196-1.386-1.04-3.071-1.602-4.804-1.601h-16v-56h-16v56h-16c-4.416-.002-7.998 3.577-8 7.993-.001 1.732.561 3.418 1.601 4.804zm14.398-28.797-8 10.664-8-10.664z"/><path d="m353.602 260.797c2.645 3.534 7.653 4.254 11.187 1.61.611-.457 1.153-.999 1.61-1.61l24-32c2.651-3.532 1.937-8.544-1.595-11.196-1.386-1.04-3.071-1.602-4.804-1.601h-16v-48h-16v48h-16c-4.416-.002-7.998 3.577-8 7.993-.001 1.732.561 3.418 1.601 4.804zm14.398-28.797-8 10.664-8-10.664z"/><path d="m265.602 228.797c2.645 3.534 7.653 4.254 11.187 1.61.611-.457 1.153-.999 1.61-1.61l24-32c2.651-3.532 1.937-8.544-1.595-11.196-1.386-1.04-3.071-1.602-4.804-1.601h-16v-56h-16v56h-16c-4.416-.002-7.998 3.577-8 7.993-.001 1.732.561 3.418 1.601 4.804zm14.398-28.797-8 10.664-8-10.664z"/><path d="m440 96h16v16h-16z"/><path d="m264 96h16v16h-16z"/></svg>