<svg id="Layer_1" height="512" viewBox="0 0 64 64" width="512" xmlns="http://www.w3.org/2000/svg" data-name="Layer 1"><path d="m9.27539 38.708 8 8a.99963.99963 0 0 0 1.41406 0l10-10a1.00009 1.00009 0 0 0 .28907-.79785l-.667-7.333a1.00074 1.00074 0 0 0 -.90527-.90527l-7.333-.667a.99483.99483 0 0 0 -.79785.28907l-10 10a.99964.99964 0 0 0 -.00001 1.41405zm11.083-9.669 6.03662.54883.54932 6.03711-8.96192 8.96191-6.58593-6.58585z"/><path d="m22.64893 36.21875a2.88428 2.88428 0 1 0 -2.04053-.84375 2.87635 2.87635 0 0 0 2.04053.84375zm-.62647-3.51075a.886.886 0 1 1 0 1.25293.8831.8831 0 0 1 0-1.25293z"/><path d="m9.39355 46.44336a14.99926 14.99926 0 1 0 -4.39355-10.60645 14.90155 14.90155 0 0 0 4.39355 10.60645zm1.41407-19.79883a13 13 0 1 1 -3.80762 9.19238 12.91687 12.91687 0 0 1 3.80762-9.19238z"/><path d="m6.56494 49.27246a18.98679 18.98679 0 0 0 20.96393 3.99274l2.72406 2.72406a.99963.99963 0 0 0 1.41406 0l1.06079-1.06079 7.77857 7.77853a.99963.99963 0 0 0 1.41406 0l4.94971-4.95019a.99964.99964 0 0 0 0-1.41407l-7.77875-7.77789 1.061-1.061a.99964.99964 0 0 0 0-1.41407l-2.7243-2.7243a18.99326 18.99326 0 1 0 -30.8631 5.90692zm38.18406 7.77734-3.53564 3.53614-7.07151-7.07154 3.53546-3.53546zm-6.71775-10.25292-7.07125 7.07128-1.548-1.548a18.465 18.465 0 0 0 7.0711-7.07147zm-18.03125-27.95118a16.99171 16.99171 0 1 1 -12.021 4.97071 16.95 16.95 0 0 1 12.021-4.97071z"/><path d="m61 1h-13a2.00229 2.00229 0 0 0 -2 2v13a2.00229 2.00229 0 0 0 2 2h13a2.00229 2.00229 0 0 0 2-2v-13a2.00229 2.00229 0 0 0 -2-2zm-13 15v-13h13l.00146 13z"/><path d="m61 19h-13a2.00229 2.00229 0 0 0 -2 2v13a2.00229 2.00229 0 0 0 2 2h13a2.00229 2.00229 0 0 0 2-2v-13a2.00229 2.00229 0 0 0 -2-2zm-3 15h-7v-3a2.00229 2.00229 0 0 1 2-2h3a2.00229 2.00229 0 0 1 2 2zm-5-8.5a1.5 1.5 0 1 1 1.5 1.5 1.50164 1.50164 0 0 1 -1.5-1.5zm7 8.5v-3a4.00064 4.00064 0 0 0 -2.51093-3.70587 3.46234 3.46234 0 0 0 .51093-1.79413 3.5 3.5 0 0 0 -7 0 3.46234 3.46234 0 0 0 .51093 1.79413 4.00064 4.00064 0 0 0 -2.51093 3.70587v3h-1v-13h13l.00146 13z"/><path d="m30 1a2.00229 2.00229 0 0 0 -2 2v13a2.00229 2.00229 0 0 0 2 2h13a2.00229 2.00229 0 0 0 2-2v-13a2.00229 2.00229 0 0 0 -2-2zm0 15v-13h13l.00146 13z"/><path d="m52 8h2v7h-2z"/><path d="m49 10h2v5h-2z"/><path d="m55 6h2v9h-2z"/><path d="m58 4h2v11h-2z"/><path d="m41.05518 7.56641-2.38575-.34668-1.06643-2.16211a1.00024 1.00024 0 0 0 -1.79395 0l-1.06686 2.16211-2.38574.34668a.99934.99934 0 0 0 -.5542 1.70507l1.72607 1.68262-.40771 2.37695a.99966.99966 0 0 0 1.45117 1.05372l2.13427-1.1211 2.13379 1.1211a1.00013 1.00013 0 0 0 1.45116-1.05372l-.40772-2.376 1.72608-1.6836a.99934.99934 0 0 0 -.5542-1.70507zm-2.94434 2.32324a1.0004 1.0004 0 0 0 -.28809.88476l.1543.89747-.80566-.42286a.99349.99349 0 0 0 -.93067 0l-.80615.42286.1543-.89747a1.0004 1.0004 0 0 0 -.28809-.88476l-.65137-.63574.90039-.13091a1.00066 1.00066 0 0 0 .75342-.54688l.40283-.8164.40235.8164a1.00066 1.00066 0 0 0 .75342.54688l.90039.13086z"/></svg>