<svg id="Layer_1" height="512" viewBox="0 0 64 64" width="512" xmlns="http://www.w3.org/2000/svg" data-name="Layer 1"><path d="m42.23389 13.38672-4.29462 3.21142-3.04266-2.05542.63708-.53686-1.28906-1.5293-2.48975 2.09815a.65832.65832 0 0 1 -.87842-.98l2.09327-1.99268 3.38476-.46387a1.00663 1.00663 0 0 0 .3999-.146l3.12549-1.98145-1.07129-1.68942-2.9414 1.86523-3.48877.478a.9989.9989 0 0 0 -.55371.26611l-.43311.41224-1.86572-1.00107a.9995.9995 0 0 0 -.80518-.062l-1.84131.64892-1.90722-1.34278-1.15137 1.63476 2.32861 1.64014a.99968.99968 0 0 0 .90821.126l1.91162-.67383.89722.48144-.3689.35108a2.65853 2.65853 0 0 0 3.54644 3.95847l.2633-.22192 4.1707 2.81616a.699.699 0 0 1 .21338.78174l-2.74118 2.86816c-.48926.55469-.66016.60352-.67286.60694a.83063.83063 0 0 1 -.25341-.10547l-.2807-.12775a2.71055 2.71055 0 0 0 -.817-2.77655l-.03857-.03125-4.06442-3.14206a2.45585 2.45585 0 0 0 -2.971-.20184l-4.14911-3.45929-1.28028 1.53613 4.24671 3.54065a3.59243 3.59243 0 0 0 1.06677 3.849l2.84131 2.09522a3.22691 3.22691 0 0 0 2.11132.79052 3.27971 3.27971 0 0 0 .3379-.01757 3.21929 3.21929 0 0 0 1.47345-.55231l.63934.2901a2.40135 2.40135 0 0 0 1.13672.30859 3.00677 3.00677 0 0 0 2.14648-1.25049l2.82959-2.96a.97853.97853 0 0 0 .15918-.21972 2.70329 2.70329 0 0 0 -.00122-2.52607l4.02075-3.00665zm-10.523 9.01562a1.2532 1.2532 0 0 1 -1.88819.166l-2.8413-2.09522a1.56625 1.56625 0 0 1 -.19874-2.09228.5285.5285 0 0 1 .36329-.21338c.01464-.00146.03027-.00244.04687-.00244a.562.562 0 0 1 .36768.15723l4.0791 3.15478a.70314.70314 0 0 1 .07134.92531z"/><path d="m32.17041 1a14 14 0 1 0 14 14 14.01572 14.01572 0 0 0 -14-14zm0 26a12 12 0 1 1 12-12 12.01375 12.01375 0 0 1 -12 12z"/><path d="m53 19a10 10 0 1 0 10 10 10.01114 10.01114 0 0 0 -10-10zm4 16.91754a7.9318 7.9318 0 0 1 -8 0v-2.91754a2.002 2.002 0 0 1 2-2h4a2.002 2.002 0 0 1 2 2zm-6-8.91754a2 2 0 1 1 2 2 2.002 2.002 0 0 1 -2-2zm8 7.27374v-1.27374a3.99319 3.99319 0 0 0 -2.68768-3.7608 4 4 0 1 0 -6.62464 0 3.99319 3.99319 0 0 0 -2.68768 3.7608v1.27374a8 8 0 1 1 12 0z"/><path d="m11 39a10 10 0 1 0 -10-10 10.01114 10.01114 0 0 0 10 10zm0-18a8 8 0 1 1 -8 8 8.00917 8.00917 0 0 1 8-8z"/><path d="m11 32a1.0013 1.0013 0 0 1 -1-1h-2a2.995 2.995 0 0 0 2 2.81567v1.18433h2v-1.18427a2.99257 2.99257 0 0 0 -1-5.81573 1 1 0 1 1 1-1h2a2.99507 2.99507 0 0 0 -2-2.81573v-1.18427h-2v1.18427a2.99257 2.99257 0 0 0 1 5.81573 1 1 0 0 1 0 2z"/><path d="m31 30h2v2h-2z"/><path d="m31 33h2v2h-2z"/><path d="m31 36h2v2h-2z"/><path d="m19.343 36.707h2v2h-2z" transform="matrix(.707 -.707 .707 .707 -20.704 25.429)"/><path d="m21.465 38.828h2v2h-2z" transform="matrix(.707 -.707 .707 .707 -21.583 27.55)"/><path d="m23.586 40.95h2v2h-2z" transform="matrix(.707 -.707 .707 .707 -22.462 29.672)"/><path d="m42.586 36.707h2v2h-2z" transform="matrix(.707 -.707 .707 .707 -13.897 41.864)"/><path d="m40.464 38.828h2v2h-2z" transform="matrix(.707 -.707 .707 .707 -16.018 40.985)"/><path d="m38.343 40.95h2v2h-2z" transform="matrix(.707 -.707 .707 .707 -18.14 40.107)"/><path d="m38 62h6a1 1 0 0 0 1-1v-11a.99993.99993 0 0 0 -.7251-.96143l-6.2749-1.79284v-2.24573a2.002 2.002 0 0 0 -2-2h-.50012l-2.70008-3.6001a1.03527 1.03527 0 0 0 -1.5996 0l-2.70008 3.6001h-.50012a2.002 2.002 0 0 0 -2 2v2.24573l-6.2749 1.79284a.99993.99993 0 0 0 -.7251.96143v11a1 1 0 0 0 1 1h6a1 1 0 0 0 1 1h10a1 1 0 0 0 1-1zm0-12.67432 5 1.42871v9.24561h-5zm-12 10.67432h-5v-9.24561l5-1.42871zm6-18.3335 1.00012 1.3335h-2.00024zm1 19.3335h-2v-2h2zm3 0h-1v-3a1 1 0 0 0 -1-1h-4a1 1 0 0 0 -1 1v3h-1v-16h8z"/><path d="m29.5 46h5v2h-5z"/><path d="m29.5 50h5v2h-5z"/><path d="m29.5 54h5v2h-5z"/><path d="m22 52h3v2h-3z"/><path d="m39 52h3v2h-3z"/><path d="m22 55h3v2h-3z"/><path d="m39 55h3v2h-3z"/></svg>