<svg id="Layer_1" enable-background="new 0 0 512 512" height="512" viewBox="0 0 512 512" width="512" xmlns="http://www.w3.org/2000/svg"><path d="m16 504h136c4.416.003 7.997-3.575 8-7.991 0-.003 0-.006 0-.009v-184c0-2.389-1.069-4.654-2.914-6.172l-68-56c-2.953-2.438-7.219-2.438-10.172 0l-68 56c-1.845 1.518-2.914 3.783-2.914 6.172v184c-.003 4.416 3.575 7.997 7.991 8zm8-188.227 60-49.406 60 49.406v172.227h-120z"/><path d="m84 304c-15.464 0-28 12.536-28 28s12.536 28 28 28 28-12.536 28-28c-.019-15.456-12.544-27.981-28-28zm0 40c-6.627 0-12-5.373-12-12s5.373-12 12-12 12 5.373 12 12c-.007 6.624-5.376 11.993-12 12z"/><path d="m466.75 279.406c-2.941-1.925-5.979-3.698-9.102-5.312v-7.742c0-3.621-2.432-6.79-5.93-7.727-6.748-1.754-13.692-2.633-20.664-2.617-6.343.101-12.65.991-18.773 2.648-3.499.935-5.932 4.105-5.93 7.727l-.078 7.992c-3.141 1.426-6.159 3.109-9.023 5.031l-.797-.125-6.914-3.859c-3.061-1.699-6.871-1.219-9.414 1.188-9.556 9.057-16.426 20.576-19.852 33.289-.948 3.539.629 7.269 3.828 9.055l7.195 4.023c-.156 1.688-.234 3.362-.234 5.023 0 1.664.078 3.338.234 5.023l-7.195 4.023c-3.194 1.786-4.771 5.511-3.828 9.047 3.405 12.721 10.262 24.253 19.812 33.32 2.542 2.408 6.353 2.889 9.414 1.188l6.953-3.883.797-.125c2.94 1.927 5.978 3.7 9.102 5.312v7.742c0 3.621 2.432 6.79 5.93 7.727 6.417 1.731 13.033 2.614 19.68 2.625.328 0 .656-.008.977-.008 6.346-.101 12.655-.99 18.781-2.648 3.499-.935 5.932-4.105 5.93-7.727l.063-7.992c3.147-1.425 6.17-3.108 9.039-5.031l.797.125 6.914 3.859c3.059 1.712 6.876 1.23 9.414-1.188 9.556-9.057 16.426-20.576 19.852-33.289.948-3.539-.629-7.269-3.828-9.055l-7.195-4.023c.156-1.688.234-3.362.234-5.023 0-1.664-.078-3.339-.234-5.023l7.195-4.023c3.194-1.786 4.77-5.511 3.828-9.047-3.409-12.721-10.269-24.253-19.82-33.32-2.546-2.408-6.358-2.888-9.422-1.188l-6.945 3.883c-.119.043-.243.124-.421.147-.129.016-.272-.018-.37-.022zm9.406 40.758c1.042 5.172 1.042 10.5 0 15.672-.641 3.385.954 6.802 3.961 8.484l6.234 3.484c-2.267 5.754-5.481 11.088-9.508 15.781l-1.492-.836c-5.488-3.101-12.246-2.884-17.523.562-2.129 1.429-4.374 2.678-6.711 3.734-5.793 2.673-9.493 8.48-9.469 14.859v1.273c-2.945.504-5.926.776-8.914.812-3.478.069-6.955-.195-10.383-.789v-1.297c.029-6.381-3.673-12.19-9.469-14.859-2.33-1.048-4.567-2.292-6.688-3.719-5.277-3.462-12.046-3.686-17.539-.578l-1.531.859c-4.02-4.701-7.224-10.044-9.477-15.805l6.234-3.484c3.007-1.682 4.602-5.099 3.961-8.484-1.042-5.172-1.042-10.5 0-15.672.641-3.385-.954-6.801-3.961-8.484l-6.234-3.484c2.267-5.754 5.481-11.088 9.508-15.781l1.492.836c5.486 3.105 12.247 2.888 17.523-.562 2.126-1.431 4.368-2.68 6.703-3.734 5.8-2.666 9.506-8.476 9.477-14.86v-1.273c2.943-.504 5.921-.775 8.906-.812 3.481-.067 6.96.197 10.391.789v1.297c-.025 6.38 3.676 12.187 9.469 14.859 2.329 1.052 4.565 2.296 6.688 3.719 5.279 3.463 12.051 3.686 17.547.578l1.523-.852c4.022 4.697 7.225 10.037 9.477 15.797l-6.234 3.484c-3.007 1.684-4.602 5.1-3.961 8.486z"/><path d="m432 296c-17.673 0-32 14.327-32 32s14.327 32 32 32 32-14.327 32-32c-.018-17.666-14.334-31.982-32-32zm0 48c-8.837 0-16-7.163-16-16s7.163-16 16-16 16 7.163 16 16c-.011 8.832-7.168 15.989-16 16z"/><path d="m192 24v288c.011 8.832 7.168 15.989 16 16h144v-16h-144v-288h216v224h16v-224c-.011-8.832-7.168-15.989-16-16h-216c-8.832.011-15.989 7.168-16 16z"/><path d="m272 64c.003-4.416-3.575-7.997-7.991-8-.003 0-.006 0-.009 0h-32c-4.416-.003-7.997 3.575-8 7.991v.009 32c-.003 4.416 3.575 7.997 7.991 8h.009 32c4.416.003 7.997-3.575 8-7.991 0-.003 0-.006 0-.009zm-16 24h-16v-16h16z"/><path d="m272 152c.003-4.416-3.575-7.997-7.991-8-.003 0-.006 0-.009 0h-32c-4.416-.003-7.997 3.575-8 7.991v.009 32c-.003 4.416 3.575 7.997 7.991 8h.009 32c4.416.003 7.997-3.575 8-7.991 0-.003 0-.006 0-.009zm-16 24h-16v-16h16z"/><path d="m264 232h-32c-4.416-.003-7.997 3.575-8 7.991v.009 32c-.003 4.416 3.575 7.997 7.991 8h.009 32c4.416.003 7.997-3.575 8-7.991 0-.003 0-.006 0-.009v-32c.003-4.416-3.575-7.997-7.991-8-.003 0-.006 0-.009 0zm-8 32h-16v-16h16z"/><path d="m288 72h120v16h-120z"/><path d="m288 160h120v16h-120z"/><path d="m288 248h80v16h-80z"/><path d="m76 208h16v16h-16z"/><path d="m76 176h16v16h-16z"/><path d="m76 144h16v16h-16z"/><path d="m108 144h16v16h-16z"/><path d="m140 144h16v16h-16z"/></svg>