<?xml version="1.0" encoding="UTF-8"?>
<svg xmlns="http://www.w3.org/2000/svg" id="Layer_1" data-name="Layer 1" viewBox="0 0 64 64" width="512" height="512"><path d="M2,61H21a.99974.99974,0,0,0,1-1V55h5v7a.99974.99974,0,0,0,1,1H49a.99974.99974,0,0,0,1-1V44a2.00229,2.00229,0,0,0-2-2H36V27a2.00229,2.00229,0,0,0-2-2H14a2.00229,2.00229,0,0,0-2,2v6H3a2.00229,2.00229,0,0,0-2,2V60A.99974.99974,0,0,0,2,61ZM48,44v2H31v2H48V61H29V44ZM14,27H34v2H16v2H34V42H29a2.00229,2.00229,0,0,0-2,2v9H22V35a2.00229,2.00229,0,0,0-2-2H14ZM3,35H20v2H5v2H20V59H3Z"/><path d="M12.29688,43.50391a.99982.99982,0,0,0-1.73633,0l-3.42871,6A1,1,0,0,0,8,51h6.85693a1,1,0,0,0,.86817-1.49609ZM9.72314,49l1.70557-2.98438L13.13379,49Z"/><path d="M35.14307,58H42a1,1,0,0,0,.86816-1.49609l-3.42871-6a1.04012,1.04012,0,0,0-1.73633,0l-3.42822,6A1,1,0,0,0,35.14307,58Zm3.42822-4.98438L40.27686,56H36.86621Z"/><path d="M57.44238,14.65527l-.61279-6.74121a1.00079,1.00079,0,0,0-.90576-.90527l-6.74121-.61231a1.01105,1.01105,0,0,0-.79737.28907l-9.19238,9.19238a.99963.99963,0,0,0,0,1.41406l7.354,7.35352a.99963.99963,0,0,0,1.41406,0l9.19238-9.19239A1,1,0,0,0,57.44238,14.65527ZM47.25391,22.52441,41.314,16.585l8.1543-8.1543,5.44483.49512.49511,5.44434Z"/><path d="M49.61084,10.3623a2.73331,2.73331,0,1,0,3.86572,0A2.73574,2.73574,0,0,0,49.61084,10.3623Zm2.45166,2.45118a.73243.73243,0,1,1,0-1.03711A.73441.73441,0,0,1,52.0625,12.81348Z"/><path d="M51.145,1.16309A14.17075,14.17075,0,0,0,49,1h-.03955L49,3a12.21088,12.21088,0,0,1,1.84229.13965Z"/><path d="M51.20166,28.82617a13.98778,13.98778,0,0,0,2.13477-.51172l-.61719-1.90234a12.071,12.071,0,0,1-1.83008.43945Z"/><path d="M63,15v-.05273L61,15a12.16991,12.16991,0,0,1-.146,1.877l1.97559.31055A14.1074,14.1074,0,0,0,63,15Z"/><path d="M41.96,24.71875a12.11135,12.11135,0,0,1-1.43262-1.2207l-1.41308,1.41406a14.00245,14.00245,0,0,0,1.6709,1.42578Z"/><path d="M37.59131,18.73047a12.05547,12.05547,0,0,1-.44141-1.8291l-1.97461.31445a14.00022,14.00022,0,0,0,.51465,2.13574Z"/><path d="M39.30127,22.06836a11.99617,11.99617,0,0,1-.98633-1.60156l-1.78027.91211A14.10029,14.10029,0,0,0,37.686,23.24805Z"/><path d="M35.67188,10.70312l1.90332.61329a12.05179,12.05179,0,0,1,.71728-1.74024L36.5083,8.67188A14.09644,14.09644,0,0,0,35.67188,10.70312Z"/><path d="M53.28369,1.668l-.6123,1.9043a12.12658,12.12658,0,0,1,1.74316.71484L55.31494,2.502A14.16,14.16,0,0,0,53.28369,1.668Z"/><path d="M40.49512,6.53516,39.07617,5.125a14.15756,14.15756,0,0,0-1.42138,1.67188L39.27393,7.9707A12.14084,12.14084,0,0,1,40.49512,6.53516Z"/><path d="M58.68408,7.91211a12.04993,12.04993,0,0,1,.99024,1.59961l1.77832-.91406a13.95427,13.95427,0,0,0-1.15528-1.86719Z"/><path d="M62.30127,10.62109l-1.89941.625a11.92523,11.92523,0,0,1,.44433,1.82715l1.97461-.31836A13.93173,13.93173,0,0,0,62.30127,10.62109Z"/><path d="M57.48828,23.48242l1.415,1.41406a14.21082,14.21082,0,0,0,1.42578-1.66894L58.71191,22.0498A12.06849,12.06849,0,0,1,57.48828,23.48242Z"/><path d="M41.92236,5.30859A12.12894,12.12894,0,0,1,43.523,4.31934l-.916-1.77735a14.06149,14.06149,0,0,0-1.86621,1.15332Z"/><path d="M56.02,5.2666a12.18192,12.18192,0,0,1,1.43652,1.21875l1.40821-1.41992a14.1912,14.1912,0,0,0-1.67286-1.41992Z"/><path d="M54.45605,25.69043l.91016,1.78125a14.022,14.022,0,0,0,1.87012-1.15039l-1.17871-1.61524A12.01257,12.01257,0,0,1,54.45605,25.69043Z"/><path d="M45.25879,3.59473a12.18571,12.18571,0,0,1,1.83008-.44434l-.32032-1.97461a14.1857,14.1857,0,0,0-2.13281.51856Z"/><path d="M44.68945,28.32324l.61524-1.90234a12.012,12.012,0,0,1-1.73975-.71875l-.90625,1.7832A13.94531,13.94531,0,0,0,44.68945,28.32324Z"/><path d="M48.9707,27a12.161,12.161,0,0,1-1.83642-.14453L46.82666,28.832A14.19418,14.19418,0,0,0,49,29a1.01277,1.01277,0,0,0,.2168-.02344L49.01318,28V26.999C48.99951,26.999,48.98535,26.999,48.9707,27Z"/><path d="M62.31934,19.32422,60.417,18.707a11.94655,11.94655,0,0,1-.72021,1.73828l1.78125.91016A13.95924,13.95924,0,0,0,62.31934,19.32422Z"/><path d="M37.14209,13.14746l-1.97656-.30664A14.174,14.174,0,0,0,35,15v.02637L37,15A12.14819,12.14819,0,0,1,37.14209,13.14746Z"/></svg>
