<?xml version="1.0" encoding="UTF-8"?>
<svg xmlns="http://www.w3.org/2000/svg" id="Layer_1" data-name="Layer 1" viewBox="0 0 64 64" width="512" height="512"><path d="M45.03369,13.01172a7.94854,7.94854,0,0,0,2.20215,3.70215.99956.99956,0,0,0,1.17676.14843l.71533-.44531a6.79671,6.79671,0,0,0,.94189.53174v.79395a.99957.99957,0,0,0,.7417.96582A8.45981,8.45981,0,0,0,53.00244,19c.03418,0,.06836,0,.10254-.00049a8.45376,8.45376,0,0,0,2.084-.29443,1.00012,1.00012,0,0,0,.74122-.96582v-.79053a5.83931,5.83931,0,0,0,.897-.51025l.75635.42187a1.00116,1.00116,0,0,0,1.17675-.14892,7.94643,7.94643,0,0,0,2.20606-3.69971.99987.99987,0,0,0-.479-1.13135l-.7163-.3999c.01269-.16113.019-.3208.019-.48047q0-.23656-.01953-.48l.71679-.40039a1.00045,1.00045,0,0,0,.47852-1.13086,7.94279,7.94279,0,0,0-2.20215-3.70264,1.00114,1.00114,0,0,0-1.17724-.14843l-.71436.44531a6.76842,6.76842,0,0,0-.94189-.53174V4.25732a.99957.99957,0,0,0-.7417-.96582,8.30436,8.30436,0,0,0-2.29346-.291,8.45376,8.45376,0,0,0-2.084.29443,1.00012,1.00012,0,0,0-.74122.96582v.79053a5.83931,5.83931,0,0,0-.897.51025l-.75635-.42187a1.00029,1.00029,0,0,0-1.17675.14941,7.94408,7.94408,0,0,0-2.20606,3.69922,1.00022,1.00022,0,0,0,.47852,1.13135l.71728.40039q-.01977.2439-.01953.48c0,.15967.00635.31885.019.48l-.71679.40039A1.00022,1.00022,0,0,0,45.03369,13.01172ZM48.293,11.835a4.24075,4.24075,0,0,1,0-1.66992,1,1,0,0,0-.49463-1.05957l-.58545-.32715a5.93238,5.93238,0,0,1,.91162-1.51123l.07227.04053a1.96972,1.96972,0,0,0,2.05029-.06739,4.79543,4.79543,0,0,1,.7124-.39648,1.90594,1.90594,0,0,0,1.11035-1.73926V5.0708a6.20131,6.20131,0,0,1,1.86036-.00146v.03515a1.90491,1.90491,0,0,0,1.11035,1.73926,4.75423,4.75423,0,0,1,.7124.397,1.97125,1.97125,0,0,0,2.04932.06739l.07666-.043a5.95241,5.95241,0,0,1,.90869,1.51269l-.58643.32764a1,1,0,0,0-.49414,1.061,4.22607,4.22607,0,0,1,0,1.667.99955.99955,0,0,0,.49463,1.061l.58545.32715a5.924,5.924,0,0,1-.91162,1.51123l-.07227-.04053a1.9698,1.9698,0,0,0-2.05029.06739,4.815,4.815,0,0,1-.71191.39648,1.90453,1.90453,0,0,0-1.11084,1.73926v.03369a6.1722,6.1722,0,0,1-.8501.07031,6.75539,6.75539,0,0,1-1.01026-.06885v-.03515a1.90594,1.90594,0,0,0-1.11035-1.73926,4.75423,4.75423,0,0,1-.7124-.397,1.97241,1.97241,0,0,0-2.04883-.06739l-.07715.043a5.94581,5.94581,0,0,1-.90918-1.51318l.58643-.32715A1,1,0,0,0,48.293,11.835Z"/><path d="M53,14.5A3.5,3.5,0,1,0,49.5,11,3.50424,3.50424,0,0,0,53,14.5Zm0-5A1.5,1.5,0,1,1,51.5,11,1.50164,1.50164,0,0,1,53,9.5Z"/><path d="M18.4873,53.88037l-.7163-.3999c.01269-.16113.019-.3208.019-.48047q0-.23656-.01953-.48l.71679-.40039a1.00045,1.00045,0,0,0,.47852-1.13086,7.94279,7.94279,0,0,0-2.20215-3.70264,1.001,1.001,0,0,0-1.17724-.14843l-.71436.44531a6.76842,6.76842,0,0,0-.94189-.53174v-.794a.99957.99957,0,0,0-.7417-.96582,8.30436,8.30436,0,0,0-2.29346-.291,8.45376,8.45376,0,0,0-2.084.29443,1.00012,1.00012,0,0,0-.74122.96582v.79053a5.83931,5.83931,0,0,0-.897.51025l-.75635-.42187a1.00049,1.00049,0,0,0-1.17675.14941,7.94408,7.94408,0,0,0-2.20606,3.69922,1.00022,1.00022,0,0,0,.47852,1.13135l.71728.40039q-.01977.2439-.01953.48c0,.15967.00635.31885.019.48l-.71679.40039a1.00022,1.00022,0,0,0-.47852,1.13135,7.94854,7.94854,0,0,0,2.20215,3.70215,1.00031,1.00031,0,0,0,1.17676.14843l.71533-.44531a6.79671,6.79671,0,0,0,.94189.53174v.794a.99957.99957,0,0,0,.7417.96582A8.45981,8.45981,0,0,0,11.00244,61c.03418,0,.06836,0,.10254-.00049a8.45376,8.45376,0,0,0,2.084-.29443,1.00012,1.00012,0,0,0,.74122-.96582v-.79053a5.83931,5.83931,0,0,0,.897-.51025l.75635.42187a1.00134,1.00134,0,0,0,1.17675-.14892,7.94643,7.94643,0,0,0,2.20606-3.69971A.99987.99987,0,0,0,18.4873,53.88037ZM15.707,52.1665a4.22607,4.22607,0,0,1,0,1.667.99955.99955,0,0,0,.49463,1.061l.58545.32715a5.924,5.924,0,0,1-.91162,1.51123l-.07227-.04053a1.96857,1.96857,0,0,0-2.05029.06739,4.815,4.815,0,0,1-.71191.39648,1.90453,1.90453,0,0,0-1.11084,1.73926v.03369a6.20131,6.20131,0,0,1-1.86036.00146v-.03515a1.90594,1.90594,0,0,0-1.11035-1.73926,4.75423,4.75423,0,0,1-.7124-.397,1.97459,1.97459,0,0,0-2.04883-.06739l-.07715.043a5.94581,5.94581,0,0,1-.90918-1.51318l.58643-.32715A1,1,0,0,0,6.293,53.835a4.24075,4.24075,0,0,1,0-1.66992,1,1,0,0,0-.49463-1.05957l-.58545-.32715a5.93238,5.93238,0,0,1,.91162-1.51123l.07227.04053a1.96972,1.96972,0,0,0,2.05029-.06739,4.79543,4.79543,0,0,1,.7124-.39648,1.90594,1.90594,0,0,0,1.11035-1.73926V47.0708a6.1722,6.1722,0,0,1,.8501-.07031,5.95688,5.95688,0,0,1,1.01026.06885v.03515a1.90491,1.90491,0,0,0,1.11035,1.73926,4.75423,4.75423,0,0,1,.7124.397,1.97014,1.97014,0,0,0,2.04932.06739l.07666-.043a5.95241,5.95241,0,0,1,.90869,1.51269l-.58643.32764A1,1,0,0,0,15.707,52.1665Z"/><path d="M11,49.5A3.5,3.5,0,1,0,14.5,53,3.50424,3.50424,0,0,0,11,49.5Zm0,5A1.5,1.5,0,1,1,12.5,53,1.50164,1.50164,0,0,1,11,54.5Z"/><path d="M25.47888,44A12.99319,12.99319,0,1,0,38,25.05066V19a1.00035,1.00035,0,0,0-.38623-.78955l-9-7a1.00117,1.00117,0,0,0-1.22754,0l-9,7A1.00035,1.00035,0,0,0,18,19V43a1,1,0,0,0,1,1Zm1.90332-.67456A10.91255,10.91255,0,0,1,26.05066,39h3.97266a25.845,25.845,0,0,0,.3814,3.57635A24.6534,24.6534,0,0,0,27.3822,43.32544Zm3.01728-9.87061A25.84759,25.84759,0,0,0,30.02332,37H26.05066a10.91495,10.91495,0,0,1,1.31555-4.29919A24.56871,24.56871,0,0,0,30.39948,33.45483ZM28.546,30.9729a11.0863,11.0863,0,0,1,2.05866-1.90509c.28625.10394.58734.20184.912.28955a21.7623,21.7623,0,0,0-.68658,2.14478C30.02435,31.35468,29.25983,31.17822,28.546,30.9729Zm2.0589,15.95947A11.08736,11.08736,0,0,1,28.56958,45.053c.70966-.20319,1.46887-.37818,2.269-.52429a21.77993,21.77993,0,0,0,.67822,2.11419C31.1922,46.73059,30.89117,46.82849,30.60492,46.93237ZM32.0462,39H36v3.01782c-1.24286.03058-2.45355.117-3.61346.25751A23.84975,23.84975,0,0,1,32.0462,39ZM36,34.0144V37H32.0462a23.84922,23.84922,0,0,1,.33588-3.24365C33.54327,33.89728,34.75549,33.98383,36,34.0144Zm-3.16736-2.21527a19.39055,19.39055,0,0,1,.68616-2.04071A23.67834,23.67834,0,0,0,36,29.98126v2.03351C34.91083,31.98682,33.84943,31.91541,32.83264,31.79913ZM36,44.01746V46.0188a23.68266,23.68266,0,0,0-2.48114.2229,19.388,19.388,0,0,1-.67859-2.00958C33.85468,44.11627,34.91364,44.04529,36,44.01746ZM37,49a10.92278,10.92278,0,0,1-3.7818-.684,22.78492,22.78492,0,0,1,7.5636,0A10.92278,10.92278,0,0,1,37,49Zm3.48468-2.75781A23.65684,23.65684,0,0,0,38,46.0188V44.01746c1.08722.02789,2.14685.099,3.16205.215A19.414,19.414,0,0,1,40.48468,46.24219Zm2.9104.69018c-.28516-.10345-.58508-.201-.90826-.28839a21.74717,21.74717,0,0,0,.67743-2.11481c.79907.14606,1.55731.32087,2.26617.52381A11.08736,11.08736,0,0,1,43.39508,46.93237Zm3.22272-3.60693a24.64684,24.64684,0,0,0-3.02075-.74878A25.85442,25.85442,0,0,0,43.97693,39h3.97241A10.91255,10.91255,0,0,1,46.6178,43.32544Zm.016-10.62463A10.91495,10.91495,0,0,1,47.94934,37H43.9765a25.84472,25.84472,0,0,0-.3775-3.54492A24.57133,24.57133,0,0,0,46.63379,32.70081Zm-3.23847-3.633A11.0863,11.0863,0,0,1,45.454,30.9729c-.71454.20551-1.47986.38214-2.2865.52966a21.7614,21.7614,0,0,0-.68762-2.14416C42.80591,29.27045,43.108,29.17212,43.39532,29.06781Zm-1.78051,13.2077c-1.16028-.14062-2.37146-.22711-3.61481-.25769V39h3.95422A23.86255,23.86255,0,0,1,41.61481,42.27551ZM41.95331,37H38V34.0144c1.244-.03057,2.45575-.11706,3.61652-.25787A23.85829,23.85829,0,0,1,41.95331,37ZM38,32.01477V29.98126a23.66987,23.66987,0,0,0,2.47784-.22235A19.40063,19.40063,0,0,1,41.165,31.7995C40.14893,31.91571,39.08832,31.98682,38,32.01477Zm2.782-4.33069a22.79561,22.79561,0,0,1-7.564,0,10.7965,10.7965,0,0,1,7.564,0ZM20,19.48926l8-6.22217,8,6.22217v5.5614A12.97336,12.97336,0,0,0,24.63611,42H20Z"/><path d="M28,23a3,3,0,1,0-3-3A3.00328,3.00328,0,0,0,28,23Zm0-4a1,1,0,1,1-1,1A1.0013,1.0013,0,0,1,28,19Z"/><path d="M58.14355,19.43408A28.72434,28.72434,0,0,1,61,32,29.03276,29.03276,0,0,1,32,61a28.72746,28.72746,0,0,1-12.56592-2.85645l-.86816,1.80176A30.71525,30.71525,0,0,0,32,63,31.03536,31.03536,0,0,0,63,32a30.71213,30.71213,0,0,0-3.05469-13.43408Z"/><path d="M5.856,44.56641A28.73906,28.73906,0,0,1,3,32,29.01521,29.01521,0,0,1,43.6001,5.41309l.80078-1.833A31.01581,31.01581,0,0,0,1,32,30.71424,30.71424,0,0,0,4.0542,45.43359Z"/></svg>
