<svg id="Layer_1" height="512" viewBox="0 0 64 64" width="512" xmlns="http://www.w3.org/2000/svg" data-name="Layer 1"><path d="m26 38h12v2h-12z"/><path d="m26 42h12v2h-12z"/><path d="m26 46h12v2h-12z"/><path d="m26 50h12v2h-12z"/><path d="m16 48h4v2h-4z"/><path d="m44 48h4v2h-4z"/><path d="m16 52h4v2h-4z"/><path d="m44 52h4v2h-4z"/><path d="m19 24h12v3.58594l-5.41406 5.41406h-1.58594a2.00229 2.00229 0 0 0 -2 2v5.25586l-9.28711 2.78614a1.00084 1.00084 0 0 0 -.71289.958v17a.99974.99974 0 0 0 1 1h9a.99974.99974 0 0 0 1 1h18a.99974.99974 0 0 0 1-1h9a.99974.99974 0 0 0 1-1v-17a1.00084 1.00084 0 0 0 -.71289-.958l-9.28711-2.78614v-5.25586a2.00229 2.00229 0 0 0 -2-2h-1.58594l-5.41406-5.41406v-3.58594h12a2.00229 2.00229 0 0 0 2-2v-19a2.00229 2.00229 0 0 0 -2-2h-26a2.00229 2.00229 0 0 0 -2 2v19a2.00229 2.00229 0 0 0 2 2zm3 36h-8v-15.25586l8-2.4zm20-17.65588 8 2.4v15.25588h-8zm-8 18.65588h-4v-5h4zm6-26v26h-4v-6a.99974.99974 0 0 0 -1-1h-6a.99974.99974 0 0 0 -1 1v6h-4v-26zm-4.41406-2h-7.17188l3.58594-3.58594zm-16.58594-30h26l.001 19h-26.001z"/><path d="m24 8a1.001 1.001 0 0 1 1 1h2a2.99507 2.99507 0 0 0 -2-2.81573v-1.18427h-2v1.18427a2.99257 2.99257 0 0 0 1 5.81573 1 1 0 1 1 -1 1h-2a2.995 2.995 0 0 0 2 2.81567v1.18433h2v-1.18427a2.99257 2.99257 0 0 0 -1-5.81573 1 1 0 0 1 0-2z"/><path d="m29 15h2v5h-2z"/><path d="m33 12h2v8h-2z"/><path d="m37 9h2v11h-2z"/><path d="m41 6h2v14h-2z"/><path d="m50.90723 14.16309c2.01172.50683 2.42285.91748 2.92968 2.93066a1.19941 1.19941 0 0 0 2.32618-.00049c.50683-2.01269.918-2.42334 2.92675-2.92969a1.19916 1.19916 0 0 0 .002-2.32714c-2.01075-.50635-2.42188-.91748-2.92871-2.93018a1.19941 1.19941 0 0 0 -2.32618.00049c-.50683 2.01269-.918 2.42334-2.92675 2.92969a1.199 1.199 0 0 0 -.00293 2.32666zm4.09277-2.66109a3.83281 3.83281 0 0 0 1.49805 1.498 3.82641 3.82641 0 0 0 -1.49805 1.49805 3.836 3.836 0 0 0 -1.498-1.49805 3.82641 3.82641 0 0 0 1.498-1.498z"/><path d="m6.90723 27.16309c2.01172.50683 2.42285.91748 2.92968 2.93066a1.19941 1.19941 0 0 0 2.32618-.00049c.50683-2.01269.918-2.42334 2.92675-2.92969a1.19916 1.19916 0 0 0 .002-2.32714c-2.01075-.50635-2.42188-.91748-2.92871-2.93018a1.19941 1.19941 0 0 0 -2.32618.00049c-.50683 2.01269-.918 2.42334-2.92675 2.92969a1.199 1.199 0 0 0 -.00293 2.32666zm4.09277-2.66109a3.83281 3.83281 0 0 0 1.498 1.498 3.82641 3.82641 0 0 0 -1.498 1.49805 3.836 3.836 0 0 0 -1.498-1.49805 3.82641 3.82641 0 0 0 1.498-1.498z"/></svg>