<svg id="Layer_1" height="512" viewBox="0 0 64 64" width="512" xmlns="http://www.w3.org/2000/svg" data-name="Layer 1"><path d="m2 62h6a.99974.99974 0 0 0 1 1h10a.99974.99974 0 0 0 1-1h6a.99974.99974 0 0 0 1-1v-11a1.00093 1.00093 0 0 0 -.7251-.96191l-6.2749-1.79285v-2.24524a2.00229 2.00229 0 0 0 -2-2h-.50049l-2.69971-3.59961a1.03525 1.03525 0 0 0 -1.5996 0l-2.69971 3.59961h-.50049a2.00229 2.00229 0 0 0 -2 2v2.24524l-6.2749 1.79285a1.00093 1.00093 0 0 0 -.7251.96191v11a.99974.99974 0 0 0 1 1zm18-12.674 5 1.42792v9.24608h-5zm-5 11.674h-2v-2h2zm-1-19.333 1.00006 1.333h-2.00012zm-4 3.333h8v16h-1v-3a.99974.99974 0 0 0 -1-1h-4a.99974.99974 0 0 0 -1 1v3h-1zm-7 5.75391 5-1.42791v10.674h-5z"/><path d="m11.5 46h5v2h-5z"/><path d="m11.5 50h5v2h-5z"/><path d="m11.5 54h5v2h-5z"/><path d="m4 52h3v2h-3z"/><path d="m21 52h3v2h-3z"/><path d="m4 55h3v2h-3z"/><path d="m21 55h3v2h-3z"/><path d="m59.70709 49.31976a4.98964 4.98964 0 1 0 -7.43017.005 4.999 4.999 0 0 0 -2.27692 1.70618 4.99772 4.99772 0 0 0 -2.29291-1.71118 4.98964 4.98964 0 1 0 -7.43017.005 4.99422 4.99422 0 0 0 -3.27692 4.67524v8a.99974.99974 0 0 0 1 1h24a.99974.99974 0 0 0 1-1v-8a4.99349 4.99349 0 0 0 -3.29291-4.68024zm-17.74615-5.52a2.97581 2.97581 0 0 1 2.03613-.79976c.03857 0 .07764.001.1167.002a2.979 2.979 0 0 1 2.08643.959c.01129.01214.01867.02673.02972.03906h-4.44666c.05994-.06641.11133-.13873.17768-.20026zm5.0299 2.20024c-.00006.03815.00818.075.00672.11328a2.98047 2.98047 0 0 1 -.9585 2.08692 3.03322 3.03322 0 0 1 -2.15283.79785 2.9843 2.9843 0 0 1 -2.87707-2.99805zm2.00916 15h-10v-7a3.00328 3.00328 0 0 1 3-3h4a3.00328 3.00328 0 0 1 3 3zm4.96094-17.2002a2.97581 2.97581 0 0 1 2.03613-.7998c.03857 0 .07764.001.1167.002a2.979 2.979 0 0 1 2.08643.959c.01129.01214.01867.02673.02972.03906h-4.44666c.05994-.06641.11133-.13873.17768-.20026zm5.0299 2.2002c-.00006.03815.00818.075.00672.11328a2.98047 2.98047 0 0 1 -.9585 2.08692 3.02767 3.02767 0 0 1 -2.15283.79785 2.9843 2.9843 0 0 1 -2.87707-2.99805zm2.00916 15h-10v-7a3.00328 3.00328 0 0 1 3-3h4a3.00328 3.00328 0 0 1 3 3z"/><path d="m23 34h20.63818l5.72168 4.76855a1.00036 1.00036 0 0 0 1.64014-.76855v-4h5a3.00328 3.00328 0 0 0 3-3v-22a3.00328 3.00328 0 0 0 -3-3h-11v-2a3.00328 3.00328 0 0 0 -3-3h-34a3.00328 3.00328 0 0 0 -3 3v22a3.00328 3.00328 0 0 0 3 3h2.38184l2.72363 5.44727a.9994.9994 0 0 0 .894.55273c.02393 0 .04737-.001.07129-.00293a.99911.99911 0 0 0 .87793-.68066l1.77201-5.31641h3.2793v2a3.00328 3.00328 0 0 0 3 3zm22-6v-20h11a1.001 1.001 0 0 1 1 1v22a1.001 1.001 0 0 1 -1 1h-6a.99974.99974 0 0 0 -1 1v2.86523l-4.35986-3.63378a1.00151 1.00151 0 0 0 -.64014-.23145h-21a1.001 1.001 0 0 1 -1-1v-2h22a.99974.99974 0 0 0 1-1zm-23-1v-19h21v19zm-6 0a1 1 0 0 0 -.94873.68359l-1.23633 3.71-1.92041-3.84082a.99985.99985 0 0 0 -.89453-.55277h-3a1.001 1.001 0 0 1 -1-1v-22a1.001 1.001 0 0 1 1-1h34a1.001 1.001 0 0 1 1 1v2h-22a.99974.99974 0 0 0 -1 1v20z"/><path d="m39.92383 15.38281a.99977.99977 0 0 0 -.21683-1.08981l-4-4-1.414 1.414 2.29294 2.293h-11.58594v2h14a.99945.99945 0 0 0 .92383-.61719z"/><path d="m25.07617 18.61719a.99977.99977 0 0 0 .21683 1.08981l4 4 1.414-1.414-2.29294-2.293h11.58594v-2h-14a.99945.99945 0 0 0 -.92383.61719z"/></svg>