<svg id="Layer_1" enable-background="new 0 0 512 512" height="512" viewBox="0 0 512 512" width="512" xmlns="http://www.w3.org/2000/svg"><path d="m254.164 272.535c103.762.243 196.454 64.92 232.492 162.223l15.016-5.516c-15.841-42.914-42.615-80.947-77.672-110.334v-150.908c.001-3.608-2.414-6.77-5.895-7.719l-82.105-22.392v-65.889c-.009-8.833-7.167-15.991-16-16h-12.688l-45.656-45.656c-3.122-3.124-8.186-3.125-11.309-.003-.001.001-.002.002-.003.003l-45.656 45.656h-12.688c-8.833.009-15.991 7.167-16 16v65.889l-82.105 22.393c-3.481.948-5.896 4.11-5.895 7.718v147.737c-36.852 29.81-64.958 69.028-81.344 113.505l15.016 5.516c36.036-97.305 128.729-161.982 232.492-162.223zm81.836-118.06 72 19.635v132.327c-21.986-15.837-46.267-28.213-72-36.699zm-64 102.76c-5.914-.405-11.851-.7-17.836-.7-4.753 0-9.455.3-14.164.556v-17.091h32zm-16-229.923 28.688 28.688h-57.375zm-64 44.688h128v193.114c-10.527-2.73-21.215-4.802-32-6.202v-26.912c0-4.418-3.582-8-8-8h-48c-4.418 0-8 3.582-8 8v26.478c-10.773 1.207-21.46 3.082-32 5.613zm-88 102.109 72-19.635v114.069c-25.643 8.018-49.92 19.883-72 35.191z"/><path d="m408 488v-64c-.05-16.765-10.562-31.716-26.322-37.435 14.812-16.391 13.532-41.686-2.859-56.497s-41.686-13.532-56.497 2.859c-13.763 15.231-13.763 38.408 0 53.638-9.023 3.326-16.543 9.794-21.182 18.217-4.285-4.576-9.588-8.078-15.479-10.223 6.27-6.877 9.921-15.742 10.312-25.04.906-22.074-16.254-40.702-38.328-41.608s-40.702 16.254-41.608 38.328c-.428 10.419 3.23 20.593 10.194 28.354-5.848 2.15-11.112 5.64-15.37 10.189-4.642-8.429-12.17-14.899-21.2-18.223 6.27-6.877 9.921-15.742 10.312-25.04.906-22.074-16.254-40.702-38.328-41.608s-40.702 16.254-41.608 38.328c-.428 10.419 3.23 20.593 10.194 28.354-15.714 5.746-26.183 20.676-26.231 37.407v64c0 4.418 3.582 8 8 8h88c0 4.418 3.582 8 8 8h96c4.418 0 8-3.582 8-8h88c4.418 0 8-3.582 8-8zm-248.012-152c.305 0 .613.008.922.02 6.49.25 12.598 3.131 16.918 7.98h-35.569c4.505-5.063 10.952-7.972 17.729-8zm23.935 24c0 .308.069.6.057.91-.486 13.224-11.599 23.55-24.823 23.065-12.894-.473-23.097-11.072-23.081-23.975zm-16.751 78.816-7.172 10.762-7.172-10.762 7.172-21.52zm32.828 41.184h-80v-56c.014-13.249 10.751-23.986 24-24h4.9l-12.49 37.469c-.782 2.342-.437 4.915.934 6.969l16 24c2.451 3.676 7.417 4.67 11.093 2.219.879-.586 1.633-1.34 2.219-2.219l16-24c1.371-2.054 1.715-4.626.934-6.969l-12.49-37.469h4.9c13.249.014 23.986 10.751 24 24zm55.988-136c.305 0 .613.008.922.02 6.49.25 12.598 3.131 16.918 7.98h-35.569c4.505-5.063 10.952-7.972 17.729-8zm23.935 24c0 .308.069.6.057.91-.486 13.224-11.6 23.55-24.824 23.064-12.894-.474-23.097-11.072-23.08-23.974zm-16.751 78.816-7.172 10.762-7.172-10.762 7.172-21.52zm32.828 41.184h-80v-56c.014-13.249 10.751-23.986 24-24h4.9l-12.49 37.469c-.782 2.342-.437 4.915.934 6.969l16 24c2.451 3.676 7.417 4.67 11.093 2.219.879-.586 1.633-1.34 2.219-2.219l16-24c1.371-2.054 1.715-4.626.934-6.969l-12.49-37.469h4.9c13.249.014 23.986 10.751 24 24zm56-152c6.788.019 13.246 2.928 17.758 8h-35.516c4.512-5.072 10.97-7.981 17.758-8zm24 24c0 13.255-10.745 24-24 24s-24-10.745-24-24zm-16.828 78.816-7.172 10.762-7.172-10.762 7.172-21.52zm-47.172-14.816c.014-13.249 10.751-23.986 24-24h4.9l-12.49 37.469c-.782 2.342-.437 4.915.934 6.969l16 24c2.451 3.676 7.417 4.67 11.093 2.219.879-.586 1.633-1.34 2.219-2.219l16-24c1.371-2.054 1.715-4.626.934-6.969l-12.49-37.469h4.9c13.249.014 23.986 10.751 24 24v56h-80z"/><path d="m208 96h96v16h-96z"/><path d="m208 128h96v16h-96z"/><path d="m208 160h96v16h-96z"/><path d="m208 192h96v16h-96z"/><path d="m399.254 89.305c16.102 4.055 19.387 7.34 23.438 23.445 1.298 5.141 6.517 8.256 11.658 6.959 3.424-.864 6.097-3.538 6.96-6.963 4.051-16.102 7.336-19.387 23.426-23.438 5.141-1.287 8.265-6.497 6.979-11.638-.859-3.432-3.536-6.112-6.967-6.976-16.102-4.055-19.387-7.34-23.438-23.445-1.298-5.141-6.517-8.256-11.658-6.959-3.424.864-6.097 3.538-6.96 6.963-4.051 16.102-7.336 19.387-23.426 23.438-5.141 1.287-8.265 6.497-6.979 11.638.859 3.432 3.536 6.113 6.967 6.976zm32.746-21.293c2.787 5.045 6.943 9.201 11.988 11.988-5.045 2.787-9.201 6.943-11.988 11.988-2.789-5.044-6.944-9.2-11.988-11.988 5.045-2.787 9.201-6.943 11.988-11.988z"/><path d="m39.254 121.305c16.102 4.055 19.387 7.34 23.438 23.445 1.298 5.141 6.517 8.256 11.658 6.959 3.424-.864 6.097-3.538 6.96-6.963 4.051-16.102 7.336-19.387 23.426-23.438 5.141-1.287 8.265-6.497 6.979-11.638-.859-3.432-3.536-6.112-6.967-6.976-16.102-4.055-19.387-7.34-23.438-23.445-1.298-5.141-6.517-8.256-11.658-6.959-3.424.864-6.097 3.538-6.96 6.963-4.051 16.102-7.336 19.387-23.426 23.438-5.141 1.287-8.265 6.497-6.979 11.638.859 3.432 3.536 6.113 6.967 6.976zm32.746-21.293c2.787 5.045 6.943 9.201 11.988 11.988-5.045 2.787-9.201 6.943-11.988 11.988-2.789-5.044-6.944-9.2-11.988-11.988 5.045-2.787 9.201-6.943 11.988-11.988z"/><path d="m120 200h40v16h-40z"/><path d="m352 200h40v16h-40z"/><path d="m120 232h40v16h-40z"/><path d="m352 232h40v16h-40z"/></svg>