<svg id="Layer_1" height="512" viewBox="0 0 64 64" width="512" xmlns="http://www.w3.org/2000/svg" data-name="Layer 1"><path d="m29.2041 26.98633a14.28956 14.28956 0 1 0 0 20.21777 14.312 14.312 0 0 0 0-20.21777zm-1.4141 18.80367a12.29053 12.29053 0 1 1 0-17.38965 12.31011 12.31011 0 0 1 0 17.38965z"/><path d="m37.2984 49.184.97211-.97211a.99964.99964 0 0 0 0-1.41406l-2.56317-2.56317a18.1018 18.1018 0 1 0 -9.47254 9.47278l2.56305 2.56305a.99963.99963 0 0 0 1.41406 0l.97211-.97211 7.35114 7.352a.99963.99963 0 0 0 1.41406 0l4.70117-4.70117a.99963.99963 0 0 0 0-1.41406zm-29.58453-.70744a16.09565 16.09565 0 1 1 22.76269 0 16.1162 16.1162 0 0 1 -22.76269 0zm21.791 5.67285-1.38952-1.38952a17.5482 17.5482 0 0 0 6.64447-6.64459l1.38958 1.38958zm9.73731 6.37989-6.64411-6.645 3.28626-3.28626 6.645 6.64411z"/><path d="m27.43066 38.18359-.90039-.50293c.01953-.21191.0293-.42187.0293-.62793s-.00977-.416-.0293-.62793l.90039-.50292a.9998.9998 0 0 0 .47754-1.13088 8.92873 8.92873 0 0 0 -2.47656-4.164 1.00344 1.00344 0 0 0 -1.17676-.14843l-.86816.48437a.12931.12931 0 0 1 -.09863.01758 12.11235 12.11235 0 0 0 -1.13965-.665v-.96875a.99914.99914 0 0 0 -.74219-.96582 9.93072 9.93072 0 0 0 -2.58105-.32715 9.56918 9.56918 0 0 0 -2.34571.33106.99914.99914 0 0 0 -.74219.96582l-.00976.999a7.78023 7.78023 0 0 0 -1.12793.62988.142.142 0 0 1 -.10059-.0166l-.86425-.48242a1.00153 1.00153 0 0 0 -1.17676.14844 8.92784 8.92784 0 0 0 -2.48047 4.16202.99984.99984 0 0 0 .47851 1.13086l.89942.50292q-.02929.31641-.0293.62793 0 .30909.0293.62891l-.89942.502a.9993.9993 0 0 0 -.47851 1.13086 8.92528 8.92528 0 0 0 2.47656 4.165 1.00208 1.00208 0 0 0 1.17774.14844l.86718-.48535a.14189.14189 0 0 1 .09864-.0166 12.33038 12.33038 0 0 0 1.13964.665v.96777a1 1 0 0 0 .74122.96582 9.51243 9.51243 0 0 0 2.4707.3291c.03808 0 .07519-.001.11328-.001a9.57194 9.57194 0 0 0 2.34473-.332 1 1 0 0 0 .74121-.96582l.00683-.998a7.59924 7.59924 0 0 0 1.13184-.63086.13157.13157 0 0 1 .09863.0166l.86426.4834a1.001 1.001 0 0 0 1.17773-.14844 8.941 8.941 0 0 0 2.48145-4.16211 1.00061 1.00061 0 0 0 -.47852-1.13184zm-2.96777-2.11035a5.14261 5.14261 0 0 1 .09668.97949 5.22527 5.22527 0 0 1 -.09668.98047.99957.99957 0 0 0 .49512 1.06055l.77929.43457a6.93 6.93 0 0 1 -1.18847 1.97268l-.1875-.1045a2.11 2.11 0 0 0 -2.19238.07129 5.59807 5.59807 0 0 1 -.83594.46582 2.03619 2.03619 0 0 0 -1.18457 1.85739v.16015a7.34688 7.34688 0 0 1 -1.11133.10156 7.458 7.458 0 0 1 -1.29981-.09961v-.1621a2.03578 2.03578 0 0 0 -1.18554-1.8584 5.59515 5.59515 0 0 1 -.834-.46387 2.11761 2.11761 0 0 0 -2.19433-.07227l-.19043.10645a6.92434 6.92434 0 0 1 -1.1836-1.97363l.7793-.43555a.99957.99957 0 0 0 .49512-1.06055 4.96569 4.96569 0 0 1 0-1.96 1.00164 1.00164 0 0 0 -.49512-1.06054l-.7793-.43555a6.96276 6.96276 0 0 1 1.1875-1.97266l.1875.10449a2.11887 2.11887 0 0 0 2.19239-.07031 5.746 5.746 0 0 1 .834-.46582 2.0311 2.0311 0 0 0 1.18652-1.85742v-.16016a7.14782 7.14782 0 0 1 1.11133-.10156 8.1983 8.1983 0 0 1 1.29981.09961v.16211a2.03327 2.03327 0 0 0 1.18455 1.85651 5.67768 5.67768 0 0 1 .83789.46777 2.1131 2.1131 0 0 0 2.19043.06933l.1914-.10644a6.94111 6.94111 0 0 1 1.18457 1.97461l-.78027.43555a1.001 1.001 0 0 0 -.49413 1.06054z"/><path d="m18.94336 33.19629a3.85694 3.85694 0 1 0 3.85644 3.85644 3.86163 3.86163 0 0 0 -3.85644-3.85644zm0 5.71387a1.85694 1.85694 0 1 1 1.85644-1.85743 1.85924 1.85924 0 0 1 -1.85644 1.85743z"/><path d="m62 1h-30a.99943.99943 0 0 0 -1 1v19h2v-18h28v38h-22v2h23a.99943.99943 0 0 0 1-1v-40a.99943.99943 0 0 0 -1-1z"/><path d="m35.707 11.364 2.122-2.121 2.121 2.121 1.414-1.414-2.121-2.121 2.121-2.122-1.414-1.414-2.121 2.122-2.122-2.122-1.414 1.414 2.122 2.122-2.122 2.121z"/><path d="m57.95 32.293-2.121 2.122-2.122-2.122-1.414 1.414 2.122 2.122-2.122 2.121 1.414 1.414 2.122-2.121 2.121 2.121 1.414-1.414-2.121-2.121 2.121-2.122z"/><path d="m45.87207 23.0918-2.23145-1.86035-1.28124 1.5371 3 2.5a1.00183 1.00183 0 0 0 1.40917-.12793l5-6-1.5371-1.28124z"/><path d="m47 13a9 9 0 1 0 9 9 9.00984 9.00984 0 0 0 -9-9zm0 16a7 7 0 1 1 7-7 7.00848 7.00848 0 0 1 -7 7z"/></svg>