<svg id="Layer_1" height="512" viewBox="0 0 64 64" width="512" xmlns="http://www.w3.org/2000/svg" data-name="Layer 1"><path d="m40 28.06689a2.0023 2.0023 0 0 0 -2-2h-.58984l-4.708-4.64453a1.00032 1.00032 0 0 0 -1.4043 0l-4.708 4.64453h-.58986a2.0023 2.0023 0 0 0 -2 2v7.13111l-8.2168 1.82593a.99937.99937 0 0 0 -.7832.97607v12.732a36.05892 36.05892 0 0 0 -12.82031 11.2973l1.64062 1.14453a34.04483 34.04483 0 0 1 2.33875-2.9704l4.49524 2.28973a1.00009 1.00009 0 0 0 1.04687-.08593l4.10254-3.021 1.40332 1.8252a.99987.99987 0 0 0 1.34766.22265l2.748-1.832h3.42383a1.00032 1.00032 0 0 0 .92871-1.37158l-1.65523-4.13821 2.43945-1.19385a1.00027 1.00027 0 0 0 .53028-.65576l.85227-3.40918a33.2868 33.2868 0 0 1 11.14832.56317l-3.41761 1.7088a1.00448 1.00448 0 0 0 -.38476.33984l-2 3a.99947.99947 0 0 0 .18555 1.31787l4.72656 4a1.02223 1.02223 0 0 0 .72558.23389l4.623-.36816 3.69824 2.773a.99511.99511 0 0 0 .59961.20019 1.00753 1.00753 0 0 0 .31641-.05127l8.73816-2.91272a34.15844 34.15844 0 0 1 3.11731 3.92249l1.65625-1.1211a36.04146 36.04146 0 0 0 -12.55462-11.41356v-13.02594a.99937.99937 0 0 0 -.7832-.97607l-8.2168-1.82593zm-8-4.52783 2.5625 2.52783h-5.125zm-15 15.26319 7-1.55573v10.21234a36.0191 36.0191 0 0 0 -7 2.29814zm8.14258 12.5039-2.85547 1.39746a1.00013 1.00013 0 0 0 -.48926 1.27l1.45215 3.62844h-2.25a1.00094 1.00094 0 0 0 -.55469.168l-2.22168 1.48144-1.43063-1.86087a.99992.99992 0 0 0 -1.38574-.1958l-4.39456 3.23584-3.43451-1.74926a34.06689 34.06689 0 0 1 9.37768-6.6814h.04413v-.02142a34.00241 34.00241 0 0 1 8.68243-2.83069zm8.85742-4.63135q-1.131-.07122-2.27344-.07275c-.57794 0-1.15252.02515-1.72656.0528v-2.72174h4zm4 .48542c-.66254-.11707-1.32861-.21991-2-.29993v-3.92718a.99974.99974 0 0 0 -1-1h-6a.99974.99974 0 0 0 -1 1v3.87652q-1.00635.105-2 .26709v-19.00983h12zm17.22473 10.88824-7.3175 2.43933-3.58106-2.68554a1.01271 1.01271 0 0 0 -.67871-.19727l-4.58984.36523-3.73047-3.15771 1.35742-2.03662 5.22626-2.6131a33.97507 33.97507 0 0 1 13.3139 7.88568zm-8.22473-19.24621v11.20758a35.93081 35.93081 0 0 0 -7-2.43451v-10.3288z"/><path d="m28 30h8v2h-8z"/><path d="m28 34h8v2h-8z"/><path d="m28 38h8v2h-8z"/><path d="m18 40h5v2h-5z"/><path d="m41 40h5v2h-5z"/><path d="m18 44h5v2h-5z"/><path d="m41 44h5v2h-5z"/><path d="m25 10.78027c0 3.60157 4.52246 6.84034 6.4668 8.06592a1.0011 1.0011 0 0 0 1.0664 0c1.94434-1.22558 6.4668-4.46435 6.4668-8.06592a3.61276 3.61276 0 0 0 -2.88477-3.66064 4.631 4.631 0 0 0 -4.11523 1.05127 4.63238 4.63238 0 0 0 -4.11523-1.05127 3.61276 3.61276 0 0 0 -2.88477 3.66064zm3.3457-1.71435a2.47343 2.47343 0 0 1 .56739-.06446 2.42012 2.42012 0 0 1 2.19336 1.25782 1.04108 1.04108 0 0 0 1.7871 0 2.48611 2.48611 0 0 1 2.76075-1.19336 1.6393 1.6393 0 0 1 1.3457 1.71435c0 1.98389-2.584 4.4043-5 6.02686-2.416-1.62256-5-4.043-5-6.02686a1.6393 1.6393 0 0 1 1.3457-1.71435z"/><path d="m41 10h3v2h-3z"/><path d="m20 10h3v2h-3z"/><path d="m23.575 3.075h2v3h-2z" transform="matrix(.707 -.707 .707 .707 3.961 18.715)"/><path d="m37.925 3.576h3v2h-3z" transform="matrix(.707 -.707 .707 .707 8.312 29.218)"/><path d="m31 1h2v3h-2z"/><path d="m9 34a8 8 0 1 0 -8-8 8.00917 8.00917 0 0 0 8 8zm2-2.35a5.88865 5.88865 0 0 1 -4 0v-2.65a1.001 1.001 0 0 1 1-1h2a1.001 1.001 0 0 1 1 1zm-3-6.65a1 1 0 1 1 1 1 1.001 1.001 0 0 1 -1-1zm1-5a5.99129 5.99129 0 0 1 4 10.45953v-1.45953a2.9934 2.9934 0 0 0 -1.40137-2.52917 2.9635 2.9635 0 0 0 .40137-1.47083 3 3 0 0 0 -6 0 2.96355 2.96355 0 0 0 .40143 1.47083 2.99332 2.99332 0 0 0 -1.40143 2.52917v1.45953a5.99129 5.99129 0 0 1 4-10.45953z"/><path d="m52.76562 34a.96606.96606 0 0 0 .09864-.00488c.26367-.02588 6.4873-.68506 8.98437-4.64258 2.51953-3.99365.13477-9.522.03223-9.75537a.98525.98525 0 0 0 -1.01367-.59229c-.26367.02588-6.48731.68506-8.98438 4.64258-2.51953 3.99365-.13476 9.522-.03222 9.75537a1.00048 1.00048 0 0 0 .91503.59717zm7.39161-5.71484c-1.1839 1.87707-3.61615 2.83307-5.39093 3.3034a56.83727 56.83727 0 0 1 3.53155-6.03241c.26965-.40289 1.40894-2.01831 2.33637-3.32446.41595 1.67523.71378 4.16644-.47699 6.05347zm-6.583-3.57032c1.12836-1.789 3.3952-2.74273 5.14227-3.2359-.86566 1.22071-1.821 2.57654-2.08075 2.96442a58.91774 58.91774 0 0 0 -3.59094 6.11987c-.38673-1.66931-.61152-4.04034.52941-5.84839z"/></svg>