<svg id="Layer_1" height="512" viewBox="0 0 64 64" width="512" xmlns="http://www.w3.org/2000/svg" data-name="Layer 1"><path d="m18.48779 55.13086-.8999-.50293q.02929-.31641.0293-.62793 0-.312-.0293-.62793l.89941-.50293a1.001 1.001 0 0 0 .47852-1.13086 8.93827 8.93827 0 0 0 -2.47705-4.165 1.00041 1.00041 0 0 0 -1.17725-.14844l-.86718.48536a.15041.15041 0 0 1 -.10059.01562 12.5478 12.5478 0 0 0 -1.13818-.66406v-.96776a1 1 0 0 0 -.74121-.96583 10.07692 10.07692 0 0 0 -2.58252-.32717 9.55434 9.55434 0 0 0 -2.3462.33105 1.00054 1.00054 0 0 0 -.74121.96582l-.00879.999a7.72033 7.72033 0 0 0 -1.13037.62988.14689.14689 0 0 1 -.09863-.0166l-.86377-.48243a1.00117 1.00117 0 0 0 -1.17676.14844 8.93 8.93 0 0 0 -2.48242 4.16211 1.001 1.001 0 0 0 .47852 1.13086l.8999.50293q-.0293.31641-.0293.62793 0 .312.0293.62793l-.89941.50293a1.00045 1.00045 0 0 0 -.47852 1.13086 8.927 8.927 0 0 0 2.477 4.165 1.00032 1.00032 0 0 0 1.17725.14844l.86718-.48536a.117.117 0 0 1 .10059-.01562 12.644 12.644 0 0 0 1.13818.66406v.96777a1 1 0 0 0 .74121.96583 9.50046 9.50046 0 0 0 2.46002.32817c.04052 0 .08154-.001.12255-.001a9.55434 9.55434 0 0 0 2.3462-.33105 1.00054 1.00054 0 0 0 .74121-.96582l.00879-.999a7.75026 7.75026 0 0 0 1.13085-.62988.12542.12542 0 0 1 .09815.0166l.86377.48243a1.00079 1.00079 0 0 0 1.17676-.14844 8.93 8.93 0 0 0 2.48242-4.16211 1.001 1.001 0 0 0 -.47852-1.13087zm-2.96826-2.11035a4.96077 4.96077 0 0 1 0 1.959 1.00061 1.00061 0 0 0 .49463 1.06049l.77979.43555a6.93 6.93 0 0 1 -1.18848 1.97265l-.1875-.10449a2.10232 2.10232 0 0 0 -2.18945.07031 5.73191 5.73191 0 0 1 -.83838.4668 2.03512 2.03512 0 0 0 -1.18457 1.85742v.15918a7.25981 7.25981 0 0 1 -2.41114.00293v-.16211a2.03512 2.03512 0 0 0 -1.18457-1.85742 5.69026 5.69026 0 0 1 -.83593-.46582 2.113 2.113 0 0 0 -2.19288-.07129l-.19043.10645a6.91029 6.91029 0 0 1 -1.18457-1.97461l.77979-.43555a1.00061 1.00061 0 0 0 .49463-1.06055 4.96077 4.96077 0 0 1 0-1.959 1.00061 1.00061 0 0 0 -.49463-1.06045l-.77979-.43555a6.93 6.93 0 0 1 1.18848-1.97265l.187.10449a2.10981 2.10981 0 0 0 2.18994-.07031 5.73191 5.73191 0 0 1 .83838-.4668 2.03512 2.03512 0 0 0 1.18457-1.85742v-.15918a7.11564 7.11564 0 0 1 1.1128-.10156 6.54781 6.54781 0 0 1 1.29834.09863v.16211a2.03512 2.03512 0 0 0 1.18457 1.85742 5.75092 5.75092 0 0 1 .83593.46484 2.1108 2.1108 0 0 0 2.19288.07227l.19043-.10645a6.9326 6.9326 0 0 1 1.18463 1.97457l-.77979.43555a1.00061 1.00061 0 0 0 -.49468 1.06055z"/><path d="m10 50.14258a3.85742 3.85742 0 1 0 3.85693 3.85742 3.86142 3.86142 0 0 0 -3.85693-3.85742zm0 5.71484a1.85742 1.85742 0 1 1 1.85693-1.85742 1.85912 1.85912 0 0 1 -1.85693 1.85742z"/><path d="m53.47607 52.62109-12-6.5a.98864.98864 0 0 0 -.47607-.12109h-22v2h21v2h-19v2h19v3h-19v2h19v2h-21v2h22a.98864.98864 0 0 0 .47607-.12109l12-6.5a.99917.99917 0 0 0 0-1.75782zm-7.47607 3.53327-4 2.16664v-9.642l4 2.16668zm2-1.08336v-3.142l2.90039 1.571z"/><path d="m61 12h-8v-9a2.00229 2.00229 0 0 0 -2-2h-21a2.00229 2.00229 0 0 0 -2 2v18h-6a2.00229 2.00229 0 0 0 -2 2v14a.99974.99974 0 0 0 1 1h16a.99974.99974 0 0 0 1-1v-5h4v7a.99974.99974 0 0 0 1 1h12v-2h-11v-24h17v2h-15v2h15v20.5h2v-24.5a2.00229 2.00229 0 0 0 -2-2zm-25 13h-12v2h12v9h-14v-13h14zm15-20h-19v2h19v5h-7a2.00229 2.00229 0 0 0 -2 2v16h-4v-7a2.00229 2.00229 0 0 0 -2-2h-6v-18h21z"/><path d="m57 52.5h2v2h-2z"/><path d="m61 52.5h2v2h-2z"/><path d="m61 48.5h2v2h-2z"/><path d="m61 44.5h2v2h-2z"/><path d="m61 40.5h2v2h-2z"/></svg>