<svg id="Layer_1" height="512" viewBox="0 0 64 64" width="512" xmlns="http://www.w3.org/2000/svg" data-name="Layer 1"><path d="m51 43v-15a.9989.9989 0 0 0 -.68359-.94824l-8.31641-2.77216v-5.2796a2.0026 2.0026 0 0 0 -2-2h-1.58594l-5.707-5.707a.99962.99962 0 0 0 -1.41406 0l-5.70706 5.707h-1.58594a2.0026 2.0026 0 0 0 -2 2v5.2796l-8.31641 2.77216a.9989.9989 0 0 0 -.68359.94824v15a.99943.99943 0 0 0 1 1h8a.99943.99943 0 0 0 1 1h18a.99943.99943 0 0 0 1-1h8a.99943.99943 0 0 0 1-1zm-29-1h-7v-13.2793l7-2.33362zm10-28.58594 3.58594 3.58594h-7.17188zm2 29.58594h-4v-3h4zm6 0h-4v-4a.99943.99943 0 0 0 -1-1h-6a.99943.99943 0 0 0 -1 1v4h-4v-24h16zm9-1h-7v-15.61292l7 2.33362z"/><path d="m26 22h12v2h-12z"/><path d="m26 26h12v2h-12z"/><path d="m26 30h12v2h-12z"/><path d="m26 34h12v2h-12z"/><path d="m16.5 32h4v2h-4z"/><path d="m43.5 32h4v2h-4z"/><path d="m16.5 36h4v2h-4z"/><path d="m43.5 36h4v2h-4z"/><path d="m6 11a5 5 0 1 0 -5-5 5.00588 5.00588 0 0 0 5 5zm0-8a3 3 0 1 1 -3 3 3.00328 3.00328 0 0 1 3-3z"/><path d="m58 1a5 5 0 1 0 5 5 5.00588 5.00588 0 0 0 -5-5zm0 8a3 3 0 1 1 3-3 3.00328 3.00328 0 0 1 -3 3z"/><path d="m6 53a5 5 0 1 0 5 5 5.00588 5.00588 0 0 0 -5-5zm0 8a3 3 0 1 1 3-3 3.00328 3.00328 0 0 1 -3 3z"/><path d="m58 53a5 5 0 1 0 5 5 5.00588 5.00588 0 0 0 -5-5zm0 8a3 3 0 1 1 3-3 3.00328 3.00328 0 0 1 -3 3z"/><path d="m49 45.757h2v8.485h-2z" transform="matrix(.707 -.707 .707 .707 -20.711 50)"/><path d="m14 9.343h2v11.314h-2z" transform="matrix(.707 -.707 .707 .707 -6.213 15)"/><path d="m43.343 14h11.314v2h-11.314z" transform="matrix(.707 -.707 .707 .707 3.745 39.042)"/><path d="m9.757 49h8.485v2h-8.485z" transform="matrix(.707 -.707 .707 .707 -31.255 24.544)"/></svg>