<?xml version="1.0" encoding="UTF-8"?>
<svg xmlns="http://www.w3.org/2000/svg" id="Layer_1" data-name="Layer 1" viewBox="0 0 64 64" width="512" height="512"><path d="M42,59H54a1,1,0,0,0,1-1V50a4.99373,4.99373,0,0,0-3.29022-4.67938,5.0001,5.0001,0,1,0-7.41956,0A4.99373,4.99373,0,0,0,41,50v8A1,1,0,0,0,42,59Zm6-20a2.98179,2.98179,0,0,1,2.21973,1H45.78027A2.98179,2.98179,0,0,1,48,39Zm3,3a3,3,0,0,1-6,0Zm-2.10352,9.852L48,53.19727l-.89648-1.34522L48,49.16211ZM43,50a3.00328,3.00328,0,0,1,3-3h.61249l-1.56122,4.68359a.99938.99938,0,0,0,.1167.8711l2,3a.99995.99995,0,0,0,1.66406,0l2-3a.99938.99938,0,0,0,.1167-.8711L49.38751,47H50a3.00328,3.00328,0,0,1,3,3v7H43Z"/><path d="M19.70758,45.31989a4.95494,4.95494,0,0,0,1.289-3.13,5.00021,5.00021,0,1,0-8.71777,3.13422A4.99412,4.99412,0,0,0,9,50v8a1,1,0,0,0,1,1H22a1,1,0,0,0,1-1V50A4.99367,4.99367,0,0,0,19.70758,45.31989ZM15.99854,39c.03808,0,.07666.001.11523.00244A2.986,2.986,0,0,1,18.22852,40H13.78235A2.983,2.983,0,0,1,15.99854,39Zm2.99188,3c0,.03851.0086.075.00714.11377A2.995,2.995,0,0,1,13.00958,42Zm-2.09394,9.852L16,53.19727l-.89648-1.34522L16,49.16211ZM21,57H11V50a3.00328,3.00328,0,0,1,3-3h.61249l-1.56122,4.68359a.99938.99938,0,0,0,.1167.8711l2,3a.99995.99995,0,0,0,1.66406,0l2-3a.99938.99938,0,0,0,.1167-.8711L17.38751,47H18a3.00328,3.00328,0,0,1,3,3Z"/><path d="M62,33H2a1,1,0,0,0-1,1V62a1,1,0,0,0,1,1H62a1,1,0,0,0,1-1V34A1,1,0,0,0,62,33ZM32,51a1,1,0,0,0-1,1v9H3V35H31V45a1,1,0,0,0,1,1h.5a2.5,2.5,0,0,1,0,5ZM61,61H33V52.97217a4.5,4.5,0,0,0,0-8.94434V35H61Z"/><path d="M32,6a9,9,0,1,0,9,9A9.01047,9.01047,0,0,0,32,6Zm0,16a7,7,0,1,1,7-7A7.00787,7.00787,0,0,1,32,22Z"/><path d="M33,10.18427V9H31v1.18427A2.99257,2.99257,0,0,0,32,16a1,1,0,1,1-1,1v-.3999H29V17a2.995,2.995,0,0,0,2,2.81567V21h2V19.81573A2.99257,2.99257,0,0,0,32,14a1,1,0,1,1,1-1v.3999h2V13A2.99507,2.99507,0,0,0,33,10.18427Z"/><path d="M7.186,12.419l-5,7L3.814,20.58105l4.604-6.4458,7.33935,1.835.48536-1.94042-8-2A1.00243,1.00243,0,0,0,7.186,12.419Z"/><path d="M57.36035,7.77441,59.293,9.707a1,1,0,0,0,1.69336-.54248l1-6a1.00006,1.00006,0,0,0-1.15088-1.15088l-6,1A1,1,0,0,0,54.293,4.707l1.65161,1.65161L47.32422,14.2627l1.35156,1.4746Zm2.42334-3.5581L59.333,6.919l-2.252-2.252Z"/><path d="M43.86426,18.7666a.28626.28626,0,0,1,.249-.22119h.63379a1.00073,1.00073,0,0,0,.981-.80518,13.94056,13.94056,0,0,0,0-5.48046,1.00073,1.00073,0,0,0-.981-.80518h-.63379a.28626.28626,0,0,1-.249-.22119v-.001a12.40363,12.40363,0,0,0-.813-1.95508.28853.28853,0,0,1,.01953-.33447L43.52,8.49414A.99994.99994,0,0,0,43.645,7.231a13.98818,13.98818,0,0,0-3.876-3.876,1.00007,1.00007,0,0,0-1.26318.125l-.44824.44873a.288.288,0,0,1-.334.02,12.42436,12.42436,0,0,0-1.957-.813.28626.28626,0,0,1-.22119-.249V2.25293a1.00073,1.00073,0,0,0-.80518-.981,13.98961,13.98961,0,0,0-5.48046,0,1.00073,1.00073,0,0,0-.80518.981v.63379a.28607.28607,0,0,1-.22217.249,12.42327,12.42327,0,0,0-1.95459.8125.28771.28771,0,0,1-.335-.019L25.49414,3.48A.99945.99945,0,0,0,24.231,3.355a13.98818,13.98818,0,0,0-3.876,3.876.99994.99994,0,0,0,.125,1.26318l.44873.44824a.28716.28716,0,0,1,.02.334,12.42436,12.42436,0,0,0-.813,1.957.28626.28626,0,0,1-.249.22119h-.63379a1.00073,1.00073,0,0,0-.981.80518,13.94056,13.94056,0,0,0,0,5.48046,1.00073,1.00073,0,0,0,.981.80518h.63379a.28607.28607,0,0,1,.249.22217,12.40363,12.40363,0,0,0,.813,1.95508.28853.28853,0,0,1-.01953.33447l-.44922.44873a.99994.99994,0,0,0-.125,1.26318,13.99314,13.99314,0,0,0,3.876,3.87549A.99673.99673,0,0,0,25.49414,26.52l.44824-.44873a.28563.28563,0,0,1,.334-.02,12.42436,12.42436,0,0,0,1.957.813.28626.28626,0,0,1,.22119.249v.63379a1.00073,1.00073,0,0,0,.80518.981,13.94056,13.94056,0,0,0,5.48046,0,1.00073,1.00073,0,0,0,.80518-.981v-.63379a.28607.28607,0,0,1,.22217-.249,12.40363,12.40363,0,0,0,1.95508-.813.28925.28925,0,0,1,.33447.01953l.44873.44922a.99741.99741,0,0,0,1.26318.12451A13.99314,13.99314,0,0,0,43.645,22.769a.99994.99994,0,0,0-.125-1.26318l-.44873-.44824a.28716.28716,0,0,1-.02-.334A12.42436,12.42436,0,0,0,43.86426,18.7666ZM41.958,18.16113a10.36609,10.36609,0,0,1-.68115,1.63965,2.28253,2.28253,0,0,0,.23584,2.51172,11.98574,11.98574,0,0,1-2.2002,2.19971,2.28546,2.28546,0,0,0-2.5127-.23535,10.345,10.345,0,0,1-1.63769.68115,2.282,2.282,0,0,0-1.606,1.93945,11.94424,11.94424,0,0,1-3.1123,0,2.28233,2.28233,0,0,0-1.605-1.93945,10.36609,10.36609,0,0,1-1.63965-.68115,2.28091,2.28091,0,0,0-2.51172.23584,12.00365,12.00365,0,0,1-2.2002-2.2002,2.28388,2.28388,0,0,0,.23584-2.5127,10.345,10.345,0,0,1-.68115-1.63769,2.282,2.282,0,0,0-1.93945-1.606,11.85936,11.85936,0,0,1,0-3.1123,2.28233,2.28233,0,0,0,1.93945-1.605,10.36609,10.36609,0,0,1,.68115-1.63965A2.28253,2.28253,0,0,0,22.4873,7.6875a11.97349,11.97349,0,0,1,2.2002-2.2002,2.287,2.287,0,0,0,2.5127.23584A10.345,10.345,0,0,1,28.83789,5.042a2.282,2.282,0,0,0,1.606-1.93945,11.94424,11.94424,0,0,1,3.1123,0,2.28233,2.28233,0,0,0,1.605,1.93945,10.34671,10.34671,0,0,1,1.64014.68164A2.28334,2.28334,0,0,0,39.3125,5.4873a11.97349,11.97349,0,0,1,2.2002,2.2002,2.28378,2.28378,0,0,0-.23584,2.5127,10.35179,10.35179,0,0,1,.68115,1.63769,2.282,2.282,0,0,0,1.93945,1.606,11.85936,11.85936,0,0,1,0,3.1123A2.28233,2.28233,0,0,0,41.958,18.16113Z"/></svg>
