<?xml version="1.0" encoding="UTF-8"?>
<svg xmlns="http://www.w3.org/2000/svg" id="Layer_1" data-name="Layer 1" viewBox="0 0 64 64" width="512" height="512"><path d="M40,8A16,16,0,1,0,56,24,16.01833,16.01833,0,0,0,40,8Zm0,30a14.00216,14.00216,0,0,1-2.745-.27374L37.61816,37h4.76368l.36316.72626A14.00216,14.00216,0,0,1,40,38Zm4.70306-.83014-.80853-1.61713A.99985.99985,0,0,0,43,35H41V19h5.38184l-2,4H44a.99974.99974,0,0,0-1,1,5,5,0,0,0,10,0,.99974.99974,0,0,0-1-1h-.38184l-2.72363-5.44727A.97781.97781,0,0,0,48,17.04443V17H41V15H39v2H32v.04443a.97781.97781,0,0,0-.89453.5083L28.38184,23H28a.99974.99974,0,0,0-1,1,5,5,0,0,0,10,0,.99974.99974,0,0,0-1-1h-.38184l-2-4H39V35H37a.99985.99985,0,0,0-.89453.55273l-.80853,1.61713a14,14,0,1,1,9.40612,0ZM50.82861,25a3.00026,3.00026,0,0,1-5.65722,0Zm-4.21045-2L48,20.23633,49.38184,23Zm-16,0L32,20.23633,33.38184,23Zm4.21045,2a3.00026,3.00026,0,0,1-5.65722,0Z"/><path d="M61.5835,18.76465H60.15479a1.11731,1.11731,0,0,1-1.04737-.832,19.929,19.929,0,0,0-1.3081-3.14844,1.11908,1.11908,0,0,1,.15283-1.332l1.01611-1.0166a1.00072,1.00072,0,0,0,.12207-1.26563,23.00771,23.00771,0,0,0-6.26074-6.25976.99746.99746,0,0,0-1.26563.12207l-1.0166,1.01562a1.11437,1.11437,0,0,1-1.33154.15235,19.97231,19.97231,0,0,0-3.14893-1.30762,1.117,1.117,0,0,1-.83154-1.04688V2.417a1,1,0,0,0-.80859-.98144,22.814,22.814,0,0,0-8.85352,0,1,1,0,0,0-.80859.98144V3.8457a1.117,1.117,0,0,1-.83154,1.04688,19.90979,19.90979,0,0,0-3.14942,1.30859,1.125,1.125,0,0,1-1.33154-.15332L28.436,5.03223a.99751.99751,0,0,0-1.26563-.12207,23.00771,23.00771,0,0,0-6.26074,6.25976,1.00072,1.00072,0,0,0,.12207,1.26563l1.0166,1.0166a1.11976,1.11976,0,0,1,.15234,1.332,19.929,19.929,0,0,0-1.3081,3.14844,1.11731,1.11731,0,0,1-1.04737.832H18.4165a1,1,0,0,0-.98144.80859,22.7388,22.7388,0,0,0,0,8.85352,1,1,0,0,0,.98144.80859h1.42871a1.11731,1.11731,0,0,1,1.04737.832,19.97374,19.97374,0,0,0,1.3081,3.14844,1.11976,1.11976,0,0,1-.15234,1.332l-1.01611,1.01563a.99991.99991,0,0,0-.12256,1.26562,22.984,22.984,0,0,0,6.26074,6.26074.9974.9974,0,0,0,1.26563-.12207l1.0166-1.01562a1.11437,1.11437,0,0,1,1.33154-.15235,19.97231,19.97231,0,0,0,3.14893,1.30762,1.117,1.117,0,0,1,.83154,1.04688V45.583a1,1,0,0,0,.80859.98144,22.7137,22.7137,0,0,0,8.85352,0,1,1,0,0,0,.80859-.98144V44.1543a1.117,1.117,0,0,1,.83154-1.04688,19.90979,19.90979,0,0,0,3.14942-1.30859,1.11934,1.11934,0,0,1,1.33154.15332L51.564,42.96777a.99746.99746,0,0,0,1.26563.12207,22.984,22.984,0,0,0,6.26074-6.26074.99991.99991,0,0,0-.12256-1.26562l-1.01611-1.01563a1.11976,1.11976,0,0,1-.15234-1.332,19.97374,19.97374,0,0,0,1.3081-3.14844,1.11731,1.11731,0,0,1,1.04737-.832H61.5835a1,1,0,0,0,.98144-.80859,22.7388,22.7388,0,0,0,0-8.85352A1,1,0,0,0,61.5835,18.76465Zm-.83936,8.4707h-.58935a3.12154,3.12154,0,0,0-2.95362,2.22656,18.01777,18.01777,0,0,1-1.17627,2.832,3.12174,3.12174,0,0,0,.5127,3.668l.42236.42188A20.96629,20.96629,0,0,1,52.38428,40.96l-.42188-.42187a3.12634,3.12634,0,0,0-3.66845-.51368,17.88369,17.88369,0,0,1-2.83252,1.17676,3.122,3.122,0,0,0-2.22608,2.95313v.58984a20.66159,20.66159,0,0,1-6.4707,0V44.1543a3.122,3.122,0,0,0-2.22608-2.95313,17.947,17.947,0,0,1-2.832-1.17578,3.11683,3.11683,0,0,0-3.66845.5127l-.42237.42187A20.96629,20.96629,0,0,1,23.04,36.38379l.42236-.42188a3.12174,3.12174,0,0,0,.5127-3.668,18.01777,18.01777,0,0,1-1.17627-2.832,3.12154,3.12154,0,0,0-2.95362-2.22656h-.58935a20.58343,20.58343,0,0,1,0-6.4707h.58935a3.12154,3.12154,0,0,0,2.95362-2.22656,17.965,17.965,0,0,1,1.17627-2.832,3.1224,3.1224,0,0,0-.51221-3.668L23.04,11.61523A20.98328,20.98328,0,0,1,27.61572,7.04l.42188.42187a3.12377,3.12377,0,0,0,3.66845.51368,17.88369,17.88369,0,0,1,2.83252-1.17676A3.122,3.122,0,0,0,36.76465,3.8457V3.25586a20.66159,20.66159,0,0,1,6.4707,0V3.8457a3.122,3.122,0,0,0,2.22608,2.95313,17.947,17.947,0,0,1,2.832,1.17578,3.11993,3.11993,0,0,0,3.66845-.5127L52.38428,7.04A20.98328,20.98328,0,0,1,56.96,11.61523l-.42236.42286a3.12174,3.12174,0,0,0-.5127,3.668,17.965,17.965,0,0,1,1.17627,2.832,3.122,3.122,0,0,0,2.95362,2.22656h.58935a20.58343,20.58343,0,0,1,0,6.4707Z"/><path d="M9,63H19a.99974.99974,0,0,0,1-1h6a.99974.99974,0,0,0,1-1V50a1.00093,1.00093,0,0,0-.7251-.96191L20,47.24524V45a2.00229,2.00229,0,0,0-2-2h-.50049L14.7998,39.40039a1.03525,1.03525,0,0,0-1.5996,0L10.50049,43H10a2.00229,2.00229,0,0,0-2,2v2.24524L1.7251,49.03809A1.00093,1.00093,0,0,0,1,50V61a.99974.99974,0,0,0,1,1H8A.99974.99974,0,0,0,9,63ZM20,49.326l5,1.42792V60H20ZM15,61H13V59h2ZM14,41.667,15.00006,43H12.99994ZM10,45h8V61H17V58a.99974.99974,0,0,0-1-1H12a.99974.99974,0,0,0-1,1v3H10ZM3,50.75391,8,49.326V60H3Z"/><rect x="11.5" y="46" width="5" height="2"/><rect x="11.5" y="50" width="5" height="2"/><rect x="11.5" y="54" width="5" height="2"/><rect x="4" y="52" width="3" height="2"/><rect x="21" y="52" width="3" height="2"/><rect x="4" y="55" width="3" height="2"/><rect x="21" y="55" width="3" height="2"/></svg>
