<svg id="Layer_1" height="512" viewBox="0 0 64 64" width="512" xmlns="http://www.w3.org/2000/svg" data-name="Layer 1"><path d="m20 62h6a.99974.99974 0 0 0 1 1h10a.99974.99974 0 0 0 1-1h6a.99974.99974 0 0 0 1-1v-11a.99979.99979 0 0 0 -.72559-.96143l-6.27441-1.79266v-2.24591a2.00229 2.00229 0 0 0 -2-2h-.50012l-2.70008-3.6001a1.03527 1.03527 0 0 0 -1.5996 0l-2.70008 3.6001h-.50012a2.00229 2.00229 0 0 0 -2 2v2.24591l-6.27441 1.79266a.99979.99979 0 0 0 -.72559.96143v11a.99974.99974 0 0 0 1 1zm18-12.67438 5 1.42877v9.24561h-5zm-5 11.67438h-2v-2h2zm-1-19.3335 1.00012 1.3335h-2.00024zm-4 3.3335h8v16h-1v-3a.99974.99974 0 0 0 -1-1h-4a.99974.99974 0 0 0 -1 1v3h-1zm-7 5.75439 5-1.42877v10.67438h-5z"/><path d="m29.5 46h5v2h-5z"/><path d="m29.5 50h5v2h-5z"/><path d="m29.5 54h5v2h-5z"/><path d="m22 52h3v2h-3z"/><path d="m39 52h3v2h-3z"/><path d="m22 55h3v2h-3z"/><path d="m39 55h3v2h-3z"/><path d="m8.7041 16.374a.98156.98156 0 0 0 .78137-.40283l7.36707.89551a1.008 1.008 0 0 0 .12109.00732 1.639 1.639 0 0 0 1.62989-1.48584l1.249-4.99658a.97188.97188 0 0 0 .03027-.24267 1.63834 1.63834 0 0 0 -1.6367-1.63621h-2.18066v-1.1875a2.26951 2.26951 0 0 0 -1.72168-2.20459l-.78906-.19727a1.63676 1.63676 0 0 0 -2.03418 1.5874v1.49365l-.31153.62354-1.60711.32159a.99452.99452 0 0 0 -.89777-.57552h-3a.99974.99974 0 0 0 -1 1v6a.99974.99974 0 0 0 1 1zm3.37695-5.88086a.99853.99853 0 0 0 .69825-.53369l.6357-1.27245a.99856.99856 0 0 0 .10547-.44678v-1.26366l.33887.08448a.27217.27217 0 0 1 .206.26416v2.1875a.99974.99974 0 0 0 1 1h2.69531l-1.0791 4.31835-6.91016-.83984-.05273-3.02539zm-5.37695-.11914h1v4h-1z"/><path d="m54.24707 40.21143a1 1 0 0 0 1.4707-1.03614l-.44043-2.69922 1.85645-1.90283a1.00028 1.00028 0 0 0 -.56445-1.687l-2.52534-.38524-1.13873-2.4258a1 1 0 0 0 -1.81054 0l-1.13868 2.4258-2.52539.38525a1.00028 1.00028 0 0 0 -.56445 1.687l1.85645 1.90283-.44043 2.69922a1 1 0 0 0 1.4707 1.03614l2.24707-1.24171zm-3.65918-2.74659.19043-1.16455a1.00078 1.00078 0 0 0 -.27148-.85937l-.84961-.8711 1.1289-.17236a1.00192 1.00192 0 0 0 .75391-.564l.46-.98.46.98a1.00192 1.00192 0 0 0 .75391.564l1.1289.17236-.84961.8711a1.00078 1.00078 0 0 0 -.27148.85937l.19043 1.16455-.92871-.51269a.9972.9972 0 0 0 -.9668 0z"/><path d="m15.52344 30.61426a4.11978 4.11978 0 0 0 -3.52344.77588 4.1262 4.1262 0 0 0 -3.52344-.77588 3.10193 3.10193 0 0 0 -2.47656 3.10986c0 2.99317 3.834 5.63477 5.48242 6.63184a1.00193 1.00193 0 0 0 1.03516 0c1.64842-.99707 5.48242-3.63867 5.48242-6.63184a3.10193 3.10193 0 0 0 -2.47656-3.10986zm-3.52344 7.70508c-2.06641-1.3462-4-3.19971-4-4.59522a1.13187 1.13187 0 0 1 .9541-1.16748 1.97023 1.97023 0 0 1 .47266-.05566 1.88632 1.88632 0 0 1 1.6875.91064 1.04064 1.04064 0 0 0 1.77148 0 1.96763 1.96763 0 0 1 2.16016-.855 1.13187 1.13187 0 0 1 .9541 1.1675c0 1.39551-1.93359 3.24902-4 4.59522z"/><path d="m58 7h-11a.99974.99974 0 0 0 -1 1v7a.99974.99974 0 0 0 1 1h2.65332l.36035 2.16455a.99966.99966 0 0 0 1.63672.59473l3.21973-2.75928h3.12988a.99974.99974 0 0 0 1-1v-7a.99974.99974 0 0 0 -1-1zm-1 7h-2.5a.99906.99906 0 0 0 -.65039.24072l-2.1543 1.84668-.209-1.25195a.99949.99949 0 0 0 -.98631-.83545h-2.5v-5h9z"/><path d="m12 23a11 11 0 1 0 -11-11 11.01245 11.01245 0 0 0 11 11zm0-20a9 9 0 1 1 -9 9 9.01016 9.01016 0 0 1 9-9z"/><path d="m62 35a10 10 0 1 0 -10 10 10.01146 10.01146 0 0 0 10-10zm-18 0a8 8 0 1 1 8 8 8.00917 8.00917 0 0 1 -8-8z"/><path d="m52 1a11 11 0 1 0 11 11 11.01245 11.01245 0 0 0 -11-11zm0 20a9 9 0 1 1 9-9 9.01016 9.01016 0 0 1 -9 9z"/><path d="m22 35a10 10 0 1 0 -10 10 10.01146 10.01146 0 0 0 10-10zm-10 8a8 8 0 1 1 8-8 8.00917 8.00917 0 0 1 -8 8z"/><path d="m35 16h-6a.99974.99974 0 0 0 -1 1v10h-2a.99981.99981 0 0 0 -.7998 1.6001l6 8a.99975.99975 0 0 0 1.5996 0l6-8a.99981.99981 0 0 0 -.7998-1.6001h-2v-10a.99974.99974 0 0 0 -1-1zm-3 18.3335-4-5.3335h1a.99974.99974 0 0 0 1-1v-10h4v10a.99974.99974 0 0 0 1 1h1z"/></svg>