<svg id="Layer_1" height="512" viewBox="0 0 64 64" width="512" xmlns="http://www.w3.org/2000/svg" data-name="Layer 1"><path d="m2 55h8.70013a11.99427 11.99427 0 1 0 11.29987-16v-10a1.00144 1.00144 0 0 0 -.356-.76514l-9.5-8a.99969.99969 0 0 0 -1.28808 0l-9.5 8a1.00144 1.00144 0 0 0 -.35592.76514v25a1 1 0 0 0 1 1zm20-14a10 10 0 1 1 -10 10 10.01114 10.01114 0 0 1 10-10zm-19-11.53467 8.5-7.1582 8.5 7.1582v9.71533a11.90554 11.90554 0 0 0 -9.81934 13.81934h-7.18066z"/><path d="m15 29.5a3.5 3.5 0 1 0 -3.5 3.5 3.50424 3.50424 0 0 0 3.5-3.5zm-5 0a1.5 1.5 0 1 1 1.5 1.5 1.50164 1.50164 0 0 1 -1.5-1.5z"/><path d="m63 2.96826a1.9703 1.9703 0 0 0 -1.96826-1.96826h-13.06348a1.9703 1.9703 0 0 0 -1.96826 1.96826v14.06348a1.9703 1.9703 0 0 0 1.96826 1.96826h13.06348a1.9703 1.9703 0 0 0 1.96826-1.96826zm-2 14.03174-13 .03174-.03174-14.03174 13.03174-.03174z"/><path d="m63 23a2.002 2.002 0 0 0 -2-2h-13a2.002 2.002 0 0 0 -2 2v13a2.002 2.002 0 0 0 2 2h13a2.002 2.002 0 0 0 2-2zm-15 13v-13h13l.00146 13z"/><path d="m63 42a2.002 2.002 0 0 0 -2-2h-13a2.002 2.002 0 0 0 -2 2v13a2.002 2.002 0 0 0 2 2h13a2.002 2.002 0 0 0 2-2zm-5 13h-7v-3a2.002 2.002 0 0 1 2-2h3a2.002 2.002 0 0 1 2 2zm-5-8.5a1.5 1.5 0 1 1 1.5 1.5 1.50164 1.50164 0 0 1 -1.5-1.5zm7 8.5v-3a4.0012 4.0012 0 0 0 -2.511-3.70587 3.46222 3.46222 0 0 0 .511-1.79413 3.5 3.5 0 0 0 -7 0 3.46222 3.46222 0 0 0 .511 1.79413 4.0012 4.0012 0 0 0 -2.511 3.70587v3h-1v-13h13l.00146 13z"/><path d="m52 28h2v7h-2z"/><path d="m49 30h2v5h-2z"/><path d="m55 26h2v9h-2z"/><path d="m58 24h2v11h-2z"/><path d="m54.5 13a1.0013 1.0013 0 0 1 -1-1h-2a2.995 2.995 0 0 0 2 2.81567v1.18433h2v-1.18427a2.99257 2.99257 0 0 0 -1-5.81573 1 1 0 1 1 1-1h2a2.99507 2.99507 0 0 0 -2-2.81573v-1.18427h-2v1.18427a2.99257 2.99257 0 0 0 1 5.81573 1 1 0 0 1 0 2z"/><path d="m22 55a4 4 0 1 0 -4-4 4.00458 4.00458 0 0 0 4 4zm0-6a2 2 0 1 1 -2 2 2.002 2.002 0 0 1 2-2z"/><path d="m22 59a8 8 0 1 0 -8-8 8.00917 8.00917 0 0 0 8 8zm0-14a6 6 0 1 1 -6 6 6.00657 6.00657 0 0 1 6-6z"/><path d="m37 50a1 1 0 0 0 1 1h6v-2h-5v-18h5v-2h-5v-18h5v-2h-6a1 1 0 0 0 -1 1v19h-7v2h7z"/><path d="m26 29h2v2h-2z"/></svg>