<?xml version="1.0" encoding="UTF-8"?>
<svg xmlns="http://www.w3.org/2000/svg" id="Layer_1" data-name="Layer 1" viewBox="0 0 64 64" width="512" height="512"><path d="M32.65869,33.24707a1.00008,1.00008,0,0,0-1.31738,0l-8,7A1.00261,1.00261,0,0,0,23,41V62a.99974.99974,0,0,0,1,1H40a.99974.99974,0,0,0,1-1V41a1.00261,1.00261,0,0,0-.34131-.75293ZM39,61H25V41.4541l7-6.125,7,6.125Z"/><path d="M28.5,43.5A3.5,3.5,0,1,0,32,40,3.50424,3.50424,0,0,0,28.5,43.5Zm5,0A1.5,1.5,0,1,1,32,42,1.50164,1.50164,0,0,1,33.5,43.5Z"/><path d="M50.67432,40.26172a.99818.99818,0,0,0-1.34864,0l-6,5.47656A.999.999,0,0,0,43,46.47656V62a.99974.99974,0,0,0,1,1H56a.99974.99974,0,0,0,1-1V46.47656a.999.999,0,0,0-.32568-.73828ZM55,61H45V46.918l5-4.56445L55,46.918Z"/><path d="M47,48a3,3,0,1,0,3-3A3.00328,3.00328,0,0,0,47,48Zm4,0a1,1,0,1,1-1-1A1.001,1.001,0,0,1,51,48Z"/><path d="M14.67432,40.26172a.99818.99818,0,0,0-1.34864,0l-6,5.47656A.999.999,0,0,0,7,46.47656V62a.99974.99974,0,0,0,1,1H20a.99974.99974,0,0,0,1-1V46.47656a.999.999,0,0,0-.32568-.73828ZM19,61H9V46.918l5-4.56445L19,46.918Z"/><path d="M11,48a3,3,0,1,0,3-3A3.00328,3.00328,0,0,0,11,48Zm4,0a1,1,0,1,1-1-1A1.001,1.001,0,0,1,15,48Z"/><path d="M44.00879,28.93945c.50683-2.01269.91748-2.42383,2.93066-2.93066a1.19948,1.19948,0,0,0,0-2.32617H46.939c-2.01269-.50684-2.42334-.918-2.92968-2.92871a1.199,1.199,0,0,0-1.16211-.90918H42.8457a1.19912,1.19912,0,0,0-1.16357.90722c-.50635,2.0127-.917,2.42383-2.93018,2.93067a1.1994,1.1994,0,0,0,.00049,2.32617c2.0127.50683,2.42334.918,2.93018,2.93262a1.199,1.199,0,0,0,1.16308.90429h.00147A1.19883,1.19883,0,0,0,44.00879,28.93945Zm-1.16309-2.5957a3.83278,3.83278,0,0,0-1.498-1.498,3.83276,3.83276,0,0,0,1.498-1.498,3.83087,3.83087,0,0,0,1.49854,1.498A3.8309,3.8309,0,0,0,42.8457,26.34375Z"/><path d="M26.00635,7.2998a1.1976,1.1976,0,0,0-.90674-1.16015c-2.0127-.50684-2.42334-.918-2.93018-2.93164a1.19964,1.19964,0,0,0-2.32666.001c-.50634,2.0127-.917,2.42383-2.92578,2.92969a1.19932,1.19932,0,0,0-.0039,2.32715c2.01269.50684,2.42334.918,2.92968,2.93066a1.2,1.2,0,0,0,2.32666-.001c.50684-2.01172.91748-2.42285,2.93067-2.92969A1.19767,1.19767,0,0,0,26.00635,7.2998Zm-5,1.501a3.82647,3.82647,0,0,0-1.49805-1.498,3.83278,3.83278,0,0,0,1.49805-1.498,3.83276,3.83276,0,0,0,1.498,1.498A3.82645,3.82645,0,0,0,21.00635,8.80078Z"/><path d="M32,25a9,9,0,1,0-9-9A9.01016,9.01016,0,0,0,32,25ZM32,9a7,7,0,1,1-7,7A7.00818,7.00818,0,0,1,32,9Z"/><path d="M28.93164,16.94238,28.541,19.33887a.99976.99976,0,0,0,1.4707,1.03613L32,19.27637,33.98828,20.375a.99976.99976,0,0,0,1.4707-1.03613l-.39062-2.39649,1.64746-1.68847a.99978.99978,0,0,0-.56494-1.68653l-2.23633-.34179L32.90527,11.0752a1,1,0,0,0-1.81054,0l-1.00928,2.15039-2.23633.34179a.99978.99978,0,0,0-.56494,1.68653Zm1.9834-1.82031a.99906.99906,0,0,0,.75439-.56348L32,13.85449l.33057.7041a.99906.99906,0,0,0,.75439.56348l.83984.12891-.64062.65625a.99946.99946,0,0,0-.271.85937l.14063.86231-.66992-.37012a.9991.9991,0,0,0-.96778,0l-.66992.37012.14063-.86231a.99946.99946,0,0,0-.271-.85937L30.0752,15.251Z"/><path d="M39.55273,28.96191,38.544,27.23535a13.00836,13.00836,0,0,1-19.24854-14.0039l-1.95508-.42383A15.01377,15.01377,0,0,0,32,31,14.99171,14.99171,0,0,0,39.55273,28.96191Z"/><path d="M46.40527,20.19531A15.00517,15.00517,0,0,0,24.75684,2.8623l.96679,1.75A13.00815,13.00815,0,0,1,44.48438,19.63672Z"/></svg>
