<?xml version="1.0" encoding="UTF-8"?>
<svg xmlns="http://www.w3.org/2000/svg" id="Layer_1" data-name="Layer 1" viewBox="0 0 64 64" width="512" height="512"><path d="M30.25391,24.93848a.99678.99678,0,0,0,.707-.293l9.19238-9.19239a.9996.9996,0,0,0,.28906-.79736l-.61279-6.74121a1.00084,1.00084,0,0,0-.90576-.90576L32.18262,6.396a1.01442,1.01442,0,0,0-.79737.28906l-9.19238,9.19238a.99964.99964,0,0,0,0,1.41406l7.354,7.354A.99676.99676,0,0,0,30.25391,24.93848Zm2.21435-16.5083,5.44483.49511.49511,5.44483-8.15429,8.15429L24.314,16.58447Z"/><path d="M34.54346,15.02637a2.72747,2.72747,0,0,0,1.9331-.79834v-.00049a2.7384,2.7384,0,1,0-1.9331.79883Zm-.51856-3.25a.73335.73335,0,1,1,0,1.03711A.73123.73123,0,0,1,34.0249,11.77637Z"/><path d="M32,29A14,14,0,1,0,18,15,14.01572,14.01572,0,0,0,32,29ZM32,3A12,12,0,1,1,20,15,12.01375,12.01375,0,0,1,32,3Z"/><path d="M34.86621,47.897A3.52478,3.52478,0,0,0,32,48.4585a3.52079,3.52079,0,0,0-2.86621-.56153A2.70584,2.70584,0,0,0,27,50.57959c0,2.49463,3.13477,4.66064,4.48242,5.47607a.999.999,0,0,0,1.03516,0C33.86523,55.24023,37,53.07422,37,50.57959A2.70584,2.70584,0,0,0,34.86621,47.897ZM32,54.01562c-1.52783-1.019-3-2.42578-3-3.436a.69754.69754,0,0,1,.61133-.74023,1.40428,1.40428,0,0,1,.33642-.03956,1.30118,1.30118,0,0,1,1.16651.62256,1.04064,1.04064,0,0,0,1.77148,0,1.36617,1.36617,0,0,1,1.50293-.583A.69754.69754,0,0,1,35,50.57959C35,51.58984,33.52783,52.99658,32,54.01562Z"/><path d="M18.209,46.87988A2.84459,2.84459,0,0,0,16,47.24463a2.84634,2.84634,0,0,0-2.209-.36475A2.27326,2.27326,0,0,0,12,49.13477c0,1.99853,2.43555,3.6875,3.48242,4.3208a.999.999,0,0,0,1.03516,0C17.56445,52.82227,20,51.1333,20,49.13477A2.27326,2.27326,0,0,0,18.209,46.87988ZM16,51.41113c-1.18506-.81152-2-1.72412-2-2.27636,0-.104,0-.24659.26855-.3125a.8048.8048,0,0,1,.19385-.02247.72761.72761,0,0,1,.65137.333,1.04152,1.04152,0,0,0,1.77246,0,.776.776,0,0,1,.84522-.31054C18,48.88818,18,49.03076,18,49.13477,18,49.687,17.18506,50.59961,16,51.41113Z"/><path d="M52.11584,42.1358a5.5,5.5,0,1,0-8.23168,0,5.00887,5.00887,0,0,0-3.447,2.8396,5.98344,5.98344,0,0,0-3.79064-1.93921,6.5,6.5,0,1,0-9.2931,0,5.98344,5.98344,0,0,0-3.79064,1.93921,5.00887,5.00887,0,0,0-3.447-2.8396,5.5,5.5,0,1,0-8.23168,0A5.002,5.002,0,0,0,8,47V60a1,1,0,0,0,1,1H22v1a1,1,0,0,0,1,1H41a1,1,0,0,0,1-1V61H55a1,1,0,0,0,1-1V47A5.002,5.002,0,0,0,52.11584,42.1358ZM16,35a3.49444,3.49444,0,0,1,2.86456,1.5H13.13544A3.49444,3.49444,0,0,1,16,35Zm3.5,3.5a3.5,3.5,0,0,1-7,0ZM22,59H10V47a3.00328,3.00328,0,0,1,3-3h6a3.00328,3.00328,0,0,1,3,3ZM32,34a4.49774,4.49774,0,0,1,3.73822,2H28.26178A4.49774,4.49774,0,0,1,32,34Zm-4.44946,4h8.89892a4.40284,4.40284,0,0,1,.05054.5,4.5,4.5,0,0,1-9,0A4.40284,4.40284,0,0,1,27.55054,38ZM40,61H24V49a4.00458,4.00458,0,0,1,4-4h8a4.00458,4.00458,0,0,1,4,4Zm8-26a3.49444,3.49444,0,0,1,2.86456,1.5H45.13544A3.49444,3.49444,0,0,1,48,35Zm3.5,3.5a3.5,3.5,0,0,1-7,0ZM54,59H42V47a3.00328,3.00328,0,0,1,3-3h6a3.00328,3.00328,0,0,1,3,3Z"/><path d="M50.209,46.87988A2.84493,2.84493,0,0,0,48,47.24463a2.846,2.846,0,0,0-2.209-.36475A2.27326,2.27326,0,0,0,44,49.13477c0,1.99853,2.43555,3.6875,3.48242,4.3208a.999.999,0,0,0,1.03516,0C49.56445,52.82227,52,51.1333,52,49.13477A2.27326,2.27326,0,0,0,50.209,46.87988ZM48,51.41113c-1.18506-.81152-2-1.72412-2-2.27636,0-.104,0-.24659.26855-.3125a.8048.8048,0,0,1,.19385-.02247.72761.72761,0,0,1,.65137.333,1.04152,1.04152,0,0,0,1.77246,0,.77545.77545,0,0,1,.84522-.31054C50,48.88818,50,49.03076,50,49.13477,50,49.687,49.18506,50.59961,48,51.41113Z"/></svg>
