<?xml version="1.0" encoding="UTF-8"?>
<svg xmlns="http://www.w3.org/2000/svg" id="Layer_1" data-name="Layer 1" viewBox="0 0 64 64" width="512" height="512"><path d="M40.5,7.84082A15.65918,15.65918,0,1,0,56.15918,23.5,15.67688,15.67688,0,0,0,40.5,7.84082Zm0,29.31836A13.65918,13.65918,0,1,1,54.15918,23.5,13.67491,13.67491,0,0,1,40.5,37.15918Z"/><path d="M61.59277,18.36084H60.19629a1.06868,1.06868,0,0,1-1.001-.79639v-.001A19.62447,19.62447,0,0,0,57.915,14.48291a1.072,1.072,0,0,1,.14453-1.2749l.99316-.99268a1.00065,1.00065,0,0,0,.12207-1.26611,22.50037,22.50037,0,0,0-6.124-6.12451,1.00286,1.00286,0,0,0-1.26562.12256l-.99317.99316A1.07061,1.07061,0,0,1,49.5166,6.085a19.50856,19.50856,0,0,0-3.08008-1.27978,1.07066,1.07066,0,0,1-.79785-1.002v-1.396a1,1,0,0,0-.80859-.98145,22.31863,22.31863,0,0,0-8.66016,0,1,1,0,0,0-.80859.98145v1.396a1.07066,1.07066,0,0,1-.79785,1.002A19.55266,19.55266,0,0,0,31.4834,6.08447a1.07327,1.07327,0,0,1-1.27539-.144l-.99317-.99316a.99953.99953,0,0,0-1.26562-.12256,22.50037,22.50037,0,0,0-6.124,6.12451,1.00065,1.00065,0,0,0,.12207,1.26611l.99316.99219a1.07373,1.07373,0,0,1,.14551,1.2749,19.53277,19.53277,0,0,0-1.28125,3.082,1.06868,1.06868,0,0,1-1.001.79639H19.40723a1,1,0,0,0-.98145.80859,22.23581,22.23581,0,0,0,0,8.66114,1,1,0,0,0,.98145.80859h1.39648a1.06847,1.06847,0,0,1,1.001.79736A19.62447,19.62447,0,0,0,23.085,32.51709a1.072,1.072,0,0,1-.14453,1.2749l-.99316.99317a.99873.99873,0,0,0-.12207,1.26562,22.50037,22.50037,0,0,0,6.124,6.12451.9988.9988,0,0,0,1.26562-.12256l.99317-.99316a1.07485,1.07485,0,0,1,1.27539-.145,19.57175,19.57175,0,0,0,3.08008,1.28027,1.07066,1.07066,0,0,1,.79785,1.002v1.396a1,1,0,0,0,.80859.98145,22.23083,22.23083,0,0,0,8.66016,0,1,1,0,0,0,.80859-.98145v-1.396a1.07066,1.07066,0,0,1,.79785-1.002,19.56679,19.56679,0,0,0,3.0791-1.27978,1.07568,1.07568,0,0,1,1.27637.14453l.99317.99316a1.00188,1.00188,0,0,0,1.26562.12256,22.50037,22.50037,0,0,0,6.124-6.12451.99873.99873,0,0,0-.12207-1.26562l-.99316-.99317a1.073,1.073,0,0,1-.14551-1.27441,19.53277,19.53277,0,0,0,1.28125-3.082,1.06868,1.06868,0,0,1,1.001-.79639h1.39648a1,1,0,0,0,.98145-.80859,22.23581,22.23581,0,0,0,0-8.66114A1,1,0,0,0,61.59277,18.36084Zm-.83984,8.27832h-.55664a3.07248,3.07248,0,0,0-2.90723,2.19092,17.54479,17.54479,0,0,1-1.14941,2.76513,3.07431,3.07431,0,0,0,.50586,3.61084l.39941.39942a20.50162,20.50162,0,0,1-4.43945,4.439l-.39942-.39892a3.07408,3.07408,0,0,0-3.61132-.50537,17.57067,17.57067,0,0,1-2.76368,1.14843,3.07365,3.07365,0,0,0-2.19238,2.90821v.55664a20.19757,20.19757,0,0,1-6.27734,0v-.55664A3.07365,3.07365,0,0,0,35.169,40.28857a17.57512,17.57512,0,0,1-2.76465-1.14892,3.0757,3.0757,0,0,0-3.61035.50586l-.39942.39892a20.50162,20.50162,0,0,1-4.43945-4.439l.39941-.39942a3.07326,3.07326,0,0,0,.50489-3.61132,17.63637,17.63637,0,0,1-1.14844-2.76368,3.07217,3.07217,0,0,0-2.90723-2.19189h-.55664a20.06591,20.06591,0,0,1,0-6.27832h.55664a3.07248,3.07248,0,0,0,2.90723-2.19092,17.54479,17.54479,0,0,1,1.14941-2.76513,3.07624,3.07624,0,0,0-.50586-3.61182l-.39844-.39844a20.47564,20.47564,0,0,1,4.43848-4.439l.39942.39892a3.073,3.073,0,0,0,3.61132.50489A17.506,17.506,0,0,1,35.169,6.71143a3.07365,3.07365,0,0,0,2.19238-2.90821V3.24658a20.19757,20.19757,0,0,1,6.27734,0v.55664a3.07365,3.07365,0,0,0,2.19238,2.90821,17.463,17.463,0,0,1,2.76368,1.14843,3.07783,3.07783,0,0,0,3.61132-.50537l.39942-.39892a20.47564,20.47564,0,0,1,4.43848,4.439l-.39844.39893a3.07433,3.07433,0,0,0-.50489,3.61181A17.61691,17.61691,0,0,1,57.28906,18.169a3.07217,3.07217,0,0,0,2.90723,2.19189h.55664a20.06591,20.06591,0,0,1,0,6.27832Z"/><path d="M48.84863,14.72559l-7.93554-.72168a1.01425,1.01425,0,0,0-.79786.28906L29.293,25.11475a.99962.99962,0,0,0,0,1.41406l8.65723,8.65771a.99963.99963,0,0,0,1.41406,0L50.18652,24.36426a1.00132,1.00132,0,0,0,.28907-.79737l-.72168-7.93554A1.0008,1.0008,0,0,0,48.84863,14.72559ZM38.65723,33.06543l-7.24317-7.24365,9.78418-9.78369,6.63867.604.6045,6.63916Z"/><path d="M41.55762,18.62158a3.04042,3.04042,0,1,0,4.2998,0A3.04371,3.04371,0,0,0,41.55762,18.62158Zm2.88574,2.88574a1.04,1.04,0,1,1,0-1.47168A1.04267,1.04267,0,0,1,44.44336,21.50732Z"/><path d="M6,53.75049V62a.99974.99974,0,0,0,1,1h9a.99974.99974,0,0,0,1-1V54.33545A10.99866,10.99866,0,0,0,15.2998,34.0459,1,1,0,0,0,14,35v8H9V35.37842a.99932.99932,0,0,0-1.40039-.916A10.98918,10.98918,0,0,0,6,53.75049ZM7,37.06055V44a.99974.99974,0,0,0,1,1h7a.99974.99974,0,0,0,1-1V36.47461a9.00113,9.00113,0,0,1-.40039,16.3125.99951.99951,0,0,0-.59961.916V61H8V53.19189a1,1,0,0,0-.499-.86523A8.98921,8.98921,0,0,1,7,37.06055Z"/></svg>
