<svg id="Layer_1" height="512" viewBox="0 0 64 64" width="512" xmlns="http://www.w3.org/2000/svg" data-name="Layer 1"><path d="m24 36v11a1 1 0 0 0 1 1h14a1 1 0 0 0 1-1v-11a5.002 5.002 0 0 0 -3.88416-4.8642 5.5 5.5 0 1 0 -8.23168 0 5.002 5.002 0 0 0 -3.88416 4.8642zm8-12a3.49444 3.49444 0 0 1 2.8656 1.50128 9.20186 9.20186 0 0 0 -5.73126 0 3.49463 3.49463 0 0 1 2.86566-1.50128zm3.45532 3.94159a3.48107 3.48107 0 0 1 -6.91064 0 7.081 7.081 0 0 1 6.91064 0zm-2.533 11.87189-.92232 1.38379-.92236-1.38379.92236-3.69043zm-6.92232-3.81348a3.00328 3.00328 0 0 1 3-3h1.71912l-1.68933 6.75732a1.00027 1.00027 0 0 0 .13818.79737l2 3a.99995.99995 0 0 0 1.66406 0l2-3a1.00027 1.00027 0 0 0 .13818-.79737l-1.68933-6.75732h1.71912a3.00328 3.00328 0 0 1 3 3v10h-12z"/><path d="m32 54.11768a10.12889 10.12889 0 0 1 -10.11768-10.11768 1 1 0 0 0 -1-1h-6.88232a1 1 0 0 0 -1 1 19.17363 19.17363 0 0 0 .35938 3.65674.99959.99959 0 0 0 .98144.80859h1.16895a.7359.7359 0 0 1 .68359.55371 16.47663 16.47663 0 0 0 1.08252 2.605.73788.73788 0 0 1 -.09277.87744l-.83111.83152a1.00059 1.00059 0 0 0 -.122 1.26563 18.99616 18.99616 0 0 0 5.17137 5.17137 1.00294 1.00294 0 0 0 1.26563-.122l.832-.832a.737.737 0 0 1 .87647-.0918 16.515 16.515 0 0 0 2.605 1.08252.7358.7358 0 0 1 .5542.68359v1.169a.99959.99959 0 0 0 .80859.98144 18.7836 18.7836 0 0 0 7.31348 0 .99959.99959 0 0 0 .80859-.98144v-1.169a.7359.7359 0 0 1 .55371-.68359 16.47663 16.47663 0 0 0 2.605-1.08252.73549.73549 0 0 1 .87744.09277l.83155.83106a1.00306 1.00306 0 0 0 1.26562.12207 18.99616 18.99616 0 0 0 5.17135-5.17147 1.00059 1.00059 0 0 0 -.122-1.26563l-.83154-.83155a.73792.73792 0 0 1 -.09229-.877 16.515 16.515 0 0 0 1.08252-2.605.7358.7358 0 0 1 .68359-.5542h1.169a.99959.99959 0 0 0 .98144-.80859 19.17363 19.17363 0 0 0 .35928-3.65666 1 1 0 0 0 -1-1h-6.88232a1 1 0 0 0 -1 1 10.12889 10.12889 0 0 1 -10.11768 10.11768zm12.07666-9.11768h4.89258c-.02979.48584-.08106.97559-.15332 1.46533h-.32569a2.73575 2.73575 0 0 0 -2.58984 1.94824 14.52208 14.52208 0 0 1 -.95068 2.28858 2.73645 2.73645 0 0 0 .45215 3.21338l.23535.23486a16.9548 16.9548 0 0 1 -3.48682 3.48682l-.23437-.23438a2.73665 2.73665 0 0 0 -3.21436-.45312 14.484 14.484 0 0 1 -2.28857.95068 2.7359 2.7359 0 0 0 -1.94776 2.58984v.32569a16.6222 16.6222 0 0 1 -4.93066 0v-.32569a2.73575 2.73575 0 0 0 -1.94824-2.58984 14.52208 14.52208 0 0 1 -2.28858-.95068 2.73388 2.73388 0 0 0 -3.21338.45215l-.23486.23535a16.9548 16.9548 0 0 1 -3.48682-3.48682l.23487-.23486a2.73644 2.73644 0 0 0 .45263-3.21387 14.484 14.484 0 0 1 -.95068-2.28857 2.7359 2.7359 0 0 0 -2.58984-1.94776h-.32569c-.07226-.48974-.12353-.97949-.15332-1.46533h4.89258a12.118 12.118 0 0 0 24.15332 0z"/><path d="m39 1h-14a2.002 2.002 0 0 0 -2 2v14a2.002 2.002 0 0 0 2 2h14a2.002 2.002 0 0 0 2-2v-14a2.002 2.002 0 0 0 -2-2zm-14 16v-14h14l.00146 14z"/><path d="m62 20v-13a2.002 2.002 0 0 0 -2-2h-13a2.002 2.002 0 0 0 -2 2v13a2.002 2.002 0 0 0 2 2h13a2.002 2.002 0 0 0 2-2zm-15-13h13l.00146 13h-13.00146z"/><path d="m19 20v-13a2.002 2.002 0 0 0 -2-2h-13a2.002 2.002 0 0 0 -2 2v13a2.002 2.002 0 0 0 2 2h13a2.002 2.002 0 0 0 2-2zm-5 0h-7v-3a2.002 2.002 0 0 1 2-2h3a2.002 2.002 0 0 1 2 2zm-5-8.5a1.5 1.5 0 1 1 1.5 1.5 1.50164 1.50164 0 0 1 -1.5-1.5zm4.489 1.79413a3.46222 3.46222 0 0 0 .511-1.79413 3.5 3.5 0 0 0 -7 0 3.46222 3.46222 0 0 0 .511 1.79413 4.0012 4.0012 0 0 0 -2.511 3.70587v3h-1v-13h13l.00146 13h-1.00146v-3a4.0012 4.0012 0 0 0 -2.511-3.70587z"/><path d="m51 12h2v7h-2z"/><path d="m48 14h2v5h-2z"/><path d="m54 10h2v9h-2z"/><path d="m57 8h2v11h-2z"/><path d="m32 7a1.0013 1.0013 0 0 1 1 1h2a2.99507 2.99507 0 0 0 -2-2.81573v-1.18427h-2v1.18427a2.99257 2.99257 0 0 0 1 5.81573 1 1 0 1 1 -1 1h-2a2.995 2.995 0 0 0 2 2.81567v1.18433h2v-1.18427a2.99257 2.99257 0 0 0 -1-5.81573 1 1 0 0 1 0-2z"/><path d="m54 24h2v2h-2z"/><path d="m54 28h2v2h-2z"/><path d="m54 32h2v2h-2z"/><path d="m50 32h2v2h-2z"/><path d="m46 32h2v2h-2z"/><path d="m42 32h2v2h-2z"/><path d="m8 24h2v2h-2z"/><path d="m8 28h2v2h-2z"/><path d="m8 32h2v2h-2z"/><path d="m12 32h2v2h-2z"/><path d="m16 32h2v2h-2z"/><path d="m20 32h2v2h-2z"/></svg>