<svg id="Layer_1" height="512" viewBox="0 0 64 64" width="512" xmlns="http://www.w3.org/2000/svg" data-name="Layer 1"><path d="m22 33v8.06158a9.601 9.601 0 0 0 -2.81689.11078.99983.99983 0 0 0 -.81934.9834v.91162a8.33162 8.33162 0 0 0 -1.10791.46l-.647-.64746a1.00056 1.00056 0 0 0 -1.27491-.11621 9.997 9.997 0 0 0 -2.5708 2.57031 1.00079 1.00079 0 0 0 .1167 1.27491l.64746.647a8.33162 8.33162 0 0 0 -.46 1.10791h-.91162a.99983.99983 0 0 0 -.9834.81934 9.66233 9.66233 0 0 0 0 3.63378.99983.99983 0 0 0 .9834.81934h.91162a8.33162 8.33162 0 0 0 .46 1.10791l-.64746.647a1.00079 1.00079 0 0 0 -.1167 1.27491 9.997 9.997 0 0 0 2.5708 2.57031.99935.99935 0 0 0 1.27491-.11621l.647-.64746a8.33162 8.33162 0 0 0 1.10791.46v.91162a.99983.99983 0 0 0 .81934.9834 9.92179 9.92179 0 0 0 1.81689.17222 9.80147 9.80147 0 0 0 1-.07428v1.07428a1 1 0 0 0 1 1h18a1 1 0 0 0 1-1v-1h9a1 1 0 0 0 1-1v-14a1.00024 1.00024 0 0 0 -.71289-.958l-9.28711-2.78614v-9.25586a2.002 2.002 0 0 0 -2-2h-1.58594l-5.707-5.707a.99962.99962 0 0 0 -1.41406 0l-5.70706 5.707h-1.58594a2.002 2.002 0 0 0 -2 2zm0 21.0816a3.08271 3.08271 0 0 1 0-6.1632zm0-8.16327a5.08234 5.08234 0 0 0 0 10.16334v2.84509a7.519 7.519 0 0 1 -1.63623.0459v-.18555a1.81748 1.81748 0 0 0 -1.28809-1.72611 6.33973 6.33973 0 0 1 -.99756-.41407 1.82091 1.82091 0 0 0 -2.13427.3086l-.13086.13134a7.98914 7.98914 0 0 1 -.8999-.8999l.13232-.13183a1.819 1.819 0 0 0 .30762-2.13379 6.31523 6.31523 0 0 1 -.41407-.99707 1.81748 1.81748 0 0 0 -1.72607-1.28809h-.18555c-.01806-.2148-.02734-.42619-.02734-.63619s.00928-.42139.02734-.63623h.18555a1.81748 1.81748 0 0 0 1.72611-1.28809 6.31523 6.31523 0 0 1 .41407-.99707 1.8182 1.8182 0 0 0 -.3086-2.13476l-.13134-.13086a7.98914 7.98914 0 0 1 .8999-.8999l.13183.13232a1.82116 1.82116 0 0 0 2.13379.30762 6.31523 6.31523 0 0 1 .99707-.41407 1.81748 1.81748 0 0 0 1.28809-1.72607v-.18555a7.62859 7.62859 0 0 1 1.63619.04602zm20-1.57421 8 2.4v12.25588h-8zm-8 16.65588h-4v-4h4zm-2-33.58594 3.58594 3.58594h-7.17188zm-8 5.58594h16v28h-4v-5a1 1 0 0 0 -1-1h-6a1 1 0 0 0 -1 1v5h-4z"/><path d="m26 39h12v2h-12z"/><path d="m26 35h12v2h-12z"/><path d="m26 43h12v2h-12z"/><path d="m26 47h12v2h-12z"/><path d="m26 51h12v2h-12z"/><path d="m44 49h4v2h-4z"/><path d="m44 53h4v2h-4z"/><path d="m32 21a8 8 0 1 0 -8-8 8.00917 8.00917 0 0 0 8 8zm2-2.35a5.88865 5.88865 0 0 1 -4 0v-2.65a1.0013 1.0013 0 0 1 1-1h2a1.0013 1.0013 0 0 1 1 1zm-3-6.65a1 1 0 1 1 1 1 1.0013 1.0013 0 0 1 -1-1zm1-5a5.99129 5.99129 0 0 1 4 10.45953v-1.45953a2.9934 2.9934 0 0 0 -1.40137-2.52917 2.9635 2.9635 0 0 0 .40137-1.47083 3 3 0 0 0 -6 0 2.96355 2.96355 0 0 0 .40143 1.47083 2.99332 2.99332 0 0 0 -1.40143 2.52917v1.45953a5.99129 5.99129 0 0 1 4-10.45953z"/><path d="m10 34a8 8 0 1 0 -8-8 8.00917 8.00917 0 0 0 8 8zm2-2.35a5.88865 5.88865 0 0 1 -4 0v-2.65a1.0013 1.0013 0 0 1 1-1h2a1.0013 1.0013 0 0 1 1 1zm-3-6.65a1 1 0 1 1 1 1 1.0013 1.0013 0 0 1 -1-1zm1-5a5.99129 5.99129 0 0 1 4 10.45953v-1.45953a2.9934 2.9934 0 0 0 -1.40137-2.52917 2.9635 2.9635 0 0 0 .40137-1.47083 3 3 0 0 0 -6 0 2.96355 2.96355 0 0 0 .40143 1.47083 2.99332 2.99332 0 0 0 -1.40143 2.52917v1.45953a5.99129 5.99129 0 0 1 4-10.45953z"/><path d="m13.5 34.646h2v6.708h-2z" transform="matrix(.894 -.447 .447 .894 -15.463 10.496)"/><path d="m17.298 18h6.403v2h-6.403z" transform="matrix(.781 -.625 .625 .781 -7.377 16.968)"/><path d="m48 16a.99988.99988 0 0 0 .707-.293l7.34326-7.34326 2.82862 2.82861a1 1 0 0 0 1.69336-.54248l1.41406-8.48535a1.00006 1.00006 0 0 0 -1.15088-1.15088l-8.48532 1.41409a1 1 0 0 0 -.54248 1.69336l2.82861 2.82862-6.97949 6.97949-5.49219-.91553-.3291 1.97266 6 1a.9886.9886 0 0 0 .16455.01367zm6.5957-11.91895 5.188-.86474-.8647 5.18799z"/></svg>