<svg id="Layer_1" height="512" viewBox="0 0 64 64" width="512" xmlns="http://www.w3.org/2000/svg" data-name="Layer 1"><path d="m53.50586 28.97119a.3607.3607 0 0 1 .31982-.27588h.90918a1 1 0 0 0 .98145-.80859 15.089 15.089 0 0 0 .28369-2.88672 1 1 0 0 0 -1-1h-5.353a1.00005 1.00005 0 0 0 -1 1 7.647 7.647 0 0 1 -15.294 0 1.00005 1.00005 0 0 0 -1-1h-5.353a1 1 0 0 0 -1 1 15.089 15.089 0 0 0 .28369 2.88672 1 1 0 0 0 .98145.80859h.90918a.3607.3607 0 0 1 .31982.27588 13.07517 13.07517 0 0 0 .85645 2.061.36188.36188 0 0 1 -.03174.42285l-.64649.64648a1 1 0 0 0 -.12256 1.26563 15.01168 15.01168 0 0 0 4.08252 4.08252.99986.99986 0 0 0 1.26563-.12207l.647-.647a.36263.36263 0 0 1 .42285-.03125 13.05319 13.05319 0 0 0 2.061.85645.3607.3607 0 0 1 .27588.31982v.90918a1 1 0 0 0 .80859.98145 14.82892 14.82892 0 0 0 5.77344 0 1 1 0 0 0 .80859-.98145v-.90918a.3607.3607 0 0 1 .27588-.31982 13.05319 13.05319 0 0 0 2.061-.85645.36262.36262 0 0 1 .42285.03174l.647.64649a1.00172 1.00172 0 0 0 1.26563.12207 15.01168 15.01168 0 0 0 4.08252-4.08252 1 1 0 0 0 -.12256-1.26563l-.647-.647a.36092.36092 0 0 1 -.03076-.42236 13.11933 13.11933 0 0 0 .856-2.06095zm-1.90625-.60547a11.108 11.108 0 0 1 -.72461 1.74463 2.348 2.348 0 0 0 .39209 2.75879l.0459.0459a12.97838 12.97838 0 0 1 -2.398 2.39746l-.0459-.0459a2.34725 2.34725 0 0 0 -2.75879-.3916 11.0584 11.0584 0 0 1 -1.74463.72461 2.34906 2.34906 0 0 0 -1.67041 2.22607v.06055a12.71482 12.71482 0 0 1 -3.39062 0v-.06055a2.34906 2.34906 0 0 0 -1.67041-2.22607 11.0584 11.0584 0 0 1 -1.74463-.72461 2.348 2.348 0 0 0 -2.75879.39111l-.0459.04639a12.97838 12.97838 0 0 1 -2.39791-2.3975l.04541-.04541a2.349 2.349 0 0 0 .39307-2.75928 11.06387 11.06387 0 0 1 -.7251-1.74463 2.34906 2.34906 0 0 0 -2.22607-1.67041h-.06055q-.04613-.34859-.07376-.69527h3.3643a9.64775 9.64775 0 0 0 19.1914 0h3.3643q-.02783.34644-.07373.69531h-.06055a2.34906 2.34906 0 0 0 -2.22611 1.67041z"/><path d="m62.11328 10.36084h-.001c-1.71728-.43213-2.041-.75586-2.47314-2.47412a1.17493 1.17493 0 0 0 -2.27832.001c-.43213 1.71728-.75586 2.041-2.47412 2.47314a1.17493 1.17493 0 0 0 .001 2.27832c1.71728.43213 2.041.75586 2.47314 2.47412a1.17493 1.17493 0 0 0 2.27832-.001c.43213-1.71728.75586-2.041 2.47412-2.47314a1.17509 1.17509 0 0 0 0-2.27832zm-3.61328 2.21826a3.45974 3.45974 0 0 0 -1.0791-1.0791 3.45974 3.45974 0 0 0 1.0791-1.0791 3.4649 3.4649 0 0 0 1.0791 1.0791 3.45974 3.45974 0 0 0 -1.0791 1.0791z"/><path d="m17 31.5a1.174 1.174 0 0 0 .8877 1.13916c1.71728.43213 2.041.75586 2.47314 2.47412a1.17493 1.17493 0 0 0 2.27832-.001c.43213-1.71728.75586-2.041 2.47412-2.47314a1.17509 1.17509 0 0 0 0-2.27832h-.001c-1.71728-.43213-2.041-.75586-2.47314-2.47412a1.17493 1.17493 0 0 0 -2.27832.001c-.43213 1.71728-.75586 2.041-2.47412 2.47314a1.17424 1.17424 0 0 0 -.8867 1.13916zm4.5-1.0791a3.4649 3.4649 0 0 0 1.0791 1.0791 3.45974 3.45974 0 0 0 -1.0791 1.0791 3.45974 3.45974 0 0 0 -1.0791-1.0791 3.45974 3.45974 0 0 0 1.0791-1.0791z"/><path d="m51 9h-5a1 1 0 0 0 -1 1v11h-1v-7a1 1 0 0 0 -1-1h-5a1 1 0 0 0 -1 1v7h-1v-4a1 1 0 0 0 -1-1h-5a1 1 0 0 0 -1 1v4h-2v2h28v-2h-3v-11a1 1 0 0 0 -1-1zm-17 12h-3v-3h3zm8 0h-3v-6h3zm8 0h-3v-10h3z"/><path d="m55.66748 6.60254a22.00029 22.00029 0 0 0 -36.66748 16.39746c0 .7002.0332 1.40479.09863 2.09473l1.99121-.18946c-.05957-.62695-.08984-1.26806-.08984-1.90527a20.00021 20.00021 0 0 1 33.3335-14.90723z"/><path d="m60.04785 16.88428a20.00367 20.00367 0 0 1 -34.75635 18.49609l-1.57031 1.23926a22.00664 22.00664 0 0 0 38.23096-20.34663z"/><path d="m2 62h6a1 1 0 0 0 1 1h10a1 1 0 0 0 1-1h6a1 1 0 0 0 1-1v-11a.99993.99993 0 0 0 -.7251-.96143l-6.2749-1.79284v-2.24573a2.002 2.002 0 0 0 -2-2h-.50012l-2.70008-3.6001a1.03527 1.03527 0 0 0 -1.5996 0l-2.70008 3.6001h-.50012a2.002 2.002 0 0 0 -2 2v2.24573l-6.2749 1.79284a.99993.99993 0 0 0 -.7251.96143v11a1 1 0 0 0 1 1zm18-12.67432 5 1.42871v9.24561h-5zm-5 11.67432h-2v-2h2zm-1-19.3335 1.00012 1.3335h-2.00024zm-4 3.3335h8v16h-1v-3a1 1 0 0 0 -1-1h-4a1 1 0 0 0 -1 1v3h-1zm-7 5.75439 5-1.42871v10.67432h-5z"/><path d="m11.5 46h5v2h-5z"/><path d="m11.5 50h5v2h-5z"/><path d="m11.5 54h5v2h-5z"/><path d="m4 52h3v2h-3z"/><path d="m21 52h3v2h-3z"/><path d="m4 55h3v2h-3z"/><path d="m21 55h3v2h-3z"/></svg>