<svg id="Layer_1" height="512" viewBox="0 0 64 64" width="512" xmlns="http://www.w3.org/2000/svg" data-name="Layer 1"><path d="m44 6h-13v-2a.99974.99974 0 0 0 -1-1h-14a.99974.99974 0 0 0 -1 1v2h-13a.99974.99974 0 0 0 -1 1v14a.99974.99974 0 0 0 1 1h14a.99974.99974 0 0 0 1-1v-2h12v2a.99974.99974 0 0 0 1 1h14a.99974.99974 0 0 0 1-1v-14a.99974.99974 0 0 0 -1-1zm-29 14h-12v-12h12zm14-3h-12v-12h12zm14 3h-12v-12h12z"/><path d="m51.7373 1.32422a1.00034 1.00034 0 0 0 -1.7373.67578v5h-4v2h5a.99974.99974 0 0 0 1-1v-3.42969l8.64355 9.42969-8.64355 9.42969v-3.42969a.99974.99974 0 0 0 -1-1h-5v2h4v5a1.00014 1.00014 0 0 0 1.7373.67578l11-12a1.0009 1.0009 0 0 0 0-1.35156z"/><path d="m8 13h2v2h-2z"/><path d="m20 10h2v2h-2z"/><path d="m24 10h2v2h-2z"/><path d="m32 13h2v2h-2z"/><path d="m36 13h2v2h-2z"/><path d="m40 13h2v2h-2z"/><path d="m29.25977 56.63477a10.5972 10.5972 0 0 0 2.73877.36523c.04443 0 .08837 0 .13232-.001a10.59122 10.59122 0 0 0 2.6084-.36816.99915.99915 0 0 0 .74219-.96582v-1.085a.16946.16946 0 0 1 .081-.15235 8.51316 8.51316 0 0 0 1.25635-.69921.25408.25408 0 0 1 .24072.01367l.97217.543a1.002 1.002 0 0 0 1.17724-.14844 9.92465 9.92465 0 0 0 2.75733-4.624 1.00036 1.00036 0 0 0 -.47852-1.13086l-1.084-.60547a7.45612 7.45612 0 0 0 0-1.55274l1.083-.60449a.99957.99957 0 0 0 .479-1.13086 9.90982 9.90982 0 0 0 -2.75244-4.627.99873.99873 0 0 0 -1.17627-.14844l-.97754.54492a.25334.25334 0 0 1 -.2417.01367 8.39991 8.39991 0 0 0 -1.25439-.69824.16993.16993 0 0 1 -.082-.15332v-1.08881a.99969.99969 0 0 0 -.74122-.96582 10.22957 10.22957 0 0 0 -2.87109-.36425 10.59122 10.59122 0 0 0 -2.6084.36816.99915.99915 0 0 0 -.74219.96582v1.085a.16838.16838 0 0 1 -.082.15235 8.56734 8.56734 0 0 0 -1.25537.69921.25679.25679 0 0 1 -.24072-.01367l-.97217-.543a1.002 1.002 0 0 0 -1.17724.14844 9.92285 9.92285 0 0 0 -2.75733 4.625.99894.99894 0 0 0 .479 1.13086l1.083.60449a7.54687 7.54687 0 0 0 0 1.55274l-1.08252.60449a.99957.99957 0 0 0 -.479 1.13086 9.90982 9.90982 0 0 0 2.75244 4.627.99854.99854 0 0 0 1.17627.14844l.97754-.54492a.25331.25331 0 0 1 .2417-.01367 8.492 8.492 0 0 0 1.25244.69824.16975.16975 0 0 1 .084.15332v1.08886a.99969.99969 0 0 0 .74123.96577zm-.959-4.56348a2.24912 2.24912 0 0 0 -2.33545-.0752l-.30371.16895a7.90639 7.90639 0 0 1 -1.46045-2.43652l.97119-.542a.99956.99956 0 0 0 .49512-1.05957 5.73475 5.73475 0 0 1 0-2.2539.99956.99956 0 0 0 -.49512-1.05957l-.97119-.542a7.92761 7.92761 0 0 1 1.46436-2.43457l.29883.167a2.24822 2.24822 0 0 0 2.335-.07422 6.57723 6.57723 0 0 1 .95849-.53321 2.16375 2.16375 0 0 0 1.26074-1.97656v-.28515a8.34691 8.34691 0 0 1 1.37542-.13377 7.93311 7.93311 0 0 1 1.58741.13086v.28808a2.16375 2.16375 0 0 0 1.26074 1.97656 6.452 6.452 0 0 1 .95752.53321 2.25247 2.25247 0 0 0 2.335.07422l.30371-.16895a7.90639 7.90639 0 0 1 1.46045 2.43652l-.97168.542a1.00021 1.00021 0 0 0 -.49515 1.0605 5.70049 5.70049 0 0 1 0 2.252 1.0006 1.0006 0 0 0 .49463 1.06054l.97168.543a7.91531 7.91531 0 0 1 -1.46436 2.4336l-.29882-.167a2.243 2.243 0 0 0 -2.33448.07422 6.4866 6.4866 0 0 1 -.96142.53418 2.16611 2.16611 0 0 0 -1.25781 1.97559v.28515a8.34691 8.34691 0 0 1 -1.37542.13372 7.64363 7.64363 0 0 1 -1.58741-.13086v-.28808a2.16712 2.16712 0 0 0 -1.26074-1.97656 6.572 6.572 0 0 1 -.95707-.53221z"/><path d="m36.21436 47a4.21436 4.21436 0 1 0 -4.21436 4.21387 4.21913 4.21913 0 0 0 4.21436-4.21387zm-6.42872 0a2.21436 2.21436 0 1 1 2.21436 2.21387 2.21652 2.21652 0 0 1 -2.21436-2.21387z"/><path d="m22.10059 37.10059a14.03558 14.03558 0 0 1 17.62011-1.78223l1.1045-1.668a16.00392 16.00392 0 0 0 -22.17432 22.17581l1.667-1.10547a14.0359 14.0359 0 0 1 1.78271-17.62011z"/><path d="m21.46143 56.2168-1.50391 1.31836c.23291.26562.47607.52636.729.77832.25293.25293.51319.49707.77881.72949l1.31641-1.50586q-.34863-.3047-.68164-.63867-.33326-.33252-.63867-.68164z"/><path d="m43.68213 39.2793a14.00341 14.00341 0 0 1 -19.40283 19.40234l-1.1045 1.668a16.00392 16.00392 0 0 0 22.17432-22.17581z"/><path d="m44.04248 36.46484c-.23291-.26562-.47607-.52636-.729-.77832-.25293-.25293-.51319-.49707-.77881-.72949l-1.31641 1.50586q.34863.3047.68164.63867.33325.33252.63867.68164z"/></svg>