<?xml version="1.0" encoding="UTF-8"?>
<svg xmlns="http://www.w3.org/2000/svg" id="Layer_1" data-name="Layer 1" viewBox="0 0 64 64" width="512" height="512"><path d="M37.78906,10.6543a1.00422,1.00422,0,0,0-1.1084-.63965l-6.81738,1.17871a1.00128,1.00128,0,0,0-.69629.48535L22.52344,23.18555a1.00081,1.00081,0,0,0,.36621,1.36621l9.20605,5.31445A1.0006,1.0006,0,0,0,33.46191,29.5l6.64356-11.50684a1.00026,1.00026,0,0,0,.07226-.8457ZM32.22949,27.63379l-7.47363-4.31445L30.665,13.084l5.53516-.957,1.93847,5.27149Z"/><path d="M35.13574,13.96973a2.7714,2.7714,0,1,0,1.01563,3.78515A2.75973,2.75973,0,0,0,35.13574,13.96973ZM34.419,16.75586a.77189.77189,0,0,1-1.41407-.18652.77116.77116,0,0,1,.5459-.94434.783.783,0,0,1,.2002-.02637.761.761,0,0,1,.38476.10352A.77344.77344,0,0,1,34.419,16.75586Z"/><path d="M32.09961,1A19.22125,19.22125,0,0,0,12.90039,20.2002c0,10.27246,17.6543,33.42773,18.40527,34.4082a1.00064,1.00064,0,0,0,1.58789,0c.751-.98047,18.40625-24.13574,18.40625-34.4082A19.22208,19.22208,0,0,0,32.09961,1Zm0,51.334C28.61914,47.64453,14.90039,28.626,14.90039,20.2002a17.19971,17.19971,0,1,1,34.39941,0C49.2998,28.624,35.5791,47.64551,32.09961,52.334Z"/><path d="M32,5A14.5,14.5,0,1,0,46.5,19.5,14.51669,14.51669,0,0,0,32,5Zm0,27A12.5,12.5,0,1,1,44.5,19.5,12.51408,12.51408,0,0,1,32,32Z"/><path d="M27.34082,52.34668C24.9043,52.73828,22,53.60352,22,55.5c0,2.7627,6.28613,3.5,10,3.5s10-.7373,10-3.5c0-1.89648-2.9043-2.76172-5.34082-3.15332l-.31836,1.97461A7.78159,7.78159,0,0,1,39.93457,55.502C39.3877,56.0166,36.73828,57,32,57s-7.3877-.9834-7.93457-1.498a7.78159,7.78159,0,0,1,3.59375-1.18066Z"/><path d="M32,63c9.69531,0,20-2.62891,20-7.5,0-3.90039-6.64551-6.19141-12.86523-7.03613l-.26954,1.98242C46.17578,51.43848,50,53.73926,50,55.5c0,2.59668-7.69824,5.5-18,5.5s-18-2.90332-18-5.5c0-1.76074,3.82422-4.06152,11.13477-5.05371l-.26954-1.98242C18.64551,49.30859,12,51.59961,12,55.5,12,60.37109,22.30469,63,32,63Z"/></svg>
