<svg id="Layer_1" height="512" viewBox="0 0 64 64" width="512" xmlns="http://www.w3.org/2000/svg" data-name="Layer 1"><path d="m45.87158 41.32422a.99382.99382 0 0 0 -.50482-.26593l.00775-.03583-6.16357-1.33105-.42188 1.95507 1.70789.36884-8.49695 1.83557-8.49695-1.83557 1.70789-.36884-.42188-1.95507-6.16357 1.33105.00793.03662a.99115.99115 0 0 0 -.505.26514l-4.25293 4.26465a.99988.99988 0 0 0 .46 1.6748l2.62305.67212v9.79956a1.00013 1.00013 0 0 0 .70947.957l14.04146 4.26465a1.0212 1.0212 0 0 0 .29053.043 1.00155 1.00155 0 0 0 .28955-.0462l.001.00323 14.04145-4.26465a1.00013 1.00013 0 0 0 .70947-.957v-9.79959l2.623-.67212a.99988.99988 0 0 0 .46-1.6748zm-29.34326 4.43652 2.63086-2.63769 11.14551 2.4082-2.26514 3.17969zm14.47168 14.89063-12.0415-3.65723v-8.54584l9.2495 2.37006a.97879.97879 0 0 0 .248.03125.99967.99967 0 0 0 .81446-.41992l1.72954-2.42816zm14.0415-3.65723-12.0415 3.65692v-12.64953l1.72949 2.42816a.99967.99967 0 0 0 .81446.41992.97879.97879 0 0 0 .248-.03125l9.24955-2.37006zm-9.081-8.2832-2.26514-3.17969 11.14551-2.4082 2.63086 2.63769z"/><path d="m34.46436 11.32812a10.07692 10.07692 0 0 0 -2.58252-.32714 9.55434 9.55434 0 0 0 -2.3462.331 1.00054 1.00054 0 0 0 -.74121.96582l-.00879.999a7.72033 7.72033 0 0 0 -1.13037.62988.13521.13521 0 0 1 -.09863-.0166l-.86377-.48243a1.00088 1.00088 0 0 0 -1.17676.14844 8.93 8.93 0 0 0 -2.48242 4.16211 1.001 1.001 0 0 0 .47852 1.13086l.8999.50293q-.02929.31641-.0293.62793 0 .312.0293.62793l-.89941.50293a1.00045 1.00045 0 0 0 -.47852 1.13086 8.927 8.927 0 0 0 2.47705 4.165 1.00181 1.00181 0 0 0 1.17725.14844l.86718-.48536a.12074.12074 0 0 1 .10059-.01562 12.644 12.644 0 0 0 1.13818.66406v.96777a1 1 0 0 0 .74121.96583 9.50046 9.50046 0 0 0 2.46.32812c.04052 0 .08154-.001.12255-.001a9.55434 9.55434 0 0 0 2.3462-.33105 1.00054 1.00054 0 0 0 .74121-.96582l.00879-.999a7.75026 7.75026 0 0 0 1.13085-.62988.12554.12554 0 0 1 .09815.0166l.86377.48243a.99949.99949 0 0 0 1.17676-.14844 8.93 8.93 0 0 0 2.48242-4.16211 1.001 1.001 0 0 0 -.47852-1.13086l-.8999-.50293q.02929-.31641.0293-.62793 0-.312-.0293-.62793l.89941-.50293a1.001 1.001 0 0 0 .47852-1.13086 8.93827 8.93827 0 0 0 -2.477-4.165 1.00041 1.00041 0 0 0 -1.17725-.14844l-.86718.48536a.14462.14462 0 0 1 -.10059.01562 12.5478 12.5478 0 0 0 -1.13818-.66406v-.96765a1 1 0 0 0 -.74129-.96588zm.76171 4.25586a2.11084 2.11084 0 0 0 2.19288.07227l.19043-.10645a6.9326 6.9326 0 0 1 1.18462 1.97461l-.77979.43555a1.00061 1.00061 0 0 0 -.49463 1.06055 4.96077 4.96077 0 0 1 0 1.959 1.00061 1.00061 0 0 0 .49458 1.06049l.77979.43555a6.93 6.93 0 0 1 -1.18848 1.97265l-.1875-.10449a2.10224 2.10224 0 0 0 -2.18945.07031 5.73191 5.73191 0 0 1 -.83838.4668 2.03512 2.03512 0 0 0 -1.18457 1.85742v.15918a7.11564 7.11564 0 0 1 -1.1128.10156 6.83407 6.83407 0 0 1 -1.29834-.09863v-.16211a2.03512 2.03512 0 0 0 -1.18457-1.85742 5.69026 5.69026 0 0 1 -.83593-.46582 2.11509 2.11509 0 0 0 -2.19288-.07129l-.19043.10645a6.91029 6.91029 0 0 1 -1.18457-1.97461l.77979-.43555a1.00061 1.00061 0 0 0 .49463-1.06055 4.96077 4.96077 0 0 1 0-1.959 1.00061 1.00061 0 0 0 -.49463-1.06045l-.77979-.43555a6.93 6.93 0 0 1 1.18848-1.97265l.187.10449a2.10989 2.10989 0 0 0 2.18994-.07031 5.73191 5.73191 0 0 1 .83838-.4668 2.03512 2.03512 0 0 0 1.18457-1.85742v-.15918a7.11564 7.11564 0 0 1 1.1128-.10156 6.26436 6.26436 0 0 1 1.29834.09863v.16211a2.03512 2.03512 0 0 0 1.18457 1.85742 5.75092 5.75092 0 0 1 .83594.46482z"/><path d="m28 20a4 4 0 1 0 4-4 4.00427 4.00427 0 0 0 -4 4zm6 0a2 2 0 1 1 -2-2 2.00229 2.00229 0 0 1 2 2z"/><path d="m36 29h2v7h-2z"/><path d="m31 31h2v8h-2z"/><path d="m26 29h2v7h-2z"/><path d="m61 1h-13a2.00229 2.00229 0 0 0 -2 2v13a2.00229 2.00229 0 0 0 2 2h13a2.00229 2.00229 0 0 0 2-2v-13a2.00229 2.00229 0 0 0 -2-2zm-13 15v-13h13l.00146 13z"/><path d="m61 21h-13a2.00229 2.00229 0 0 0 -2 2v13a2.00229 2.00229 0 0 0 2 2h13a2.00229 2.00229 0 0 0 2-2v-13a2.00229 2.00229 0 0 0 -2-2zm-3 15h-7v-3a2.00229 2.00229 0 0 1 2-2h3a2.00229 2.00229 0 0 1 2 2zm-5-8.5a1.5 1.5 0 1 1 1.5 1.5 1.50164 1.50164 0 0 1 -1.5-1.5zm7 8.5v-3a4.00064 4.00064 0 0 0 -2.51093-3.70587 3.46234 3.46234 0 0 0 .51093-1.79413 3.5 3.5 0 0 0 -7 0 3.46234 3.46234 0 0 0 .51093 1.79413 4.00064 4.00064 0 0 0 -2.51093 3.70587v3h-1v-13h13l.00146 13z"/><path d="m3 18h13a2.00229 2.00229 0 0 0 2-2v-13a2.00229 2.00229 0 0 0 -2-2h-13a2.00229 2.00229 0 0 0 -2 2v13a2.00229 2.00229 0 0 0 2 2zm0-15h13l.00146 13h-13.00146z"/><path d="m52 8h2v7h-2z"/><path d="m49 10h2v5h-2z"/><path d="m55 6h2v9h-2z"/><path d="m58 4h2v11h-2z"/><path d="m3 38h13a2.00229 2.00229 0 0 0 2-2v-13a2.00229 2.00229 0 0 0 -2-2h-13a2.00229 2.00229 0 0 0 -2 2v13a2.00229 2.00229 0 0 0 2 2zm0-15h13l.00146 13h-13.00146z"/><path d="m14.05518 7.56641-2.38575-.34668-1.06643-2.16211a1.00024 1.00024 0 0 0 -1.794 0l-1.06681 2.16211-2.38574.34668a.99934.99934 0 0 0 -.5542 1.70507l1.72607 1.68262-.40771 2.37695a.99966.99966 0 0 0 1.45117 1.05372l2.13427-1.1211 2.13379 1.1211a1.00013 1.00013 0 0 0 1.45116-1.05372l-.40772-2.376 1.72608-1.6836a.99934.99934 0 0 0 -.5542-1.70507zm-2.94434 2.32324a1.0004 1.0004 0 0 0 -.28809.88476l.1543.89747-.80566-.42286a.99349.99349 0 0 0 -.93067 0l-.80615.42286.1543-.89747a1.0004 1.0004 0 0 0 -.28809-.88476l-.65137-.63574.90039-.13091a1.00066 1.00066 0 0 0 .75342-.54688l.40283-.8164.40235.8164a1.00066 1.00066 0 0 0 .75342.54688l.90039.13086z"/><path d="m9.5 26.5a1.001 1.001 0 0 1 1 1h2a2.99507 2.99507 0 0 0 -2-2.81573v-1.18427h-2v1.18427a2.99257 2.99257 0 0 0 1 5.81573 1 1 0 1 1 -1 1h-2a2.995 2.995 0 0 0 2 2.81567v1.18433h2v-1.18427a2.99257 2.99257 0 0 0 -1-5.81573 1 1 0 0 1 0-2z"/><path d="m31 40h2v2h-2z"/><path d="m36 37h2v2h-2z"/><path d="m26 37h2v2h-2z"/></svg>