<svg id="Layer_1" height="512" viewBox="0 0 64 64" width="512" xmlns="http://www.w3.org/2000/svg" data-name="Layer 1"><path d="m2 57h9a.99974.99974 0 0 0 1 1h18a.99974.99974 0 0 0 1-1v-2h4v7a.99974.99974 0 0 0 1 1h24a.99974.99974 0 0 0 1-1v-8a4.99373 4.99373 0 0 0 -3.29022-4.67938 5.0001 5.0001 0 1 0 -7.41956 0 4.998 4.998 0 0 0 -2.29022 1.71032 4.998 4.998 0 0 0 -2.29022-1.71032 4.98776 4.98776 0 0 0 -4.70978-8.21955v-2.10107a1.00024 1.00024 0 0 0 -.71289-.958l-9.28711-2.78614v-5.25586a2.00229 2.00229 0 0 0 -2-2h-1.58594l-5.707-5.707a.99962.99962 0 0 0 -1.41406 0l-5.70706 5.707h-1.58594a2.00229 2.00229 0 0 0 -2 2v5.25586l-9.28711 2.78614a1.00024 1.00024 0 0 0 -.71289.958v17a.99974.99974 0 0 0 1 1zm52-14a2.98179 2.98179 0 0 1 2.21973 1h-4.43946a2.98179 2.98179 0 0 1 2.21973-1zm3 3a3 3 0 0 1 -6 0zm-2.10352 9.85254-.89648 1.34473-.89648-1.34473.89648-2.69043zm-5.89648-1.85254a3.00328 3.00328 0 0 1 3-3h.61249l-1.56122 4.68359a.99938.99938 0 0 0 .1167.8711l2 3a.99995.99995 0 0 0 1.66406 0l2-3a.99938.99938 0 0 0 .1167-.8711l-1.56122-4.68359h.61249a3.00328 3.00328 0 0 1 3 3v7h-10zm-2 0v7h-10v-7a3.00328 3.00328 0 0 1 3-3h.61249l-1.56122 4.68359a.99938.99938 0 0 0 .1167.8711l2 3a.99995.99995 0 0 0 1.66406 0l2-3a.99938.99938 0 0 0 .1167-.8711l-1.56122-4.68359h.61249a3.00328 3.00328 0 0 1 3 3zm-5.89648 1.85254.89648-2.69043.89648 2.69043-.89648 1.34473zm.89648-6.85254a3.00328 3.00328 0 0 1 -3-3h6a3.00328 3.00328 0 0 1 -3 3zm0-6a2.98179 2.98179 0 0 1 2.21973 1h-4.43946a2.98179 2.98179 0 0 1 2.21973-1zm-11-5.65588 8 2.4v2.25588h.03094a4.9388 4.9388 0 0 0 -.74072 7.32062 5.00363 5.00363 0 0 0 -3.18915 3.67938h-4.10107zm-8 18.65588h-4v-5h4zm-2-31.58594 3.58594 3.58594h-7.17188zm-8 5.58594h16v26h-4v-6a.99974.99974 0 0 0 -1-1h-6a.99974.99974 0 0 0 -1 1v6h-4zm-10 9.74414 8-2.4v17.65586h-8z"/><path d="m15 33h12v2h-12z"/><path d="m15 37h12v2h-12z"/><path d="m15 41h12v2h-12z"/><path d="m15 45h12v2h-12z"/><path d="m5 43h4v2h-4z"/><path d="m33 43h3v2h-3z"/><path d="m5 47h4v2h-4z"/><path d="m33 47h3v2h-3z"/><path d="m49.04883 21.78418a1.98753 1.98753 0 0 0 1.51806.19922l2.89747-.77637a1.99832 1.99832 0 0 0 1.41406-2.44922l-4.14112-15.45508a2.00513 2.00513 0 0 0 -2.44921-1.41406l-2.89893.77633a2.00469 2.00469 0 0 0 -1.47766 2.04881l-8.01666 5.29583a.99158.99158 0 0 0 -1.06037-.37487l-3.86377 1.03515a.99924.99924 0 0 0 -.707 1.22461l.25891.96625-.96545.25934a1.99929 1.99929 0 0 0 -1.41455 2.44922l1.03515 3.86328a1.99448 1.99448 0 0 0 2.44924 1.41406l.96625-.25885.25885.96588a.9994.9994 0 0 0 1.22461.707l.96588-.25879 2.07074 7.72754a.9994.9994 0 0 0 1.22461.707l3.86377-1.03515a.99973.99973 0 0 0 .61523-1.45117l-1.89214-3.40814-.261-4.05084 7.59851.45837a1.98822 1.98822 0 0 0 .78652.83465zm-.24317-17.96387 4.14307 15.4541-.00146.001h-.00049l-2.89795.77637-4.14112-15.4551zm-17.69628 15.09469-1.03467-3.86328.96557-.25922 1.03534 3.86365zm3.41552 1.15527-2.0708-7.72754 1.93213-.51757 2.0708 7.72753zm4.26123 8.17578-1.812-6.76165.96625-.25885a.95525.95525 0 0 0 .7157-.78516l.28723 4.45508a.99665.99665 0 0 0 .124.4209l1.3794 2.48437zm-.584-9.9068-1.69782-6.33593 7.91639-5.22968 3.252 12.1369z"/><path d="m56.584 8.273h6.001v2h-6.001z" transform="matrix(.971 -.241 .241 .971 -.48 14.614)"/><path d="m59 12.139h2v6.001h-2z" transform="matrix(.019 -1 1 .019 43.75 74.848)"/><path d="m53.894 2.548h6.001v2h-6.001z" transform="matrix(.857 -.516 .516 .857 6.33 29.869)"/></svg>