<svg id="Layer_1" height="512" viewBox="0 0 64 64" width="512" xmlns="http://www.w3.org/2000/svg" data-name="Layer 1"><path d="m59.70978 50.32062a5.0001 5.0001 0 1 0 -7.41956 0 4.99373 4.99373 0 0 0 -3.29022 4.67938v7a.99974.99974 0 0 0 1 1h12a.99974.99974 0 0 0 1-1v-7a4.99373 4.99373 0 0 0 -3.29022-4.67938zm-3.70978-6.32062a2.98179 2.98179 0 0 1 2.21973 1h-4.43946a2.98179 2.98179 0 0 1 2.21973-1zm3 3a3 3 0 0 1 -6 0zm2 14h-10v-6a3.00328 3.00328 0 0 1 3-3h4a3.00328 3.00328 0 0 1 3 3z"/><path d="m2 63h12a.99974.99974 0 0 0 1-1v-7a4.99348 4.99348 0 0 0 -3.29321-4.68036 4.98751 4.98751 0 0 0 -7.10523-6.98664 4.98561 4.98561 0 0 0 -.32489 6.99182 4.99415 4.99415 0 0 0 -3.27667 4.67518v7a.99974.99974 0 0 0 1 1zm3.96094-18.2002a2.97342 2.97342 0 0 1 2.03515-.7998c.03907 0 .07813.00049.11719.00244a2.98047 2.98047 0 0 1 2.08692.9585c.01129.01214.01867.02673.02972.03906h-4.44684c.06-.06635.11145-.13867.17786-.2002zm5.03033 2.2002c0 .03833.00824.07526.00678.11377a2.979 2.979 0 0 1 -.959 2.08643 2.93484 2.93484 0 0 1 -2.15234.79736 2.9842 2.9842 0 0 1 -2.87798-2.99756zm-7.99127 8a3.00328 3.00328 0 0 1 3-3h4a3.00328 3.00328 0 0 1 3 3v6h-10z"/><path d="m25 55v7a.99974.99974 0 0 0 1 1h12a.99974.99974 0 0 0 1-1v-7a4.99348 4.99348 0 0 0 -3.29321-4.68036 4.98883 4.98883 0 1 0 -7.43012.00519 4.99415 4.99415 0 0 0 -3.27667 4.67517zm4.96094-10.2002a2.97342 2.97342 0 0 1 2.03515-.7998c.03907 0 .07813.00049.11719.00244a2.98047 2.98047 0 0 1 2.08692.9585c.01129.01214.01867.02673.02972.03906h-4.44684c.06-.06635.11145-.13867.17786-.2002zm5.03033 2.2002c0 .03833.00824.07526.00678.11377a2.979 2.979 0 0 1 -.959 2.08643 2.92606 2.92606 0 0 1 -2.15234.79736 2.9842 2.9842 0 0 1 -2.87798-2.99756zm-7.99127 8a3.00328 3.00328 0 0 1 3-3h4a3.00328 3.00328 0 0 1 3 3v6h-10z"/><path d="m44 7.5a1.1735 1.1735 0 0 0 .8877 1.13916c1.71679.43213 2.041.75586 2.47363 2.47168a1.174 1.174 0 0 0 2.27734.002c.43262-1.71777.75684-2.0415 2.47461-2.47363a1.17509 1.17509 0 0 0 0-2.27832h-.001c-1.71679-.43213-2.041-.75586-2.47363-2.47168a1.174 1.174 0 0 0 -2.27734-.00195c-.43262 1.71777-.75684 2.0415-2.47461 2.47363a1.1737 1.1737 0 0 0 -.8867 1.13911zm4.5-1.07959a3.46645 3.46645 0 0 0 1.0791 1.07959 3.46645 3.46645 0 0 0 -1.0791 1.07959 3.46645 3.46645 0 0 0 -1.0791-1.07959 3.46645 3.46645 0 0 0 1.0791-1.07959z"/><path d="m5.8877 15.63916c1.71679.43213 2.041.75586 2.47363 2.47168a1.174 1.174 0 0 0 2.27734.002c.43262-1.71777.75684-2.0415 2.47461-2.47363a1.17509 1.17509 0 0 0 0-2.27832h-.001c-1.71679-.43213-2.041-.75586-2.47363-2.47168a1.174 1.174 0 0 0 -2.27734-.002c-.43262 1.71777-.75684 2.0415-2.47461 2.47363a1.17493 1.17493 0 0 0 .001 2.27832zm3.6123-2.21875a3.46645 3.46645 0 0 0 1.0791 1.07959 3.46645 3.46645 0 0 0 -1.0791 1.07959 3.46645 3.46645 0 0 0 -1.0791-1.07959 3.46645 3.46645 0 0 0 1.0791-1.07959z"/><path d="m31.5332 3a25.68711 25.68711 0 0 1 11.87989 2.78809l.92773-1.77247a27.707 27.707 0 0 0 -12.80762-3.01562c-8.10058 0-15.60644 3.30664-19.58593 8.62988l1.60156 1.19727c3.61035-4.82815 10.50097-7.82715 17.98437-7.82715z"/><path d="m52.36914 10.52686-1.76172.94628a11.46626 11.46626 0 0 1 1.41211 5.46973c0 8.271-9.19043 15-20.48633 15-9.31933 0-17.47168-4.61426-19.82617-11.22119l-1.88476.6709c2.63378 7.38965 11.56152 12.55029 21.71093 12.55029 12.39942 0 22.48633-7.626 22.48633-17a13.43963 13.43963 0 0 0 -1.65039-6.41601z"/><path d="m31 39h2v2h-2z"/><path d="m31 35h2v2h-2z"/><path d="m48.572 35.629h2v2h-2z" transform="matrix(.874 -.486 .486 .874 -11.551 28.691)"/><path d="m50.514 39.126h2v2h-2z" transform="matrix(.874 -.486 .486 .874 -13.005 30.075)"/><path d="m46.629 32.132h2v2h-2z" transform="matrix(.874 -.486 .486 .874 -10.098 27.314)"/><path d="m14.37 32.133h2v2h-2z" transform="matrix(.486 -.874 .874 .486 -21.056 30.47)"/><path d="m10.486 39.126h2v2h-2z" transform="matrix(.486 -.874 .874 .486 -29.166 30.67)"/><path d="m12.428 35.629h2v2h-2z" transform="matrix(.486 -.874 .874 .486 -25.111 30.57)"/><path d="m36 8h-.50012l-2.70008-3.6001a1.03527 1.03527 0 0 0 -1.5996 0l-2.70008 3.6001h-.50012a2.00229 2.00229 0 0 0 -2 2v2.24591l-6.27441 1.79266a.99979.99979 0 0 0 -.72559.96143v11a.99974.99974 0 0 0 1 1h6a.99974.99974 0 0 0 1 1h10a.99974.99974 0 0 0 1-1h6a.99974.99974 0 0 0 1-1v-11a.99979.99979 0 0 0 -.72559-.96143l-6.27441-1.79266v-2.24591a2.00229 2.00229 0 0 0 -2-2zm-10 17h-5v-9.24561l5-1.42877zm6-18.3335 1.00012 1.3335h-2.00024zm1 19.3335h-2v-2h2zm3 0h-1v-3a.99974.99974 0 0 0 -1-1h-4a.99974.99974 0 0 0 -1 1v3h-1v-16h8zm7-10.24561v9.24561h-5v-10.67438z"/><path d="m29.5 11h5v2h-5z"/><path d="m29.5 15h5v2h-5z"/><path d="m29.5 19h5v2h-5z"/><path d="m22 17h3v2h-3z"/><path d="m39 17h3v2h-3z"/><path d="m22 20h3v2h-3z"/><path d="m39 20h3v2h-3z"/></svg>