<svg id="Layer_1" height="512" viewBox="0 0 64 64" width="512" xmlns="http://www.w3.org/2000/svg" data-name="Layer 1"><path d="m2 62h11a.99943.99943 0 0 0 1 1h12a.99943.99943 0 0 0 1-1h11a.99943.99943 0 0 0 1-1v-8a4.99373 4.99373 0 0 0 -3.29022-4.67938 5.0001 5.0001 0 1 0 -7.41956 0 4.995 4.995 0 0 0 -2.64776 2.27716 4.98979 4.98979 0 0 0 -1.93476-1.27778 4.9552 4.9552 0 0 0 1.28839-3.12952 5.00552 5.00552 0 0 0 -4.80664-5.18652 4.91749 4.91749 0 0 0 -3.58789 1.3291 4.98518 4.98518 0 0 0 -.32464 6.9917 4.99058 4.99058 0 0 0 -1.91938 1.27307 4.9949 4.9949 0 0 0 -2.64984-2.27783 4.9552 4.9552 0 0 0 1.28839-3.12952 5.00552 5.00552 0 0 0 -4.80664-5.18652 4.99129 4.99129 0 0 0 -3.91253 8.3208 4.99422 4.99422 0 0 0 -3.27692 4.67524v8a.99943.99943 0 0 0 1 1zm30-20a2.98179 2.98179 0 0 1 2.21973 1h-4.43946a2.98179 2.98179 0 0 1 2.21973-1zm3 3a3 3 0 0 1 -6 0zm-2.10352 9.85254-.89648 1.34473-.89648-1.34473.89648-2.69043zm-5.89648-1.85254a3.00328 3.00328 0 0 1 3-3h.613l-1.56122 4.68359a1.00084 1.00084 0 0 0 .11621.8711l2 3a.99995.99995 0 0 0 1.66406 0l2-3a1.00084 1.00084 0 0 0 .11621-.8711l-1.56126-4.68359h.613a3.00328 3.00328 0 0 1 3 3v7h-10zm-9.03906-9.2002a2.97342 2.97342 0 0 1 2.03515-.7998c.03907 0 .07813.001.11719.002a2.981 2.981 0 0 1 2.08692.959c.01129.01214.01867.02673.02972.03906h-4.44672c.06-.06641.11139-.13873.17774-.20026zm5.03027 2.2002c0 .03845.0083.07562.00684.11426a3.03845 3.03845 0 0 1 -3.11133 2.88379 2.985 2.985 0 0 1 -2.87799-2.99805zm-2.09473 9.85254-.89648 1.34473-.89648-1.34473.89648-2.69043zm-5.89648-1.85254a3.00328 3.00328 0 0 1 3-3h.613l-1.56122 4.68359a1.00084 1.00084 0 0 0 .11621.8711l2 3a.99995.99995 0 0 0 1.66406 0l2-3a1.00084 1.00084 0 0 0 .11621-.8711l-1.56126-4.68359h.613a3.00328 3.00328 0 0 1 3 3v7h-10zm-9.03906-11.2002a2.97342 2.97342 0 0 1 2.03515-.7998c.03907 0 .07813.001.11719.002a2.981 2.981 0 0 1 2.08692.959c.01129.01214.01867.02673.02972.03906h-4.44672c.06-.06641.11139-.13873.17774-.20026zm5.03027 2.2002c0 .03845.0083.07562.00684.11426a3.018 3.018 0 0 1 -3.11133 2.88379 2.985 2.985 0 0 1 -2.87799-2.99805zm-2.09473 9.85254-.89648 1.34473-.89648-1.34473.89648-2.69043zm-5.89648-1.85254a3.00328 3.00328 0 0 1 3-3h.613l-1.56124 4.68359a1.00084 1.00084 0 0 0 .11621.8711l2 3a.99995.99995 0 0 0 1.66406 0l2-3a1.00084 1.00084 0 0 0 .11621-.8711l-1.56124-4.68359h.613a3.00328 3.00328 0 0 1 3 3v7h-10z"/><path d="m17.45508 36.67188a9.4948 9.4948 0 0 0 2.45992.32812c.041 0 .081-.001.12207-.001a9.54505 9.54505 0 0 0 2.34668-.33105 1 1 0 0 0 .74121-.96582l.00879-.999a7.81263 7.81263 0 0 0 1.12988-.62988.12941.12941 0 0 1 .09961.0166l.86426.48243a1.00043 1.00043 0 0 0 1.17676-.14844 8.93658 8.93658 0 0 0 2.48144-4.16113.99986.99986 0 0 0 -.47851-1.13184l-.90039-.50293c.01953-.21191.02929-.42188.02929-.62793s-.00976-.416-.02929-.62793l.90039-.50293a.99981.99981 0 0 0 .47754-1.13086 8.92529 8.92529 0 0 0 -2.47657-4.165 1.001 1.001 0 0 0 -1.17773-.14844l-.86719.48536a.14492.14492 0 0 1 -.10058.01562 12.82349 12.82349 0 0 0 -1.1377-.66406v-.96777a1 1 0 0 0 -.74121-.96583 9.91239 9.91239 0 0 0 -2.582-.32714 9.54505 9.54505 0 0 0 -2.34668.33105 1 1 0 0 0 -.74121.96582l-.00977.999a7.8217 7.8217 0 0 0 -1.1289.62988.12918.12918 0 0 1 -.09961-.0166l-.86426-.48243a1.00384 1.00384 0 0 0 -1.17676.14844 8.91832 8.91832 0 0 0 -2.48047 4.16211.99983.99983 0 0 0 .47852 1.13086l.89941.50293q-.02929.31641-.0293.62793 0 .312.0293.62793l-.89941.50293a1.00036 1.00036 0 0 0 -.47852 1.13086 8.92528 8.92528 0 0 0 2.47656 4.165 1.00359 1.00359 0 0 0 1.17774.14844l.86719-.48536a.13345.13345 0 0 1 .10058-.01562 12.70171 12.70171 0 0 0 1.1377.66406v.96777a1 1 0 0 0 .74122.96585zm-.76074-4.25588a2.11769 2.11769 0 0 0 -2.19434-.07225l-.19043.10645a6.92908 6.92908 0 0 1 -1.18357-1.97461l.77929-.43555a1.00165 1.00165 0 0 0 .49512-1.06055 4.96077 4.96077 0 0 1 0-1.959 1.00165 1.00165 0 0 0 -.49514-1.06049l-.77929-.43555a6.90465 6.90465 0 0 1 1.1875-1.97265l.1875.10449a2.10621 2.10621 0 0 0 2.19043-.07031 5.701 5.701 0 0 1 .83789-.4668 2.03619 2.03619 0 0 0 1.18457-1.85742v-.15918a7.10552 7.10552 0 0 1 1.11328-.10156 6.681 6.681 0 0 1 1.29785.09863v.16211a2.03617 2.03617 0 0 0 1.18457 1.85742 5.68636 5.68636 0 0 1 .83594.46582 2.11417 2.11417 0 0 0 2.19336.07129l.19043-.10645a6.95459 6.95459 0 0 1 1.18457 1.97461l-.78028.43555a1.001 1.001 0 0 0 -.49414 1.06055 5.01007 5.01007 0 0 1 0 1.959 1.00167 1.00167 0 0 0 .49512 1.06045l.7793.43555a6.93 6.93 0 0 1 -1.18848 1.97265l-.1875-.10449a2.11522 2.11522 0 0 0 -2.19043.07031 5.72209 5.72209 0 0 1 -.83789.4668 2.03617 2.03617 0 0 0 -1.18457 1.85746v.15918a7.10552 7.10552 0 0 1 -1.11328.10156 6.4539 6.4539 0 0 1 -1.29785-.09863v-.16211a2.03693 2.03693 0 0 0 -1.1836-1.85742 5.65039 5.65039 0 0 1 -.83593-.46486z"/><path d="m23.77637 28a3.85694 3.85694 0 1 0 -3.85645 3.85742 3.86163 3.86163 0 0 0 3.85645-3.85742zm-5.71387 0a1.85694 1.85694 0 1 1 1.85742 1.85742 1.85923 1.85923 0 0 1 -1.85742-1.85742z"/><path d="m62.35156 6.93652a1.0001 1.0001 0 0 0 .09571-1.831l-8-4a1.00038 1.00038 0 0 0 -1.44727.89448v14h-4a.99943.99943 0 0 0 -1 1v3a.99943.99943 0 0 0 1 1h10a.99943.99943 0 0 0 1-1v-3a.99943.99943 0 0 0 -1-1h-4v-6.30664zm-7.35156-3.31836 4.502 2.251-4.502 1.68748zm3 14.38184v1h-8v-1z"/><path d="m53 23h2v2h-2z"/><path d="m53 27h2v2h-2z"/><path d="m53 31h2v2h-2z"/><path d="m53 35h2v2h-2z"/><path d="m53 39h2v2h-2z"/><path d="m53 43h2v2h-2z"/><path d="m53 47h2v2h-2z"/><path d="m53 55h2v2h-2z"/><path d="m53 51h2v2h-2z"/><path d="m49 55h2v2h-2z"/><path d="m45 55h2v2h-2z"/><path d="m41 55h2v2h-2z"/></svg>