<?xml version="1.0" encoding="UTF-8"?>
<svg xmlns="http://www.w3.org/2000/svg" id="Layer_1" data-name="Layer 1" viewBox="0 0 64 64" width="512" height="512"><path d="M38.29572,48.56134l-3.106-2.09827.65893-.55536-1.28906-1.52929-2.52246,2.126a.6808.6808,0,0,1-.9082-1.01367l2.125-2.022,3.43359-.47021a.99924.99924,0,0,0,.39941-.146l3.168-2.00781-1.07031-1.68946L36.2002,41.04639l-3.53809.48486a.99789.99789,0,0,0-.55371.2666l-.44592.42432-1.89881-1.019a.99672.99672,0,0,0-.80469-.062l-1.874.65967L25.14746,40.436,23.99512,42.0708l2.35937,1.66211a.99414.99414,0,0,0,.90821.126l1.94433-.68457.93018.49926L29.75,44.042a2.68086,2.68086,0,0,0,3.57617,3.9917l.27429-.23114,4.23548,2.86005a.72118.72118,0,0,1,.21972.80957l-2.77929,2.90869c-.50391.57129-.67578.61621-.69239.61914a.85306.85306,0,0,1-.26171-.10791l-.29657-.135a2.73236,2.73236,0,0,0-.81867-2.80987c-.01269-.01123-.02539-.02149-.03906-.03174L29.0498,48.73145a2.47684,2.47684,0,0,0-3.0039-.19831L21.834,45.02148l-1.28125,1.53614,4.31073,3.594a3.62523,3.62523,0,0,0,1.074,3.89331l2.87988,2.12451a3.25908,3.25908,0,0,0,2.13086.79737,3.35248,3.35248,0,0,0,.3418-.01758,3.24826,3.24826,0,0,0,1.49188-.56195l.65656.29779a2.45335,2.45335,0,0,0,1.15918.31738,3.00669,3.00669,0,0,0,2.15136-1.269l2.86719-3a1.01882,1.01882,0,0,0,.15918-.21924,2.72659,2.72659,0,0,0-.006-2.55792l4.08313-3.05341-1.19727-1.60156Zm-6.30158,5.87372a1.32153,1.32153,0,0,1-.91211.5249,1.34708,1.34708,0,0,1-1.02051-.35449l-2.87988-2.124a1.58153,1.58153,0,0,1-.20312-2.13819.55224.55224,0,0,1,.37793-.22119.38651.38651,0,0,1,.04882-.00293.58332.58332,0,0,1,.38184.1626l4.13281,3.19678A.7269.7269,0,0,1,31.99414,54.43506Z"/><path d="M59.70978,49.32062a5.0001,5.0001,0,1,0-7.41956,0A4.99373,4.99373,0,0,0,49,54v8a.99974.99974,0,0,0,1,1H62a.99974.99974,0,0,0,1-1V54A4.99373,4.99373,0,0,0,59.70978,49.32062ZM56,43a2.98179,2.98179,0,0,1,2.21973,1H53.78027A2.98179,2.98179,0,0,1,56,43Zm3,3a3,3,0,0,1-6,0Zm-2.10352,9.852L56,57.19727l-.89648-1.34522L56,53.16211ZM61,61H51V54a3.00328,3.00328,0,0,1,3-3h.613l-1.56122,4.68359a1.00084,1.00084,0,0,0,.11621.8711l2,3a.99995.99995,0,0,0,1.66406,0l2-3a1.00084,1.00084,0,0,0,.11621-.8711L57.387,51H58a3.00328,3.00328,0,0,1,3,3Z"/><path d="M2,63H14a.99974.99974,0,0,0,1-1V54a4.99348,4.99348,0,0,0-3.29321-4.68036A4.98751,4.98751,0,0,0,4.60156,42.333a4.98561,4.98561,0,0,0-.32489,6.99182A4.99415,4.99415,0,0,0,1,54v8A.99974.99974,0,0,0,2,63ZM5.96094,43.7998A2.97342,2.97342,0,0,1,7.99609,43c.03907,0,.07813.00049.11719.00244a2.98047,2.98047,0,0,1,2.08692.9585c.01129.01214.01867.02673.02972.03906H5.78308C5.84308,43.93365,5.89453,43.86133,5.96094,43.7998ZM10.99127,46c0,.03833.00824.07526.00678.11377a2.979,2.979,0,0,1-.959,2.08643,2.89772,2.89772,0,0,1-2.15234.79736A2.9842,2.9842,0,0,1,5.00873,46Zm-2.09479,9.852L8,57.19727l-.89648-1.34522L8,53.16211ZM3,54a3.00328,3.00328,0,0,1,3-3h.613L5.05176,55.68359a1.00084,1.00084,0,0,0,.11621.8711l2,3a.99995.99995,0,0,0,1.66406,0l2-3a1.00084,1.00084,0,0,0,.11621-.8711L9.387,51H10a3.00328,3.00328,0,0,1,3,3v7H3Z"/><path d="M47.36133,11.11084a1.174,1.174,0,0,0,2.27734.002c.43262-1.71777.75684-2.0415,2.47461-2.47363a1.17509,1.17509,0,0,0,0-2.27832h-.001c-1.71679-.43213-2.041-.75586-2.47363-2.47168a1.174,1.174,0,0,0-2.27734-.00195c-.43262,1.71777-.75684,2.0415-2.47461,2.47363a1.17493,1.17493,0,0,0,.001,2.27832C46.60449,9.07129,46.92871,9.395,47.36133,11.11084ZM48.5,6.42041A3.46645,3.46645,0,0,0,49.5791,7.5,3.46645,3.46645,0,0,0,48.5,8.57959,3.46645,3.46645,0,0,0,47.4209,7.5,3.46645,3.46645,0,0,0,48.5,6.42041Z"/><path d="M36,8h-.50012L32.7998,4.3999a1.03527,1.03527,0,0,0-1.5996,0L28.50012,8H28a2.00229,2.00229,0,0,0-2,2v2.24591l-6.27441,1.79266A.99979.99979,0,0,0,19,15V26a.99974.99974,0,0,0,1,1h6a.99974.99974,0,0,0,1,1H37a.99974.99974,0,0,0,1-1h6a.99974.99974,0,0,0,1-1V15a.99979.99979,0,0,0-.72559-.96143L38,12.24591V10A2.00229,2.00229,0,0,0,36,8ZM26,25H21V15.75439l5-1.42877ZM32,6.6665,33.00012,8H30.99988ZM33,26H31V24h2Zm3,0H35V23a.99974.99974,0,0,0-1-1H30a.99974.99974,0,0,0-1,1v3H28V10h8Zm7-10.24561V25H38V14.32562Z"/><rect x="29.5" y="11" width="5" height="2"/><rect x="29.5" y="15" width="5" height="2"/><rect x="29.5" y="19" width="5" height="2"/><rect x="22" y="17" width="3" height="2"/><rect x="39" y="17" width="3" height="2"/><rect x="22" y="20" width="3" height="2"/><rect x="39" y="20" width="3" height="2"/><path d="M47,41a5.00588,5.00588,0,0,0-5-5H22a5.00588,5.00588,0,0,0-5,5V55a5.00588,5.00588,0,0,0,5,5H42a5.00588,5.00588,0,0,0,5-5ZM45,55a3.00328,3.00328,0,0,1-3,3H22a3.00328,3.00328,0,0,1-3-3V41a3.00328,3.00328,0,0,1,3-3H42a3.00328,3.00328,0,0,1,3,3Z"/><path d="M54,17.5a12.92994,12.92994,0,0,0-1.4707-5.95752l-1.7793.915A10.942,10.942,0,0,1,52,17.5C52,25.49512,43.02832,32,32,32S12,25.49512,12,17.5,20.97168,3,32,3A25.29406,25.29406,0,0,1,43.542,5.66748l.916-1.77832A27.30347,27.30347,0,0,0,32,1C19.86914,1,10,8.40186,10,17.5S19.86914,34,32,34,54,26.59814,54,17.5Z"/></svg>
