<?xml version="1.0" encoding="UTF-8"?>
<svg xmlns="http://www.w3.org/2000/svg" id="Layer_1" data-name="Layer 1" viewBox="0 0 64 64" width="512" height="512"><path d="M2,63H15a.99974.99974,0,0,0,1-1V52a4.99021,4.99021,0,0,0-3.51135-4.74823A5.48219,5.48219,0,0,0,8.709,38.00391a5.496,5.496,0,0,0-4.21887,9.25451A4.99014,4.99014,0,0,0,1,52V62A.99974.99974,0,0,0,2,63ZM8.499,40c.044,0,.08887.001.13379.00293A3.46091,3.46091,0,0,1,10.93018,41H6.0567A3.489,3.489,0,0,1,8.499,40ZM5.05249,43h6.9068a3.53491,3.53491,0,0,1,.03778.63281v.00049A3.50009,3.50009,0,0,1,5.002,43.36719,3.43214,3.43214,0,0,1,5.05249,43ZM3,52a3.00328,3.00328,0,0,1,3-3h5a3.00328,3.00328,0,0,1,3,3v9H3Z"/><path d="M59.48865,47.25177A5.48219,5.48219,0,0,0,55.709,38.00391a5.496,5.496,0,0,0-4.21887,9.25451A4.99014,4.99014,0,0,0,48,52V62a.99974.99974,0,0,0,1,1H62a.99974.99974,0,0,0,1-1V52A4.99021,4.99021,0,0,0,59.48865,47.25177ZM55.499,40c.04395,0,.08887.001.13379.00293A3.46091,3.46091,0,0,1,57.93018,41H53.0567A3.489,3.489,0,0,1,55.499,40Zm-3.44653,3h6.9068a3.53491,3.53491,0,0,1,.03778.63281v.00049a3.50009,3.50009,0,0,1-6.99512-.26611A3.43214,3.43214,0,0,1,52.05249,43ZM61,61H50V52a3.00328,3.00328,0,0,1,3-3h5a3.00328,3.00328,0,0,1,3,3Z"/><path d="M41.09668,31.58594l-1.293-1.293L38.38965,31.707l2,2a.99963.99963,0,0,0,1.41406,0l5-5L45.38965,27.293Z"/><path d="M46.53766,22.82318a28.10469,28.10469,0,0,0,1.66546-6.71576l.58985-4.99023a1.00043,1.00043,0,0,0-.624-1.04639L41.90039,7.58057A21.5004,21.5004,0,0,1,35.4668,3.625L32.81738,1.25488a.99975.99975,0,0,0-1.332-.00146L28.82227,3.62549a21.50933,21.50933,0,0,1-6.43262,3.95508L16.12988,10.0708a.99912.99912,0,0,0-.623,1.04443l.58007,4.99219c1.08985,9.21485,6.64063,17.438,15.2334,22.563l.32031.18994a1.00152,1.00152,0,0,0,1.03321-.00781l.29883-.18359a33.47481,33.47481,0,0,0,2.8858-1.94635,8.99523,8.99523,0,1,0,10.6792-13.89942ZM32.14453,36.83252c-7.93945-4.81006-13.06348-12.437-14.07129-20.95752L17.582,11.646l5.54785-2.207A23.50348,23.50348,0,0,0,30.15527,5.1167l1.99414-1.77637,1.98243,1.77442A23.50782,23.50782,0,0,0,41.16113,9.439l5.55567,2.20655-.5,4.22851a26.12165,26.12165,0,0,1-1.57752,6.31635A9.00144,9.00144,0,0,0,42.7998,22c-.05926,0-.11663.00775-.17565.00891a20.17874,20.17874,0,0,0,1.14929-4.72034l.41992-3.52a.99916.99916,0,0,0-.624-1.04785L39.1416,10.96191a14.97957,14.97957,0,0,1-4.4541-2.73584L32.81836,6.54639a.998.998,0,0,0-1.334-.00244L29.60156,8.22607a14.95956,14.95956,0,0,1-4.45215,2.73487L20.72949,12.7207a.99975.99975,0,0,0-.623,1.04492l.41015,3.52149a21.87968,21.87968,0,0,0,10.877,16.127l.22071.14014a1.00129,1.00129,0,0,0,1.07422-.001l.19043-.12256c.3648-.21576.72985-.44738,1.093-.69165a8.91782,8.91782,0,0,0,.7984,2.304A31.22669,31.22669,0,0,1,32.14453,36.83252Zm1.68427-6.40436-.02021-.02679c-.54.40625-1.09082.7832-1.6582,1.1333A19.86381,19.86381,0,0,1,22.50293,17.0542l-.32129-2.75879,3.71-1.47705a16.93326,16.93326,0,0,0,5.04395-3.10254l1.21289-1.083,1.20312,1.08106a16.95819,16.95819,0,0,0,5.04883,3.10547l3.71582,1.47607-.3291,2.7583a18.39149,18.39149,0,0,1-1.4726,5.3031A9.00727,9.00727,0,0,0,33.8288,30.42816ZM42.7998,38a7,7,0,1,1,7-7A7.00818,7.00818,0,0,1,42.7998,38Z"/></svg>
