<svg id="Layer_1" height="512" viewBox="0 0 64 64" width="512" xmlns="http://www.w3.org/2000/svg" data-name="Layer 1"><path d="m2 62h6a.99974.99974 0 0 0 1 1h10a.99974.99974 0 0 0 1-1h6a.99974.99974 0 0 0 1-1v-11a.99979.99979 0 0 0 -.72559-.96143l-6.27441-1.79266v-2.24591a2.00229 2.00229 0 0 0 -2-2h-.50012l-2.70008-3.6001a1.03527 1.03527 0 0 0 -1.5996 0l-2.70008 3.6001h-.50012a2.00229 2.00229 0 0 0 -2 2v2.24591l-6.27441 1.79266a.99979.99979 0 0 0 -.72559.96143v11a.99974.99974 0 0 0 1 1zm18-12.67438 5 1.42877v9.24561h-5zm-5 11.67438h-2v-2h2zm-1-19.3335 1.00012 1.3335h-2.00024zm-4 3.3335h8v16h-1v-3a.99974.99974 0 0 0 -1-1h-4a.99974.99974 0 0 0 -1 1v3h-1zm-7 5.75439 5-1.42877v10.67438h-5z"/><path d="m11.5 46h5v2h-5z"/><path d="m11.5 50h5v2h-5z"/><path d="m11.5 54h5v2h-5z"/><path d="m4 52h3v2h-3z"/><path d="m21 52h3v2h-3z"/><path d="m4 55h3v2h-3z"/><path d="m21 55h3v2h-3z"/><path d="m47.95117 5.51074a1.00117 1.00117 0 0 0 -.80762-.68066l-3.1123-.45215-1.3916-2.82031a.99964.99964 0 0 0 -1.793-.00049l-1.39255 2.8208-3.1123.45215a1.00027 1.00027 0 0 0 -.55469 1.70605l2.25289 2.19487-.53223 3.09961a.99968.99968 0 0 0 1.4502 1.05468l2.78515-1.46337 2.78418 1.46337a.99963.99963 0 0 0 1.4502-1.05468l-.53219-3.09961 2.25293-2.19483a1.00138 1.00138 0 0 0 .25293-1.02543zm-4.27832 2.15479a1.00116 1.00116 0 0 0 -.28711.88525l.27832 1.6211-1.456-.76514a.99706.99706 0 0 0 -.92969 0l-1.457.76562.27832-1.62158a1.00116 1.00116 0 0 0 -.28711-.88525l-1.17781-1.14746 1.62695-.23633a.99933.99933 0 0 0 .75293-.54688l.72851-1.47509.72754 1.47461a.99878.99878 0 0 0 .75293.54736l1.627.23633z"/><path d="m62.95117 11.74658a1.00117 1.00117 0 0 0 -.80762-.68066l-2.38574-.34668-1.06738-2.16162a1.04089 1.04089 0 0 0 -1.793 0l-1.06738 2.16162-2.38574.34668a1.00027 1.00027 0 0 0 -.55469 1.706l1.72754 1.68262-.40821 2.376a1.00036 1.00036 0 0 0 1.45118 1.05468l2.13387-1.12204 2.13378 1.12207a1 1 0 0 0 1.45118-1.0542l-.40723-2.37646 1.72656-1.68311a1.00079 1.00079 0 0 0 .25288-1.0249zm-3.752 1.64307a.99979.99979 0 0 0 -.28711.88476l.15332.89795-.80566-.42431a1.00288 1.00288 0 0 0 -.93165 0l-.80566.42383.1543-.897a1.00168 1.00168 0 0 0 -.28711-.88574l-.65235-.63525.9004-.13086a.99878.99878 0 0 0 .75292-.54737l.40333-.8164.40332.8164a.99878.99878 0 0 0 .75293.54737l.90136.13086z"/><path d="m22.01855 17.80908a1.00244 1.00244 0 0 0 1.05372.07617l2.13378-1.12207 2.13379 1.12207a1 1 0 0 0 1.45116-1.05468l-.40821-2.376 1.72756-1.68257a1.00027 1.00027 0 0 0 -.55469-1.706l-2.38574-.34668-1.06738-2.1617a1.04089 1.04089 0 0 0 -1.793 0l-1.06738 2.16162-2.38574.34668a1 1 0 0 0 -.55469 1.70556l1.72656 1.68311-.40723 2.37646a1.00021 1.00021 0 0 0 .39749.97803zm2.03125-5.186a.99878.99878 0 0 0 .75293-.54737l.40332-.8164.40333.8164a.99878.99878 0 0 0 .75292.54737l.9004.13086-.65235.63525a1.00168 1.00168 0 0 0 -.28711.88574l.1543.897-.80566-.42383a1.001 1.001 0 0 0 -.93165 0l-.80566.42431.15332-.89795a.99979.99979 0 0 0 -.28711-.88476l-.65234-.63574z"/><path d="m39.85059 45.00146a.99927.99927 0 0 0 .707-.293l11.31445-11.314a1.0017 1.0017 0 0 0 .28906-.79785l-.75488-8.29688a1.00076 1.00076 0 0 0 -.90527-.90527l-8.29688-.75391a1.01891 1.01891 0 0 0 -.79785.28907l-11.31345 11.31354a.99965.99965 0 0 0 0 1.41407l9.05078 9.05127a.99928.99928 0 0 0 .70704.29296zm2.63867-20.32666 7.001.63624.63672 7.00048-10.27639 10.27588-7.63672-7.6372z"/><path d="m45.13086 32.80225a3.12727 3.12727 0 0 0 2.21582-.91553v-.00049a3.138 3.138 0 1 0 -2.21582.916zm-.80176-3.93311a1.13369 1.13369 0 1 1 0 1.603 1.12953 1.12953 0 0 1 0-1.603z"/><path d="m42 50a17 17 0 1 0 -17-17 17.019 17.019 0 0 0 17 17zm0-32a15 15 0 1 1 -15 15 15.01672 15.01672 0 0 1 15-15z"/></svg>