<svg id="Layer_1" enable-background="new 0 0 512 512" height="512" viewBox="0 0 512 512" width="512" xmlns="http://www.w3.org/2000/svg"><path d="m200 504h112c4.416.003 7.997-3.575 8-7.991 0-.003 0-.006 0-.009h64c4.416.003 7.997-3.575 8-7.991 0-.003 0-.006 0-.009v-89.07c-.001-3.75-2.605-6.997-6.266-7.812l-65.734-14.608v-57.049c-.011-8.832-7.168-15.989-16-16h-4.719l-37.664-37.156c-3.112-3.078-8.122-3.078-11.234 0l-37.664 37.156h-4.719c-8.832.011-15.989 7.168-16 16v57.049l-65.734 14.607c-3.661.815-6.265 4.062-6.266 7.812v89.071c-.003 4.416 3.575 7.997 7.991 8h.009 64c-.003 4.416 3.575 7.997 7.991 8zm120-111.096 56 12.44v74.656h-56zm-48 95.096h-32v-32h32zm-16-204.766 20.501 20.227h-41.003zm-48 36.227h96v168.539h-16v-40c.003-4.416-3.575-7.997-7.991-8-.003 0-.006 0-.009 0h-48c-4.416-.003-7.997 3.575-8 7.991v.009 40h-16zm-72 85.883 56-12.44v87.096h-56z"/><path d="m224 336h64v16h-64z"/><path d="m224 368h64v16h-64z"/><path d="m224 400h64v16h-64z"/><path d="m144 414.93h40v16h-40z"/><path d="m328 414.93h40v16h-40z"/><path d="m144 446.93h40v16h-40z"/><path d="m328 446.93h40v16h-40z"/><path d="m290.75 87.406c-2.941-1.925-5.979-3.698-9.102-5.312v-7.742c0-3.621-2.432-6.79-5.93-7.727-6.742-1.785-13.69-2.665-20.664-2.617-6.343.101-12.65.99-18.773 2.648-3.499.935-5.932 4.105-5.93 7.727l-.078 7.992c-3.141 1.426-6.159 3.109-9.023 5.031l-.797-.125-6.914-3.859c-3.061-1.703-6.872-1.222-9.414 1.188-9.556 9.057-16.426 20.576-19.852 33.289-.948 3.539.629 7.269 3.828 9.055l7.195 4.023c-.156 1.688-.234 3.362-.234 5.023 0 1.664.078 3.339.234 5.023l-7.195 4.023c-3.194 1.786-4.771 5.511-3.828 9.047 3.405 12.721 10.262 24.253 19.812 33.32 2.541 2.412 6.354 2.893 9.414 1.188l6.953-3.883.797-.125c2.94 1.927 5.978 3.7 9.102 5.312v7.742c0 3.621 2.432 6.79 5.929 7.727 6.417 1.731 13.033 2.614 19.68 2.625.328 0 .656-.008.977-.008 6.346-.101 12.655-.99 18.781-2.648 3.499-.935 5.932-4.105 5.93-7.727l.063-7.992c3.147-1.425 6.17-3.108 9.039-5.031l.797.125 6.914 3.859c3.059 1.709 6.875 1.227 9.414-1.188 9.556-9.057 16.426-20.576 19.852-33.289.948-3.539-.629-7.269-3.828-9.055l-7.195-4.023c.156-1.688.234-3.362.234-5.023 0-1.664-.078-3.339-.234-5.023l7.195-4.023c3.194-1.786 4.771-5.511 3.828-9.047-3.409-12.721-10.269-24.253-19.82-33.32-2.546-2.408-6.358-2.889-9.422-1.188l-6.945 3.883c-.102.048-.255.106-.448.128-.134.016-.251.009-.342-.003zm-60.555 83.922c-5.278-3.458-12.045-3.681-17.539-.578l-1.531.859c-4.02-4.701-7.224-10.044-9.477-15.805l6.234-3.484c3.007-1.682 4.602-5.099 3.961-8.484-1.042-5.172-1.042-10.5 0-15.672.641-3.385-.954-6.802-3.961-8.484l-6.234-3.484c2.267-5.754 5.481-11.088 9.508-15.781l1.492.836c5.486 3.109 12.249 2.892 17.523-.562 2.126-1.431 4.368-2.68 6.703-3.734 5.8-2.666 9.506-8.476 9.477-14.86v-1.275c2.943-.504 5.921-.775 8.906-.812 3.481-.075 6.961.189 10.391.789v1.297c-.025 6.38 3.676 12.187 9.469 14.859 2.329 1.052 4.565 2.296 6.688 3.719 5.282 3.455 12.049 3.678 17.547.578l1.523-.852c4.022 4.697 7.225 10.037 9.477 15.797l-6.234 3.484c-3.007 1.682-4.602 5.099-3.961 8.484 1.042 5.172 1.042 10.5 0 15.672-.641 3.385.954 6.802 3.961 8.484l6.234 3.484c-2.267 5.754-5.481 11.088-9.508 15.781l-1.492-.836c-5.489-3.097-12.245-2.88-17.523.562-2.129 1.429-4.374 2.678-6.711 3.734-5.793 2.673-9.493 8.48-9.469 14.859v1.273c-2.945.504-5.926.776-8.914.812-3.478.064-6.954-.201-10.383-.789v-1.297c.029-6.381-3.673-12.19-9.469-14.859-2.33-1.045-4.568-2.289-6.688-3.715z"/><path d="m286.859 136c0-17.043-13.816-30.859-30.859-30.859s-30.859 13.816-30.859 30.859 13.816 30.859 30.859 30.859c17.035-.019 30.84-13.824 30.859-30.859zm-45.718 0c0-8.207 6.653-14.859 14.859-14.859 8.207 0 14.859 6.653 14.859 14.859s-6.653 14.859-14.859 14.859c-8.203-.008-14.851-6.656-14.859-14.859z"/><path d="m160 128h16v16h-16z"/><path d="m128 128h16v16h-16z"/><path d="m96 128h16v16h-16z"/><path d="m80 136c0-17.673-14.327-32-32-32s-32 14.327-32 32 14.327 32 32 32c17.666-.018 31.982-14.334 32-32zm-48 0c0-8.837 7.163-16 16-16s16 7.163 16 16-7.163 16-16 16c-8.832-.011-15.989-7.168-16-16z"/><path d="m336 128h16v16h-16z"/><path d="m368 128h16v16h-16z"/><path d="m400 128h16v16h-16z"/><path d="m92.414 16.852c-27.001 14.187-46.194 39.759-52.273 69.648l15.719 3c5.277-24.936 21.273-46.281 43.727-58.344 22.844-11.43 49.729-11.473 72.609-.117 14.754 8.159 26.45 20.9 33.32 36.297l14.547-6.672c-8.314-18.555-22.446-33.897-40.258-43.703-40.11-21.688-79.844-3.891-87.391-.109z"/><path d="m471.859 183.898-15.719-3c-5.271 24.943-21.273 46.292-43.734 58.352-22.838 11.444-49.729 11.485-72.602.109-14.754-8.159-26.45-20.9-33.32-36.297l-14.547 6.672c8.314 18.555 22.446 33.897 40.258 43.703 12.97 7.016 27.496 10.657 42.242 10.586 15.64-.1 31.062-3.679 45.148-10.477 27.007-14.18 46.202-39.756 52.274-69.648z"/><path d="m503.586 117.906c-.952-2.842-3.412-4.914-6.375-5.367l-17.891-2.734-8.078-17.203c-1.877-4-6.641-5.721-10.641-3.843-1.69.793-3.05 2.153-3.843 3.843l-8.078 17.203-17.891 2.734c-4.367.668-7.365 4.75-6.697 9.117.253 1.65 1.015 3.181 2.181 4.376l13.18 13.508-3.125 19.172c-.711 4.361 2.248 8.472 6.608 9.183 1.771.289 3.587-.026 5.157-.894l15.907-8.79 15.906 8.789c2.68 1.484 5.973 1.305 8.477-.461 2.502-1.766 3.779-4.805 3.289-7.828l-3.125-19.172 13.18-13.508c2.094-2.145 2.811-5.282 1.859-8.125zm-29.313 13.352c-1.774 1.817-2.58 4.369-2.172 6.875l1.125 6.898-5.359-2.961c-2.406-1.333-5.329-1.333-7.734 0l-5.359 2.961 1.125-6.898c.408-2.506-.398-5.058-2.172-6.875l-5.125-5.258 6.719-1.023c2.637-.402 4.899-2.093 6.031-4.508l2.648-5.641 2.648 5.641c1.132 2.415 3.395 4.106 6.031 4.508l6.719 1.023z"/></svg>