<?xml version="1.0" encoding="UTF-8"?>
<svg xmlns="http://www.w3.org/2000/svg" id="Layer_1" data-name="Layer 1" viewBox="0 0 64 64" width="512" height="512"><path d="M34.86621,49.69727A3.52588,3.52588,0,0,0,32,50.2583a3.52521,3.52521,0,0,0-2.86621-.561A2.70481,2.70481,0,0,0,27,52.37939c0,2.49707,3.13477,4.66163,4.48242,5.47657a1.00193,1.00193,0,0,0,1.03516,0C33.86523,57.041,37,54.87646,37,52.37939A2.70481,2.70481,0,0,0,34.86621,49.69727ZM32,55.81543c-1.52734-1.01758-3-2.42432-3-3.436a.69714.69714,0,0,1,.61133-.73974,1.40244,1.40244,0,0,1,.33691-.03955,1.30105,1.30105,0,0,1,1.166.62207,1.04064,1.04064,0,0,0,1.77148,0,1.3679,1.3679,0,0,1,1.50293-.58252A.69714.69714,0,0,1,35,52.37939C35,53.39111,33.52734,54.79785,32,55.81543Z"/><path d="M50.11572,44.1358a5.5,5.5,0,1,0-8.23144,0,4.99907,4.99907,0,0,0-3.56366,3.15442,4.97117,4.97117,0,0,0-2.2049-1.15442,5.5,5.5,0,1,0-8.23144,0,4.97117,4.97117,0,0,0-2.2049,1.15442,4.99907,4.99907,0,0,0-3.56366-3.15442,5.5,5.5,0,1,0-8.23144,0A5.002,5.002,0,0,0,10,49V60a.99974.99974,0,0,0,1,1H24v1a.99974.99974,0,0,0,1,1H39a.99974.99974,0,0,0,1-1V61H53a.99974.99974,0,0,0,1-1V49A5.002,5.002,0,0,0,50.11572,44.1358ZM18,37a3.49444,3.49444,0,0,1,2.86456,1.5H15.13544A3.49444,3.49444,0,0,1,18,37Zm3.5,3.5a3.5,3.5,0,0,1-7,0ZM24,59H12V49a3.00328,3.00328,0,0,1,3-3h6a3.00328,3.00328,0,0,1,3,3Zm8-20a3.49444,3.49444,0,0,1,2.86456,1.5H29.13544A3.49444,3.49444,0,0,1,32,39Zm3.5,3.5a3.5,3.5,0,0,1-7,0ZM38,61H26V51a3.00328,3.00328,0,0,1,3-3h6a3.00328,3.00328,0,0,1,3,3Zm8-24a3.49444,3.49444,0,0,1,2.86456,1.5H43.13544A3.49444,3.49444,0,0,1,46,37Zm3.5,3.5a3.5,3.5,0,0,1-7,0ZM52,59H40V49a3.00328,3.00328,0,0,1,3-3h6a3.00328,3.00328,0,0,1,3,3Z"/><path d="M38.92383,7.00879,32.18359,6.396a1.00669,1.00669,0,0,0-.79785.28906l-9.19238,9.19238a.99962.99962,0,0,0,0,1.41406l7.35352,7.354a.99963.99963,0,0,0,1.41406,0l9.19238-9.19239a1.0017,1.0017,0,0,0,.28906-.79785L39.8291,7.91406A1.00074,1.00074,0,0,0,38.92383,7.00879ZM30.25391,22.52441l-5.93946-5.93994,8.1543-8.15429,5.44434.49511.49511,5.44483Z"/><path d="M32.61133,10.3623a2.73313,2.73313,0,1,0,3.86523,0A2.79744,2.79744,0,0,0,32.61133,10.3623Zm2.45117,2.45118a.73341.73341,0,1,1,0-1.03711A.73382.73382,0,0,1,35.0625,12.81348Z"/><path d="M32,1A14,14,0,1,0,46,15,14.01572,14.01572,0,0,0,32,1Zm0,26A12,12,0,1,1,44,15,12.01343,12.01343,0,0,1,32,27Z"/><path d="M11,26H9a1.00009,1.00009,0,0,0-.85742,1.51465l3,5a1,1,0,0,0,1.71484,0l3-5A1.00009,1.00009,0,0,0,15,26H13V17H11Zm2.2334,2L12,30.05615,10.7666,28Z"/><path d="M51,27H49a1.00009,1.00009,0,0,0-.85742,1.51465l3,5a1,1,0,0,0,1.71484,0l3-5A1.00009,1.00009,0,0,0,55,27H53V18H51Zm2.2334,2L52,31.05615,50.7666,29Z"/><rect x="51" y="14" width="2" height="2"/><rect x="11" y="13" width="2" height="2"/></svg>
