<?xml version="1.0" encoding="UTF-8"?>
<svg xmlns="http://www.w3.org/2000/svg" id="Layer_1" data-name="Layer 1" viewBox="0 0 64 64" width="512" height="512"><path d="M2,63H15a.99943.99943,0,0,0,1-1V52a4.99025,4.99025,0,0,0-3.50891-4.74744,5.488,5.488,0,1,0-8.00079.0058A4.99018,4.99018,0,0,0,1,52V62A.99943.99943,0,0,0,2,63ZM8.499,40c.04493,0,.08887.001.13379.002A3.47523,3.47523,0,0,1,10.92889,41H6.05695A3.48953,3.48953,0,0,1,8.499,40ZM5.05249,43h6.90479a3.49719,3.49719,0,1,1-6.95533.36719A3.43214,3.43214,0,0,1,5.05249,43ZM3,52a3.00328,3.00328,0,0,1,3-3h5a3.00328,3.00328,0,0,1,3,3v9H3Z"/><path d="M59.49109,47.25256a5.488,5.488,0,1,0-8.00079.0058A4.99018,4.99018,0,0,0,48,52V62a.99943.99943,0,0,0,1,1H62a.99943.99943,0,0,0,1-1V52A4.99025,4.99025,0,0,0,59.49109,47.25256ZM55.499,40c.04493,0,.08887.001.13379.002A3.47523,3.47523,0,0,1,57.92889,41H53.057A3.48953,3.48953,0,0,1,55.499,40Zm-3.44653,3h6.90479a3.49719,3.49719,0,1,1-6.95533.36719A3.43214,3.43214,0,0,1,52.05249,43ZM61,61H50V52a3.00328,3.00328,0,0,1,3-3h5a3.00328,3.00328,0,0,1,3,3Z"/><path d="M52.11035,24.36133c-1.71582-.4336-2.03906-.75684-2.47168-2.47168a1.17383,1.17383,0,0,0-2.27734-.002c-.43262,1.71679-.75684,2.041-2.47168,2.47363a1.17383,1.17383,0,0,0-.002,2.27734c1.71679.43262,2.041.75684,2.47363,2.47168a1.17383,1.17383,0,0,0,2.27734.002c.43262-1.71679.75684-2.041,2.47168-2.47363a1.17352,1.17352,0,0,0,0-2.27734ZM48.5,26.58008A3.45567,3.45567,0,0,0,47.41992,25.5,3.45567,3.45567,0,0,0,48.5,24.41992,3.45567,3.45567,0,0,0,49.58008,25.5,3.45567,3.45567,0,0,0,48.5,26.58008Z"/><path d="M22,9.5a1.1711,1.1711,0,0,0-.88965-1.13867c-1.71582-.4336-2.03906-.75684-2.47168-2.47168a1.17383,1.17383,0,0,0-2.27734-.00195c-.43262,1.71679-.75684,2.041-2.47168,2.47363a1.17383,1.17383,0,0,0-.00195,2.27734c1.71679.43262,2.041.75684,2.47363,2.47168a1.17383,1.17383,0,0,0,2.27734.00195c.43262-1.71679.75684-2.041,2.47168-2.47363A1.1711,1.1711,0,0,0,22,9.5Zm-4.5,1.08008A3.45567,3.45567,0,0,0,16.41992,9.5,3.45567,3.45567,0,0,0,17.5,8.41992,3.45567,3.45567,0,0,0,18.58008,9.5,3.45567,3.45567,0,0,0,17.5,10.58008Z"/><path d="M39.14746,6.47949a1.00424,1.00424,0,0,0-1.1084-.63965l-8.209,1.418a1.00128,1.00128,0,0,0-.69629.48535l-8,13.85645A.99988.99988,0,0,0,21.5,22.96582l11.085,6.40039A1.00081,1.00081,0,0,0,33.95117,29l8-13.85645a1.00027,1.00027,0,0,0,.07227-.8457Zm-6.42871,20.6543L23.36621,21.7334l7.26563-12.585,6.92675-1.19629,2.42579,6.59668Z"/><path d="M36.043,10.57715a3.13363,3.13363,0,1,0,1.14648,4.28027A3.13819,3.13819,0,0,0,36.043,10.57715ZM35.457,13.85742a1.13316,1.13316,0,1,1-.41406-1.54785A1.1369,1.1369,0,0,1,35.457,13.85742Z"/><path d="M58,29V6a5.00588,5.00588,0,0,0-5-5H13A5.00588,5.00588,0,0,0,8,6V29a5.00588,5.00588,0,0,0,5,5h3.86719l-.85938,6.876a1.00047,1.00047,0,0,0,1.61719.90527L27.35059,34H53A5.00588,5.00588,0,0,0,58,29ZM27,32a1.00185,1.00185,0,0,0-.625.21875l-8.07715,6.46289.69434-5.55762A.999.999,0,0,0,18,32H13a3.00328,3.00328,0,0,1-3-3V6a3.00328,3.00328,0,0,1,3-3H53a3.00328,3.00328,0,0,1,3,3V29a3.00328,3.00328,0,0,1-3,3Z"/></svg>
