<svg xmlns="http://www.w3.org/2000/svg" viewBox="0 0 35.001 35.001"><path fill="#afc949" d="M17.5 35.001a17.383 17.383 0 0 1-12.374-5.126A17.386 17.386 0 0 1 0 17.5 17.38 17.38 0 0 1 5.126 5.126 17.383 17.383 0 0 1 17.5 0a17.385 17.385 0 0 1 12.374 5.126A17.38 17.38 0 0 1 35 17.5a17.386 17.386 0 0 1-5.126 12.375A17.385 17.385 0 0 1 17.5 35.001zm-.252-24.215c-.064 0-6.463 0-8.052.433a2.592 2.592 0 0 0-1.822 1.834 27.344 27.344 0 0 0-.43 4.993 27.335 27.335 0 0 0 .43 4.992 2.54 2.54 0 0 0 1.822 1.8c1.589.428 7.988.433 8.052.433s6.461 0 8.05-.433a2.538 2.538 0 0 0 1.822-1.8 27.213 27.213 0 0 0 .432-4.992 27.221 27.221 0 0 0-.432-4.993 2.594 2.594 0 0 0-1.822-1.834c-1.588-.428-7.985-.433-8.05-.433zm-2.107 10.323v-6.128l5.385 3.064-5.384 3.063z"/></svg>