<svg xmlns="http://www.w3.org/2000/svg" viewBox="0 0 35 35"><path fill="#afc949" d="M17.5 35.001a17.382 17.382 0 0 1-12.374-5.126A17.386 17.386 0 0 1 0 17.5 17.384 17.384 0 0 1 5.126 5.126 17.383 17.383 0 0 1 17.5.001a17.386 17.386 0 0 1 12.375 5.125A17.384 17.384 0 0 1 35 17.5a17.386 17.386 0 0 1-5.126 12.375A17.385 17.385 0 0 1 17.5 35.001zm3.39-17.685c1.935 0 1.935 1.834 1.935 3.174v5.835h3.714V19.74c0-2.962-.541-5.7-4.46-5.7a3.934 3.934 0 0 0-3.522 1.935h-.051v-1.634h-3.57V26.32h3.718v-5.935c.003-1.516.268-3.065 2.235-3.065zM8.885 14.338V26.32h3.723V14.333zm1.86-5.968a2.159 2.159 0 0 0-2.156 2.156 2.169 2.169 0 0 0 2.156 2.176 2.168 2.168 0 0 0 2.155-2.176 2.158 2.158 0 0 0-2.156-2.156z"/></svg>