<svg xmlns="http://www.w3.org/2000/svg" viewBox="0 0 35.001 35.001"><path fill="#afc949" d="M17.501 35.001a17.388 17.388 0 0 1-12.375-5.125A17.39 17.39 0 0 1 .001 17.5 17.389 17.389 0 0 1 5.127 5.125 17.388 17.388 0 0 1 17.502 0a17.388 17.388 0 0 1 12.375 5.125A17.389 17.389 0 0 1 35.001 17.5a17.39 17.39 0 0 1-5.126 12.376 17.388 17.388 0 0 1-12.374 5.125zm-.169-27.688c-1.765 0-3.333.026-4.092.069a5.861 5.861 0 0 0-4.159 1.6 5.863 5.863 0 0 0-1.6 4.157c-.093 1.645-.093 6.543 0 8.188a5.833 5.833 0 0 0 1.6 4.156 5.885 5.885 0 0 0 4.159 1.6c.785.044 2.353.071 4.092.071s3.308-.027 4.094-.071a5.826 5.826 0 0 0 4.159-1.6 5.862 5.862 0 0 0 1.6-4.156c.1-1.646.1-6.539 0-8.182a5.822 5.822 0 0 0-1.6-4.159 5.872 5.872 0 0 0-4.159-1.6c-.761-.047-2.325-.073-4.095-.073zm1.781 18.067c-.33 0-.653 0-.939-.006h-1.533c-.322 0-.669.006-1.027.006a14.272 14.272 0 0 1-4.129-.407 3.363 3.363 0 0 1-1.886-1.887 17.833 17.833 0 0 1-.4-5.143v-.042-.665-.698a18.03 18.03 0 0 1 .4-5.15 3.357 3.357 0 0 1 1.886-1.887 13.972 13.972 0 0 1 4.091-.41c.329 0 .682 0 1.051.007h1.4c.322 0 .668-.006 1.023-.006a14.218 14.218 0 0 1 4.133.409 3.357 3.357 0 0 1 1.886 1.887 17.817 17.817 0 0 1 .4 5.142V17.944a17.812 17.812 0 0 1-.4 5.143 3.363 3.363 0 0 1-1.886 1.887 13.845 13.845 0 0 1-4.071.406zm-1.777-13.232a5.094 5.094 0 0 0-5.089 5.087 5.094 5.094 0 0 0 5.089 5.088 5.093 5.093 0 0 0 5.086-5.088 5.093 5.093 0 0 0-5.087-5.087zm5.294-1.4a1.187 1.187 0 0 0-1.186 1.186 1.188 1.188 0 0 0 1.186 1.188 1.189 1.189 0 0 0 1.188-1.187 1.188 1.188 0 0 0-1.189-1.183zm-5.294 9.789a3.312 3.312 0 0 1-3.309-3.307 3.312 3.312 0 0 1 3.309-3.308 3.311 3.311 0 0 1 3.307 3.308 3.311 3.311 0 0 1-3.308 3.311z"/></svg>