<svg xmlns="http://www.w3.org/2000/svg" viewBox="0 0 35 35"><path fill="#afc949" d="M17.5 35.001a17.382 17.382 0 0 1-12.374-5.126A17.386 17.386 0 0 1 0 17.5 17.384 17.384 0 0 1 5.126 5.126 17.383 17.383 0 0 1 17.5.001a17.386 17.386 0 0 1 12.375 5.125A17.384 17.384 0 0 1 35 17.5a17.386 17.386 0 0 1-5.126 12.375A17.385 17.385 0 0 1 17.5 35.001zM7.479 25.238a12.788 12.788 0 0 0 6.933 2.026 12.723 12.723 0 0 0 12.847-12.847c0-.193 0-.392-.013-.588a9.652 9.652 0 0 0 2.264-2.334 9.012 9.012 0 0 1-2.6.7 4.5 4.5 0 0 0 1.985-2.489 8.957 8.957 0 0 1-2.866 1.091 4.535 4.535 0 0 0-3.3-1.426 4.52 4.52 0 0 0-4.516 4.515 5.171 5.171 0 0 0 .111 1.035 12.866 12.866 0 0 1-9.31-4.726 4.464 4.464 0 0 0-.615 2.279 4.511 4.511 0 0 0 2.013 3.761 4.543 4.543 0 0 1-2.041-.574v.056a4.536 4.536 0 0 0 3.621 4.432 4.767 4.767 0 0 1-1.188.153 5.676 5.676 0 0 1-.853-.07 4.523 4.523 0 0 0 4.221 3.132 9 9 0 0 1-5.6 1.929 9.288 9.288 0 0 1-1.094-.056z"/></svg>