<svg id="Capa_1" enable-background="new 0 0 510.979 510.979" height="512" viewBox="0 0 510.979 510.979" width="512" xmlns="http://www.w3.org/2000/svg"><g><path d="m403.252 360.838c4.142 0 7.5-3.358 7.5-7.5v-162.713c0-4.142-3.358-7.5-7.5-7.5-4.09 0-7.409 3.275-7.492 7.345h-66.114c-9.085 0-16.487 7.281-16.715 16.312h-24.616c-.481 0-.953-.166-1.328-.467l-38.569-30.973c-.027-.021-.045-.052-.053-.087l-11.202-55.034c-2.654-13.04-14.239-22.504-27.546-22.504-15.5 0-28.111 12.611-28.111 28.111v55.489c0 .274-.223.498-.497.498h-43.321c-14.847 0-28.732 6.608-38.096 18.13s-12.993 26.465-9.957 40.999l15.255 73.018c4.727 22.627 24.936 39.051 48.052 39.051h23.341c4.142 0 7.5-3.358 7.5-7.5s-3.358-7.5-7.5-7.5h-23.341c-16.053 0-30.087-11.405-33.37-27.118l-15.255-73.018c-2.108-10.092.412-20.47 6.915-28.471 6.502-8.001 16.145-12.59 26.455-12.59h43.321c8.545 0 15.497-6.952 15.497-15.498v-55.489c0-7.229 5.882-13.111 13.111-13.111 6.207 0 11.61 4.414 12.848 10.496l11.201 55.033c.704 3.459 2.607 6.582 5.36 8.792l38.569 30.972c3.028 2.432 6.835 3.771 10.72 3.771h24.594v46.491c0 4.142 3.358 7.5 7.5 7.5s7.5-3.358 7.5-7.5v-61.066c0-.958.779-1.737 1.737-1.737h66.106v131.431h-66.106c-.958 0-1.737-.779-1.737-1.737v-34.929c0-4.142-3.358-7.5-7.5-7.5s-7.5 3.358-7.5 7.5v15.966h-12.971c-1.716 0-3.381.589-4.715 1.668l-21.424 17.321c-2.25 1.819-5.083 2.821-7.976 2.821h-57.577c-4.142 0-7.5 3.358-7.5 7.5s3.358 7.5 7.5 7.5h57.577c6.315 0 12.497-2.186 17.407-6.156l19.361-15.654h10.318v3.962c0 9.229 7.508 16.737 16.737 16.737h66.106v1.437c.001 4.143 3.359 7.501 7.501 7.501z"/><path d="m429.707 52.526h-58.765c-4.142 0-7.5 3.358-7.5 7.5s3.358 7.5 7.5 7.5h58.765c36.543 0 66.273 29.73 66.273 66.273v192.112c0 36.543-29.73 66.273-66.273 66.273h-27.455c-4.142 0-7.5 3.358-7.5 7.5v40.479l-45.783-45.783c-1.406-1.407-3.314-2.197-5.303-2.197h-262.393c-36.543.001-66.273-29.729-66.273-66.272v-192.112c0-36.543 29.73-66.273 66.273-66.273h257.707c4.142 0 7.5-3.358 7.5-7.5s-3.358-7.5-7.5-7.5h-257.707c-44.814 0-81.273 36.459-81.273 81.273v192.112c0 44.814 36.459 81.273 81.273 81.273h259.287l47.549 47.549c2.431 2.432 5.659 3.72 8.952 3.72 1.635 0 3.287-.318 4.864-.971 4.755-1.969 7.827-6.567 7.827-11.713v-38.585h19.955c44.814 0 81.273-36.459 81.273-81.273v-192.112c-.001-44.814-36.459-81.273-81.273-81.273z"/></g></svg>