<svg id="Capa_1" enable-background="new 0 0 511.941 511.941" height="512" viewBox="0 0 511.941 511.941" width="512" xmlns="http://www.w3.org/2000/svg"><g><path d="m287.472 318.016h94.661c12.407 0 22.5-10.093 22.5-22.5s-10.093-22.5-22.5-22.5h-38.631c-4.142 0-7.5 3.358-7.5 7.5s3.358 7.5 7.5 7.5h38.631c4.136 0 7.5 3.364 7.5 7.5 0 4.135-3.364 7.5-7.5 7.5h-165.285c-3.034 0-5.768 1.827-6.929 4.63s-.519 6.028 1.626 8.173l21.629 21.629c1.417 1.416 2.197 3.299 2.197 5.303 0 2.003-.78 3.887-2.197 5.304s-3.299 2.197-5.303 2.197-3.886-.78-5.303-2.197l-47.236-47.236c-2.153-2.152-2.791-5.36-1.626-8.173s3.885-4.63 6.929-4.63h130.905c4.142 0 7.5-3.358 7.5-7.5s-3.358-7.5-7.5-7.5h-24.067v-31.853h94.661c9.133 0 17.292-5.452 20.788-13.89 3.495-8.438 1.58-18.062-4.878-24.52l-47.235-47.235c-4.25-4.25-9.9-6.591-15.91-6.591s-11.661 2.341-15.91 6.591c-4.25 4.25-6.59 9.9-6.59 15.91s2.341 11.661 6.59 15.91l8.826 8.826h-40.341v-131.993c-.002-35.384-28.789-64.171-64.173-64.171h-158.876c-35.384 0-64.171 28.787-64.171 64.171v264.95c0 4.142 3.358 7.5 7.5 7.5s7.5-3.358 7.5-7.5v-264.95c0-27.113 22.058-49.171 49.171-49.171h.392l8.33 19.496c4.85 11.352 15.96 18.686 28.305 18.686h84.823c12.344 0 23.455-7.334 28.305-18.686l8.329-19.496h.391c27.113 0 49.171 22.058 49.171 49.171v131.992h-91.838c-12.407 0-22.5 10.093-22.5 22.5s10.093 22.5 22.5 22.5h91.838v31.853h-91.837c-9.133 0-17.292 5.452-20.788 13.89-3.495 8.438-1.58 18.062 4.878 24.52l47.235 47.235c4.25 4.25 9.9 6.591 15.91 6.591s11.661-2.341 15.91-6.591c4.25-4.25 6.59-9.9 6.59-15.91s-2.341-11.661-6.59-15.91l-8.826-8.826h37.518v129.753c0 27.113-22.058 49.172-49.171 49.172h-158.875c-27.113 0-49.171-22.059-49.171-49.172v-86.686c0-4.142-3.358-7.5-7.5-7.5s-7.5 3.358-7.5 7.5v86.686c0 35.384 28.787 64.172 64.171 64.172h158.875c35.384 0 64.171-28.788 64.171-64.172v-129.752zm-86.687-289.413c-2.486 5.819-8.182 9.58-14.511 9.58h-84.823c-6.329 0-12.024-3.76-14.511-9.58l-5.811-13.603h125.468zm-27.651 190.061c0-4.135 3.364-7.5 7.5-7.5h165.285c3.034 0 5.768-1.827 6.929-4.63s.519-6.028-1.626-8.173l-21.629-21.629c-1.417-1.416-2.197-3.299-2.197-5.303 0-2.003.78-3.887 2.197-5.304s3.299-2.197 5.303-2.197 3.886.78 5.303 2.197l47.236 47.236c2.153 2.152 2.791 5.36 1.626 8.173s-3.885 4.63-6.929 4.63h-201.498c-4.136 0-7.5-3.365-7.5-7.5z"/><path d="m447.515 0h-158.689c-4.142 0-7.5 3.358-7.5 7.5s3.358 7.5 7.5 7.5h.206l8.33 19.496c4.85 11.352 15.96 18.686 28.305 18.686h33.866c4.142 0 7.5-3.358 7.5-7.5s-3.358-7.5-7.5-7.5h-33.866c-6.329 0-12.024-3.76-14.511-9.58l-5.812-13.602h125.468l-5.812 13.602c-2.487 5.82-8.183 9.58-14.511 9.58h-18.995c-4.142 0-7.5 3.358-7.5 7.5s3.358 7.5 7.5 7.5h18.995c12.344 0 23.454-7.334 28.305-18.686l8.33-19.496h.391c27.113 0 49.172 22.058 49.172 49.171v383.598c0 27.113-22.059 49.172-49.172 49.172h-158.689c-4.142 0-7.5 3.358-7.5 7.5s3.358 7.5 7.5 7.5h158.689c35.384 0 64.172-28.788 64.172-64.172v-383.598c0-35.384-28.787-64.171-64.172-64.171z"/></g></svg>