<svg id="Capa_1" enable-background="new 0 0 512.145 512.145" height="512" viewBox="0 0 512.145 512.145" width="512" xmlns="http://www.w3.org/2000/svg"><g><path d="m245.401 245.905c24.324 0 47.849-7.099 68.03-20.529 3.448-2.294 4.383-6.95 2.088-10.399-2.294-3.448-6.95-4.383-10.399-2.088-17.711 11.787-38.362 18.017-59.72 18.017-59.525 0-107.953-48.427-107.953-107.952.002-59.527 48.429-107.954 107.954-107.954 20.712 0 40.836 5.887 58.198 17.026 3.484 2.235 8.126 1.224 10.362-2.263 2.237-3.486 1.224-8.125-2.263-10.362-19.782-12.693-42.707-19.401-66.297-19.401-67.796 0-122.953 55.156-122.953 122.953.001 67.796 55.157 122.952 122.953 122.952z"/><path d="m357.659 94.857c-4.076.739-6.781 4.642-6.042 8.718 1.152 6.355 1.736 12.875 1.736 19.377 0 25.675-9.172 50.556-25.828 70.06-2.689 3.15-2.317 7.884.833 10.574 1.413 1.207 3.144 1.796 4.867 1.796 2.118 0 4.224-.893 5.707-2.629 18.972-22.217 29.421-50.558 29.421-79.801 0-7.397-.665-14.817-1.977-22.053-.738-4.075-4.637-6.78-8.717-6.042z"/><path d="m245.401 45c13.031 0 25.941 3.307 37.335 9.562 3.63 1.995 8.19.666 10.184-2.965s.666-8.19-2.965-10.184c-13.599-7.466-29.006-11.413-44.554-11.413-51.254 0-92.953 41.698-92.953 92.953 0 51.254 41.698 92.952 92.953 92.952 23.036 0 45.148-8.522 62.265-23.996 16.987-15.357 27.689-36.277 30.135-58.906.445-4.118-2.532-7.817-6.65-8.263-4.121-.448-7.817 2.532-8.263 6.65-4.284 39.629-37.596 69.514-77.487 69.514-42.983 0-77.953-34.969-77.953-77.952.001-42.983 34.97-77.952 77.953-77.952z"/><path d="m245.401 266.24c-67.796 0-122.953 55.156-122.953 122.952s55.156 122.953 122.953 122.953c67.796 0 122.952-55.156 122.952-122.953 0-67.796-55.156-122.952-122.952-122.952zm0 230.905c-59.525 0-107.953-48.427-107.953-107.953 0-59.525 48.427-107.952 107.953-107.952 59.525 0 107.952 48.427 107.952 107.952s-48.427 107.953-107.952 107.953z"/><path d="m245.401 296.239c-19.121 0-37.518 5.807-53.201 16.792-3.393 2.376-4.217 7.053-1.84 10.446s7.054 4.217 10.446 1.84c13.148-9.21 28.569-14.078 44.595-14.078 42.983 0 77.952 34.97 77.952 77.953s-34.969 77.952-77.952 77.952-77.953-34.969-77.953-77.952c0-15.344 4.487-30.211 12.976-42.994 2.292-3.45 1.352-8.105-2.099-10.396-3.449-2.292-8.105-1.352-10.396 2.099-10.127 15.25-15.48 32.986-15.48 51.292 0 51.254 41.698 92.952 92.953 92.952 51.254 0 92.952-41.698 92.952-92.952-.001-51.255-41.699-92.954-92.953-92.954z"/><path d="m385.024 20.548-10.623-10.159c-2.924-2.797-6.78-4.302-10.809-4.198-4.046.09-7.814 1.75-10.612 4.675l-30.232 31.612c-2.863 2.994-2.757 7.741.237 10.604s7.741 2.757 10.604-.237l30.232-31.612c.049-.051.161-.054.212-.004l10.623 10.159c.06.058.062.153.005.213l-125.84 131.583c-1.428 1.494-3.354 2.316-5.423 2.316-1.822 0-3.579-.664-4.949-1.868l-32.168-28.287c-.053-.046-.061-.159-.014-.212l9.707-11.039c.055-.062.15-.069.212-.014l21.365 18.788c3.018 2.655 7.593 2.457 10.373-.449l63.569-66.47c2.863-2.993 2.757-7.741-.237-10.604-2.994-2.862-7.741-2.757-10.604.237l-58.598 61.271-15.964-14.038c-6.274-5.516-15.866-4.9-21.382 1.373l-9.707 11.039c-2.672 3.039-4.001 6.937-3.742 10.975.259 4.039 2.076 7.734 5.115 10.407l32.168 28.287c4.109 3.613 9.385 5.604 14.854 5.604 6.113 0 12.041-2.533 16.264-6.949l125.84-131.583c5.776-6.036 5.561-15.646-.476-21.42z"/></g></svg>