<svg id="Capa_1" enable-background="new 0 0 511.693 511.693" height="512" viewBox="0 0 511.693 511.693" width="512" xmlns="http://www.w3.org/2000/svg"><g><path d="m465.703 25.383h-299.093c-4.142 0-7.5 3.358-7.5 7.5s3.358 7.5 7.5 7.5h299.093c17.088 0 30.99 13.902 30.99 30.99v275.296h-481.693v-275.295c0-17.088 13.902-30.99 30.99-30.99h88.657c4.142 0 7.5-3.358 7.5-7.5s-3.358-7.5-7.5-7.5h-88.657c-25.359-.001-45.99 20.631-45.99 45.99v296.371c0 25.359 20.631 45.99 45.99 45.99h139.11v31.296l-26.89 26.28h-11.475c-4.142 0-7.5 3.358-7.5 7.5s3.358 7.5 7.5 7.5h218.881c4.142 0 7.5-3.358 7.5-7.5s-3.358-7.5-7.5-7.5h-10.132l-26.89-26.28v-31.296h67.943c4.142 0 7.5-3.358 7.5-7.5s-3.358-7.5-7.5-7.5h-350.547c-17.088 0-30.99-13.902-30.99-30.99v-6.075h481.693v6.075c0 17.088-13.902 30.99-30.99 30.99h-37.204c-4.142 0-7.5 3.358-7.5 7.5s3.358 7.5 7.5 7.5h37.204c25.359 0 45.99-20.631 45.99-45.99v-296.371c0-25.359-20.631-45.991-45.99-45.991zm-149.851 428.168 18.171 17.759h-154.352l18.171-17.759c1.444-1.411 2.258-3.345 2.258-5.364v-34.453h113.494v34.453c0 2.02.814 3.953 2.258 5.364z"/><path d="m248.847 376.435v3.34c0 4.142 3.358 7.5 7.5 7.5s7.5-3.358 7.5-7.5v-3.34c0-4.142-3.358-7.5-7.5-7.5s-7.5 3.358-7.5 7.5z"/><path d="m264.347 260.651v-4.36c0-4.142-3.358-7.5-7.5-7.5s-7.5 3.358-7.5 7.5v4.36c0 4.142 3.358 7.5 7.5 7.5s7.5-3.358 7.5-7.5z"/><path d="m176.639 251.207-11.586 29.255h-14.424c-4.142 0-7.5 3.358-7.5 7.5s3.358 7.5 7.5 7.5h19.521c3.076 0 5.84-1.878 6.973-4.738l11.586-29.255h13.815c2.584 6.604 6.374 12.737 11.257 18.081 2.795 3.058 7.539 3.271 10.596.478 3.058-2.794 3.272-7.538.478-10.596-7.308-7.999-11.333-18.373-11.333-29.211v-63.284c0-.156.127-.284.283-.284h35.542v47.441c0 4.142 3.358 7.5 7.5 7.5s7.5-3.358 7.5-7.5v-47.441h35.542c.156 0 .283.127.283.284v63.284c0 23.89-19.436 43.325-43.325 43.325-2.679 0-5.404-.259-8.101-.769-4.071-.772-7.994 1.906-8.763 5.975-.77 4.07 1.905 7.994 5.975 8.763 3.614.684 7.277 1.03 10.889 1.03 24.664 0 45.786-15.396 54.3-37.076h13.838l11.586 29.255c1.133 2.86 3.897 4.738 6.973 4.738h19.521c4.142 0 7.5-3.358 7.5-7.5s-3.358-7.5-7.5-7.5h-14.425l-11.586-29.255c-1.133-2.86-3.897-4.738-6.973-4.738h-15.248c.22-2.054.339-4.138.339-6.249v-13.417h34.094c4.142 0 7.5-3.358 7.5-7.5s-3.358-7.5-7.5-7.5h-34.094v-19.667h14.909c3.076 0 5.84-1.878 6.973-4.738l11.586-29.255h14.424c4.142 0 7.5-3.358 7.5-7.5s-3.358-7.5-7.5-7.5h-19.521c-3.076 0-5.84 1.878-6.973 4.738l-11.586 29.255h-9.813v-.2c0-7.832-5.924-14.298-13.524-15.174v-4.142c0-12.801-6.109-24.197-15.56-31.442l13.77-18.52h15.078c4.142 0 7.5-3.358 7.5-7.5s-3.358-7.5-7.5-7.5h-18.848c-2.372 0-4.604 1.122-6.019 3.025l-17.638 23.722c-3.314-.902-6.796-1.393-10.391-1.393h-11.387c-3.596 0-7.078.491-10.391 1.393l-17.638-23.722c-1.415-1.903-3.647-3.025-6.019-3.025h-18.848c-4.142 0-7.5 3.358-7.5 7.5s3.358 7.5 7.5 7.5h15.078l13.77 18.52c-9.451 7.245-15.56 18.641-15.56 31.442v4.295c-7.113 1.304-12.524 7.537-12.524 15.021v.2h-9.813l-11.586-29.255c-1.133-2.86-3.897-4.738-6.973-4.738h-19.521c-4.142 0-7.5 3.358-7.5 7.5s3.358 7.5 7.5 7.5h14.424l11.586 29.255c1.133 2.86 3.897 4.738 6.973 4.738h14.909v19.667h-34.094c-4.142 0-7.5 3.358-7.5 7.5s3.358 7.5 7.5 7.5h34.094v13.417c0 2.099.125 4.183.346 6.249h-15.256c-3.073-.001-5.837 1.878-6.97 4.738zm49.407-93.588c0-13.569 11.039-24.608 24.607-24.608h11.387c13.568 0 24.607 11.039 24.607 24.608v4.033h-60.602v-4.033z"/></g></svg>