<svg id="Capa_1" enable-background="new 0 0 511.782 511.782" height="512" viewBox="0 0 511.782 511.782" width="512" xmlns="http://www.w3.org/2000/svg"><g><path d="m469.642 55.063h-57.963c-4.143 0-7.5 3.358-7.5 7.5s3.357 7.5 7.5 7.5h57.963c14.966 0 27.141 12.175 27.141 27.14v23.427h-481.783v-23.427c0-14.965 12.175-27.14 27.141-27.14h337.576c4.143 0 7.5-3.358 7.5-7.5s-3.357-7.5-7.5-7.5h-337.576c-23.237 0-42.141 18.904-42.141 42.14v317.375c0 23.236 18.904 42.141 42.141 42.141h427.501c23.236 0 42.141-18.904 42.141-42.141v-317.375c-.001-23.236-18.905-42.14-42.141-42.14zm0 386.656h-427.501c-14.966 0-27.141-12.175-27.141-27.14v-278.949h481.782v278.948c0 14.966-12.175 27.141-27.14 27.141z"/><path d="m56.15 89.599c-4.142 0-7.5 3.358-7.5 7.5s3.358 7.5 7.5 7.5h5.06c4.142 0 7.5-3.358 7.5-7.5s-3.358-7.5-7.5-7.5z"/><path d="m104.493 89.599c-4.142 0-7.5 3.358-7.5 7.5s3.358 7.5 7.5 7.5h5.059c4.142 0 7.5-3.358 7.5-7.5s-3.358-7.5-7.5-7.5z"/><path d="m152.836 89.599c-4.142 0-7.5 3.358-7.5 7.5s3.358 7.5 7.5 7.5h5.059c4.142 0 7.5-3.358 7.5-7.5s-3.358-7.5-7.5-7.5z"/><path d="m372.582 238.635c-2.916-2.941-7.665-2.962-10.606-.046s-2.962 7.665-.046 10.606c9.66 9.744 19.017 20.483 27.809 31.921 6.711 8.728 6.711 20.92 0 29.649-11.666 15.175-30.461 37.033-53.756 54.986-26.998 20.808-53.425 31.359-78.546 31.359s-51.548-10.551-78.546-31.359c-23.294-17.954-42.09-39.812-53.756-54.986-6.71-8.729-6.71-20.921 0-29.649 11.666-15.175 30.461-37.033 53.756-54.987 26.998-20.808 53.425-31.359 78.546-31.359 25.809 0 52.964 11.12 80.711 33.05 3.249 2.567 7.967 2.017 10.534-1.234 2.568-3.25 2.017-7.966-1.233-10.535-30.46-24.074-60.744-36.281-90.012-36.281-28.512 0-58.019 11.6-87.703 34.478-24.572 18.939-44.283 41.845-56.491 57.725-10.849 14.111-10.849 33.822 0 47.934 12.208 15.88 31.919 38.786 56.491 57.725 29.684 22.878 59.191 34.478 87.703 34.478s58.02-11.6 87.703-34.478c24.571-18.938 44.282-41.844 56.491-57.725 10.849-14.112 10.849-33.823 0-47.934-9.175-11.933-18.948-23.15-29.049-33.338z"/><path d="m257.437 361.087c-12.083 0-23.886-3.339-34.132-9.657-3.527-2.174-8.146-1.078-10.32 2.448s-1.078 8.146 2.448 10.32c12.614 7.777 27.139 11.888 42.004 11.888 44.193 0 80.146-35.954 80.146-80.147s-35.953-80.146-80.146-80.146-80.146 35.954-80.146 80.146c0 15.295 4.345 30.186 12.565 43.062 2.229 3.491 6.865 4.514 10.357 2.286 3.491-2.229 4.515-6.866 2.286-10.357-6.679-10.461-10.208-22.561-10.208-34.991 0-35.922 29.225-65.146 65.146-65.146s65.146 29.225 65.146 65.146c0 35.924-29.225 65.148-65.146 65.148z"/><path d="m376.427 201.619c1.976 0 3.948-.776 5.421-2.316l8.714-9.11c2.863-2.993 2.758-7.741-.236-10.604-2.993-2.863-7.741-2.757-10.604.236l-8.714 9.11c-2.863 2.993-2.758 7.741.236 10.604 1.453 1.39 3.318 2.08 5.183 2.08z"/><path d="m416.094 200.201-21.391 8.318c-3.861 1.501-5.773 5.848-4.272 9.708 1.154 2.967 3.988 4.784 6.992 4.784.903 0 1.823-.165 2.716-.512l21.391-8.318c3.861-1.501 5.773-5.848 4.272-9.708s-5.846-5.773-9.708-4.272z"/><path d="m133.025 199.303c1.474 1.541 3.445 2.316 5.421 2.316 1.864 0 3.73-.69 5.183-2.08 2.993-2.863 3.099-7.611.236-10.604l-8.714-9.11c-2.865-2.994-7.612-3.099-10.604-.236-2.993 2.863-3.099 7.611-.236 10.604z"/><path d="m117.45 223.011c3.003 0 5.838-1.816 6.992-4.784 1.501-3.86-.412-8.207-4.272-9.708l-21.39-8.318c-3.86-1.5-8.208.412-9.708 4.272-1.501 3.86.412 8.207 4.272 9.708l21.39 8.318c.892.347 1.812.512 2.716.512z"/></g></svg>