<svg id="Capa_1" enable-background="new 0 0 511.693 511.693" height="512" viewBox="0 0 511.693 511.693" width="512" xmlns="http://www.w3.org/2000/svg"><g><path d="m465.703 25.383h-419.713c-25.359 0-45.99 20.632-45.99 45.991v296.371c0 25.359 20.631 45.99 45.99 45.99h139.11v31.296l-26.889 26.28h-11.476c-4.143 0-7.5 3.358-7.5 7.5s3.357 7.5 7.5 7.5h218.881c4.143 0 7.5-3.358 7.5-7.5s-3.357-7.5-7.5-7.5h-10.132l-26.889-26.28v-31.296h137.109c25.359 0 45.99-20.631 45.99-45.99v-296.371c-.001-25.359-20.632-45.991-45.991-45.991zm-149.851 428.168 18.171 17.759h-154.352l18.171-17.759c1.443-1.411 2.258-3.345 2.258-5.364v-34.453h113.494v34.453c0 2.02.814 3.953 2.258 5.364zm149.851-54.817h-419.713c-17.088 0-30.99-13.902-30.99-30.99v-6.075h147.518c4.143 0 7.5-3.358 7.5-7.5s-3.357-7.5-7.5-7.5h-147.518v-275.295c0-17.088 13.902-30.99 30.99-30.99h419.713c17.088 0 30.99 13.902 30.99 30.99v275.296h-302.214c-4.143 0-7.5 3.358-7.5 7.5s3.357 7.5 7.5 7.5h302.214v6.075c0 17.087-13.902 30.989-30.99 30.989z"/><path d="m256.347 368.935c-4.143 0-7.5 3.358-7.5 7.5v3.34c0 4.142 3.357 7.5 7.5 7.5s7.5-3.358 7.5-7.5v-3.34c0-4.142-3.358-7.5-7.5-7.5z"/><path d="m387.311 229.321c1.051-4.006-1.346-8.106-5.352-9.157-4.012-1.053-8.106 1.345-9.158 5.352-3.329 12.693-8.632 24.457-15.496 35.031-4.847-21.008-16.118-40.036-32.459-54.48 12.985-15.577 20.808-35.6 20.808-57.417 0-17.609-5.098-34.048-13.891-47.926 27.423 22.184 44.992 56.09 44.992 94.027l-.009.673c-.018 4.142 3.327 7.514 7.469 7.531h.032c4.127 0 7.481-3.337 7.499-7.469l.009-.736c0-74.939-60.968-135.907-135.907-135.907s-135.909 60.968-135.909 135.907 60.968 135.907 135.907 135.907c61.755.001 115.814-41.671 131.465-101.336zm-207.409-128.574c-7.527 11.917-12.196 25.501-13.479 39.771-.371 4.125 2.673 7.771 6.798 8.141 4.114.372 7.771-2.672 8.142-6.798 1.665-18.517 10.151-35.672 23.896-48.307 13.826-12.71 31.793-19.71 50.589-19.71 41.248 0 74.807 33.558 74.807 74.806s-33.559 74.806-74.807 74.806c-32.943 0-61.651-21.112-71.436-52.534-1.232-3.954-5.436-6.163-9.391-4.931-3.955 1.231-6.163 5.436-4.932 9.391 3.484 11.188 9.237 21.662 16.747 30.697-16.314 14.424-27.573 33.418-32.429 54.389-12.307-18.932-19.467-41.503-19.467-65.717-.001-37.925 17.556-71.82 44.962-94.004zm-12.893 175.925c1.911-23.223 12.793-44.612 30.368-59.88 1.54 1.325 3.116 2.609 4.744 3.827 15.607 11.668 34.186 17.836 53.725 17.836 22.302 0 42.729-8.174 58.449-21.68 17.613 15.291 28.508 36.727 30.397 59.998-22.345 24.161-54.232 38.885-88.846 38.885-35.089 0-66.73-15.031-88.837-38.986z"/></g></svg>