<svg id="Capa_1" enable-background="new 0 0 512.962 512.962" height="512" viewBox="0 0 512.962 512.962" width="512" xmlns="http://www.w3.org/2000/svg"><g><path d="m231.832 496.941h-66.651c-27.113 0-49.172-22.059-49.172-49.172v-383.598c0-27.113 22.059-49.171 49.172-49.171h.392l8.33 19.496c4.85 11.352 15.96 18.687 28.305 18.687h84.823c12.344 0 23.453-7.334 28.304-18.686l8.329-19.497h.392c27.113 0 49.172 22.058 49.172 49.171v166.25c0 4.142 3.357 7.5 7.5 7.5s7.5-3.358 7.5-7.5v-166.25c0-35.384-28.788-64.171-64.172-64.171h-158.875c-35.385 0-64.172 28.787-64.172 64.171v383.598c0 35.384 28.787 64.172 64.172 64.172h66.651c4.143 0 7.5-3.358 7.5-7.5s-3.357-7.5-7.5-7.5zm69.709-468.339c-2.487 5.82-8.183 9.58-14.511 9.58h-84.823c-6.329 0-12.024-3.76-14.511-9.58l-5.812-13.602h125.469z"/><path d="m404.453 384.252c-4.143 0-7.5 3.358-7.5 7.5v24.209c0 45.215-36.786 82.001-82.002 82.001-39.151 0-73.001-27.892-80.488-66.32l-4.523-23.219c-.454-2.336-1.308-4.556-2.538-6.603l-51.023-84.759c-3.496-5.809-2.56-13.183 2.277-17.932 2.849-2.797 6.586-4.289 10.605-4.174 3.99.105 7.673 1.784 10.37 4.727l34.024 37.129c2.714 2.961 6.889 3.935 10.633 2.478s6.164-4.994 6.164-9.011v-70.55c0-4.142-3.357-7.5-7.5-7.5s-7.5 3.358-7.5 7.5v56.842l-24.763-27.022c-5.47-5.969-12.94-9.374-21.034-9.587-8.065-.222-15.732 2.793-21.51 8.466-9.811 9.633-11.71 24.589-4.619 36.371l51.021 84.756c.324.538.548 1.122.668 1.736l4.524 23.221c8.855 45.458 48.898 78.452 95.211 78.452 53.487 0 97.002-43.515 97.002-97.001v-24.209c.001-4.143-3.356-7.501-7.499-7.501z"/><path d="m384.266 261.724c-5.254 0-10.171 1.471-14.36 4.023-3.878-10.614-14.076-18.21-26.016-18.21-5.66 0-10.927 1.71-15.316 4.637-4.43-9.402-13.995-15.927-25.059-15.927-4.571 0-8.884 1.12-12.688 3.091v-70.174c0-15.267-12.421-27.688-27.688-27.688s-27.688 12.42-27.688 27.688v58.603c0 4.142 3.357 7.5 7.5 7.5s7.5-3.358 7.5-7.5v-58.603c0-6.996 5.691-12.688 12.688-12.688s12.688 5.691 12.688 12.688v125.54c0 4.142 3.357 7.5 7.5 7.5s7.5-3.358 7.5-7.5v-30.769c0-6.996 5.691-12.688 12.688-12.688s12.688 5.691 12.688 12.688v42.059c0 4.142 3.357 7.5 7.5 7.5s7.5-3.358 7.5-7.5v-30.769c0-6.996 5.691-12.688 12.688-12.688s12.688 5.691 12.688 12.688v44.956c0 4.142 3.357 7.5 7.5 7.5s7.5-3.358 7.5-7.5v-30.769c0-6.996 5.692-12.688 12.688-12.688s12.688 5.691 12.688 12.688v70.377c0 4.142 3.357 7.5 7.5 7.5s7.5-3.358 7.5-7.5v-70.377c-.002-15.267-12.423-27.688-27.689-27.688z"/><path d="m343.89 171.889c4.143 0 7.5-3.358 7.5-7.5 0-21.503-7.906-42.205-22.263-58.29-2.758-3.089-7.499-3.36-10.59-.602-3.09 2.758-3.359 7.5-.602 10.59 11.9 13.333 18.454 30.487 18.454 48.302.001 4.142 3.358 7.5 7.501 7.5z"/><path d="m294.727 98.706c3.742 1.772 8.216.176 9.989-3.567 1.772-3.743.176-8.215-3.567-9.989-11.764-5.573-24.346-8.398-37.396-8.398-48.323 0-87.638 39.314-87.638 87.637 0 4.142 3.357 7.5 7.5 7.5s7.5-3.358 7.5-7.5c0-40.052 32.585-72.637 72.638-72.637 10.811-.001 21.233 2.339 30.974 6.954z"/><path d="m216.562 171.889c4.143 0 7.5-3.358 7.5-7.5 0-21.885 17.805-39.689 39.689-39.689s39.689 17.804 39.689 39.689c0 4.142 3.357 7.5 7.5 7.5s7.5-3.358 7.5-7.5c0-30.156-24.533-54.689-54.689-54.689s-54.689 24.533-54.689 54.689c0 4.142 3.358 7.5 7.5 7.5z"/></g></svg>