<svg id="Capa_1" enable-background="new 0 0 510.979 510.979" height="512" viewBox="0 0 510.979 510.979" width="512" xmlns="http://www.w3.org/2000/svg"><g><path d="m429.707 52.526h-42.783c-4.142 0-7.5 3.358-7.5 7.5s3.358 7.5 7.5 7.5h42.783c36.543 0 66.273 29.73 66.273 66.273v192.112c0 36.543-29.73 66.273-66.273 66.273h-27.455c-4.142 0-7.5 3.358-7.5 7.5v40.479l-45.783-45.783c-1.406-1.407-3.314-2.197-5.303-2.197h-199.609c-4.142 0-7.5 3.358-7.5 7.5s3.358 7.5 7.5 7.5h196.503l47.549 47.549c2.431 2.432 5.659 3.72 8.952 3.72 1.635 0 3.287-.318 4.864-.971 4.755-1.969 7.827-6.567 7.827-11.713v-38.585h19.955c44.814 0 81.273-36.459 81.273-81.273v-192.111c-.001-44.814-36.459-81.273-81.273-81.273z"/><path d="m112.094 392.184h-30.821c-36.543 0-66.273-29.73-66.273-66.273v-192.112c0-36.543 29.73-66.273 66.273-66.273h273.688c4.142 0 7.5-3.358 7.5-7.5s-3.358-7.5-7.5-7.5h-273.688c-44.814 0-81.273 36.459-81.273 81.273v192.112c0 44.814 36.459 81.273 81.273 81.273h30.821c4.142 0 7.5-3.358 7.5-7.5s-3.358-7.5-7.5-7.5z"/><path d="m313.239 221.134c15.19-15.999 22.925-36.962 21.779-59.03-2.152-41.457-36.372-74.587-77.907-75.425-.543-.011-1.082-.016-1.622-.016-39.516 0-73.429 29.478-78.884 68.568-.509 3.649-.767 7.375-.767 11.076 0 13.509 10.991 24.5 24.5 24.5s24.5-10.991 24.5-24.5c0-1.445.1-2.893.297-4.305 2.095-15.016 15.148-26.339 30.362-26.339.207 0 .417.002.629.006 1.422.029 2.865.161 4.289.393 4.085.669 7.943-2.105 8.61-6.194.667-4.088-2.105-7.943-6.194-8.61-2.12-.346-4.273-.543-6.398-.586-23.027-.464-42.987 16.564-46.153 39.256-.293 2.097-.441 4.243-.441 6.379 0 5.238-4.262 9.5-9.5 9.5s-9.5-4.262-9.5-9.5c0-3.01.21-6.039.624-9.003 4.427-31.721 31.953-55.641 64.028-55.641.441 0 .881.004 1.322.013 33.708.679 61.48 27.564 63.227 61.205.93 17.919-5.348 34.939-17.678 47.925-8.553 9.008-19.5 15.339-31.657 18.307-3.358.82-5.721 3.829-5.721 7.286v42.716c0 5.238-4.262 9.5-9.5 9.5s-9.5-4.262-9.5-9.5v-57.663c0-5.238 4.262-9.5 9.5-9.5 12.633 0 24.388-5.053 33.099-14.229 8.706-9.169 13.139-21.193 12.482-33.858-.375-7.221-2.515-14.341-6.188-20.59-2.1-3.572-6.698-4.765-10.266-2.666-3.571 2.099-4.765 6.695-2.666 10.266 2.493 4.242 3.886 8.874 4.141 13.768.441 8.515-2.535 16.595-8.38 22.752-5.851 6.163-13.743 9.557-22.221 9.557-13.509 0-24.5 10.991-24.5 24.5v57.663c0 13.509 10.991 24.5 24.5 24.5s24.5-10.991 24.5-24.5v-37.051c12.67-4.102 24.077-11.264 33.254-20.93z"/><path d="m256.348 314.497c-13.509 0-24.5 10.991-24.5 24.5v12.12c0 13.509 10.991 24.5 24.5 24.5s24.5-10.991 24.5-24.5v-12.12c0-13.509-10.991-24.5-24.5-24.5zm9.5 36.62c0 5.238-4.262 9.5-9.5 9.5s-9.5-4.262-9.5-9.5v-12.12c0-5.238 4.262-9.5 9.5-9.5s9.5 4.262 9.5 9.5z"/></g></svg>