<svg id="Capa_1" enable-background="new 0 0 513.957 513.957" height="512" viewBox="0 0 513.957 513.957" width="512" xmlns="http://www.w3.org/2000/svg"><path d="m489.368 308.406h-45.76v-36.416c0-8.67-7.053-15.723-15.723-15.723h-163.406v-39.171h133.658c15.071 0 27.333-12.262 27.333-27.333v-112.577c0-15.071-12.261-27.333-27.333-27.333h-217.976c-4.142 0-7.5 3.358-7.5 7.5s3.358 7.5 7.5 7.5h217.976c6.8 0 12.333 5.533 12.333 12.333v112.577c0 6.8-5.532 12.333-12.333 12.333h-282.317c-6.8 0-12.333-5.533-12.333-12.333v-112.577c0-6.8 5.532-12.333 12.333-12.333h32.378c4.142 0 7.5-3.358 7.5-7.5s-3.358-7.5-7.5-7.5h-32.378c-15.071 0-27.333 12.262-27.333 27.333v112.577c0 15.071 12.261 27.333 27.333 27.333h133.658v39.171h-163.405c-8.67 0-15.723 7.053-15.723 15.723v36.416h-45.76c-13.559 0-24.59 11.031-24.59 24.589v10.537c0 4.142 3.358 7.5 7.5 7.5s7.5-3.358 7.5-7.5v-10.537c0-5.288 4.302-9.589 9.589-9.589h106.52c5.288 0 9.589 4.302 9.589 9.589v106.52c0 5.288-4.302 9.589-9.589 9.589h-106.52c-5.288 0-9.589-4.302-9.589-9.589v-64.02c0-4.142-3.358-7.5-7.5-7.5s-7.5 3.358-7.5 7.5v64.02c0 13.559 11.031 24.589 24.589 24.589h106.52c13.559 0 24.589-11.031 24.589-24.589v-106.52c0-13.559-11.031-24.589-24.589-24.589h-45.759v-36.416c0-.399.324-.723.723-.723h163.406v37.139h-45.76c-13.559 0-24.589 11.03-24.589 24.589v106.52c0 13.559 11.031 24.589 24.589 24.589h106.52c13.559 0 24.589-11.031 24.589-24.589v-106.52c0-13.559-11.031-24.589-24.589-24.589h-45.76v-37.139h163.406c.399 0 .723.324.723.723v36.416h-45.76c-13.559 0-24.589 11.031-24.589 24.589v56.367c0 4.142 3.358 7.5 7.5 7.5s7.5-3.358 7.5-7.5v-56.367c0-5.288 4.302-9.589 9.589-9.589h106.52c5.288 0 9.589 4.302 9.589 9.589v106.52c0 5.288-4.302 9.589-9.589 9.589h-106.52c-5.288 0-9.589-4.302-9.589-9.589v-18.19c0-4.142-3.358-7.5-7.5-7.5s-7.5 3.358-7.5 7.5v18.19c0 13.559 11.031 24.589 24.589 24.589h106.52c13.559 0 24.589-11.031 24.589-24.589v-106.52c0-13.558-11.031-24.589-24.589-24.589zm-169.54 24.589v106.52c0 5.288-4.302 9.589-9.589 9.589h-106.52c-5.288 0-9.589-4.302-9.589-9.589v-106.52c0-5.287 4.302-9.589 9.589-9.589h106.52c5.287 0 9.589 4.302 9.589 9.589z"/></svg>