<svg id="Capa_1" enable-background="new 0 0 511.782 511.782" height="512" viewBox="0 0 511.782 511.782" width="512" xmlns="http://www.w3.org/2000/svg"><g><path d="m469.642 55.063h-427.501c-23.237 0-42.141 18.904-42.141 42.14v317.375c0 23.236 18.904 42.141 42.141 42.141h427.501c23.236 0 42.141-18.904 42.141-42.141v-317.375c-.001-23.236-18.905-42.14-42.141-42.14zm-427.501 15h427.501c14.966 0 27.141 12.175 27.141 27.14v23.427h-481.783v-23.427c0-14.965 12.175-27.14 27.141-27.14zm427.501 371.656h-427.501c-14.966 0-27.141-12.175-27.141-27.14v-278.949h481.782v278.948c0 14.966-12.175 27.141-27.14 27.141z"/><path d="m56.15 104.599h5.06c4.142 0 7.5-3.358 7.5-7.5s-3.358-7.5-7.5-7.5h-5.06c-4.142 0-7.5 3.358-7.5 7.5s3.358 7.5 7.5 7.5z"/><path d="m104.493 104.599h5.059c4.142 0 7.5-3.358 7.5-7.5s-3.358-7.5-7.5-7.5h-5.059c-4.142 0-7.5 3.358-7.5 7.5s3.358 7.5 7.5 7.5z"/><path d="m152.836 104.599h5.059c4.142 0 7.5-3.358 7.5-7.5s-3.358-7.5-7.5-7.5h-5.059c-4.142 0-7.5 3.358-7.5 7.5s3.358 7.5 7.5 7.5z"/><path d="m47.309 325.9h209.054c6.2 0 11.245-5.045 11.245-11.246v-139.59c0-6.201-5.045-11.246-11.245-11.246h-209.054c-6.201 0-11.245 5.045-11.245 11.246v64.845c0 4.142 3.358 7.5 7.5 7.5s7.5-3.358 7.5-7.5v-54.43l87.424 59.38-87.424 59.38v-32.368c0-4.142-3.358-7.5-7.5-7.5s-7.5 3.358-7.5 7.5v42.783c0 6.201 5.044 11.246 11.245 11.246zm205.299-21.66-87.425-59.381 87.425-59.381zm-184.654-125.421h167.764l-83.882 56.974zm167.764 132.081h-167.764l83.882-56.974z"/><path d="m465.361 359.199h-41.277c-4.143 0-7.5 3.358-7.5 7.5s3.357 7.5 7.5 7.5l41.241-.036.036 23.213-415.813.036-.036-23.213h342.609c4.143 0 7.5-3.358 7.5-7.5s-3.357-7.5-7.5-7.5h-342.609c-8.251 0-14.964 6.713-14.964 14.964v23.249c0 8.251 6.713 14.964 14.964 14.964h415.85c8.251 0 14.964-6.713 14.964-14.964v-23.249c-.001-8.251-6.714-14.964-14.965-14.964z"/><path d="m298.601 187.129h20.501c4.143 0 7.5-3.358 7.5-7.5s-3.357-7.5-7.5-7.5h-20.501c-4.143 0-7.5 3.358-7.5 7.5s3.357 7.5 7.5 7.5z"/><path d="m350.729 187.129h103.224c4.143 0 7.5-3.358 7.5-7.5s-3.357-7.5-7.5-7.5h-103.224c-4.143 0-7.5 3.358-7.5 7.5s3.357 7.5 7.5 7.5z"/><path d="m298.601 224.644h155.352c4.143 0 7.5-3.358 7.5-7.5s-3.357-7.5-7.5-7.5h-155.352c-4.143 0-7.5 3.358-7.5 7.5s3.357 7.5 7.5 7.5z"/><path d="m298.601 262.16h155.352c4.143 0 7.5-3.358 7.5-7.5s-3.357-7.5-7.5-7.5h-155.352c-4.143 0-7.5 3.358-7.5 7.5s3.357 7.5 7.5 7.5z"/><path d="m298.601 299.675h155.352c4.143 0 7.5-3.358 7.5-7.5s-3.357-7.5-7.5-7.5h-155.352c-4.143 0-7.5 3.358-7.5 7.5s3.357 7.5 7.5 7.5z"/><path d="m298.601 337.19h155.352c4.143 0 7.5-3.358 7.5-7.5s-3.357-7.5-7.5-7.5h-155.352c-4.143 0-7.5 3.358-7.5 7.5s3.357 7.5 7.5 7.5z"/></g></svg>