<svg id="Capa_1" enable-background="new 0 0 512.502 512.502" height="512" viewBox="0 0 512.502 512.502" width="512" xmlns="http://www.w3.org/2000/svg"><g><path d="m397.375 496.752h-107.935c-4.143 0-7.5 3.358-7.5 7.5s3.357 7.5 7.5 7.5h107.935c4.143 0 7.5-3.358 7.5-7.5s-3.357-7.5-7.5-7.5z"/><path d="m257.479 496.752h-142.543c-19.198 0-34.816-15.618-34.816-34.816v-36.282h7.251c13.027 0 23.625-10.598 23.625-23.625s-10.598-23.625-23.625-23.625h-7.251v-25.22h7.251c13.027 0 23.625-10.598 23.625-23.625s-10.598-23.625-23.625-23.625h-7.251v-25.22h7.251c13.027 0 23.625-10.598 23.625-23.625s-10.598-23.625-23.625-23.625h-7.251v-25.22h7.251c13.027 0 23.625-10.598 23.625-23.625s-10.598-23.625-23.625-23.625h-7.251v-25.22h7.251c13.027 0 23.625-10.598 23.625-23.625s-10.599-23.624-23.626-23.624h-7.251v-38.709c0-19.198 15.618-34.816 34.817-34.816h282.439c19.198 0 34.816 15.618 34.816 34.816v36.826c0 4.142 3.357 7.5 7.5 7.5s7.5-3.358 7.5-7.5v-36.826c0-27.469-22.347-49.816-49.816-49.816h-282.439c-27.469 0-49.817 22.347-49.817 49.816v38.709h-7.25c-13.027 0-23.625 10.598-23.625 23.625s10.598 23.625 23.625 23.625h7.25v25.22h-7.25c-13.027 0-23.625 10.598-23.625 23.625s10.598 23.625 23.625 23.625h7.25v25.22h-7.25c-13.027 0-23.625 10.598-23.625 23.625s10.598 23.625 23.625 23.625h7.25v25.22h-7.25c-13.027 0-23.625 10.598-23.625 23.625s10.598 23.625 23.625 23.625h7.25v25.22h-7.25c-13.027 0-23.625 10.598-23.625 23.625s10.598 23.625 23.625 23.625h7.25v36.282c0 27.469 22.348 49.816 49.816 49.816h142.543c4.143 0 7.5-3.358 7.5-7.5s-3.357-7.501-7.499-7.501zm-208.235-384.602c0-4.756 3.869-8.625 8.625-8.625h29.501c4.756 0 8.625 3.869 8.625 8.625s-3.869 8.625-8.625 8.625h-29.501c-4.756 0-8.625-3.869-8.625-8.625zm0 72.47c0-4.756 3.869-8.625 8.625-8.625h29.501c4.756 0 8.625 3.869 8.625 8.625s-3.869 8.625-8.625 8.625h-29.501c-4.756 0-8.625-3.869-8.625-8.625zm0 72.47c0-4.756 3.869-8.625 8.625-8.625h29.501c4.756 0 8.625 3.869 8.625 8.625s-3.869 8.625-8.625 8.625h-29.501c-4.756 0-8.625-3.869-8.625-8.625zm0 72.47c0-4.756 3.869-8.625 8.625-8.625h29.501c4.756 0 8.625 3.869 8.625 8.625s-3.869 8.625-8.625 8.625h-29.501c-4.756 0-8.625-3.87-8.625-8.625zm0 72.469c0-4.756 3.869-8.625 8.625-8.625h29.501c4.756 0 8.625 3.869 8.625 8.625s-3.869 8.625-8.625 8.625h-29.501c-4.756 0-8.625-3.869-8.625-8.625z"/><path d="m450.912 109.142h-22.442c-15.078 0-27.345 12.267-27.345 27.345v233.437c0 4.142 3.357 7.5 7.5 7.5s7.5-3.358 7.5-7.5v-154.092h47.133v221.627h-47.133v-35.573c0-4.142-3.357-7.5-7.5-7.5s-7.5 3.358-7.5 7.5v43.073c0 1.463.347 2.93 1.004 4.245l29.089 58.068c1.618 3.227 4.864 5.23 8.474 5.23h.002c3.609-.001 6.856-2.006 8.473-5.233l29.09-58.07c.655-1.311 1.002-2.777 1.002-4.24v-308.473c-.001-15.078-12.269-27.344-27.347-27.344zm-22.442 15h22.442c6.808 0 12.346 5.538 12.346 12.345v33.222h-47.133v-33.222c0-6.808 5.538-12.345 12.345-12.345zm-12.345 76.69v-16.124h47.133v16.124zm23.566 289.864-19.155-38.237h38.31z"/><path d="m182.319 77.461c-2.946-2.912-7.695-2.885-10.606.062l-29.016 29.355c-2.888 2.922-2.888 7.623 0 10.545l29.016 29.355c1.467 1.484 3.4 2.228 5.334 2.228 1.905 0 3.811-.721 5.272-2.166 2.946-2.912 2.974-7.661.062-10.606l-23.804-24.083 23.804-24.083c2.912-2.946 2.885-7.695-.062-10.607z"/><path d="m239.172 146.839c1.462 1.445 3.367 2.166 5.272 2.166 1.934 0 3.867-.744 5.334-2.228l29.015-29.355c2.888-2.922 2.888-7.623 0-10.545l-29.015-29.355c-2.912-2.947-7.661-2.973-10.606-.062-2.945 2.912-2.974 7.66-.062 10.606l23.804 24.083-23.804 24.083c-2.912 2.947-2.883 7.696.062 10.607z"/><path d="m204.861 152.179c3.406 0 6.489-2.337 7.297-5.797l14.995-64.264c.941-4.034-1.565-8.067-5.6-9.008-4.034-.943-8.066 1.565-9.008 5.6l-14.995 64.264c-.941 4.034 1.565 8.067 5.6 9.008.574.133 1.147.197 1.711.197z"/><path d="m358.932 169.708h-208.139c-4.143 0-7.5 3.358-7.5 7.5s3.357 7.5 7.5 7.5h208.139c4.143 0 7.5-3.358 7.5-7.5s-3.358-7.5-7.5-7.5z"/><path d="m150.793 239.723h45.578c4.143 0 7.5-3.358 7.5-7.5s-3.357-7.5-7.5-7.5h-45.578c-4.143 0-7.5 3.358-7.5 7.5s3.357 7.5 7.5 7.5z"/><path d="m358.932 224.723h-130.599c-4.143 0-7.5 3.358-7.5 7.5s3.357 7.5 7.5 7.5h130.599c4.143 0 7.5-3.358 7.5-7.5s-3.358-7.5-7.5-7.5z"/><path d="m358.932 279.737h-208.139c-4.143 0-7.5 3.358-7.5 7.5s3.357 7.5 7.5 7.5h208.139c4.143 0 7.5-3.358 7.5-7.5s-3.358-7.5-7.5-7.5z"/><path d="m358.932 334.751h-208.139c-4.143 0-7.5 3.358-7.5 7.5s3.357 7.5 7.5 7.5h208.139c4.143 0 7.5-3.358 7.5-7.5s-3.358-7.5-7.5-7.5z"/><path d="m358.932 389.765h-208.139c-4.143 0-7.5 3.358-7.5 7.5s3.357 7.5 7.5 7.5h208.139c4.143 0 7.5-3.358 7.5-7.5s-3.358-7.5-7.5-7.5z"/><path d="m358.932 444.779h-208.139c-4.143 0-7.5 3.358-7.5 7.5s3.357 7.5 7.5 7.5h208.139c4.143 0 7.5-3.358 7.5-7.5s-3.358-7.5-7.5-7.5z"/></g></svg>