<svg id="Capa_1" enable-background="new 0 0 513.029 513.029" height="512" viewBox="0 0 513.029 513.029" width="512" xmlns="http://www.w3.org/2000/svg"><g><path d="m413.429 0h-313.828c-19.944 0-36.17 16.226-36.17 36.17v440.689c0 19.944 16.226 36.17 36.169 36.17h313.828c19.944 0 36.169-16.226 36.169-36.17v-440.689c.001-19.944-16.224-36.17-36.168-36.17zm21.169 476.859c0 11.673-9.497 21.17-21.169 21.17h-313.828c-11.673 0-21.169-9.497-21.169-21.17v-440.689c0-11.673 9.497-21.17 21.169-21.17h313.828c11.673 0 21.169 9.497 21.169 21.17z"/><path d="m412.098 30h-311.167c-4.142 0-7.5 3.358-7.5 7.5v315.514c0 4.142 3.358 7.5 7.5 7.5s7.5-3.358 7.5-7.5v-308.014h296.167v394.569h-296.167v-54.593c0-4.142-3.358-7.5-7.5-7.5s-7.5 3.358-7.5 7.5v62.093c0 4.142 3.358 7.5 7.5 7.5h311.167c4.142 0 7.5-3.358 7.5-7.5v-409.569c0-4.142-3.358-7.5-7.5-7.5z"/><path d="m262.997 468.604h-12.95c-4.142 0-7.5 3.358-7.5 7.5s3.358 7.5 7.5 7.5h12.95c4.142 0 7.5-3.358 7.5-7.5s-3.358-7.5-7.5-7.5z"/><path d="m211.853 69.54c0-4.142-3.358-7.5-7.5-7.5h-60.471c-9.943 0-18.033 8.089-18.033 18.033v136.949c0 9.943 8.089 18.033 18.033 18.033h225.266c9.943 0 18.033-8.089 18.033-18.033v-136.95c0-9.943-8.089-18.033-18.033-18.033h-132.833c-4.142 0-7.5 3.358-7.5 7.5s3.358 7.5 7.5 7.5h118.858l-98.659 61.922-98.658-61.921h46.497c4.142 0 7.5-3.358 7.5-7.5zm-56.326 150.514 100.987-63.383 100.987 63.383zm216.653-135.979v127.482l-101.557-63.741zm-231.331 127.482v-127.482l101.557 63.741z"/><path d="m380.642 275.622c0-8.495-6.911-15.405-15.406-15.405h-216.851c-8.495 0-15.406 6.911-15.406 15.405v24.231c0 8.495 6.911 15.406 15.406 15.406h133.212c4.142 0 7.5-3.358 7.5-7.5s-3.358-7.5-7.5-7.5h-133.212c-.224 0-.406-.182-.406-.406v-24.231c0-.224.182-.405.406-.405h216.851c.224 0 .406.182.406.405v24.231c0 .224-.182.406-.406.406h-51.676c-4.142 0-7.5 3.358-7.5 7.5s3.358 7.5 7.5 7.5h51.676c8.495 0 15.406-6.911 15.406-15.406z"/><path d="m140.479 354.76h15.04c4.142 0 7.5-3.358 7.5-7.5s-3.358-7.5-7.5-7.5h-15.04c-4.142 0-7.5 3.358-7.5 7.5s3.358 7.5 7.5 7.5z"/><path d="m372.55 339.76h-15.04c-4.142 0-7.5 3.358-7.5 7.5s3.358 7.5 7.5 7.5h15.04c4.142 0 7.5-3.358 7.5-7.5s-3.358-7.5-7.5-7.5z"/><path d="m330.511 354.76c4.142 0 7.5-3.358 7.5-7.5s-3.358-7.5-7.5-7.5h-147.723c-4.142 0-7.5 3.358-7.5 7.5s3.358 7.5 7.5 7.5z"/><path d="m140.479 394.261h232.07c4.142 0 7.5-3.358 7.5-7.5s-3.358-7.5-7.5-7.5h-232.07c-4.142 0-7.5 3.358-7.5 7.5s3.358 7.5 7.5 7.5z"/></g></svg>