<svg id="Capa_1" enable-background="new 0 0 512.026 512.026" height="512" viewBox="0 0 512.026 512.026" width="512" xmlns="http://www.w3.org/2000/svg"><g><path d="m498.644 392.895h-5.128v-314.357c0-12.593-10.245-22.838-22.837-22.838h-428.33c-12.593 0-22.837 10.245-22.837 22.838v314.357h-6.128c-7.381 0-13.384 6.004-13.384 13.383v15.293c0 19.164 15.591 34.754 34.754 34.754h442.518c19.164 0 34.754-15.591 34.754-34.754v-15.293c0-7.379-6.003-13.383-13.382-13.383zm-1.618 28.677c0 10.893-8.862 19.754-19.754 19.754h-442.518c-10.893 0-19.754-8.862-19.754-19.754v-13.676h120.127c4.142 0 7.5-3.358 7.5-7.5s-3.358-7.5-7.5-7.5h-100.616v-314.358c0-4.322 3.516-7.838 7.837-7.838h428.329c4.321 0 7.837 3.516 7.837 7.838v314.357h-311.424c-4.142 0-7.5 3.358-7.5 7.5s3.358 7.5 7.5 7.5h329.937v13.677z"/><path d="m463.515 370.395v-73.148c0-4.142-3.358-7.5-7.5-7.5s-7.5 3.358-7.5 7.5v65.648h-384.004v-262.195h384.004v164.584c0 4.142 3.358 7.5 7.5 7.5s7.5-3.358 7.5-7.5v-172.084c0-4.142-3.358-7.5-7.5-7.5h-399.004c-4.142 0-7.5 3.358-7.5 7.5v277.195c0 4.142 3.358 7.5 7.5 7.5h399.004c4.142 0 7.5-3.358 7.5-7.5z"/><path d="m116.307 138.996h50.546c4.142 0 7.5-3.358 7.5-7.5s-3.358-7.5-7.5-7.5h-50.546c-14.322 0-25.974 11.652-25.974 25.975v156.356c0 14.322 11.652 25.974 25.974 25.974h280.413c14.322 0 25.974-11.652 25.974-25.974v-156.357c0-14.322-11.652-25.975-25.974-25.975h-197.905c-4.142 0-7.5 3.358-7.5 7.5s3.358 7.5 7.5 7.5h197.905c6.051 0 10.974 4.923 10.974 10.975v21.423h-302.361v-21.423c0-6.051 4.922-10.974 10.974-10.974zm-10.974 51.214 132.938 58.049-132.938 58.049zm151.68 66.233 139.37 60.858h-278.74zm18.743-8.184 131.938-57.612v115.225zm-18.743-8.184-122.936-53.682h245.873z"/></g></svg>