<svg id="Capa_1" enable-background="new 0 0 512.164 512.164" height="512" viewBox="0 0 512.164 512.164" width="512" xmlns="http://www.w3.org/2000/svg"><g><path d="m465.912 287.697h-419.66c-25.504 0-46.252 20.749-46.252 46.252v106.667c0 25.504 20.748 46.252 46.252 46.252h312.512c4.143 0 7.5-3.358 7.5-7.5s-3.357-7.5-7.5-7.5h-312.512c-17.232.001-31.252-14.019-31.252-31.252v-106.667c0-17.233 14.02-31.252 31.252-31.252h419.66c17.232 0 31.252 14.02 31.252 31.252v106.667c0 17.233-14.02 31.252-31.252 31.252h-75.187c-4.143 0-7.5 3.358-7.5 7.5s3.357 7.5 7.5 7.5h75.187c25.504 0 46.252-20.749 46.252-46.252v-106.667c0-25.503-20.748-46.252-46.252-46.252z"/><path d="m93.623 317.697h-47.371c-8.961 0-16.252 7.291-16.252 16.252v106.667c0 8.961 7.291 16.252 16.252 16.252h419.66c8.961 0 16.252-7.291 16.252-16.252v-106.667c0-8.961-7.291-16.252-16.252-16.252h-340.326c-4.143 0-7.5 3.358-7.5 7.5s3.357 7.5 7.5 7.5h340.326c.679 0 1.252.574 1.252 1.252v106.667c0 .679-.573 1.252-1.252 1.252h-419.66c-.679 0-1.252-.574-1.252-1.252v-106.667c0-.679.573-1.252 1.252-1.252h47.371c4.143 0 7.5-3.358 7.5-7.5s-3.357-7.5-7.5-7.5z"/><path d="m280.11 387.283c0-13.249-10.779-24.028-24.028-24.028s-24.028 10.779-24.028 24.028 10.779 24.028 24.028 24.028 24.028-10.779 24.028-24.028zm-33.056 0c0-4.978 4.05-9.028 9.028-9.028s9.028 4.05 9.028 9.028-4.05 9.028-9.028 9.028-9.028-4.05-9.028-9.028z"/><path d="m212.515 387.283c0-13.249-10.778-24.028-24.027-24.028s-24.028 10.779-24.028 24.028 10.779 24.028 24.028 24.028 24.027-10.779 24.027-24.028zm-33.056 0c0-4.978 4.05-9.028 9.028-9.028s9.027 4.05 9.027 9.028-4.05 9.028-9.027 9.028c-4.978 0-9.028-4.05-9.028-9.028z"/><path d="m120.892 411.311c13.249 0 24.028-10.779 24.028-24.028s-10.779-24.028-24.028-24.028-24.027 10.779-24.027 24.028 10.778 24.028 24.027 24.028zm0-33.056c4.979 0 9.028 4.05 9.028 9.028s-4.05 9.028-9.028 9.028-9.027-4.05-9.027-9.028 4.049-9.028 9.027-9.028z"/><path d="m347.705 387.283c0-13.249-10.779-24.028-24.028-24.028s-24.027 10.779-24.027 24.028 10.778 24.028 24.027 24.028 24.028-10.779 24.028-24.028zm-33.056 0c0-4.978 4.05-9.028 9.027-9.028 4.979 0 9.028 4.05 9.028 9.028s-4.05 9.028-9.028 9.028c-4.977 0-9.027-4.05-9.027-9.028z"/><path d="m415.3 387.283c0-13.249-10.778-24.028-24.027-24.028s-24.028 10.779-24.028 24.028 10.779 24.028 24.028 24.028 24.027-10.779 24.027-24.028zm-33.056 0c0-4.978 4.05-9.028 9.028-9.028s9.027 4.05 9.027 9.028-4.05 9.028-9.027 9.028c-4.978 0-9.028-4.05-9.028-9.028z"/><path d="m182.328 268.162h147.508c16.81 0 30.485-13.675 30.485-30.485v-87.082c0-11.413-6.309-21.376-15.618-26.6v-11.079c0-48.314-39.307-87.621-87.621-87.621s-87.621 39.307-87.621 87.621v10.052c-10.395 4.861-17.618 15.414-17.618 27.627v87.082c0 16.81 13.676 30.485 30.485 30.485zm74.754-227.867c40.043 0 72.621 32.578 72.621 72.621v7.194h-17v-7.194c0-9.863-2.639-19.571-7.632-28.076-2.097-3.572-6.694-4.767-10.265-2.671-3.572 2.097-4.768 6.693-2.671 10.265 3.643 6.204 5.567 13.287 5.567 20.482v7.194h-81.242v-7.194c0-22.398 18.223-40.621 40.621-40.621 4.961 0 9.825.898 14.458 2.67 3.872 1.482 8.205-.457 9.685-4.325 1.48-3.869-.457-8.205-4.325-9.685-6.35-2.429-13.018-3.661-19.817-3.661-30.67 0-55.621 24.952-55.621 55.621v7.194h-17v-7.194c0-40.042 32.578-72.62 72.621-72.62zm-90.239 110.3c0-8.539 6.946-15.485 15.485-15.485h147.508c8.539 0 15.485 6.947 15.485 15.485v87.082c0 8.539-6.946 15.485-15.485 15.485h-147.508c-8.539 0-15.485-6.946-15.485-15.485z"/><path d="m235.855 202.747-3.978 7.014c-2.626 4.63-2.595 10.14.084 14.74 2.68 4.599 7.457 7.345 12.779 7.345h24.682c5.322 0 10.1-2.746 12.779-7.345 2.679-4.6 2.71-10.11.084-14.74l-3.978-7.014c6.999-6.059 11.128-14.887 11.128-24.427 0-17.84-14.514-32.354-32.354-32.354s-32.354 14.514-32.354 32.354c.001 9.541 4.129 18.369 11.128 24.427zm21.227-41.781c9.569 0 17.354 7.785 17.354 17.354 0 6.545-3.628 12.468-9.469 15.457-1.82.932-3.182 2.566-3.768 4.525-.587 1.959-.348 4.073.661 5.852l7.198 12.693h-23.955l7.198-12.692c1.009-1.779 1.248-3.893.661-5.852-.586-1.959-1.947-3.594-3.768-4.525-5.841-2.988-9.469-8.911-9.469-15.457.003-9.57 7.788-17.355 17.357-17.355z"/></g></svg>