<svg id="Capa_1" enable-background="new 0 0 511.308 511.308" height="512" viewBox="0 0 511.308 511.308" width="512" xmlns="http://www.w3.org/2000/svg"><g><path d="m379.87 21.738h-248.27c-18.835 0-34.158 15.323-34.158 34.158v399.516c0 18.835 15.323 34.158 34.158 34.158h248.27c18.835 0 34.158-15.323 34.158-34.158v-131.34c0-4.142-3.357-7.5-7.5-7.5s-7.5 3.358-7.5 7.5v131.34c0 10.564-8.595 19.158-19.158 19.158h-248.27c-10.563 0-19.158-8.594-19.158-19.158v-362h286.586v198.696c0 4.142 3.357 7.5 7.5 7.5s7.5-3.358 7.5-7.5v-236.212c0-18.835-15.323-34.158-34.158-34.158zm-267.428 56.674v-22.516c0-10.563 8.595-19.158 19.158-19.158h248.27c10.563 0 19.158 8.594 19.158 19.158v22.517h-286.586z"/><path d="m30.939 76.791h44.003c4.143 0 7.5-3.358 7.5-7.5s-3.357-7.5-7.5-7.5h-44.003c-17.059 0-30.939 13.88-30.939 30.94v325.847c0 17.06 13.88 30.939 30.939 30.939h44.003c4.143 0 7.5-3.358 7.5-7.5s-3.357-7.5-7.5-7.5h-44.003c-8.789 0-15.939-7.15-15.939-15.939v-284.604h59.942c4.143 0 7.5-3.358 7.5-7.5s-3.357-7.5-7.5-7.5h-59.942v-26.243c0-8.789 7.15-15.94 15.939-15.94z"/><path d="m480.368 61.791h-43.84c-4.143 0-7.5 3.358-7.5 7.5s3.357 7.5 7.5 7.5h43.84c8.789 0 15.939 7.15 15.939 15.939v26.244h-59.779c-4.143 0-7.5 3.358-7.5 7.5s3.357 7.5 7.5 7.5h59.779v284.603c0 8.789-7.15 15.939-15.939 15.939h-43.84c-4.143 0-7.5 3.358-7.5 7.5s3.357 7.5 7.5 7.5h43.84c17.061 0 30.939-13.879 30.939-30.939v-325.846c.001-17.06-13.878-30.94-30.939-30.94z"/><path d="m141.249 50.115h-3.345c-4.143 0-7.5 3.358-7.5 7.5s3.357 7.5 7.5 7.5h3.345c4.143 0 7.5-3.358 7.5-7.5s-3.357-7.5-7.5-7.5z"/><path d="m173.674 50.115h-3.345c-4.143 0-7.5 3.358-7.5 7.5s3.357 7.5 7.5 7.5h3.345c4.143 0 7.5-3.358 7.5-7.5s-3.358-7.5-7.5-7.5z"/><path d="m206.099 50.115h-3.346c-4.143 0-7.5 3.358-7.5 7.5s3.357 7.5 7.5 7.5h3.346c4.143 0 7.5-3.358 7.5-7.5s-3.358-7.5-7.5-7.5z"/><path d="m374.997 292.695v-149.397c0-8.339-6.784-15.124-15.123-15.124h-50.412c-4.143 0-7.5 3.358-7.5 7.5s3.357 7.5 7.5 7.5h35.207l-88.934 65.507-88.934-65.507h110.698c4.143 0 7.5-3.358 7.5-7.5s-3.357-7.5-7.5-7.5h-125.902c-8.339 0-15.123 6.784-15.123 15.124v149.396c0 8.339 6.784 15.124 15.123 15.124h208.277c8.339.001 15.123-6.784 15.123-15.123zm-15-142.181v134.964l-91.615-67.482zm-15.327 142.305h-177.869l88.934-65.507zm-193.196-7.341v-134.964l91.615 67.482z"/><path d="m352.897 374.74v-22.902c0-8.604-7.001-15.605-15.605-15.605h-163.113c-8.604 0-15.605 7-15.605 15.605v22.902c0 8.604 7.001 15.605 15.605 15.605h37.322c4.143 0 7.5-3.358 7.5-7.5s-3.357-7.5-7.5-7.5h-37.322c-.334 0-.605-.271-.605-.605v-22.902c0-.333.271-.605.605-.605h163.113c.334 0 .605.271.605.605v22.902c0 .333-.271.605-.605.605h-93.829c-4.143 0-7.5 3.358-7.5 7.5s3.357 7.5 7.5 7.5h93.829c8.604-.001 15.605-7.001 15.605-15.605z"/><path d="m154.349 416.351c-4.143 0-7.5 3.358-7.5 7.5s3.357 7.5 7.5 7.5h17.068c4.143 0 7.5-3.358 7.5-7.5s-3.357-7.5-7.5-7.5z"/><path d="m341.054 431.351h17.068c4.143 0 7.5-3.358 7.5-7.5s-3.357-7.5-7.5-7.5h-17.068c-4.143 0-7.5 3.358-7.5 7.5s3.357 7.5 7.5 7.5z"/><path d="m197.496 416.351c-4.143 0-7.5 3.358-7.5 7.5s3.357 7.5 7.5 7.5h117.821c4.143 0 7.5-3.358 7.5-7.5s-3.357-7.5-7.5-7.5z"/></g></svg>