<svg id="Capa_1" enable-background="new 0 0 513.354 513.354" height="512" viewBox="0 0 513.354 513.354" width="512" xmlns="http://www.w3.org/2000/svg"><g><path d="m248.273 241.672c-3.213-2.612-7.938-2.124-10.55 1.089-2.613 3.214-2.125 7.938 1.089 10.55 32.264 26.224 50.768 65.075 50.768 106.59 0 75.702-61.588 137.29-137.29 137.29-32.727 0-64.424-11.712-89.254-32.979-3.146-2.694-7.881-2.33-10.575.817-2.694 3.146-2.329 7.881.817 10.575 27.546 23.593 62.709 36.586 99.012 36.586 83.973 0 152.29-68.317 152.29-152.29 0-46.05-20.523-89.143-56.307-118.228z"/><path d="m15 359.902c0-72.247 56.422-132.424 128.451-136.999 4.134-.263 7.272-3.827 7.009-7.96s-3.818-7.282-7.96-7.009c-79.907 5.075-142.5 71.827-142.5 151.968 0 33.149 10.467 64.665 30.271 91.138 1.473 1.969 3.728 3.008 6.012 3.008 1.562 0 3.139-.487 4.487-1.495 3.316-2.481 3.994-7.182 1.513-10.499-17.849-23.858-27.283-52.267-27.283-82.152z"/><path d="m62.151 425.511c-3.101 2.747-3.387 7.487-.64 10.587 1.482 1.673 3.544 2.526 5.616 2.526 1.768 0 3.543-.622 4.971-1.887 54.11-47.944 106.15-47.961 159.096-.052 3.072 2.779 7.814 2.541 10.593-.529 2.779-3.071 2.542-7.814-.529-10.593-29.258-26.475-59.359-39.9-89.379-39.792-29.858.071-60.047 13.441-89.728 39.74z"/><path d="m464.297 1.162h-249.765c-27.05 0-49.057 22.007-49.057 49.057v195.628c0 6.064 3.367 11.521 8.786 14.243 2.279 1.144 4.729 1.708 7.165 1.708 3.357 0 6.688-1.071 9.505-3.17l48.346-36.016h137.323c4.142 0 7.5-3.358 7.5-7.5s-3.358-7.5-7.5-7.5h-137.517c-3.082 0-6.14 1.014-8.61 2.854l-48.502 36.132c-.138.104-.463.346-.979.086-.516-.259-.516-.664-.516-.837v-195.628c0-18.779 15.278-34.057 34.057-34.057h249.765c18.779 0 34.057 15.278 34.057 34.057v123.335c0 18.779-15.278 34.058-34.057 34.058h-55.735c-4.142 0-7.5 3.358-7.5 7.5s3.358 7.5 7.5 7.5h55.735c27.05 0 49.057-22.007 49.057-49.058v-123.335c-.001-27.05-22.008-49.057-49.058-49.057z"/><path d="m230.414 288.896c-2.491-3.311-7.192-3.974-10.502-1.483l-46.815 35.232c-3.31 2.491-3.974 7.193-1.483 10.502 1.474 1.959 3.722 2.991 5.999 2.991 1.57 0 3.153-.491 4.504-1.508l6.594-4.963c2.794 9.567 11.64 16.578 22.097 16.578 12.694 0 23.021-10.328 23.021-23.021 0-8.172-4.284-15.358-10.72-19.445l5.823-4.382c3.309-2.489 3.973-7.191 1.482-10.501zm-19.607 42.351c-4.423 0-8.021-3.599-8.021-8.021s3.599-8.021 8.021-8.021 8.021 3.599 8.021 8.021-3.598 8.021-8.021 8.021z"/><path d="m70.751 323.225c0 12.694 10.328 23.021 23.021 23.021 10.457 0 19.303-7.011 22.097-16.578l6.594 4.962c1.351 1.017 2.934 1.508 4.504 1.508 2.276 0 4.524-1.032 5.999-2.991 2.491-3.31 1.827-8.012-1.483-10.502l-46.815-35.232c-3.309-2.49-8.011-1.826-10.502 1.483-2.491 3.31-1.827 8.012 1.483 10.502l5.823 4.382c-6.437 4.087-10.721 11.273-10.721 19.445zm23.022 8.022c-4.423 0-8.021-3.599-8.021-8.021s3.599-8.021 8.021-8.021 8.021 3.599 8.021 8.021-3.598 8.021-8.021 8.021z"/><path d="m280.029 56.395-17.09-2.484-7.643-15.485c-1.64-3.323-4.96-5.388-8.667-5.389h-.001c-3.706 0-7.027 2.064-8.667 5.388l-7.643 15.486-17.092 2.484c-3.667.533-6.657 3.054-7.802 6.579s-.207 7.321 2.446 9.907l12.367 12.055-2.919 17.022c-.626 3.652.847 7.274 3.845 9.452s6.897 2.462 10.18.736l15.286-8.037 15.286 8.037c1.427.75 2.97 1.121 4.506 1.12 1.996 0 3.978-.625 5.672-1.856 2.999-2.178 4.472-5.8 3.846-9.454l-2.919-17.021 12.366-12.054c2.654-2.586 3.592-6.383 2.447-9.908-1.145-3.524-4.135-6.045-7.804-6.578zm-19.486 19.756c-2.281 2.222-3.32 5.421-2.782 8.557l1.566 9.132-8.202-4.312c-2.816-1.479-6.177-1.479-8.995 0l-8.201 4.312 1.566-9.131c.539-3.137-.5-6.336-2.779-8.557l-6.635-6.468 9.169-1.333c3.149-.458 5.87-2.434 7.278-5.287l4.1-8.309 4.101 8.309c1.408 2.853 4.129 4.83 7.278 5.287l9.169 1.333z"/><path d="m214.306 133.399c-4.142 0-7.5 3.358-7.5 7.5s3.358 7.5 7.5 7.5h14.434c4.142 0 7.5-3.358 7.5-7.5s-3.358-7.5-7.5-7.5z"/><path d="m252.323 140.899c0 4.142 3.358 7.5 7.5 7.5h210.163c4.142 0 7.5-3.358 7.5-7.5s-3.358-7.5-7.5-7.5h-210.163c-4.142 0-7.5 3.358-7.5 7.5z"/><path d="m214.306 182.506h255.68c4.142 0 7.5-3.358 7.5-7.5s-3.358-7.5-7.5-7.5h-255.68c-4.142 0-7.5 3.358-7.5 7.5s3.358 7.5 7.5 7.5z"/></g></svg>