<svg id="Capa_1" enable-background="new 0 0 513.354 513.354" height="512" viewBox="0 0 513.354 513.354" width="512" xmlns="http://www.w3.org/2000/svg"><g><path d="m36.282 454.048c1.562 0 3.139-.487 4.487-1.495 3.316-2.481 3.994-7.182 1.513-10.499-17.848-23.858-27.282-52.267-27.282-82.152 0-72.247 56.422-132.424 128.451-136.999 4.134-.263 7.272-3.827 7.009-7.96s-3.824-7.282-7.96-7.009c-79.907 5.075-142.5 71.827-142.5 151.968 0 33.149 10.467 64.665 30.271 91.138 1.473 1.969 3.728 3.008 6.011 3.008z"/><path d="m289.58 359.902c0 75.702-61.588 137.29-137.29 137.29-32.727 0-64.424-11.712-89.254-32.979-3.146-2.694-7.881-2.33-10.575.817-2.694 3.146-2.329 7.881.817 10.575 27.546 23.593 62.709 36.586 99.012 36.586 83.973 0 152.29-68.317 152.29-152.29 0-46.052-20.523-89.146-56.307-118.23-3.213-2.612-7.938-2.124-10.55 1.089-2.613 3.214-2.125 7.938 1.089 10.55 32.264 26.226 50.768 65.076 50.768 106.592z"/><path d="m464.297 1.162h-249.765c-27.05 0-49.057 22.007-49.057 49.057v195.628c0 6.064 3.367 11.521 8.786 14.243 2.279 1.144 4.729 1.708 7.165 1.708 3.357 0 6.688-1.071 9.505-3.17l48.346-36.016h137.323c4.142 0 7.5-3.358 7.5-7.5s-3.358-7.5-7.5-7.5h-137.517c-3.082 0-6.14 1.014-8.61 2.854l-48.502 36.132c-.139.104-.463.346-.979.086-.516-.259-.516-.664-.516-.837v-195.628c0-18.779 15.278-34.057 34.057-34.057h249.765c18.779 0 34.057 15.278 34.057 34.057v123.335c0 18.779-15.278 34.058-34.057 34.058h-55.735c-4.142 0-7.5 3.358-7.5 7.5s3.358 7.5 7.5 7.5h55.735c27.05 0 49.057-22.007 49.057-49.058v-123.335c-.001-27.05-22.008-49.057-49.058-49.057z"/><path d="m280.029 56.395-17.09-2.484-7.643-15.485c-1.64-3.323-4.96-5.388-8.667-5.389h-.001c-3.706 0-7.027 2.064-8.667 5.388l-7.643 15.486-17.092 2.484c-3.667.533-6.657 3.054-7.802 6.579s-.207 7.321 2.446 9.907l12.367 12.055-2.919 17.022c-.626 3.652.847 7.274 3.845 9.452s6.897 2.462 10.18.736l15.286-8.037 15.286 8.037c1.427.75 2.97 1.121 4.506 1.12 1.996 0 3.978-.625 5.672-1.856 2.999-2.178 4.472-5.8 3.846-9.454l-2.919-17.021 12.366-12.054c2.654-2.586 3.592-6.383 2.447-9.908-1.145-3.524-4.135-6.045-7.804-6.578zm-19.486 19.756c-2.281 2.222-3.32 5.421-2.782 8.557l1.566 9.132-8.202-4.312c-2.816-1.479-6.177-1.479-8.995 0l-8.201 4.312 1.566-9.131c.539-3.137-.5-6.336-2.779-8.557l-6.635-6.468 9.169-1.333c3.149-.458 5.87-2.434 7.278-5.287l4.1-8.309 4.101 8.309c1.408 2.853 4.129 4.83 7.278 5.287l9.169 1.333z"/><path d="m383.349 62.973c-1.145-3.524-4.134-6.045-7.802-6.579l-17.09-2.483-7.643-15.487c-1.641-3.323-4.962-5.388-8.668-5.387-3.706 0-7.027 2.065-8.666 5.388l-7.643 15.487-17.091 2.483c-3.667.533-6.657 3.054-7.802 6.578-1.146 3.524-.208 7.321 2.446 9.908l12.366 12.054-2.919 17.022c-.626 3.652.847 7.274 3.846 9.453 2.997 2.178 6.898 2.46 10.179.736l15.286-8.037 15.288 8.037c1.426.75 2.97 1.12 4.505 1.12 1.996 0 3.979-.625 5.673-1.856 2.998-2.178 4.471-5.8 3.845-9.453l-2.919-17.021 12.367-12.055c2.65-2.587 3.587-6.383 2.442-9.908zm-27.291 13.18c-2.277 2.22-3.316 5.417-2.779 8.554l1.566 9.132-8.202-4.312c-1.408-.74-2.952-1.109-4.497-1.109s-3.089.37-4.498 1.11l-8.201 4.312 1.566-9.131c.539-3.136-.5-6.334-2.779-8.557l-6.635-6.468 9.17-1.333c3.148-.458 5.869-2.435 7.276-5.287l4.101-8.309 4.101 8.309c1.408 2.853 4.128 4.83 7.277 5.287l9.169 1.333z"/><path d="m478.866 62.973c-1.145-3.524-4.134-6.045-7.802-6.578l-17.09-2.483-7.643-15.487c-1.64-3.323-4.961-5.387-8.667-5.387s-7.027 2.064-8.667 5.388l-7.643 15.487-17.091 2.483c-3.667.533-6.657 3.054-7.802 6.578-1.146 3.524-.208 7.321 2.446 9.908l12.366 12.055-2.919 17.02c-.627 3.652.846 7.275 3.844 9.454 2.998 2.18 6.898 2.462 10.181.737l15.286-8.037 15.287 8.037c1.426.75 2.97 1.12 4.506 1.12 1.996 0 3.979-.625 5.673-1.857 2.998-2.179 4.471-5.801 3.844-9.452l-2.919-17.021 12.367-12.055c2.652-2.589 3.589-6.386 2.443-9.91zm-27.291 13.18c-2.278 2.222-3.317 5.42-2.779 8.554l1.566 9.133-8.202-4.312c-1.408-.74-2.952-1.11-4.497-1.11s-3.09.371-4.499 1.11l-8.201 4.312 1.565-9.131c.539-3.136-.5-6.334-2.779-8.557l-6.635-6.468 9.17-1.333c3.148-.458 5.869-2.435 7.276-5.287l4.101-8.309 4.101 8.309c1.408 2.853 4.128 4.829 7.277 5.287l9.169 1.333z"/><path d="m214.306 133.399c-4.142 0-7.5 3.358-7.5 7.5s3.358 7.5 7.5 7.5h14.434c4.142 0 7.5-3.358 7.5-7.5s-3.358-7.5-7.5-7.5z"/><path d="m252.323 140.899c0 4.142 3.358 7.5 7.5 7.5h210.163c4.142 0 7.5-3.358 7.5-7.5s-3.358-7.5-7.5-7.5h-210.163c-4.142 0-7.5 3.358-7.5 7.5z"/><path d="m214.306 182.506h255.68c4.142 0 7.5-3.358 7.5-7.5s-3.358-7.5-7.5-7.5h-255.68c-4.142 0-7.5 3.358-7.5 7.5s3.358 7.5 7.5 7.5z"/><path d="m110.216 331.138c4.142 0 7.5-3.358 7.5-7.5v-8.424c0-13.267-10.794-24.061-24.061-24.061s-24.061 10.794-24.061 24.061v8.424c0 4.142 3.358 7.5 7.5 7.5s7.5-3.358 7.5-7.5v-8.424c0-4.996 4.065-9.061 9.061-9.061s9.061 4.065 9.061 9.061v8.424c0 4.143 3.358 7.5 7.5 7.5z"/><path d="m227.486 331.138c4.142 0 7.5-3.358 7.5-7.5v-8.424c0-13.267-10.794-24.061-24.061-24.061-13.268 0-24.062 10.794-24.062 24.061v8.424c0 4.142 3.358 7.5 7.5 7.5s7.5-3.358 7.5-7.5v-8.424c0-4.996 4.065-9.061 9.062-9.061 4.996 0 9.061 4.065 9.061 9.061v8.424c0 4.143 3.358 7.5 7.5 7.5z"/><path d="m45.686 373.588c0 58.782 47.822 106.604 106.604 106.604s106.604-47.822 106.604-106.604c0-6.187-5.033-11.22-11.22-11.22h-190.768c-6.187 0-11.22 5.033-11.22 11.22zm198.131 3.78c-.833 20.416-8.383 39.128-20.49 53.988-10.667-5.632-21.981-9.987-33.729-12.948-4.017-1.014-8.093 1.423-9.105 5.439s1.423 8.093 5.439 9.105c9.161 2.309 18.02 5.577 26.467 9.701-16.099 14.03-37.128 22.539-60.109 22.539-22.989 0-44.025-8.515-60.126-22.553 18.639-9.083 39.226-13.859 60.126-13.859 1 0 1.993.025 2.986.049l.348.008c4.13.073 7.578-3.178 7.677-7.319s-3.179-7.578-7.319-7.677l-.344-.008c-1.114-.027-2.228-.053-3.348-.053-24.812 0-49.234 6.07-71.035 17.577-12.108-14.86-19.658-33.573-20.491-53.989z"/></g></svg>