<svg id="Capa_1" enable-background="new 0 0 511.941 511.941" height="512" viewBox="0 0 511.941 511.941" width="512" xmlns="http://www.w3.org/2000/svg"><g><path d="m305.925 394.575c-4.143 0-7.5 3.358-7.5 7.5v45.694c0 27.113-22.059 49.171-49.172 49.171h-158.875c-27.113 0-49.171-22.058-49.171-49.171v-383.597c0-27.113 22.058-49.172 49.171-49.172h.391l8.33 19.496c4.85 11.352 15.96 18.687 28.305 18.687h38.971c4.142 0 7.5-3.358 7.5-7.5s-3.358-7.5-7.5-7.5h-38.971c-6.329 0-12.024-3.76-14.511-9.58l-5.811-13.603h125.468l-5.812 13.602c-2.487 5.82-8.183 9.581-14.511 9.581h-13.89c-4.142 0-7.5 3.358-7.5 7.5s3.358 7.5 7.5 7.5h13.89c12.344 0 23.454-7.335 28.305-18.687l8.33-19.496h.391c27.113 0 49.172 22.059 49.172 49.172v38.98c0 4.142 3.357 7.5 7.5 7.5s7.5-3.358 7.5-7.5v-38.98c0-35.384-28.787-64.172-64.172-64.172h-158.875c-35.384 0-64.171 28.788-64.171 64.172v383.598c0 35.384 28.787 64.171 64.171 64.171h158.875c35.385 0 64.172-28.787 64.172-64.171v-45.694c0-4.143-3.357-7.501-7.5-7.501z"/><path d="m478.234 201.792c4.143 0 7.5-3.358 7.5-7.5v-27.757c0-22.543-18.34-40.883-40.883-40.883h-202.7c-22.543 0-40.883 18.34-40.883 40.883v149.368c0 22.543 18.34 40.883 40.883 40.883h34.696l18.232 18.287c2.895 2.903 6.746 4.501 10.846 4.501s7.951-1.599 10.847-4.502l18.231-18.287h109.848c22.543 0 40.883-18.34 40.883-40.883v-89.649c0-4.142-3.357-7.5-7.5-7.5s-7.5 3.358-7.5 7.5v89.649c0 14.272-11.611 25.883-25.883 25.883h-110.297c-3.672 0-7.265 1.492-9.856 4.091l-18.548 18.604c-.028.028-.094.093-.225.093s-.196-.065-.224-.093l-18.549-18.604c-2.592-2.6-6.185-4.092-9.856-4.092h-35.146c-14.272 0-25.883-11.611-25.883-25.883v-149.366c0-14.272 11.611-25.883 25.883-25.883h202.7c14.271 0 25.883 11.611 25.883 25.883v27.757c.001 4.142 3.358 7.5 7.501 7.5z"/><path d="m348.502 301.724c-1.336 1.336-3.112 2.072-5.002 2.072s-3.666-.736-5.002-2.072l-24.186-24.186c-2.929-2.929-7.677-2.93-10.607 0-2.929 2.929-2.929 7.678 0 10.606l24.186 24.186c4.169 4.169 9.713 6.466 15.609 6.466s11.44-2.296 15.609-6.466l55.155-55.156c9.836-9.835 15.253-22.912 15.253-36.821s-5.417-26.986-15.252-36.821-22.912-15.252-36.821-15.252c-12.595 0-24.505 4.44-33.945 12.581-20.437-17.59-51.395-16.698-70.765 2.671-20.302 20.303-20.302 53.339 0 73.642l8.303 8.303c2.93 2.929 7.678 2.929 10.607 0s2.929-7.678 0-10.606l-8.303-8.303c-14.455-14.455-14.455-37.975 0-52.429 14.453-14.454 37.974-14.454 52.429 0l2.426 2.426c1.406 1.407 3.313 2.197 5.303 2.197h.001c1.989 0 3.896-.79 5.303-2.196l2.428-2.427c7.002-7.002 16.312-10.858 26.214-10.858s19.212 3.856 26.214 10.858c7.003 7.002 10.859 16.312 10.859 26.214 0 9.903-3.856 19.212-10.859 26.215z"/></g></svg>