<svg id="Capa_1" enable-background="new 0 0 512.438 512.438" height="512" viewBox="0 0 512.438 512.438" width="512" xmlns="http://www.w3.org/2000/svg"><g><path d="m100.763 383.811c4.143 0 7.5-3.358 7.5-7.5v-312.14c0-27.113 22.057-49.171 49.171-49.171h.392l8.331 19.496c4.85 11.351 15.959 18.686 28.304 18.686h44.161c4.143 0 7.5-3.358 7.5-7.5s-3.357-7.5-7.5-7.5h-44.162c-6.328 0-12.024-3.76-14.511-9.58l-5.812-13.602h125.469l-5.812 13.603c-2.486 5.819-8.183 9.58-14.512 9.58h-8.698c-4.143 0-7.5 3.358-7.5 7.5s3.357 7.5 7.5 7.5h8.698c12.345 0 23.455-7.335 28.305-18.686l8.33-19.497h.393c27.113 0 49.171 22.058 49.171 49.171v172.332c0 4.142 3.357 7.5 7.5 7.5s7.5-3.358 7.5-7.5v-172.332c-.001-35.384-28.788-64.171-64.171-64.171h-158.876c-35.384 0-64.171 28.787-64.171 64.171v312.14c0 4.142 3.357 7.5 7.5 7.5z"/><path d="m246.372 496.941h-88.938c-27.113 0-49.171-22.059-49.171-49.172v-39.496c0-4.142-3.357-7.5-7.5-7.5s-7.5 3.358-7.5 7.5v39.496c0 35.384 28.787 64.172 64.171 64.172h88.938c4.143 0 7.5-3.358 7.5-7.5s-3.357-7.5-7.5-7.5z"/><path d="m392.112 268.521c-5.036 0-9.753 1.387-13.796 3.793-3.861-10.238-13.755-17.541-25.327-17.541-4.333 0-8.428 1.029-12.062 2.847v-61.726c0-14.922-12.14-27.062-27.062-27.062-4.693 0-9.109 1.202-12.961 3.312-3.064-11.58-13.631-20.144-26.163-20.144-14.922 0-27.062 12.14-27.062 27.062v61.047c0 4.142 3.357 7.5 7.5 7.5s7.5-3.358 7.5-7.5v-61.047c0-6.651 5.411-12.062 12.062-12.062s12.062 5.411 12.062 12.062v132.588c0 4.142 3.357 7.5 7.5 7.5s7.5-3.358 7.5-7.5v-115.754c0-6.651 5.411-12.062 12.062-12.062s12.062 5.411 12.062 12.062v115.754c0 4.142 3.357 7.5 7.5 7.5s7.5-3.358 7.5-7.5v-29.814c0-6.651 5.411-12.062 12.062-12.062 6.65 0 12.062 5.411 12.062 12.062v43.562c0 4.142 3.357 7.5 7.5 7.5s7.5-3.358 7.5-7.5v-29.815c0-6.651 5.411-12.062 12.062-12.062s12.062 5.411 12.062 12.062v122.627c0 43.686-35.541 79.228-79.228 79.228-37.827 0-70.532-26.948-77.766-64.077l-4.383-22.499c-.446-2.295-1.284-4.474-2.489-6.474l-49.441-82.132c-3.332-5.536-2.439-12.563 2.171-17.09 2.715-2.666 6.305-4.076 10.106-3.978 3.804.1 7.313 1.7 9.884 4.505l32.97 35.977c2.694 2.942 6.839 3.908 10.56 2.462 3.718-1.446 6.121-4.959 6.121-8.949v-63.111c0-4.142-3.357-7.5-7.5-7.5s-7.5 3.358-7.5 7.5v49.23l-23.592-25.744c-5.344-5.831-12.641-9.157-20.547-9.365-7.907-.209-15.368 2.729-21.012 8.27-9.584 9.411-11.44 24.021-4.513 35.529l49.443 82.135c.298.494.504 1.031.615 1.6l4.384 22.501c8.603 44.158 47.5 76.208 92.488 76.208 51.957 0 94.228-42.271 94.228-94.228v-122.625c.001-14.921-12.14-27.062-27.062-27.062z"/><path d="m210.482 109.404c0-4.142-3.357-7.5-7.5-7.5h-43.901l3.267-3.267c2.929-2.929 2.929-7.678 0-10.606-2.93-2.929-7.678-2.929-10.607 0l-16.07 16.07c-2.929 2.929-2.929 7.678 0 10.606l16.07 16.071c1.465 1.465 3.384 2.197 5.304 2.197 1.919 0 3.839-.732 5.304-2.197 2.929-2.929 2.929-7.677 0-10.606l-3.268-3.268h43.901c4.143 0 7.5-3.358 7.5-7.5z"/><path d="m311.395 130.778c1.465 1.465 3.384 2.197 5.304 2.197 1.919 0 3.839-.732 5.304-2.197l16.07-16.071c2.929-2.929 2.929-7.678 0-10.606l-16.07-16.07c-2.93-2.929-7.678-2.929-10.607 0s-2.929 7.678 0 10.606l3.267 3.267h-43.903c-4.143 0-7.5 3.358-7.5 7.5s3.357 7.5 7.5 7.5h43.902l-3.268 3.268c-2.928 2.929-2.928 7.677.001 10.606z"/></g></svg>