<svg id="Capa_1" enable-background="new 0 0 512.695 512.695" height="512" viewBox="0 0 512.695 512.695" width="512" xmlns="http://www.w3.org/2000/svg"><g><path d="m452.131 319.408c4.143 0 7.5-3.358 7.5-7.5v-224.214c0-3.969-1.546-7.701-4.353-10.506l-72.836-72.836c-2.806-2.807-6.538-4.352-10.506-4.352h-304.014c-8.192 0-14.857 6.666-14.857 14.858v482.979c0 8.193 6.665 14.858 14.857 14.858h376.851c8.193 0 14.858-6.666 14.858-14.858v-153.966c0-4.142-3.357-7.5-7.5-7.5s-7.5 3.358-7.5 7.5v153.824h-376.567v-482.695h299.606v62.476c0 8.193 6.665 14.858 14.858 14.858h62.102v219.574c.001 4.142 3.358 7.5 7.501 7.5zm-69.46-293.614 51.54 51.54h-51.54z"/><path d="m160.062 219.63c-3.847-1.533-8.21.341-9.744 4.19-1.534 3.848.342 8.21 4.189 9.744 12.304 4.904 25.307 7.391 38.646 7.391 57.581 0 104.427-46.846 104.427-104.427 0-57.582-46.846-104.427-104.427-104.427s-104.426 46.846-104.426 104.427c0 30.379 13.2 59.2 36.217 79.071 3.134 2.708 7.871 2.36 10.578-.775s2.359-7.871-.775-10.578c-19.713-17.021-31.02-41.703-31.02-67.718 0-2.547.113-5.068.323-7.562l85.49 14.554 61.29 61.291c-15.582 13.182-35.715 21.144-57.676 21.144-11.43 0-22.564-2.128-33.092-6.325zm25.591-172.212v80.225l-79.099-13.466c9.346-36.19 40.84-63.566 79.099-66.759zm15 0c45.814 3.823 81.927 42.325 81.927 89.11 0 21.961-7.962 42.094-21.144 57.676l-60.783-60.783z"/><path d="m99.107 466.756h313.137c4.143 0 7.5-3.358 7.5-7.5s-3.357-7.5-7.5-7.5h-35.94v-76.618c0-7.327-5.962-13.288-13.289-13.288h-39.028c-7.327 0-13.288 5.961-13.288 13.288v76.618h-22.22v-183.436c0-7.327-5.961-13.288-13.288-13.288h-39.029c-7.327 0-13.288 5.961-13.288 13.288v108.249c0 4.142 3.357 7.5 7.5 7.5s7.5-3.358 7.5-7.5v-106.537h35.605v181.725h-35.605v-43.225c0-4.142-3.357-7.5-7.5-7.5s-7.5 3.358-7.5 7.5v43.225h-22.22v-129.525c0-7.327-5.961-13.288-13.288-13.288h-39.028c-7.327 0-13.289 5.961-13.289 13.288v129.524h-35.94c-4.143 0-7.5 3.358-7.5 7.5s3.356 7.5 7.498 7.5zm226.591-89.906h35.605v74.906h-35.605zm-175.65-52.906h35.605v127.812h-35.605z"/><path d="m419.694 168.463h-88.504c-4.143 0-7.5 3.358-7.5 7.5s3.357 7.5 7.5 7.5h88.504c4.143 0 7.5-3.358 7.5-7.5s-3.357-7.5-7.5-7.5z"/><path d="m419.694 203.773h-88.504c-4.143 0-7.5 3.358-7.5 7.5s3.357 7.5 7.5 7.5h88.504c4.143 0 7.5-3.358 7.5-7.5s-3.357-7.5-7.5-7.5z"/><path d="m419.694 239.083h-88.504c-4.143 0-7.5 3.358-7.5 7.5s3.357 7.5 7.5 7.5h88.504c4.143 0 7.5-3.358 7.5-7.5s-3.357-7.5-7.5-7.5z"/><path d="m427.194 281.892c0-4.142-3.357-7.5-7.5-7.5h-88.504c-4.143 0-7.5 3.358-7.5 7.5s3.357 7.5 7.5 7.5h88.504c4.143 0 7.5-3.358 7.5-7.5z"/></g></svg>