<svg id="Capa_1" enable-background="new 0 0 512.254 512.254" height="512" viewBox="0 0 512.254 512.254" width="512" xmlns="http://www.w3.org/2000/svg"><g><path d="m126.633 92.682h121.077c10.564 0 19.159-8.595 19.159-19.159v-37.15c0-10.564-8.595-19.159-19.159-19.159h-19.192l-.394-1.334c-2.702-9.138-11.245-15.52-20.774-15.52h-40.357c-9.529 0-18.071 6.382-20.773 15.52l-.395 1.334h-19.192c-10.564 0-19.159 8.595-19.159 19.159v37.15c0 10.565 8.595 19.159 19.159 19.159zm-4.159-56.309c0-2.293 1.866-4.159 4.159-4.159h24.795c3.323 0 6.25-2.187 7.192-5.373l1.984-6.707c.831-2.811 3.458-4.773 6.389-4.773h40.357c2.931 0 5.559 1.963 6.389 4.772l1.983 6.707c.942 3.188 3.869 5.374 7.192 5.374h24.795c2.293 0 4.159 1.866 4.159 4.159v37.15c0 2.293-1.866 4.159-4.159 4.159h-121.076c-2.293 0-4.159-1.866-4.159-4.159z"/><path d="m159.67 64.299h55.002c4.142 0 7.5-3.357 7.5-7.5s-3.358-7.5-7.5-7.5h-55.002c-4.142 0-7.5 3.357-7.5 7.5s3.358 7.5 7.5 7.5z"/><path d="m7.5 124.738c4.142 0 7.5-3.357 7.5-7.5v-44.538c0-4.632 3.769-8.4 8.401-8.4h61.573c4.142 0 7.5-3.357 7.5-7.5s-3.358-7.5-7.5-7.5h-61.573c-12.903-.001-23.401 10.497-23.401 23.4v44.538c0 4.143 3.358 7.5 7.5 7.5z"/><path d="m295.684 166.437c23.751 0 46.554 8.793 64.209 24.758 3.072 2.778 7.815 2.541 10.593-.532 2.778-3.072 2.54-7.814-.532-10.593-20.417-18.464-46.793-28.633-74.27-28.633-61.114 0-110.833 49.72-110.833 110.833 0 61.114 49.72 110.834 110.833 110.834s110.833-49.72 110.833-110.834c0-19.528-5.178-38.748-14.974-55.583-2.083-3.58-6.675-4.792-10.254-2.71-3.58 2.083-4.793 6.675-2.71 10.255 8.465 14.546 12.939 31.157 12.939 48.038 0 52.843-42.991 95.834-95.833 95.834s-95.833-42.991-95.833-95.834 42.989-95.833 95.832-95.833z"/><path d="m507.655 468.535-101.468-119.054c18.983-24.001 30.33-54.305 30.33-87.211 0-48.546-24.691-91.434-62.174-116.766v-72.804c0-12.903-10.498-23.4-23.4-23.4h-61.574c-4.142 0-7.5 3.357-7.5 7.5s3.358 7.5 7.5 7.5h61.574c4.632 0 8.4 3.769 8.4 8.4v63.968c-19.13-9.735-40.764-15.231-63.659-15.231-77.656 0-140.833 63.178-140.833 140.833 0 31.789 10.338 61.792 29.897 86.766 2.555 3.263 7.269 3.835 10.529 1.28 3.261-2.554 3.834-7.268 1.28-10.528-17.472-22.31-26.707-49.114-26.707-77.518 0-69.385 56.449-125.833 125.833-125.833s125.833 56.448 125.833 125.833-56.449 125.834-125.833 125.834c-28.505 0-55.386-9.294-77.737-26.878-3.255-2.56-7.971-1.998-10.532 1.257-2.561 3.256-1.998 7.971 1.257 10.532 25.021 19.685 55.109 30.089 87.012 30.089 22.895 0 44.529-5.496 63.659-15.231v100.62c0 4.633-3.769 8.401-8.4 8.401h-327.541c-4.632 0-8.401-3.769-8.401-8.401v-339.292c0-4.143-3.358-7.5-7.5-7.5s-7.5 3.357-7.5 7.5v339.292c0 12.903 10.498 23.401 23.401 23.401h327.542c12.903 0 23.4-10.498 23.4-23.401v-91.485l91.404 107.246c3.801 4.46 9.215 6.752 14.661 6.752 4.416 0 8.853-1.507 12.469-4.589l12.614-10.752c3.912-3.334 6.292-7.992 6.701-13.116.409-5.126-1.203-10.102-4.537-14.014zm-11.894 15.714-12.614 10.752c-1.782 1.519-4.466 1.304-5.984-.478l-100.059-117.401c6.83-4.856 13.204-10.312 19.058-16.278l100.076 117.421c.735.862 1.091 1.96 1 3.091-.089 1.13-.613 2.157-1.477 2.893z"/><path d="m179.925 158.937c0-4.143-3.358-7.5-7.5-7.5h-118.005c-9.96 0-18.063 8.103-18.063 18.062v42.293c0 9.96 8.103 18.062 18.063 18.062h75.01c4.142 0 7.5-3.357 7.5-7.5s-3.358-7.5-7.5-7.5h-75.01c-1.689 0-3.063-1.374-3.063-3.062v-42.292c0-1.688 1.374-3.062 3.063-3.062h118.005c4.142-.001 7.5-3.358 7.5-7.501z"/><path d="m43.857 282.955h88.493c4.142 0 7.5-3.357 7.5-7.5s-3.358-7.5-7.5-7.5h-88.493c-4.142 0-7.5 3.357-7.5 7.5s3.358 7.5 7.5 7.5z"/><path d="m140.761 306.543h-96.904c-4.142 0-7.5 3.357-7.5 7.5s3.358 7.5 7.5 7.5h96.903c4.142 0 7.5-3.357 7.5-7.5s-3.357-7.5-7.499-7.5z"/><path d="m159.686 345.132h-115.829c-4.142 0-7.5 3.357-7.5 7.5s3.358 7.5 7.5 7.5h115.828c4.142 0 7.5-3.357 7.5-7.5s-3.357-7.5-7.499-7.5z"/><path d="m43.857 383.719c-4.142 0-7.5 3.357-7.5 7.5s3.358 7.5 7.5 7.5h151.689c4.142 0 7.5-3.357 7.5-7.5s-3.358-7.5-7.5-7.5z"/><path d="m36.357 429.808c0 4.143 3.358 7.5 7.5 7.5h244.96c4.142 0 7.5-3.357 7.5-7.5s-3.358-7.5-7.5-7.5h-244.96c-4.142 0-7.5 3.358-7.5 7.5z"/></g></svg>