<svg id="Capa_1" enable-background="new 0 0 513.971 513.971" height="512" viewBox="0 0 513.971 513.971" width="512" xmlns="http://www.w3.org/2000/svg"><g><path d="m490.358 0h-162.992c-12.252 0-22.22 9.968-22.22 22.22v15.852c-15.769-3.455-31.925-5.209-48.161-5.209-59.866 0-116.148 23.312-158.479 65.645-42.332 42.331-65.645 98.613-65.645 158.479 0 47.799 15.338 94.309 43.457 132.607h-52.705c-12.252 0-22.22 9.968-22.22 22.22v79.938c0 12.252 9.968 22.22 22.22 22.22h13.236c4.142 0 7.5-3.357 7.5-7.5s-3.358-7.5-7.5-7.5h-13.236c-3.981 0-7.22-3.238-7.22-7.22v-79.938c0-3.981 3.239-7.22 7.22-7.22h78.734c1.989 0 3.897-.79 5.303-2.196l8.274-8.274 8.273 8.273c1.406 1.407 3.314 2.197 5.303 2.197h57.104c3.981 0 7.22 3.238 7.22 7.22v79.938c0 3.981-3.239 7.22-7.22 7.22h-117.793c-4.142 0-7.5 3.357-7.5 7.5s3.358 7.5 7.5 7.5h117.793c12.252 0 22.22-9.968 22.22-22.22v-15.852c15.769 3.455 31.925 5.209 48.161 5.209 59.866 0 116.148-23.312 158.479-65.645 42.332-42.331 65.645-98.613 65.645-158.479 0-47.799-15.338-94.309-43.457-132.607h52.706c12.252 0 22.22-9.968 22.22-22.22v-79.938c0-12.252-9.968-22.22-22.22-22.22zm-162.992 124.378h14.475c2.051 7.606 3.914 15.433 5.589 23.451-5.873-.951-11.828-1.814-17.863-2.576-4.112-.532-7.862 2.391-8.381 6.501-.519 4.109 2.392 7.861 6.501 8.38 7.724.976 15.309 2.117 22.739 3.405 4.71 27.192 7.333 56.212 7.71 85.947h-93.651v-93.646c10.627.135 21.25.543 31.675 1.247 4.136.255 7.709-2.846 7.988-6.979s-2.845-7.709-6.978-7.988c-10.759-.725-21.721-1.144-32.685-1.28v-92.835c13.728.488 27.353 2.319 40.661 5.456v48.697c0 12.252 9.968 22.22 22.22 22.22zm138.596 125.107h-92.826c-.354-28.569-2.725-56.535-6.995-82.951 36.294 7.584 68.031 18.903 91.88 32.932 4.638 16.202 7.328 32.995 7.941 50.019zm-7.885 64.972c-24.142 14.221-55.888 25.459-91.994 32.978 4.264-26.31 6.702-54.3 7.064-82.949h92.813c-.612 17.265-3.314 34.007-7.883 49.971zm-193.592 151.502v-92.813c28.651-.362 56.641-2.802 82.951-7.067-7.519 36.107-18.756 67.853-32.978 91.996-15.965 4.57-32.707 7.272-49.973 7.884zm-216.476-201.474h92.826c.354 28.563 2.725 56.524 6.993 82.937-36.056-7.514-67.76-18.736-91.883-32.935-4.635-16.197-7.324-32.984-7.936-50.002zm7.885-64.971c24.143-14.222 55.888-25.459 91.994-32.978-4.265 26.309-6.702 54.3-7.064 82.95h-92.813c.612-17.266 3.314-34.008 7.883-49.972zm99.94 64.971h15.594c4.142 0 7.5-3.357 7.5-7.5s-3.358-7.5-7.5-7.5h-15.604c.384-29.852 3.057-58.907 7.731-85.929 27.023-4.674 56.078-7.347 85.93-7.731v93.66h-46.095c-4.142 0-7.5 3.357-7.5 7.5s3.358 7.5 7.5 7.5h46.095v93.66c-29.858-.384-58.918-3.058-85.944-7.733-4.708-27.185-7.33-56.199-7.707-85.927zm93.651-216.474v92.813c-28.65.362-56.641 2.8-82.95 7.064 7.519-36.106 18.756-67.852 32.978-91.994 15.964-4.568 32.707-7.271 49.972-7.883zm15 310.135v-93.66h93.661c-.384 29.852-3.057 58.907-7.731 85.929-27.022 4.674-56.077 7.347-85.93 7.731zm-85.835-295.046c-11.976 24.509-21.451 54.469-27.932 87.616-33.151 6.481-63.109 15.959-87.619 27.935 21.249-52.404 63.147-94.302 115.551-115.551zm-54.854 317.681c-4.341-4.34-11.404-4.34-15.745 0l-8.811 8.812h-3.934c-13.501-16.447-24.316-34.771-32.192-54.266 24.491 11.965 54.422 21.435 87.539 27.915 1.76 9.01 3.744 17.81 5.957 26.352h-24.004zm62.808 8.812h-14.474c-2.056-7.626-3.924-15.473-5.602-23.513 26.311 4.266 54.305 6.704 82.958 7.066v92.819c-13.728-.488-27.353-2.319-40.661-5.456v-48.697c0-12.251-9.968-22.219-22.221-22.219zm148.72 61.277c11.975-24.51 21.453-54.464 27.933-87.614 33.154-6.482 63.107-15.965 87.618-27.943-21.248 52.406-63.146 94.306-115.551 115.557zm115.528-272.237c-24.35-11.893-54.289-21.454-87.547-27.971-1.757-8.987-3.737-17.764-5.945-26.285h24.004l8.811 8.812c2.17 2.17 5.021 3.255 7.873 3.255s5.702-1.085 7.873-3.255l8.811-8.812h3.934c13.497 16.445 24.31 34.765 32.186 54.256zm46.726-76.475c0 3.981-3.239 7.22-7.22 7.22h-78.734c-1.989 0-3.897.79-5.303 2.196l-8.274 8.274-8.273-8.273c-1.406-1.407-3.314-2.197-5.303-2.197h-36.725c-.007 0-.015 0-.022 0h-20.357c-3.981 0-7.22-3.238-7.22-7.22v-79.938c0-3.981 3.239-7.22 7.22-7.22h162.992c3.981 0 7.22 3.238 7.22 7.22v79.938z"/><path d="m408.862 41.035c-11.717 0-21.249 9.532-21.249 21.249s9.532 21.249 21.249 21.249 21.249-9.532 21.249-21.249-9.532-21.249-21.249-21.249zm0 27.498c-3.446 0-6.249-2.804-6.249-6.249s2.803-6.249 6.249-6.249 6.249 2.804 6.249 6.249c0 3.446-2.803 6.249-6.249 6.249z"/><path d="m353.578 41.035c-11.717 0-21.249 9.532-21.249 21.249s9.532 21.249 21.249 21.249 21.249-9.532 21.249-21.249-9.533-21.249-21.249-21.249zm0 27.498c-3.446 0-6.249-2.804-6.249-6.249s2.803-6.249 6.249-6.249 6.249 2.804 6.249 6.249c0 3.446-2.804 6.249-6.249 6.249z"/><path d="m464.146 41.035c-11.717 0-21.249 9.532-21.249 21.249s9.532 21.249 21.249 21.249 21.249-9.532 21.249-21.249-9.532-21.249-21.249-21.249zm0 27.498c-3.446 0-6.249-2.804-6.249-6.249s2.803-6.249 6.249-6.249 6.249 2.804 6.249 6.249c0 3.446-2.803 6.249-6.249 6.249z"/><path d="m126.358 451.777c0-11.717-9.532-21.249-21.249-21.249s-21.249 9.532-21.249 21.249 9.532 21.249 21.249 21.249 21.249-9.532 21.249-21.249zm-27.498 0c0-3.445 2.803-6.249 6.249-6.249s6.249 2.804 6.249 6.249-2.803 6.249-6.249 6.249-6.249-2.804-6.249-6.249z"/><path d="m181.642 451.777c0-11.717-9.532-21.249-21.249-21.249s-21.249 9.532-21.249 21.249 9.532 21.249 21.249 21.249 21.249-9.532 21.249-21.249zm-27.498 0c0-3.445 2.803-6.249 6.249-6.249s6.249 2.804 6.249 6.249-2.803 6.249-6.249 6.249-6.249-2.804-6.249-6.249z"/><path d="m71.074 451.777c0-11.717-9.532-21.249-21.249-21.249s-21.249 9.532-21.249 21.249 9.532 21.249 21.249 21.249 21.249-9.532 21.249-21.249zm-21.249 6.249c-3.446 0-6.249-2.804-6.249-6.249s2.803-6.249 6.249-6.249 6.249 2.804 6.249 6.249-2.803 6.249-6.249 6.249z"/></g></svg>