<svg id="Capa_1" enable-background="new 0 0 511.447 511.447" height="512" viewBox="0 0 511.447 511.447" width="512" xmlns="http://www.w3.org/2000/svg"><g><path d="m311.451 157.314c-3.457 2.281-4.41 6.934-2.129 10.391 6.922 10.489 10.581 22.692 10.581 35.291 0 35.389-28.791 64.18-64.18 64.18s-64.18-28.791-64.18-64.18c0-35.39 28.791-64.181 64.18-64.181 11.611 0 22.993 3.141 32.914 9.082 3.554 2.128 8.159.973 10.288-2.581 2.128-3.554.973-8.16-2.581-10.288-12.249-7.336-26.296-11.213-40.621-11.213-43.66 0-79.18 35.521-79.18 79.181s35.52 79.18 79.18 79.18 79.18-35.52 79.18-79.18c0-15.544-4.517-30.604-13.062-43.553-2.281-3.458-6.935-4.412-10.39-2.129z"/><path d="m212.135 225.312c0 4.143 3.358 7.5 7.5 7.5h74.324c4.143 0 7.5-3.357 7.5-7.5s-3.357-7.5-7.5-7.5h-74.324c-4.142 0-7.5 3.358-7.5 7.5z"/><path d="m237.248 186.862v-9.583c0-4.143-3.358-7.5-7.5-7.5s-7.5 3.357-7.5 7.5v9.583c0 4.143 3.358 7.5 7.5 7.5s7.5-3.357 7.5-7.5z"/><path d="m289.2 186.862v-9.583c0-4.143-3.357-7.5-7.5-7.5s-7.5 3.357-7.5 7.5v9.583c0 4.143 3.357 7.5 7.5 7.5s7.5-3.357 7.5-7.5z"/><path d="m79.18 123.815c-43.66 0-79.18 35.521-79.18 79.181 0 16.867 5.248 32.98 15.175 46.597 2.439 3.346 7.13 4.08 10.479 1.642 3.347-2.44 4.082-7.132 1.642-10.479-8.044-11.033-12.296-24.09-12.296-37.76 0-35.39 28.791-64.181 64.18-64.181s64.18 28.791 64.18 64.181c0 35.389-28.791 64.18-64.18 64.18-10.542 0-21.001-2.617-30.247-7.568-3.65-1.954-8.196-.581-10.152 3.07-1.955 3.651-.581 8.197 3.071 10.152 11.417 6.114 24.324 9.346 37.328 9.346 43.66 0 79.18-35.52 79.18-79.18s-35.52-79.181-79.18-79.181z"/><path d="m47.786 231.161c22.15-17.773 42.785-17.773 64.936 0 1.385 1.111 3.042 1.65 4.689 1.65 2.196 0 4.373-.96 5.854-2.807 2.592-3.23 2.075-7.951-1.156-10.543-27.382-21.971-56.329-21.971-83.711 0-3.23 2.592-3.748 7.312-1.156 10.543 2.592 3.232 7.312 3.749 10.544 1.157z"/><path d="m60.704 186.862v-9.583c0-4.143-3.358-7.5-7.5-7.5s-7.5 3.357-7.5 7.5v9.583c0 4.143 3.358 7.5 7.5 7.5s7.5-3.357 7.5-7.5z"/><path d="m112.656 186.862v-9.583c0-4.143-3.358-7.5-7.5-7.5s-7.5 3.357-7.5 7.5v9.583c0 4.143 3.358 7.5 7.5 7.5s7.5-3.357 7.5-7.5z"/><path d="m432.268 123.815c-43.66 0-79.181 35.521-79.181 79.181s35.521 79.18 79.181 79.18 79.18-35.52 79.18-79.18-35.52-79.181-79.18-79.181zm0 143.361c-35.39 0-64.181-28.791-64.181-64.18 0-35.39 28.791-64.181 64.181-64.181 35.389 0 64.18 28.791 64.18 64.181-.001 35.389-28.792 64.18-64.18 64.18z"/><path d="m463.661 219.463c-22.151 17.776-42.785 17.774-64.935 0-3.232-2.595-7.952-2.074-10.544 1.155-2.593 3.231-2.075 7.951 1.155 10.544 13.691 10.986 27.773 16.479 41.856 16.479 14.082 0 28.164-5.493 41.855-16.479 3.23-2.593 3.748-7.312 1.155-10.544-2.59-3.229-7.309-3.747-10.542-1.155z"/><path d="m458.243 194.362c4.143 0 7.5-3.357 7.5-7.5v-9.583c0-4.143-3.357-7.5-7.5-7.5s-7.5 3.357-7.5 7.5v9.583c0 4.143 3.358 7.5 7.5 7.5z"/><path d="m406.291 194.362c4.143 0 7.5-3.357 7.5-7.5v-9.583c0-4.143-3.357-7.5-7.5-7.5s-7.5 3.357-7.5 7.5v9.583c0 4.143 3.357 7.5 7.5 7.5z"/><path d="m279.242 306.021h-44.89c-10.125 0-18.361 8.237-18.361 18.361v44.889c0 10.124 8.237 18.361 18.361 18.361h44.89c10.124 0 18.361-8.237 18.361-18.361v-44.889c.001-10.124-8.237-18.361-18.361-18.361zm3.362 63.25c0 1.854-1.508 3.361-3.361 3.361h-44.89c-1.854 0-3.361-1.508-3.361-3.361v-44.889c0-1.854 1.508-3.361 3.361-3.361h44.89c1.854 0 3.361 1.508 3.361 3.361z"/><path d="m104.614 306.021h-44.889c-10.125 0-18.362 8.237-18.362 18.361v44.889c0 10.124 8.237 18.361 18.362 18.361h44.889c10.125 0 18.361-8.237 18.361-18.361v-44.889c0-10.124-8.237-18.361-18.361-18.361zm3.361 63.25c0 1.854-1.508 3.361-3.361 3.361h-44.889c-1.854 0-3.362-1.508-3.362-3.361v-44.889c0-1.854 1.508-3.361 3.362-3.361h44.889c1.854 0 3.361 1.508 3.361 3.361z"/><path d="m453.87 306.021h-44.89c-10.124 0-18.361 8.237-18.361 18.361v44.889c0 10.124 8.237 18.361 18.361 18.361h44.89c10.124 0 18.361-8.237 18.361-18.361v-44.889c0-10.124-8.237-18.361-18.361-18.361zm3.361 63.25c0 1.854-1.508 3.361-3.361 3.361h-44.89c-1.854 0-3.361-1.508-3.361-3.361v-44.889c0-1.854 1.508-3.361 3.361-3.361h44.89c1.854 0 3.361 1.508 3.361 3.361z"/></g></svg>