<svg id="Capa_1" enable-background="new 0 0 511.94 511.94" height="512" viewBox="0 0 511.94 511.94" width="512" xmlns="http://www.w3.org/2000/svg"><g><path d="m335.408 0h-158.875c-35.385 0-64.172 28.787-64.172 64.172v383.598c0 35.384 28.787 64.171 64.172 64.171h158.875c35.385 0 64.172-28.787 64.172-64.171v-383.598c0-35.385-28.788-64.172-64.172-64.172zm-16.703 15-5.812 13.602c-2.487 5.82-8.184 9.581-14.512 9.581h-84.822c-6.328 0-12.024-3.761-14.512-9.581l-5.811-13.602zm65.875 432.77c0 27.113-22.059 49.171-49.172 49.171h-158.875c-27.113 0-49.172-22.058-49.172-49.171v-383.598c0-27.113 22.059-49.172 49.172-49.172h.392l8.33 19.496c4.851 11.352 15.961 18.687 28.305 18.687h84.822c12.344 0 23.454-7.335 28.305-18.687l8.329-19.496h.392c27.113 0 49.172 22.059 49.172 49.172z"/><path d="m180.869 155.481h149.203c9.885 0 17.927-8.042 17.927-17.927v-30.336c0-9.885-8.042-17.926-17.927-17.926h-27.752c-4.143 0-7.5 3.357-7.5 7.5s3.357 7.5 7.5 7.5h27.752c1.614 0 2.927 1.312 2.927 2.926v30.336c0 1.614-1.312 2.927-2.927 2.927h-149.203c-1.614 0-2.927-1.312-2.927-2.927v-30.336c0-1.613 1.312-2.926 2.927-2.926h89.488c4.143 0 7.5-3.357 7.5-7.5s-3.357-7.5-7.5-7.5h-89.488c-9.885 0-17.927 8.041-17.927 17.926v30.336c0 9.885 8.042 17.927 17.927 17.927z"/><path d="m255.97 186.557c-37.949 0-73.466 20.362-92.688 53.14-2.095 3.573-.897 8.168 2.676 10.264s8.168.897 10.264-2.676c2.582-4.403 5.506-8.545 8.726-12.401l21.35 21.35c-8.244 10.798-12.711 23.9-12.711 37.709v19.119h-30v-19.119c0-6.391.659-12.786 1.96-19.007.847-4.055-1.753-8.028-5.808-8.876-4.051-.84-8.028 1.753-8.876 5.808-1.511 7.228-2.276 14.655-2.276 22.075v21.748c0 6.821 5.549 12.371 12.37 12.371h35.26c6.821 0 12.37-5.55 12.37-12.371v-21.748c0-12.771 5.027-24.754 14.156-33.745 5.399-5.318 11.825-9.17 18.82-11.4l-5.422 20.217c-9.221 6.546-14.517 17.285-13.985 28.752.776 16.742 14.48 30.671 31.199 31.709.72.045 1.436.067 2.15.067 8.52-.001 16.549-3.17 22.802-9.046 6.683-6.28 10.516-15.141 10.516-24.308 0-10.816-5.3-20.952-14.021-27.17l-5.495-20.489c19.618 5.913 34.049 24.5 34.049 46.246v20.915c0 6.821 5.549 12.371 12.37 12.371h35.26c6.821 0 12.37-5.55 12.37-12.371v-21.748c-.001-59.214-48.174-107.386-107.386-107.386zm60.508 37.628-21.444 21.443c-8.551-7.009-18.94-11.783-30.291-13.424-1.683-3.544-5.205-5.82-9.273-5.82-4.118 0-7.681 2.33-9.338 5.949-10.773 1.696-20.853 6.183-29.392 13.13l-21.276-21.276c16.595-14.345 38.056-22.629 60.506-22.629 23.122-.001 44.287 8.538 60.508 22.627zm-48.444 85.379c-3.729 3.504-8.607 5.254-13.75 4.938-9.188-.571-16.718-8.229-17.145-17.434-.321-6.923 3.214-13.364 9.226-16.811 1.731-.993 2.996-2.636 3.514-4.564l5.592-20.851 5.592 20.851c.518 1.929 1.782 3.571 3.514 4.564 5.703 3.27 9.246 9.373 9.246 15.929-.001 5.12-2.057 9.871-5.789 13.378zm80.321 3.497h-30v-18.286c0-14.362-4.833-27.667-12.918-38.336l21.536-21.535c13.344 16.021 21.382 36.608 21.382 59.039z"/><path d="m346.028 350.358h-18.696c-4.143 0-7.5 3.357-7.5 7.5s3.357 7.5 7.5 7.5h18.429v24.868h-180.581v-24.868h130.188c4.143 0 7.5-3.357 7.5-7.5s-3.357-7.5-7.5-7.5h-130.455c-8.123 0-14.732 6.609-14.732 14.732v25.403c0 8.123 6.609 14.732 14.732 14.732h181.115c8.123 0 14.732-6.609 14.732-14.732v-25.403c0-8.122-6.609-14.732-14.732-14.732z"/><path d="m173.42 430.239h-15.74c-4.143 0-7.5 3.357-7.5 7.5s3.357 7.5 7.5 7.5h15.74c4.143 0 7.5-3.357 7.5-7.5s-3.357-7.5-7.5-7.5z"/><path d="m353.26 430.239h-15.74c-4.143 0-7.5 3.357-7.5 7.5s3.357 7.5 7.5 7.5h15.74c4.143 0 7.5-3.357 7.5-7.5s-3.357-7.5-7.5-7.5z"/><path d="m306.019 430.239h-100.369c-4.143 0-7.5 3.357-7.5 7.5s3.357 7.5 7.5 7.5h100.369c4.143 0 7.5-3.357 7.5-7.5s-3.357-7.5-7.5-7.5z"/></g></svg>