<svg id="Capa_1" enable-background="new 0 0 511.941 511.941" height="512" viewBox="0 0 511.941 511.941" width="512" xmlns="http://www.w3.org/2000/svg"><g><path d="m69.283 130.809c4.143 0 7.5-3.357 7.5-7.5v-59.137c0-27.113 22.058-49.172 49.172-49.172h.391l8.331 19.496c4.851 11.351 15.96 18.686 28.304 18.686h8.13c4.143 0 7.5-3.357 7.5-7.5s-3.357-7.5-7.5-7.5h-8.13c-6.328 0-12.023-3.761-14.511-9.58l-5.813-13.602h125.468l-5.812 13.603c-2.485 5.819-8.181 9.579-14.51 9.579h-44.731c-4.143 0-7.5 3.357-7.5 7.5s3.357 7.5 7.5 7.5h44.731c12.345 0 23.455-7.335 28.304-18.686l8.33-19.496h.393c27.113 0 49.172 22.059 49.172 49.172v109.262c0 4.143 3.357 7.5 7.5 7.5s7.5-3.357 7.5-7.5v-109.262c-.001-35.385-28.788-64.172-64.172-64.172h-158.875c-35.385 0-64.172 28.787-64.172 64.172v59.137c0 4.142 3.357 7.5 7.5 7.5z"/><path d="m341.501 437.334c-4.143 0-7.5 3.357-7.5 7.5v2.936c0 27.113-22.059 49.172-49.172 49.172h-158.874c-27.113 0-49.172-22.059-49.172-49.172v-292.499c0-4.143-3.357-7.5-7.5-7.5s-7.5 3.357-7.5 7.5v292.499c0 35.385 28.787 64.172 64.172 64.172h158.875c35.385 0 64.172-28.787 64.172-64.172v-2.936c-.001-4.143-3.358-7.5-7.501-7.5z"/><path d="m360.725 210.934h-115.849c-14.326 0-25.98 11.654-25.98 25.98 0 4.662 1.24 9.038 3.4 12.825-9.59 3.825-16.388 13.199-16.388 24.137 0 5.054 1.456 9.772 3.962 13.766-8.472 4.285-14.298 13.069-14.298 23.195 0 3.923.879 7.644 2.443 10.981h-63.22c-14.325 0-25.98 11.655-25.98 25.98s11.655 25.98 25.98 25.98h62.632c4.143 0 7.5-3.357 7.5-7.5s-3.357-7.5-7.5-7.5h-62.632c-6.055 0-10.98-4.926-10.98-10.98s4.926-10.98 10.98-10.98h109.828c.007 0 .013-.001.019-.001h5.077c4.143 0 7.5-3.357 7.5-7.5s-3.357-7.5-7.5-7.5h-28.167c-6.055 0-10.98-4.926-10.98-10.98s4.926-10.98 10.98-10.98h38.503c4.143 0 7.5-3.357 7.5-7.5s-3.357-7.5-7.5-7.5h-28.167c-6.055 0-10.98-4.926-10.98-10.98s4.926-10.98 10.98-10.98h41.155c4.143 0 7.5-3.357 7.5-7.5s-3.357-7.5-7.5-7.5h-28.167c-6.055 0-10.98-4.927-10.98-10.981s4.926-10.98 10.98-10.98h115.849c41.043 0 74.434 33.391 74.434 74.434 0 35.538-25.317 66.265-60.2 73.061l-21.259 4.142c-2.215.432-4.316 1.24-6.246 2.402l-77.593 46.709c-5.064 3.049-11.494 2.232-15.636-1.986-2.438-2.483-3.731-5.767-3.64-9.246s1.556-6.691 4.122-9.043l33.988-31.148c2.906-2.663 3.86-6.757 2.432-10.431-1.43-3.673-4.899-6.047-8.841-6.047h-52.897c-4.143 0-7.5 3.357-7.5 7.5s3.357 7.5 7.5 7.5h38.718l-23.534 21.567c-5.593 5.125-8.782 12.124-8.982 19.707-.199 7.583 2.617 14.739 7.932 20.149 5.377 5.479 12.524 8.324 19.76 8.323 4.906 0 9.854-1.31 14.315-3.994l77.594-46.71c.426-.256.891-.435 1.379-.53l21.258-4.142c41.911-8.165 72.331-45.083 72.331-87.783-.001-49.316-40.121-89.436-89.435-89.436z"/><path d="m131.297 96.701c-4.143 0-7.5 3.357-7.5 7.5v166.006l-3.269-3.268c-2.928-2.928-7.677-2.929-10.606.001-2.929 2.929-2.929 7.678.001 10.606l16.071 16.07c1.464 1.464 3.384 2.196 5.303 2.196s3.839-.732 5.304-2.196l16.07-16.07c2.929-2.93 2.929-7.678 0-10.607-2.93-2.928-7.678-2.928-10.607 0l-3.267 3.267v-166.005c0-4.142-3.357-7.5-7.5-7.5z"/></g></svg>