<svg id="Capa_1" enable-background="new 0 0 512.02 512.02" height="512" viewBox="0 0 512.02 512.02" width="512" xmlns="http://www.w3.org/2000/svg"><g><path d="m124.306 262.187c68.542 0 124.306-55.764 124.306-124.307 0-29.059-10.244-57.334-28.846-79.615-2.654-3.179-7.383-3.604-10.564-.951-3.18 2.655-3.605 7.385-.951 10.564 16.354 19.589 25.36 44.45 25.36 70.002 0 60.271-49.034 109.307-109.306 109.307s-109.305-49.035-109.305-109.307 49.035-109.306 109.306-109.306c22.11 0 43.411 6.571 61.598 19.003 3.42 2.337 8.087 1.461 10.424-1.959s1.46-8.087-1.959-10.424c-20.691-14.145-44.918-21.62-70.062-21.62-68.543 0-124.307 55.764-124.307 124.306 0 68.543 55.764 124.307 124.306 124.307z"/><path d="m124.306 47.786c-49.678 0-90.094 40.416-90.094 90.094 0 49.679 40.416 90.095 90.094 90.095s90.094-40.416 90.094-90.095c0-49.678-40.416-90.094-90.094-90.094zm0 165.189c-41.407 0-75.094-33.688-75.094-75.095s33.687-75.094 75.094-75.094 75.094 33.687 75.094 75.094-33.687 75.095-75.094 75.095z"/><path d="m238.603 53.363h173.899c46.604 0 84.518 37.914 84.518 84.518s-37.915 84.519-84.518 84.519h-173.899c-4.142 0-7.5 3.357-7.5 7.5s3.358 7.5 7.5 7.5h173.899c54.875 0 99.518-44.644 99.518-99.519 0-54.874-44.644-99.518-99.518-99.518h-173.899c-4.142 0-7.5 3.357-7.5 7.5s3.358 7.5 7.5 7.5z"/><path d="m249.849 199.899c0 4.143 3.358 7.5 7.5 7.5h155.153c38.333 0 69.519-31.186 69.519-69.519s-31.186-69.519-69.519-69.519h-155.154c-4.142 0-7.5 3.357-7.5 7.5s3.358 7.5 7.5 7.5h155.154c30.062 0 54.519 24.457 54.519 54.519s-24.457 54.519-54.519 54.519h-155.153c-4.142 0-7.5 3.357-7.5 7.5z"/><path d="m194.102 352.438v20.346l-16.934-24.521c-1.865-2.7-5.27-3.875-8.403-2.898-3.134.977-5.268 3.878-5.268 7.16v45.268c0 4.143 3.358 7.5 7.5 7.5s7.5-3.357 7.5-7.5v-21.209l16.934 24.521c1.865 2.7 5.269 3.876 8.403 2.898 3.134-.977 5.268-3.878 5.268-7.16v-44.404c0-4.143-3.358-7.5-7.5-7.5s-7.5 3.356-7.5 7.499z"/><path d="m376.63 122.87c4.142 0 7.5-3.357 7.5-7.5s-3.358-7.5-7.5-7.5h-18.247c-4.142 0-7.5 3.357-7.5 7.5v45.021c0 4.143 3.358 7.5 7.5 7.5s7.5-3.357 7.5-7.5v-11.437h9.297c4.142 0 7.5-3.357 7.5-7.5s-3.358-7.5-7.5-7.5h-9.297v-11.084z"/><path d="m420.529 122.87c4.142 0 7.5-3.357 7.5-7.5s-3.358-7.5-7.5-7.5h-18.247c-4.142 0-7.5 3.357-7.5 7.5v45.021c0 4.143 3.358 7.5 7.5 7.5s7.5-3.357 7.5-7.5v-11.437h9.297c4.142 0 7.5-3.357 7.5-7.5s-3.358-7.5-7.5-7.5h-9.297v-11.084z"/><path d="m340.538 137.88c0-16.639-13.537-30.176-30.176-30.176s-30.176 13.537-30.176 30.176c0 16.64 13.537 30.177 30.176 30.177s30.176-13.537 30.176-30.177zm-45.351 0c0-8.368 6.808-15.176 15.176-15.176s15.176 6.808 15.176 15.176-6.808 15.177-15.176 15.177-15.176-6.809-15.176-15.177z"/><path d="m94.075 375.115c0 16.639 13.537 30.176 30.176 30.176s30.176-13.537 30.176-30.176-13.537-30.176-30.176-30.176-30.176 13.537-30.176 30.176zm45.352 0c0 8.368-6.808 15.176-15.176 15.176s-15.176-6.808-15.176-15.176 6.808-15.176 15.176-15.176 15.176 6.807 15.176 15.176z"/><path d="m387.714 249.833c-68.542 0-124.306 55.764-124.306 124.306 0 68.543 55.764 124.307 124.306 124.307s124.306-55.764 124.306-124.307c0-68.542-55.763-124.306-124.306-124.306zm0 233.613c-60.271 0-109.306-49.035-109.306-109.307s49.035-109.306 109.306-109.306 109.306 49.034 109.306 109.306-49.034 109.307-109.306 109.307z"/><path d="m387.714 284.044c-49.678 0-90.094 40.417-90.094 90.096 0 20.459 7.089 40.515 19.962 56.473 2.601 3.224 7.323 3.728 10.546 1.129 3.224-2.602 3.729-7.323 1.128-10.547-10.884-13.492-16.637-29.764-16.637-47.055 0-41.408 33.687-75.096 75.094-75.096s75.094 33.688 75.094 75.096c0 41.407-33.687 75.094-75.094 75.094-12.495 0-24.875-3.146-35.8-9.1-3.637-1.982-8.193-.64-10.174 2.997-1.982 3.638-.64 8.192 2.998 10.175 13.121 7.149 27.981 10.928 42.977 10.928 49.678 0 90.094-40.416 90.094-90.094.001-49.679-40.415-90.096-90.094-90.096z"/><path d="m273.417 458.657h-173.898c-46.604 0-84.519-37.915-84.519-84.518s37.915-84.518 84.519-84.518h173.899c4.142 0 7.5-3.357 7.5-7.5s-3.358-7.5-7.5-7.5h-173.899c-54.875 0-99.519 44.644-99.519 99.519 0 54.874 44.644 99.518 99.519 99.518h173.899c4.142 0 7.5-3.357 7.5-7.5s-3.358-7.501-7.501-7.501z"/><path d="m130.946 304.62h-31.427c-38.333 0-69.519 31.187-69.519 69.52 0 38.332 31.186 69.518 69.519 69.518h155.154c4.142 0 7.5-3.357 7.5-7.5s-3.358-7.5-7.5-7.5h-155.154c-30.062-.001-54.519-24.457-54.519-54.518 0-30.062 24.457-54.52 54.519-54.52h31.427c4.142 0 7.5-3.357 7.5-7.5s-3.358-7.5-7.5-7.5z"/><path d="m262.172 312.12c0-4.143-3.358-7.5-7.5-7.5h-91.764c-4.142 0-7.5 3.357-7.5 7.5s3.358 7.5 7.5 7.5h91.764c4.142 0 7.5-3.357 7.5-7.5z"/></g></svg>