<svg id="Capa_1" enable-background="new 0 0 511.941 511.941" height="512" viewBox="0 0 511.941 511.941" width="512" xmlns="http://www.w3.org/2000/svg"><g><path d="m335.408 0h-158.875c-35.384 0-64.171 28.787-64.171 64.172v310.577c0 4.143 3.358 7.5 7.5 7.5s7.5-3.357 7.5-7.5v-310.577c0-27.113 22.058-49.172 49.171-49.172h.391l8.33 19.495c4.851 11.353 15.96 18.688 28.305 18.688h84.823c12.343 0 23.454-7.335 28.305-18.687l8.33-19.496h.391c27.113 0 49.172 22.059 49.172 49.172v383.598c0 27.113-22.059 49.172-49.172 49.172h-158.875c-27.113 0-49.171-22.059-49.171-49.172v-40.956c0-4.143-3.358-7.5-7.5-7.5s-7.5 3.357-7.5 7.5v40.956c0 35.385 28.787 64.172 64.171 64.172h158.875c35.384 0 64.172-28.787 64.172-64.172v-383.598c0-35.385-28.788-64.172-64.172-64.172zm-22.515 28.602c-2.487 5.82-8.183 9.581-14.511 9.581h-84.823c-6.328 0-12.024-3.761-14.511-9.581l-5.811-13.602h125.468z"/><path d="m348.896 109.383c-.23-4.019-2.81-7.542-6.571-8.976-3.763-1.435-8.032-.521-10.877 2.327l-4.803 4.803c-19.664-17.005-44.486-26.287-70.675-26.287-25.577 0-50.413 9.127-69.932 25.7-19.289 16.378-32.297 39.027-36.629 63.776-1.135 6.484.653 13.106 4.905 18.167 4.291 5.107 10.576 8.036 17.242 8.036 10.979 0 20.308-7.76 22.184-18.45 1.134-6.466 3.278-12.703 6.375-18.541 1.94-3.659.547-8.199-3.112-10.14-3.659-1.939-8.199-.549-10.14 3.112-3.834 7.229-6.491 14.96-7.897 22.977-.614 3.501-3.73 6.042-7.409 6.042-2.225 0-4.324-.979-5.758-2.686-.819-.976-2.119-3.043-1.614-5.932 3.729-21.306 14.939-40.812 31.563-54.928 16.811-14.273 38.199-22.135 60.223-22.135 24.349 0 48.26 9.848 65.602 27.019 2.933 2.905 7.661 2.894 10.58-.026l2.377-2.377 1.579 27.532-27.532-1.579 2.365-2.364c1.413-1.413 2.204-3.332 2.197-5.33s-.811-3.91-2.233-5.313c-14.751-14.549-34.26-22.561-54.935-22.561-16.614 0-32.5 5.177-45.941 14.97-3.348 2.439-4.084 7.13-1.645 10.479 2.438 3.347 7.13 4.083 10.478 1.645 10.858-7.911 23.69-12.093 37.108-12.093 14.168 0 27.664 4.66 38.711 13.25l-4.237 4.237c-2.847 2.846-3.76 7.115-2.327 10.877s4.957 6.341 8.975 6.57l43.496 2.494c2.909.172 5.76-.918 7.821-2.979 2.061-2.06 3.147-4.91 2.98-7.82z"/><path d="m357.627 189.966c-4.291-5.107-10.576-8.036-17.242-8.036-10.979 0-20.309 7.76-22.184 18.451-5.309 30.264-31.48 52.229-62.231 52.229-14.191 0-27.685-4.658-38.712-13.249l4.238-4.238c2.847-2.846 3.76-7.115 2.327-10.877-1.434-3.763-4.957-6.342-8.975-6.571l-43.496-2.494c-2.908-.165-5.759.919-7.82 2.979-2.061 2.061-3.147 4.911-2.981 7.821l2.494 43.497c.23 4.018 2.809 7.541 6.57 8.975 3.764 1.434 8.031.521 10.878-2.325l4.794-4.795c19.624 16.998 44.448 26.278 70.683 26.278 23.929 0 46.631-7.698 65.649-22.264 3.289-2.518 3.913-7.226 1.395-10.514-2.519-3.29-7.227-3.913-10.515-1.395-16.378 12.542-35.926 19.172-56.529 19.172-24.758 0-48.054-9.592-65.597-27.009-2.932-2.911-7.666-2.902-10.587.019l-2.375 2.375-1.579-27.533 27.533 1.579-2.361 2.361c-1.412 1.411-2.202 3.327-2.197 5.323.006 1.997.807 3.908 2.226 5.312 14.719 14.556 34.229 22.572 54.937 22.572 38.05 0 70.436-27.185 77.005-64.638.614-3.502 3.73-6.043 7.409-6.043 2.225 0 4.324.979 5.758 2.686.819.976 2.119 3.043 1.614 5.932-2.292 13.097-7.3 25.347-14.882 36.41-2.342 3.417-1.47 8.085 1.947 10.427 3.417 2.344 8.085 1.471 10.426-1.946 8.804-12.847 14.62-27.079 17.285-42.305 1.135-6.484-.653-13.106-4.905-18.166z"/><path d="m164.206 335.476h9.687c4.142 0 7.5-3.357 7.5-7.5s-3.358-7.5-7.5-7.5h-9.687c-4.142 0-7.5 3.357-7.5 7.5s3.358 7.5 7.5 7.5z"/><path d="m346.777 335.476c4.142 0 7.5-3.357 7.5-7.5s-3.358-7.5-7.5-7.5h-9.687c-4.142 0-7.5 3.357-7.5 7.5s3.358 7.5 7.5 7.5z"/><path d="m309.123 335.476c4.142 0 7.5-3.357 7.5-7.5s-3.358-7.5-7.5-7.5h-106.555c-4.142 0-7.5 3.357-7.5 7.5s3.358 7.5 7.5 7.5z"/><path d="m347.486 361.688h-183.28c-4.142 0-7.5 3.357-7.5 7.5s3.358 7.5 7.5 7.5h183.279c4.142 0 7.5-3.357 7.5-7.5s-3.357-7.5-7.499-7.5z"/><path d="m347.486 402.9h-183.28c-4.142 0-7.5 3.357-7.5 7.5s3.358 7.5 7.5 7.5h183.279c4.142 0 7.5-3.357 7.5-7.5s-3.357-7.5-7.499-7.5z"/><path d="m347.486 444.113h-183.28c-4.142 0-7.5 3.357-7.5 7.5s3.358 7.5 7.5 7.5h183.279c4.142 0 7.5-3.357 7.5-7.5s-3.357-7.5-7.499-7.5z"/></g></svg>