<svg id="Capa_1" enable-background="new 0 0 511.782 511.782" height="512" viewBox="0 0 511.782 511.782" width="512" xmlns="http://www.w3.org/2000/svg"><g><path d="m469.641 88.897h-85.085c-4.143 0-7.5 3.357-7.5 7.5s3.357 7.5 7.5 7.5h85.085c14.966 0 27.141 12.175 27.141 27.141v23.428h-111.66c-4.143 0-7.5 3.357-7.5 7.5s3.357 7.5 7.5 7.5h111.66v278.948c0 14.965-12.175 27.14-27.141 27.14h-427.501c-14.965 0-27.14-12.175-27.14-27.14v-278.948h114.751c4.142 0 7.5-3.357 7.5-7.5s-3.358-7.5-7.5-7.5h-114.751v-23.428c0-14.966 12.175-27.141 27.14-27.141h88.177c4.142 0 7.5-3.357 7.5-7.5s-3.358-7.5-7.5-7.5h-88.177c-23.236 0-42.14 18.905-42.14 42.141v317.376c0 23.236 18.904 42.14 42.14 42.14h427.501c23.236 0 42.141-18.903 42.141-42.14v-317.376c0-23.236-18.905-42.141-42.141-42.141z"/><path d="m56.15 123.434c-4.142 0-7.5 3.357-7.5 7.5s3.358 7.5 7.5 7.5h5.06c4.142 0 7.5-3.357 7.5-7.5s-3.358-7.5-7.5-7.5z"/><path d="m104.493 123.434c-4.142 0-7.5 3.357-7.5 7.5s3.358 7.5 7.5 7.5h5.059c4.142 0 7.5-3.357 7.5-7.5s-3.358-7.5-7.5-7.5z"/><path d="m257.436 239.332c60.132 0 109.052-48.92 109.052-109.052s-48.92-109.052-109.052-109.052c-60.131 0-109.051 48.92-109.051 109.052s48.92 109.052 109.051 109.052zm0-15c-26.8 0-51.016-11.269-68.163-29.315 1.238-16.911 8.692-32.647 20.91-44.34 12.885 10.853 29.452 17.185 47.253 17.185 17.957 0 34.417-6.5 47.178-17.255 12.263 11.7 19.746 27.466 20.986 44.411-17.148 18.045-41.364 29.314-68.164 29.314zm94.052-94.052c0 17.712-4.924 34.295-13.472 48.456-3.896-14.768-11.797-28.235-22.973-38.921 9.825-12.476 15.709-28.193 15.709-45.269 0-10.927-2.42-21.293-6.725-30.618 16.961 17.02 27.461 40.483 27.461 66.352zm-160.677-66.318c-2.352 5.114-4.151 10.553-5.283 16.261-.805 4.063 1.836 8.01 5.899 8.815 4.063.798 8.01-1.836 8.815-5.899 5.387-27.183 29.44-46.911 57.194-46.911 32.156 0 58.316 26.161 58.316 58.317s-26.16 58.316-58.316 58.316c-25.503 0-47.835-16.317-55.569-40.604-1.257-3.945-5.476-6.129-9.422-4.87-3.947 1.257-6.127 5.476-4.871 9.423 2.723 8.551 6.888 16.315 12.174 23.064-11.138 10.674-19.002 24.123-22.892 38.859-8.547-14.161-13.471-30.743-13.471-48.455 0-25.85 10.486-49.298 27.426-66.316z"/><path d="m131.423 261.28c-4.142 0-7.5 3.357-7.5 7.5s3.358 7.5 7.5 7.5h226.577c1.854 0 3.362 1.509 3.362 3.363v43.185c0 1.854-1.509 3.363-3.362 3.363h-295.002c-1.854 0-3.363-1.509-3.363-3.363v-43.185c0-1.854 1.509-3.363 3.363-3.363h36.361c4.142 0 7.5-3.357 7.5-7.5s-3.358-7.5-7.5-7.5h-36.361c-10.125 0-18.363 8.237-18.363 18.363v43.185c0 10.126 8.238 18.363 18.363 18.363h295.002c10.125 0 18.362-8.237 18.362-18.363v-43.185c0-10.126-8.237-18.363-18.362-18.363z"/><path d="m302.848 363.139h-239.85c-10.125 0-18.363 8.237-18.363 18.363v43.185c0 10.126 8.238 18.363 18.363 18.363h295.002c10.125 0 18.362-8.237 18.362-18.363v-43.185c0-10.126-8.237-18.363-18.362-18.363h-23.089c-4.143 0-7.5 3.357-7.5 7.5s3.357 7.5 7.5 7.5h23.089c1.854 0 3.362 1.509 3.362 3.363v43.185c0 1.854-1.509 3.363-3.362 3.363h-295.002c-1.854 0-3.363-1.509-3.363-3.363v-43.185c0-1.854 1.509-3.363 3.363-3.363h239.85c4.143 0 7.5-3.357 7.5-7.5s-3.357-7.5-7.5-7.5z"/><path d="m106.07 395.595c-4.142 0-7.5 3.357-7.5 7.5s3.358 7.5 7.5 7.5h5.047c4.142 0 7.5-3.357 7.5-7.5s-3.358-7.5-7.5-7.5z"/><path d="m157.002 395.595c-4.142 0-7.5 3.357-7.5 7.5s3.358 7.5 7.5 7.5h5.047c4.142 0 7.5-3.357 7.5-7.5s-3.358-7.5-7.5-7.5z"/><path d="m207.933 395.595c-4.142 0-7.5 3.357-7.5 7.5s3.358 7.5 7.5 7.5h5.047c4.142 0 7.5-3.357 7.5-7.5s-3.358-7.5-7.5-7.5z"/><path d="m258.865 395.595c-4.142 0-7.5 3.357-7.5 7.5s3.358 7.5 7.5 7.5h5.047c4.143 0 7.5-3.357 7.5-7.5s-3.357-7.5-7.5-7.5z"/><path d="m302.296 403.095c0 4.143 3.357 7.5 7.5 7.5h5.047c4.143 0 7.5-3.357 7.5-7.5s-3.357-7.5-7.5-7.5h-5.047c-4.142 0-7.5 3.358-7.5 7.5z"/><path d="m399.277 405.518v18.267c0 10.623 8.643 19.266 19.266 19.266h41.583c10.623 0 19.265-8.643 19.265-19.266v-18.267c0-7.964-4.857-14.814-11.765-17.745v-1.674c0-15.6-12.691-28.291-28.292-28.291-15.6 0-28.291 12.691-28.291 28.291v1.674c-6.908 2.931-11.766 9.781-11.766 17.745zm65.113 18.267c0 2.353-1.913 4.266-4.265 4.266h-41.583c-2.353 0-4.266-1.913-4.266-4.266v-18.267c0-2.353 1.913-4.266 4.266-4.266h41.583c2.352 0 4.265 1.913 4.265 4.266zm-25.057-50.977c7.329 0 13.292 5.962 13.292 13.291v.153h-26.583v-.153c0-7.329 5.962-13.291 13.291-13.291z"/><path d="m439.333 331.043c16.436 0 29.808-13.372 29.808-29.808s-13.372-29.807-29.808-29.807-29.807 13.371-29.807 29.807 13.372 29.808 29.807 29.808zm0-44.615c8.165 0 14.808 6.643 14.808 14.807 0 8.165-6.643 14.808-14.808 14.808-8.164 0-14.807-6.643-14.807-14.808.001-8.164 6.643-14.807 14.807-14.807z"/></g></svg>