<svg id="Capa_1" enable-background="new 0 0 513.384 513.384" height="512" viewBox="0 0 513.384 513.384" width="512" xmlns="http://www.w3.org/2000/svg"><g><path d="m371.172 474.773c-15.441 15.227-35.886 23.611-57.567 23.611-39.151 0-73.001-27.892-80.488-66.32l-4.523-23.219c-.454-2.336-1.308-4.557-2.538-6.603l-51.023-84.76c-3.496-5.809-2.56-13.183 2.277-17.932 2.849-2.797 6.603-4.279 10.604-4.174 3.991.105 7.674 1.784 10.371 4.728l34.023 37.127c2.715 2.962 6.887 3.934 10.634 2.479 3.744-1.456 6.164-4.994 6.164-9.012v-51.328c0-4.143-3.357-7.5-7.5-7.5s-7.5 3.357-7.5 7.5v37.62l-24.763-27.021c-5.47-5.969-12.94-9.374-21.034-9.588-8.095-.197-15.732 2.793-21.51 8.466-9.811 9.634-11.71 24.59-4.619 36.371l51.022 84.758c.323.537.547 1.119.667 1.734l4.524 23.222c8.855 45.457 48.897 78.451 95.211 78.451 25.648 0 49.833-9.919 68.099-27.93 2.95-2.908 2.983-7.657.075-10.606-2.91-2.949-7.657-2.982-10.606-.074z"/><path d="m382.919 262.147c-5.254 0-10.17 1.471-14.36 4.023-3.878-10.614-14.076-18.211-26.016-18.211-5.66 0-10.927 1.71-15.317 4.637-4.43-9.402-13.995-15.927-25.058-15.927-4.571 0-8.884 1.121-12.688 3.091v-70.175c0-4.968-1.322-9.63-3.622-13.665l34.737-34.738c6.63-6.631 11.801-14.35 15.369-22.942 1.588-3.825-.226-8.214-4.051-9.803s-8.214.226-9.803 4.051c-2.811 6.769-6.889 12.854-12.123 18.087l-34.793 34.794c-3.974-2.208-8.543-3.471-13.402-3.471-15.267 0-27.688 12.421-27.688 27.688v16.873l-2.668 2.668c-5.168 5.17-13.579 5.17-18.747 0l-48.931-48.932c-2.929-2.928-7.677-2.928-10.607 0-2.929 2.93-2.929 7.678 0 10.607l48.932 48.932c5.509 5.508 12.744 8.262 19.98 8.262 4.12 0 8.239-.896 12.041-2.682v42.045c0 4.143 3.357 7.5 7.5 7.5s7.5-3.357 7.5-7.5v-77.773c0-6.996 5.691-12.688 12.688-12.688s12.688 5.691 12.688 12.688v125.54c0 4.143 3.357 7.5 7.5 7.5s7.5-3.357 7.5-7.5v-30.769c0-6.996 5.691-12.688 12.688-12.688s12.688 5.691 12.688 12.688v42.059c0 4.143 3.357 7.5 7.5 7.5s7.5-3.357 7.5-7.5v-30.768c0-6.996 5.691-12.688 12.688-12.688s12.688 5.692 12.688 12.688v44.955c0 4.143 3.357 7.5 7.5 7.5s7.5-3.357 7.5-7.5v-30.768c0-6.996 5.692-12.688 12.688-12.688s12.688 5.691 12.688 12.688v126.549c0 12.022-2.546 23.611-7.568 34.443-1.742 3.758-.107 8.217 3.65 9.959 1.021.473 2.094.697 3.149.697 2.83 0 5.54-1.61 6.81-4.348 5.944-12.823 8.959-26.534 8.959-40.752v-126.549c-.001-15.266-12.422-27.687-27.689-27.687z"/><path d="m134.139 110.574c-21.826-21.827-21.825-57.341.001-79.166s57.339-21.827 79.165 0l3.455 3.455c2.929 2.927 7.676 2.929 10.606 0l3.457-3.455c14.599-14.601 35.961-19.974 55.758-14.021 3.961 1.193 8.148-1.056 9.342-5.023 1.192-3.967-1.057-8.149-5.023-9.342-24.267-7.294-50.399-1.161-68.835 15.997-27.795-25.875-71.465-25.284-98.533 1.783-27.673 27.674-27.673 72.704 0 100.379l6.975 6.975c1.465 1.464 3.385 2.196 5.304 2.196s3.839-.732 5.304-2.196c2.929-2.93 2.929-7.678 0-10.607z"/><path d="m290.406 37.779c0 4.143 3.357 7.5 7.5 7.5h18.701v18.701c0 4.143 3.357 7.5 7.5 7.5s7.5-3.357 7.5-7.5v-18.701h18.701c4.143 0 7.5-3.357 7.5-7.5s-3.357-7.5-7.5-7.5h-18.701v-18.702c0-4.143-3.357-7.5-7.5-7.5s-7.5 3.357-7.5 7.5v18.701h-18.701c-4.143.001-7.5 3.358-7.5 7.501z"/></g></svg>