<svg id="Capa_1" enable-background="new 0 0 512.594 512.594" height="512" viewBox="0 0 512.594 512.594" width="512" xmlns="http://www.w3.org/2000/svg"><g><path d="m353.879 285.635h-13.312c-3.7-14.695-9.52-28.735-17.319-41.775l9.425-9.424c9.37-9.37 9.37-24.618 0-33.988l-20.074-20.075c-9.371-9.369-24.618-9.369-33.989 0l-9.425 9.425c-13.042-7.8-27.081-13.62-41.774-17.318v-13.312c0-13.253-10.782-24.034-24.034-24.034h-28.388c-13.252 0-24.034 10.781-24.034 24.034v13.312c-14.694 3.7-28.734 9.521-41.774 17.319l-9.424-9.425c-9.371-9.369-24.618-9.369-33.989 0l-20.074 20.074c-9.371 9.371-9.371 24.619 0 33.99l9.424 9.423c-7.799 13.04-13.619 27.079-17.318 41.775h-13.315c-13.253 0-24.035 10.781-24.035 24.034v28.388c0 13.253 10.782 24.035 24.035 24.035h13.312c3.7 14.694 9.521 28.734 17.318 41.774l-9.424 9.424c-9.371 9.371-9.371 24.619 0 33.99l20.074 20.072c9.372 9.37 24.619 9.37 33.989 0l9.423-9.424c13.037 7.797 27.076 13.617 41.775 17.318v13.313c0 13.252 10.782 24.033 24.034 24.033h28.388c13.252 0 24.034-10.781 24.034-24.033v-13.313c14.696-3.7 28.735-9.521 41.775-17.318l9.424 9.424c9.372 9.37 24.619 9.37 33.989 0l20.073-20.072c9.371-9.371 9.371-24.619 0-33.989l-9.425-9.426c.901-1.516 1.827-3.142 2.856-5.018 1.993-3.632.664-8.19-2.967-10.184-3.633-1.993-8.191-.664-10.184 2.967-1.215 2.215-2.261 4.03-3.291 5.716-3.16 5.17-2.375 11.771 1.907 16.053l10.497 10.498c3.522 3.522 3.522 9.253 0 12.775l-20.073 20.072c-3.522 3.523-9.254 3.523-12.776 0l-10.496-10.495c-4.283-4.283-10.885-5.067-16.055-1.907-12.506 7.645-26.05 13.26-40.254 16.688-5.888 1.42-10 6.642-10 12.699v14.83c0 4.98-4.053 9.033-9.034 9.033h-28.388c-4.981 0-9.034-4.053-9.034-9.033v-14.83c0-6.058-4.112-11.279-9.999-12.699-14.208-3.43-27.753-9.044-40.256-16.688-5.171-3.161-11.773-2.377-16.054 1.906l-10.497 10.496c-3.522 3.523-9.254 3.523-12.776 0l-20.074-20.072c-3.522-3.522-3.522-9.253 0-12.776l10.499-10.497c4.283-4.283 5.067-10.885 1.907-16.055-7.646-12.507-13.26-26.051-16.688-40.255-1.42-5.888-6.643-9.999-12.699-9.999h-14.83c-4.982 0-9.035-4.053-9.035-9.035v-28.388c0-4.981 4.053-9.034 9.035-9.034h14.83c6.056 0 11.278-4.111 12.699-9.998 3.428-14.207 9.043-27.751 16.689-40.257 3.16-5.17 2.375-11.771-1.907-16.055l-10.497-10.496c-3.522-3.522-3.522-9.253 0-12.776l20.074-20.073c3.522-3.523 9.253-3.523 12.776-.001l10.496 10.497c4.283 4.284 10.885 5.069 16.055 1.908 12.507-7.646 26.051-13.262 40.254-16.689 5.888-1.42 10-6.642 10-12.698v-14.83c0-4.981 4.053-9.034 9.034-9.034h28.388c4.981 0 9.034 4.053 9.034 9.034v14.83c0 6.056 4.111 11.277 9.999 12.699 14.203 3.427 27.747 9.041 40.255 16.688 5.17 3.159 11.772 2.376 16.054-1.907l10.497-10.497c3.522-3.523 9.253-3.524 12.776 0l20.073 20.073c3.522 3.522 3.522 9.255 0 12.776l-10.497 10.496c-4.283 4.283-5.067 10.885-1.906 16.056 7.646 12.507 13.26 26.051 16.688 40.256 1.421 5.887 6.643 9.998 12.698 9.998h14.83c4.981 0 9.034 4.053 9.034 9.034v28.388c0 4.982-4.053 9.035-9.034 9.035h-14.83c-6.056 0-11.278 4.111-12.698 9.997-.47 1.945-1.042 4.066-1.75 6.485-1.164 3.975 1.115 8.142 5.09 9.306 3.976 1.16 8.141-1.115 9.305-5.091.604-2.061 1.121-3.938 1.568-5.697h13.315c13.252 0 24.034-10.782 24.034-24.035v-28.388c.002-13.252-10.779-24.033-24.032-24.033z"/><path d="m189.182 420.824c-22.043 0-42.815-7.209-60.07-20.849-3.25-2.569-7.966-2.018-10.535 1.233-2.569 3.249-2.017 7.966 1.233 10.534 19.93 15.754 43.918 24.081 69.372 24.081 61.735 0 111.961-50.226 111.961-111.961s-50.226-111.961-111.961-111.961-111.961 50.227-111.961 111.962c0 22.478 6.638 44.161 19.196 62.705 2.324 3.431 6.986 4.329 10.416 2.005 3.43-2.322 4.327-6.985 2.004-10.415-10.871-16.053-16.616-34.827-16.616-54.295 0-53.465 43.497-96.961 96.961-96.961s96.961 43.496 96.961 96.961-43.497 96.961-96.961 96.961z"/><path d="m490.445 129.247h-10.61c-3.142-12.163-7.966-23.801-14.364-34.648l7.511-7.511c8.46-8.46 8.46-22.227 0-30.688l-17.238-17.238c-8.461-8.459-22.227-8.459-30.687 0l-7.511 7.512c-10.846-6.397-22.482-11.222-34.648-14.364v-10.611c-.002-11.965-9.736-21.699-21.701-21.699h-24.379c-11.965 0-21.699 9.734-21.699 21.699v10.608c-12.165 3.143-23.802 7.968-34.649 14.365l-7.511-7.512c-8.461-8.459-22.227-8.459-30.687 0l-17.238 17.24c-4.098 4.099-6.355 9.548-6.355 15.344s2.257 11.245 6.356 15.343l7.511 7.512c-4.295 7.291-7.924 15.052-10.798 23.103-1.393 3.901.64 8.192 4.541 9.586 3.9 1.393 8.192-.64 9.585-4.541 2.772-7.764 6.33-15.221 10.574-22.162 2.971-4.859 2.234-11.064-1.792-15.088l-9.014-9.016c-1.266-1.265-1.962-2.947-1.962-4.736 0-1.79.697-3.473 1.962-4.737l17.238-17.238c2.612-2.613 6.862-2.612 9.474-.001l9.013 9.015c4.026 4.026 10.23 4.763 15.089 1.793 10.644-6.508 22.173-11.287 34.265-14.206 5.534-1.335 9.399-6.242 9.399-11.935v-12.737c0-3.694 3.005-6.699 6.699-6.699h24.379c3.694 0 6.699 3.005 6.699 6.699v12.735c0 5.692 3.865 10.6 9.397 11.935 12.093 2.919 23.622 7.698 34.267 14.206 4.858 2.969 11.063 2.231 15.088-1.792l9.015-9.015c2.613-2.614 6.862-2.612 9.474 0l17.238 17.237c2.612 2.612 2.612 6.863 0 9.476l-9.013 9.013c-4.027 4.024-4.765 10.229-1.793 15.09 6.507 10.646 11.287 22.174 14.205 34.264 1.334 5.534 6.242 9.399 11.935 9.399h12.736c3.694 0 6.699 3.005 6.699 6.699v24.379c0 3.693-3.005 6.698-6.699 6.698h-12.735c-5.692 0-10.6 3.865-11.935 9.397-2.918 12.092-7.698 23.621-14.206 34.267-2.97 4.858-2.233 11.063 1.792 15.089l9.014 9.014c1.265 1.265 1.962 2.947 1.962 4.736 0 1.79-.697 3.473-1.962 4.737l-17.239 17.238c-1.265 1.266-2.947 1.963-4.737 1.963s-3.472-.697-4.737-1.963l-9.014-9.014c-4.024-4.023-10.226-4.762-15.089-1.792-6.878 4.204-14.258 7.735-21.937 10.494-3.898 1.401-5.923 5.696-4.522 9.595 1.4 3.898 5.699 5.923 9.594 4.522 7.958-2.859 15.635-6.459 22.85-10.71l7.512 7.512c4.23 4.23 9.786 6.346 15.343 6.345 5.556 0 11.114-2.115 15.343-6.345l17.239-17.238c8.461-8.461 8.461-22.228 0-30.688l-7.511-7.51c6.398-10.848 11.223-22.485 14.364-34.649h10.609c11.965 0 21.699-9.733 21.699-21.698v-24.379c0-11.965-9.734-21.699-21.698-21.699z"/><path d="m426.77 189.821c-5.31 15.472-15.038 28.903-28.135 38.844-13.324 10.112-29.203 15.85-45.92 16.591-4.138.183-7.344 3.687-7.161 7.824.178 4.025 3.498 7.168 7.487 7.168.112 0 .225-.002.338-.008 19.776-.876 38.562-7.663 54.325-19.627 15.476-11.746 26.975-27.626 33.254-45.923 1.345-3.918-.742-8.184-4.659-9.528-3.918-1.348-8.185.741-9.529 4.659z"/><path d="m446.174 160.366c-.711-25.382-11.134-49.131-29.349-66.872-18.25-17.776-42.335-27.566-67.817-27.566-25.298 0-49.256 9.669-67.461 27.225-18.155 17.508-28.69 41.004-29.665 66.161-.16 4.139 3.065 7.624 7.205 7.784 4.116.171 7.624-3.065 7.785-7.204.824-21.269 9.733-41.137 25.088-55.944 15.395-14.846 35.655-23.021 57.049-23.021 21.55 0 41.917 8.279 57.351 23.312 15.405 15.005 24.22 35.087 24.821 56.547.114 4.069 3.448 7.29 7.493 7.29.071 0 .143-.001.214-.003 4.139-.118 7.402-3.568 7.286-7.709z"/></g></svg>