<svg id="Capa_1" enable-background="new 0 0 511.693 511.693" height="512" viewBox="0 0 511.693 511.693" width="512" xmlns="http://www.w3.org/2000/svg"><g><path d="m465.703 25.383h-419.713c-25.359 0-45.99 20.631-45.99 45.991v296.371c0 25.359 20.631 45.99 45.99 45.99h139.11v31.296l-26.89 26.279h-11.475c-4.142 0-7.5 3.357-7.5 7.5s3.358 7.5 7.5 7.5h218.881c4.143 0 7.5-3.357 7.5-7.5s-3.357-7.5-7.5-7.5h-10.132l-26.89-26.279v-31.296h137.109c25.359 0 45.99-20.631 45.99-45.99v-296.371c0-25.36-20.631-45.991-45.99-45.991zm-149.851 428.169 18.171 17.758h-154.352l18.171-17.758c1.444-1.411 2.258-3.346 2.258-5.364v-34.453h113.494v34.453c0 2.019.814 3.953 2.258 5.364zm149.851-54.817h-419.713c-17.088 0-30.99-13.902-30.99-30.99v-6.075h89.642c4.142 0 7.5-3.357 7.5-7.5s-3.358-7.5-7.5-7.5h-89.642v-275.296c0-17.088 13.902-30.99 30.99-30.99h419.713c17.088 0 30.99 13.902 30.99 30.99v275.296h-359.987c-4.142 0-7.5 3.357-7.5 7.5s3.358 7.5 7.5 7.5h359.988v6.075c-.001 17.088-13.903 30.99-30.991 30.99z"/><path d="m256.347 368.936c-4.142 0-7.5 3.357-7.5 7.5v3.34c0 4.143 3.358 7.5 7.5 7.5 4.143 0 7.5-3.357 7.5-7.5v-3.34c0-4.143-3.358-7.5-7.5-7.5z"/><path d="m256.175 336.36c78.852 0 143.002-64.15 143.002-143.001 0-78.852-64.15-143.002-143.002-143.002-58.018 0-109.879 34.63-132.123 88.223-1.587 3.825.227 8.214 4.052 9.802 3.826 1.591 8.215-.226 9.802-4.052 19.912-47.974 66.335-78.973 118.269-78.973 70.58 0 128.002 57.422 128.002 128.002s-57.422 128.001-128.002 128.001-128.001-57.421-128.001-128.001c0-6.499.492-13.03 1.462-19.411.623-4.096-2.192-7.92-6.287-8.543-4.096-.624-7.92 2.192-8.542 6.287-1.084 7.126-1.633 14.415-1.633 21.667-.001 78.85 64.15 143.001 143.001 143.001z"/><path d="m333.919 178.111c4.143 0 7.5-3.357 7.5-7.5v-24.648c0-3.488-1.712-6.757-4.579-8.743-2.867-1.985-6.529-2.44-9.791-1.215l-7.343 2.753h-36.198c-10.565 0-20.584 4.54-27.573 12.197-6.968-7.678-16.92-12.197-27.594-12.197h-35.354l-7.339-2.752c-3.267-1.228-6.928-.771-9.794 1.214-2.867 1.986-4.579 5.255-4.579 8.743v47.61c0 15.404 5.758 30.117 16.212 41.43s24.669 18.21 40.026 19.423l9.738.769 10.862 7.394c2.501 1.703 5.367 2.555 8.234 2.555 2.866 0 5.733-.852 8.233-2.554l10.862-7.395 9.739-.769c27.894-2.203 50.655-22.991 55.354-50.553.695-4.083-2.05-7.957-6.134-8.653-4.071-.689-7.957 2.051-8.653 6.134-3.542 20.782-20.71 36.457-41.747 38.119l-11.723.925c-1.301.103-2.552.543-3.631 1.276l-12.301 8.374-12.301-8.374c-1.079-.733-2.33-1.174-3.63-1.276l-11.722-.925c-23.786-1.879-42.418-22.04-42.418-45.899v-41.314l2.72 1.02c.842.315 1.734.478 2.633.478h36.713c8.266 0 15.809 4.535 19.684 11.834 1.516 2.856 4.465 4.672 7.697 4.74 3.207.035 6.253-1.623 7.885-4.407l.676-1.151c3.982-6.795 11.35-11.016 19.226-11.016h37.558c.899 0 1.791-.162 2.633-.478l2.721-1.02v18.351c-.002 4.142 3.355 7.5 7.498 7.5z"/><path d="m294.783 169.457c-17.314 0-31.4 14.086-31.4 31.4v10.438c0 4.143 3.357 7.5 7.5 7.5h13.746c17.314 0 31.4-14.086 31.4-31.4v-10.438c0-4.143-3.357-7.5-7.5-7.5zm6.246 17.938c0 9.043-7.357 16.4-16.4 16.4h-6.246v-2.938c0-9.043 7.357-16.4 16.4-16.4h6.246z"/><path d="m217.91 169.457h-13.747c-4.142 0-7.5 3.357-7.5 7.5v10.438c0 17.314 14.086 31.4 31.401 31.4h13.746c4.142 0 7.5-3.357 7.5-7.5v-10.438c.001-17.315-14.085-31.4-31.4-31.4zm16.401 34.338h-6.246c-9.044 0-16.401-7.357-16.401-16.4v-2.938h6.247c9.043 0 16.401 7.357 16.401 16.4v2.938z"/></g></svg>