<svg id="Capa_1" enable-background="new 0 0 511.782 511.782" height="512" viewBox="0 0 511.782 511.782" width="512" xmlns="http://www.w3.org/2000/svg"><g><path d="m469.642 12.437h-427.501c-23.237 0-42.141 18.904-42.141 42.14v317.376c0 23.236 18.904 42.14 42.141 42.14h221.269c4.143 0 7.5-3.357 7.5-7.5s-3.357-7.5-7.5-7.5h-221.269c-14.966 0-27.141-12.175-27.141-27.14v-278.949h481.782v42.684c0 4.143 3.357 7.5 7.5 7.5s7.5-3.357 7.5-7.5v-81.11c0-23.237-18.904-42.141-42.14-42.141zm-454.642 65.567v-23.427c0-14.966 12.175-27.141 27.141-27.141h427.501c14.966 0 27.141 12.175 27.141 27.141v23.427z"/><path d="m61.21 46.973h-5.06c-4.143 0-7.5 3.357-7.5 7.5s3.357 7.5 7.5 7.5h5.06c4.143 0 7.5-3.357 7.5-7.5s-3.357-7.5-7.5-7.5z"/><path d="m109.553 46.973h-5.06c-4.143 0-7.5 3.357-7.5 7.5s3.357 7.5 7.5 7.5h5.06c4.143 0 7.5-3.357 7.5-7.5s-3.358-7.5-7.5-7.5z"/><path d="m157.896 46.973h-5.06c-4.143 0-7.5 3.357-7.5 7.5s3.357 7.5 7.5 7.5h5.06c4.143 0 7.5-3.357 7.5-7.5s-3.358-7.5-7.5-7.5z"/><path d="m267.608 132.438c0-6.2-5.045-11.245-11.245-11.245h-41.685c-4.143 0-7.5 3.357-7.5 7.5s3.357 7.5 7.5 7.5h21.039l-83.882 56.975-83.882-56.975h114.762c4.143 0 7.5-3.357 7.5-7.5s-3.357-7.5-7.5-7.5h-135.405c-6.201 0-11.246 5.045-11.246 11.245v139.592c0 6.2 5.045 11.245 11.246 11.245h209.054c6.2 0 11.245-5.045 11.245-11.245v-139.592zm-15 10.415v118.762l-87.425-59.381zm-16.89 125.421h-167.764l83.882-56.975zm-184.655-6.66v-118.761l87.425 59.381z"/><path d="m45.568 326.181h10.582c4.143 0 7.5-3.357 7.5-7.5s-3.357-7.5-7.5-7.5h-10.582c-4.143 0-7.5 3.357-7.5 7.5s3.358 7.5 7.5 7.5z"/><path d="m260.108 311.181h-169.409c-4.143 0-7.5 3.357-7.5 7.5s3.357 7.5 7.5 7.5h169.409c4.143 0 7.5-3.357 7.5-7.5s-3.357-7.5-7.5-7.5z"/><path d="m45.568 362.702h214.54c4.143 0 7.5-3.357 7.5-7.5s-3.357-7.5-7.5-7.5h-214.54c-4.143 0-7.5 3.357-7.5 7.5s3.358 7.5 7.5 7.5z"/><path d="m469.942 148.217h-142.193c-23.07 0-41.84 18.77-41.84 41.84v190.69c0 4.143 3.357 7.5 7.5 7.5s7.5-3.357 7.5-7.5v-190.69c0-14.8 12.04-26.84 26.84-26.84h1.057l7.175 19.711c3.266 8.971 11.874 14.997 21.42 14.997h82.889c9.545 0 18.153-6.026 21.421-14.997l7.175-19.711h1.057c14.8 0 26.84 12.04 26.84 26.84v267.449c0 14.8-12.04 26.84-26.84 26.84h-142.194c-14.8 0-26.84-12.04-26.84-26.84v-44.797c0-4.143-3.357-7.5-7.5-7.5s-7.5 3.357-7.5 7.5v44.797c0 23.07 18.77 41.84 41.84 41.84h142.193c23.07 0 41.84-18.77 41.84-41.84v-267.449c0-23.071-18.769-41.84-41.84-41.84zm-22.326 29.579c-1.117 3.067-4.062 5.129-7.326 5.129h-82.889c-3.265 0-6.208-2.061-7.324-5.128l-5.308-14.58h108.153z"/><path d="m469.901 267.293c4.143 0 7.5-3.357 7.5-7.5v-28.218c0-10.404-8.465-18.869-18.869-18.869h-119.372c-10.405 0-18.87 8.465-18.87 18.869v77.886c0 10.405 8.465 18.87 18.87 18.87h119.372c10.404 0 18.869-8.465 18.869-18.87v-17.705c0-4.143-3.357-7.5-7.5-7.5s-7.5 3.357-7.5 7.5v14.574l-50.577-35.812 50.577-35.812v25.087c0 4.143 3.358 7.5 7.5 7.5zm-134.611 39.038v-71.625l50.577 35.812zm111.041 7h-94.969l47.484-33.623zm-94.97-85.625h94.969l-47.484 33.623z"/><path d="m470.593 375.555v-15.668c0-9.436-7.677-17.112-17.112-17.112h-104.149c-9.436 0-17.111 7.677-17.111 17.112v15.668c0 9.436 7.676 17.112 17.111 17.112h104.148c9.436 0 17.113-7.677 17.113-17.112zm-15 0c0 1.165-.947 2.112-2.112 2.112h-104.149c-1.164 0-2.111-.947-2.111-2.112v-15.668c0-1.165.947-2.112 2.111-2.112h104.148c1.165 0 2.112.947 2.112 2.112v15.668z"/><path d="m447.426 417.779h-92.548c-4.143 0-7.5 3.357-7.5 7.5s3.357 7.5 7.5 7.5h92.548c4.143 0 7.5-3.357 7.5-7.5s-3.358-7.5-7.5-7.5z"/></g></svg>