<svg id="Capa_1" enable-background="new 0 0 512.271 512.271" height="512" viewBox="0 0 512.271 512.271" width="512" xmlns="http://www.w3.org/2000/svg"><path d="m397.463 282.603c-30.927 0-59.032 12.297-79.697 32.252l-54.131-35.29v-50.147c59.823-3.877 107.309-53.772 107.309-114.557 0-63.306-51.503-114.809-114.809-114.809-54.568 0-101.914 38.785-112.579 92.222-.812 4.062 1.824 8.012 5.887 8.822 4.061.815 8.013-1.825 8.822-5.887 4.111-20.596 14.502-38.678 28.921-52.437-5.171 10.344-8.099 21.998-8.099 34.327 0 18.08 6.276 34.713 16.742 47.87-12.155 11.519-20.672 26.154-24.702 42.202-7.844-12.723-12.78-27.117-14.295-42.217-.414-4.121-4.076-7.133-8.212-6.714-4.121.414-7.127 4.091-6.714 8.212 2.827 28.167 15.962 54.215 36.985 73.345 19.313 17.574 43.84 27.94 69.743 29.623v50.143l-54.131 35.29c-20.664-19.955-48.77-32.252-79.696-32.252-63.304.002-114.807 51.505-114.807 114.811 0 63.305 51.503 114.808 114.809 114.808 63.305 0 114.808-51.503 114.808-114.808 0-26.924-9.32-51.709-24.897-71.309l51.417-33.521 51.417 33.521c-15.577 19.6-24.897 44.385-24.897 71.309 0 63.305 51.503 114.808 114.808 114.808 63.306 0 114.809-51.503 114.809-114.808-.003-63.306-51.505-114.809-114.811-114.809zm-41.519-167.742c0 19.145-5.423 37.045-14.807 52.254-4.037-16.026-12.556-30.638-24.697-42.144 10.467-13.158 16.743-29.79 16.743-47.871 0-12.337-2.931-23.998-8.109-34.347 19.012 18.184 30.87 43.787 30.87 72.108zm-99.808-99.808c34.213 0 62.048 27.834 62.048 62.047s-27.835 62.048-62.048 62.048-62.048-27.835-62.048-62.048 27.835-62.047 62.048-62.047zm-72.464 168.408c1.278-18.227 9.347-35.181 22.601-47.693 13.45 11.449 30.857 18.38 49.863 18.38s36.413-6.931 49.863-18.38c13.245 12.504 21.313 29.444 22.599 47.657-18.201 19.226-43.946 31.24-72.447 31.244-.005 0-.01-.001-.015-.001-.004 0-.009.001-.013.001-24.896-.003-48.737-9.224-67.135-25.965-1.85-1.682-3.61-3.442-5.316-5.243zm-6.817 176.19c0 34.213-27.834 62.047-62.047 62.047s-62.048-27.834-62.048-62.047 27.835-62.048 62.048-62.048 62.047 27.835 62.047 62.048zm-62.046 137.568c-28.513 0-54.269-12.021-72.474-31.257.325-4.579 1.074-9.124 2.251-13.549 1.064-4.003-1.317-8.111-5.32-9.176-4.002-1.062-8.111 1.317-9.176 5.32-.099.371-.182.746-.276 1.118-9.388-15.21-14.814-33.114-14.814-52.263 0-28.321 11.858-53.923 30.869-72.107-5.177 10.349-8.108 22.009-8.108 34.346 0 18.081 6.277 34.714 16.744 47.872-2.979 2.829-5.77 5.869-8.337 9.096-2.578 3.242-2.04 7.96 1.201 10.539 1.38 1.098 3.028 1.63 4.664 1.63 2.207 0 4.394-.97 5.875-2.831 2.163-2.72 4.532-5.257 7.044-7.633 13.449 11.445 30.854 18.374 49.856 18.374 19.005 0 36.412-6.931 49.862-18.379 13.246 12.504 21.314 29.444 22.6 47.656-18.204 19.229-43.955 31.244-72.461 31.244zm84.995-47.545c-4.037-16.028-12.559-30.634-24.7-42.142 10.472-13.159 16.752-29.796 16.752-47.882 0-12.338-2.931-23.998-8.108-34.347 19.011 18.183 30.869 43.786 30.869 72.107-.001 19.151-5.426 37.054-14.813 52.264zm297.467-52.262c0 19.147-5.424 37.049-14.81 52.259-4.034-16.014-12.539-30.618-24.666-42.12 4-5.033 7.409-10.612 10.095-16.657 1.682-3.785-.024-8.217-3.81-9.899-3.781-1.68-8.217.023-9.899 3.81-9.957 22.413-32.221 36.896-56.719 36.896-34.213 0-62.048-27.835-62.048-62.048s27.835-62.048 62.048-62.048c32.984 0 60.197 25.776 61.953 58.683.22 4.137 3.771 7.309 7.889 7.09 4.137-.221 7.311-3.753 7.09-7.889-.576-10.803-3.38-20.976-7.922-30.114 18.97 18.177 30.799 43.751 30.799 72.037zm-168.749-72.106c-5.177 10.349-8.107 22.008-8.107 34.345 0 18.081 6.276 34.713 16.743 47.871-12.142 11.508-20.655 26.124-24.691 42.152-9.387-15.21-14.812-33.114-14.812-52.262 0-28.321 11.858-53.923 30.867-72.106zm68.941 171.913c-28.507 0-54.258-12.016-72.462-31.245 1.286-18.212 9.354-35.151 22.599-47.656 13.45 11.449 30.857 18.38 49.863 18.38 18.627 0 36.205-6.75 49.879-18.364 13.235 12.502 21.297 29.436 22.583 47.641-18.205 19.229-43.956 31.244-72.462 31.244z"/></svg>