<svg id="Capa_1" enable-background="new 0 0 514.205 514.205" height="512" viewBox="0 0 514.205 514.205" width="512" xmlns="http://www.w3.org/2000/svg"><path d="m438.209 93.061h57.804c9.445 0 17.128-7.684 17.128-17.128v-57.804c.001-9.445-7.683-17.129-17.128-17.129h-57.804c-9.445 0-17.128 7.684-17.128 17.129v21.401h-61.247c-4.142 0-7.5 3.357-7.5 7.5v60.828h-43.348v-86.268c0-11.904-9.685-21.59-21.589-21.59h-125.341c-11.905 0-21.59 9.686-21.59 21.59v86.269h-20.278c-8.208 0-14.887 6.678-14.887 14.887v127.357h-19.939v-36.021c0-9.239-7.517-16.757-16.757-16.757h-50.785c-9.239 0-16.756 7.518-16.756 16.757v85.041c0 9.239 7.517 16.757 16.756 16.757h50.785c9.24 0 16.757-7.518 16.757-16.757v-34.021h19.939v125.358c0 8.209 6.678 14.887 14.887 14.887h20.278v86.269c0 11.904 9.685 21.59 21.59 21.59h125.342c11.904 0 21.589-9.686 21.589-21.59v-32.547c0-4.143-3.358-7.5-7.5-7.5s-7.5 3.357-7.5 7.5v32.547c0 3.634-2.956 6.59-6.589 6.59h-125.342c-3.634 0-6.59-2.956-6.59-6.59v-187.539c0-3.633 2.956-6.589 6.59-6.589h125.342c3.633 0 6.589 2.956 6.589 6.589v123.008c0 4.143 3.358 7.5 7.5 7.5s7.5-3.357 7.5-7.5v-19.738h43.348v60.828c0 4.143 3.358 7.5 7.5 7.5h61.247v21.401c0 9.445 7.684 17.129 17.128 17.129h57.804c9.445 0 17.128-7.684 17.128-17.129v-57.804c0-9.445-7.684-17.129-17.128-17.129h-13.041c-4.142 0-7.5 3.357-7.5 7.5s3.358 7.5 7.5 7.5h13.041c1.174 0 2.128.955 2.128 2.129v57.804c0 1.174-.955 2.129-2.128 2.129h-57.804c-1.174 0-2.128-.955-2.128-2.129v-57.804c0-1.174.955-2.129 2.128-2.129h12.779c4.142 0 7.5-3.357 7.5-7.5s-3.358-7.5-7.5-7.5h-12.779c-9.445 0-17.128 7.684-17.128 17.129v21.402h-53.747v-121.655h53.747v21.401c0 9.445 7.684 17.129 17.128 17.129h57.804c9.445 0 17.128-7.684 17.128-17.129v-57.804c0-9.444-7.684-17.128-17.128-17.128h-57.804c-9.445 0-17.128 7.684-17.128 17.128v21.402h-61.247c-4.142 0-7.5 3.357-7.5 7.5v60.828h-43.348v-88.27c0-11.904-9.685-21.589-21.589-21.589h-125.342c-11.905 0-21.59 9.685-21.59 21.589v86.27h-20.165v-267.488h20.165v29.821c0 4.143 3.358 7.5 7.5 7.5s7.5-3.357 7.5-7.5v-131.089c0-3.634 2.956-6.59 6.59-6.59h125.342c3.633 0 6.589 2.956 6.589 6.59v187.538c0 3.633-2.956 6.589-6.589 6.589h-125.342c-3.634 0-6.59-2.956-6.59-6.589v-24.465c0-4.143-3.358-7.5-7.5-7.5s-7.5 3.357-7.5 7.5v24.465c0 11.904 9.685 21.589 21.59 21.589h125.342c11.904 0 21.589-9.685 21.589-21.589v-86.27h43.348v60.828c0 4.143 3.358 7.5 7.5 7.5h61.247v21.402c0 9.444 7.684 17.128 17.128 17.128h57.804c9.445 0 17.128-7.684 17.128-17.128v-57.804c0-9.445-7.684-17.129-17.128-17.129h-57.804c-9.445 0-17.128 7.684-17.128 17.129v21.401h-53.747v-121.655h53.747v21.402c-.001 9.445 7.683 17.129 17.127 17.129zm-367.847 206.062c0 .969-.788 1.757-1.757 1.757h-50.785c-.968 0-1.756-.788-1.756-1.757v-85.041c0-.969.788-1.757 1.756-1.757h50.785c.969 0 1.757.788 1.757 1.757zm365.719 3.493c0-1.174.955-2.128 2.128-2.128h57.804c1.174 0 2.128.954 2.128 2.128v57.804c0 1.174-.955 2.129-2.128 2.129h-57.804c-1.174 0-2.128-.955-2.128-2.129zm0-147.831c0-1.174.955-2.129 2.128-2.129h57.804c1.174 0 2.128.955 2.128 2.129v57.804c0 1.174-.955 2.128-2.128 2.128h-57.804c-1.174 0-2.128-.954-2.128-2.128zm0-136.656c0-1.174.955-2.129 2.128-2.129h57.804c1.174 0 2.128.955 2.128 2.129v57.804c0 1.174-.955 2.128-2.128 2.128h-57.804c-1.174 0-2.128-.954-2.128-2.128z"/></svg>