<svg id="Capa_1" enable-background="new 0 0 513.32 513.32" height="512" viewBox="0 0 513.32 513.32" width="512" xmlns="http://www.w3.org/2000/svg"><g><path d="m28.706 133.611c4.142 0 7.5-3.357 7.5-7.5v-61.939c0-27.113 22.058-49.172 49.172-49.172h.392l8.33 19.495c4.851 11.353 15.96 18.688 28.305 18.688h84.823c12.344 0 23.454-7.335 28.305-18.687l8.328-19.496h.391c27.113 0 49.172 22.059 49.172 49.172v39.447c0 4.143 3.357 7.5 7.5 7.5s7.5-3.357 7.5-7.5v-39.447c.001-35.385-28.787-64.172-64.171-64.172h-158.875c-35.385 0-64.172 28.787-64.172 64.172v61.939c0 4.143 3.358 7.5 7.5 7.5zm193.032-105.008c-2.486 5.819-8.182 9.58-14.511 9.58h-84.823c-6.328 0-12.024-3.761-14.511-9.581l-5.811-13.602h125.468z"/><path d="m300.925 427.173c-4.143 0-7.5 3.357-7.5 7.5v13.097c0 27.113-22.059 49.172-49.172 49.172h-158.875c-27.113 0-49.171-22.059-49.171-49.172v-289.674c0-4.143-3.358-7.5-7.5-7.5s-7.5 3.357-7.5 7.5v289.674c0 35.385 28.787 64.172 64.171 64.172h158.875c35.385 0 64.172-28.787 64.172-64.172v-13.097c0-4.143-3.358-7.5-7.5-7.5z"/><path d="m484.614 327.677c-4.109 0-7.446 3.309-7.499 7.405l-.261 15.834c-.21 12.826-2.485 24.979-6.761 36.12-.598 1.557-1.242 3.123-1.917 4.656l-4.099 9.326c-.869 1.978-1.31 4.075-1.31 6.235v98.566c0 4.143 3.357 7.5 7.5 7.5s7.5-3.357 7.5-7.5v-98.566c0-.069.015-.139.042-.201l4.098-9.322c.77-1.75 1.507-3.54 2.189-5.319 4.906-12.785 7.516-26.663 7.755-41.249l.261-15.858c.001-.041.001-.089.001-.13.001-4.143-3.356-7.497-7.499-7.497z"/><path d="m462.208 199.734c-6.75 0-12.983 2.247-17.994 6.033-4.89-9.873-15.074-16.678-26.818-16.678-7.018 0-13.479 2.43-18.586 6.493-5.09-9.256-14.938-15.542-26.226-15.542-7.439 0-14.247 2.736-19.485 7.248-.751-1.039-1.585-2.028-2.508-2.954l-60.547-60.744c-11.642-11.679-30.613-11.711-42.294-.067-5.657 5.639-8.78 13.144-8.793 21.132-.013 7.989 3.086 15.504 8.725 21.161l16.192 16.246c2.924 2.933 7.672 2.939 10.607.018 2.934-2.925 2.941-7.673.018-10.607l-16.193-16.246c-2.811-2.819-4.355-6.565-4.349-10.547s1.562-7.723 4.383-10.533c5.82-5.802 15.276-5.787 21.081.034l60.546 60.743c1.748 1.754 2.711 4.084 2.711 6.56v54.878c0 4.143 3.357 7.5 7.5 7.5s7.5-3.357 7.5-7.5v-46.414c0-8.22 6.687-14.906 14.906-14.906s14.906 6.687 14.906 14.906v46.414c0 4.143 3.357 7.5 7.5 7.5s7.5-3.357 7.5-7.5v-37.365c0-8.22 6.687-14.906 14.905-14.906 8.22 0 14.906 6.687 14.906 14.906v37.365c0 4.143 3.357 7.5 7.5 7.5s7.5-3.357 7.5-7.5v-26.721c0-8.22 6.687-14.906 14.906-14.906s14.906 6.687 14.906 14.906v73.549c0 4.143 3.357 7.5 7.5 7.5s7.5-3.357 7.5-7.5v-73.549c.001-16.491-13.415-29.907-29.905-29.907z"/><path d="m328.918 394.735c-.404-.093-.808-.189-1.209-.29-9.513-2.388-18.371-7.6-25.617-15.072-2.884-2.975-7.632-3.048-10.605-.164s-3.047 7.632-.164 10.605c8.867 9.144 19.712 15.639 31.438 18.84v96.393c0 4.143 3.357 7.5 7.5 7.5s7.5-3.357 7.5-7.5v-100.428c-.001-5.111-3.876-9.334-8.843-9.884z"/><path d="m271.18 254.872c-11.311-12.298-30.154-13.871-42.899-3.579-12.559 10.14-15.26 28.518-6.149 41.839l48.97 71.6c1.453 2.124 3.804 3.267 6.197 3.267 1.458 0 2.933-.425 4.228-1.311 3.419-2.338 4.295-7.006 1.956-10.425l-48.97-71.6c-4.725-6.908-3.323-16.44 3.191-21.7 6.609-5.333 16.462-4.429 22.435 2.062l29.264 31.825c3.796 4.129 9.624 5.48 14.856 3.444 5.228-2.038 8.605-6.98 8.605-12.592v-70.344c0-4.769-1.854-9.255-5.221-12.634l-14.038-14.083c-2.924-2.934-7.673-2.942-10.606-.017-2.934 2.924-2.941 7.673-.017 10.606l14.037 14.082c.545.547.845 1.273.845 2.045v66.532z"/><path d="m201.592 135.125c1.437 2.212 3.842 3.415 6.296 3.415 1.4 0 2.817-.392 4.079-1.212 3.474-2.256 4.46-6.901 2.204-10.375l-9.521-14.657c-1.582-2.436-4.018-4.109-6.859-4.713s-5.745-.064-8.181 1.519l-14.657 9.521c-3.474 2.256-4.46 6.901-2.204 10.375 2.257 3.474 6.904 4.461 10.375 2.203l2.301-1.495-24.732 116.437-1.495-2.301c-2.257-3.475-6.903-4.46-10.375-2.203-3.474 2.256-4.46 6.901-2.204 10.375l9.521 14.656c2.08 3.202 5.573 4.946 9.134 4.946 2.029 0 4.081-.565 5.906-1.751l14.658-9.522c3.474-2.256 4.46-6.901 2.204-10.375-2.257-3.474-6.902-4.461-10.375-2.203l-2.3 1.494 24.732-116.436z"/></g></svg>