<svg id="Capa_1" enable-background="new 0 0 511.379 511.379" height="512" viewBox="0 0 511.379 511.379" width="512" xmlns="http://www.w3.org/2000/svg"><g><path d="m462.542 61.008v-42.838c0-10.019-8.151-18.17-18.17-18.17h-358.334c-10.019 0-18.17 8.151-18.17 18.17v435.13h-33.814c-3.591 0-7.007 1.549-9.375 4.248-2.381 2.717-3.476 6.333-3.002 9.924 3.304 25.031 24.86 43.907 50.143 43.907h340.148c.285 0 .57-.002.856-.007 27.415-.458 49.718-23.463 49.718-51.281v-18.47c.858-.8 1.61-1.727 2.187-2.792l23.752-43.841c.731-1.35 1.153-2.85 1.276-4.377.033-.286.054-.576.054-.871v-301.313c-.001-15.069-12.22-27.335-27.269-27.419zm-27.269 76.001h39.537v13.503h-39.537zm39.537-48.582v33.582h-39.537v-33.582c0-6.85 5.573-12.423 12.424-12.423h14.689c6.851 0 12.424 5.573 12.424 12.423zm-402.991 407.952c-16.832 0-31.316-11.888-34.789-28.079h324.906c1.581 10.627 6.501 20.433 14.075 28.079zm340.755-.005c-.205.003-.408-.004-.611.005h-.076c-18.012-.05-33.454-13.919-35.312-31.861-.662-6.396-5.998-11.218-12.412-11.218h-281.295v-435.13c0-1.748 1.422-3.17 3.17-3.17h358.334c1.748 0 3.17 1.422 3.17 3.17v42.838c-15.05.084-27.269 12.35-27.269 27.419v219.911c0 4.143 3.357 7.5 7.5 7.5s7.5-3.357 7.5-7.5v-142.826h39.537v216.728h-39.537v-41.919c0-4.143-3.357-7.5-7.5-7.5s-7.5 3.357-7.5 7.5v49.419c0 .295.021.584.054.871.122 1.528.544 3.027 1.276 4.376l23.752 43.842c.577 1.065 1.329 1.991 2.187 2.792v18.47c0 19.684-15.687 35.961-34.968 36.283zm42.468-71.155-15.158-27.979h30.316z"/><path d="m386.95 39.261h-55.446c-8.185 0-14.843 6.659-14.843 14.844v364.068c0 8.185 6.658 14.843 14.843 14.843h55.446c8.185 0 14.844-6.658 14.844-14.843v-272.472c0-4.143-3.357-7.5-7.5-7.5s-7.5 3.357-7.5 7.5v272.314h-55.133v-37.981h15.792c4.143 0 7.5-3.357 7.5-7.5s-3.357-7.5-7.5-7.5h-15.792v-31.132h15.792c4.143 0 7.5-3.357 7.5-7.5s-3.357-7.5-7.5-7.5h-15.792v-31.132h15.792c4.143 0 7.5-3.357 7.5-7.5s-3.357-7.5-7.5-7.5h-15.792v-31.132h15.792c4.143 0 7.5-3.357 7.5-7.5s-3.357-7.5-7.5-7.5h-15.792v-31.133h15.792c4.143 0 7.5-3.357 7.5-7.5s-3.357-7.5-7.5-7.5h-15.792v-31.132h15.792c4.143 0 7.5-3.357 7.5-7.5s-3.357-7.5-7.5-7.5h-15.792v-31.132h15.792c4.143 0 7.5-3.357 7.5-7.5s-3.357-7.5-7.5-7.5h-15.792v-33.98h55.133v59.457c0 4.143 3.357 7.5 7.5 7.5s7.5-3.357 7.5-7.5v-59.614c0-8.184-6.659-14.843-14.844-14.843z"/><path d="m282.379 46.934h-165.229c-8.089 0-14.669 6.58-14.669 14.669v136.213c0 8.089 6.58 14.67 14.669 14.67h39.073c4.143 0 7.5-3.357 7.5-7.5s-3.357-7.5-7.5-7.5h-25.623l69.165-57.989 69.165 57.989h-80.721c-4.143 0-7.5 3.357-7.5 7.5s3.357 7.5 7.5 7.5h94.171c8.089 0 14.669-6.581 14.669-14.67v-136.213c-.001-8.089-6.581-14.669-14.67-14.669zm-13.45 15-69.165 57.989-69.164-57.989zm-151.448 126.976v-118.401l70.61 59.201zm164.567-118.401v118.401l-70.61-59.201z"/><path d="m286.204 232.338h-172.879c-5.979 0-10.844 4.864-10.844 10.844v83.711c0 5.979 4.864 10.844 10.844 10.844h172.879c5.979 0 10.844-4.864 10.844-10.844v-83.711c0-5.98-4.864-10.844-10.844-10.844zm-168.723 19.673 65.604 33.027-65.604 33.027zm24.077-4.673h116.413l-58.207 29.303zm58.207 46.097 58.205 29.302h-116.41zm16.679-8.397 65.604-33.027v66.054z"/><path d="m117.824 374.775h-7.843c-4.143 0-7.5 3.357-7.5 7.5s3.357 7.5 7.5 7.5h7.843c4.143 0 7.5-3.357 7.5-7.5s-3.357-7.5-7.5-7.5z"/><path d="m285.746 374.775h-7.843c-4.143 0-7.5 3.357-7.5 7.5s3.357 7.5 7.5 7.5h7.843c4.143 0 7.5-3.357 7.5-7.5s-3.357-7.5-7.5-7.5z"/><path d="m247.241 374.775h-99.419c-4.143 0-7.5 3.357-7.5 7.5s3.357 7.5 7.5 7.5h99.419c4.143 0 7.5-3.357 7.5-7.5s-3.357-7.5-7.5-7.5z"/></g></svg>