<svg id="Capa_1" enable-background="new 0 0 512.127 512.127" height="512" viewBox="0 0 512.127 512.127" width="512" xmlns="http://www.w3.org/2000/svg"><g><path d="m470.465 47.588c-3.574-.497-7.201.577-9.931 2.952-2.726 2.372-4.288 5.804-4.288 9.415v22.61h-400.365v-22.61c0-3.611-1.562-7.044-4.288-9.415-2.729-2.375-6.352-3.45-9.93-2.952-23.752 3.305-41.663 23.904-41.663 47.918v320.771c0 26.678 21.703 48.382 48.381 48.382h415.365c26.678 0 48.381-21.704 48.381-48.382v-320.771c0-24.014-17.911-44.613-41.662-47.918zm-455.465 47.918c0-15.594 10.939-29.1 25.881-32.536v305.503c-10.025 1.556-18.949 6.129-25.881 12.732zm448.746 354.152h-415.365c-18.406 0-33.381-14.974-33.381-33.382 0-17.071 12.774-31.337 29.715-33.183 6.366-.695 11.166-6.027 11.166-12.404v-273.123h400.365v40.294c0 4.143 3.357 7.5 7.5 7.5s7.5-3.357 7.5-7.5v-74.89c14.941 3.435 25.881 16.941 25.881 32.536v285.711c-6.933-6.606-15.852-11.19-25.881-12.745v-198.628c0-4.143-3.357-7.5-7.5-7.5s-7.5 3.357-7.5 7.5v200.846c0 6.377 4.8 11.709 11.167 12.404 16.939 1.846 29.714 16.111 29.714 33.183 0 18.407-14.975 33.381-33.381 33.381z"/><path d="m114.958 294.7h90.78c6.057 0 10.984-4.928 10.984-10.984v-71.138c0-6.057-4.928-10.984-10.984-10.984h-90.78c-6.057 0-10.984 4.928-10.984 10.984v71.138c0 6.057 4.927 10.984 10.984 10.984zm86.765-23.093-29.36-23.46 29.36-23.46zm-13.9 8.093h-54.949l27.474-21.954zm-27.475-41.154-27.473-21.953h54.946zm-12.015 9.601-29.36 23.46v-46.92z"/><path d="m419.347 134.138h-131.136c-10.568 0-19.167 8.599-19.167 19.168v144.809h-23.961v-144.809c0-10.569-8.599-19.168-19.167-19.168h-131.136c-10.569 0-19.168 8.599-19.168 19.168v66.219c0 4.143 3.357 7.5 7.5 7.5s7.5-3.357 7.5-7.5v-33.51h139.471v204.32c0 2.298-1.869 4.168-4.167 4.168h-131.136c-2.298 0-4.168-1.87-4.168-4.168v-138.826c0-4.143-3.357-7.5-7.5-7.5s-7.5 3.357-7.5 7.5v138.826c0 10.569 8.599 19.168 19.168 19.168h131.136c10.568 0 19.167-8.599 19.167-19.168v-77.221h23.961v77.221c0 10.569 8.599 19.168 19.167 19.168h131.136c10.569 0 19.168-8.599 19.168-19.168v-50.357c0-4.143-3.357-7.5-7.5-7.5s-7.5 3.357-7.5 7.5v50.357c0 2.298-1.87 4.168-4.168 4.168h-131.136c-2.298 0-4.167-1.87-4.167-4.168v-204.32h139.471v121.979c0 4.143 3.357 7.5 7.5 7.5s7.5-3.357 7.5-7.5v-154.688c0-10.57-8.599-19.168-19.168-19.168zm-328.735 36.877v-17.709c0-2.298 1.87-4.168 4.168-4.168h131.136c2.298 0 4.167 1.87 4.167 4.168v17.709zm193.432 0v-17.709c0-2.298 1.869-4.168 4.167-4.168h131.136c2.298 0 4.168 1.87 4.168 4.168v17.709z"/><path d="m410.153 212.578c0-6.057-4.928-10.984-10.984-10.984h-90.78c-6.057 0-10.984 4.928-10.984 10.984v71.138c0 6.057 4.928 10.984 10.984 10.984h90.78c6.057 0 10.984-4.928 10.984-10.984zm-97.749 12.109 29.36 23.46-29.36 23.46zm13.902-8.093h54.946l-27.473 21.953zm27.473 41.153 27.474 21.954h-54.949zm12.014-9.6 29.36-23.46v46.92z"/><path d="m111.474 325.279h96.173c4.143 0 7.5-3.357 7.5-7.5s-3.357-7.5-7.5-7.5h-96.173c-4.143 0-7.5 3.357-7.5 7.5s3.357 7.5 7.5 7.5z"/><path d="m111.474 360.464h96.173c4.143 0 7.5-3.357 7.5-7.5s-3.357-7.5-7.5-7.5h-96.173c-4.143 0-7.5 3.357-7.5 7.5s3.357 7.5 7.5 7.5z"/><path d="m402.653 310.279h-96.173c-4.143 0-7.5 3.357-7.5 7.5s3.357 7.5 7.5 7.5h96.173c4.143 0 7.5-3.357 7.5-7.5s-3.357-7.5-7.5-7.5z"/><path d="m402.653 345.464h-96.173c-4.143 0-7.5 3.357-7.5 7.5s3.357 7.5 7.5 7.5h96.173c4.143 0 7.5-3.357 7.5-7.5s-3.357-7.5-7.5-7.5z"/></g></svg>