<svg id="Capa_1" enable-background="new 0 0 515.354 515.354" height="512" viewBox="0 0 515.354 515.354" width="512" xmlns="http://www.w3.org/2000/svg"><g><path d="m479.044 69.584 5.346-36.725c.599-4.112-.744-8.155-3.682-11.094-2.938-2.938-6.982-4.281-11.094-3.682l-41.173 5.994c-26.605-15.767-56.976-24.077-88.07-24.077-.221 0-.446 0-.667.001-46.508.177-90.141 18.714-122.863 52.198-32.745 33.508-50.286 77.598-49.391 124.146.863 44.913 18.853 87.153 50.654 118.939 31.802 31.788 74.053 49.758 118.97 50.6 1.09.021 2.174.03 3.261.03 45.062-.001 87.773-17.532 120.582-49.576 33.575-32.792 52.19-76.304 52.415-122.521.185-37.988-11.661-73.958-34.288-104.233zm-28.608 216.023c-29.987 29.287-68.982 45.31-110.11 45.308-.987 0-1.982-.01-2.971-.028-41.018-.768-79.603-17.179-108.647-46.21-29.043-29.03-45.472-67.605-46.261-108.62-.817-42.499 15.208-82.763 45.122-113.374 29.891-30.587 69.734-47.521 112.192-47.682.203-.001.406-.001.609-.001 29.237 0 57.775 8.043 82.569 23.277 1.497.919 3.268 1.283 5.007 1.031l41.221-6.001-5.42 37.233c-.293 2.017.247 4.067 1.496 5.678 21.82 28.123 33.262 61.847 33.088 97.526-.205 42.172-17.214 81.899-47.895 111.863z"/><path d="m339.493 360.992c-4.091-.662-7.941 2.113-8.605 6.202-5.895 36.317-24.704 69.833-52.962 94.372-28.592 24.83-64.888 38.604-102.202 38.786-.268.001-.533.002-.8.002-35.381 0-68.812-11.434-96.725-33.091-1.611-1.25-3.663-1.793-5.678-1.496l-37.233 5.42 6.001-41.222c.253-1.738-.112-3.51-1.032-5.006-10.437-16.986-17.469-35.536-20.901-55.133-.715-4.081-4.6-6.812-8.682-6.094-4.08.715-6.808 4.602-6.094 8.682 3.603 20.57 10.825 40.085 21.478 58.048l-5.994 41.173c-.599 4.112.744 8.156 3.682 11.094s6.979 4.285 11.093 3.682l36.725-5.346c30.044 22.453 65.691 34.29 103.357 34.289.291 0 .585-.001.876-.002 40.9-.199 80.663-15.278 111.963-42.46 30.903-26.836 51.478-63.521 57.934-103.296.664-4.087-2.113-7.94-6.201-8.604z"/><path d="m9.524 346.548c4.072 0 7.414-3.26 7.496-7.35 1.495-74.585 55.911-138.572 129.387-152.146 4.073-.752 6.766-4.664 6.013-8.737-.752-4.073-4.666-6.763-8.737-6.013-80.447 14.861-140.023 84.926-141.661 166.595-.083 4.142 3.207 7.565 7.348 7.648.052.003.103.003.154.003z"/><path d="m409.486 188.416c-1.463-3.874-5.79-5.833-9.665-4.368-3.875 1.462-5.832 5.789-4.369 9.665l10.188 26.994c1.655 4.386-.566 9.3-4.952 10.955-.969.365-1.978.551-2.999.551-3.516.001-6.712-2.211-7.955-5.503l-8.958-23.736c-1.102-2.919-3.896-4.852-7.017-4.852h-61.664c-3.112 0-5.901 1.922-7.009 4.83l-9.058 23.781c-1.668 4.38-6.589 6.588-10.968 4.919-4.38-1.668-6.586-6.589-4.918-10.969l52.131-136.875.072-.182c1.795-4.392 6.022-7.233 10.78-7.238 4.74 0 8.967 2.833 10.772 7.223l30.236 80.108c1.462 3.873 5.788 5.831 9.665 4.368 3.875-1.462 5.832-5.789 4.369-9.665l-30.145-79.877c-.082-.219-.168-.436-.254-.646-4.125-10.03-13.798-16.512-24.671-16.512-10.857.013-20.528 6.514-24.632 16.552-.075.184-.147.367-.213.541l-52.126 136.864c-4.612 12.108 1.488 25.712 13.597 30.324 12.111 4.613 25.713-1.488 30.325-13.597l7.218-18.951h51.309l7.127 18.885c3.433 9.096 12.268 15.207 21.986 15.206h.003c2.836 0 5.627-.511 8.295-1.518 12.123-4.575 18.264-18.16 13.689-30.284z"/><path d="m343.081 116.798h-.011c-3.112 0-5.901 1.922-7.009 4.83l-18.786 49.324c-.878 2.306-.566 4.896.833 6.926 1.4 2.031 3.708 3.244 6.175 3.244h37.4c2.462 0 4.769-1.209 6.169-3.234s1.717-4.609.848-6.914l-18.614-49.324c-1.1-2.916-3.889-4.847-7.005-4.852zm-7.916 49.324 7.872-20.668 7.8 20.668z"/><path d="m82.849 343.766c0 51.23 41.679 92.909 92.91 92.909 16.888 0 33.219-4.533 47.607-13.166l5.721 5.722c4.438 4.439 10.339 6.884 16.618 6.884 6.276 0 12.178-2.444 16.617-6.883 4.438-4.438 6.883-10.34 6.883-16.617s-2.445-12.179-6.883-16.616l-6.004-6.005c6.637-11.546 10.744-24.479 11.953-37.756.375-4.125-2.665-7.773-6.79-8.148-4.125-.383-7.774 2.664-8.149 6.789-1.169 12.849-5.58 25.314-12.754 36.049-1.989 2.976-1.598 6.94.932 9.471l10.206 10.207c1.605 1.605 2.49 3.739 2.49 6.01s-.884 4.405-2.489 6.01c-1.606 1.605-3.741 2.49-6.011 2.49-2.271 0-4.405-.884-6.01-2.49l-10.005-10.005c-2.566-2.566-6.603-2.926-9.584-.854-13.089 9.101-28.424 13.91-44.346 13.91-42.959 0-77.91-34.95-77.91-77.909 0-39.071 29.21-72.281 67.947-77.248 4.108-.527 7.012-4.285 6.485-8.394-.527-4.107-4.281-7.004-8.393-6.485-46.203 5.922-81.041 45.528-81.041 92.125z"/><path d="m217.912 351.589c-4.438-4.439-10.34-6.885-16.618-6.884-6.276 0-12.177 2.444-16.617 6.883-4.438 4.438-6.883 10.34-6.883 16.617s2.445 12.179 6.883 16.617l3.217 3.217c-3.939 1.08-8.027 1.636-12.136 1.636-22.813 0-42.36-17.033-45.467-39.622-.564-4.103-4.349-6.976-8.452-6.407-4.104.564-6.973 4.349-6.408 8.452 4.123 29.974 30.058 52.577 60.327 52.577 10.121 0 20.152-2.546 29.01-7.362 2.078-1.13 3.501-3.174 3.84-5.515.338-2.342-.447-4.705-2.12-6.378l-11.206-11.205c-1.605-1.605-2.49-3.739-2.49-6.01s.884-4.405 2.489-6.01c1.606-1.605 3.741-2.49 6.012-2.49 2.27 0 4.404.884 6.01 2.49l10.853 10.853c1.701 1.701 4.114 2.482 6.491 2.102 2.375-.381 4.424-1.878 5.508-4.025 4.321-8.562 6.512-17.766 6.512-27.358 0-4.14-.422-8.283-1.253-12.314-.837-4.058-4.804-6.674-8.86-5.831-4.057.837-6.667 4.804-5.83 8.86.626 3.037.944 6.161.944 9.285 0 3.543-.397 7.016-1.185 10.395z"/><path d="m185.902 283.717c-3.385-.571-6.798-.86-10.144-.86-22.836 0-43.569 12.64-54.107 32.985-1.905 3.678-.468 8.204 3.21 10.109 1.103.57 2.281.842 3.443.842 2.713 0 5.332-1.478 6.666-4.053 7.95-15.349 23.579-24.884 40.788-24.884 2.513 0 5.086.219 7.65.651 4.089.691 7.954-2.063 8.643-6.148.689-4.084-2.064-7.954-6.149-8.642z"/></g></svg>