<svg id="Capa_1" enable-background="new 0 0 512.559 512.559" height="512" viewBox="0 0 512.559 512.559" width="512" xmlns="http://www.w3.org/2000/svg"><g><path d="m229.557 173.703h-97.56v-17.91h16.12c4.265 0 8.075-2.546 9.707-6.485s.739-8.435-2.276-11.45c0 0-.001-.001-.001-.001l-5.363-5.362v-9.685l13.375-23.534c2.137-3.762 2.114-8.239-.062-11.979-2.176-3.738-6.058-5.971-10.383-5.971h-57.233c-4.326 0-8.208 2.232-10.384 5.971s-2.199 8.217-.062 11.979l13.375 23.534v9.684l-5.364 5.363c-3.015 3.016-3.909 7.511-2.276 11.45s5.442 6.485 9.707 6.485h16.121v17.91h-97.561c-10.718.001-19.437 8.72-19.437 19.438v218.656c0 10.718 8.719 19.437 19.437 19.437h151.172c5.192 0 10.073-2.021 13.744-5.692l58.948-58.948c3.671-3.671 5.693-8.552 5.693-13.744v-159.709c0-10.718-8.72-19.437-19.437-19.437zm-117.316-57.619-11.229-19.758h46.968l-11.231 19.763c-1.025 1.806-1.566 3.856-1.566 5.932v11.71c0 2.572.803 5.021 2.292 7.062h-25.956c1.488-2.04 2.292-4.489 2.292-7.062v-11.71c0-2.076-.543-4.129-1.57-5.937zm-97.241 295.712v-218.656c0-2.446 1.99-4.437 4.437-4.437h97.561v15.712c0 4.143 3.358 7.5 7.5 7.5s7.5-3.357 7.5-7.5v-15.712h97.56c2.446 0 4.437 1.99 4.437 4.437v156.765h-41.652c-13.18 0-23.902 10.722-23.902 23.901v42.427h-149.004c-2.447 0-4.437-1.991-4.437-4.437zm168.44-6.557v-31.433c0-4.908 3.993-8.901 8.902-8.901h31.433z"/><path d="m493.123 173.703h-21.933c-4.142 0-7.5 3.357-7.5 7.5s3.358 7.5 7.5 7.5h21.933c2.446 0 4.437 1.99 4.437 4.437v156.765h-41.652c-13.179 0-23.901 10.722-23.901 23.901v42.427h-86.509c-4.142 0-7.5 3.357-7.5 7.5s3.358 7.5 7.5 7.5h88.677c5.192 0 10.074-2.021 13.744-5.692l58.948-58.948c3.671-3.671 5.693-8.552 5.693-13.744v-159.709c-.001-10.718-8.72-19.437-19.437-19.437zm-46.118 231.536v-31.433c0-4.908 3.993-8.901 8.901-8.901h31.433z"/><path d="m313.534 416.233h-30.532c-2.446 0-4.437-1.99-4.437-4.437v-218.656c0-2.446 1.99-4.437 4.437-4.437h97.56v15.712c0 4.143 3.358 7.5 7.5 7.5s7.5-3.357 7.5-7.5v-15.712h43.666c4.142 0 7.5-3.357 7.5-7.5s-3.358-7.5-7.5-7.5h-43.666v-17.91h16.121c4.265 0 8.075-2.546 9.707-6.485s.739-8.435-2.276-11.45c0 0-.001-.001-.001-.001l-5.363-5.362v-9.684l13.375-23.535c2.137-3.762 2.114-8.239-.062-11.979-2.176-3.738-6.058-5.971-10.384-5.971h-57.231c-4.326 0-8.208 2.232-10.383 5.971-2.176 3.739-2.199 8.217-.062 11.979l13.374 23.533v9.685l-5.363 5.362c-3.016 3.017-3.91 7.511-2.278 11.45 1.632 3.94 5.442 6.486 9.707 6.486h16.12v17.91h-97.56c-10.717 0-19.437 8.719-19.437 19.437v218.656c0 10.718 8.719 19.437 19.437 19.437h30.532c4.142 0 7.5-3.357 7.5-7.5s-3.359-7.499-7.501-7.499zm62.273-300.149-11.229-19.758h46.968l-11.229 19.759c-1.026 1.807-1.569 3.859-1.569 5.936v11.71c0 2.573.803 5.022 2.292 7.062h-25.956c1.488-2.04 2.292-4.489 2.292-7.062v-11.71c-.001-2.075-.542-4.126-1.569-5.937z"/><path d="m194.207 258.008c8.581-8.961 8.271-23.232-.69-31.813-4.341-4.156-10.029-6.391-16.048-6.243-6.009.13-11.608 2.593-15.764 6.934l-68.114 71.132-8.308-8.671c-4.159-4.34-9.758-6.8-15.768-6.928-5.998-.119-11.708 2.093-16.045 6.251-8.957 8.585-9.261 22.855-.677 31.813l24.56 25.628c4.222 4.405 10.143 6.932 16.25 6.932 6.104-.001 12.025-2.53 16.246-6.938l34.151-35.666c2.865-2.992 2.762-7.74-.23-10.604-2.992-2.865-7.739-2.763-10.604.229l-34.151 35.666c-1.407 1.469-3.381 2.312-5.417 2.312-2.034 0-4.008-.842-5.415-2.311l-24.56-25.628c-2.861-2.985-2.76-7.743.227-10.605 1.446-1.386 3.335-2.14 5.348-2.083 2.003.042 3.87.862 5.256 2.31l13.725 14.323c1.415 1.477 3.371 2.311 5.417 2.311 2.045 0 4.001-.836 5.416-2.312l73.53-76.787c1.385-1.447 3.25-2.268 5.253-2.311 2.005-.082 3.904.696 5.351 2.081 1.447 1.386 2.268 3.251 2.311 5.254s-.696 3.903-2.082 5.35l-28.046 29.288c-2.865 2.992-2.762 7.739.23 10.604 2.99 2.863 7.738 2.762 10.604-.229z"/><path d="m368.369 340.385 20.123-21.016 20.123 21.015c4.284 4.476 10.056 6.939 16.253 6.939 5.826 0 11.352-2.22 15.559-6.249 4.341-4.156 6.804-9.755 6.934-15.764.13-6.008-2.087-11.708-6.244-16.049l-21.473-22.424 22.13-23.11c4.157-4.341 6.374-10.041 6.244-16.049-.13-6.009-2.593-11.607-6.934-15.764s-10.055-6.387-16.048-6.244c-6.01.13-11.608 2.593-15.764 6.934l-20.78 21.701-20.78-21.701c-8.579-8.958-22.85-9.269-31.812-.689-4.341 4.156-6.803 9.755-6.933 15.764-.13 6.008 2.087 11.708 6.244 16.049l22.13 23.11-21.473 22.424c-4.157 4.341-6.374 10.041-6.244 16.049.13 6.009 2.592 11.607 6.934 15.765 4.209 4.029 9.734 6.248 15.559 6.248 6.106-.001 12.03-2.53 16.252-6.939zm-23.75-15.398c-.043-2.003.696-3.903 2.082-5.35l26.44-27.611c2.777-2.9 2.777-7.475 0-10.375l-27.097-28.298c-1.386-1.446-2.125-3.347-2.082-5.35s.864-3.868 2.311-5.253c2.988-2.86 7.745-2.758 10.605.229l26.197 27.357c1.415 1.477 3.372 2.312 5.417 2.312s4.002-.836 5.417-2.312l26.198-27.358c1.385-1.447 3.25-2.268 5.253-2.311 2.022-.076 3.904.696 5.35 2.081 1.447 1.386 2.268 3.252 2.311 5.254.043 2.003-.695 3.903-2.081 5.35l-27.097 28.298c-2.777 2.9-2.777 7.475 0 10.375l26.44 27.611c1.386 1.446 2.125 3.347 2.081 5.35-.043 2.002-.864 3.868-2.312 5.254-1.402 1.344-3.244 2.083-5.185 2.083-2.066 0-3.991-.821-5.419-2.313l-25.54-26.672c-1.415-1.477-3.372-2.312-5.417-2.312s-4.002.836-5.417 2.312l-25.54 26.673c-1.428 1.491-3.352 2.312-5.418 2.312-1.941 0-3.783-.74-5.186-2.083-1.447-1.385-2.267-3.25-2.311-5.253z"/></g></svg>