<svg id="Capa_1" enable-background="new 0 0 510.155 510.155" height="512" viewBox="0 0 510.155 510.155" width="512" xmlns="http://www.w3.org/2000/svg"><g><path d="m481.401 237.54c0-.038-.002-.076-.003-.114-.058-10.169-3.973-19.788-11.05-27.104l-34.733-35.912v-90.919c0-8.818-7.174-15.993-15.992-15.993h-87.413l-57.044-58.979c-5.312-5.494-12.446-8.519-20.088-8.519-7.641 0-14.776 3.025-20.088 8.519l-57.045 58.979h-87.412c-8.818 0-15.993 7.175-15.993 15.993v90.919l-34.734 35.912c-7.075 7.315-10.99 16.931-11.049 27.099-.001.041-.002.083-.003.124 0 .036-.003.072-.003.108v233.188c0 .029.002.057.002.085 0 .042.002.084.003.127.115 21.58 17.702 39.102 39.309 39.102h374.023c21.678 0 39.314-17.637 39.314-39.314v-233.188c.002-.038-.001-.075-.001-.113zm-21.834-16.79c3.544 3.665 5.805 8.263 6.557 13.22l-30.509 21.58v-59.564zm-213.796-201.804c2.461-2.545 5.766-3.946 9.307-3.946 3.54 0 6.844 1.401 9.306 3.946l46.959 48.552h-112.531zm-155.238 63.552h329.089c.547 0 .992.445.992.993v182.668l-45.7 32.324c-3.382 2.392-4.184 7.072-1.792 10.454 1.462 2.066 3.777 3.17 6.13 3.17 1.497 0 3.009-.447 4.324-1.378l82.827-58.585v203.998l-145.007-101.432 35.894-25.388c3.382-2.392 4.184-7.072 1.792-10.454-2.393-3.381-7.071-4.186-10.454-1.792l-79.582 56.289c-8.355 5.91-19.582 5.91-27.936 0l-151.57-107.206v-182.668c0-.548.446-.993.993-.993zm-46.781 169.647 145.018 102.573-145.018 101.703zm30.788-56.159v59.563l-30.508-21.579c.752-4.957 3.013-9.555 6.557-13.22zm367.549 299.169h-374.023c-12.148 0-22.243-8.955-24.032-20.61l157.743-110.627 30.67 21.693c6.768 4.787 14.699 7.181 22.63 7.181s15.862-2.394 22.63-7.181l30.677-21.698 157.773 110.361c-1.675 11.787-11.827 20.881-24.068 20.881z"/><path d="m319.535 141.79h56.546v35.699h-183.984c-4.142 0-7.5 3.357-7.5 7.5s3.358 7.5 7.5 7.5h186.433c6.921 0 12.551-5.63 12.551-12.551v-40.598c0-6.921-5.63-12.551-12.551-12.551h-58.995c-4.143 0-7.5 3.357-7.5 7.5s3.358 7.501 7.5 7.501z"/><path d="m131.624 192.489h28.511c4.142 0 7.5-3.357 7.5-7.5s-3.358-7.5-7.5-7.5h-26.062v-35.699h153.5c4.143 0 7.5-3.357 7.5-7.5s-3.357-7.5-7.5-7.5h-155.949c-6.92 0-12.551 5.63-12.551 12.551v40.598c0 6.92 5.631 12.55 12.551 12.55z"/><path d="m148.669 218.869c-12.639 0-22.922 10.283-22.922 22.922s10.283 22.922 22.922 22.922c12.64 0 22.922-10.283 22.922-22.922s-10.282-22.922-22.922-22.922zm0 30.844c-4.368 0-7.922-3.554-7.922-7.922s3.554-7.922 7.922-7.922c4.369 0 7.922 3.554 7.922 7.922s-3.553 7.922-7.922 7.922z"/><path d="m361.486 218.869c-12.639 0-22.922 10.283-22.922 22.922s10.283 22.922 22.922 22.922 22.922-10.283 22.922-22.922-10.284-22.922-22.922-22.922zm0 30.844c-4.368 0-7.922-3.554-7.922-7.922s3.554-7.922 7.922-7.922 7.922 3.554 7.922 7.922-3.554 7.922-7.922 7.922z"/><path d="m318.058 234.291h-125.96c-4.142 0-7.5 3.357-7.5 7.5s3.358 7.5 7.5 7.5h125.96c4.143 0 7.5-3.357 7.5-7.5s-3.358-7.5-7.5-7.5z"/><path d="m303.555 271.533h-96.955c-4.142 0-7.5 3.357-7.5 7.5s3.358 7.5 7.5 7.5h96.955c4.143 0 7.5-3.357 7.5-7.5s-3.357-7.5-7.5-7.5z"/><path d="m291.952 308.775h-73.75c-4.142 0-7.5 3.357-7.5 7.5s3.358 7.5 7.5 7.5h73.75c4.143 0 7.5-3.357 7.5-7.5s-3.357-7.5-7.5-7.5z"/></g></svg>