<svg id="Capa_1" enable-background="new 0 0 512.027 512.027" height="512" viewBox="0 0 512.027 512.027" width="512" xmlns="http://www.w3.org/2000/svg"><g><path d="m493.516 127.402v-48.863c0-12.593-10.245-22.838-22.838-22.838h-428.328c-12.593 0-22.838 10.245-22.838 22.838v314.357h-6.129c-7.379 0-13.383 6.004-13.383 13.383v15.293c0 19.163 15.591 34.754 34.755 34.754h437.026c22.191 0 40.246-18.055 40.246-40.246v-254.832c0-14.189-7.387-26.677-18.511-33.846zm-478.516 294.17v-13.676h281.09v8.184c0 9.554 3.353 18.336 8.935 25.246h-270.27c-10.893 0-19.755-8.861-19.755-19.754zm482.027-5.492c0 13.921-11.325 25.246-25.246 25.246h-135.445c-13.921 0-25.246-11.325-25.246-25.246v-116.672c0-4.143-3.357-7.5-7.5-7.5s-7.5 3.357-7.5 7.5v63.488h-231.578v-262.195h67.108c4.143 0 7.5-3.357 7.5-7.5s-3.357-7.5-7.5-7.5h-74.608c-4.143 0-7.5 3.357-7.5 7.5v277.195c0 4.143 3.357 7.5 7.5 7.5h239.078v15h-261.578v-314.357c0-4.322 3.516-7.838 7.838-7.838h428.328c4.322 0 7.838 3.516 7.838 7.838v43.037c-2.191-.371-4.439-.574-6.734-.574h-8.266v-27.801c0-4.143-3.357-7.5-7.5-7.5h-292.412c-4.143 0-7.5 3.357-7.5 7.5s3.357 7.5 7.5 7.5h284.911v20.301h-112.18c-22.191 0-40.246 18.055-40.246 40.246v105.795c0 4.143 3.357 7.5 7.5 7.5s7.5-3.357 7.5-7.5v-105.795c0-13.339 10.4-24.288 23.517-25.18l10.749 22.145c3.622 7.461 11.321 12.281 19.614 12.281h78.178c8.294 0 15.992-4.821 19.613-12.281l10.749-22.145c13.117.892 23.518 11.841 23.518 25.18zm-40.159-280.078-7.601 15.661c-1.13 2.327-3.531 3.831-6.119 3.831h-78.178c-2.588 0-4.99-1.504-6.12-3.832l-7.601-15.66z"/><path d="m404.059 210.848c-42.908 0-77.816 34.908-77.816 77.816s34.908 77.816 77.816 77.816c15.024 0 29.625-4.311 42.222-12.465 3.478-2.251 4.472-6.895 2.221-10.371-2.251-3.478-6.896-4.472-10.371-2.221-10.164 6.579-21.945 10.057-34.071 10.057-34.637 0-62.816-28.18-62.816-62.816s28.18-62.816 62.816-62.816 62.815 28.18 62.815 62.816c0 11.343-3.063 22.465-8.858 32.162-2.125 3.556-.966 8.161 2.59 10.285 3.557 2.126 8.16.966 10.285-2.59 7.186-12.022 10.983-25.806 10.983-39.857-.001-42.908-34.909-77.816-77.816-77.816z"/><path d="m433.721 259.458-36.895 42.777-5.435-6.34c-2.694-3.144-7.429-3.509-10.575-.813-3.146 2.695-3.509 7.431-.813 10.575l11.111 12.963c1.422 1.659 3.497 2.616 5.683 2.619h.012c2.182 0 4.255-.949 5.68-2.602l42.592-49.383c2.705-3.137 2.355-7.872-.781-10.578-3.138-2.704-7.873-2.356-10.579.782z"/><path d="m277.387 132.244h-152.679c-12.814 0-23.239 10.425-23.239 23.238v168.023c0 12.813 10.425 23.238 23.239 23.238h148.882c4.143 0 7.5-3.357 7.5-7.5s-3.357-7.5-7.5-7.5h-148.882c-4.543 0-8.239-3.695-8.239-8.238v-135.251h155.448c4.143 0 7.5-3.357 7.5-7.5s-3.357-7.5-7.5-7.5h-155.448v-17.771c0-4.543 3.696-8.238 8.239-8.238h152.679c4.143 0 7.5-3.357 7.5-7.5s-3.358-7.501-7.5-7.501z"/></g></svg>