<svg id="Capa_1" enable-background="new 0 0 512.01 512.01" height="512" viewBox="0 0 512.01 512.01" width="512" xmlns="http://www.w3.org/2000/svg"><g><path d="m423.962 153.994h-53.633c-10.302 0-18.684 8.382-18.684 18.684v104.826c0 4.143 3.357 7.5 7.5 7.5s7.5-3.357 7.5-7.5v-36.143h61v84.008c0 94.643-76.998 171.641-171.641 171.641-46.943 0-90.774-18.6-123.42-52.374-2.879-2.976-7.626-3.06-10.605-.18-2.978 2.879-3.059 7.627-.18 10.605 35.497 36.724 83.158 56.948 134.205 56.948 102.914 0 186.641-83.727 186.641-186.641v-152.69c.001-10.302-8.381-18.684-18.683-18.684zm-57.316 72.367v-53.684c0-2.031 1.652-3.684 3.684-3.684h53.633c2.031 0 3.684 1.652 3.684 3.684v53.684z"/><path d="m84.364 325.369v-84.008h61v84.008c0 61.008 49.633 110.641 110.641 110.641s110.641-49.633 110.641-110.641v-15.881c0-4.143-3.357-7.5-7.5-7.5s-7.5 3.357-7.5 7.5v15.881c0 52.736-42.904 95.641-95.641 95.641s-95.641-42.904-95.641-95.641v-152.691c0-10.302-8.382-18.684-18.684-18.684h-53.632c-10.302 0-18.684 8.382-18.684 18.684v152.691c0 37.146 10.893 73.033 31.499 103.781 2.307 3.44 6.964 4.357 10.406 2.055 3.44-2.307 4.36-6.965 2.055-10.406-18.946-28.269-28.96-61.268-28.96-95.43zm3.684-156.375h53.633c2.031 0 3.684 1.652 3.684 3.684v53.684h-61v-53.684c-.001-2.032 1.652-3.684 3.683-3.684z"/><path d="m254.315 193.002c51.297 0 93.622-40.091 96.358-91.271.222-4.137-2.953-7.669-7.089-7.89-4.129-.234-7.668 2.951-7.89 7.089-.694 12.984-4.424 25.112-10.453 35.742-3.548-12.034-10.109-23.021-19.19-31.905 8.424-10.983 13.446-24.706 13.446-39.585 0-7.988-1.451-15.641-4.093-22.72 7.336 8.312 13.06 18.212 16.59 29.313 1.255 3.947 5.473 6.132 9.42 4.875 3.947-1.255 6.13-5.473 4.875-9.42-12.786-40.212-49.747-67.23-91.974-67.23-53.211 0-96.501 43.29-96.501 96.501s43.29 96.501 96.501 96.501zm0-15c-23.076 0-43.927-9.656-58.769-25.121 1.14-14.181 7.329-27.391 17.451-37.326 11.255 9.248 25.648 14.809 41.318 14.809 15.669 0 30.063-5.561 41.317-14.809 10.145 9.956 16.356 23.195 17.479 37.408-14.864 15.465-35.758 25.039-58.796 25.039zm0-163.002c27.671 0 50.183 22.512 50.183 50.182 0 27.671-22.512 50.183-50.183 50.183s-50.183-22.512-50.183-50.183c.001-27.67 22.513-50.182 50.183-50.182zm-61.218 27.786c-2.564 6.987-3.965 14.531-3.965 22.396 0 14.878 5.022 28.6 13.445 39.583-9.067 8.87-15.612 19.841-19.162 31.854-6.734-11.854-10.601-25.539-10.601-40.118 0-20.564 7.672-39.36 20.283-53.715z"/><path d="m104.561 102.001h10.072l-5.136 26.964c-.775 4.069 1.895 7.996 5.964 8.771.474.091.946.134 1.412.134 3.529 0 6.674-2.503 7.358-6.098l6.832-35.867c.419-2.195-.164-4.463-1.589-6.185s-3.543-2.719-5.778-2.719h-9.242l9.631-34.324c1.119-3.988-1.206-8.129-5.194-9.247-3.988-1.121-8.128 1.206-9.247 5.194l-12.304 43.851c-.635 2.26-.174 4.687 1.244 6.557s3.629 2.969 5.977 2.969z"/><path d="m386.419 102.001h10.072l-5.136 26.964c-.775 4.069 1.895 7.996 5.964 8.771.474.091.946.134 1.412.134 3.529 0 6.674-2.503 7.358-6.098l6.832-35.867c.419-2.195-.164-4.463-1.589-6.185s-3.543-2.719-5.778-2.719h-9.242l9.631-34.324c1.119-3.988-1.206-8.129-5.194-9.247-3.989-1.121-8.128 1.206-9.247 5.194l-12.304 43.851c-.635 2.26-.174 4.687 1.244 6.557s3.629 2.969 5.977 2.969z"/></g></svg>